<?xml version="1.0" encoding="UTF-8"?>
<svg xmlns="http://www.w3.org/2000/svg" viewBox="0 0 1200 402" width="1200" height="402" role="img" aria-label="#001 — F1 (2025)">
  <defs><filter id="fibers" x="0%" y="0%" width="100%" height="100%"><feTurbulence type="fractalNoise" baseFrequency="0.04 0.7" numOctaves="2" stitchTiles="stitch" seed="4"/><feColorMatrix values="0 0 0 0 0.38  0 0 0 0 0.26  0 0 0 0 0.13  0 0 0 -0.7 0.28"/></filter><filter id="grain" x="0%" y="0%" width="100%" height="100%"><feTurbulence type="fractalNoise" baseFrequency="0.65" numOctaves="3" stitchTiles="stitch" seed="2"/><feColorMatrix values="0 0 0 0 0.42  0 0 0 0 0.30  0 0 0 0 0.16  0 0 0 -1.1 0.5"/></filter></defs>
  <rect width="100%" height="100%" fill="#e3d3a2"/>
  <rect width="100%" height="100%" filter="url(#fibers)" opacity="0.55"/>
  <rect width="100%" height="100%" filter="url(#grain)" opacity="0.85"/>
  <text x="600.0" y="34" text-anchor="middle" font-family="Comic Neue, Comic Sans MS, cursive" font-size="16" font-weight="700" fill="black">#001 — F1 (2025) ★★★½</text>
  <g class="panel">
    <path d="M 16.00 46.00 C 142.67 45.91, 269.33 45.31, 396.00 46.00 C 395.98 159.33, 396.45 272.67, 396.00 386.00 C 269.33 386.20, 142.67 386.36, 16.00 386.00 C 15.28 272.67, 16.45 159.33, 16.00 46.00" fill="none" stroke="black" stroke-width="2.0" stroke-linecap="round" stroke-linejoin="round"/>
    <path d="M 26.00 362.00 C 146.00 361.11, 266.00 362.19, 386.00 362.00" fill="none" stroke="black" stroke-width="1.4" stroke-linecap="round"/>
    <path d="M 151.60 326.00 C 159.60 325.22, 167.60 325.26, 175.60 326.00 C 175.00 336.67, 174.21 347.33, 173.60 358.00 C 166.93 358.40, 160.27 358.72, 153.60 358.00 C 153.63 347.29, 151.61 336.71, 151.60 326.00" fill="none" stroke="black" stroke-width="2.0" stroke-linecap="round" stroke-linejoin="round"/>
    <path d="M 157.60 328.00 C 157.85 337.33, 157.59 346.67, 157.60 356.00" fill="none" stroke="black" stroke-width="1.4" stroke-linecap="round"/>
    <path d="M 163.60 328.00 C 163.78 337.33, 162.75 346.67, 163.60 356.00" fill="none" stroke="black" stroke-width="1.4" stroke-linecap="round"/>
    <path d="M 169.60 328.00 C 170.08 337.33, 169.76 346.67, 169.60 356.00" fill="none" stroke="black" stroke-width="1.4" stroke-linecap="round"/>
    <path d="M 160.09 324.00 C 160.28 324.38, 160.32 324.82, 160.51 325.20 C 160.05 325.23, 159.59 325.27, 159.42 325.82 C 159.10 325.93, 158.96 326.34, 158.56 326.31 C 158.34 326.69, 158.00 326.78, 157.60 326.71 C 157.26 326.47, 156.88 326.63, 156.52 326.61 C 156.07 326.52, 156.19 325.94, 155.81 325.79 C 155.76 325.34, 155.07 325.55, 155.05 325.05 C 154.88 324.67, 155.21 324.36, 155.20 324.00 C 154.81 323.67, 154.77 323.18, 154.59 322.75 C 154.76 322.25, 155.41 322.46, 155.65 322.05 C 156.14 321.72, 155.68 320.99, 156.22 320.68 C 156.79 320.70, 157.31 320.82, 157.60 321.38 C 157.84 321.76, 158.35 321.19, 158.57 321.65 C 158.97 321.62, 159.36 321.67, 159.71 321.89 C 160.03 322.18, 160.25 322.59, 160.70 322.71 C 160.72 323.25, 160.40 323.62, 160.09 324.00" fill="none" stroke="black" stroke-width="2.0" stroke-linecap="round"/>
    <path d="M 168.77 320.00 C 168.89 320.57, 168.86 321.14, 168.73 321.71 C 168.52 322.33, 168.06 322.67, 167.45 322.85 C 167.06 323.22, 166.59 323.44, 166.07 323.56 C 165.76 324.14, 165.20 324.34, 164.60 324.48 C 163.95 324.56, 163.66 323.75, 163.00 323.86 C 162.88 323.28, 162.20 323.10, 162.07 322.53 C 161.56 322.28, 161.13 321.90, 160.62 321.65 C 160.23 321.17, 160.27 320.56, 160.18 320.00 C 160.73 319.68, 160.71 318.96, 161.18 318.59 C 161.29 318.08, 161.78 317.81, 161.93 317.33 C 162.36 317.10, 162.91 317.20, 163.29 316.85 C 163.95 316.86, 164.10 316.14, 164.60 315.93 C 165.11 316.33, 165.69 315.95, 166.23 316.07 C 166.49 316.57, 167.25 316.61, 167.32 317.28 C 167.88 317.48, 168.38 317.75, 168.64 318.33 C 168.73 318.88, 168.51 319.46, 168.77 320.00" fill="none" stroke="black" stroke-width="2.0" stroke-linecap="round"/>
    <path d="M 174.48 325.00 C 174.60 325.40, 174.21 325.81, 174.51 326.20 C 174.74 326.75, 173.97 326.99, 174.11 327.51 C 173.59 327.66, 173.10 327.40, 172.59 327.40 C 172.41 327.85, 171.89 327.92, 171.60 328.24 C 171.14 328.34, 170.75 328.18, 170.40 327.89 C 169.91 327.93, 169.53 327.60, 169.07 327.53 C 169.33 327.04, 169.32 326.54, 169.05 326.06 C 168.57 325.84, 168.31 325.41, 168.03 325.00 C 168.27 324.61, 168.77 324.37, 168.72 323.81 C 169.19 323.47, 168.80 322.89, 169.10 322.50 C 169.60 322.66, 170.09 322.84, 170.62 322.64 C 171.03 322.84, 171.34 322.68, 171.60 322.37 C 172.03 322.55, 172.39 322.31, 172.77 322.17 C 173.27 322.29, 173.32 322.75, 173.47 323.13 C 173.48 323.65, 173.87 323.78, 174.27 323.90 C 174.71 324.19, 174.03 324.70, 174.48 325.00" fill="none" stroke="black" stroke-width="2.0" stroke-linecap="round"/>
    <path d="M 149.62 270.00 C 149.34 271.53, 148.92 273.01, 148.24 274.41 C 147.18 275.59, 147.01 277.24, 146.09 278.49 C 144.92 279.54, 143.39 280.04, 142.15 280.99 C 140.54 281.21, 139.22 282.30, 137.60 282.50 C 136.11 281.86, 134.62 281.25, 132.97 281.17 C 131.50 280.50, 130.12 279.66, 128.69 278.91 C 128.15 277.33, 127.00 276.13, 126.16 274.74 C 125.77 273.18, 125.37 271.62, 125.27 270.00 C 125.47 268.40, 125.75 266.82, 126.20 265.28 C 127.16 264.02, 128.60 263.22, 129.46 261.86 C 130.68 260.86, 131.66 259.60, 132.87 258.59 C 134.47 258.42, 136.05 258.12, 137.60 257.71 C 138.97 258.53, 140.39 259.20, 141.99 259.39 C 143.37 260.04, 144.43 261.23, 145.93 261.67 C 147.06 262.77, 148.14 263.91, 148.89 265.32 C 149.37 266.85, 149.09 268.49, 149.62 270.00" fill="none" stroke="black" stroke-width="2.0" stroke-linecap="round"/>
    <path d="M 125.60 268.00 C 125.48 278.70, 123.81 289.30, 123.60 300.00" fill="none" stroke="black" stroke-width="2.0" stroke-linecap="round"/>
    <path d="M 127.60 266.00 C 126.51 278.64, 125.28 291.28, 125.60 304.00" fill="none" stroke="black" stroke-width="2.0" stroke-linecap="round"/>
    <path d="M 149.60 268.00 C 150.25 278.67, 151.86 289.28, 151.60 300.00" fill="none" stroke="black" stroke-width="2.0" stroke-linecap="round"/>
    <path d="M 133.60 258.00 C 131.99 257.88, 131.10 256.34, 129.60 256.00" fill="none" stroke="black" stroke-width="1.4" stroke-linecap="round"/>
    <path d="M 141.60 258.00 C 143.25 257.96, 144.45 257.04, 145.60 256.00" fill="none" stroke="black" stroke-width="1.4" stroke-linecap="round"/>
    <path d="M 137.60 282.00 C 136.74 296.00, 136.68 310.00, 137.60 324.00" fill="none" stroke="black" stroke-width="2.0" stroke-linecap="round"/>
    <path d="M 137.60 290.00 C 131.94 296.40, 126.28 302.81, 121.60 310.00" fill="none" stroke="black" stroke-width="2.0" stroke-linecap="round"/>
    <path d="M 137.60 290.00 C 143.54 296.18, 148.07 303.49, 153.60 310.00" fill="none" stroke="black" stroke-width="2.0" stroke-linecap="round"/>
    <path d="M 137.60 324.00 C 134.36 333.02, 129.79 341.42, 125.60 350.00" fill="none" stroke="black" stroke-width="2.0" stroke-linecap="round"/>
    <path d="M 137.60 324.00 C 141.51 332.71, 146.46 340.93, 149.60 350.00" fill="none" stroke="black" stroke-width="2.0" stroke-linecap="round"/>
    <path d="M 286.96 270.00 C 286.68 271.62, 286.07 273.10, 285.13 274.44 C 284.35 275.84, 283.72 277.30, 283.21 278.81 C 282.06 280.01, 280.38 280.39, 279.15 281.47 C 277.56 281.77, 275.97 282.07, 274.40 282.48 C 272.98 281.74, 271.45 281.28, 269.95 280.75 C 268.82 279.74, 267.30 279.27, 266.26 278.14 C 265.39 276.84, 264.09 275.92, 263.19 274.64 C 262.98 273.10, 262.77 271.56, 262.91 270.00 C 263.40 268.48, 263.04 266.91, 263.22 265.37 C 263.87 263.91, 265.01 262.79, 265.89 261.49 C 267.13 260.50, 268.66 259.89, 269.69 258.62 C 271.31 258.72, 272.77 257.79, 274.40 257.92 C 275.95 258.16, 277.26 259.10, 278.77 259.46 C 280.30 259.83, 281.68 260.51, 282.91 261.49 C 283.78 262.77, 284.43 264.19, 285.24 265.51 C 285.56 267.10, 286.61 268.42, 286.96 270.00" fill="none" stroke="black" stroke-width="2.0" stroke-linecap="round"/>
    <path d="M 258.40 260.00 C 269.07 259.22, 279.73 260.10, 290.40 260.00 C 289.17 256.62, 287.73 253.33, 286.40 250.00 C 278.40 250.74, 270.40 250.38, 262.40 250.00 C 261.22 253.40, 260.22 256.86, 258.40 260.00" fill="black" stroke="black" stroke-width="2.0" stroke-linecap="round" stroke-linejoin="round"/>
    <path d="M 256.40 260.00 C 268.40 259.42, 280.40 259.71, 292.40 260.00" fill="none" stroke="black" stroke-width="2.0" stroke-linecap="round"/>
    <path d="M 274.40 282.00 C 273.52 296.00, 275.07 310.00, 274.40 324.00" fill="none" stroke="black" stroke-width="2.0" stroke-linecap="round"/>
    <path d="M 274.40 292.00 C 265.00 291.15, 255.71 289.50, 246.40 288.00" fill="none" stroke="black" stroke-width="2.0" stroke-linecap="round"/>
    <path d="M 274.40 292.00 C 279.27 298.41, 284.35 304.64, 290.40 310.00" fill="none" stroke="black" stroke-width="2.0" stroke-linecap="round"/>
    <path d="M 274.40 324.00 C 269.62 332.31, 265.55 340.94, 262.40 350.00" fill="none" stroke="black" stroke-width="2.0" stroke-linecap="round"/>
    <path d="M 274.40 324.00 C 278.14 332.78, 282.64 341.22, 286.40 350.00" fill="none" stroke="black" stroke-width="2.0" stroke-linecap="round"/>
    <path d="M 36.00 60.00 C 86.00 60.68, 136.00 60.45, 186.00 60.00 C 189.41 63.25, 192.68 66.66, 196.00 70.00 C 196.59 97.33, 195.25 124.67, 196.00 152.00 C 192.52 155.19, 189.50 158.83, 186.00 162.00 C 136.00 161.85, 86.00 161.82, 36.00 162.00 C 32.93 158.40, 29.84 154.83, 26.00 152.00 C 25.37 124.67, 26.09 97.33, 26.00 70.00 C 28.90 66.24, 32.31 62.97, 36.00 60.00" fill="#e3d3a2" stroke="black" stroke-width="2.0" stroke-linecap="round" stroke-linejoin="round"/>
    <path d="M 138.60 162.00 C 141.27 199.31, 143.33 236.66, 145.60 274.00 C 147.49 236.64, 149.84 199.31, 152.60 162.00" fill="#e3d3a2" stroke="black" stroke-width="2.0" stroke-linecap="round" stroke-linejoin="round"/>
    <line x1="139.60000000000002" y1="162" x2="151.60000000000002" y2="162" stroke="#e3d3a2" stroke-width="2.4"/>
    <text x="111.0" y="78.0" text-anchor="middle" font-family="Comic Neue, Comic Sans MS, cursive" font-size="13" fill="black"><tspan x="111.0" dy="0">damn SON! but not very</tspan><tspan x="111.0" dy="16">memorable, it’s</tspan><tspan x="111.0" dy="16">missing the soul that</tspan><tspan x="111.0" dy="16">Maverick had. yet</tspan><tspan x="111.0" dy="16">visually satisfied,</tspan></text>
    <path d="M 226.00 60.00 C 276.00 60.38, 326.00 59.45, 376.00 60.00 C 379.10 63.56, 382.37 66.96, 386.00 70.00 C 386.26 81.33, 386.44 92.67, 386.00 104.00 C 382.66 107.33, 379.61 110.95, 376.00 114.00 C 326.00 114.54, 276.00 114.71, 226.00 114.00 C 223.11 110.22, 219.18 107.48, 216.00 104.00 C 215.20 92.67, 216.64 81.33, 216.00 70.00 C 219.70 67.03, 222.68 63.35, 226.00 60.00" fill="#e3d3a2" stroke="black" stroke-width="2.0" stroke-linecap="round" stroke-linejoin="round"/>
    <path d="M 259.40 114.00 C 262.17 167.31, 263.69 220.68, 266.40 274.00 C 268.28 220.65, 271.44 167.35, 273.40 114.00" fill="#e3d3a2" stroke="black" stroke-width="2.0" stroke-linecap="round" stroke-linejoin="round"/>
    <line x1="260.40000000000003" y1="114" x2="272.40000000000003" y2="114" stroke="#e3d3a2" stroke-width="2.4"/>
    <text x="301.0" y="78.0" text-anchor="middle" font-family="Comic Neue, Comic Sans MS, cursive" font-size="13" fill="black"><tspan x="301.0" dy="0">THEY VERY WELL CRAFTED</tspan><tspan x="301.0" dy="16">EVERY LEWIS SEQUENCE!</tspan></text>
  </g>
  <g class="panel">
    <path d="M 410.00 46.00 C 536.67 45.32, 663.33 45.63, 790.00 46.00 C 789.74 159.33, 790.20 272.67, 790.00 386.00 C 663.33 386.67, 536.67 386.37, 410.00 386.00 C 409.23 272.67, 409.91 159.33, 410.00 46.00" fill="none" stroke="black" stroke-width="2.0" stroke-linecap="round" stroke-linejoin="round"/>
    <path d="M 420.00 362.00 C 540.00 361.02, 660.00 362.89, 780.00 362.00" fill="none" stroke="black" stroke-width="1.4" stroke-linecap="round"/>
    <path d="M 573.94 270.00 C 573.46 271.50, 573.25 273.04, 573.11 274.60 C 572.03 275.72, 571.05 276.92, 570.25 278.25 C 569.03 279.15, 567.48 279.51, 566.41 280.65 C 564.82 280.96, 563.48 281.89, 562.00 282.46 C 560.37 282.36, 558.76 282.16, 557.26 281.44 C 556.27 280.19, 554.98 279.25, 553.88 278.12 C 552.65 277.15, 551.78 275.90, 551.10 274.51 C 550.95 272.91, 550.21 271.49, 549.68 270.00 C 549.79 268.38, 550.53 266.96, 551.10 265.49 C 552.17 264.31, 552.36 262.62, 553.48 261.48 C 554.69 260.43, 555.84 259.30, 557.22 258.47 C 558.81 258.34, 560.41 258.25, 562.00 258.12 C 563.60 257.98, 565.13 258.31, 566.63 258.81 C 567.77 259.87, 569.18 260.61, 570.20 261.80 C 570.95 263.12, 571.91 264.30, 572.78 265.54 C 573.02 267.06, 573.40 268.55, 573.94 270.00" fill="none" stroke="black" stroke-width="2.0" stroke-linecap="round"/>
    <path d="M 546.00 260.00 C 556.67 259.89, 567.33 260.18, 578.00 260.00 C 577.39 256.38, 575.09 253.43, 574.00 250.00 C 566.00 249.49, 558.00 249.85, 550.00 250.00 C 548.37 253.21, 546.61 256.38, 546.00 260.00" fill="black" stroke="black" stroke-width="2.0" stroke-linecap="round" stroke-linejoin="round"/>
    <path d="M 544.00 260.00 C 556.00 259.57, 568.00 259.05, 580.00 260.00" fill="none" stroke="black" stroke-width="2.0" stroke-linecap="round"/>
    <path d="M 562.00 282.00 C 562.31 296.00, 561.36 310.00, 562.00 324.00" fill="none" stroke="black" stroke-width="2.0" stroke-linecap="round"/>
    <path d="M 562.00 292.00 C 566.83 287.50, 571.27 282.61, 576.00 278.00" fill="none" stroke="black" stroke-width="2.0" stroke-linecap="round"/>
    <path d="M 576.00 278.00 C 573.56 276.43, 570.70 276.54, 568.00 276.00" fill="none" stroke="black" stroke-width="2.0" stroke-linecap="round"/>
    <path d="M 562.00 292.00 C 556.66 298.00, 551.57 304.21, 546.00 310.00" fill="none" stroke="black" stroke-width="2.0" stroke-linecap="round"/>
    <path d="M 562.00 324.00 C 557.13 332.27, 553.75 341.22, 550.00 350.00" fill="none" stroke="black" stroke-width="2.0" stroke-linecap="round"/>
    <path d="M 562.00 324.00 C 566.58 332.40, 569.56 341.54, 574.00 350.00" fill="none" stroke="black" stroke-width="2.0" stroke-linecap="round"/>
    <path d="M 784.00 111.00 C 778.69 118.71, 772.81 126.01, 767.90 134.00 C 759.43 141.41, 752.02 149.94, 743.34 157.13 C 728.52 159.49, 713.52 160.39, 698.70 162.67 C 683.07 164.18, 667.56 166.73, 651.97 168.52 C 638.48 163.89, 625.60 157.77, 612.40 152.44 C 601.30 146.88, 590.19 141.33, 578.70 136.60 C 576.69 128.15, 575.96 119.46, 574.00 111.00 C 576.18 102.58, 577.21 93.95, 578.70 85.40 C 590.21 80.71, 601.05 74.58, 612.40 69.56 C 625.47 63.91, 638.72 58.70, 651.97 53.48 C 667.58 55.12, 683.08 57.69, 698.70 59.33 C 713.59 61.09, 728.39 63.56, 743.34 64.87 C 751.58 72.52, 760.15 79.83, 767.90 88.00 C 773.27 95.67, 778.58 103.37, 784.00 111.00" fill="#e3d3a2" stroke="black" stroke-width="2.0" stroke-linecap="round" stroke-linejoin="round"/>
    <path d="M 622.38 205.12 C 622.68 205.61, 622.84 206.12, 622.56 206.68 C 622.19 207.07, 622.10 207.65, 621.69 208.01 C 621.08 208.06, 620.73 208.49, 620.37 208.91 C 619.85 208.82, 619.33 208.73, 618.80 208.87 C 618.24 209.06, 617.65 209.12, 617.08 209.26 C 616.61 208.83, 616.32 208.31, 616.26 207.66 C 616.34 207.11, 616.17 206.68, 615.64 206.43 C 615.07 206.18, 614.76 205.73, 614.66 205.12 C 614.75 204.58, 614.98 204.10, 615.34 203.69 C 615.87 203.51, 616.13 203.10, 616.26 202.58 C 616.70 202.42, 616.98 201.96, 617.48 201.95 C 617.85 201.53, 618.36 201.31, 618.80 201.00 C 619.35 201.09, 619.91 201.05, 620.47 201.10 C 621.09 201.18, 621.30 201.90, 621.90 202.02 C 622.28 202.45, 622.27 203.15, 622.87 203.43 C 622.78 204.02, 622.81 204.63, 622.38 205.12" fill="#e3d3a2" stroke="black" stroke-width="2.0" stroke-linecap="round"/>
    <path d="M 601.17 220.80 C 600.73 220.98, 600.61 221.44, 600.33 221.77 C 599.91 222.07, 599.95 222.47, 600.09 222.89 C 599.79 223.13, 599.51 223.41, 599.09 223.44 C 598.78 223.77, 598.36 223.94, 598.00 224.20 C 597.52 224.40, 597.18 223.67, 596.68 223.98 C 596.41 223.59, 595.87 223.58, 595.59 223.21 C 595.39 222.82, 595.35 222.33, 594.91 222.08 C 595.08 221.63, 595.05 221.20, 594.76 220.80 C 594.89 220.39, 595.26 220.12, 595.37 219.71 C 595.42 219.24, 595.49 218.76, 595.48 218.28 C 596.00 218.37, 596.52 218.37, 597.04 218.47 C 597.20 218.03, 597.85 218.25, 598.00 217.78 C 598.46 217.54, 598.75 218.00, 599.13 218.06 C 599.03 218.57, 599.58 218.71, 599.72 219.08 C 600.13 219.19, 600.61 219.15, 600.86 219.62 C 601.09 219.98, 600.79 220.48, 601.17 220.80" fill="#e3d3a2" stroke="black" stroke-width="2.0" stroke-linecap="round"/>
    <path d="M 584.71 232.56 C 584.45 232.80, 584.00 232.76, 583.84 233.16 C 583.59 233.68, 583.89 234.03, 584.22 234.38 C 583.82 234.06, 583.62 234.86, 583.23 234.55 C 583.01 234.29, 582.59 234.58, 582.40 234.24 C 582.14 234.52, 581.66 234.44, 581.46 234.82 C 581.21 234.60, 580.93 234.42, 580.58 234.38 C 580.52 234.05, 580.75 233.66, 580.37 233.40 C 580.14 233.11, 580.73 232.86, 580.41 232.56 C 580.80 232.56, 580.78 232.14, 581.03 231.99 C 581.17 231.86, 581.24 231.67, 581.40 231.56 C 581.16 231.18, 581.68 230.97, 581.60 230.63 C 581.89 230.49, 582.00 230.08, 582.40 230.12 C 582.63 230.47, 582.60 230.95, 582.94 231.25 C 583.21 230.97, 583.34 231.60, 583.60 231.36 C 583.65 231.77, 584.21 231.39, 584.26 231.79 C 584.66 231.90, 584.67 232.24, 584.71 232.56" fill="#e3d3a2" stroke="black" stroke-width="2.0" stroke-linecap="round"/>
    <text x="676.0" y="78.0" text-anchor="middle" font-family="Comic Neue, Comic Sans MS, cursive" font-size="13" fill="black"><tspan x="676.0" dy="0">FUCKING LOVED IT.</tspan><tspan x="676.0" dy="16">THROUGH GOES SoNNY HAYES</tspan><tspan x="676.0" dy="16">is a lil too Cocky but</tspan><tspan x="676.0" dy="16">hmm okay soundtrack was</tspan><tspan x="676.0" dy="16">the OG of all aspects,</tspan></text>
    
  </g>
  <g class="panel">
    <path d="M 804.00 46.00 C 930.67 46.43, 1057.33 45.50, 1184.00 46.00 C 1184.25 159.33, 1184.13 272.67, 1184.00 386.00 C 1057.33 386.55, 930.67 386.03, 804.00 386.00 C 804.66 272.67, 803.59 159.33, 804.00 46.00" fill="none" stroke="black" stroke-width="2.0" stroke-linecap="round" stroke-linejoin="round"/>
    <path d="M 814.00 362.00 C 934.00 362.65, 1054.00 361.54, 1174.00 362.00" fill="none" stroke="black" stroke-width="1.4" stroke-linecap="round"/>
    <path d="M 872.40 314.00 C 892.40 314.10, 912.40 313.78, 932.40 314.00 C 931.89 324.67, 933.03 335.33, 932.40 346.00 C 912.40 345.59, 892.40 346.01, 872.40 346.00 C 872.15 335.33, 872.40 324.67, 872.40 314.00" fill="none" stroke="black" stroke-width="2.0" stroke-linecap="round" stroke-linejoin="round"/>
    <path d="M 872.40 302.00 C 892.40 301.26, 912.40 301.83, 932.40 302.00 C 933.09 306.00, 932.29 310.00, 932.40 314.00 C 912.40 313.85, 892.40 313.68, 872.40 314.00 C 873.09 310.00, 872.01 306.00, 872.40 302.00" fill="#e3d3a2" stroke="black" stroke-width="2.0" stroke-linecap="round" stroke-linejoin="round"/>
    <path d="M 876.40 314.00 C 880.68 310.28, 883.94 305.54, 888.40 302.00 C 891.07 301.66, 893.73 301.70, 896.40 302.00 C 892.70 306.30, 888.34 309.94, 884.40 314.00 C 881.73 313.65, 879.07 313.44, 876.40 314.00" fill="black" stroke="black" stroke-width="2.0" stroke-linecap="round" stroke-linejoin="round"/>
    <path d="M 900.40 314.00 C 904.28 309.88, 908.71 306.31, 912.40 302.00 C 915.07 301.31, 917.73 302.07, 920.40 302.00 C 916.84 306.44, 912.27 309.87, 908.40 314.00 C 905.73 314.63, 903.07 314.79, 900.40 314.00" fill="black" stroke="black" stroke-width="2.0" stroke-linecap="round" stroke-linejoin="round"/>
    <path d="M 1066.45 270.00 C 1066.36 271.58, 1066.64 273.18, 1066.28 274.76 C 1065.41 276.10, 1064.22 277.21, 1063.40 278.60 C 1061.92 279.31, 1061.10 280.88, 1059.59 281.56 C 1057.99 281.77, 1056.39 281.24, 1054.80 281.58 C 1053.21 281.46, 1051.61 281.86, 1050.02 281.55 C 1048.80 280.45, 1047.48 279.52, 1046.00 278.80 C 1045.19 277.43, 1044.21 276.14, 1043.84 274.54 C 1043.66 272.93, 1042.68 271.58, 1042.40 270.00 C 1042.72 268.42, 1043.22 266.87, 1043.33 265.25 C 1044.10 263.82, 1045.18 262.64, 1046.26 261.46 C 1047.58 260.65, 1048.92 259.87, 1050.42 259.44 C 1051.99 259.31, 1053.31 258.39, 1054.80 258.04 C 1056.39 258.19, 1057.99 258.17, 1059.55 258.52 C 1061.00 259.27, 1061.87 260.76, 1063.36 261.44 C 1064.05 262.85, 1065.28 263.93, 1065.79 265.45 C 1066.33 266.92, 1066.62 268.43, 1066.45 270.00" fill="none" stroke="black" stroke-width="2.0" stroke-linecap="round"/>
    <path d="M 1042.80 268.00 C 1043.00 278.72, 1040.82 289.29, 1040.80 300.00" fill="none" stroke="black" stroke-width="2.0" stroke-linecap="round"/>
    <path d="M 1044.80 266.00 C 1044.06 278.66, 1042.60 291.29, 1042.80 304.00" fill="none" stroke="black" stroke-width="2.0" stroke-linecap="round"/>
    <path d="M 1066.80 268.00 C 1068.30 278.61, 1068.31 289.32, 1068.80 300.00" fill="none" stroke="black" stroke-width="2.0" stroke-linecap="round"/>
    <path d="M 1050.80 258.00 C 1049.37 257.52, 1048.28 256.37, 1046.80 256.00" fill="none" stroke="black" stroke-width="1.4" stroke-linecap="round"/>
    <path d="M 1058.80 258.00 C 1060.35 257.76, 1061.23 256.20, 1062.80 256.00" fill="none" stroke="black" stroke-width="1.4" stroke-linecap="round"/>
    <path d="M 1054.80 282.00 C 1055.74 296.00, 1055.73 310.00, 1054.80 324.00" fill="none" stroke="black" stroke-width="2.0" stroke-linecap="round"/>
    <path d="M 1054.80 292.00 C 1045.54 290.19, 1036.20 288.89, 1026.80 288.00" fill="none" stroke="black" stroke-width="2.0" stroke-linecap="round"/>
    <path d="M 1054.80 292.00 C 1060.61 297.58, 1065.83 303.68, 1070.80 310.00" fill="none" stroke="black" stroke-width="2.0" stroke-linecap="round"/>
    <path d="M 1054.80 324.00 C 1050.20 332.39, 1047.26 341.55, 1042.80 350.00" fill="none" stroke="black" stroke-width="2.0" stroke-linecap="round"/>
    <path d="M 1054.80 324.00 C 1058.83 332.65, 1061.89 341.75, 1066.80 350.00" fill="none" stroke="black" stroke-width="2.0" stroke-linecap="round"/>
    <path d="M 1024.00 60.00 C 1070.67 59.44, 1117.33 59.95, 1164.00 60.00 C 1167.61 63.05, 1170.48 66.85, 1174.00 70.00 C 1174.17 76.00, 1173.99 82.00, 1174.00 88.00 C 1171.20 91.87, 1167.05 94.38, 1164.00 98.00 C 1117.33 97.72, 1070.67 98.57, 1024.00 98.00 C 1021.16 94.18, 1017.16 91.51, 1014.00 88.00 C 1014.48 82.00, 1014.24 76.00, 1014.00 70.00 C 1017.23 66.56, 1020.17 62.84, 1024.00 60.00" fill="#e3d3a2" stroke="black" stroke-width="2.0" stroke-linecap="round" stroke-linejoin="round"/>
    <path d="M 1039.80 98.00 C 1042.37 156.66, 1044.89 215.32, 1046.80 274.00 C 1048.44 215.31, 1050.81 156.64, 1053.80 98.00" fill="#e3d3a2" stroke="black" stroke-width="2.0" stroke-linecap="round" stroke-linejoin="round"/>
    <line x1="1040.8" y1="98" x2="1052.8" y2="98" stroke="#e3d3a2" stroke-width="2.4"/>
    <text x="1094.0" y="78.0" text-anchor="middle" font-family="Comic Neue, Comic Sans MS, cursive" font-size="13" fill="black"><tspan x="1094.0" dy="0">FUCKING LOVED IT.</tspan></text>
  </g>
</svg>
