<?xml version="1.0" encoding="UTF-8"?>
<svg xmlns="http://www.w3.org/2000/svg" viewBox="0 0 952 398" width="952" height="398" role="img" aria-label="#001 — F1 (2025)">
  <rect width="100%" height="100%" fill="white"/>
  <text x="476.0" y="32" text-anchor="middle" font-family="Comic Neue, Comic Sans MS, cursive" font-size="15" font-weight="700" fill="black">#001 — F1 (2025) ★★★½</text>
    <g class="panel">
    <rect x="14" y="44" width="300" height="340" fill="white" stroke="black" stroke-width="2"/>
    <rect x="29" y="58" width="270" height="102" rx="12" ry="12" fill="white" stroke="black" stroke-width="1.6"/>
    <polygon points="156.0,159 172.0,159 191.8731441307414,240" fill="white" stroke="black" stroke-width="1.6"/>
    <line x1="157.0" y1="160" x2="171.0" y2="160" stroke="white" stroke-width="2.2"/>
    <text x="164.0" y="76" text-anchor="middle" font-family="Comic Neue, Comic Sans MS, cursive" font-size="13" fill="black"><tspan x="164.0" dy="0">damn SON! but not very</tspan><tspan x="164.0" dy="16">memorable, it’s</tspan><tspan x="164.0" dy="16">missing the soul that</tspan><tspan x="164.0" dy="16">Maverick had. yet</tspan><tspan x="164.0" dy="16">visually satisfied,</tspan></text>
    <circle cx="191.8731441307414" cy="254" r="14" fill="none" stroke="black" stroke-width="2.2"/>
    <line x1="191.8731441307414" y1="268" x2="191.8731441307414" y2="308" stroke="black" stroke-width="2.2"/>
    <line x1="191.8731441307414" y1="280" x2="173.8731441307414" y2="298" stroke="black" stroke-width="2.2"/>
    <line x1="191.8731441307414" y1="280" x2="199.8731441307414" y2="262" stroke="black" stroke-width="2.2"/>
    <line x1="199.8731441307414" y1="262" x2="195.8731441307414" y2="250" stroke="black" stroke-width="2.2"/>
    <line x1="191.8731441307414" y1="308" x2="177.8731441307414" y2="336" stroke="black" stroke-width="2.2"/>
    <line x1="191.8731441307414" y1="308" x2="205.8731441307414" y2="336" stroke="black" stroke-width="2.2"/>
    <line x1="34" y1="350" x2="294" y2="350" stroke="black" stroke-width="1.5"/>
</g>
  <g class="panel">
    <rect x="326" y="44" width="300" height="340" fill="white" stroke="black" stroke-width="2"/>
    <rect x="341" y="58" width="270" height="70" rx="12" ry="12" fill="white" stroke="black" stroke-width="1.6"/>
    <polygon points="468.0,127 484.0,127 459.74480628082176,240" fill="white" stroke="black" stroke-width="1.6"/>
    <line x1="469.0" y1="128" x2="483.0" y2="128" stroke="white" stroke-width="2.2"/>
    <text x="476.0" y="76" text-anchor="middle" font-family="Comic Neue, Comic Sans MS, cursive" font-size="13" fill="black"><tspan x="476.0" dy="0">THEY VERY WELL CRAFTED</tspan><tspan x="476.0" dy="16">EVERY LEWIS SEQUENCE!</tspan><tspan x="476.0" dy="16">FUCKING LOVED IT.</tspan></text>
    <circle cx="459.74480628082176" cy="254" r="14" fill="none" stroke="black" stroke-width="2.2"/>
    <line x1="459.74480628082176" y1="268" x2="459.74480628082176" y2="308" stroke="black" stroke-width="2.2"/>
    <line x1="459.74480628082176" y1="280" x2="441.74480628082176" y2="298" stroke="black" stroke-width="2.2"/>
    <line x1="459.74480628082176" y1="280" x2="467.74480628082176" y2="262" stroke="black" stroke-width="2.2"/>
    <line x1="467.74480628082176" y1="262" x2="463.74480628082176" y2="250" stroke="black" stroke-width="2.2"/>
    <line x1="459.74480628082176" y1="308" x2="445.74480628082176" y2="336" stroke="black" stroke-width="2.2"/>
    <line x1="459.74480628082176" y1="308" x2="473.74480628082176" y2="336" stroke="black" stroke-width="2.2"/>
    <line x1="346" y1="350" x2="606" y2="350" stroke="black" stroke-width="1.5"/>
</g>
  <g class="panel">
    <rect x="638" y="44" width="300" height="340" fill="white" stroke="black" stroke-width="2"/>
    <rect x="653" y="58" width="270" height="102" rx="12" ry="12" fill="white" stroke="black" stroke-width="1.6"/>
    <polygon points="780.0,159 796.0,159 784.924045202175,240" fill="white" stroke="black" stroke-width="1.6"/>
    <line x1="781.0" y1="160" x2="795.0" y2="160" stroke="white" stroke-width="2.2"/>
    <text x="788.0" y="76" text-anchor="middle" font-family="Comic Neue, Comic Sans MS, cursive" font-size="13" fill="black"><tspan x="788.0" dy="0">THROUGH GOES SoNNY</tspan><tspan x="788.0" dy="16">HAYES is a lil too</tspan><tspan x="788.0" dy="16">Cocky but hmm okay</tspan><tspan x="788.0" dy="16">soundtrack was the OG</tspan><tspan x="788.0" dy="16">of all aspects, its</tspan></text>
    <circle cx="784.924045202175" cy="254" r="14" fill="none" stroke="black" stroke-width="2.2"/>
    <line x1="784.924045202175" y1="268" x2="784.924045202175" y2="308" stroke="black" stroke-width="2.2"/>
    <line x1="784.924045202175" y1="280" x2="766.924045202175" y2="298" stroke="black" stroke-width="2.2"/>
    <line x1="784.924045202175" y1="280" x2="802.924045202175" y2="298" stroke="black" stroke-width="2.2"/>
    <line x1="784.924045202175" y1="308" x2="770.924045202175" y2="336" stroke="black" stroke-width="2.2"/>
    <line x1="784.924045202175" y1="308" x2="798.924045202175" y2="336" stroke="black" stroke-width="2.2"/>
    <line x1="658" y1="350" x2="918" y2="350" stroke="black" stroke-width="1.5"/>
</g>
</svg>
