<?xml version="1.0" encoding="UTF-8"?>
<svg xmlns="http://www.w3.org/2000/svg" viewBox="0 0 806 402" width="806" height="402" role="img" aria-label="#002 — Baby Driver (2017)">
  <rect width="100%" height="100%" fill="white"/>
  <text x="403.0" y="34" text-anchor="middle" font-family="Comic Neue, Comic Sans MS, cursive" font-size="16" font-weight="700" fill="black">#002 — Baby Driver (2017) ★★★</text>
  <g class="panel">
    <path d="M 16.00 46.00 C 142.67 46.53, 269.33 46.70, 396.00 46.00 C 395.24 159.33, 395.43 272.67, 396.00 386.00 C 269.33 385.83, 142.67 386.22, 16.00 386.00 C 16.05 272.67, 16.15 159.33, 16.00 46.00" fill="none" stroke="black" stroke-width="2.0" stroke-linecap="round" stroke-linejoin="round"/>
    <path d="M 46.00 82.00 C 152.67 81.74, 259.33 82.49, 366.00 82.00 C 365.34 108.67, 366.71 135.33, 366.00 162.00 C 259.33 162.11, 152.67 162.17, 46.00 162.00 C 46.01 135.33, 46.52 108.67, 46.00 82.00" fill="#111" stroke="black" stroke-width="2.0" stroke-linecap="round" stroke-linejoin="round"/>
    <path d="M 50.00 86.00 C 154.00 86.64, 258.00 85.86, 362.00 86.00 C 361.64 110.00, 362.51 134.00, 362.00 158.00 C 258.00 157.78, 154.00 158.74, 50.00 158.00 C 50.67 134.00, 49.40 110.00, 50.00 86.00" fill="none" stroke="black" stroke-width="2.0" stroke-linecap="round" stroke-linejoin="round"/>
    <path d="M 66.00 362.00 C 112.67 362.10, 159.33 362.35, 206.00 362.00 C 204.15 352.07, 203.75 341.94, 202.00 332.00 C 199.90 325.11, 196.91 318.57, 194.00 312.00 C 155.33 311.52, 116.67 311.94, 78.00 312.00 C 74.88 318.49, 72.90 325.43, 70.00 332.00 C 69.23 342.08, 66.71 351.92, 66.00 362.00" fill="#222" stroke="black" stroke-width="2.0" stroke-linecap="round" stroke-linejoin="round"/>
    <path d="M 216.00 362.00 C 262.67 362.05, 309.33 362.46, 356.00 362.00 C 355.25 351.92, 352.56 342.10, 352.00 332.00 C 349.97 325.08, 346.57 318.70, 344.00 312.00 C 305.33 312.27, 266.67 312.47, 228.00 312.00 C 225.43 318.71, 222.79 325.38, 220.00 332.00 C 218.94 342.04, 217.87 352.07, 216.00 362.00" fill="#222" stroke="black" stroke-width="2.0" stroke-linecap="round" stroke-linejoin="round"/>
    <path d="M 149.36 332.00 C 149.11 333.50, 148.40 334.90, 148.31 336.44 C 147.89 337.98, 146.84 339.23, 146.34 340.74 C 144.77 341.09, 143.59 342.32, 142.00 342.62 C 140.61 343.46, 138.98 343.73, 137.60 344.57 C 136.13 343.79, 134.52 343.53, 132.90 343.36 C 131.71 342.25, 130.24 341.57, 128.88 340.72 C 128.23 339.18, 127.27 337.88, 125.99 336.81 C 125.99 335.21, 125.87 333.60, 125.85 332.00 C 125.84 330.43, 125.82 328.86, 126.40 327.36 C 127.18 325.99, 128.26 324.86, 129.25 323.65 C 130.67 323.03, 131.92 322.15, 133.13 321.21 C 134.67 321.21, 136.09 320.55, 137.60 320.38 C 139.18 320.39, 140.75 320.52, 142.33 320.58 C 143.48 321.68, 144.58 322.84, 146.00 323.60 C 147.22 324.64, 148.11 325.94, 148.88 327.33 C 148.83 328.91, 149.44 330.42, 149.36 332.00" fill="none" stroke="black" stroke-width="2.0" stroke-linecap="round"/>
    <path d="M 286.46 332.00 C 286.52 333.61, 286.21 335.18, 285.82 336.73 C 285.17 338.23, 284.13 339.48, 283.19 340.79 C 281.70 341.36, 280.46 342.45, 278.88 342.81 C 277.36 343.34, 275.79 343.75, 274.40 344.60 C 272.90 343.92, 271.28 343.69, 269.69 343.38 C 268.21 342.70, 267.13 341.52, 265.97 340.43 C 264.64 339.46, 264.22 337.74, 262.92 336.75 C 262.35 335.22, 262.49 333.53, 261.90 332.00 C 262.78 330.64, 262.82 328.92, 263.82 327.62 C 264.36 326.17, 264.93 324.74, 265.94 323.54 C 267.10 322.46, 268.49 321.80, 269.97 321.30 C 271.43 320.84, 272.86 320.24, 274.40 320.05 C 275.93 320.26, 277.39 320.76, 278.86 321.24 C 280.12 322.21, 281.75 322.44, 283.04 323.36 C 283.97 324.69, 285.06 325.89, 286.03 327.18 C 285.96 328.81, 286.12 330.41, 286.46 332.00" fill="none" stroke="black" stroke-width="2.0" stroke-linecap="round"/>
    <path d="M 123.60 322.00 C 132.93 322.49, 142.27 321.42, 151.60 322.00 C 149.78 319.58, 148.25 317.01, 147.60 314.00 C 140.93 313.55, 134.27 314.60, 127.60 314.00 C 125.61 316.34, 125.35 319.54, 123.60 322.00" fill="black" stroke="black" stroke-width="2.0" stroke-linecap="round" stroke-linejoin="round"/>
    <path d="M 150.17 314.00 C 149.73 314.13, 149.99 314.66, 149.66 314.85 C 149.77 315.33, 149.25 315.25, 149.10 315.50 C 148.79 315.52, 148.53 315.03, 148.18 315.39 C 148.10 315.74, 147.58 315.74, 147.60 316.16 C 147.36 316.03, 147.14 315.84, 146.86 315.79 C 146.72 315.33, 146.41 315.36, 146.07 315.53 C 145.78 315.40, 145.82 314.90, 145.40 314.91 C 145.85 314.77, 145.67 314.22, 146.00 314.00 C 146.43 313.99, 146.51 313.80, 146.28 313.45 C 145.87 313.13, 145.71 312.71, 145.79 312.19 C 146.22 312.12, 146.56 312.42, 146.96 312.46 C 146.93 311.99, 147.57 311.96, 147.60 311.53 C 147.84 311.85, 147.81 312.32, 148.20 312.56 C 148.51 312.64, 148.83 312.85, 149.11 312.49 C 149.58 312.37, 149.72 312.77, 149.96 313.02 C 150.35 313.28, 150.10 313.68, 150.17 314.00" fill="black" stroke="black" stroke-width="2.0" stroke-linecap="round"/>
    <path d="M 262.40 330.00 C 262.09 340.69, 261.29 351.35, 260.40 362.00" fill="none" stroke="black" stroke-width="2.0" stroke-linecap="round"/>
    <path d="M 264.40 328.00 C 262.93 340.62, 263.83 353.37, 262.40 366.00" fill="none" stroke="black" stroke-width="2.0" stroke-linecap="round"/>
    <path d="M 286.40 330.00 C 286.92 340.68, 287.47 351.35, 288.40 362.00" fill="none" stroke="black" stroke-width="2.0" stroke-linecap="round"/>
    <path d="M 270.40 320.00 C 269.48 318.50, 268.14 317.85, 266.40 318.00" fill="none" stroke="black" stroke-width="1.4" stroke-linecap="round"/>
    <path d="M 278.40 320.00 C 279.50 318.86, 281.09 318.71, 282.40 318.00" fill="none" stroke="black" stroke-width="1.4" stroke-linecap="round"/>
    <path d="M 36.00 60.00 C 86.00 59.62, 136.00 59.32, 186.00 60.00 C 188.89 63.78, 192.12 67.21, 196.00 70.00 C 195.83 86.67, 196.12 103.33, 196.00 120.00 C 192.94 123.61, 189.71 127.05, 186.00 130.00 C 136.00 130.30, 86.00 129.37, 36.00 130.00 C 33.11 126.22, 29.27 123.40, 26.00 120.00 C 25.81 103.33, 25.46 86.67, 26.00 70.00 C 29.11 66.44, 32.98 63.65, 36.00 60.00" fill="white" stroke="black" stroke-width="2.0" stroke-linecap="round" stroke-linejoin="round"/>
    <path d="M 138.60 130.00 C 140.53 198.68, 142.88 267.35, 145.60 336.00 C 147.76 267.33, 150.23 198.67, 152.60 130.00" fill="white" stroke="black" stroke-width="2.0" stroke-linecap="round" stroke-linejoin="round"/>
    <line x1="139.60000000000002" y1="130" x2="151.60000000000002" y2="130" stroke="white" stroke-width="2.4"/>
    <text x="111.0" y="78.0" text-anchor="middle" font-family="Comic Neue, Comic Sans MS, cursive" font-size="13" fill="black"><tspan x="111.0" dy="0">Bro just drowns noise</tspan><tspan x="111.0" dy="16">with white noise.</tspan><tspan x="111.0" dy="16">Amazing baby!</tspan></text>
  </g>
  <g class="panel">
    <path d="M 410.00 46.00 C 536.67 45.96, 663.33 46.02, 790.00 46.00 C 789.71 159.33, 789.32 272.67, 790.00 386.00 C 663.33 386.27, 536.67 385.25, 410.00 386.00 C 410.22 272.67, 409.81 159.33, 410.00 46.00" fill="none" stroke="black" stroke-width="2.0" stroke-linecap="round" stroke-linejoin="round"/>
    <path d="M 440.00 82.00 C 546.67 81.82, 653.33 81.81, 760.00 82.00 C 760.54 108.67, 759.88 135.33, 760.00 162.00 C 653.33 161.75, 546.67 161.99, 440.00 162.00 C 439.24 135.33, 439.33 108.67, 440.00 82.00" fill="#111" stroke="black" stroke-width="2.0" stroke-linecap="round" stroke-linejoin="round"/>
    <path d="M 444.00 86.00 C 548.00 86.35, 652.00 86.51, 756.00 86.00 C 755.69 110.00, 755.24 134.00, 756.00 158.00 C 652.00 158.63, 548.00 158.34, 444.00 158.00 C 443.38 134.00, 443.21 110.00, 444.00 86.00" fill="none" stroke="black" stroke-width="2.0" stroke-linecap="round" stroke-linejoin="round"/>
    <path d="M 460.00 362.00 C 506.67 361.31, 553.33 362.64, 600.00 362.00 C 598.66 352.00, 596.57 342.10, 596.00 332.00 C 593.69 325.19, 590.35 318.79, 588.00 312.00 C 549.33 312.57, 510.67 311.89, 472.00 312.00 C 470.01 318.94, 466.89 325.42, 464.00 332.00 C 463.33 342.09, 461.12 351.97, 460.00 362.00" fill="#222" stroke="black" stroke-width="2.0" stroke-linecap="round" stroke-linejoin="round"/>
    <path d="M 610.00 362.00 C 656.67 362.59, 703.33 361.77, 750.00 362.00 C 748.13 352.07, 747.66 341.96, 746.00 332.00 C 743.45 325.29, 740.88 318.58, 738.00 312.00 C 699.33 311.53, 660.67 312.27, 622.00 312.00 C 620.00 318.93, 616.32 325.19, 614.00 332.00 C 612.75 342.01, 611.45 352.02, 610.00 362.00" fill="#222" stroke="black" stroke-width="2.0" stroke-linecap="round" stroke-linejoin="round"/>
    <path d="M 543.53 332.00 C 543.69 333.61, 543.13 335.13, 542.93 336.69 C 542.12 338.08, 541.04 339.31, 540.39 340.79 C 538.98 341.55, 537.75 342.62, 536.27 343.27 C 534.72 343.51, 533.14 343.34, 531.60 343.66 C 530.05 343.64, 528.62 342.91, 527.07 342.94 C 525.82 341.90, 524.28 341.43, 522.82 340.78 C 522.22 339.24, 521.07 338.07, 520.16 336.74 C 520.13 335.15, 519.79 333.59, 519.74 332.00 C 520.43 330.57, 520.76 329.07, 520.71 327.49 C 521.70 326.31, 522.15 324.76, 523.26 323.66 C 524.63 322.84, 525.53 321.46, 526.89 320.62 C 528.46 320.60, 530.03 320.63, 531.60 320.58 C 533.21 320.80, 534.79 320.11, 536.40 320.41 C 537.82 321.23, 539.15 322.17, 540.50 323.10 C 541.05 324.61, 541.84 326.03, 542.22 327.60 C 542.74 329.04, 542.85 330.61, 543.53 332.00" fill="none" stroke="black" stroke-width="2.0" stroke-linecap="round"/>
    <path d="M 679.87 332.00 C 679.64 333.53, 679.62 335.08, 679.55 336.62 C 679.06 338.18, 677.81 339.30, 677.18 340.78 C 675.67 341.29, 674.14 341.75, 672.84 342.71 C 671.33 342.87, 669.89 343.40, 668.40 343.64 C 666.83 343.65, 665.29 343.31, 663.72 343.30 C 662.48 342.34, 661.11 341.54, 660.06 340.34 C 659.04 339.16, 657.94 338.04, 657.25 336.62 C 656.89 335.10, 656.95 333.51, 656.50 332.00 C 657.06 330.54, 657.40 329.03, 657.42 327.45 C 658.00 325.98, 659.31 325.03, 660.11 323.71 C 661.19 322.53, 662.69 321.79, 663.61 320.43 C 665.24 320.65, 666.79 319.97, 668.40 320.02 C 669.97 320.09, 671.37 320.89, 672.90 321.15 C 674.22 321.96, 675.53 322.81, 676.95 323.45 C 677.50 324.97, 678.95 325.90, 679.57 327.37 C 679.97 328.90, 679.54 330.47, 679.87 332.00" fill="none" stroke="black" stroke-width="2.0" stroke-linecap="round"/>
    <path d="M 519.60 330.00 C 518.43 340.64, 517.67 351.30, 517.60 362.00" fill="none" stroke="black" stroke-width="2.0" stroke-linecap="round"/>
    <path d="M 521.60 328.00 C 520.46 340.64, 519.30 353.28, 519.60 366.00" fill="none" stroke="black" stroke-width="2.0" stroke-linecap="round"/>
    <path d="M 543.60 330.00 C 544.98 340.62, 544.04 351.39, 545.60 362.00" fill="none" stroke="black" stroke-width="2.0" stroke-linecap="round"/>
    <path d="M 527.60 320.00 C 526.12 319.62, 524.83 318.88, 523.60 318.00" fill="none" stroke="black" stroke-width="1.4" stroke-linecap="round"/>
    <path d="M 535.60 320.00 C 536.86 319.18, 538.09 318.31, 539.60 318.00" fill="none" stroke="black" stroke-width="1.4" stroke-linecap="round"/>
    <path d="M 654.40 322.00 C 663.73 321.83, 673.07 322.09, 682.40 322.00 C 681.05 319.34, 679.69 316.69, 678.40 314.00 C 671.73 313.34, 665.07 314.60, 658.40 314.00 C 657.58 316.92, 655.64 319.29, 654.40 322.00" fill="black" stroke="black" stroke-width="2.0" stroke-linecap="round" stroke-linejoin="round"/>
    <path d="M 680.86 314.00 C 680.83 314.32, 680.73 314.63, 680.71 314.96 C 680.57 315.26, 680.19 315.38, 680.14 315.74 C 679.81 315.77, 679.57 316.00, 679.28 316.11 C 678.91 316.26, 678.80 315.59, 678.40 315.85 C 678.05 316.00, 677.56 315.86, 677.42 316.38 C 677.09 316.22, 677.07 315.80, 676.77 315.63 C 676.67 315.24, 677.11 314.97, 676.99 314.58 C 676.72 314.43, 677.04 314.18, 676.89 314.00 C 676.59 313.80, 676.65 313.37, 676.36 313.16 C 676.64 313.06, 676.95 312.99, 677.04 312.64 C 676.97 312.22, 677.23 312.08, 677.57 312.00 C 677.86 312.05, 678.21 311.86, 678.40 312.25 C 678.71 312.24, 679.03 312.31, 679.24 311.98 C 679.46 312.16, 679.55 312.45, 679.78 312.62 C 680.21 312.54, 680.45 312.68, 680.44 313.16 C 680.25 313.60, 680.57 313.79, 680.86 314.00" fill="black" stroke="black" stroke-width="2.0" stroke-linecap="round"/>
    <path d="M 430.00 60.00 C 480.00 59.82, 530.00 60.41, 580.00 60.00 C 583.75 62.91, 586.75 66.58, 590.00 70.00 C 589.29 86.67, 590.54 103.33, 590.00 120.00 C 587.11 123.78, 583.79 127.12, 580.00 130.00 C 530.00 130.05, 480.00 130.57, 430.00 130.00 C 426.51 126.82, 423.73 122.94, 420.00 120.00 C 420.34 103.33, 419.66 86.67, 420.00 70.00 C 423.81 67.14, 427.17 63.84, 430.00 60.00" fill="white" stroke="black" stroke-width="2.0" stroke-linecap="round" stroke-linejoin="round"/>
    <path d="M 532.60 130.00 C 535.20 198.66, 537.78 267.32, 539.60 336.00 C 541.43 267.32, 544.50 198.67, 546.60 130.00" fill="white" stroke="black" stroke-width="2.0" stroke-linecap="round" stroke-linejoin="round"/>
    <line x1="533.6" y1="130" x2="545.6" y2="130" stroke="white" stroke-width="2.4"/>
    <text x="505.0" y="78.0" text-anchor="middle" font-family="Comic Neue, Comic Sans MS, cursive" font-size="13" fill="black"><tspan x="505.0" dy="0">Bro just drowns noise</tspan><tspan x="505.0" dy="16">with white noise.</tspan><tspan x="505.0" dy="16">Amazing baby!</tspan></text>
  </g>
</svg>
