<?xml version="1.0" encoding="UTF-8"?>
<svg xmlns="http://www.w3.org/2000/svg" viewBox="0 0 806 402" width="806" height="402" role="img" aria-label="#003 — Confessions of a Shopaholic (2009)">
  <rect width="100%" height="100%" fill="white"/>
  <text x="403.0" y="34" text-anchor="middle" font-family="Comic Neue, Comic Sans MS, cursive" font-size="16" font-weight="700" fill="black">#003 — Confessions of a Shopaholic (2009) ★★★★</text>
  <g class="panel">
    <path d="M 16.00 46.00 C 142.67 46.40, 269.33 45.93, 396.00 46.00 C 396.19 159.33, 396.31 272.67, 396.00 386.00 C 269.33 385.64, 142.67 385.86, 16.00 386.00 C 15.64 272.67, 16.78 159.33, 16.00 46.00" fill="none" stroke="black" stroke-width="2.0" stroke-linecap="round" stroke-linejoin="round"/>
    <path d="M 26.00 362.00 C 146.00 361.98, 266.00 362.98, 386.00 362.00" fill="none" stroke="black" stroke-width="1.4" stroke-linecap="round"/>
    <path d="M 312.40 108.00 C 313.88 111.86, 316.00 115.45, 317.16 119.45 C 321.31 119.36, 325.43 119.71, 329.52 120.44 C 325.89 122.56, 322.78 125.28, 320.10 128.50 C 321.52 132.41, 322.72 136.38, 322.98 140.56 C 319.30 138.65, 315.62 136.75, 312.40 134.10 C 309.27 136.91, 305.26 138.27, 301.82 140.56 C 303.12 136.62, 303.22 132.40, 304.70 128.50 C 302.07 125.22, 298.77 122.72, 295.28 120.44 C 299.41 120.24, 303.51 119.68, 307.64 119.45 C 309.89 115.91, 311.42 112.07, 312.40 108.00" fill="none" stroke="black" stroke-width="2.0" stroke-linecap="round" stroke-linejoin="round"/>
    <path d="M 99.60 94.00 C 100.26 96.71, 101.41 99.21, 102.77 101.63 C 105.47 102.51, 108.24 102.34, 111.01 102.29 C 108.79 103.93, 106.51 105.51, 104.74 107.67 C 105.86 110.23, 106.02 113.03, 106.65 115.71 C 104.58 113.82, 101.60 113.42, 99.60 111.40 C 97.42 113.11, 94.89 114.25, 92.55 115.71 C 93.60 113.13, 94.29 110.46, 94.46 107.67 C 92.74 105.45, 90.37 103.98, 88.19 102.29 C 90.97 102.56, 93.68 101.86, 96.43 101.63 C 97.68 99.17, 98.29 96.44, 99.60 94.00" fill="none" stroke="black" stroke-width="2.0" stroke-linecap="round" stroke-linejoin="round"/>
    <path d="M 198.66 270.00 C 198.66 271.55, 198.47 273.08, 198.06 274.58 C 197.08 275.79, 196.37 277.19, 195.42 278.42 C 193.96 279.09, 192.70 280.04, 191.68 281.29 C 190.12 281.66, 188.63 282.32, 187.00 282.32 C 185.43 281.88, 183.77 281.99, 182.20 281.60 C 181.15 280.32, 179.59 279.70, 178.38 278.62 C 177.58 277.26, 176.45 276.11, 175.88 274.61 C 175.96 273.05, 175.72 271.52, 175.42 270.00 C 175.97 268.56, 176.28 267.08, 176.23 265.54 C 177.04 264.21, 177.43 262.66, 178.43 261.43 C 179.89 260.84, 181.05 259.74, 182.50 259.14 C 183.98 258.75, 185.51 258.74, 187.00 258.48 C 188.60 258.84, 190.20 258.70, 191.79 258.43 C 192.98 259.50, 193.91 260.84, 195.27 261.73 C 195.99 263.05, 196.57 264.46, 197.56 265.62 C 198.06 267.05, 197.93 268.63, 198.66 270.00" fill="none" stroke="black" stroke-width="2.0" stroke-linecap="round"/>
    <path d="M 173.00 260.00 C 182.33 260.34, 191.67 259.48, 201.00 260.00 C 199.36 257.49, 197.92 254.87, 197.00 252.00 C 190.33 252.24, 183.67 251.26, 177.00 252.00 C 175.14 254.40, 174.23 257.28, 173.00 260.00" fill="black" stroke="black" stroke-width="2.0" stroke-linecap="round" stroke-linejoin="round"/>
    <path d="M 199.50 252.00 C 199.29 252.25, 198.96 252.43, 199.02 252.83 C 198.79 253.04, 198.57 253.24, 198.58 253.58 C 198.16 253.44, 198.29 254.22, 197.84 254.03 C 197.58 253.89, 197.26 253.89, 197.00 253.74 C 196.77 253.65, 196.66 253.42, 196.46 253.30 C 196.39 252.97, 196.11 253.15, 195.93 253.07 C 195.55 253.28, 195.36 252.83, 195.05 252.81 C 195.04 252.53, 194.91 252.28, 194.90 252.00 C 195.30 251.99, 195.21 251.47, 195.54 251.39 C 195.50 251.14, 195.83 250.99, 195.72 250.72 C 195.83 250.45, 196.21 250.61, 196.31 250.33 C 196.61 250.30, 196.66 249.86, 197.00 249.91 C 197.37 249.74, 197.53 250.02, 197.73 250.24 C 197.90 250.44, 197.99 250.74, 198.35 250.65 C 198.60 251.04, 199.14 250.59, 199.38 251.01 C 199.65 251.31, 199.83 251.63, 199.50 252.00" fill="black" stroke="black" stroke-width="2.0" stroke-linecap="round"/>
    <path d="M 187.00 282.00 C 187.87 296.00, 186.93 310.00, 187.00 324.00" fill="none" stroke="black" stroke-width="2.0" stroke-linecap="round"/>
    <path d="M 187.00 288.00 C 179.31 278.95, 172.33 269.33, 165.00 260.00" fill="none" stroke="black" stroke-width="2.0" stroke-linecap="round"/>
    <path d="M 187.00 288.00 C 193.99 278.40, 202.02 269.61, 209.00 260.00" fill="none" stroke="black" stroke-width="2.0" stroke-linecap="round"/>
    <path d="M 187.00 324.00 C 183.44 332.87, 179.66 341.64, 175.00 350.00" fill="none" stroke="black" stroke-width="2.0" stroke-linecap="round"/>
    <path d="M 187.00 324.00 C 190.55 332.87, 194.18 341.71, 199.00 350.00" fill="none" stroke="black" stroke-width="2.0" stroke-linecap="round"/>
    <path d="M 36.00 60.00 C 86.00 60.36, 136.00 59.28, 186.00 60.00 C 189.33 63.34, 192.20 67.13, 196.00 70.00 C 196.20 86.67, 196.17 103.33, 196.00 120.00 C 192.23 122.90, 189.32 126.65, 186.00 130.00 C 136.00 130.55, 86.00 130.41, 36.00 130.00 C 32.17 127.16, 29.00 123.67, 26.00 120.00 C 25.63 103.33, 26.72 86.67, 26.00 70.00 C 29.80 67.14, 33.08 63.75, 36.00 60.00" fill="white" stroke="black" stroke-width="2.0" stroke-linecap="round" stroke-linejoin="round"/>
    <path d="M 177.00 130.00 C 182.63 178.05, 188.89 226.01, 195.00 274.00 C 193.10 226.02, 192.85 177.99, 191.00 130.00" fill="white" stroke="black" stroke-width="2.0" stroke-linecap="round" stroke-linejoin="round"/>
    <line x1="178" y1="130" x2="190" y2="130" stroke="white" stroke-width="2.4"/>
    <text x="111.0" y="78.0" text-anchor="middle" font-family="Comic Neue, Comic Sans MS, cursive" font-size="13" fill="black"><tspan x="111.0" dy="0">Bhaiii bhaiiii</tspan><tspan x="111.0" dy="16">bhaiiiiiiiii Gimme a</tspan><tspan x="111.0" dy="16">MANNNN PLZ!</tspan></text>
  </g>
  <g class="panel">
    <path d="M 410.00 46.00 C 536.67 45.53, 663.33 46.53, 790.00 46.00 C 790.76 159.33, 789.56 272.67, 790.00 386.00 C 663.33 386.78, 536.67 385.45, 410.00 386.00 C 410.40 272.67, 410.44 159.33, 410.00 46.00" fill="none" stroke="black" stroke-width="2.0" stroke-linecap="round" stroke-linejoin="round"/>
    <path d="M 420.00 356.00 C 540.00 356.09, 660.00 356.30, 780.00 356.00" fill="none" stroke="black" stroke-width="1.4" stroke-linecap="round"/>
    <path d="M 424.00 280.00 C 450.67 279.52, 477.33 280.68, 504.00 280.00 C 503.82 298.67, 504.11 317.33, 504.00 336.00 C 477.33 336.19, 450.67 335.60, 424.00 336.00 C 423.88 317.33, 423.91 298.67, 424.00 280.00" fill="none" stroke="black" stroke-width="2.0" stroke-linecap="round" stroke-linejoin="round"/>
    <path d="M 430.00 286.00 C 452.67 285.50, 475.33 286.27, 498.00 286.00 C 498.28 300.67, 497.59 315.33, 498.00 330.00 C 475.33 330.53, 452.67 330.63, 430.00 330.00 C 430.63 315.33, 430.64 300.67, 430.00 286.00" fill="none" stroke="black" stroke-width="2.0" stroke-linecap="round" stroke-linejoin="round"/>
    <path d="M 450.00 336.00 C 459.33 335.36, 468.67 336.26, 478.00 336.00" fill="none" stroke="black" stroke-width="1.4" stroke-linecap="round"/>
    <path d="M 464.00 336.00 C 463.52 338.67, 464.31 341.33, 464.00 344.00" fill="none" stroke="black" stroke-width="1.4" stroke-linecap="round"/>
    <path d="M 450.00 346.00 C 459.33 346.28, 468.67 346.89, 478.00 346.00" fill="none" stroke="black" stroke-width="1.4" stroke-linecap="round"/>
    <path d="M 436.00 322.00 C 439.41 313.36, 442.03 304.42, 446.00 296.00 C 451.35 304.99, 454.66 315.00, 460.00 324.00 C 464.02 314.99, 469.05 306.52, 474.00 298.00 C 479.12 305.49, 485.22 312.26, 490.00 320.00" fill="none" stroke="black" stroke-width="2.0" stroke-linecap="round" stroke-linejoin="round"/>
    <path d="M 504.00 300.00 C 554.67 299.69, 605.33 300.60, 656.00 300.00 C 656.10 310.00, 656.03 320.00, 656.00 330.00 C 605.33 330.33, 554.67 330.45, 504.00 330.00 C 504.75 320.00, 504.23 310.00, 504.00 300.00" fill="none" stroke="black" stroke-width="2.0" stroke-linecap="round" stroke-linejoin="round"/>
    <path d="M 504.00 330.00 C 554.67 330.70, 605.33 330.10, 656.00 330.00 C 655.44 342.00, 655.74 354.00, 656.00 366.00 C 605.33 365.23, 554.67 365.64, 504.00 366.00 C 503.61 354.00, 503.24 342.00, 504.00 330.00" fill="none" stroke="black" stroke-width="2.0" stroke-linecap="round" stroke-linejoin="round"/>
    <path d="M 496.00 312.00 C 498.67 311.93, 501.33 312.34, 504.00 312.00 C 504.72 330.00, 503.61 348.00, 504.00 366.00 C 501.33 366.29, 498.67 366.09, 496.00 366.00 C 496.05 348.00, 495.96 330.00, 496.00 312.00" fill="none" stroke="black" stroke-width="2.0" stroke-linecap="round" stroke-linejoin="round"/>
    <path d="M 656.00 312.00 C 658.67 311.22, 661.33 312.42, 664.00 312.00 C 663.87 330.00, 663.90 348.00, 664.00 366.00 C 661.33 365.39, 658.67 366.66, 656.00 366.00 C 655.61 348.00, 656.19 330.00, 656.00 312.00" fill="none" stroke="black" stroke-width="2.0" stroke-linecap="round" stroke-linejoin="round"/>
    <path d="M 580.00 330.00 C 580.58 342.00, 579.65 354.00, 580.00 366.00" fill="none" stroke="black" stroke-width="1.4" stroke-linecap="round"/>
    <path d="M 551.90 300.00 C 551.80 301.59, 551.84 303.19, 551.51 304.77 C 550.55 306.04, 549.29 307.05, 548.26 308.26 C 546.82 308.79, 545.81 310.04, 544.41 310.64 C 543.01 311.35, 541.46 311.67, 540.00 312.21 C 538.67 311.31, 536.95 311.46, 535.62 310.57 C 534.18 309.92, 532.67 309.45, 531.26 308.74 C 530.90 307.17, 530.08 305.81, 529.25 304.45 C 528.52 303.06, 528.63 301.43, 528.01 300.00 C 528.47 298.45, 528.55 296.86, 528.54 295.25 C 529.58 294.06, 530.64 292.88, 531.74 291.74 C 532.89 290.63, 534.00 289.49, 535.21 288.44 C 536.83 288.72, 538.38 287.88, 540.00 288.11 C 541.51 288.39, 543.04 288.57, 544.43 289.31 C 545.93 289.76, 547.19 290.68, 548.50 291.50 C 549.28 292.88, 550.19 294.17, 551.29 295.32 C 551.81 296.84, 551.99 298.40, 551.90 300.00" fill="none" stroke="black" stroke-width="2.0" stroke-linecap="round"/>
    <path d="M 524.00 290.00 C 534.67 289.81, 545.33 290.09, 556.00 290.00 C 554.77 286.63, 553.68 283.19, 552.00 280.00 C 544.00 280.07, 536.00 279.72, 528.00 280.00 C 527.30 283.59, 524.74 286.43, 524.00 290.00" fill="black" stroke="black" stroke-width="2.0" stroke-linecap="round" stroke-linejoin="round"/>
    <path d="M 522.00 290.00 C 534.00 290.33, 546.00 290.65, 558.00 290.00" fill="none" stroke="black" stroke-width="2.0" stroke-linecap="round"/>
    <path d="M 540.00 312.00 C 539.82 321.33, 540.07 330.67, 540.00 340.00" fill="none" stroke="black" stroke-width="2.0" stroke-linecap="round"/>
    <path d="M 540.00 326.00 C 534.82 330.20, 528.77 333.24, 524.00 338.00" fill="none" stroke="black" stroke-width="2.0" stroke-linecap="round"/>
    <path d="M 540.00 326.00 C 545.04 330.39, 550.50 334.22, 556.00 338.00" fill="none" stroke="black" stroke-width="2.0" stroke-linecap="round"/>
    <path d="M 540.00 340.00 C 548.00 340.22, 556.00 340.49, 564.00 340.00" fill="none" stroke="black" stroke-width="2.0" stroke-linecap="round"/>
    <path d="M 564.00 340.00 C 564.84 345.98, 565.53 351.98, 566.00 358.00" fill="none" stroke="black" stroke-width="2.0" stroke-linecap="round"/>
    <path d="M 540.00 340.00 C 537.38 346.02, 534.91 352.11, 532.00 358.00" fill="none" stroke="black" stroke-width="2.0" stroke-linecap="round"/>
    <path d="M 632.06 300.00 C 632.12 301.62, 632.02 303.22, 631.56 304.79 C 630.55 306.06, 629.81 307.51, 628.73 308.73 C 627.39 309.63, 626.00 310.43, 624.74 311.45 C 623.19 311.92, 621.58 311.76, 620.00 311.91 C 618.52 311.47, 616.90 311.62, 615.47 310.94 C 614.06 310.26, 612.79 309.36, 611.48 308.52 C 610.94 307.05, 609.67 305.99, 609.20 304.47 C 609.21 302.91, 608.63 301.48, 608.26 300.00 C 608.51 298.48, 609.11 297.01, 608.96 295.43 C 609.93 294.20, 610.52 292.73, 611.54 291.54 C 612.66 290.39, 613.94 289.46, 615.28 288.59 C 616.77 287.90, 618.41 287.78, 620.00 287.47 C 621.64 287.57, 623.23 287.93, 624.80 288.42 C 625.92 289.56, 627.31 290.43, 628.20 291.80 C 629.20 292.97, 630.05 294.24, 631.01 295.44 C 631.59 296.91, 631.55 298.52, 632.06 300.00" fill="none" stroke="black" stroke-width="2.0" stroke-linecap="round"/>
    <path d="M 606.00 290.00 C 615.33 289.65, 624.67 290.65, 634.00 290.00 C 632.10 287.62, 630.76 284.95, 630.00 282.00 C 623.33 281.74, 616.67 281.94, 610.00 282.00 C 608.44 284.55, 608.00 287.67, 606.00 290.00" fill="black" stroke="black" stroke-width="2.0" stroke-linecap="round" stroke-linejoin="round"/>
    <path d="M 632.13 282.00 C 631.78 282.15, 631.96 282.52, 631.81 282.75 C 631.73 283.01, 631.66 283.30, 631.30 283.30 C 631.29 283.63, 631.04 283.79, 630.81 283.95 C 630.39 284.16, 630.37 283.48, 630.00 283.58 C 629.54 283.44, 629.62 284.25, 629.14 284.08 C 629.24 283.70, 629.26 283.34, 628.98 283.02 C 628.63 283.01, 628.29 282.98, 627.96 282.84 C 627.90 282.42, 628.23 282.23, 628.48 282.00 C 628.48 281.70, 628.51 281.37, 628.14 281.23 C 628.26 280.90, 628.27 280.55, 628.21 280.21 C 628.54 279.99, 628.88 279.83, 629.24 280.15 C 629.47 279.81, 629.76 280.26, 630.00 280.10 C 630.21 280.25, 630.34 280.49, 630.57 280.62 C 630.76 280.69, 631.08 280.54, 631.08 280.92 C 631.08 281.13, 631.17 281.31, 631.30 281.46 C 631.57 281.66, 631.76 281.97, 632.13 282.00" fill="black" stroke="black" stroke-width="2.0" stroke-linecap="round"/>
    <path d="M 620.00 312.00 C 620.36 321.33, 620.93 330.67, 620.00 340.00" fill="none" stroke="black" stroke-width="2.0" stroke-linecap="round"/>
    <path d="M 620.00 326.00 C 615.20 330.71, 608.95 333.49, 604.00 338.00" fill="none" stroke="black" stroke-width="2.0" stroke-linecap="round"/>
    <path d="M 620.00 326.00 C 624.86 330.62, 630.72 333.93, 636.00 338.00" fill="none" stroke="black" stroke-width="2.0" stroke-linecap="round"/>
    <path d="M 620.00 340.00 C 628.00 340.28, 636.00 339.80, 644.00 340.00" fill="none" stroke="black" stroke-width="2.0" stroke-linecap="round"/>
    <path d="M 644.00 340.00 C 644.46 346.02, 645.07 352.03, 646.00 358.00" fill="none" stroke="black" stroke-width="2.0" stroke-linecap="round"/>
    <path d="M 620.00 340.00 C 617.85 346.23, 614.32 351.85, 612.00 358.00" fill="none" stroke="black" stroke-width="2.0" stroke-linecap="round"/>
    <path d="M 430.00 60.00 C 479.33 59.95, 528.67 59.31, 578.00 60.00 C 580.88 63.78, 584.80 66.54, 588.00 70.00 C 587.77 76.00, 587.82 82.00, 588.00 88.00 C 584.84 91.51, 581.58 94.92, 578.00 98.00 C 528.67 98.09, 479.33 98.78, 430.00 98.00 C 426.80 94.53, 422.97 91.70, 420.00 88.00 C 419.54 82.00, 419.27 76.00, 420.00 70.00 C 423.82 67.15, 427.15 63.82, 430.00 60.00" fill="white" stroke="black" stroke-width="2.0" stroke-linecap="round" stroke-linejoin="round"/>
    <path d="M 525.00 98.00 C 527.81 166.65, 529.89 235.33, 532.00 304.00 C 533.74 235.31, 535.88 166.64, 539.00 98.00" fill="white" stroke="black" stroke-width="2.0" stroke-linecap="round" stroke-linejoin="round"/>
    <line x1="526.0" y1="98" x2="538.0" y2="98" stroke="white" stroke-width="2.4"/>
    <text x="504.0" y="78.0" text-anchor="middle" font-family="Comic Neue, Comic Sans MS, cursive" font-size="13" fill="black"><tspan x="504.0" dy="0">I love rom coms😭😭😭</tspan></text>
  </g>
</svg>
