<?xml version="1.0" encoding="UTF-8"?>
<svg xmlns="http://www.w3.org/2000/svg" viewBox="0 0 412 402" width="412" height="402" role="img" aria-label="#004 — Mickey 17 (2025)">
  <defs><filter id="fibers" x="0%" y="0%" width="100%" height="100%"><feTurbulence type="fractalNoise" baseFrequency="0.04 0.7" numOctaves="2" stitchTiles="stitch" seed="2"/><feColorMatrix values="0 0 0 0 0.38  0 0 0 0 0.26  0 0 0 0 0.13  0 0 0 -0.7 0.28"/></filter><filter id="grain" x="0%" y="0%" width="100%" height="100%"><feTurbulence type="fractalNoise" baseFrequency="0.65" numOctaves="3" stitchTiles="stitch" seed="5"/><feColorMatrix values="0 0 0 0 0.42  0 0 0 0 0.30  0 0 0 0 0.16  0 0 0 -1.1 0.5"/></filter></defs>
  <rect width="100%" height="100%" fill="#e3d3a2"/>
  <rect width="100%" height="100%" filter="url(#fibers)" opacity="0.55"/>
  <rect width="100%" height="100%" filter="url(#grain)" opacity="0.85"/>
  <text x="206.0" y="34" text-anchor="middle" font-family="Comic Neue, Comic Sans MS, cursive" font-size="16" font-weight="700" fill="black">#004 — Mickey 17 (2025) ★★★½</text>
  <g class="panel">
    <path d="M 16.00 46.00 C 142.67 46.15, 269.33 45.44, 396.00 46.00 C 396.32 159.33, 395.86 272.67, 396.00 386.00 C 269.33 386.67, 142.67 385.78, 16.00 386.00 C 15.72 272.67, 15.88 159.33, 16.00 46.00" fill="none" stroke="black" stroke-width="2.0" stroke-linecap="round" stroke-linejoin="round"/>
    <path d="M 26.00 362.00 C 146.00 361.91, 266.00 361.37, 386.00 362.00" fill="none" stroke="black" stroke-width="1.4" stroke-linecap="round"/>
    <path d="M 84.40 314.00 C 104.40 313.54, 124.40 313.53, 144.40 314.00 C 144.44 324.67, 144.66 335.33, 144.40 346.00 C 124.40 345.94, 104.40 346.27, 84.40 346.00 C 84.01 335.33, 83.68 324.67, 84.40 314.00" fill="none" stroke="black" stroke-width="2.0" stroke-linecap="round" stroke-linejoin="round"/>
    <path d="M 84.40 302.00 C 104.40 302.06, 124.40 302.18, 144.40 302.00 C 144.11 306.00, 143.64 310.00, 144.40 314.00 C 124.40 314.52, 104.40 313.33, 84.40 314.00 C 83.83 310.00, 83.77 306.00, 84.40 302.00" fill="#e3d3a2" stroke="black" stroke-width="2.0" stroke-linecap="round" stroke-linejoin="round"/>
    <path d="M 88.40 314.00 C 92.40 310.00, 96.37 305.97, 100.40 302.00 C 103.07 301.47, 105.73 301.21, 108.40 302.00 C 104.09 305.69, 100.36 309.96, 96.40 314.00 C 93.73 314.18, 91.07 313.44, 88.40 314.00" fill="black" stroke="black" stroke-width="2.0" stroke-linecap="round" stroke-linejoin="round"/>
    <path d="M 112.40 314.00 C 116.68 310.28, 119.88 305.48, 124.40 302.00 C 127.07 301.61, 129.73 302.49, 132.40 302.00 C 127.97 305.57, 124.71 310.31, 120.40 314.00 C 117.73 314.45, 115.07 313.54, 112.40 314.00" fill="black" stroke="black" stroke-width="2.0" stroke-linecap="round" stroke-linejoin="round"/>
    <path d="M 278.69 270.00 C 278.66 271.59, 278.56 273.17, 278.23 274.73 C 276.99 275.73, 275.71 276.68, 274.87 278.07 C 273.85 279.25, 272.38 279.94, 271.44 281.21 C 269.92 281.65, 268.37 281.97, 266.80 282.15 C 265.40 281.44, 263.98 280.82, 262.40 280.63 C 261.07 279.92, 259.95 278.88, 258.59 278.21 C 257.50 277.03, 256.54 275.71, 255.17 274.82 C 255.19 273.17, 254.71 271.60, 254.41 270.00 C 254.68 268.41, 255.35 266.97, 256.14 265.58 C 257.07 264.26, 257.30 262.63, 258.01 261.21 C 259.51 260.52, 260.86 259.62, 262.00 258.42 C 263.58 258.02, 265.21 257.88, 266.80 257.52 C 268.34 258.11, 270.06 257.77, 271.58 258.47 C 272.71 259.65, 274.33 260.16, 275.48 261.32 C 275.96 262.83, 276.59 264.26, 277.48 265.58 C 278.13 266.98, 278.25 268.54, 278.69 270.00" fill="none" stroke="black" stroke-width="2.0" stroke-linecap="round"/>
    <path d="M 250.80 260.00 C 261.47 260.59, 272.13 260.46, 282.80 260.00 C 280.88 256.90, 280.36 253.24, 278.80 250.00 C 270.80 250.69, 262.80 250.61, 254.80 250.00 C 254.07 253.57, 252.69 256.89, 250.80 260.00" fill="black" stroke="black" stroke-width="2.0" stroke-linecap="round" stroke-linejoin="round"/>
    <path d="M 248.80 260.00 C 260.80 259.25, 272.80 259.85, 284.80 260.00" fill="none" stroke="black" stroke-width="2.0" stroke-linecap="round"/>
    <path d="M 266.80 282.00 C 266.22 296.00, 267.49 310.00, 266.80 324.00" fill="none" stroke="black" stroke-width="2.0" stroke-linecap="round"/>
    <path d="M 266.80 292.00 C 257.52 290.32, 248.08 289.68, 238.80 288.00" fill="none" stroke="black" stroke-width="2.0" stroke-linecap="round"/>
    <path d="M 266.80 292.00 C 271.90 298.21, 277.05 304.37, 282.80 310.00" fill="none" stroke="black" stroke-width="2.0" stroke-linecap="round"/>
    <path d="M 266.80 324.00 C 262.50 332.53, 258.11 341.01, 254.80 350.00" fill="none" stroke="black" stroke-width="2.0" stroke-linecap="round"/>
    <path d="M 266.80 324.00 C 270.48 332.82, 274.58 341.43, 278.80 350.00" fill="none" stroke="black" stroke-width="2.0" stroke-linecap="round"/>
    <path d="M 226.00 60.00 C 276.00 59.52, 326.00 60.40, 376.00 60.00 C 379.30 63.37, 383.03 66.30, 386.00 70.00 C 386.01 86.67, 385.22 103.33, 386.00 120.00 C 383.05 123.71, 378.81 126.14, 376.00 130.00 C 326.00 130.44, 276.00 129.67, 226.00 130.00 C 223.23 126.10, 218.94 123.73, 216.00 120.00 C 216.06 103.33, 216.56 86.67, 216.00 70.00 C 219.58 66.92, 223.17 63.84, 226.00 60.00" fill="#e3d3a2" stroke="black" stroke-width="2.0" stroke-linecap="round" stroke-linejoin="round"/>
    <path d="M 251.80 130.00 C 254.11 178.00, 256.29 226.01, 258.80 274.00 C 260.65 225.98, 263.33 177.99, 265.80 130.00" fill="#e3d3a2" stroke="black" stroke-width="2.0" stroke-linecap="round" stroke-linejoin="round"/>
    <line x1="252.8" y1="130" x2="264.8" y2="130" stroke="#e3d3a2" stroke-width="2.4"/>
    <text x="301.0" y="78.0" text-anchor="middle" font-family="Comic Neue, Comic Sans MS, cursive" font-size="13" fill="black"><tspan x="301.0" dy="0">Big fan of them</tspan><tspan x="301.0" dy="16">creepers, and there</tspan><tspan x="301.0" dy="16">burps!!!</tspan></text>
  </g>
</svg>
