<?xml version="1.0" encoding="UTF-8"?>
<svg xmlns="http://www.w3.org/2000/svg" viewBox="0 0 412 402" width="412" height="402" role="img" aria-label="#005 — A Complete Unknown (2024)">
  <rect width="100%" height="100%" fill="white"/>
  <text x="206.0" y="34" text-anchor="middle" font-family="Comic Neue, Comic Sans MS, cursive" font-size="16" font-weight="700" fill="black">#005 — A Complete Unknown (2024) ★★★★</text>
  <g class="panel">
    <path d="M 16.00 46.00 C 142.67 46.52, 269.33 46.64, 396.00 46.00 C 395.75 159.33, 395.62 272.67, 396.00 386.00 C 269.33 385.44, 142.67 385.48, 16.00 386.00 C 16.40 272.67, 16.59 159.33, 16.00 46.00" fill="none" stroke="black" stroke-width="2.0" stroke-linecap="round" stroke-linejoin="round"/>
    <path d="M 26.00 362.00 C 146.00 361.48, 266.00 361.35, 386.00 362.00" fill="none" stroke="black" stroke-width="1.4" stroke-linecap="round"/>
    <path d="M 149.32 270.00 C 148.77 271.42, 148.40 272.88, 148.15 274.37 C 147.68 275.84, 146.34 276.82, 145.92 278.32 C 144.70 279.28, 143.23 279.91, 142.22 281.15 C 140.74 281.77, 139.10 281.35, 137.60 281.81 C 136.08 281.26, 134.44 281.81, 132.90 281.33 C 131.45 280.64, 130.38 279.34, 128.86 278.74 C 128.19 277.26, 126.91 276.18, 126.22 274.71 C 126.05 273.11, 125.92 271.50, 125.25 270.00 C 125.22 268.36, 125.96 266.87, 126.23 265.29 C 127.08 263.94, 128.45 263.07, 129.45 261.85 C 130.80 261.07, 131.84 259.92, 133.01 258.92 C 134.55 258.87, 136.10 258.81, 137.60 258.40 C 139.12 258.48, 140.60 258.72, 141.97 259.45 C 143.14 260.38, 144.54 260.96, 145.69 261.91 C 146.92 262.87, 147.87 264.05, 148.53 265.47 C 148.72 266.99, 149.11 268.48, 149.32 270.00" fill="none" stroke="black" stroke-width="2.0" stroke-linecap="round"/>
    <path d="M 121.60 260.00 C 132.27 259.89, 142.93 259.43, 153.60 260.00 C 152.08 256.74, 151.45 253.13, 149.60 250.00 C 141.60 249.72, 133.60 249.37, 125.60 250.00 C 124.60 253.47, 122.28 256.41, 121.60 260.00" fill="black" stroke="black" stroke-width="2.0" stroke-linecap="round" stroke-linejoin="round"/>
    <path d="M 119.60 260.00 C 131.60 259.90, 143.60 260.32, 155.60 260.00" fill="none" stroke="black" stroke-width="2.0" stroke-linecap="round"/>
    <path d="M 137.60 282.00 C 137.81 296.00, 138.04 310.00, 137.60 324.00" fill="none" stroke="black" stroke-width="2.0" stroke-linecap="round"/>
    <path d="M 137.60 292.00 C 147.03 291.31, 156.33 289.75, 165.60 288.00" fill="none" stroke="black" stroke-width="2.0" stroke-linecap="round"/>
    <path d="M 137.60 292.00 C 131.57 297.38, 127.24 304.27, 121.60 310.00" fill="none" stroke="black" stroke-width="2.0" stroke-linecap="round"/>
    <path d="M 137.60 324.00 C 133.43 332.59, 129.26 341.17, 125.60 350.00" fill="none" stroke="black" stroke-width="2.0" stroke-linecap="round"/>
    <path d="M 137.60 324.00 C 142.18 332.40, 145.83 341.23, 149.60 350.00" fill="none" stroke="black" stroke-width="2.0" stroke-linecap="round"/>
    <path d="M 286.08 270.00 C 285.79 271.52, 285.65 273.06, 285.49 274.59 C 284.40 275.68, 283.51 276.94, 282.47 278.07 C 281.41 279.24, 279.97 280.02, 279.13 281.41 C 277.54 281.10, 275.98 281.67, 274.40 281.52 C 272.83 281.25, 271.25 281.18, 269.67 281.43 C 268.34 280.53, 266.88 279.82, 265.75 278.65 C 265.09 277.23, 264.58 275.74, 263.70 274.43 C 263.62 272.84, 263.09 271.39, 262.33 270.00 C 262.56 268.45, 263.32 267.05, 263.52 265.49 C 263.99 263.97, 264.91 262.69, 265.77 261.37 C 266.88 260.17, 268.21 259.30, 269.73 258.72 C 271.23 258.12, 272.92 258.44, 274.40 257.74 C 275.95 258.36, 277.61 258.15, 279.20 258.41 C 280.45 259.42, 281.44 260.73, 282.88 261.52 C 283.40 262.98, 284.64 264.06, 285.02 265.60 C 285.38 267.07, 286.00 268.47, 286.08 270.00" fill="none" stroke="black" stroke-width="2.0" stroke-linecap="round"/>
    <path d="M 279.98 252.00 C 279.96 252.86, 280.29 253.66, 280.43 254.50 C 280.04 255.26, 279.34 255.76, 278.81 256.41 C 278.22 256.99, 277.31 257.04, 276.75 257.67 C 275.95 257.75, 275.26 258.36, 274.40 258.17 C 273.56 258.10, 273.09 257.26, 272.28 257.12 C 271.46 256.97, 270.60 257.00, 269.86 256.54 C 269.65 255.71, 268.73 255.28, 268.65 254.38 C 268.60 253.52, 268.26 252.76, 267.88 252.00 C 267.76 251.11, 268.00 250.30, 268.45 249.54 C 269.23 249.02, 269.04 247.92, 269.78 247.38 C 270.67 247.51, 271.46 247.04, 272.32 246.99 C 273.15 246.92, 273.55 245.98, 274.40 245.95 C 275.11 246.26, 275.81 246.60, 276.60 246.69 C 277.14 247.19, 277.73 247.63, 278.24 248.16 C 278.90 248.56, 279.50 249.00, 279.71 249.80 C 280.07 250.50, 280.05 251.25, 279.98 252.00" fill="none" stroke="black" stroke-width="2.0" stroke-linecap="round"/>
    <path d="M 263.40 271.00 C 263.16 274.74, 261.85 278.29, 261.40 282.00" fill="none" stroke="black" stroke-width="2.0" stroke-linecap="round"/>
    <path d="M 285.40 271.00 C 286.99 274.50, 287.68 278.16, 287.40 282.00" fill="none" stroke="black" stroke-width="2.0" stroke-linecap="round"/>
    <path d="M 274.40 282.00 C 274.87 296.00, 274.20 310.00, 274.40 324.00" fill="none" stroke="black" stroke-width="2.0" stroke-linecap="round"/>
    <path d="M 274.40 290.00 C 266.63 286.80, 260.04 281.43, 252.40 278.00" fill="none" stroke="black" stroke-width="2.0" stroke-linecap="round"/>
    <path d="M 252.40 278.00 C 251.34 284.06, 249.72 290.00, 248.40 296.00" fill="none" stroke="black" stroke-width="2.0" stroke-linecap="round"/>
    <path d="M 274.40 290.00 C 282.21 286.87, 289.47 282.74, 296.40 278.00" fill="none" stroke="black" stroke-width="2.0" stroke-linecap="round"/>
    <path d="M 296.40 278.00 C 296.89 284.19, 299.14 289.98, 300.40 296.00" fill="none" stroke="black" stroke-width="2.0" stroke-linecap="round"/>
    <path d="M 274.40 324.00 C 270.55 332.74, 266.60 341.43, 262.40 350.00" fill="none" stroke="black" stroke-width="2.0" stroke-linecap="round"/>
    <path d="M 274.40 324.00 C 278.73 332.52, 282.71 341.19, 286.40 350.00" fill="none" stroke="black" stroke-width="2.0" stroke-linecap="round"/>
    <path d="M 36.00 60.00 C 86.00 60.34, 136.00 59.26, 186.00 60.00 C 188.78 63.89, 192.41 66.93, 196.00 70.00 C 195.81 81.33, 196.22 92.67, 196.00 104.00 C 192.48 107.15, 189.21 110.54, 186.00 114.00 C 136.00 114.43, 86.00 114.51, 36.00 114.00 C 32.46 110.87, 28.78 107.88, 26.00 104.00 C 26.80 92.67, 25.42 81.33, 26.00 70.00 C 29.33 66.66, 32.69 63.36, 36.00 60.00" fill="white" stroke="black" stroke-width="2.0" stroke-linecap="round" stroke-linejoin="round"/>
    <path d="M 138.60 114.00 C 140.46 167.35, 143.17 220.67, 145.60 274.00 C 148.27 220.68, 150.30 167.33, 152.60 114.00" fill="white" stroke="black" stroke-width="2.0" stroke-linecap="round" stroke-linejoin="round"/>
    <line x1="139.60000000000002" y1="114" x2="151.60000000000002" y2="114" stroke="white" stroke-width="2.4"/>
    <text x="111.0" y="78.0" text-anchor="middle" font-family="Comic Neue, Comic Sans MS, cursive" font-size="13" fill="black"><tspan x="111.0" dy="0">Watched on Sunday July</tspan><tspan x="111.0" dy="16">20, 2025.</tspan></text>
  </g>
</svg>
