<?xml version="1.0" encoding="UTF-8"?>
<svg xmlns="http://www.w3.org/2000/svg" viewBox="0 0 806 402" width="806" height="402" role="img" aria-label="#006 — Gladiator II (2024)">
  <defs><filter id="fibers" x="0%" y="0%" width="100%" height="100%"><feTurbulence type="fractalNoise" baseFrequency="0.04 0.7" numOctaves="2" stitchTiles="stitch" seed="8"/><feColorMatrix values="0 0 0 0 0.38  0 0 0 0 0.26  0 0 0 0 0.13  0 0 0 -0.7 0.28"/></filter><filter id="grain" x="0%" y="0%" width="100%" height="100%"><feTurbulence type="fractalNoise" baseFrequency="0.65" numOctaves="3" stitchTiles="stitch" seed="7"/><feColorMatrix values="0 0 0 0 0.42  0 0 0 0 0.30  0 0 0 0 0.16  0 0 0 -1.1 0.5"/></filter></defs>
  <rect width="100%" height="100%" fill="#e3d3a2"/>
  <rect width="100%" height="100%" filter="url(#fibers)" opacity="0.55"/>
  <rect width="100%" height="100%" filter="url(#grain)" opacity="0.85"/>
  <text x="403.0" y="34" text-anchor="middle" font-family="Comic Neue, Comic Sans MS, cursive" font-size="16" font-weight="700" fill="black">#006 — Gladiator II (2024) ★★</text>
  <g class="panel">
    <path d="M 16.00 46.00 C 142.67 46.26, 269.33 45.97, 396.00 46.00 C 396.03 159.33, 395.79 272.67, 396.00 386.00 C 269.33 385.87, 142.67 386.30, 16.00 386.00 C 15.96 272.67, 15.69 159.33, 16.00 46.00" fill="none" stroke="black" stroke-width="2.0" stroke-linecap="round" stroke-linejoin="round"/>
    <path d="M 46.00 82.00 C 152.67 82.04, 259.33 81.21, 366.00 82.00 C 366.76 108.67, 366.26 135.33, 366.00 162.00 C 259.33 162.67, 152.67 161.95, 46.00 162.00 C 46.54 135.33, 45.94 108.67, 46.00 82.00" fill="#111" stroke="black" stroke-width="2.0" stroke-linecap="round" stroke-linejoin="round"/>
    <path d="M 50.00 86.00 C 154.00 86.69, 258.00 85.28, 362.00 86.00 C 361.98 110.00, 361.70 134.00, 362.00 158.00 C 258.00 157.81, 154.00 157.55, 50.00 158.00 C 50.70 134.00, 50.22 110.00, 50.00 86.00" fill="none" stroke="black" stroke-width="2.0" stroke-linecap="round" stroke-linejoin="round"/>
    <path d="M 66.00 362.00 C 112.67 362.57, 159.33 362.51, 206.00 362.00 C 204.53 352.02, 202.65 342.09, 202.00 332.00 C 199.09 325.43, 196.20 318.86, 194.00 312.00 C 155.33 312.22, 116.67 312.10, 78.00 312.00 C 75.09 318.57, 73.11 325.51, 70.00 332.00 C 69.00 342.04, 67.48 352.02, 66.00 362.00" fill="#222" stroke="black" stroke-width="2.0" stroke-linecap="round" stroke-linejoin="round"/>
    <path d="M 216.00 362.00 C 262.67 361.47, 309.33 361.84, 356.00 362.00 C 355.06 351.95, 354.03 341.91, 352.00 332.00 C 349.60 325.23, 346.17 318.87, 344.00 312.00 C 305.33 311.58, 266.67 311.66, 228.00 312.00 C 225.60 318.77, 222.35 325.21, 220.00 332.00 C 217.90 341.90, 217.12 351.97, 216.00 362.00" fill="#222" stroke="black" stroke-width="2.0" stroke-linecap="round" stroke-linejoin="round"/>
    <path d="M 149.42 332.00 C 149.14 333.53, 148.77 335.04, 148.72 336.61 C 147.73 337.85, 146.74 339.09, 146.24 340.64 C 144.88 341.42, 143.59 342.33, 142.15 343.00 C 140.73 343.76, 139.14 343.90, 137.60 344.22 C 135.99 344.16, 134.50 343.62, 133.00 343.11 C 131.96 341.95, 130.63 341.13, 129.42 340.18 C 128.63 338.90, 127.78 337.65, 126.87 336.44 C 126.62 334.92, 126.36 333.40, 125.65 332.00 C 126.22 330.57, 126.68 329.10, 126.93 327.58 C 127.86 326.31, 128.41 324.85, 129.03 323.43 C 130.44 322.73, 131.53 321.51, 133.02 320.94 C 134.57 320.84, 136.02 320.09, 137.60 320.16 C 139.12 320.59, 140.68 320.69, 142.25 320.79 C 143.56 321.66, 144.87 322.54, 146.20 323.40 C 146.88 324.80, 147.62 326.16, 148.17 327.62 C 148.85 329.01, 149.12 330.51, 149.42 332.00" fill="none" stroke="black" stroke-width="2.0" stroke-linecap="round"/>
    <path d="M 286.40 332.00 C 285.95 333.48, 286.00 335.09, 285.23 336.48 C 284.55 337.91, 283.84 339.32, 283.12 340.72 C 281.66 341.33, 280.30 342.12, 278.85 342.75 C 277.42 343.44, 275.84 343.77, 274.40 344.46 C 272.95 343.81, 271.37 343.47, 269.96 342.72 C 268.55 342.05, 267.01 341.64, 265.75 340.65 C 264.98 339.29, 264.59 337.73, 263.62 336.46 C 263.19 335.00, 263.25 333.45, 262.76 332.00 C 263.17 330.45, 262.82 328.86, 263.04 327.30 C 263.82 325.90, 265.17 324.93, 265.90 323.50 C 267.27 322.74, 268.57 321.85, 269.78 320.86 C 271.23 320.11, 272.84 320.03, 274.40 319.78 C 275.97 320.11, 277.57 320.32, 279.16 320.50 C 280.23 321.68, 281.37 322.79, 282.60 323.80 C 283.75 324.85, 284.45 326.22, 285.30 327.49 C 285.96 328.92, 286.37 330.41, 286.40 332.00" fill="none" stroke="black" stroke-width="2.0" stroke-linecap="round"/>
    <path d="M 121.60 322.00 C 132.27 322.74, 142.93 322.62, 153.60 322.00 C 152.30 318.65, 150.33 315.57, 149.60 312.00 C 141.60 312.55, 133.60 312.33, 125.60 312.00 C 123.86 315.17, 122.44 318.47, 121.60 322.00" fill="black" stroke="black" stroke-width="2.0" stroke-linecap="round" stroke-linejoin="round"/>
    <path d="M 119.60 322.00 C 131.60 322.99, 143.60 322.99, 155.60 322.00" fill="none" stroke="black" stroke-width="2.0" stroke-linecap="round"/>
    <path d="M 262.40 330.00 C 262.67 340.73, 260.33 351.29, 260.40 362.00" fill="none" stroke="black" stroke-width="2.0" stroke-linecap="round"/>
    <path d="M 264.40 328.00 C 264.23 340.69, 262.92 353.33, 262.40 366.00" fill="none" stroke="black" stroke-width="2.0" stroke-linecap="round"/>
    <path d="M 286.40 330.00 C 287.38 340.65, 287.72 351.33, 288.40 362.00" fill="none" stroke="black" stroke-width="2.0" stroke-linecap="round"/>
    <path d="M 270.40 320.00 C 269.24 318.99, 267.45 319.24, 266.40 318.00" fill="none" stroke="black" stroke-width="1.4" stroke-linecap="round"/>
    <path d="M 278.40 320.00 C 280.16 320.19, 280.83 318.19, 282.40 318.00" fill="none" stroke="black" stroke-width="1.4" stroke-linecap="round"/>
    <path d="M 36.00 60.00 C 86.00 60.12, 136.00 59.39, 186.00 60.00 C 189.01 63.66, 192.19 67.14, 196.00 70.00 C 196.53 97.33, 195.29 124.67, 196.00 152.00 C 192.28 154.95, 189.26 158.59, 186.00 162.00 C 136.00 162.05, 86.00 161.35, 36.00 162.00 C 33.00 158.33, 28.81 155.85, 26.00 152.00 C 25.59 124.67, 26.48 97.33, 26.00 70.00 C 29.66 66.99, 32.87 63.54, 36.00 60.00" fill="#e3d3a2" stroke="black" stroke-width="2.0" stroke-linecap="round" stroke-linejoin="round"/>
    <path d="M 138.60 162.00 C 140.96 220.00, 143.99 277.97, 145.60 336.00 C 148.18 278.01, 150.81 220.02, 152.60 162.00" fill="#e3d3a2" stroke="black" stroke-width="2.0" stroke-linecap="round" stroke-linejoin="round"/>
    <line x1="139.60000000000002" y1="162" x2="151.60000000000002" y2="162" stroke="#e3d3a2" stroke-width="2.4"/>
    <text x="111.0" y="78.0" text-anchor="middle" font-family="Comic Neue, Comic Sans MS, cursive" font-size="13" fill="black"><tspan x="111.0" dy="0">Mehhh DOWNFALLL bro</tspan><tspan x="111.0" dy="16">wtf was that, the</tspan><tspan x="111.0" dy="16">first one is like in</tspan><tspan x="111.0" dy="16">the sky and this is</tspan><tspan x="111.0" dy="16">deep in hell</tspan></text>
  </g>
  <g class="panel">
    <path d="M 410.00 46.00 C 536.67 45.67, 663.33 46.61, 790.00 46.00 C 790.35 159.33, 789.36 272.67, 790.00 386.00 C 663.33 385.58, 536.67 386.65, 410.00 386.00 C 410.15 272.67, 409.48 159.33, 410.00 46.00" fill="none" stroke="black" stroke-width="2.0" stroke-linecap="round" stroke-linejoin="round"/>
    <path d="M 420.00 362.00 C 540.00 361.52, 660.00 362.53, 780.00 362.00" fill="none" stroke="black" stroke-width="1.4" stroke-linecap="round"/>
    <path d="M 706.40 108.00 C 708.39 111.65, 709.80 115.54, 711.16 119.45 C 715.29 119.66, 719.35 120.73, 723.52 120.44 C 719.91 122.58, 717.01 125.54, 714.10 128.50 C 714.64 132.62, 715.43 136.68, 716.98 140.56 C 713.29 138.68, 709.88 136.33, 706.40 134.10 C 703.12 136.66, 699.35 138.41, 695.82 140.56 C 696.27 136.42, 698.03 132.59, 698.70 128.50 C 695.84 125.49, 692.31 123.25, 689.28 120.44 C 693.42 120.32, 697.49 119.46, 701.64 119.45 C 702.94 115.51, 704.59 111.72, 706.40 108.00" fill="none" stroke="black" stroke-width="2.0" stroke-linecap="round" stroke-linejoin="round"/>
    <path d="M 493.60 94.00 C 494.28 96.70, 496.45 98.78, 496.77 101.63 C 499.46 102.64, 502.22 102.71, 505.01 102.29 C 502.73 103.86, 500.84 105.90, 498.74 107.67 C 499.01 110.44, 499.40 113.18, 500.65 115.71 C 498.02 114.73, 496.02 112.72, 493.60 111.40 C 491.09 112.58, 488.65 113.86, 486.55 115.71 C 486.51 112.87, 487.61 110.30, 488.46 107.67 C 486.04 106.26, 484.71 103.59, 482.19 102.29 C 484.95 102.32, 487.73 102.42, 490.43 101.63 C 491.79 99.22, 492.48 96.52, 493.60 94.00" fill="none" stroke="black" stroke-width="2.0" stroke-linecap="round" stroke-linejoin="round"/>
    <path d="M 592.58 270.00 C 592.12 271.45, 592.38 273.04, 591.76 274.45 C 590.91 275.76, 590.17 277.13, 589.57 278.57 C 588.11 279.12, 586.94 280.24, 585.44 280.71 C 583.93 281.16, 582.46 281.69, 581.00 282.25 C 579.46 281.91, 577.92 281.56, 576.59 280.66 C 575.58 279.48, 573.95 279.20, 572.91 278.09 C 571.81 277.03, 571.20 275.66, 570.45 274.37 C 570.30 272.80, 569.60 271.42, 568.99 270.00 C 568.99 268.41, 569.18 266.85, 569.85 265.38 C 570.90 264.23, 571.84 262.99, 572.69 261.69 C 573.66 260.38, 575.18 259.67, 576.21 258.43 C 577.79 258.08, 579.41 258.47, 581.00 258.18 C 582.47 258.67, 584.03 258.70, 585.52 259.09 C 586.96 259.72, 588.16 260.80, 589.66 261.34 C 590.25 262.80, 590.92 264.21, 591.75 265.55 C 591.83 267.07, 592.69 268.44, 592.58 270.00" fill="none" stroke="black" stroke-width="2.0" stroke-linecap="round"/>
    <path d="M 569.00 268.00 C 569.14 278.72, 568.00 289.35, 567.00 300.00" fill="none" stroke="black" stroke-width="2.0" stroke-linecap="round"/>
    <path d="M 571.00 266.00 C 570.10 278.65, 570.62 291.38, 569.00 304.00" fill="none" stroke="black" stroke-width="2.0" stroke-linecap="round"/>
    <path d="M 593.00 268.00 C 593.28 278.69, 594.60 289.32, 595.00 300.00" fill="none" stroke="black" stroke-width="2.0" stroke-linecap="round"/>
    <path d="M 577.00 258.00 C 576.04 256.59, 574.64 256.05, 573.00 256.00" fill="none" stroke="black" stroke-width="1.4" stroke-linecap="round"/>
    <path d="M 585.00 258.00 C 586.40 257.48, 587.78 256.89, 589.00 256.00" fill="none" stroke="black" stroke-width="1.4" stroke-linecap="round"/>
    <path d="M 581.00 282.00 C 580.79 296.00, 580.21 310.00, 581.00 324.00" fill="none" stroke="black" stroke-width="2.0" stroke-linecap="round"/>
    <path d="M 581.00 288.00 C 573.26 278.98, 567.03 268.78, 559.00 260.00" fill="none" stroke="black" stroke-width="2.0" stroke-linecap="round"/>
    <path d="M 581.00 288.00 C 588.37 278.70, 596.19 269.74, 603.00 260.00" fill="none" stroke="black" stroke-width="2.0" stroke-linecap="round"/>
    <path d="M 581.00 324.00 C 576.14 332.27, 572.16 340.95, 569.00 350.00" fill="none" stroke="black" stroke-width="2.0" stroke-linecap="round"/>
    <path d="M 581.00 324.00 C 584.28 333.00, 589.76 340.98, 593.00 350.00" fill="none" stroke="black" stroke-width="2.0" stroke-linecap="round"/>
    <path d="M 430.00 60.00 C 480.00 59.36, 530.00 59.52, 580.00 60.00 C 583.26 63.40, 587.08 66.26, 590.00 70.00 C 590.16 92.00, 589.97 114.00, 590.00 136.00 C 586.68 139.35, 582.83 142.16, 580.00 146.00 C 530.00 146.61, 480.00 145.69, 430.00 146.00 C 426.46 142.87, 423.09 139.58, 420.00 136.00 C 420.06 114.00, 420.33 92.00, 420.00 70.00 C 423.67 67.00, 426.87 63.54, 430.00 60.00" fill="#e3d3a2" stroke="black" stroke-width="2.0" stroke-linecap="round" stroke-linejoin="round"/>
    <path d="M 571.00 146.00 C 577.50 188.60, 583.21 231.30, 589.00 274.00 C 586.95 231.36, 586.91 188.65, 585.00 146.00" fill="#e3d3a2" stroke="black" stroke-width="2.0" stroke-linecap="round" stroke-linejoin="round"/>
    <line x1="572" y1="146" x2="584" y2="146" stroke="#e3d3a2" stroke-width="2.4"/>
    <text x="505.0" y="78.0" text-anchor="middle" font-family="Comic Neue, Comic Sans MS, cursive" font-size="13" fill="black"><tspan x="505.0" dy="0">Mehhh DOWNFALLL bro</tspan><tspan x="505.0" dy="16">wtf was that, the</tspan><tspan x="505.0" dy="16">first one is like in</tspan><tspan x="505.0" dy="16">the sky and this is…</tspan></text>
  </g>
</svg>
