<?xml version="1.0" encoding="UTF-8"?>
<svg xmlns="http://www.w3.org/2000/svg" viewBox="0 0 328 398" width="328" height="398" role="img" aria-label="#006 — Gladiator II (2024)">
  <rect width="100%" height="100%" fill="white"/>
  <text x="164.0" y="32" text-anchor="middle" font-family="Comic Neue, Comic Sans MS, cursive" font-size="15" font-weight="700" fill="black">#006 — Gladiator II (2024) ★★</text>
    <g class="panel">
    <rect x="14" y="44" width="300" height="340" fill="white" stroke="black" stroke-width="2"/>
    <rect x="29" y="58" width="270" height="102" rx="12" ry="12" fill="white" stroke="black" stroke-width="1.6"/>
    <polygon points="156.0,159 172.0,159 152.9892247718684,240" fill="white" stroke="black" stroke-width="1.6"/>
    <line x1="157.0" y1="160" x2="171.0" y2="160" stroke="white" stroke-width="2.2"/>
    <text x="164.0" y="76" text-anchor="middle" font-family="Comic Neue, Comic Sans MS, cursive" font-size="13" fill="black"><tspan x="164.0" dy="0">Mehhh DOWNFALLL bro</tspan><tspan x="164.0" dy="16">wtf was that, the</tspan><tspan x="164.0" dy="16">first one is like in</tspan><tspan x="164.0" dy="16">the sky and this is</tspan><tspan x="164.0" dy="16">deep in hell</tspan></text>
    <circle cx="152.9892247718684" cy="254" r="14" fill="none" stroke="black" stroke-width="2.2"/>
    <line x1="152.9892247718684" y1="268" x2="152.9892247718684" y2="308" stroke="black" stroke-width="2.2"/>
    <line x1="152.9892247718684" y1="280" x2="178.9892247718684" y2="276" stroke="black" stroke-width="2.2"/>
    <line x1="152.9892247718684" y1="280" x2="136.9892247718684" y2="298" stroke="black" stroke-width="2.2"/>
    <line x1="152.9892247718684" y1="308" x2="138.9892247718684" y2="336" stroke="black" stroke-width="2.2"/>
    <line x1="152.9892247718684" y1="308" x2="166.9892247718684" y2="336" stroke="black" stroke-width="2.2"/>
    <line x1="34" y1="350" x2="294" y2="350" stroke="black" stroke-width="1.5"/>
</g>
</svg>
