<?xml version="1.0" encoding="UTF-8"?>
<svg xmlns="http://www.w3.org/2000/svg" viewBox="0 0 952 398" width="952" height="398" role="img" aria-label="#007 — Call Me by Your Name (2017)">
  <rect width="100%" height="100%" fill="white"/>
  <text x="476.0" y="32" text-anchor="middle" font-family="Comic Neue, Comic Sans MS, cursive" font-size="15" font-weight="700" fill="black">#007 — Call Me by Your Name (2017) ★★★★</text>
    <g class="panel">
    <rect x="14" y="44" width="300" height="340" fill="white" stroke="black" stroke-width="2"/>
    <rect x="29" y="58" width="270" height="54" rx="12" ry="12" fill="white" stroke="black" stroke-width="1.6"/>
    <polygon points="156.0,111 172.0,111 138.13318671066008,240" fill="white" stroke="black" stroke-width="1.6"/>
    <line x1="157.0" y1="112" x2="171.0" y2="112" stroke="white" stroke-width="2.2"/>
    <text x="164.0" y="76" text-anchor="middle" font-family="Comic Neue, Comic Sans MS, cursive" font-size="13" fill="black"><tspan x="164.0" dy="0">Will wonders ever</tspan><tspan x="164.0" dy="16">cease?</tspan></text>
    <circle cx="138.13318671066008" cy="254" r="14" fill="none" stroke="black" stroke-width="2.2"/>
    <line x1="138.13318671066008" y1="268" x2="138.13318671066008" y2="308" stroke="black" stroke-width="2.2"/>
    <line x1="138.13318671066008" y1="280" x2="120.13318671066008" y2="298" stroke="black" stroke-width="2.2"/>
    <line x1="138.13318671066008" y1="280" x2="146.13318671066008" y2="262" stroke="black" stroke-width="2.2"/>
    <line x1="146.13318671066008" y1="262" x2="142.13318671066008" y2="250" stroke="black" stroke-width="2.2"/>
    <line x1="138.13318671066008" y1="308" x2="124.13318671066008" y2="336" stroke="black" stroke-width="2.2"/>
    <line x1="138.13318671066008" y1="308" x2="152.13318671066008" y2="336" stroke="black" stroke-width="2.2"/>
    <line x1="34" y1="350" x2="294" y2="350" stroke="black" stroke-width="1.5"/>
</g>
  <g class="panel">
    <rect x="326" y="44" width="300" height="340" fill="white" stroke="black" stroke-width="2"/>
    <rect x="341" y="58" width="270" height="102" rx="12" ry="12" fill="white" stroke="black" stroke-width="1.6"/>
    <polygon points="468.0,159 484.0,159 486.7535208517553,240" fill="white" stroke="black" stroke-width="1.6"/>
    <line x1="469.0" y1="160" x2="483.0" y2="160" stroke="white" stroke-width="2.2"/>
    <text x="476.0" y="76" text-anchor="middle" font-family="Comic Neue, Comic Sans MS, cursive" font-size="13" fill="black"><tspan x="476.0" dy="0">As an 18 yo i was</tspan><tspan x="476.0" dy="16">watching a cool movie</tspan><tspan x="476.0" dy="16">but as a 22yo</tspan><tspan x="476.0" dy="16">rewatching and hearing</tspan><tspan x="476.0" dy="16">dads monolog I rest in</tspan></text>
    <circle cx="486.7535208517553" cy="254" r="14" fill="none" stroke="black" stroke-width="2.2"/>
    <line x1="486.7535208517553" y1="268" x2="486.7535208517553" y2="308" stroke="black" stroke-width="2.2"/>
    <line x1="486.7535208517553" y1="280" x2="468.7535208517553" y2="298" stroke="black" stroke-width="2.2"/>
    <line x1="486.7535208517553" y1="280" x2="504.7535208517553" y2="298" stroke="black" stroke-width="2.2"/>
    <line x1="486.7535208517553" y1="308" x2="472.7535208517553" y2="336" stroke="black" stroke-width="2.2"/>
    <line x1="486.7535208517553" y1="308" x2="500.7535208517553" y2="336" stroke="black" stroke-width="2.2"/>
    <line x1="346" y1="350" x2="606" y2="350" stroke="black" stroke-width="1.5"/>
</g>
  <g class="panel">
    <rect x="638" y="44" width="300" height="340" fill="white" stroke="black" stroke-width="2"/>
    <rect x="653" y="58" width="270" height="54" rx="12" ry="12" fill="white" stroke="black" stroke-width="1.6"/>
    <polygon points="780.0,111 796.0,111 799.2755047915871,240" fill="white" stroke="black" stroke-width="1.6"/>
    <line x1="781.0" y1="112" x2="795.0" y2="112" stroke="white" stroke-width="2.2"/>
    <text x="788.0" y="76" text-anchor="middle" font-family="Comic Neue, Comic Sans MS, cursive" font-size="13" fill="black"><tspan x="788.0" dy="0">Italian 80s summers</tspan><tspan x="788.0" dy="16">are top tier</tspan></text>
    <circle cx="799.2755047915871" cy="254" r="14" fill="none" stroke="black" stroke-width="2.2"/>
    <line x1="799.2755047915871" y1="268" x2="799.2755047915871" y2="308" stroke="black" stroke-width="2.2"/>
    <line x1="799.2755047915871" y1="280" x2="781.2755047915871" y2="298" stroke="black" stroke-width="2.2"/>
    <line x1="799.2755047915871" y1="280" x2="807.2755047915871" y2="262" stroke="black" stroke-width="2.2"/>
    <line x1="807.2755047915871" y1="262" x2="803.2755047915871" y2="250" stroke="black" stroke-width="2.2"/>
    <line x1="799.2755047915871" y1="308" x2="785.2755047915871" y2="336" stroke="black" stroke-width="2.2"/>
    <line x1="799.2755047915871" y1="308" x2="813.2755047915871" y2="336" stroke="black" stroke-width="2.2"/>
    <line x1="658" y1="350" x2="918" y2="350" stroke="black" stroke-width="1.5"/>
</g>
</svg>
