<?xml version="1.0" encoding="UTF-8"?>
<svg xmlns="http://www.w3.org/2000/svg" viewBox="0 0 412 402" width="412" height="402" role="img" aria-label="#008 — Call Me by Your Name (2017)">
  <defs><filter id="grain" x="0%" y="0%" width="100%" height="100%"><feTurbulence type="fractalNoise" baseFrequency="0.85" numOctaves="2" stitchTiles="stitch" seed="9"/><feColorMatrix values="0 0 0 0 0.32  0 0 0 0 0.22  0 0 0 0 0.13  0 0 0 -1.4 0.55"/></filter></defs>
  <rect width="100%" height="100%" fill="#f1e7cc"/>
  <rect width="100%" height="100%" filter="url(#grain)" opacity="0.75"/>
  <text x="206.0" y="34" text-anchor="middle" font-family="Comic Neue, Comic Sans MS, cursive" font-size="16" font-weight="700" fill="black">#008 — Call Me by Your Name (2017) ★★★★</text>
  <g class="panel">
    <path d="M 16.00 46.00 C 142.67 45.64, 269.33 45.53, 396.00 46.00 C 396.48 159.33, 395.62 272.67, 396.00 386.00 C 269.33 386.73, 142.67 385.45, 16.00 386.00 C 16.68 272.67, 16.31 159.33, 16.00 46.00" fill="none" stroke="black" stroke-width="2.0" stroke-linecap="round" stroke-linejoin="round"/>
    <path d="M 26.00 356.00 C 146.00 356.51, 266.00 355.16, 386.00 356.00" fill="none" stroke="black" stroke-width="1.4" stroke-linecap="round"/>
    <path d="M 30.00 280.00 C 56.67 280.23, 83.33 279.85, 110.00 280.00 C 110.17 298.67, 109.69 317.33, 110.00 336.00 C 83.33 335.95, 56.67 336.18, 30.00 336.00 C 30.35 317.33, 30.24 298.67, 30.00 280.00" fill="none" stroke="black" stroke-width="2.0" stroke-linecap="round" stroke-linejoin="round"/>
    <path d="M 36.00 286.00 C 58.67 285.51, 81.33 285.84, 104.00 286.00 C 104.63 300.67, 103.95 315.33, 104.00 330.00 C 81.33 330.09, 58.67 329.44, 36.00 330.00 C 36.42 315.33, 36.09 300.67, 36.00 286.00" fill="none" stroke="black" stroke-width="2.0" stroke-linecap="round" stroke-linejoin="round"/>
    <path d="M 56.00 336.00 C 65.33 335.90, 74.67 336.02, 84.00 336.00" fill="none" stroke="black" stroke-width="1.4" stroke-linecap="round"/>
    <path d="M 70.00 336.00 C 70.18 338.67, 70.33 341.33, 70.00 344.00" fill="none" stroke="black" stroke-width="1.4" stroke-linecap="round"/>
    <path d="M 56.00 346.00 C 65.33 346.39, 74.67 345.88, 84.00 346.00" fill="none" stroke="black" stroke-width="1.4" stroke-linecap="round"/>
    <path d="M 42.00 322.00 C 45.98 313.58, 48.41 304.57, 52.00 296.00 C 56.28 305.53, 61.45 314.61, 66.00 324.00 C 70.00 314.98, 75.12 306.55, 80.00 298.00 C 84.95 305.61, 90.13 313.05, 96.00 320.00" fill="none" stroke="black" stroke-width="2.0" stroke-linecap="round" stroke-linejoin="round"/>
    <path d="M 110.00 300.00 C 160.67 299.84, 211.33 299.76, 262.00 300.00 C 262.52 310.00, 261.41 320.00, 262.00 330.00 C 211.33 329.78, 160.67 329.58, 110.00 330.00 C 110.40 320.00, 110.05 310.00, 110.00 300.00" fill="none" stroke="black" stroke-width="2.0" stroke-linecap="round" stroke-linejoin="round"/>
    <path d="M 110.00 330.00 C 160.67 330.75, 211.33 330.72, 262.00 330.00 C 262.35 342.00, 262.34 354.00, 262.00 366.00 C 211.33 365.86, 160.67 366.65, 110.00 366.00 C 109.94 354.00, 109.52 342.00, 110.00 330.00" fill="none" stroke="black" stroke-width="2.0" stroke-linecap="round" stroke-linejoin="round"/>
    <path d="M 102.00 312.00 C 104.67 312.54, 107.33 312.37, 110.00 312.00 C 109.34 330.00, 109.59 348.00, 110.00 366.00 C 107.33 366.06, 104.67 365.38, 102.00 366.00 C 101.90 348.00, 102.57 330.00, 102.00 312.00" fill="none" stroke="black" stroke-width="2.0" stroke-linecap="round" stroke-linejoin="round"/>
    <path d="M 262.00 312.00 C 264.67 311.93, 267.33 312.42, 270.00 312.00 C 270.08 330.00, 270.77 348.00, 270.00 366.00 C 267.33 365.95, 264.67 365.67, 262.00 366.00 C 261.26 348.00, 261.42 330.00, 262.00 312.00" fill="none" stroke="black" stroke-width="2.0" stroke-linecap="round" stroke-linejoin="round"/>
    <path d="M 186.00 330.00 C 185.86 342.00, 186.37 354.00, 186.00 366.00" fill="none" stroke="black" stroke-width="1.4" stroke-linecap="round"/>
    <path d="M 157.77 300.00 C 157.65 301.60, 157.46 303.20, 157.62 304.81 C 156.74 306.18, 155.44 307.17, 154.35 308.35 C 152.92 308.91, 151.59 309.65, 150.41 310.66 C 148.92 311.05, 147.43 311.44, 146.00 312.03 C 144.53 311.50, 142.94 311.47, 141.46 310.96 C 139.98 310.38, 138.63 309.59, 137.38 308.62 C 136.92 307.09, 135.63 306.01, 135.17 304.48 C 135.12 302.93, 134.70 301.46, 134.20 300.00 C 134.54 298.50, 134.50 296.92, 135.00 295.44 C 135.81 294.12, 136.61 292.79, 137.57 291.57 C 139.03 290.97, 139.99 289.61, 141.45 289.02 C 142.93 288.51, 144.49 288.54, 146.00 288.28 C 147.57 288.45, 149.16 288.27, 150.72 288.61 C 152.18 289.32, 153.35 290.39, 154.39 291.61 C 155.36 292.85, 156.09 294.29, 157.35 295.30 C 157.61 296.85, 157.45 298.45, 157.77 300.00" fill="none" stroke="black" stroke-width="2.0" stroke-linecap="round"/>
    <path d="M 146.00 312.00 C 145.28 321.33, 145.28 330.67, 146.00 340.00" fill="none" stroke="black" stroke-width="2.0" stroke-linecap="round"/>
    <path d="M 146.00 326.00 C 140.18 329.36, 135.72 334.52, 130.00 338.00" fill="none" stroke="black" stroke-width="2.0" stroke-linecap="round"/>
    <path d="M 146.00 326.00 C 151.00 330.44, 156.87 333.73, 162.00 338.00" fill="none" stroke="black" stroke-width="2.0" stroke-linecap="round"/>
    <path d="M 146.00 340.00 C 154.00 339.31, 162.00 340.74, 170.00 340.00" fill="none" stroke="black" stroke-width="2.0" stroke-linecap="round"/>
    <path d="M 170.00 340.00 C 170.30 346.04, 170.59 352.08, 172.00 358.00" fill="none" stroke="black" stroke-width="2.0" stroke-linecap="round"/>
    <path d="M 146.00 340.00 C 144.21 346.39, 140.12 351.76, 138.00 358.00" fill="none" stroke="black" stroke-width="2.0" stroke-linecap="round"/>
    <path d="M 237.84 300.00 C 237.91 301.61, 237.67 303.20, 237.57 304.79 C 236.39 305.87, 235.38 307.12, 234.21 308.21 C 232.97 309.16, 231.93 310.35, 230.67 311.28 C 229.15 311.82, 227.52 311.23, 226.00 311.72 C 224.46 311.57, 222.92 311.45, 221.41 311.09 C 220.37 309.89, 218.95 309.20, 217.69 308.31 C 216.64 307.17, 216.00 305.79, 215.39 304.39 C 215.07 302.88, 214.61 301.42, 213.98 300.00 C 214.47 298.54, 214.67 296.99, 215.27 295.55 C 216.31 294.35, 216.38 292.63, 217.41 291.41 C 218.80 290.71, 220.36 290.40, 221.64 289.47 C 222.99 288.69, 224.46 288.34, 226.00 288.24 C 227.56 288.59, 229.16 288.38, 230.74 288.57 C 231.92 289.61, 233.20 290.56, 234.12 291.88 C 235.31 292.88, 235.79 294.38, 236.70 295.57 C 237.09 297.04, 237.19 298.59, 237.84 300.00" fill="none" stroke="black" stroke-width="2.0" stroke-linecap="round"/>
    <path d="M 214.00 298.00 C 212.49 308.61, 211.95 319.29, 212.00 330.00" fill="none" stroke="black" stroke-width="2.0" stroke-linecap="round"/>
    <path d="M 216.00 296.00 C 215.13 308.66, 214.16 321.31, 214.00 334.00" fill="none" stroke="black" stroke-width="2.0" stroke-linecap="round"/>
    <path d="M 238.00 298.00 C 239.35 308.62, 240.07 319.29, 240.00 330.00" fill="none" stroke="black" stroke-width="2.0" stroke-linecap="round"/>
    <path d="M 222.00 288.00 C 220.63 287.40, 219.41 286.51, 218.00 286.00" fill="none" stroke="black" stroke-width="1.4" stroke-linecap="round"/>
    <path d="M 230.00 288.00 C 231.51 287.69, 232.90 287.12, 234.00 286.00" fill="none" stroke="black" stroke-width="1.4" stroke-linecap="round"/>
    <path d="M 226.00 312.00 C 225.33 321.33, 225.56 330.67, 226.00 340.00" fill="none" stroke="black" stroke-width="2.0" stroke-linecap="round"/>
    <path d="M 226.00 326.00 C 220.98 330.42, 215.72 334.52, 210.00 338.00" fill="none" stroke="black" stroke-width="2.0" stroke-linecap="round"/>
    <path d="M 226.00 326.00 C 231.47 329.81, 236.73 333.92, 242.00 338.00" fill="none" stroke="black" stroke-width="2.0" stroke-linecap="round"/>
    <path d="M 226.00 340.00 C 234.00 339.09, 242.00 340.06, 250.00 340.00" fill="none" stroke="black" stroke-width="2.0" stroke-linecap="round"/>
    <path d="M 250.00 340.00 C 251.28 345.93, 251.38 351.99, 252.00 358.00" fill="none" stroke="black" stroke-width="2.0" stroke-linecap="round"/>
    <path d="M 226.00 340.00 C 223.02 345.86, 220.21 351.80, 218.00 358.00" fill="none" stroke="black" stroke-width="2.0" stroke-linecap="round"/>
    <path d="M 36.00 60.00 C 85.33 59.78, 134.67 59.30, 184.00 60.00 C 187.38 63.29, 191.07 66.26, 194.00 70.00 C 193.86 81.33, 193.42 92.67, 194.00 104.00 C 190.67 107.33, 187.06 110.40, 184.00 114.00 C 134.67 113.91, 85.33 113.71, 36.00 114.00 C 32.61 110.72, 29.25 107.42, 26.00 104.00 C 26.34 92.67, 26.23 81.33, 26.00 70.00 C 29.36 66.69, 32.65 63.32, 36.00 60.00" fill="#f1e7cc" stroke="black" stroke-width="2.0" stroke-linecap="round" stroke-linejoin="round"/>
    <path d="M 131.00 114.00 C 133.76 177.32, 135.47 240.67, 138.00 304.00 C 140.86 240.69, 143.27 177.36, 145.00 114.00" fill="#f1e7cc" stroke="black" stroke-width="2.0" stroke-linecap="round" stroke-linejoin="round"/>
    <line x1="132.0" y1="114" x2="144.0" y2="114" stroke="#f1e7cc" stroke-width="2.4"/>
    <text x="110.0" y="78.0" text-anchor="middle" font-family="Comic Neue, Comic Sans MS, cursive" font-size="13" fill="black"><tspan x="110.0" dy="0">Watched on Monday</tspan><tspan x="110.0" dy="16">September 8, 2025.</tspan></text>
  </g>
</svg>
