<?xml version="1.0" encoding="UTF-8"?>
<svg xmlns="http://www.w3.org/2000/svg" viewBox="0 0 328 398" width="328" height="398" role="img" aria-label="#009 — Yesterday (2019)">
  <rect width="100%" height="100%" fill="white"/>
  <text x="164.0" y="32" text-anchor="middle" font-family="Comic Neue, Comic Sans MS, cursive" font-size="15" font-weight="700" fill="black">#009 — Yesterday (2019) ★★★</text>
    <g class="panel">
    <rect x="14" y="44" width="300" height="340" fill="white" stroke="black" stroke-width="2"/>
    <rect x="29" y="58" width="270" height="102" rx="12" ry="12" fill="white" stroke="black" stroke-width="1.6"/>
    <polygon points="156.0,159 172.0,159 156.62702923409395,240" fill="white" stroke="black" stroke-width="1.6"/>
    <line x1="157.0" y1="160" x2="171.0" y2="160" stroke="white" stroke-width="2.2"/>
    <text x="164.0" y="76" text-anchor="middle" font-family="Comic Neue, Comic Sans MS, cursive" font-size="13" fill="black"><tspan x="164.0" dy="0">Obbbbllaaaaadiiiiii</tspan><tspan x="164.0" dy="16">oblaaaaaada Thatsss a</tspan><tspan x="164.0" dy="16">good one Yes A world</tspan><tspan x="164.0" dy="16">without the beatels is</tspan><tspan x="164.0" dy="16">a world that&#x27;s</tspan></text>
    <circle cx="156.62702923409395" cy="254" r="14" fill="none" stroke="black" stroke-width="2.2"/>
    <line x1="156.62702923409395" y1="268" x2="156.62702923409395" y2="308" stroke="black" stroke-width="2.2"/>
    <line x1="156.62702923409395" y1="280" x2="138.62702923409395" y2="298" stroke="black" stroke-width="2.2"/>
    <line x1="156.62702923409395" y1="280" x2="174.62702923409395" y2="298" stroke="black" stroke-width="2.2"/>
    <line x1="156.62702923409395" y1="308" x2="142.62702923409395" y2="336" stroke="black" stroke-width="2.2"/>
    <line x1="156.62702923409395" y1="308" x2="170.62702923409395" y2="336" stroke="black" stroke-width="2.2"/>
    <line x1="34" y1="350" x2="294" y2="350" stroke="black" stroke-width="1.5"/>
</g>
</svg>
