<?xml version="1.0" encoding="UTF-8"?>
<svg xmlns="http://www.w3.org/2000/svg" viewBox="0 0 640 398" width="640" height="398" role="img" aria-label="#013 — My Oxford Year (2025)">
  <rect width="100%" height="100%" fill="white"/>
  <text x="320.0" y="32" text-anchor="middle" font-family="Comic Neue, Comic Sans MS, cursive" font-size="15" font-weight="700" fill="black">#013 — My Oxford Year (2025) ★★½</text>
    <g class="panel">
    <rect x="14" y="44" width="300" height="340" fill="white" stroke="black" stroke-width="2"/>
    <rect x="29" y="58" width="270" height="86" rx="12" ry="12" fill="white" stroke="black" stroke-width="1.6"/>
    <polygon points="156.0,143 172.0,143 182.506548886065,240" fill="white" stroke="black" stroke-width="1.6"/>
    <line x1="157.0" y1="144" x2="171.0" y2="144" stroke="white" stroke-width="2.2"/>
    <text x="164.0" y="76" text-anchor="middle" font-family="Comic Neue, Comic Sans MS, cursive" font-size="13" fill="black"><tspan x="164.0" dy="0">College, Oxford,</tspan><tspan x="164.0" dy="16">goldman. period. To</tspan><tspan x="164.0" dy="16">College, Oxford, fuck</tspan><tspan x="164.0" dy="16">goldman!</tspan></text>
    <circle cx="182.506548886065" cy="254" r="14" fill="none" stroke="black" stroke-width="2.2"/>
    <line x1="182.506548886065" y1="268" x2="182.506548886065" y2="308" stroke="black" stroke-width="2.2"/>
    <line x1="182.506548886065" y1="280" x2="164.506548886065" y2="298" stroke="black" stroke-width="2.2"/>
    <line x1="182.506548886065" y1="280" x2="200.506548886065" y2="298" stroke="black" stroke-width="2.2"/>
    <line x1="182.506548886065" y1="308" x2="168.506548886065" y2="336" stroke="black" stroke-width="2.2"/>
    <line x1="182.506548886065" y1="308" x2="196.506548886065" y2="336" stroke="black" stroke-width="2.2"/>
    <line x1="34" y1="350" x2="294" y2="350" stroke="black" stroke-width="1.5"/>
</g>
  <g class="panel">
    <rect x="326" y="44" width="300" height="340" fill="white" stroke="black" stroke-width="2"/>
    <rect x="341" y="58" width="270" height="70" rx="12" ry="12" fill="white" stroke="black" stroke-width="1.6"/>
    <polygon points="468.0,127 484.0,127 466.3418480894999,240" fill="white" stroke="black" stroke-width="1.6"/>
    <line x1="469.0" y1="128" x2="483.0" y2="128" stroke="white" stroke-width="2.2"/>
    <text x="476.0" y="76" text-anchor="middle" font-family="Comic Neue, Comic Sans MS, cursive" font-size="13" fill="black"><tspan x="476.0" dy="0">Girl chose love 😗 We</tspan><tspan x="476.0" dy="16">lost again, But did</tspan><tspan x="476.0" dy="16">we?</tspan></text>
    <circle cx="466.3418480894999" cy="254" r="14" fill="none" stroke="black" stroke-width="2.2"/>
    <line x1="466.3418480894999" y1="268" x2="466.3418480894999" y2="308" stroke="black" stroke-width="2.2"/>
    <line x1="466.3418480894999" y1="274" x2="444.3418480894999" y2="250" stroke="black" stroke-width="2.2"/>
    <line x1="466.3418480894999" y1="274" x2="488.3418480894999" y2="250" stroke="black" stroke-width="2.2"/>
    <line x1="466.3418480894999" y1="308" x2="452.3418480894999" y2="336" stroke="black" stroke-width="2.2"/>
    <line x1="466.3418480894999" y1="308" x2="480.3418480894999" y2="336" stroke="black" stroke-width="2.2"/>
    <line x1="346" y1="350" x2="606" y2="350" stroke="black" stroke-width="1.5"/>
</g>
</svg>
