<?xml version="1.0" encoding="UTF-8"?>
<svg xmlns="http://www.w3.org/2000/svg" viewBox="0 0 806 402" width="806" height="402" role="img" aria-label="#013 — My Oxford Year (2025)">
  <rect width="100%" height="100%" fill="#f1e7cc"/>
  <text x="403.0" y="34" text-anchor="middle" font-family="Comic Neue, Comic Sans MS, cursive" font-size="16" font-weight="700" fill="black">#013 — My Oxford Year (2025) ★★½</text>
  <g class="panel">
    <path d="M 16.00 46.00 C 142.67 45.87, 269.33 46.08, 396.00 46.00 C 395.54 159.33, 396.20 272.67, 396.00 386.00 C 269.33 386.17, 142.67 385.52, 16.00 386.00 C 15.72 272.67, 15.90 159.33, 16.00 46.00" fill="none" stroke="black" stroke-width="2.0" stroke-linecap="round" stroke-linejoin="round"/>
    <path d="M 26.00 362.00 C 146.00 362.80, 266.00 362.17, 386.00 362.00" fill="none" stroke="black" stroke-width="1.4" stroke-linecap="round"/>
    <path d="M 84.40 314.00 C 104.40 314.74, 124.40 314.21, 144.40 314.00 C 145.16 324.67, 144.38 335.33, 144.40 346.00 C 124.40 345.85, 104.40 346.02, 84.40 346.00 C 83.61 335.33, 84.79 324.67, 84.40 314.00" fill="none" stroke="black" stroke-width="2.0" stroke-linecap="round" stroke-linejoin="round"/>
    <path d="M 84.40 302.00 C 104.40 302.31, 124.40 301.49, 144.40 302.00 C 144.31 306.00, 144.28 310.00, 144.40 314.00 C 124.40 314.00, 104.40 313.69, 84.40 314.00 C 84.49 310.00, 84.76 306.00, 84.40 302.00" fill="#f1e7cc" stroke="black" stroke-width="2.0" stroke-linecap="round" stroke-linejoin="round"/>
    <path d="M 88.40 314.00 C 92.75 310.35, 96.01 305.61, 100.40 302.00 C 103.07 301.99, 105.73 301.65, 108.40 302.00 C 104.82 306.42, 100.56 310.16, 96.40 314.00 C 93.73 313.62, 91.07 314.35, 88.40 314.00" fill="black" stroke="black" stroke-width="2.0" stroke-linecap="round" stroke-linejoin="round"/>
    <path d="M 112.40 314.00 C 116.87 310.47, 120.67 306.27, 124.40 302.00 C 127.07 302.05, 129.73 302.59, 132.40 302.00 C 128.75 306.35, 124.30 309.90, 120.40 314.00 C 117.73 314.37, 115.07 314.71, 112.40 314.00" fill="black" stroke="black" stroke-width="2.0" stroke-linecap="round" stroke-linejoin="round"/>
    <path d="M 278.87 270.00 C 278.41 271.50, 278.16 273.05, 277.86 274.58 C 276.91 275.88, 276.11 277.25, 275.57 278.77 C 274.22 279.63, 272.84 280.44, 271.47 281.28 C 269.89 281.37, 268.41 282.11, 266.80 281.95 C 265.26 281.72, 263.81 281.08, 262.25 280.99 C 261.18 279.84, 259.84 279.07, 258.52 278.28 C 257.21 277.33, 256.26 276.06, 255.36 274.74 C 255.40 273.09, 254.56 271.61, 254.40 270.00 C 254.62 268.39, 255.26 266.94, 256.11 265.57 C 256.86 264.19, 257.10 262.58, 258.13 261.33 C 259.40 260.37, 260.93 259.86, 262.21 258.91 C 263.69 258.37, 265.30 258.38, 266.80 257.90 C 268.35 258.24, 269.96 258.25, 271.50 258.65 C 272.51 259.87, 273.83 260.76, 274.95 261.85 C 275.98 262.96, 276.24 264.56, 277.34 265.63 C 278.10 267.00, 278.60 268.46, 278.87 270.00" fill="none" stroke="black" stroke-width="2.0" stroke-linecap="round"/>
    <path d="M 273.15 252.00 C 272.64 252.74, 273.21 253.70, 272.68 254.44 C 272.29 255.17, 271.60 255.70, 271.29 256.49 C 270.47 256.60, 269.65 256.72, 268.98 257.27 C 268.16 257.19, 267.44 257.43, 266.80 257.95 C 266.07 257.70, 265.37 257.36, 264.59 257.34 C 263.86 257.07, 263.44 256.38, 262.77 256.03 C 262.40 255.40, 261.74 254.93, 261.73 254.10 C 261.50 253.42, 261.69 252.64, 261.29 252.00 C 261.38 251.29, 261.87 250.67, 261.76 249.91 C 261.57 249.02, 262.23 248.32, 262.28 247.48 C 263.09 247.19, 263.53 246.35, 264.34 246.06 C 265.14 245.80, 266.03 246.14, 266.80 245.67 C 267.69 245.75, 268.19 246.52, 268.91 246.90 C 269.63 247.23, 270.39 247.46, 271.16 247.64 C 271.58 248.32, 271.99 249.02, 271.96 249.86 C 272.11 250.71, 272.64 251.35, 273.15 252.00" fill="none" stroke="black" stroke-width="2.0" stroke-linecap="round"/>
    <path d="M 255.80 271.00 C 255.26 274.69, 254.05 278.26, 253.80 282.00" fill="none" stroke="black" stroke-width="2.0" stroke-linecap="round"/>
    <path d="M 277.80 271.00 C 278.75 274.62, 278.84 278.39, 279.80 282.00" fill="none" stroke="black" stroke-width="2.0" stroke-linecap="round"/>
    <path d="M 266.80 282.00 C 267.35 296.00, 267.14 310.00, 266.80 324.00" fill="none" stroke="black" stroke-width="2.0" stroke-linecap="round"/>
    <path d="M 266.80 292.00 C 257.58 289.91, 248.10 289.57, 238.80 288.00" fill="none" stroke="black" stroke-width="2.0" stroke-linecap="round"/>
    <path d="M 266.80 292.00 C 271.79 298.30, 277.15 304.28, 282.80 310.00" fill="none" stroke="black" stroke-width="2.0" stroke-linecap="round"/>
    <path d="M 266.80 324.00 C 262.43 332.50, 258.04 340.98, 254.80 350.00" fill="none" stroke="black" stroke-width="2.0" stroke-linecap="round"/>
    <path d="M 266.80 324.00 C 270.58 332.77, 274.47 341.49, 278.80 350.00" fill="none" stroke="black" stroke-width="2.0" stroke-linecap="round"/>
    <path d="M 244.00 60.00 C 288.00 59.89, 332.00 59.85, 376.00 60.00 C 379.58 63.08, 382.69 66.64, 386.00 70.00 C 386.66 81.33, 385.92 92.67, 386.00 104.00 C 382.86 107.53, 379.26 110.59, 376.00 114.00 C 332.00 113.35, 288.00 114.50, 244.00 114.00 C 240.11 111.22, 237.40 107.27, 234.00 104.00 C 234.67 92.67, 234.47 81.33, 234.00 70.00 C 237.18 66.51, 240.34 63.00, 244.00 60.00" fill="#f1e7cc" stroke="black" stroke-width="2.0" stroke-linecap="round" stroke-linejoin="round"/>
    <path d="M 251.80 114.00 C 253.82 167.35, 256.63 220.66, 258.80 274.00 C 260.57 220.64, 263.32 167.33, 265.80 114.00" fill="#f1e7cc" stroke="black" stroke-width="2.0" stroke-linecap="round" stroke-linejoin="round"/>
    <line x1="252.8" y1="114" x2="264.8" y2="114" stroke="#f1e7cc" stroke-width="2.4"/>
    <text x="310.0" y="78.0" text-anchor="middle" font-family="Comic Neue, Comic Sans MS, cursive" font-size="13" fill="black"><tspan x="310.0" dy="0">College, Oxford,</tspan><tspan x="310.0" dy="16">goldman. period.</tspan></text>
  </g>
  <g class="panel">
    <path d="M 410.00 46.00 C 536.67 46.38, 663.33 46.47, 790.00 46.00 C 789.73 159.33, 790.67 272.67, 790.00 386.00 C 663.33 385.68, 536.67 386.64, 410.00 386.00 C 409.93 272.67, 410.38 159.33, 410.00 46.00" fill="none" stroke="black" stroke-width="2.0" stroke-linecap="round" stroke-linejoin="round"/>
    <path d="M 420.00 362.00 C 540.00 361.77, 660.00 362.72, 780.00 362.00" fill="none" stroke="black" stroke-width="1.4" stroke-linecap="round"/>
    <path d="M 545.60 326.00 C 553.60 325.77, 561.60 326.01, 569.60 326.00 C 568.34 336.63, 568.76 347.36, 567.60 358.00 C 560.93 358.52, 554.27 358.31, 547.60 358.00 C 547.25 347.31, 546.00 336.68, 545.60 326.00" fill="none" stroke="black" stroke-width="2.0" stroke-linecap="round" stroke-linejoin="round"/>
    <path d="M 551.60 328.00 C 551.35 337.33, 551.16 346.67, 551.60 356.00" fill="none" stroke="black" stroke-width="1.4" stroke-linecap="round"/>
    <path d="M 557.60 328.00 C 556.97 337.33, 557.57 346.67, 557.60 356.00" fill="none" stroke="black" stroke-width="1.4" stroke-linecap="round"/>
    <path d="M 563.60 328.00 C 563.98 337.33, 563.04 346.67, 563.60 356.00" fill="none" stroke="black" stroke-width="1.4" stroke-linecap="round"/>
    <path d="M 554.95 324.00 C 554.41 324.18, 554.84 324.94, 554.29 325.11 C 554.10 325.49, 554.32 326.00, 553.89 326.29 C 553.43 326.09, 553.00 326.07, 552.63 326.49 C 552.33 326.83, 551.96 327.08, 551.60 327.35 C 551.41 326.81, 550.79 327.04, 550.47 326.72 C 550.30 326.23, 549.87 326.20, 549.45 326.15 C 549.13 325.87, 549.43 325.30, 548.96 325.09 C 549.25 324.68, 548.61 324.40, 548.79 324.00 C 548.63 323.57, 548.23 323.20, 548.39 322.67 C 548.98 322.89, 549.37 322.32, 549.89 322.29 C 549.84 321.81, 550.52 321.73, 550.46 321.25 C 550.82 321.43, 551.28 321.22, 551.60 321.56 C 551.90 321.15, 552.37 321.57, 552.70 321.34 C 553.00 321.55, 553.46 321.57, 553.56 322.04 C 553.70 322.58, 554.12 322.70, 554.59 322.76 C 554.97 323.10, 555.04 323.53, 554.95 324.00" fill="none" stroke="black" stroke-width="2.0" stroke-linecap="round"/>
    <path d="M 562.55 320.00 C 562.48 320.51, 562.06 320.90, 562.07 321.44 C 562.06 322.00, 561.36 322.19, 561.36 322.76 C 560.96 323.08, 560.55 323.37, 560.05 323.49 C 559.55 323.81, 559.09 323.31, 558.60 323.44 C 558.12 323.74, 557.68 323.21, 557.20 323.37 C 556.62 323.45, 556.16 322.90, 555.57 323.03 C 555.60 322.46, 555.66 321.88, 555.36 321.34 C 554.89 320.93, 554.70 320.25, 554.06 320.00 C 554.16 319.33, 554.55 318.88, 555.11 318.55 C 555.70 318.41, 555.65 317.75, 556.02 317.42 C 556.19 316.84, 556.81 316.89, 557.19 316.60 C 557.79 316.44, 557.94 315.65, 558.60 315.57 C 559.11 315.82, 559.63 316.03, 560.13 316.31 C 560.48 316.74, 560.94 316.98, 561.46 317.14 C 562.03 317.36, 562.26 317.96, 562.73 318.29 C 562.72 318.86, 562.95 319.47, 562.55 320.00" fill="none" stroke="black" stroke-width="2.0" stroke-linecap="round"/>
    <path d="M 569.19 325.00 C 569.08 325.45, 569.31 325.99, 568.80 326.33 C 568.35 326.45, 567.95 326.69, 567.58 326.98 C 567.14 327.22, 566.82 327.53, 566.88 328.08 C 566.44 328.11, 566.04 327.86, 565.60 327.97 C 565.28 327.75, 565.01 327.42, 564.56 327.51 C 564.20 327.29, 563.85 327.07, 563.40 327.20 C 562.92 327.05, 563.16 326.36, 562.68 326.21 C 562.86 325.66, 562.65 325.27, 562.16 325.00 C 562.33 324.58, 562.45 324.15, 562.43 323.69 C 562.89 323.57, 563.37 323.50, 563.58 322.98 C 563.94 322.88, 564.39 322.95, 564.55 322.48 C 564.82 322.10, 565.13 321.79, 565.60 321.71 C 565.98 321.91, 566.32 322.23, 566.80 322.10 C 566.77 322.58, 567.39 322.78, 567.33 323.27 C 567.78 323.27, 567.83 323.99, 568.36 323.86 C 568.78 324.13, 569.00 324.55, 569.19 325.00" fill="none" stroke="black" stroke-width="2.0" stroke-linecap="round"/>
    <path d="M 543.49 270.00 C 543.14 271.52, 543.29 273.12, 542.68 274.59 C 541.73 275.81, 540.87 277.09, 539.86 278.26 C 538.68 279.26, 537.58 280.37, 536.20 281.11 C 534.75 281.82, 533.08 281.60, 531.60 282.20 C 529.96 282.32, 528.48 281.36, 526.84 281.49 C 525.32 280.85, 524.42 279.32, 522.88 278.72 C 522.23 277.24, 520.83 276.24, 520.30 274.68 C 520.38 273.06, 519.99 271.52, 519.47 270.00 C 519.58 268.41, 520.24 266.94, 520.44 265.38 C 521.55 264.29, 522.43 263.01, 523.38 261.78 C 524.43 260.58, 525.50 259.40, 526.84 258.51 C 528.50 258.46, 529.99 257.70, 531.60 257.41 C 533.15 257.85, 534.52 258.77, 536.07 259.22 C 537.35 260.09, 538.95 260.41, 540.12 261.48 C 540.58 262.97, 541.61 264.18, 542.23 265.60 C 542.81 267.02, 542.98 268.56, 543.49 270.00" fill="none" stroke="black" stroke-width="2.0" stroke-linecap="round"/>
    <path d="M 515.60 260.00 C 526.27 259.32, 536.93 260.63, 547.60 260.00 C 546.74 256.48, 544.98 253.31, 543.60 250.00 C 535.60 250.26, 527.60 250.23, 519.60 250.00 C 518.07 253.25, 516.88 256.64, 515.60 260.00" fill="black" stroke="black" stroke-width="2.0" stroke-linecap="round" stroke-linejoin="round"/>
    <path d="M 513.60 260.00 C 525.60 259.33, 537.60 260.24, 549.60 260.00" fill="none" stroke="black" stroke-width="2.0" stroke-linecap="round"/>
    <path d="M 531.60 282.00 C 531.39 296.00, 531.51 310.00, 531.60 324.00" fill="none" stroke="black" stroke-width="2.0" stroke-linecap="round"/>
    <path d="M 531.60 290.00 C 526.14 296.56, 521.29 303.62, 515.60 310.00" fill="none" stroke="black" stroke-width="2.0" stroke-linecap="round"/>
    <path d="M 531.60 290.00 C 536.34 297.14, 542.53 303.12, 547.60 310.00" fill="none" stroke="black" stroke-width="2.0" stroke-linecap="round"/>
    <path d="M 531.60 324.00 C 528.25 332.97, 523.38 341.23, 519.60 350.00" fill="none" stroke="black" stroke-width="2.0" stroke-linecap="round"/>
    <path d="M 531.60 324.00 C 536.23 332.38, 539.22 341.51, 543.60 350.00" fill="none" stroke="black" stroke-width="2.0" stroke-linecap="round"/>
    <path d="M 680.52 270.00 C 680.16 271.59, 680.16 273.21, 680.03 274.82 C 679.25 276.27, 678.21 277.49, 676.92 278.52 C 675.82 279.70, 674.26 280.17, 672.98 281.07 C 671.48 281.47, 669.93 281.55, 668.40 281.76 C 666.89 281.36, 665.35 281.19, 663.79 281.12 C 662.60 280.13, 661.39 279.16, 660.07 278.33 C 659.46 276.90, 658.72 275.56, 657.59 274.48 C 657.23 272.99, 657.04 271.47, 656.62 270.00 C 656.41 268.39, 657.03 266.80, 656.77 265.18 C 658.06 264.21, 658.97 262.83, 660.31 261.91 C 661.58 261.13, 662.55 259.90, 664.01 259.39 C 665.45 259.03, 666.99 259.10, 668.40 258.55 C 669.89 258.83, 671.37 259.09, 672.88 259.18 C 674.13 260.03, 675.42 260.82, 676.52 261.88 C 677.18 263.26, 678.59 264.10, 679.18 265.53 C 679.32 267.12, 680.18 268.48, 680.52 270.00" fill="none" stroke="black" stroke-width="2.0" stroke-linecap="round"/>
    <path d="M 674.94 252.00 C 674.36 252.69, 674.55 253.63, 674.12 254.37 C 673.89 255.21, 673.40 255.83, 672.61 256.21 C 672.01 256.78, 671.45 257.40, 670.89 258.02 C 670.04 258.28, 669.21 258.21, 668.40 257.87 C 667.68 257.53, 666.86 257.78, 666.12 257.51 C 665.38 257.21, 664.57 257.03, 664.05 256.35 C 663.92 255.53, 663.40 254.91, 662.94 254.26 C 662.65 253.54, 662.89 252.68, 662.41 252.00 C 662.79 251.24, 662.57 250.41, 662.66 249.62 C 663.34 249.19, 663.85 248.57, 664.41 248.01 C 665.04 247.57, 665.44 246.87, 666.12 246.49 C 666.88 246.87, 667.64 246.29, 668.40 246.44 C 669.09 246.67, 669.77 246.94, 670.52 246.89 C 671.29 247.40, 672.17 247.33, 673.04 247.36 C 673.32 248.15, 673.50 248.98, 673.86 249.74 C 674.11 250.54, 674.79 251.15, 674.94 252.00" fill="none" stroke="black" stroke-width="2.0" stroke-linecap="round"/>
    <path d="M 657.40 271.00 C 656.83 274.68, 655.94 278.31, 655.40 282.00" fill="none" stroke="black" stroke-width="2.0" stroke-linecap="round"/>
    <path d="M 679.40 271.00 C 679.27 274.81, 679.84 278.50, 681.40 282.00" fill="none" stroke="black" stroke-width="2.0" stroke-linecap="round"/>
    <path d="M 668.40 282.00 C 668.61 296.00, 669.10 310.00, 668.40 324.00" fill="none" stroke="black" stroke-width="2.0" stroke-linecap="round"/>
    <path d="M 668.40 292.00 C 659.11 290.34, 649.61 290.18, 640.40 288.00" fill="none" stroke="black" stroke-width="2.0" stroke-linecap="round"/>
    <path d="M 668.40 292.00 C 673.34 298.35, 679.31 303.78, 684.40 310.00" fill="none" stroke="black" stroke-width="2.0" stroke-linecap="round"/>
    <path d="M 668.40 324.00 C 664.91 332.90, 661.30 341.75, 656.40 350.00" fill="none" stroke="black" stroke-width="2.0" stroke-linecap="round"/>
    <path d="M 668.40 324.00 C 672.01 332.85, 677.13 341.00, 680.40 350.00" fill="none" stroke="black" stroke-width="2.0" stroke-linecap="round"/>
    <path d="M 430.00 60.00 C 480.00 60.06, 530.00 60.55, 580.00 60.00 C 582.85 63.81, 586.94 66.39, 590.00 70.00 C 589.92 86.67, 590.26 103.33, 590.00 120.00 C 586.96 123.63, 582.94 126.27, 580.00 130.00 C 530.00 129.24, 480.00 129.70, 430.00 130.00 C 426.42 126.91, 423.31 123.36, 420.00 120.00 C 420.07 103.33, 419.98 86.67, 420.00 70.00 C 423.66 66.99, 427.18 63.85, 430.00 60.00" fill="#f1e7cc" stroke="black" stroke-width="2.0" stroke-linecap="round" stroke-linejoin="round"/>
    <path d="M 532.60 130.00 C 535.09 177.99, 538.06 225.96, 539.60 274.00 C 541.61 225.98, 544.99 178.04, 546.60 130.00" fill="#f1e7cc" stroke="black" stroke-width="2.0" stroke-linecap="round" stroke-linejoin="round"/>
    <line x1="533.6" y1="130" x2="545.6" y2="130" stroke="#f1e7cc" stroke-width="2.4"/>
    <text x="505.0" y="78.0" text-anchor="middle" font-family="Comic Neue, Comic Sans MS, cursive" font-size="13" fill="black"><tspan x="505.0" dy="0">Girl chose love 😗 We</tspan><tspan x="505.0" dy="16">lost again, But did</tspan><tspan x="505.0" dy="16">we?</tspan></text>
  </g>
</svg>
