<?xml version="1.0" encoding="UTF-8"?>
<svg xmlns="http://www.w3.org/2000/svg" viewBox="0 0 412 402" width="412" height="402" role="img" aria-label="#014 — Bait (2012)">
  <defs><filter id="grain" x="0%" y="0%" width="100%" height="100%"><feTurbulence type="fractalNoise" baseFrequency="0.85" numOctaves="2" stitchTiles="stitch" seed="6"/><feColorMatrix values="0 0 0 0 0.32  0 0 0 0 0.22  0 0 0 0 0.13  0 0 0 -1.4 0.55"/></filter></defs>
  <rect width="100%" height="100%" fill="#f1e7cc"/>
  <rect width="100%" height="100%" filter="url(#grain)" opacity="0.75"/>
  <text x="206.0" y="34" text-anchor="middle" font-family="Comic Neue, Comic Sans MS, cursive" font-size="16" font-weight="700" fill="black">#014 — Bait (2012) ★½</text>
  <g class="panel">
    <path d="M 16.00 46.00 C 142.67 45.28, 269.33 45.31, 396.00 46.00 C 395.83 159.33, 396.75 272.67, 396.00 386.00 C 269.33 385.59, 142.67 386.64, 16.00 386.00 C 15.60 272.67, 15.47 159.33, 16.00 46.00" fill="none" stroke="black" stroke-width="2.0" stroke-linecap="round" stroke-linejoin="round"/>
    <path d="M 26.00 356.00 C 146.00 356.00, 266.00 356.72, 386.00 356.00" fill="none" stroke="black" stroke-width="1.4" stroke-linecap="round"/>
    <path d="M 30.00 280.00 C 56.67 280.35, 83.33 279.67, 110.00 280.00 C 110.70 298.67, 110.25 317.33, 110.00 336.00 C 83.33 335.63, 56.67 335.69, 30.00 336.00 C 29.52 317.33, 29.60 298.67, 30.00 280.00" fill="none" stroke="black" stroke-width="2.0" stroke-linecap="round" stroke-linejoin="round"/>
    <path d="M 36.00 286.00 C 58.67 286.75, 81.33 286.25, 104.00 286.00 C 103.63 300.67, 104.04 315.33, 104.00 330.00 C 81.33 330.77, 58.67 329.34, 36.00 330.00 C 36.32 315.33, 35.67 300.67, 36.00 286.00" fill="none" stroke="black" stroke-width="2.0" stroke-linecap="round" stroke-linejoin="round"/>
    <path d="M 56.00 336.00 C 65.33 336.17, 74.67 335.56, 84.00 336.00" fill="none" stroke="black" stroke-width="1.4" stroke-linecap="round"/>
    <path d="M 70.00 336.00 C 70.07 338.67, 69.29 341.33, 70.00 344.00" fill="none" stroke="black" stroke-width="1.4" stroke-linecap="round"/>
    <path d="M 56.00 346.00 C 65.33 345.37, 74.67 346.24, 84.00 346.00" fill="none" stroke="black" stroke-width="1.4" stroke-linecap="round"/>
    <path d="M 42.00 322.00 C 44.79 313.13, 48.92 304.76, 52.00 296.00 C 56.00 305.67, 60.69 314.99, 66.00 324.00 C 71.11 315.57, 74.90 306.43, 80.00 298.00 C 85.64 305.11, 90.50 312.79, 96.00 320.00" fill="none" stroke="black" stroke-width="2.0" stroke-linecap="round" stroke-linejoin="round"/>
    <path d="M 110.00 300.00 C 160.67 300.25, 211.33 299.45, 262.00 300.00 C 261.55 310.00, 262.56 320.00, 262.00 330.00 C 211.33 329.64, 160.67 329.61, 110.00 330.00 C 109.78 320.00, 110.40 310.00, 110.00 300.00" fill="none" stroke="black" stroke-width="2.0" stroke-linecap="round" stroke-linejoin="round"/>
    <path d="M 110.00 330.00 C 160.67 329.95, 211.33 329.25, 262.00 330.00 C 261.60 342.00, 261.47 354.00, 262.00 366.00 C 211.33 365.43, 160.67 365.38, 110.00 366.00 C 110.01 354.00, 109.57 342.00, 110.00 330.00" fill="none" stroke="black" stroke-width="2.0" stroke-linecap="round" stroke-linejoin="round"/>
    <path d="M 102.00 312.00 C 104.67 311.29, 107.33 312.76, 110.00 312.00 C 110.32 330.00, 110.04 348.00, 110.00 366.00 C 107.33 365.56, 104.67 365.50, 102.00 366.00 C 102.74 348.00, 101.73 330.00, 102.00 312.00" fill="none" stroke="black" stroke-width="2.0" stroke-linecap="round" stroke-linejoin="round"/>
    <path d="M 262.00 312.00 C 264.67 311.37, 267.33 312.51, 270.00 312.00 C 269.42 330.00, 270.22 348.00, 270.00 366.00 C 267.33 366.73, 264.67 366.77, 262.00 366.00 C 261.27 348.00, 261.86 330.00, 262.00 312.00" fill="none" stroke="black" stroke-width="2.0" stroke-linecap="round" stroke-linejoin="round"/>
    <path d="M 186.00 330.00 C 186.21 342.00, 185.01 354.00, 186.00 366.00" fill="none" stroke="black" stroke-width="1.4" stroke-linecap="round"/>
    <path d="M 157.78 300.00 C 157.41 301.47, 157.36 303.02, 156.59 304.39 C 155.73 305.73, 155.38 307.29, 154.72 308.72 C 153.51 309.80, 152.12 310.62, 150.74 311.45 C 149.24 312.15, 147.63 312.36, 146.00 312.49 C 144.42 312.18, 142.92 311.54, 141.32 311.31 C 140.33 310.02, 139.02 309.14, 137.63 308.37 C 136.52 307.26, 136.18 305.65, 135.15 304.49 C 134.44 303.07, 134.16 301.49, 133.64 300.00 C 134.35 298.50, 133.97 296.79, 134.60 295.28 C 135.54 293.96, 136.49 292.66, 137.18 291.18 C 138.41 290.10, 140.00 289.63, 141.32 288.70 C 142.90 288.76, 144.47 288.74, 146.00 288.31 C 147.50 288.75, 149.06 288.75, 150.59 288.91 C 151.89 289.78, 152.99 290.95, 154.50 291.50 C 155.35 292.90, 156.73 293.83, 157.64 295.18 C 158.06 296.77, 157.46 298.40, 157.78 300.00" fill="none" stroke="black" stroke-width="2.0" stroke-linecap="round"/>
    <path d="M 130.00 290.00 C 140.67 290.16, 151.33 290.51, 162.00 290.00 C 161.29 286.42, 159.07 283.44, 158.00 280.00 C 150.00 280.57, 142.00 280.48, 134.00 280.00 C 132.56 283.29, 131.95 286.91, 130.00 290.00" fill="black" stroke="black" stroke-width="2.0" stroke-linecap="round" stroke-linejoin="round"/>
    <path d="M 128.00 290.00 C 140.00 289.51, 152.00 290.42, 164.00 290.00" fill="none" stroke="black" stroke-width="2.0" stroke-linecap="round"/>
    <path d="M 146.00 312.00 C 145.89 321.33, 145.37 330.67, 146.00 340.00" fill="none" stroke="black" stroke-width="2.0" stroke-linecap="round"/>
    <path d="M 146.00 326.00 C 140.07 329.20, 135.45 334.16, 130.00 338.00" fill="none" stroke="black" stroke-width="2.0" stroke-linecap="round"/>
    <path d="M 146.00 326.00 C 151.28 330.07, 156.64 334.04, 162.00 338.00" fill="none" stroke="black" stroke-width="2.0" stroke-linecap="round"/>
    <path d="M 146.00 340.00 C 154.00 340.35, 162.00 340.13, 170.00 340.00" fill="none" stroke="black" stroke-width="2.0" stroke-linecap="round"/>
    <path d="M 170.00 340.00 C 170.30 346.04, 171.88 351.94, 172.00 358.00" fill="none" stroke="black" stroke-width="2.0" stroke-linecap="round"/>
    <path d="M 146.00 340.00 C 142.72 345.73, 140.31 351.84, 138.00 358.00" fill="none" stroke="black" stroke-width="2.0" stroke-linecap="round"/>
    <path d="M 238.22 300.00 C 237.67 301.47, 236.97 302.89, 236.80 304.47 C 236.14 305.92, 235.23 307.25, 234.82 308.82 C 233.63 309.96, 232.08 310.52, 230.71 311.38 C 229.09 311.39, 227.56 311.92, 226.00 312.29 C 224.44 312.00, 222.96 311.46, 221.49 310.88 C 220.22 309.99, 218.74 309.46, 217.53 308.47 C 216.73 307.16, 216.33 305.63, 215.34 304.42 C 215.36 302.90, 214.81 301.48, 214.58 300.00 C 214.35 298.45, 214.45 296.92, 214.97 295.43 C 215.65 293.99, 216.67 292.74, 217.25 291.25 C 218.60 290.41, 219.90 289.48, 221.44 289.00 C 222.87 288.22, 224.55 288.32, 226.00 287.63 C 227.50 288.19, 229.14 288.20, 230.62 288.84 C 232.08 289.50, 232.99 290.85, 234.29 291.71 C 235.05 293.01, 235.99 294.22, 236.57 295.62 C 237.08 297.10, 237.90 298.45, 238.22 300.00" fill="none" stroke="black" stroke-width="2.0" stroke-linecap="round"/>
    <path d="M 231.50 282.00 C 231.90 282.77, 231.97 283.60, 231.92 284.45 C 231.32 285.03, 230.83 285.74, 229.94 285.94 C 229.33 286.34, 228.79 286.84, 228.15 287.20 C 227.39 286.95, 226.67 286.98, 226.00 287.46 C 225.16 287.64, 224.25 287.52, 223.50 288.05 C 222.70 287.63, 222.24 286.93, 221.81 286.19 C 221.61 285.43, 220.89 284.96, 220.71 284.19 C 220.19 283.52, 219.95 282.69, 219.47 282.00 C 219.65 281.17, 219.89 280.34, 219.93 279.48 C 220.42 278.73, 221.25 278.42, 221.98 277.98 C 222.71 277.57, 223.26 277.00, 223.61 276.23 C 224.41 275.88, 225.20 276.16, 226.00 276.25 C 226.79 275.83, 227.63 276.35, 228.43 276.13 C 228.74 276.95, 229.41 277.44, 230.10 277.90 C 230.61 278.49, 231.07 279.11, 231.60 279.68 C 231.69 280.46, 231.84 281.24, 231.50 282.00" fill="none" stroke="black" stroke-width="2.0" stroke-linecap="round"/>
    <path d="M 215.00 301.00 C 214.28 304.66, 213.85 308.37, 213.00 312.00" fill="none" stroke="black" stroke-width="2.0" stroke-linecap="round"/>
    <path d="M 237.00 301.00 C 237.64 304.67, 238.51 308.30, 239.00 312.00" fill="none" stroke="black" stroke-width="2.0" stroke-linecap="round"/>
    <path d="M 226.00 312.00 C 225.37 321.33, 226.92 330.67, 226.00 340.00" fill="none" stroke="black" stroke-width="2.0" stroke-linecap="round"/>
    <path d="M 226.00 326.00 C 220.41 329.66, 215.39 334.08, 210.00 338.00" fill="none" stroke="black" stroke-width="2.0" stroke-linecap="round"/>
    <path d="M 226.00 326.00 C 231.67 329.55, 236.81 333.81, 242.00 338.00" fill="none" stroke="black" stroke-width="2.0" stroke-linecap="round"/>
    <path d="M 226.00 340.00 C 234.00 339.34, 242.00 339.47, 250.00 340.00" fill="none" stroke="black" stroke-width="2.0" stroke-linecap="round"/>
    <path d="M 250.00 340.00 C 249.80 346.10, 251.23 352.01, 252.00 358.00" fill="none" stroke="black" stroke-width="2.0" stroke-linecap="round"/>
    <path d="M 226.00 340.00 C 223.40 346.03, 221.18 352.23, 218.00 358.00" fill="none" stroke="black" stroke-width="2.0" stroke-linecap="round"/>
    <path d="M 36.00 60.00 C 86.00 59.65, 136.00 60.42, 186.00 60.00 C 189.12 63.55, 192.24 67.10, 196.00 70.00 C 196.58 81.33, 196.77 92.67, 196.00 104.00 C 192.20 106.87, 189.01 110.34, 186.00 114.00 C 136.00 114.00, 86.00 113.35, 36.00 114.00 C 33.00 110.33, 29.56 107.10, 26.00 104.00 C 26.10 92.67, 25.56 81.33, 26.00 70.00 C 29.23 66.56, 32.83 63.49, 36.00 60.00" fill="#f1e7cc" stroke="black" stroke-width="2.0" stroke-linecap="round" stroke-linejoin="round"/>
    <path d="M 131.00 114.00 C 134.02 177.31, 135.34 240.68, 138.00 304.00 C 140.88 240.69, 142.73 177.34, 145.00 114.00" fill="#f1e7cc" stroke="black" stroke-width="2.0" stroke-linecap="round" stroke-linejoin="round"/>
    <line x1="132.0" y1="114" x2="144.0" y2="114" stroke="#f1e7cc" stroke-width="2.4"/>
    <text x="111.0" y="78.0" text-anchor="middle" font-family="Comic Neue, Comic Sans MS, cursive" font-size="13" fill="black"><tspan x="111.0" dy="0">Shark doo do do do do</tspan><tspan x="111.0" dy="16">dooo</tspan></text>
  </g>
</svg>
