<?xml version="1.0" encoding="UTF-8"?>
<svg xmlns="http://www.w3.org/2000/svg" viewBox="0 0 1200 402" width="1200" height="402" role="img" aria-label="#015 — 50 First Dates (2004)">
  <defs><filter id="grain" x="0%" y="0%" width="100%" height="100%"><feTurbulence type="fractalNoise" baseFrequency="0.85" numOctaves="2" stitchTiles="stitch" seed="7"/><feColorMatrix values="0 0 0 0 0.32  0 0 0 0 0.22  0 0 0 0 0.13  0 0 0 -1.4 0.55"/></filter></defs>
  <rect width="100%" height="100%" fill="#f1e7cc"/>
  <rect width="100%" height="100%" filter="url(#grain)" opacity="0.75"/>
  <text x="600.0" y="34" text-anchor="middle" font-family="Comic Neue, Comic Sans MS, cursive" font-size="16" font-weight="700" fill="black">#015 — 50 First Dates (2004) ★★★</text>
  <g class="panel">
    <path d="M 16.00 46.00 C 142.67 45.36, 269.33 46.65, 396.00 46.00 C 395.61 159.33, 395.32 272.67, 396.00 386.00 C 269.33 386.52, 142.67 386.38, 16.00 386.00 C 16.26 272.67, 16.29 159.33, 16.00 46.00" fill="none" stroke="black" stroke-width="2.0" stroke-linecap="round" stroke-linejoin="round"/>
    <path d="M 26.00 362.00 C 146.00 361.06, 266.00 361.06, 386.00 362.00" fill="none" stroke="black" stroke-width="1.4" stroke-linecap="round"/>
    <path d="M 149.35 270.00 C 148.87 271.50, 148.66 273.03, 148.71 274.60 C 147.74 275.84, 147.12 277.31, 146.15 278.55 C 144.72 279.31, 143.63 280.50, 142.35 281.46 C 140.76 281.59, 139.19 281.77, 137.60 281.84 C 136.05 281.38, 134.47 281.25, 132.86 281.44 C 131.67 280.39, 130.33 279.53, 129.28 278.32 C 128.24 277.10, 127.11 275.98, 126.06 274.78 C 125.82 273.18, 125.21 271.64, 125.21 270.00 C 125.99 268.57, 125.98 266.91, 126.58 265.43 C 127.02 263.87, 128.41 262.81, 128.82 261.22 C 130.02 260.10, 131.60 259.65, 132.98 258.84 C 134.53 258.53, 136.13 258.36, 137.60 257.72 C 138.97 258.53, 140.53 258.83, 142.00 259.39 C 143.26 260.26, 144.60 261.02, 146.04 261.56 C 147.19 262.67, 148.31 263.80, 149.02 265.27 C 149.12 266.85, 148.96 268.44, 149.35 270.00" fill="none" stroke="black" stroke-width="2.0" stroke-linecap="round"/>
    <path d="M 143.68 252.00 C 143.35 252.71, 142.98 253.41, 142.95 254.22 C 142.80 255.01, 142.17 255.56, 141.88 256.28 C 141.09 256.50, 140.47 256.99, 139.89 257.53 C 139.13 257.76, 138.26 257.66, 137.60 258.23 C 136.86 257.90, 136.01 257.98, 135.29 257.57 C 134.80 256.92, 134.12 256.52, 133.36 256.24 C 132.73 255.69, 132.01 255.24, 131.57 254.50 C 131.34 253.68, 131.44 252.82, 131.27 252.00 C 131.67 251.27, 132.12 250.56, 131.99 249.68 C 132.08 248.81, 132.45 248.05, 132.95 247.35 C 133.80 247.25, 134.53 246.75, 135.35 246.58 C 136.10 246.44, 136.81 246.11, 137.60 246.19 C 138.41 245.85, 139.15 246.40, 139.93 246.37 C 140.71 246.68, 141.37 247.25, 142.24 247.36 C 142.90 247.99, 142.97 248.87, 143.24 249.66 C 143.73 250.38, 143.36 251.25, 143.68 252.00" fill="none" stroke="black" stroke-width="2.0" stroke-linecap="round"/>
    <path d="M 126.60 271.00 C 126.42 274.75, 124.38 278.17, 124.60 282.00" fill="none" stroke="black" stroke-width="2.0" stroke-linecap="round"/>
    <path d="M 148.60 271.00 C 148.71 274.77, 150.34 278.26, 150.60 282.00" fill="none" stroke="black" stroke-width="2.0" stroke-linecap="round"/>
    <path d="M 137.60 282.00 C 136.76 296.00, 138.33 310.00, 137.60 324.00" fill="none" stroke="black" stroke-width="2.0" stroke-linecap="round"/>
    <path d="M 137.60 292.00 C 147.05 291.45, 156.23 289.08, 165.60 288.00" fill="none" stroke="black" stroke-width="2.0" stroke-linecap="round"/>
    <path d="M 137.60 292.00 C 131.63 297.43, 126.83 303.91, 121.60 310.00" fill="none" stroke="black" stroke-width="2.0" stroke-linecap="round"/>
    <path d="M 137.60 324.00 C 134.50 333.08, 129.38 341.23, 125.60 350.00" fill="none" stroke="black" stroke-width="2.0" stroke-linecap="round"/>
    <path d="M 137.60 324.00 C 140.81 333.03, 145.09 341.57, 149.60 350.00" fill="none" stroke="black" stroke-width="2.0" stroke-linecap="round"/>
    <path d="M 286.20 270.00 C 285.59 271.43, 285.30 272.94, 285.22 274.48 C 284.39 275.76, 283.84 277.22, 282.68 278.28 C 281.33 279.00, 280.08 279.88, 278.89 280.84 C 277.30 281.12, 276.03 282.27, 274.40 282.44 C 272.79 282.24, 271.28 281.72, 269.91 280.85 C 268.75 279.74, 267.21 279.30, 265.85 278.55 C 264.59 277.50, 264.09 275.82, 262.78 274.81 C 262.94 273.18, 262.38 271.61, 262.32 270.00 C 262.45 268.43, 262.97 266.93, 263.30 265.40 C 264.19 264.13, 264.88 262.71, 266.02 261.62 C 267.21 260.57, 268.45 259.58, 269.65 258.54 C 271.24 258.54, 272.81 258.23, 274.40 258.24 C 275.96 258.58, 277.54 258.58, 279.13 258.59 C 280.41 259.52, 281.79 260.34, 282.77 261.63 C 283.96 262.69, 284.71 264.09, 285.66 265.34 C 285.57 266.92, 285.69 268.48, 286.20 270.00" fill="none" stroke="black" stroke-width="2.0" stroke-linecap="round"/>
    <path d="M 274.40 282.00 C 274.90 296.00, 275.08 310.00, 274.40 324.00" fill="none" stroke="black" stroke-width="2.0" stroke-linecap="round"/>
    <path d="M 274.40 290.00 C 268.29 296.05, 264.44 303.90, 258.40 310.00" fill="none" stroke="black" stroke-width="2.0" stroke-linecap="round"/>
    <path d="M 274.40 290.00 C 280.46 296.08, 285.68 302.84, 290.40 310.00" fill="none" stroke="black" stroke-width="2.0" stroke-linecap="round"/>
    <path d="M 274.40 324.00 C 270.47 332.70, 266.68 341.46, 262.40 350.00" fill="none" stroke="black" stroke-width="2.0" stroke-linecap="round"/>
    <path d="M 274.40 324.00 C 277.73 332.98, 282.22 341.41, 286.40 350.00" fill="none" stroke="black" stroke-width="2.0" stroke-linecap="round"/>
    <path d="M 36.00 60.00 C 86.00 59.65, 136.00 60.02, 186.00 60.00 C 189.84 62.82, 192.73 66.61, 196.00 70.00 C 196.04 76.00, 195.88 82.00, 196.00 88.00 C 192.45 91.12, 189.66 94.99, 186.00 98.00 C 136.00 97.27, 86.00 97.60, 36.00 98.00 C 32.53 94.80, 29.28 91.39, 26.00 88.00 C 25.96 82.00, 25.90 76.00, 26.00 70.00 C 29.65 66.98, 32.39 63.05, 36.00 60.00" fill="#f1e7cc" stroke="black" stroke-width="2.0" stroke-linecap="round" stroke-linejoin="round"/>
    <path d="M 138.60 98.00 C 140.88 156.67, 143.42 215.33, 145.60 274.00 C 147.59 215.32, 149.93 156.65, 152.60 98.00" fill="#f1e7cc" stroke="black" stroke-width="2.0" stroke-linecap="round" stroke-linejoin="round"/>
    <line x1="139.60000000000002" y1="98" x2="151.60000000000002" y2="98" stroke="#f1e7cc" stroke-width="2.4"/>
    <text x="111.0" y="78.0" text-anchor="middle" font-family="Comic Neue, Comic Sans MS, cursive" font-size="13" fill="black"><tspan x="111.0" dy="0">That&#x27;s cool movie!!</tspan></text>
    <path d="M 226.00 60.00 C 276.00 59.56, 326.00 60.56, 376.00 60.00 C 379.39 63.28, 382.24 67.10, 386.00 70.00 C 385.48 97.33, 386.70 124.67, 386.00 152.00 C 382.45 155.12, 379.68 159.01, 376.00 162.00 C 326.00 161.43, 276.00 161.79, 226.00 162.00 C 222.76 158.57, 219.04 155.62, 216.00 152.00 C 215.25 124.67, 215.87 97.33, 216.00 70.00 C 219.23 66.56, 222.40 63.07, 226.00 60.00" fill="#f1e7cc" stroke="black" stroke-width="2.0" stroke-linecap="round" stroke-linejoin="round"/>
    <path d="M 259.40 162.00 C 261.98 199.32, 264.61 236.63, 266.40 274.00 C 268.27 236.64, 271.11 199.34, 273.40 162.00" fill="#f1e7cc" stroke="black" stroke-width="2.0" stroke-linecap="round" stroke-linejoin="round"/>
    <line x1="260.40000000000003" y1="162" x2="272.40000000000003" y2="162" stroke="#f1e7cc" stroke-width="2.4"/>
    <text x="301.0" y="78.0" text-anchor="middle" font-family="Comic Neue, Comic Sans MS, cursive" font-size="13" fill="black"><tspan x="301.0" dy="0">Not karpathy bringing</tspan><tspan x="301.0" dy="16">me here but the</tspan><tspan x="301.0" dy="16">context that llm</tspan><tspan x="301.0" dy="16">behave this way and</tspan><tspan x="301.0" dy="16">have a total.</tspan></text>
  </g>
  <g class="panel">
    <path d="M 410.00 46.00 C 536.67 45.50, 663.33 46.65, 790.00 46.00 C 790.79 159.33, 789.26 272.67, 790.00 386.00 C 663.33 386.31, 536.67 385.83, 410.00 386.00 C 410.68 272.67, 410.63 159.33, 410.00 46.00" fill="none" stroke="black" stroke-width="2.0" stroke-linecap="round" stroke-linejoin="round"/>
    <path d="M 420.00 356.00 C 540.00 356.66, 660.00 356.77, 780.00 356.00" fill="none" stroke="black" stroke-width="1.4" stroke-linecap="round"/>
    <path d="M 424.00 280.00 C 450.67 280.48, 477.33 279.79, 504.00 280.00 C 503.94 298.67, 503.30 317.33, 504.00 336.00 C 477.33 336.33, 450.67 335.62, 424.00 336.00 C 423.50 317.33, 423.46 298.67, 424.00 280.00" fill="none" stroke="black" stroke-width="2.0" stroke-linecap="round" stroke-linejoin="round"/>
    <path d="M 430.00 286.00 C 452.67 286.14, 475.33 285.46, 498.00 286.00 C 498.53 300.67, 497.48 315.33, 498.00 330.00 C 475.33 330.01, 452.67 329.50, 430.00 330.00 C 430.31 315.33, 429.89 300.67, 430.00 286.00" fill="none" stroke="black" stroke-width="2.0" stroke-linecap="round" stroke-linejoin="round"/>
    <path d="M 450.00 336.00 C 459.33 335.05, 468.67 335.35, 478.00 336.00" fill="none" stroke="black" stroke-width="1.4" stroke-linecap="round"/>
    <path d="M 464.00 336.00 C 464.90 338.67, 464.30 341.33, 464.00 344.00" fill="none" stroke="black" stroke-width="1.4" stroke-linecap="round"/>
    <path d="M 450.00 346.00 C 459.33 346.37, 468.67 345.62, 478.00 346.00" fill="none" stroke="black" stroke-width="1.4" stroke-linecap="round"/>
    <path d="M 436.00 322.00 C 438.66 313.08, 442.51 304.61, 446.00 296.00 C 451.23 305.05, 454.79 314.94, 460.00 324.00 C 464.16 315.06, 469.80 306.92, 474.00 298.00 C 479.79 305.00, 484.61 312.71, 490.00 320.00" fill="none" stroke="black" stroke-width="2.0" stroke-linecap="round" stroke-linejoin="round"/>
    <path d="M 504.00 300.00 C 554.67 300.43, 605.33 300.17, 656.00 300.00 C 656.14 310.00, 655.49 320.00, 656.00 330.00 C 605.33 329.66, 554.67 330.00, 504.00 330.00 C 503.46 320.00, 503.60 310.00, 504.00 300.00" fill="none" stroke="black" stroke-width="2.0" stroke-linecap="round" stroke-linejoin="round"/>
    <path d="M 504.00 330.00 C 554.67 330.71, 605.33 330.58, 656.00 330.00 C 655.37 342.00, 656.24 354.00, 656.00 366.00 C 605.33 366.50, 554.67 365.51, 504.00 366.00 C 503.46 354.00, 503.78 342.00, 504.00 330.00" fill="none" stroke="black" stroke-width="2.0" stroke-linecap="round" stroke-linejoin="round"/>
    <path d="M 496.00 312.00 C 498.67 312.65, 501.33 311.39, 504.00 312.00 C 504.41 330.00, 503.68 348.00, 504.00 366.00 C 501.33 366.00, 498.67 366.08, 496.00 366.00 C 495.80 348.00, 495.97 330.00, 496.00 312.00" fill="none" stroke="black" stroke-width="2.0" stroke-linecap="round" stroke-linejoin="round"/>
    <path d="M 656.00 312.00 C 658.67 312.79, 661.33 311.20, 664.00 312.00 C 664.78 330.00, 664.42 348.00, 664.00 366.00 C 661.33 366.30, 658.67 366.70, 656.00 366.00 C 655.57 348.00, 655.23 330.00, 656.00 312.00" fill="none" stroke="black" stroke-width="2.0" stroke-linecap="round" stroke-linejoin="round"/>
    <path d="M 580.00 330.00 C 579.87 342.00, 579.52 354.00, 580.00 366.00" fill="none" stroke="black" stroke-width="1.4" stroke-linecap="round"/>
    <path d="M 551.74 300.00 C 551.45 301.55, 551.14 303.10, 551.32 304.69 C 550.38 305.98, 549.82 307.52, 548.65 308.65 C 547.31 309.48, 545.86 310.05, 544.41 310.64 C 542.99 311.20, 541.50 311.37, 540.00 311.46 C 538.41 311.49, 536.81 311.40, 535.22 311.55 C 533.78 310.74, 532.63 309.65, 531.72 308.28 C 531.17 306.84, 530.06 305.75, 529.35 304.41 C 529.31 302.88, 528.43 301.53, 528.42 300.00 C 528.29 298.40, 528.70 296.79, 528.39 295.19 C 529.49 293.98, 530.47 292.68, 531.21 291.21 C 532.51 290.24, 534.15 290.01, 535.54 289.22 C 536.93 288.46, 538.56 288.60, 540.00 288.03 C 541.60 287.98, 543.08 288.48, 544.56 289.00 C 545.98 289.69, 547.11 290.86, 548.65 291.35 C 549.19 292.83, 549.99 294.18, 550.79 295.53 C 551.21 297.00, 551.33 298.53, 551.74 300.00" fill="none" stroke="black" stroke-width="2.0" stroke-linecap="round"/>
    <path d="M 540.00 312.00 C 539.90 321.33, 540.38 330.67, 540.00 340.00" fill="none" stroke="black" stroke-width="2.0" stroke-linecap="round"/>
    <path d="M 540.00 326.00 C 534.82 330.21, 529.74 334.55, 524.00 338.00" fill="none" stroke="black" stroke-width="2.0" stroke-linecap="round"/>
    <path d="M 540.00 326.00 C 545.59 329.65, 551.24 333.24, 556.00 338.00" fill="none" stroke="black" stroke-width="2.0" stroke-linecap="round"/>
    <path d="M 540.00 340.00 C 548.00 339.98, 556.00 339.43, 564.00 340.00" fill="none" stroke="black" stroke-width="2.0" stroke-linecap="round"/>
    <path d="M 564.00 340.00 C 564.63 346.00, 564.61 352.08, 566.00 358.00" fill="none" stroke="black" stroke-width="2.0" stroke-linecap="round"/>
    <path d="M 540.00 340.00 C 538.24 346.40, 535.15 352.22, 532.00 358.00" fill="none" stroke="black" stroke-width="2.0" stroke-linecap="round"/>
    <path d="M 632.60 300.00 C 632.32 301.63, 631.28 302.93, 630.72 304.44 C 629.97 305.77, 629.24 307.11, 628.36 308.36 C 626.92 308.95, 625.66 309.81, 624.47 310.78 C 622.93 311.21, 621.42 311.69, 620.00 312.41 C 618.37 312.32, 616.84 311.64, 615.20 311.58 C 613.70 310.89, 612.65 309.58, 611.26 308.74 C 610.17 307.53, 609.93 305.83, 608.87 304.61 C 608.80 303.03, 608.55 301.49, 607.99 300.00 C 608.34 298.50, 608.85 297.05, 609.45 295.63 C 609.82 294.10, 611.17 293.05, 611.51 291.51 C 612.79 290.64, 614.15 289.88, 615.48 289.08 C 616.93 288.49, 618.52 288.81, 620.00 288.44 C 621.52 288.49, 622.96 288.90, 624.38 289.42 C 625.73 290.10, 626.86 291.15, 628.25 291.75 C 629.14 293.04, 630.54 293.91, 631.30 295.32 C 631.97 296.81, 632.10 298.46, 632.60 300.00" fill="none" stroke="black" stroke-width="2.0" stroke-linecap="round"/>
    <path d="M 626.18 282.00 C 626.14 282.85, 625.54 283.44, 625.22 284.16 C 624.93 284.85, 624.40 285.37, 623.92 285.92 C 623.49 286.57, 622.52 286.47, 622.15 287.19 C 621.45 287.44, 620.75 287.68, 620.00 287.42 C 619.35 286.98, 618.62 287.02, 617.89 287.09 C 617.19 286.84, 616.51 286.55, 615.91 286.09 C 615.37 285.53, 614.95 284.89, 614.45 284.30 C 614.81 283.55, 614.17 282.74, 614.59 282.00 C 614.50 281.16, 614.56 280.28, 614.04 279.53 C 614.87 279.26, 615.62 278.87, 616.16 278.16 C 616.40 277.33, 617.24 276.97, 617.62 276.25 C 618.42 276.30, 619.20 276.03, 620.00 276.10 C 620.73 276.52, 621.59 275.99, 622.31 276.41 C 622.64 277.22, 623.63 277.25, 624.07 277.93 C 624.56 278.60, 625.06 279.27, 625.90 279.56 C 626.07 280.36, 626.20 281.17, 626.18 282.00" fill="none" stroke="black" stroke-width="2.0" stroke-linecap="round"/>
    <path d="M 609.00 301.00 C 608.65 304.72, 608.11 308.41, 607.00 312.00" fill="none" stroke="black" stroke-width="2.0" stroke-linecap="round"/>
    <path d="M 631.00 301.00 C 630.74 304.84, 631.41 308.50, 633.00 312.00" fill="none" stroke="black" stroke-width="2.0" stroke-linecap="round"/>
    <path d="M 620.00 312.00 C 619.87 321.33, 619.05 330.67, 620.00 340.00" fill="none" stroke="black" stroke-width="2.0" stroke-linecap="round"/>
    <path d="M 620.00 326.00 C 614.45 329.71, 609.64 334.41, 604.00 338.00" fill="none" stroke="black" stroke-width="2.0" stroke-linecap="round"/>
    <path d="M 620.00 326.00 C 625.01 330.44, 630.88 333.71, 636.00 338.00" fill="none" stroke="black" stroke-width="2.0" stroke-linecap="round"/>
    <path d="M 620.00 340.00 C 628.00 340.26, 636.00 340.72, 644.00 340.00" fill="none" stroke="black" stroke-width="2.0" stroke-linecap="round"/>
    <path d="M 644.00 340.00 C 644.50 346.02, 644.51 352.09, 646.00 358.00" fill="none" stroke="black" stroke-width="2.0" stroke-linecap="round"/>
    <path d="M 620.00 340.00 C 617.86 346.23, 614.13 351.76, 612.00 358.00" fill="none" stroke="black" stroke-width="2.0" stroke-linecap="round"/>
    <path d="M 430.00 60.00 C 480.00 60.34, 530.00 60.17, 580.00 60.00 C 583.14 63.52, 587.01 66.32, 590.00 70.00 C 590.13 81.33, 590.42 92.67, 590.00 104.00 C 586.82 107.48, 583.56 110.90, 580.00 114.00 C 530.00 114.31, 480.00 114.57, 430.00 114.00 C 426.14 111.19, 422.96 107.71, 420.00 104.00 C 419.45 92.67, 419.34 81.33, 420.00 70.00 C 423.54 66.88, 427.21 63.88, 430.00 60.00" fill="#f1e7cc" stroke="black" stroke-width="2.0" stroke-linecap="round" stroke-linejoin="round"/>
    <path d="M 525.00 114.00 C 527.48 177.33, 529.02 240.69, 532.00 304.00 C 534.21 240.66, 535.88 177.30, 539.00 114.00" fill="#f1e7cc" stroke="black" stroke-width="2.0" stroke-linecap="round" stroke-linejoin="round"/>
    <line x1="526.0" y1="114" x2="538.0" y2="114" stroke="#f1e7cc" stroke-width="2.4"/>
    <text x="505.0" y="78.0" text-anchor="middle" font-family="Comic Neue, Comic Sans MS, cursive" font-size="13" fill="black"><tspan x="505.0" dy="0">Reset. Every. Fucking.</tspan><tspan x="505.0" dy="16">Time. Is the irony.</tspan></text>
    <path d="M 620.00 60.00 C 670.00 60.66, 720.00 60.47, 770.00 60.00 C 773.42 63.25, 776.67 66.66, 780.00 70.00 C 780.05 97.33, 780.75 124.67, 780.00 152.00 C 776.57 155.24, 772.92 158.25, 770.00 162.00 C 720.00 162.02, 670.00 162.46, 620.00 162.00 C 616.34 158.99, 613.73 154.94, 610.00 152.00 C 609.47 124.67, 610.11 97.33, 610.00 70.00 C 613.07 66.41, 617.13 63.80, 620.00 60.00" fill="#f1e7cc" stroke="black" stroke-width="2.0" stroke-linecap="round" stroke-linejoin="round"/>
    <path d="M 615.00 162.00 C 614.76 209.35, 613.11 256.67, 612.00 304.00 C 618.32 256.75, 623.62 209.37, 629.00 162.00" fill="#f1e7cc" stroke="black" stroke-width="2.0" stroke-linecap="round" stroke-linejoin="round"/>
    <line x1="616" y1="162" x2="628" y2="162" stroke="#f1e7cc" stroke-width="2.4"/>
    <text x="695.0" y="78.0" text-anchor="middle" font-family="Comic Neue, Comic Sans MS, cursive" font-size="13" fill="black"><tspan x="695.0" dy="0">Wow did I just</tspan><tspan x="695.0" dy="16">understand llms</tspan><tspan x="695.0" dy="16">psychology a lil</tspan><tspan x="695.0" dy="16">better that too with</tspan><tspan x="695.0" dy="16">Adam Sandler init.</tspan></text>
  </g>
  <g class="panel">
    <path d="M 804.00 46.00 C 930.67 46.10, 1057.33 45.64, 1184.00 46.00 C 1183.66 159.33, 1184.73 272.67, 1184.00 386.00 C 1057.33 386.76, 930.67 385.81, 804.00 386.00 C 804.45 272.67, 803.55 159.33, 804.00 46.00" fill="none" stroke="black" stroke-width="2.0" stroke-linecap="round" stroke-linejoin="round"/>
    <path d="M 814.00 362.00 C 934.00 361.94, 1054.00 361.40, 1174.00 362.00" fill="none" stroke="black" stroke-width="1.4" stroke-linecap="round"/>
    <path d="M 967.58 270.00 C 967.70 271.60, 967.21 273.19, 967.56 274.79 C 966.77 276.22, 965.55 277.28, 964.44 278.44 C 963.25 279.45, 961.80 280.08, 960.56 281.02 C 959.04 281.10, 957.53 281.39, 956.00 281.45 C 954.48 281.03, 952.93 280.97, 951.37 281.17 C 950.13 280.25, 948.92 279.27, 947.79 278.21 C 946.65 277.14, 945.81 275.82, 944.82 274.63 C 944.21 273.14, 944.54 271.52, 944.15 270.00 C 944.60 268.50, 944.67 266.94, 944.93 265.41 C 945.73 264.08, 947.09 263.18, 947.72 261.72 C 949.07 260.94, 950.31 260.01, 951.41 258.91 C 952.95 258.78, 954.42 258.17, 956.00 258.34 C 957.55 258.34, 958.87 259.31, 960.40 259.37 C 961.49 260.42, 963.02 260.83, 964.07 261.93 C 964.94 263.21, 965.88 264.44, 967.13 265.39 C 967.62 266.89, 967.59 268.45, 967.58 270.00" fill="none" stroke="black" stroke-width="2.0" stroke-linecap="round"/>
    <path d="M 962.23 252.00 C 961.60 252.58, 961.80 253.56, 961.19 254.15 C 960.95 254.97, 960.65 255.77, 960.65 256.65 C 959.74 256.53, 958.94 256.80, 958.19 257.30 C 957.47 257.52, 956.72 257.65, 956.00 257.88 C 955.14 257.67, 954.31 257.91, 953.48 258.09 C 952.98 257.39, 952.71 256.53, 952.11 255.89 C 951.62 255.26, 950.98 254.80, 950.34 254.35 C 949.93 253.62, 950.20 252.72, 949.75 252.00 C 950.03 251.24, 950.17 250.45, 950.42 249.69 C 950.90 249.08, 951.26 248.37, 951.95 247.95 C 952.57 247.48, 952.89 246.67, 953.68 246.40 C 954.45 246.57, 955.23 246.36, 956.00 246.41 C 956.78 246.66, 957.55 246.25, 958.33 246.36 C 959.12 246.62, 959.77 247.07, 960.27 247.73 C 960.60 248.59, 961.40 248.97, 962.06 249.49 C 962.25 250.32, 962.29 251.16, 962.23 252.00" fill="none" stroke="black" stroke-width="2.0" stroke-linecap="round"/>
    <path d="M 945.00 271.00 C 943.83 274.58, 944.30 278.45, 943.00 282.00" fill="none" stroke="black" stroke-width="2.0" stroke-linecap="round"/>
    <path d="M 967.00 271.00 C 966.89 274.81, 967.72 278.44, 969.00 282.00" fill="none" stroke="black" stroke-width="2.0" stroke-linecap="round"/>
    <path d="M 956.00 282.00 C 955.68 296.00, 955.95 310.00, 956.00 324.00" fill="none" stroke="black" stroke-width="2.0" stroke-linecap="round"/>
    <path d="M 956.00 292.00 C 960.32 286.99, 965.03 282.36, 970.00 278.00" fill="none" stroke="black" stroke-width="2.0" stroke-linecap="round"/>
    <path d="M 970.00 278.00 C 967.46 276.83, 964.90 275.73, 962.00 276.00" fill="none" stroke="black" stroke-width="2.0" stroke-linecap="round"/>
    <path d="M 956.00 292.00 C 950.67 298.00, 944.70 303.43, 940.00 310.00" fill="none" stroke="black" stroke-width="2.0" stroke-linecap="round"/>
    <path d="M 956.00 324.00 C 952.32 332.82, 948.56 341.59, 944.00 350.00" fill="none" stroke="black" stroke-width="2.0" stroke-linecap="round"/>
    <path d="M 956.00 324.00 C 960.39 332.49, 964.32 341.19, 968.00 350.00" fill="none" stroke="black" stroke-width="2.0" stroke-linecap="round"/>
    <path d="M 1178.00 87.00 C 1172.58 91.13, 1167.73 95.98, 1161.90 99.58 C 1154.12 105.19, 1145.49 109.37, 1137.34 114.36 C 1122.46 114.63, 1107.58 115.33, 1092.70 115.27 C 1077.18 117.73, 1061.51 118.90, 1045.97 121.12 C 1032.59 117.96, 1019.69 113.16, 1006.40 109.67 C 995.10 107.47, 984.05 104.15, 972.70 102.19 C 970.52 97.31, 970.28 91.84, 968.00 87.00 C 970.15 82.12, 971.77 77.07, 972.70 71.81 C 984.07 69.92, 995.30 67.43, 1006.40 64.33 C 1019.75 61.06, 1032.69 56.37, 1045.97 52.88 C 1061.52 55.01, 1077.04 57.42, 1092.70 58.73 C 1107.57 59.34, 1122.47 58.73, 1137.34 59.64 C 1145.77 64.16, 1153.74 69.44, 1161.90 74.42 C 1167.05 78.88, 1172.91 82.46, 1178.00 87.00" fill="#f1e7cc" stroke="black" stroke-width="2.0" stroke-linecap="round" stroke-linejoin="round"/>
    <path d="M 1017.15 178.24 C 1016.62 178.55, 1016.41 179.12, 1016.08 179.60 C 1015.98 180.11, 1015.31 180.15, 1015.22 180.66 C 1015.00 181.15, 1014.93 181.74, 1014.37 182.03 C 1013.86 182.18, 1013.35 182.42, 1012.80 182.20 C 1012.27 182.21, 1011.78 181.72, 1011.22 182.06 C 1010.63 181.87, 1010.76 181.05, 1010.17 180.87 C 1010.01 180.27, 1009.38 180.18, 1009.00 179.81 C 1009.44 179.34, 1009.34 178.79, 1009.23 178.24 C 1009.28 177.57, 1008.65 177.14, 1008.61 176.50 C 1008.78 175.91, 1009.29 175.54, 1009.60 175.04 C 1009.94 174.45, 1010.58 174.41, 1011.14 174.23 C 1011.74 174.27, 1012.23 174.64, 1012.80 174.77 C 1013.35 174.93, 1013.82 174.57, 1014.34 174.52 C 1014.65 175.05, 1015.21 175.14, 1015.72 175.32 C 1015.94 175.81, 1015.95 176.36, 1016.09 176.88 C 1016.70 177.14, 1016.87 177.73, 1017.15 178.24" fill="#f1e7cc" stroke="black" stroke-width="2.0" stroke-linecap="round"/>
    <path d="M 995.28 201.60 C 994.92 201.87, 994.64 202.21, 994.42 202.60 C 994.55 203.06, 994.14 203.25, 993.95 203.55 C 993.72 203.86, 993.56 204.26, 993.05 204.13 C 992.79 204.49, 992.24 204.41, 992.00 204.81 C 991.55 205.06, 991.11 205.05, 990.68 204.79 C 990.23 204.63, 989.81 204.44, 989.67 203.93 C 989.24 203.71, 989.23 203.08, 988.69 202.97 C 988.78 202.49, 988.69 201.96, 989.14 201.60 C 988.82 201.20, 989.26 200.81, 989.15 200.42 C 989.16 199.93, 989.77 199.88, 989.85 199.45 C 990.35 199.72, 990.64 199.37, 990.97 199.10 C 991.30 199.33, 991.65 199.21, 992.00 199.14 C 992.35 198.68, 992.79 198.37, 993.37 198.29 C 993.62 198.68, 994.13 198.85, 994.27 199.33 C 994.27 199.83, 994.54 200.16, 994.97 200.37 C 995.22 200.74, 995.45 201.12, 995.28 201.60" fill="#f1e7cc" stroke="black" stroke-width="2.0" stroke-linecap="round"/>
    <path d="M 978.23 219.12 C 978.58 219.36, 978.27 219.97, 978.79 220.11 C 978.38 220.06, 978.19 220.49, 977.83 220.55 C 977.63 220.73, 977.31 220.74, 977.19 221.02 C 976.98 221.43, 976.71 221.41, 976.40 221.13 C 976.26 220.87, 976.12 220.62, 975.78 220.62 C 975.50 220.76, 975.23 220.81, 975.02 220.50 C 975.10 220.23, 975.34 219.96, 975.02 219.69 C 974.73 219.59, 974.50 219.41, 974.37 219.12 C 974.40 218.73, 974.04 218.49, 974.01 218.13 C 974.43 217.89, 974.86 217.75, 975.32 218.04 C 975.63 218.02, 975.52 217.64, 975.74 217.54 C 975.98 217.45, 976.21 217.46, 976.40 217.65 C 976.64 217.39, 977.08 217.43, 977.25 217.07 C 977.45 217.49, 977.84 217.31, 978.16 217.36 C 978.31 217.65, 978.22 218.01, 978.43 218.28 C 978.36 218.56, 978.34 218.85, 978.23 219.12" fill="#f1e7cc" stroke="black" stroke-width="2.0" stroke-linecap="round"/>
    <text x="1070.0" y="78.0" text-anchor="middle" font-family="Comic Neue, Comic Sans MS, cursive" font-size="13" fill="black"><tspan x="1070.0" dy="0">Reset. Every. Fucking.</tspan><tspan x="1070.0" dy="16">Time. Is the irony.</tspan></text>
    
  </g>
</svg>
