<?xml version="1.0" encoding="UTF-8"?>
<svg xmlns="http://www.w3.org/2000/svg" viewBox="0 0 952 398" width="952" height="398" role="img" aria-label="#015 — 50 First Dates (2004)">
  <rect width="100%" height="100%" fill="white"/>
  <text x="476.0" y="32" text-anchor="middle" font-family="Comic Neue, Comic Sans MS, cursive" font-size="15" font-weight="700" fill="black">#015 — 50 First Dates (2004) ★★★</text>
    <g class="panel">
    <rect x="14" y="44" width="300" height="340" fill="white" stroke="black" stroke-width="2"/>
    <rect x="29" y="58" width="270" height="38" rx="12" ry="12" fill="white" stroke="black" stroke-width="1.6"/>
    <polygon points="156.0,95 172.0,95 161.87929901603172,240" fill="white" stroke="black" stroke-width="1.6"/>
    <line x1="157.0" y1="96" x2="171.0" y2="96" stroke="white" stroke-width="2.2"/>
    <text x="164.0" y="76" text-anchor="middle" font-family="Comic Neue, Comic Sans MS, cursive" font-size="13" fill="black"><tspan x="164.0" dy="0">That&#x27;s cool movie!!</tspan></text>
    <circle cx="161.87929901603172" cy="254" r="14" fill="none" stroke="black" stroke-width="2.2"/>
    <line x1="161.87929901603172" y1="268" x2="161.87929901603172" y2="308" stroke="black" stroke-width="2.2"/>
    <line x1="161.87929901603172" y1="278" x2="139.87929901603172" y2="264" stroke="black" stroke-width="2.2"/>
    <line x1="139.87929901603172" y1="264" x2="135.87929901603172" y2="282" stroke="black" stroke-width="2.2"/>
    <line x1="161.87929901603172" y1="278" x2="183.87929901603172" y2="264" stroke="black" stroke-width="2.2"/>
    <line x1="183.87929901603172" y1="264" x2="187.87929901603172" y2="282" stroke="black" stroke-width="2.2"/>
    <line x1="161.87929901603172" y1="308" x2="147.87929901603172" y2="336" stroke="black" stroke-width="2.2"/>
    <line x1="161.87929901603172" y1="308" x2="175.87929901603172" y2="336" stroke="black" stroke-width="2.2"/>
    <line x1="34" y1="350" x2="294" y2="350" stroke="black" stroke-width="1.5"/>
</g>
  <g class="panel">
    <rect x="326" y="44" width="300" height="340" fill="white" stroke="black" stroke-width="2"/>
    <rect x="341" y="58" width="270" height="102" rx="12" ry="12" fill="white" stroke="black" stroke-width="1.6"/>
    <polygon points="468.0,159 484.0,159 485.1791932902662,240" fill="white" stroke="black" stroke-width="1.6"/>
    <line x1="469.0" y1="160" x2="483.0" y2="160" stroke="white" stroke-width="2.2"/>
    <text x="476.0" y="76" text-anchor="middle" font-family="Comic Neue, Comic Sans MS, cursive" font-size="13" fill="black"><tspan x="476.0" dy="0">Not karpathy bringing</tspan><tspan x="476.0" dy="16">me here but the</tspan><tspan x="476.0" dy="16">context that llm</tspan><tspan x="476.0" dy="16">behave this way and</tspan><tspan x="476.0" dy="16">have a total.</tspan></text>
    <circle cx="485.1791932902662" cy="254" r="14" fill="none" stroke="black" stroke-width="2.2"/>
    <line x1="485.1791932902662" y1="268" x2="485.1791932902662" y2="308" stroke="black" stroke-width="2.2"/>
    <line x1="485.1791932902662" y1="278" x2="463.1791932902662" y2="264" stroke="black" stroke-width="2.2"/>
    <line x1="463.1791932902662" y1="264" x2="459.1791932902662" y2="282" stroke="black" stroke-width="2.2"/>
    <line x1="485.1791932902662" y1="278" x2="507.1791932902662" y2="264" stroke="black" stroke-width="2.2"/>
    <line x1="507.1791932902662" y1="264" x2="511.1791932902662" y2="282" stroke="black" stroke-width="2.2"/>
    <line x1="485.1791932902662" y1="308" x2="471.1791932902662" y2="336" stroke="black" stroke-width="2.2"/>
    <line x1="485.1791932902662" y1="308" x2="499.1791932902662" y2="336" stroke="black" stroke-width="2.2"/>
    <line x1="346" y1="350" x2="606" y2="350" stroke="black" stroke-width="1.5"/>
</g>
  <g class="panel">
    <rect x="638" y="44" width="300" height="340" fill="white" stroke="black" stroke-width="2"/>
    <rect x="653" y="58" width="270" height="54" rx="12" ry="12" fill="white" stroke="black" stroke-width="1.6"/>
    <polygon points="780.0,111 796.0,111 761.8687636020935,240" fill="white" stroke="black" stroke-width="1.6"/>
    <line x1="781.0" y1="112" x2="795.0" y2="112" stroke="white" stroke-width="2.2"/>
    <text x="788.0" y="76" text-anchor="middle" font-family="Comic Neue, Comic Sans MS, cursive" font-size="13" fill="black"><tspan x="788.0" dy="0">Reset. Every. Fucking.</tspan><tspan x="788.0" dy="16">Time. Is the irony.</tspan></text>
    <circle cx="761.8687636020935" cy="254" r="14" fill="none" stroke="black" stroke-width="2.2"/>
    <line x1="761.8687636020935" y1="268" x2="761.8687636020935" y2="308" stroke="black" stroke-width="2.2"/>
    <line x1="761.8687636020935" y1="274" x2="739.8687636020935" y2="250" stroke="black" stroke-width="2.2"/>
    <line x1="761.8687636020935" y1="274" x2="783.8687636020935" y2="250" stroke="black" stroke-width="2.2"/>
    <line x1="761.8687636020935" y1="308" x2="747.8687636020935" y2="336" stroke="black" stroke-width="2.2"/>
    <line x1="761.8687636020935" y1="308" x2="775.8687636020935" y2="336" stroke="black" stroke-width="2.2"/>
    <line x1="658" y1="350" x2="918" y2="350" stroke="black" stroke-width="1.5"/>
</g>
</svg>
