<?xml version="1.0" encoding="UTF-8"?>
<svg xmlns="http://www.w3.org/2000/svg" viewBox="0 0 806 402" width="806" height="402" role="img" aria-label="#016 — The Terminal (2004)">
  <defs><filter id="fibers" x="0%" y="0%" width="100%" height="100%"><feTurbulence type="fractalNoise" baseFrequency="0.04 0.7" numOctaves="2" stitchTiles="stitch" seed="5"/><feColorMatrix values="0 0 0 0 0.38  0 0 0 0 0.26  0 0 0 0 0.13  0 0 0 -0.7 0.28"/></filter><filter id="grain" x="0%" y="0%" width="100%" height="100%"><feTurbulence type="fractalNoise" baseFrequency="0.65" numOctaves="3" stitchTiles="stitch" seed="8"/><feColorMatrix values="0 0 0 0 0.42  0 0 0 0 0.30  0 0 0 0 0.16  0 0 0 -1.1 0.5"/></filter></defs>
  <rect width="100%" height="100%" fill="#e3d3a2"/>
  <rect width="100%" height="100%" filter="url(#fibers)" opacity="0.55"/>
  <rect width="100%" height="100%" filter="url(#grain)" opacity="0.85"/>
  <text x="403.0" y="34" text-anchor="middle" font-family="Comic Neue, Comic Sans MS, cursive" font-size="16" font-weight="700" fill="black">#016 — The Terminal (2004) ★★★★★</text>
  <g class="panel">
    <path d="M 16.00 46.00 C 142.67 46.70, 269.33 46.38, 396.00 46.00 C 396.26 159.33, 396.43 272.67, 396.00 386.00 C 269.33 385.29, 142.67 385.87, 16.00 386.00 C 15.65 272.67, 16.51 159.33, 16.00 46.00" fill="none" stroke="black" stroke-width="2.0" stroke-linecap="round" stroke-linejoin="round"/>
    <path d="M 26.00 362.00 C 146.00 361.08, 266.00 361.52, 386.00 362.00" fill="none" stroke="black" stroke-width="1.4" stroke-linecap="round"/>
    <path d="M 84.40 314.00 C 104.40 313.27, 124.40 314.43, 144.40 314.00 C 144.43 324.67, 145.13 335.33, 144.40 346.00 C 124.40 345.94, 104.40 345.69, 84.40 346.00 C 84.33 335.33, 84.79 324.67, 84.40 314.00" fill="none" stroke="black" stroke-width="2.0" stroke-linecap="round" stroke-linejoin="round"/>
    <path d="M 84.40 302.00 C 104.40 301.63, 124.40 302.34, 144.40 302.00 C 144.57 306.00, 144.77 310.00, 144.40 314.00 C 124.40 314.37, 104.40 313.33, 84.40 314.00 C 84.24 310.00, 83.63 306.00, 84.40 302.00" fill="#e3d3a2" stroke="black" stroke-width="2.0" stroke-linecap="round" stroke-linejoin="round"/>
    <path d="M 88.40 314.00 C 92.91 310.51, 96.25 305.85, 100.40 302.00 C 103.07 301.60, 105.73 301.45, 108.40 302.00 C 104.29 305.89, 100.96 310.56, 96.40 314.00 C 93.73 314.63, 91.07 313.34, 88.40 314.00" fill="black" stroke="black" stroke-width="2.0" stroke-linecap="round" stroke-linejoin="round"/>
    <path d="M 112.40 314.00 C 116.84 310.44, 120.03 305.63, 124.40 302.00 C 127.07 302.39, 129.73 302.23, 132.40 302.00 C 128.78 306.38, 124.23 309.83, 120.40 314.00 C 117.73 314.12, 115.07 314.33, 112.40 314.00" fill="black" stroke="black" stroke-width="2.0" stroke-linecap="round" stroke-linejoin="round"/>
    <path d="M 278.32 270.00 C 277.87 271.51, 278.39 273.10, 277.92 274.61 C 276.94 275.83, 276.25 277.25, 275.30 278.50 C 274.20 279.68, 272.90 280.61, 271.56 281.49 C 269.99 281.89, 268.34 281.79, 266.80 282.31 C 265.34 281.67, 263.66 281.79, 262.25 280.97 C 260.85 280.30, 259.66 279.33, 258.54 278.26 C 257.61 276.98, 256.70 275.68, 255.41 274.72 C 255.11 273.16, 254.97 271.59, 255.03 270.00 C 255.62 268.52, 255.23 266.90, 255.70 265.40 C 256.41 263.99, 257.28 262.68, 258.20 261.40 C 259.54 260.58, 260.99 259.93, 262.20 258.90 C 263.70 258.31, 265.25 257.87, 266.80 257.46 C 268.37 257.85, 270.00 258.01, 271.53 258.58 C 272.66 259.69, 273.64 260.95, 275.01 261.79 C 276.05 262.92, 276.77 264.27, 277.68 265.49 C 277.65 267.03, 277.82 268.54, 278.32 270.00" fill="none" stroke="black" stroke-width="2.0" stroke-linecap="round"/>
    <path d="M 272.33 252.00 C 272.68 252.77, 272.57 253.51, 272.20 254.24 C 271.71 254.88, 271.84 255.82, 271.18 256.38 C 270.48 256.76, 269.82 257.21, 269.00 257.32 C 268.44 258.03, 267.42 257.78, 266.80 258.37 C 266.12 257.90, 265.27 257.81, 264.58 257.37 C 263.78 257.17, 263.15 256.49, 262.26 256.54 C 261.46 256.08, 261.59 254.95, 260.78 254.49 C 261.05 253.68, 261.08 252.84, 260.99 252.00 C 261.52 251.39, 261.65 250.65, 261.66 249.87 C 261.75 249.06, 262.29 248.55, 262.88 248.08 C 263.32 247.45, 264.05 247.20, 264.62 246.75 C 265.46 246.79, 266.08 246.25, 266.80 245.96 C 267.55 246.17, 268.26 246.48, 268.89 246.96 C 269.55 247.40, 270.29 247.60, 271.06 247.74 C 271.36 248.53, 272.14 248.92, 272.57 249.61 C 272.75 250.43, 272.44 251.21, 272.33 252.00" fill="none" stroke="black" stroke-width="2.0" stroke-linecap="round"/>
    <path d="M 255.80 271.00 C 256.03 274.83, 254.65 278.37, 253.80 282.00" fill="none" stroke="black" stroke-width="2.0" stroke-linecap="round"/>
    <path d="M 277.80 271.00 C 277.80 274.79, 278.20 278.50, 279.80 282.00" fill="none" stroke="black" stroke-width="2.0" stroke-linecap="round"/>
    <path d="M 266.80 282.00 C 266.44 296.00, 266.32 310.00, 266.80 324.00" fill="none" stroke="black" stroke-width="2.0" stroke-linecap="round"/>
    <path d="M 266.80 292.00 C 257.44 290.86, 248.10 289.59, 238.80 288.00" fill="none" stroke="black" stroke-width="2.0" stroke-linecap="round"/>
    <path d="M 266.80 292.00 C 271.84 298.26, 277.08 304.34, 282.80 310.00" fill="none" stroke="black" stroke-width="2.0" stroke-linecap="round"/>
    <path d="M 266.80 324.00 C 262.74 332.64, 258.36 341.13, 254.80 350.00" fill="none" stroke="black" stroke-width="2.0" stroke-linecap="round"/>
    <path d="M 266.80 324.00 C 270.50 332.81, 274.85 341.31, 278.80 350.00" fill="none" stroke="black" stroke-width="2.0" stroke-linecap="round"/>
    <path d="M 226.00 60.00 C 276.00 59.36, 326.00 60.44, 376.00 60.00 C 379.62 63.05, 382.22 67.11, 386.00 70.00 C 385.31 97.33, 386.58 124.67, 386.00 152.00 C 382.57 155.24, 378.95 158.29, 376.00 162.00 C 326.00 162.67, 276.00 162.48, 226.00 162.00 C 223.17 158.17, 219.75 154.92, 216.00 152.00 C 215.83 124.67, 215.66 97.33, 216.00 70.00 C 219.57 66.90, 222.63 63.29, 226.00 60.00" fill="#e3d3a2" stroke="black" stroke-width="2.0" stroke-linecap="round" stroke-linejoin="round"/>
    <path d="M 251.80 162.00 C 253.90 199.35, 256.45 236.67, 258.80 274.00 C 260.81 236.65, 263.73 199.35, 265.80 162.00" fill="#e3d3a2" stroke="black" stroke-width="2.0" stroke-linecap="round" stroke-linejoin="round"/>
    <line x1="252.8" y1="162" x2="264.8" y2="162" stroke="#e3d3a2" stroke-width="2.4"/>
    <text x="301.0" y="78.0" text-anchor="middle" font-family="Comic Neue, Comic Sans MS, cursive" font-size="13" fill="black"><tspan x="301.0" dy="0">I might have shed a</tspan><tspan x="301.0" dy="16">tear and I saw Steven</tspan><tspan x="301.0" dy="16">Spielberg on screen</tspan><tspan x="301.0" dy="16">Well that explains it</tspan><tspan x="301.0" dy="16">I still can cry the</tspan></text>
  </g>
  <g class="panel">
    <path d="M 410.00 46.00 C 536.67 45.59, 663.33 46.13, 790.00 46.00 C 790.67 159.33, 790.48 272.67, 790.00 386.00 C 663.33 385.27, 536.67 385.35, 410.00 386.00 C 410.55 272.67, 409.92 159.33, 410.00 46.00" fill="none" stroke="black" stroke-width="2.0" stroke-linecap="round" stroke-linejoin="round"/>
    <path d="M 420.00 362.00 C 540.00 362.47, 660.00 361.30, 780.00 362.00" fill="none" stroke="black" stroke-width="1.4" stroke-linecap="round"/>
    <path d="M 545.60 326.00 C 553.60 326.75, 561.60 326.04, 569.60 326.00 C 568.64 336.65, 568.76 347.36, 567.60 358.00 C 560.93 358.36, 554.27 358.24, 547.60 358.00 C 546.31 347.37, 546.92 336.63, 545.60 326.00" fill="none" stroke="black" stroke-width="2.0" stroke-linecap="round" stroke-linejoin="round"/>
    <path d="M 551.60 328.00 C 550.95 337.33, 552.33 346.67, 551.60 356.00" fill="none" stroke="black" stroke-width="1.4" stroke-linecap="round"/>
    <path d="M 557.60 328.00 C 556.96 337.33, 557.62 346.67, 557.60 356.00" fill="none" stroke="black" stroke-width="1.4" stroke-linecap="round"/>
    <path d="M 563.60 328.00 C 563.56 337.33, 563.47 346.67, 563.60 356.00" fill="none" stroke="black" stroke-width="1.4" stroke-linecap="round"/>
    <path d="M 554.39 324.00 C 554.51 324.48, 554.77 324.90, 554.91 325.37 C 554.32 325.23, 554.15 326.11, 553.55 325.95 C 553.28 326.26, 552.93 326.52, 552.82 326.95 C 552.25 326.84, 552.02 327.38, 551.60 327.57 C 551.48 326.99, 550.85 326.93, 550.55 326.54 C 550.34 326.04, 549.71 326.58, 549.49 326.11 C 549.47 325.70, 548.94 325.51, 549.05 325.06 C 548.45 324.96, 548.52 324.28, 548.13 324.00 C 548.39 323.57, 549.02 323.52, 549.18 323.00 C 549.65 322.78, 549.63 322.39, 549.57 321.97 C 550.00 322.18, 550.34 322.03, 550.66 321.73 C 550.97 321.31, 551.42 321.00, 551.60 320.48 C 551.99 320.70, 552.53 320.63, 552.82 321.06 C 553.37 320.88, 553.58 321.51, 554.04 321.56 C 554.06 322.07, 554.66 322.23, 554.74 322.70 C 554.92 323.22, 554.39 323.54, 554.39 324.00" fill="none" stroke="black" stroke-width="2.0" stroke-linecap="round"/>
    <path d="M 563.03 320.00 C 562.98 320.58, 563.04 321.18, 562.70 321.70 C 562.18 321.97, 561.50 321.97, 561.20 322.60 C 561.14 323.24, 560.65 323.51, 560.17 323.79 C 559.62 323.87, 559.06 323.93, 558.60 323.51 C 558.09 323.68, 557.58 323.91, 557.02 323.82 C 556.95 323.16, 556.47 322.89, 555.94 322.66 C 555.46 322.30, 555.08 321.75, 554.39 321.74 C 554.23 321.16, 554.76 320.60, 554.46 320.00 C 554.94 319.57, 554.79 318.98, 554.86 318.45 C 555.33 318.20, 555.53 317.65, 556.03 317.43 C 556.28 316.97, 556.79 316.79, 557.11 316.41 C 557.53 315.98, 558.05 315.96, 558.60 316.05 C 558.95 316.53, 559.46 316.62, 560.01 316.60 C 560.63 316.40, 561.03 316.83, 561.48 317.12 C 561.53 317.74, 561.98 318.07, 562.39 318.43 C 562.78 318.88, 562.98 319.41, 563.03 320.00" fill="none" stroke="black" stroke-width="2.0" stroke-linecap="round"/>
    <path d="M 568.30 325.00 C 567.85 325.27, 568.39 325.73, 568.10 326.04 C 567.77 326.28, 567.49 326.54, 567.61 327.01 C 567.26 327.12, 566.88 327.16, 566.52 327.22 C 566.05 327.54, 565.89 328.07, 565.60 328.51 C 565.32 328.11, 564.72 328.02, 564.57 327.48 C 564.05 327.53, 563.94 327.15, 563.83 326.77 C 563.70 326.40, 563.28 326.34, 563.08 326.05 C 563.04 325.45, 562.22 325.55, 562.13 325.00 C 561.98 324.47, 562.32 324.13, 562.58 323.75 C 562.91 323.48, 563.15 323.13, 563.37 322.77 C 563.55 322.32, 563.80 321.96, 564.34 321.96 C 564.71 321.54, 565.23 322.19, 565.60 321.79 C 565.92 322.07, 566.23 322.35, 566.68 322.39 C 567.07 322.50, 567.31 322.78, 567.46 323.14 C 567.32 323.63, 567.71 323.78, 567.99 324.01 C 568.46 324.22, 568.14 324.69, 568.30 325.00" fill="none" stroke="black" stroke-width="2.0" stroke-linecap="round"/>
    <path d="M 544.13 270.00 C 543.95 271.63, 542.96 272.99, 542.60 274.56 C 541.82 275.91, 541.21 277.37, 540.13 278.53 C 538.79 279.40, 537.72 280.62, 536.33 281.43 C 534.76 281.69, 533.22 282.17, 531.60 281.98 C 529.99 282.02, 528.40 281.92, 526.84 281.49 C 525.75 280.34, 524.81 279.03, 523.42 278.18 C 522.55 276.89, 521.71 275.58, 520.45 274.62 C 520.03 273.07, 519.28 271.61, 519.06 270.00 C 519.98 268.63, 519.79 266.86, 520.71 265.49 C 521.62 264.19, 522.08 262.66, 522.92 261.32 C 523.99 260.05, 525.35 259.17, 526.80 258.42 C 528.41 258.36, 530.02 258.40, 531.60 258.06 C 533.19 258.04, 534.68 258.68, 536.25 258.77 C 537.68 259.51, 539.26 260.00, 540.47 261.13 C 540.97 262.66, 542.11 263.90, 542.46 265.50 C 543.07 266.98, 543.77 268.43, 544.13 270.00" fill="none" stroke="black" stroke-width="2.0" stroke-linecap="round"/>
    <path d="M 531.60 282.00 C 532.34 296.00, 531.49 310.00, 531.60 324.00" fill="none" stroke="black" stroke-width="2.0" stroke-linecap="round"/>
    <path d="M 531.60 290.00 C 525.60 296.13, 521.60 303.86, 515.60 310.00" fill="none" stroke="black" stroke-width="2.0" stroke-linecap="round"/>
    <path d="M 531.60 290.00 C 536.85 296.73, 542.85 302.87, 547.60 310.00" fill="none" stroke="black" stroke-width="2.0" stroke-linecap="round"/>
    <path d="M 531.60 324.00 C 526.85 332.32, 522.80 340.96, 519.60 350.00" fill="none" stroke="black" stroke-width="2.0" stroke-linecap="round"/>
    <path d="M 531.60 324.00 C 535.02 332.93, 539.83 341.23, 543.60 350.00" fill="none" stroke="black" stroke-width="2.0" stroke-linecap="round"/>
    <path d="M 680.52 270.00 C 680.22 271.54, 679.68 272.99, 679.01 274.39 C 678.15 275.61, 677.06 276.67, 676.48 278.08 C 675.55 279.37, 674.09 280.08, 673.06 281.26 C 671.53 281.70, 669.94 281.33, 668.40 281.58 C 666.87 281.37, 665.37 280.95, 663.81 281.09 C 662.81 279.88, 661.49 279.06, 660.24 278.16 C 659.07 277.12, 658.19 275.85, 657.24 274.62 C 657.27 273.06, 656.76 271.55, 656.67 270.00 C 656.74 268.41, 656.98 266.84, 656.91 265.24 C 658.10 264.19, 659.36 263.21, 660.33 261.93 C 661.61 261.07, 662.70 260.00, 663.83 258.98 C 665.40 259.10, 666.85 258.35, 668.40 258.39 C 669.91 258.81, 671.45 258.95, 673.02 258.85 C 674.26 259.82, 675.62 260.61, 676.95 261.45 C 677.80 262.76, 678.15 264.33, 679.19 265.53 C 679.72 266.99, 680.23 268.46, 680.52 270.00" fill="none" stroke="black" stroke-width="2.0" stroke-linecap="round"/>
    <path d="M 674.04 252.00 C 674.01 252.79, 673.84 253.58, 674.10 254.36 C 673.54 254.92, 673.00 255.49, 672.36 255.96 C 671.62 256.16, 670.97 256.49, 670.53 257.14 C 669.79 257.16, 669.11 257.47, 668.40 257.63 C 667.64 257.60, 666.88 257.64, 666.13 257.47 C 665.26 257.45, 664.85 256.44, 663.97 256.43 C 663.78 255.61, 663.43 254.88, 662.75 254.34 C 662.32 253.62, 662.21 252.80, 662.03 252.00 C 662.43 251.27, 662.61 250.47, 662.73 249.65 C 663.12 248.93, 663.62 248.27, 663.87 247.47 C 664.69 247.37, 665.44 246.97, 666.26 246.83 C 666.92 246.40, 667.73 246.89, 668.40 246.49 C 669.15 246.34, 669.89 246.38, 670.61 246.66 C 671.28 247.11, 672.21 246.96, 672.80 247.60 C 673.12 248.43, 673.77 248.98, 674.45 249.49 C 673.99 250.28, 674.19 251.17, 674.04 252.00" fill="none" stroke="black" stroke-width="2.0" stroke-linecap="round"/>
    <path d="M 657.40 271.00 C 656.85 274.69, 655.35 278.20, 655.40 282.00" fill="none" stroke="black" stroke-width="2.0" stroke-linecap="round"/>
    <path d="M 679.40 271.00 C 680.03 274.67, 680.72 278.34, 681.40 282.00" fill="none" stroke="black" stroke-width="2.0" stroke-linecap="round"/>
    <path d="M 668.40 282.00 C 668.46 296.00, 667.55 310.00, 668.40 324.00" fill="none" stroke="black" stroke-width="2.0" stroke-linecap="round"/>
    <path d="M 668.40 292.00 C 658.96 291.39, 649.78 289.00, 640.40 288.00" fill="none" stroke="black" stroke-width="2.0" stroke-linecap="round"/>
    <path d="M 668.40 292.00 C 674.32 297.48, 679.78 303.37, 684.40 310.00" fill="none" stroke="black" stroke-width="2.0" stroke-linecap="round"/>
    <path d="M 668.40 324.00 C 663.49 332.25, 660.55 341.40, 656.40 350.00" fill="none" stroke="black" stroke-width="2.0" stroke-linecap="round"/>
    <path d="M 668.40 324.00 C 672.40 332.67, 675.79 341.62, 680.40 350.00" fill="none" stroke="black" stroke-width="2.0" stroke-linecap="round"/>
    <path d="M 430.00 60.00 C 480.00 59.39, 530.00 60.44, 580.00 60.00 C 582.78 63.89, 586.17 67.16, 590.00 70.00 C 589.98 92.00, 590.30 114.00, 590.00 136.00 C 586.28 138.95, 583.31 142.64, 580.00 146.00 C 530.00 146.34, 480.00 146.54, 430.00 146.00 C 426.65 142.69, 423.64 139.03, 420.00 136.00 C 419.66 114.00, 420.48 92.00, 420.00 70.00 C 423.85 67.18, 426.68 63.35, 430.00 60.00" fill="#e3d3a2" stroke="black" stroke-width="2.0" stroke-linecap="round" stroke-linejoin="round"/>
    <path d="M 532.60 146.00 C 534.83 188.67, 537.99 231.29, 539.60 274.00 C 542.37 231.36, 544.27 188.67, 546.60 146.00" fill="#e3d3a2" stroke="black" stroke-width="2.0" stroke-linecap="round" stroke-linejoin="round"/>
    <line x1="533.6" y1="146" x2="545.6" y2="146" stroke="#e3d3a2" stroke-width="2.4"/>
    <text x="505.0" y="78.0" text-anchor="middle" font-family="Comic Neue, Comic Sans MS, cursive" font-size="13" fill="black"><tspan x="505.0" dy="0">The way the man stand</tspan><tspan x="505.0" dy="16">tall with his values</tspan><tspan x="505.0" dy="16">and keeps the promise</tspan><tspan x="505.0" dy="16">but never…</tspan></text>
  </g>
</svg>
