<?xml version="1.0" encoding="UTF-8"?>
<svg xmlns="http://www.w3.org/2000/svg" viewBox="0 0 806 402" width="806" height="402" role="img" aria-label="#018 — Rain Man (1988)">
  <rect width="100%" height="100%" fill="#f1e7cc"/>
  <text x="403.0" y="34" text-anchor="middle" font-family="Comic Neue, Comic Sans MS, cursive" font-size="16" font-weight="700" fill="black">#018 — Rain Man (1988) ★★★★</text>
  <g class="panel">
    <path d="M 16.00 46.00 C 142.67 45.51, 269.33 46.71, 396.00 46.00 C 396.51 159.33, 396.18 272.67, 396.00 386.00 C 269.33 386.00, 142.67 386.46, 16.00 386.00 C 15.71 272.67, 16.09 159.33, 16.00 46.00" fill="none" stroke="black" stroke-width="2.0" stroke-linecap="round" stroke-linejoin="round"/>
    <path d="M 26.00 356.00 C 146.00 356.72, 266.00 355.92, 386.00 356.00" fill="none" stroke="black" stroke-width="1.4" stroke-linecap="round"/>
    <path d="M 30.00 280.00 C 56.67 279.80, 83.33 279.73, 110.00 280.00 C 109.89 298.67, 110.28 317.33, 110.00 336.00 C 83.33 336.02, 56.67 335.40, 30.00 336.00 C 29.36 317.33, 29.89 298.67, 30.00 280.00" fill="none" stroke="black" stroke-width="2.0" stroke-linecap="round" stroke-linejoin="round"/>
    <path d="M 36.00 286.00 C 58.67 285.87, 81.33 286.46, 104.00 286.00 C 103.67 300.67, 104.76 315.33, 104.00 330.00 C 81.33 329.57, 58.67 330.28, 36.00 330.00 C 35.27 315.33, 35.56 300.67, 36.00 286.00" fill="none" stroke="black" stroke-width="2.0" stroke-linecap="round" stroke-linejoin="round"/>
    <path d="M 56.00 336.00 C 65.33 336.13, 74.67 335.85, 84.00 336.00" fill="none" stroke="black" stroke-width="1.4" stroke-linecap="round"/>
    <path d="M 70.00 336.00 C 69.26 338.67, 70.51 341.33, 70.00 344.00" fill="none" stroke="black" stroke-width="1.4" stroke-linecap="round"/>
    <path d="M 56.00 346.00 C 65.33 345.23, 74.67 346.41, 84.00 346.00" fill="none" stroke="black" stroke-width="1.4" stroke-linecap="round"/>
    <path d="M 42.00 322.00 C 45.03 313.21, 49.08 304.83, 52.00 296.00 C 56.53 305.40, 62.03 314.32, 66.00 324.00 C 70.07 315.01, 74.90 306.43, 80.00 298.00 C 85.50 305.21, 90.11 313.07, 96.00 320.00" fill="none" stroke="black" stroke-width="2.0" stroke-linecap="round" stroke-linejoin="round"/>
    <path d="M 110.00 300.00 C 160.67 299.49, 211.33 300.76, 262.00 300.00 C 261.44 310.00, 261.76 320.00, 262.00 330.00 C 211.33 329.69, 160.67 329.34, 110.00 330.00 C 110.44 320.00, 109.68 310.00, 110.00 300.00" fill="none" stroke="black" stroke-width="2.0" stroke-linecap="round" stroke-linejoin="round"/>
    <path d="M 110.00 330.00 C 160.67 330.33, 211.33 329.83, 262.00 330.00 C 261.36 342.00, 261.91 354.00, 262.00 366.00 C 211.33 366.50, 160.67 365.56, 110.00 366.00 C 109.34 354.00, 109.52 342.00, 110.00 330.00" fill="none" stroke="black" stroke-width="2.0" stroke-linecap="round" stroke-linejoin="round"/>
    <path d="M 102.00 312.00 C 104.67 311.88, 107.33 311.41, 110.00 312.00 C 110.54 330.00, 110.70 348.00, 110.00 366.00 C 107.33 365.34, 104.67 366.50, 102.00 366.00 C 102.58 348.00, 102.27 330.00, 102.00 312.00" fill="none" stroke="black" stroke-width="2.0" stroke-linecap="round" stroke-linejoin="round"/>
    <path d="M 262.00 312.00 C 264.67 311.68, 267.33 312.72, 270.00 312.00 C 270.52 330.00, 270.50 348.00, 270.00 366.00 C 267.33 366.24, 264.67 366.63, 262.00 366.00 C 262.34 348.00, 262.15 330.00, 262.00 312.00" fill="none" stroke="black" stroke-width="2.0" stroke-linecap="round" stroke-linejoin="round"/>
    <path d="M 186.00 330.00 C 185.83 342.00, 186.15 354.00, 186.00 366.00" fill="none" stroke="black" stroke-width="1.4" stroke-linecap="round"/>
    <path d="M 158.51 300.00 C 158.09 301.56, 156.88 302.77, 156.61 304.39 C 155.60 305.60, 155.22 307.13, 154.48 308.48 C 153.02 309.16, 152.02 310.46, 150.69 311.31 C 149.19 311.97, 147.56 311.96, 146.00 312.27 C 144.49 311.85, 142.94 311.52, 141.58 310.68 C 140.21 310.02, 139.04 309.08, 137.93 308.07 C 136.84 306.99, 136.17 305.56, 134.96 304.57 C 134.81 303.04, 134.49 301.53, 134.31 300.00 C 134.61 298.52, 134.73 297.00, 135.39 295.60 C 136.19 294.29, 136.85 292.90, 137.52 291.52 C 138.69 290.46, 140.25 289.99, 141.41 288.91 C 142.99 288.76, 144.41 287.91, 146.00 287.81 C 147.57 288.02, 149.04 288.60, 150.54 289.03 C 152.03 289.61, 153.41 290.38, 154.72 291.28 C 155.24 292.81, 156.05 294.17, 157.07 295.42 C 157.37 297.00, 157.72 298.57, 158.51 300.00" fill="none" stroke="black" stroke-width="2.0" stroke-linecap="round"/>
    <path d="M 134.00 298.00 C 132.63 308.62, 132.50 319.32, 132.00 330.00" fill="none" stroke="black" stroke-width="2.0" stroke-linecap="round"/>
    <path d="M 136.00 296.00 C 135.61 308.68, 134.04 321.30, 134.00 334.00" fill="none" stroke="black" stroke-width="2.0" stroke-linecap="round"/>
    <path d="M 158.00 298.00 C 159.39 308.62, 158.86 319.36, 160.00 330.00" fill="none" stroke="black" stroke-width="2.0" stroke-linecap="round"/>
    <path d="M 142.00 288.00 C 140.53 287.60, 139.77 285.80, 138.00 286.00" fill="none" stroke="black" stroke-width="1.4" stroke-linecap="round"/>
    <path d="M 150.00 288.00 C 151.63 287.94, 152.92 287.18, 154.00 286.00" fill="none" stroke="black" stroke-width="1.4" stroke-linecap="round"/>
    <path d="M 146.00 312.00 C 145.18 321.33, 145.51 330.67, 146.00 340.00" fill="none" stroke="black" stroke-width="2.0" stroke-linecap="round"/>
    <path d="M 146.00 326.00 C 140.60 329.92, 135.65 334.42, 130.00 338.00" fill="none" stroke="black" stroke-width="2.0" stroke-linecap="round"/>
    <path d="M 146.00 326.00 C 151.44 329.86, 156.96 333.61, 162.00 338.00" fill="none" stroke="black" stroke-width="2.0" stroke-linecap="round"/>
    <path d="M 146.00 340.00 C 154.00 340.02, 162.00 340.68, 170.00 340.00" fill="none" stroke="black" stroke-width="2.0" stroke-linecap="round"/>
    <path d="M 170.00 340.00 C 170.45 346.02, 170.47 352.10, 172.00 358.00" fill="none" stroke="black" stroke-width="2.0" stroke-linecap="round"/>
    <path d="M 146.00 340.00 C 143.45 346.05, 140.12 351.76, 138.00 358.00" fill="none" stroke="black" stroke-width="2.0" stroke-linecap="round"/>
    <path d="M 238.01 300.00 C 238.06 301.61, 237.71 303.17, 237.44 304.74 C 236.15 305.70, 235.55 307.30, 234.20 308.20 C 232.94 309.12, 231.71 310.06, 230.64 311.19 C 229.10 311.45, 227.57 311.84, 226.00 311.88 C 224.56 311.27, 222.92 311.57, 221.48 310.92 C 220.41 309.81, 219.32 308.74, 217.88 308.12 C 216.94 306.89, 215.98 305.66, 214.81 304.63 C 214.08 303.17, 213.75 301.61, 213.58 300.00 C 213.99 298.46, 214.34 296.90, 215.28 295.56 C 216.32 294.33, 216.70 292.77, 217.34 291.34 C 218.57 290.28, 219.82 289.25, 221.18 288.37 C 222.77 288.00, 224.40 288.19, 226.00 287.96 C 227.57 288.26, 229.14 288.55, 230.74 288.56 C 232.17 289.32, 233.27 290.47, 234.41 291.59 C 235.08 293.05, 236.01 294.30, 237.23 295.35 C 237.44 296.91, 237.97 298.41, 238.01 300.00" fill="none" stroke="black" stroke-width="2.0" stroke-linecap="round"/>
    <path d="M 231.68 282.00 C 231.33 282.75, 231.37 283.53, 231.56 284.30 C 231.16 284.98, 230.52 285.43, 229.94 285.94 C 229.39 286.57, 228.76 287.14, 228.47 287.96 C 227.64 288.02, 226.81 287.93, 226.00 287.75 C 225.29 287.55, 224.66 287.08, 223.89 287.10 C 223.02 287.23, 222.38 286.56, 221.60 286.40 C 221.53 285.58, 221.05 284.91, 220.85 284.13 C 220.36 283.51, 220.23 282.74, 220.03 282.00 C 220.09 281.18, 220.04 280.35, 220.03 279.53 C 220.65 278.92, 220.90 278.08, 221.39 277.39 C 222.11 276.83, 223.02 276.99, 223.82 276.74 C 224.69 276.69, 225.22 275.94, 226.00 275.69 C 226.79 275.88, 227.54 276.22, 228.35 276.33 C 229.08 276.68, 229.79 277.08, 230.46 277.54 C 230.50 278.37, 230.54 279.20, 231.09 279.89 C 231.05 280.66, 231.84 281.20, 231.68 282.00" fill="none" stroke="black" stroke-width="2.0" stroke-linecap="round"/>
    <path d="M 215.00 301.00 C 214.35 304.67, 212.76 308.17, 213.00 312.00" fill="none" stroke="black" stroke-width="2.0" stroke-linecap="round"/>
    <path d="M 237.00 301.00 C 237.24 304.74, 237.96 308.40, 239.00 312.00" fill="none" stroke="black" stroke-width="2.0" stroke-linecap="round"/>
    <path d="M 226.00 312.00 C 225.17 321.33, 225.21 330.67, 226.00 340.00" fill="none" stroke="black" stroke-width="2.0" stroke-linecap="round"/>
    <path d="M 226.00 326.00 C 220.21 329.39, 214.96 333.51, 210.00 338.00" fill="none" stroke="black" stroke-width="2.0" stroke-linecap="round"/>
    <path d="M 226.00 326.00 C 231.22 330.16, 236.75 333.89, 242.00 338.00" fill="none" stroke="black" stroke-width="2.0" stroke-linecap="round"/>
    <path d="M 226.00 340.00 C 234.00 339.66, 242.00 340.81, 250.00 340.00" fill="none" stroke="black" stroke-width="2.0" stroke-linecap="round"/>
    <path d="M 250.00 340.00 C 250.74 345.99, 251.78 351.95, 252.00 358.00" fill="none" stroke="black" stroke-width="2.0" stroke-linecap="round"/>
    <path d="M 226.00 340.00 C 224.03 346.31, 221.49 352.37, 218.00 358.00" fill="none" stroke="black" stroke-width="2.0" stroke-linecap="round"/>
    <path d="M 36.00 60.00 C 86.00 59.30, 136.00 60.57, 186.00 60.00 C 189.51 63.15, 193.01 66.32, 196.00 70.00 C 196.63 81.33, 196.27 92.67, 196.00 104.00 C 192.60 107.27, 189.58 110.92, 186.00 114.00 C 136.00 113.62, 86.00 114.29, 36.00 114.00 C 32.68 110.65, 29.86 106.81, 26.00 104.00 C 25.99 92.67, 25.55 81.33, 26.00 70.00 C 29.00 66.33, 33.21 63.88, 36.00 60.00" fill="#f1e7cc" stroke="black" stroke-width="2.0" stroke-linecap="round" stroke-linejoin="round"/>
    <path d="M 131.00 114.00 C 133.66 177.32, 134.91 240.69, 138.00 304.00 C 140.05 240.66, 142.22 177.32, 145.00 114.00" fill="#f1e7cc" stroke="black" stroke-width="2.0" stroke-linecap="round" stroke-linejoin="round"/>
    <line x1="132.0" y1="114" x2="144.0" y2="114" stroke="#f1e7cc" stroke-width="2.4"/>
    <text x="111.0" y="78.0" text-anchor="middle" font-family="Comic Neue, Comic Sans MS, cursive" font-size="13" fill="black"><tspan x="111.0" dy="0">Kmart sucks Yeah Yeah</tspan><tspan x="111.0" dy="16">Yeahh!</tspan></text>
    <path d="M 228.00 60.00 C 277.33 60.75, 326.67 60.07, 376.00 60.00 C 379.72 62.94, 383.13 66.20, 386.00 70.00 C 385.92 86.67, 386.53 103.33, 386.00 120.00 C 382.73 123.40, 379.06 126.39, 376.00 130.00 C 326.67 129.97, 277.33 130.20, 228.00 130.00 C 224.97 126.37, 221.76 122.90, 218.00 120.00 C 218.58 103.33, 217.71 86.67, 218.00 70.00 C 221.24 66.57, 225.16 63.83, 228.00 60.00" fill="#f1e7cc" stroke="black" stroke-width="2.0" stroke-linecap="round" stroke-linejoin="round"/>
    <path d="M 223.00 130.00 C 221.93 188.02, 220.38 246.02, 218.00 304.00 C 224.33 246.00, 231.09 188.05, 237.00 130.00" fill="#f1e7cc" stroke="black" stroke-width="2.0" stroke-linecap="round" stroke-linejoin="round"/>
    <line x1="224" y1="130" x2="236" y2="130" stroke="#f1e7cc" stroke-width="2.4"/>
    <text x="302.0" y="78.0" text-anchor="middle" font-family="Comic Neue, Comic Sans MS, cursive" font-size="13" fill="black"><tspan x="302.0" dy="0">Absolutely loved</tspan><tspan x="302.0" dy="16">everything😭 246</tspan><tspan x="302.0" dy="16">toothpicks and all</tspan></text>
  </g>
  <g class="panel">
    <path d="M 410.00 46.00 C 536.67 46.01, 663.33 46.45, 790.00 46.00 C 789.90 159.33, 790.35 272.67, 790.00 386.00 C 663.33 386.09, 536.67 386.20, 410.00 386.00 C 410.53 272.67, 409.24 159.33, 410.00 46.00" fill="none" stroke="black" stroke-width="2.0" stroke-linecap="round" stroke-linejoin="round"/>
    <path d="M 420.00 362.00 C 540.00 362.29, 660.00 362.36, 780.00 362.00" fill="none" stroke="black" stroke-width="1.4" stroke-linecap="round"/>
    <path d="M 545.60 326.00 C 553.60 326.56, 561.60 325.78, 569.60 326.00 C 568.99 336.67, 568.14 347.33, 567.60 358.00 C 560.93 357.60, 554.27 358.79, 547.60 358.00 C 547.13 347.32, 546.79 336.63, 545.60 326.00" fill="none" stroke="black" stroke-width="2.0" stroke-linecap="round" stroke-linejoin="round"/>
    <path d="M 551.60 328.00 C 550.73 337.33, 551.27 346.67, 551.60 356.00" fill="none" stroke="black" stroke-width="1.4" stroke-linecap="round"/>
    <path d="M 557.60 328.00 C 558.18 337.33, 557.38 346.67, 557.60 356.00" fill="none" stroke="black" stroke-width="1.4" stroke-linecap="round"/>
    <path d="M 563.60 328.00 C 564.33 337.33, 564.58 346.67, 563.60 356.00" fill="none" stroke="black" stroke-width="1.4" stroke-linecap="round"/>
    <path d="M 554.37 324.00 C 553.94 324.30, 554.35 324.73, 554.19 325.07 C 554.03 325.41, 553.46 325.38, 553.47 325.87 C 553.37 326.34, 553.01 326.43, 552.62 326.45 C 552.36 326.82, 551.98 326.80, 551.60 326.79 C 551.24 326.74, 551.00 326.36, 550.59 326.43 C 550.43 326.00, 550.07 325.94, 549.68 325.92 C 549.55 325.49, 549.20 325.31, 548.82 325.15 C 548.68 324.72, 548.89 324.36, 549.07 324.00 C 548.90 323.65, 549.24 323.23, 548.94 322.90 C 549.03 322.49, 549.34 322.15, 549.31 321.71 C 549.77 321.75, 550.21 321.72, 550.46 321.24 C 550.93 320.97, 551.27 321.24, 551.60 321.53 C 552.14 321.63, 552.42 321.12, 552.85 320.97 C 553.21 321.20, 553.57 321.43, 553.86 321.74 C 554.10 322.12, 553.83 322.59, 554.09 322.97 C 553.89 323.39, 554.10 323.70, 554.37 324.00" fill="none" stroke="black" stroke-width="2.0" stroke-linecap="round"/>
    <path d="M 562.20 320.00 C 562.42 320.55, 562.55 321.12, 562.69 321.69 C 562.32 322.14, 562.37 322.86, 561.75 323.15 C 561.20 323.44, 560.55 323.08, 560.02 323.43 C 559.38 323.60, 558.88 323.94, 558.60 324.55 C 558.09 324.23, 557.38 324.53, 556.95 323.99 C 556.27 323.96, 556.10 323.27, 555.63 322.97 C 555.52 322.43, 554.92 322.12, 554.91 321.53 C 554.66 321.05, 554.79 320.46, 554.46 320.00 C 554.88 319.63, 555.12 319.14, 555.37 318.66 C 555.32 318.07, 555.53 317.49, 555.50 316.90 C 556.04 316.60, 556.63 316.69, 557.21 316.65 C 557.47 316.03, 557.92 315.65, 558.60 315.57 C 558.96 316.07, 559.44 316.39, 560.01 316.59 C 560.41 317.03, 561.10 316.63, 561.49 317.11 C 561.84 317.53, 562.08 318.04, 562.53 318.37 C 562.38 318.91, 562.65 319.53, 562.20 320.00" fill="none" stroke="black" stroke-width="2.0" stroke-linecap="round"/>
    <path d="M 568.56 325.00 C 568.23 325.44, 568.61 325.84, 568.63 326.26 C 568.13 326.24, 567.90 326.79, 567.43 326.83 C 567.27 327.28, 566.96 327.38, 566.53 327.25 C 566.08 327.38, 566.04 327.96, 565.60 328.12 C 565.17 328.50, 564.73 328.15, 564.30 328.14 C 564.09 327.58, 563.68 327.41, 563.12 327.48 C 562.98 326.99, 563.26 326.50, 563.16 326.01 C 563.26 325.47, 562.90 325.23, 562.52 325.00 C 562.73 324.67, 563.06 324.39, 563.10 323.97 C 563.43 323.50, 562.84 323.01, 563.14 322.54 C 563.59 322.14, 564.09 322.56, 564.55 322.47 C 565.02 322.64, 565.13 321.90, 565.60 322.08 C 565.98 321.68, 566.44 321.59, 566.95 321.73 C 566.94 322.27, 567.28 322.69, 567.41 323.19 C 567.94 323.12, 568.37 323.25, 568.64 323.74 C 568.62 324.16, 568.98 324.60, 568.56 325.00" fill="none" stroke="black" stroke-width="2.0" stroke-linecap="round"/>
    <path d="M 543.88 270.00 C 543.46 271.56, 543.50 273.20, 543.11 274.77 C 542.05 276.00, 541.27 277.43, 540.36 278.76 C 539.02 279.68, 537.53 280.38, 536.41 281.61 C 534.88 282.31, 533.21 282.29, 531.60 282.60 C 530.10 281.98, 528.40 282.02, 526.96 281.20 C 525.87 280.05, 524.46 279.31, 523.17 278.43 C 522.23 277.14, 521.29 275.85, 520.10 274.76 C 519.89 273.18, 520.07 271.57, 519.77 270.00 C 519.99 268.42, 520.29 266.86, 520.14 265.25 C 520.97 263.87, 522.14 262.74, 522.97 261.37 C 524.37 260.57, 525.53 259.45, 526.86 258.56 C 528.47 258.81, 530.05 258.68, 531.60 258.19 C 533.20 258.39, 534.81 258.35, 536.41 258.39 C 537.79 259.26, 538.90 260.43, 540.00 261.60 C 540.78 262.93, 541.67 264.20, 542.56 265.46 C 543.06 266.96, 543.51 268.47, 543.88 270.00" fill="none" stroke="black" stroke-width="2.0" stroke-linecap="round"/>
    <path d="M 537.37 252.00 C 537.72 252.80, 537.63 253.58, 537.31 254.36 C 536.96 255.13, 536.09 255.37, 535.62 256.02 C 535.04 256.63, 534.68 257.41, 534.09 258.01 C 533.29 258.43, 532.43 258.10, 531.60 258.21 C 530.79 257.86, 529.94 258.05, 529.11 258.00 C 528.43 257.43, 527.97 256.72, 527.73 255.87 C 527.39 255.13, 526.86 254.58, 526.08 254.28 C 526.02 253.52, 525.59 252.80, 525.76 252.00 C 525.89 251.23, 525.58 250.42, 525.97 249.67 C 526.54 249.14, 527.20 248.68, 527.51 247.91 C 527.97 247.22, 528.59 246.81, 529.42 246.74 C 530.30 246.81, 530.87 246.15, 531.60 245.86 C 532.33 246.15, 533.20 246.05, 533.81 246.67 C 534.55 246.92, 535.35 247.05, 535.84 247.76 C 536.39 248.33, 536.68 249.07, 537.10 249.72 C 536.86 250.52, 537.03 251.27, 537.37 252.00" fill="none" stroke="black" stroke-width="2.0" stroke-linecap="round"/>
    <path d="M 520.60 271.00 C 519.83 274.65, 518.67 278.23, 518.60 282.00" fill="none" stroke="black" stroke-width="2.0" stroke-linecap="round"/>
    <path d="M 542.60 271.00 C 543.43 274.64, 543.14 278.48, 544.60 282.00" fill="none" stroke="black" stroke-width="2.0" stroke-linecap="round"/>
    <path d="M 531.60 282.00 C 531.61 296.00, 531.03 310.00, 531.60 324.00" fill="none" stroke="black" stroke-width="2.0" stroke-linecap="round"/>
    <path d="M 531.60 290.00 C 526.16 296.58, 520.82 303.24, 515.60 310.00" fill="none" stroke="black" stroke-width="2.0" stroke-linecap="round"/>
    <path d="M 531.60 290.00 C 537.12 296.52, 541.97 303.57, 547.60 310.00" fill="none" stroke="black" stroke-width="2.0" stroke-linecap="round"/>
    <path d="M 531.60 324.00 C 528.25 332.96, 523.74 341.40, 519.60 350.00" fill="none" stroke="black" stroke-width="2.0" stroke-linecap="round"/>
    <path d="M 531.60 324.00 C 536.24 332.37, 540.39 340.97, 543.60 350.00" fill="none" stroke="black" stroke-width="2.0" stroke-linecap="round"/>
    <path d="M 679.84 270.00 C 679.83 271.58, 679.82 273.17, 679.88 274.75 C 679.01 276.10, 677.61 277.01, 676.83 278.43 C 675.60 279.36, 674.06 279.78, 672.85 280.75 C 671.31 280.99, 669.93 281.78, 668.40 282.07 C 666.86 281.72, 665.28 281.62, 663.74 281.26 C 662.41 280.39, 661.18 279.38, 659.77 278.63 C 659.09 277.22, 658.56 275.75, 657.74 274.42 C 657.85 272.87, 657.39 271.44, 656.92 270.00 C 657.11 268.48, 657.60 266.99, 657.37 265.43 C 658.24 264.14, 659.08 262.84, 659.95 261.55 C 661.30 260.81, 662.79 260.31, 663.95 259.25 C 665.40 258.82, 666.93 258.91, 668.40 258.59 C 669.92 258.54, 671.38 258.82, 672.78 259.44 C 674.18 260.28, 675.71 260.75, 677.29 261.11 C 677.77 262.64, 678.04 264.25, 678.95 265.63 C 679.46 267.04, 679.80 268.49, 679.84 270.00" fill="none" stroke="black" stroke-width="2.0" stroke-linecap="round"/>
    <path d="M 656.40 268.00 C 655.81 278.67, 655.84 289.38, 654.40 300.00" fill="none" stroke="black" stroke-width="2.0" stroke-linecap="round"/>
    <path d="M 658.40 266.00 C 658.16 278.69, 657.57 291.36, 656.40 304.00" fill="none" stroke="black" stroke-width="2.0" stroke-linecap="round"/>
    <path d="M 680.40 268.00 C 680.77 278.69, 681.25 289.36, 682.40 300.00" fill="none" stroke="black" stroke-width="2.0" stroke-linecap="round"/>
    <path d="M 664.40 258.00 C 663.35 256.76, 662.05 256.04, 660.40 256.00" fill="none" stroke="black" stroke-width="1.4" stroke-linecap="round"/>
    <path d="M 672.40 258.00 C 673.84 257.54, 674.93 256.39, 676.40 256.00" fill="none" stroke="black" stroke-width="1.4" stroke-linecap="round"/>
    <path d="M 668.40 282.00 C 668.09 296.00, 667.94 310.00, 668.40 324.00" fill="none" stroke="black" stroke-width="2.0" stroke-linecap="round"/>
    <path d="M 668.40 292.00 C 659.16 289.99, 649.76 289.17, 640.40 288.00" fill="none" stroke="black" stroke-width="2.0" stroke-linecap="round"/>
    <path d="M 668.40 292.00 C 673.72 298.01, 679.61 303.52, 684.40 310.00" fill="none" stroke="black" stroke-width="2.0" stroke-linecap="round"/>
    <path d="M 668.40 324.00 C 664.89 332.89, 659.72 341.02, 656.40 350.00" fill="none" stroke="black" stroke-width="2.0" stroke-linecap="round"/>
    <path d="M 668.40 324.00 C 673.09 332.35, 677.26 340.94, 680.40 350.00" fill="none" stroke="black" stroke-width="2.0" stroke-linecap="round"/>
    <path d="M 430.00 60.00 C 479.33 60.59, 528.67 59.65, 578.00 60.00 C 581.65 63.02, 584.50 66.83, 588.00 70.00 C 587.78 86.67, 588.11 103.33, 588.00 120.00 C 584.38 123.05, 580.85 126.19, 578.00 130.00 C 528.67 130.15, 479.33 129.35, 430.00 130.00 C 426.25 127.09, 423.03 123.64, 420.00 120.00 C 419.93 103.33, 420.12 86.67, 420.00 70.00 C 423.75 67.09, 426.14 62.81, 430.00 60.00" fill="#f1e7cc" stroke="black" stroke-width="2.0" stroke-linecap="round" stroke-linejoin="round"/>
    <path d="M 532.60 130.00 C 535.24 177.99, 537.90 225.97, 539.60 274.00 C 541.56 225.98, 544.62 178.02, 546.60 130.00" fill="#f1e7cc" stroke="black" stroke-width="2.0" stroke-linecap="round" stroke-linejoin="round"/>
    <line x1="533.6" y1="130" x2="545.6" y2="130" stroke="#f1e7cc" stroke-width="2.4"/>
    <text x="504.0" y="78.0" text-anchor="middle" font-family="Comic Neue, Comic Sans MS, cursive" font-size="13" fill="black"><tspan x="504.0" dy="0">Absolutely loved</tspan><tspan x="504.0" dy="16">everything😭 246</tspan><tspan x="504.0" dy="16">toothpicks and all</tspan></text>
  </g>
</svg>
