<?xml version="1.0" encoding="UTF-8"?>
<svg xmlns="http://www.w3.org/2000/svg" viewBox="0 0 806 402" width="806" height="402" role="img" aria-label="#019 — The Breakfast Club (1985)">
  <rect width="100%" height="100%" fill="#f1e7cc"/>
  <text x="403.0" y="34" text-anchor="middle" font-family="Comic Neue, Comic Sans MS, cursive" font-size="16" font-weight="700" fill="black">#019 — The Breakfast Club (1985) ★★★</text>
  <g class="panel">
    <path d="M 16.00 46.00 C 142.67 45.40, 269.33 46.36, 396.00 46.00 C 395.58 159.33, 395.57 272.67, 396.00 386.00 C 269.33 386.42, 142.67 385.62, 16.00 386.00 C 16.49 272.67, 16.12 159.33, 16.00 46.00" fill="none" stroke="black" stroke-width="2.0" stroke-linecap="round" stroke-linejoin="round"/>
    <path d="M 26.00 362.00 C 146.00 361.75, 266.00 362.91, 386.00 362.00" fill="none" stroke="black" stroke-width="1.4" stroke-linecap="round"/>
    <path d="M 312.40 108.00 C 313.36 112.08, 315.36 115.72, 317.16 119.45 C 321.25 120.21, 325.38 120.40, 329.52 120.44 C 326.65 123.44, 322.97 125.50, 320.10 128.50 C 321.70 132.37, 321.85 136.58, 322.98 140.56 C 319.62 138.13, 316.04 136.07, 312.40 134.10 C 308.89 136.28, 305.75 139.06, 301.82 140.56 C 302.31 136.43, 303.86 132.55, 304.70 128.50 C 301.56 125.82, 298.39 123.16, 295.28 120.44 C 299.38 119.91, 303.56 120.28, 307.64 119.45 C 308.63 115.38, 310.61 111.73, 312.40 108.00" fill="none" stroke="black" stroke-width="2.0" stroke-linecap="round" stroke-linejoin="round"/>
    <path d="M 99.60 94.00 C 101.15 96.34, 101.70 99.09, 102.77 101.63 C 105.55 101.44, 108.32 101.36, 111.01 102.29 C 108.77 103.91, 107.07 106.16, 104.74 107.67 C 106.15 110.16, 105.59 113.13, 106.65 115.71 C 104.48 113.98, 101.58 113.45, 99.60 111.40 C 97.16 112.69, 95.07 114.55, 92.55 115.71 C 93.55 113.12, 93.95 110.38, 94.46 107.67 C 92.41 105.83, 90.08 104.32, 88.19 102.29 C 90.97 102.48, 93.65 101.47, 96.43 101.63 C 97.71 99.18, 98.15 96.38, 99.60 94.00" fill="none" stroke="black" stroke-width="2.0" stroke-linecap="round" stroke-linejoin="round"/>
    <path d="M 199.19 270.00 C 198.68 271.51, 198.56 273.10, 198.21 274.64 C 197.71 276.20, 196.88 277.57, 195.79 278.79 C 194.46 279.68, 193.10 280.53, 191.50 280.86 C 190.10 281.67, 188.48 281.79, 187.00 282.36 C 185.35 282.40, 183.84 281.60, 182.21 281.57 C 181.10 280.41, 179.90 279.35, 178.65 278.35 C 177.73 277.10, 177.08 275.67, 175.95 274.58 C 175.52 273.03, 175.02 271.51, 174.48 270.00 C 174.81 268.42, 175.56 266.99, 176.06 265.47 C 177.09 264.26, 177.93 262.94, 178.41 261.41 C 179.66 260.45, 181.35 260.32, 182.56 259.27 C 183.99 258.72, 185.45 258.27, 187.00 258.16 C 188.46 258.62, 189.93 259.02, 191.45 259.25 C 192.61 260.34, 194.05 260.92, 195.49 261.51 C 196.47 262.77, 197.50 263.98, 198.45 265.26 C 198.56 266.86, 198.70 268.46, 199.19 270.00" fill="none" stroke="black" stroke-width="2.0" stroke-linecap="round"/>
    <path d="M 187.00 282.00 C 187.38 296.00, 187.13 310.00, 187.00 324.00" fill="none" stroke="black" stroke-width="2.0" stroke-linecap="round"/>
    <path d="M 187.00 288.00 C 180.17 278.27, 172.29 269.37, 165.00 260.00" fill="none" stroke="black" stroke-width="2.0" stroke-linecap="round"/>
    <path d="M 187.00 288.00 C 194.93 279.13, 201.81 269.45, 209.00 260.00" fill="none" stroke="black" stroke-width="2.0" stroke-linecap="round"/>
    <path d="M 187.00 324.00 C 183.31 332.81, 178.54 341.12, 175.00 350.00" fill="none" stroke="black" stroke-width="2.0" stroke-linecap="round"/>
    <path d="M 187.00 324.00 C 190.80 332.76, 195.34 341.18, 199.00 350.00" fill="none" stroke="black" stroke-width="2.0" stroke-linecap="round"/>
    <path d="M 36.00 60.00 C 86.00 59.29, 136.00 60.16, 186.00 60.00 C 189.35 63.32, 193.10 66.24, 196.00 70.00 C 195.41 97.33, 195.37 124.67, 196.00 152.00 C 192.21 154.88, 189.30 158.63, 186.00 162.00 C 136.00 162.18, 86.00 161.49, 36.00 162.00 C 32.95 158.38, 29.83 154.83, 26.00 152.00 C 25.44 124.67, 26.72 97.33, 26.00 70.00 C 29.22 66.55, 32.92 63.59, 36.00 60.00" fill="#f1e7cc" stroke="black" stroke-width="2.0" stroke-linecap="round" stroke-linejoin="round"/>
    <path d="M 177.00 162.00 C 182.50 199.41, 188.35 236.77, 195.00 274.00 C 193.05 236.69, 192.25 199.34, 191.00 162.00" fill="#f1e7cc" stroke="black" stroke-width="2.0" stroke-linecap="round" stroke-linejoin="round"/>
    <line x1="178" y1="162" x2="190" y2="162" stroke="#f1e7cc" stroke-width="2.4"/>
    <text x="111.0" y="78.0" text-anchor="middle" font-family="Comic Neue, Comic Sans MS, cursive" font-size="13" fill="black"><tspan x="111.0" dy="0">great concept but i</tspan><tspan x="111.0" dy="16">rather found it hard</tspan><tspan x="111.0" dy="16">to watch, john comes</tspan><tspan x="111.0" dy="16">from a shitty place i</tspan><tspan x="111.0" dy="16">agree but i do feel</tspan></text>
  </g>
  <g class="panel">
    <path d="M 410.00 46.00 C 536.67 46.35, 663.33 46.44, 790.00 46.00 C 790.28 159.33, 789.52 272.67, 790.00 386.00 C 663.33 386.56, 536.67 386.27, 410.00 386.00 C 410.50 272.67, 409.77 159.33, 410.00 46.00" fill="none" stroke="black" stroke-width="2.0" stroke-linecap="round" stroke-linejoin="round"/>
    <path d="M 440.00 82.00 C 546.67 81.73, 653.33 82.13, 760.00 82.00 C 759.56 108.67, 760.05 135.33, 760.00 162.00 C 653.33 162.22, 546.67 161.95, 440.00 162.00 C 440.07 135.33, 440.58 108.67, 440.00 82.00" fill="#111" stroke="black" stroke-width="2.0" stroke-linecap="round" stroke-linejoin="round"/>
    <path d="M 444.00 86.00 C 548.00 86.70, 652.00 85.83, 756.00 86.00 C 756.44 110.00, 756.32 134.00, 756.00 158.00 C 652.00 158.19, 548.00 158.51, 444.00 158.00 C 444.32 134.00, 443.22 110.00, 444.00 86.00" fill="none" stroke="black" stroke-width="2.0" stroke-linecap="round" stroke-linejoin="round"/>
    <path d="M 460.00 362.00 C 506.67 362.19, 553.33 362.15, 600.00 362.00 C 598.70 352.00, 598.01 341.91, 596.00 332.00 C 592.76 325.56, 590.52 318.73, 588.00 312.00 C 549.33 311.35, 510.67 312.38, 472.00 312.00 C 469.33 318.67, 467.13 325.52, 464.00 332.00 C 462.04 341.92, 460.83 351.93, 460.00 362.00" fill="#222" stroke="black" stroke-width="2.0" stroke-linecap="round" stroke-linejoin="round"/>
    <path d="M 610.00 362.00 C 656.67 362.16, 703.33 362.27, 750.00 362.00 C 749.01 351.95, 747.84 341.93, 746.00 332.00 C 742.98 325.47, 740.11 318.89, 738.00 312.00 C 699.33 312.76, 660.67 312.46, 622.00 312.00 C 618.71 318.42, 616.81 325.39, 614.00 332.00 C 613.40 342.10, 611.91 352.08, 610.00 362.00" fill="#222" stroke="black" stroke-width="2.0" stroke-linecap="round" stroke-linejoin="round"/>
    <path d="M 543.37 332.00 C 542.80 333.44, 542.45 334.93, 542.43 336.49 C 541.26 337.50, 540.65 338.93, 539.72 340.12 C 538.46 340.92, 537.43 342.08, 536.01 342.64 C 534.49 343.05, 532.98 343.51, 531.60 344.29 C 530.02 344.07, 528.69 343.09, 527.14 342.78 C 525.87 341.79, 524.36 341.30, 522.89 340.71 C 521.85 339.48, 521.23 337.97, 520.28 336.69 C 519.62 335.19, 519.26 333.64, 519.25 332.00 C 519.53 330.42, 520.35 329.05, 520.95 327.59 C 521.82 326.36, 522.83 325.22, 523.40 323.80 C 524.66 322.82, 525.85 321.76, 526.84 320.50 C 528.42 320.21, 530.02 320.51, 531.60 320.38 C 533.16 320.60, 534.75 320.24, 536.30 320.66 C 537.21 321.97, 538.40 323.00, 539.72 323.88 C 540.92 324.92, 541.84 326.21, 543.02 327.27 C 542.84 328.87, 543.17 330.43, 543.37 332.00" fill="none" stroke="black" stroke-width="2.0" stroke-linecap="round"/>
    <path d="M 679.86 332.00 C 680.02 333.58, 679.71 335.15, 679.81 336.73 C 678.88 338.03, 677.74 339.18, 677.03 340.63 C 675.62 341.45, 674.46 342.59, 673.21 343.61 C 671.59 343.64, 670.03 344.18, 668.40 344.08 C 666.83 343.84, 665.30 343.44, 663.71 343.32 C 662.41 342.34, 660.83 341.84, 659.51 340.89 C 658.85 339.43, 658.37 337.89, 657.58 336.48 C 656.75 335.09, 656.37 333.51, 655.84 332.00 C 656.18 330.42, 656.93 328.98, 657.51 327.49 C 658.40 326.25, 659.12 324.89, 660.15 323.75 C 661.60 323.15, 662.51 321.79, 663.87 321.07 C 665.30 320.37, 666.82 320.10, 668.40 320.09 C 669.82 320.72, 671.31 321.08, 672.85 321.26 C 674.37 321.72, 675.51 322.98, 677.08 323.32 C 678.34 324.40, 678.89 325.99, 679.95 327.21 C 679.72 328.81, 680.18 330.41, 679.86 332.00" fill="none" stroke="black" stroke-width="2.0" stroke-linecap="round"/>
    <path d="M 537.17 314.00 C 536.78 314.66, 536.87 315.41, 536.71 316.12 C 536.25 316.68, 535.77 317.22, 535.50 317.90 C 535.23 318.71, 534.27 318.95, 533.97 319.73 C 533.17 319.42, 532.39 319.62, 531.60 319.81 C 530.77 319.92, 529.91 319.62, 529.11 320.01 C 528.84 319.18, 528.48 318.40, 527.78 317.82 C 527.53 317.10, 526.97 316.63, 526.43 316.14 C 526.52 315.34, 525.80 314.78, 525.80 314.00 C 526.00 313.14, 525.55 312.34, 525.55 311.49 C 526.29 311.06, 527.07 310.69, 527.70 310.10 C 528.10 309.39, 528.79 308.90, 529.20 308.20 C 529.97 307.74, 530.77 307.69, 531.60 308.02 C 532.34 308.39, 533.14 308.36, 533.93 308.38 C 534.61 308.78, 535.34 309.13, 535.67 309.93 C 536.24 310.48, 536.83 311.01, 537.35 311.62 C 537.49 312.43, 537.41 313.22, 537.17 314.00" fill="none" stroke="black" stroke-width="2.0" stroke-linecap="round"/>
    <path d="M 520.60 333.00 C 518.99 336.50, 519.42 340.36, 518.60 344.00" fill="none" stroke="black" stroke-width="2.0" stroke-linecap="round"/>
    <path d="M 542.60 333.00 C 542.74 336.76, 543.41 340.43, 544.60 344.00" fill="none" stroke="black" stroke-width="2.0" stroke-linecap="round"/>
    <path d="M 430.00 60.00 C 480.00 60.06, 530.00 60.30, 580.00 60.00 C 583.83 62.84, 586.53 66.81, 590.00 70.00 C 590.59 92.00, 589.74 114.00, 590.00 136.00 C 586.92 139.58, 583.73 143.06, 580.00 146.00 C 530.00 146.41, 480.00 145.40, 430.00 146.00 C 426.44 142.89, 423.03 139.64, 420.00 136.00 C 419.75 114.00, 420.72 92.00, 420.00 70.00 C 423.31 66.65, 426.52 63.19, 430.00 60.00" fill="#f1e7cc" stroke="black" stroke-width="2.0" stroke-linecap="round" stroke-linejoin="round"/>
    <path d="M 532.60 146.00 C 534.75 209.34, 536.85 272.68, 539.60 336.00 C 542.17 272.68, 543.48 209.30, 546.60 146.00" fill="#f1e7cc" stroke="black" stroke-width="2.0" stroke-linecap="round" stroke-linejoin="round"/>
    <line x1="533.6" y1="146" x2="545.6" y2="146" stroke="#f1e7cc" stroke-width="2.4"/>
    <text x="505.0" y="78.0" text-anchor="middle" font-family="Comic Neue, Comic Sans MS, cursive" font-size="13" fill="black"><tspan x="505.0" dy="0">great concept but i</tspan><tspan x="505.0" dy="16">rather found it hard</tspan><tspan x="505.0" dy="16">to watch, john comes</tspan><tspan x="505.0" dy="16">from a shitty…</tspan></text>
  </g>
</svg>
