<?xml version="1.0" encoding="UTF-8"?>
<svg xmlns="http://www.w3.org/2000/svg" viewBox="0 0 328 398" width="328" height="398" role="img" aria-label="#019 — The Breakfast Club (1985)">
  <rect width="100%" height="100%" fill="white"/>
  <text x="164.0" y="32" text-anchor="middle" font-family="Comic Neue, Comic Sans MS, cursive" font-size="15" font-weight="700" fill="black">#019 — The Breakfast Club (1985) ★★★</text>
    <g class="panel">
    <rect x="14" y="44" width="300" height="340" fill="white" stroke="black" stroke-width="2"/>
    <rect x="29" y="58" width="270" height="102" rx="12" ry="12" fill="white" stroke="black" stroke-width="1.6"/>
    <polygon points="156.0,159 172.0,159 152.01353765872662,240" fill="white" stroke="black" stroke-width="1.6"/>
    <line x1="157.0" y1="160" x2="171.0" y2="160" stroke="white" stroke-width="2.2"/>
    <text x="164.0" y="76" text-anchor="middle" font-family="Comic Neue, Comic Sans MS, cursive" font-size="13" fill="black"><tspan x="164.0" dy="0">great concept but i</tspan><tspan x="164.0" dy="16">rather found it hard</tspan><tspan x="164.0" dy="16">to watch, john comes</tspan><tspan x="164.0" dy="16">from a shitty place i</tspan><tspan x="164.0" dy="16">agree but i do feel he</tspan></text>
    <circle cx="152.01353765872662" cy="254" r="14" fill="none" stroke="black" stroke-width="2.2"/>
    <line x1="152.01353765872662" y1="268" x2="152.01353765872662" y2="308" stroke="black" stroke-width="2.2"/>
    <line x1="152.01353765872662" y1="278" x2="130.01353765872662" y2="264" stroke="black" stroke-width="2.2"/>
    <line x1="130.01353765872662" y1="264" x2="126.01353765872662" y2="282" stroke="black" stroke-width="2.2"/>
    <line x1="152.01353765872662" y1="278" x2="174.01353765872662" y2="264" stroke="black" stroke-width="2.2"/>
    <line x1="174.01353765872662" y1="264" x2="178.01353765872662" y2="282" stroke="black" stroke-width="2.2"/>
    <line x1="152.01353765872662" y1="308" x2="138.01353765872662" y2="336" stroke="black" stroke-width="2.2"/>
    <line x1="152.01353765872662" y1="308" x2="166.01353765872662" y2="336" stroke="black" stroke-width="2.2"/>
    <line x1="34" y1="350" x2="294" y2="350" stroke="black" stroke-width="1.5"/>
</g>
</svg>
