<?xml version="1.0" encoding="UTF-8"?>
<svg xmlns="http://www.w3.org/2000/svg" viewBox="0 0 640 398" width="640" height="398" role="img" aria-label="#020 — Inglourious Basterds (2009)">
  <rect width="100%" height="100%" fill="white"/>
  <text x="320.0" y="32" text-anchor="middle" font-family="Comic Neue, Comic Sans MS, cursive" font-size="15" font-weight="700" fill="black">#020 — Inglourious Basterds (2009) ★★★★</text>
    <g class="panel">
    <rect x="14" y="44" width="300" height="340" fill="white" stroke="black" stroke-width="2"/>
    <rect x="29" y="58" width="270" height="86" rx="12" ry="12" fill="white" stroke="black" stroke-width="1.6"/>
    <polygon points="156.0,143 172.0,143 174.371733467615,240" fill="white" stroke="black" stroke-width="1.6"/>
    <line x1="157.0" y1="144" x2="171.0" y2="144" stroke="white" stroke-width="2.2"/>
    <text x="164.0" y="76" text-anchor="middle" font-family="Comic Neue, Comic Sans MS, cursive" font-size="13" fill="black"><tspan x="164.0" dy="0">What a cool movie Now</tspan><tspan x="164.0" dy="16">that is how you teach</tspan><tspan x="164.0" dy="16">history and I will</tspan><tspan x="164.0" dy="16">actually listen!!</tspan></text>
    <circle cx="174.371733467615" cy="254" r="14" fill="none" stroke="black" stroke-width="2.2"/>
    <line x1="174.371733467615" y1="268" x2="174.371733467615" y2="308" stroke="black" stroke-width="2.2"/>
    <line x1="174.371733467615" y1="280" x2="156.371733467615" y2="298" stroke="black" stroke-width="2.2"/>
    <line x1="174.371733467615" y1="280" x2="182.371733467615" y2="262" stroke="black" stroke-width="2.2"/>
    <line x1="182.371733467615" y1="262" x2="178.371733467615" y2="250" stroke="black" stroke-width="2.2"/>
    <line x1="174.371733467615" y1="308" x2="160.371733467615" y2="336" stroke="black" stroke-width="2.2"/>
    <line x1="174.371733467615" y1="308" x2="188.371733467615" y2="336" stroke="black" stroke-width="2.2"/>
    <line x1="34" y1="350" x2="294" y2="350" stroke="black" stroke-width="1.5"/>
</g>
  <g class="panel">
    <rect x="326" y="44" width="300" height="340" fill="white" stroke="black" stroke-width="2"/>
    <rect x="341" y="58" width="270" height="102" rx="12" ry="12" fill="white" stroke="black" stroke-width="1.6"/>
    <polygon points="468.0,159 484.0,159 449.20855721042983,240" fill="white" stroke="black" stroke-width="1.6"/>
    <line x1="469.0" y1="160" x2="483.0" y2="160" stroke="white" stroke-width="2.2"/>
    <text x="476.0" y="76" text-anchor="middle" font-family="Comic Neue, Comic Sans MS, cursive" font-size="13" fill="black"><tspan x="476.0" dy="0">Great way of showing</tspan><tspan x="476.0" dy="16">nazii cunningness with</tspan><tspan x="476.0" dy="16">the creme and three</tspan><tspan x="476.0" dy="16">glasses Visually</tspan><tspan x="476.0" dy="16">appealing Great</tspan></text>
    <circle cx="449.20855721042983" cy="264" r="14" fill="none" stroke="black" stroke-width="2.2"/>
    <line x1="449.20855721042983" y1="278" x2="449.20855721042983" y2="312" stroke="black" stroke-width="2.2"/>
    <line x1="449.20855721042983" y1="290" x2="431.20855721042983" y2="304" stroke="black" stroke-width="2.2"/>
    <line x1="449.20855721042983" y1="290" x2="467.20855721042983" y2="304" stroke="black" stroke-width="2.2"/>
    <line x1="449.20855721042983" y1="312" x2="475.20855721042983" y2="312" stroke="black" stroke-width="2.2"/>
    <line x1="475.20855721042983" y1="312" x2="475.20855721042983" y2="338" stroke="black" stroke-width="2.2"/>
    <line x1="449.20855721042983" y1="312" x2="435.20855721042983" y2="336" stroke="black" stroke-width="2.2"/>
    <line x1="346" y1="350" x2="606" y2="350" stroke="black" stroke-width="1.5"/>
</g>
</svg>
