<?xml version="1.0" encoding="UTF-8"?>
<svg xmlns="http://www.w3.org/2000/svg" viewBox="0 0 1200 402" width="1200" height="402" role="img" aria-label="#021 — TRON: Legacy (2010)">
  <defs><filter id="fibers" x="0%" y="0%" width="100%" height="100%"><feTurbulence type="fractalNoise" baseFrequency="0.04 0.7" numOctaves="2" stitchTiles="stitch" seed="9"/><feColorMatrix values="0 0 0 0 0.38  0 0 0 0 0.26  0 0 0 0 0.13  0 0 0 -0.7 0.28"/></filter><filter id="grain" x="0%" y="0%" width="100%" height="100%"><feTurbulence type="fractalNoise" baseFrequency="0.65" numOctaves="3" stitchTiles="stitch" seed="4"/><feColorMatrix values="0 0 0 0 0.42  0 0 0 0 0.30  0 0 0 0 0.16  0 0 0 -1.1 0.5"/></filter></defs>
  <rect width="100%" height="100%" fill="#e3d3a2"/>
  <rect width="100%" height="100%" filter="url(#fibers)" opacity="0.55"/>
  <rect width="100%" height="100%" filter="url(#grain)" opacity="0.85"/>
  <text x="600.0" y="34" text-anchor="middle" font-family="Comic Neue, Comic Sans MS, cursive" font-size="16" font-weight="700" fill="black">#021 — TRON: Legacy (2010) ★★★</text>
  <g class="panel">
    <path d="M 16.00 46.00 C 142.67 45.32, 269.33 45.94, 396.00 46.00 C 396.41 159.33, 395.74 272.67, 396.00 386.00 C 269.33 385.33, 142.67 386.29, 16.00 386.00 C 16.20 272.67, 16.08 159.33, 16.00 46.00" fill="none" stroke="black" stroke-width="2.0" stroke-linecap="round" stroke-linejoin="round"/>
    <path d="M 46.00 82.00 C 152.67 82.26, 259.33 81.38, 366.00 82.00 C 366.44 108.67, 365.61 135.33, 366.00 162.00 C 259.33 161.80, 152.67 161.72, 46.00 162.00 C 46.24 135.33, 45.67 108.67, 46.00 82.00" fill="#111" stroke="black" stroke-width="2.0" stroke-linecap="round" stroke-linejoin="round"/>
    <path d="M 50.00 86.00 C 154.00 85.24, 258.00 85.97, 362.00 86.00 C 361.36 110.00, 362.37 134.00, 362.00 158.00 C 258.00 157.97, 154.00 157.75, 50.00 158.00 C 49.59 134.00, 50.54 110.00, 50.00 86.00" fill="none" stroke="black" stroke-width="2.0" stroke-linecap="round" stroke-linejoin="round"/>
    <path d="M 66.00 362.00 C 112.67 362.69, 159.33 362.28, 206.00 362.00 C 203.97 352.09, 203.69 341.95, 202.00 332.00 C 199.78 325.15, 196.99 318.54, 194.00 312.00 C 155.33 311.61, 116.67 312.39, 78.00 312.00 C 75.11 318.58, 72.94 325.44, 70.00 332.00 C 68.36 341.96, 66.97 351.95, 66.00 362.00" fill="#222" stroke="black" stroke-width="2.0" stroke-linecap="round" stroke-linejoin="round"/>
    <path d="M 216.00 362.00 C 262.67 361.53, 309.33 362.47, 356.00 362.00 C 354.49 352.02, 352.92 342.06, 352.00 332.00 C 349.60 325.23, 346.09 318.90, 344.00 312.00 C 305.33 311.25, 266.67 311.90, 228.00 312.00 C 225.52 318.74, 222.37 325.21, 220.00 332.00 C 217.93 341.90, 218.03 352.09, 216.00 362.00" fill="#222" stroke="black" stroke-width="2.0" stroke-linecap="round" stroke-linejoin="round"/>
    <path d="M 149.66 332.00 C 149.16 333.53, 148.95 335.10, 148.95 336.70 C 147.92 337.97, 147.25 339.45, 146.46 340.86 C 145.05 341.65, 143.80 342.71, 142.29 343.32 C 140.69 343.56, 139.21 344.29, 137.60 344.49 C 136.01 344.15, 134.71 343.15, 133.22 342.57 C 131.85 341.88, 130.58 340.98, 129.09 340.51 C 128.18 339.22, 127.31 337.92, 126.36 336.65 C 126.29 335.10, 126.16 333.55, 126.15 332.00 C 126.53 330.41, 125.73 328.83, 126.12 327.24 C 127.23 326.06, 128.01 324.64, 128.89 323.29 C 130.20 322.35, 131.30 321.11, 132.83 320.48 C 134.42 320.52, 136.01 320.86, 137.60 320.53 C 139.08 320.73, 140.53 321.10, 141.99 321.40 C 143.41 321.99, 144.57 323.10, 146.08 323.52 C 146.76 324.98, 148.03 326.00, 148.90 327.32 C 149.05 328.90, 149.07 330.49, 149.66 332.00" fill="none" stroke="black" stroke-width="2.0" stroke-linecap="round"/>
    <path d="M 286.85 332.00 C 286.19 333.53, 286.43 335.23, 285.97 336.79 C 285.07 338.15, 283.46 338.79, 282.53 340.13 C 281.26 341.08, 280.21 342.25, 279.12 343.39 C 277.53 343.45, 275.93 343.38, 274.40 343.92 C 272.90 343.56, 271.31 343.58, 269.89 342.90 C 268.36 342.38, 266.97 341.58, 265.54 340.86 C 264.71 339.48, 264.20 337.96, 263.58 336.48 C 263.02 334.98, 262.68 333.40, 261.86 332.00 C 262.53 330.47, 262.40 328.78, 262.78 327.19 C 264.00 326.09, 265.01 324.83, 265.80 323.40 C 266.98 322.32, 268.61 321.92, 269.75 320.78 C 271.35 320.70, 272.78 319.81, 274.40 319.84 C 275.95 320.11, 277.54 320.23, 279.00 320.90 C 280.13 321.98, 281.53 322.69, 282.73 323.67 C 284.03 324.65, 285.01 325.93, 286.01 327.19 C 286.31 328.79, 286.42 330.42, 286.85 332.00" fill="none" stroke="black" stroke-width="2.0" stroke-linecap="round"/>
    <path d="M 125.60 330.00 C 125.24 340.69, 123.94 351.31, 123.60 362.00" fill="none" stroke="black" stroke-width="2.0" stroke-linecap="round"/>
    <path d="M 127.60 328.00 C 126.79 340.66, 127.04 353.37, 125.60 366.00" fill="none" stroke="black" stroke-width="2.0" stroke-linecap="round"/>
    <path d="M 149.60 330.00 C 149.55 340.71, 150.17 351.38, 151.60 362.00" fill="none" stroke="black" stroke-width="2.0" stroke-linecap="round"/>
    <path d="M 133.60 320.00 C 132.24 319.39, 131.32 317.89, 129.60 318.00" fill="none" stroke="black" stroke-width="1.4" stroke-linecap="round"/>
    <path d="M 141.60 320.00 C 142.76 318.99, 144.40 318.94, 145.60 318.00" fill="none" stroke="black" stroke-width="1.4" stroke-linecap="round"/>
    <path d="M 36.00 60.00 C 86.00 59.21, 136.00 60.55, 186.00 60.00 C 189.09 63.57, 193.03 66.30, 196.00 70.00 C 195.64 97.33, 195.43 124.67, 196.00 152.00 C 192.70 155.37, 189.45 158.78, 186.00 162.00 C 136.00 162.19, 86.00 161.45, 36.00 162.00 C 32.24 159.09, 29.73 154.94, 26.00 152.00 C 26.10 124.67, 25.56 97.33, 26.00 70.00 C 29.32 66.65, 32.49 63.15, 36.00 60.00" fill="#e3d3a2" stroke="black" stroke-width="2.0" stroke-linecap="round" stroke-linejoin="round"/>
    <path d="M 138.60 162.00 C 141.25 219.99, 143.70 277.98, 145.60 336.00 C 147.89 278.00, 150.01 219.99, 152.60 162.00" fill="#e3d3a2" stroke="black" stroke-width="2.0" stroke-linecap="round" stroke-linejoin="round"/>
    <line x1="139.60000000000002" y1="162" x2="151.60000000000002" y2="162" stroke="#e3d3a2" stroke-width="2.4"/>
    <text x="111.0" y="78.0" text-anchor="middle" font-family="Comic Neue, Comic Sans MS, cursive" font-size="13" fill="black"><tspan x="111.0" dy="0">The lightyyy bikes are</tspan><tspan x="111.0" dy="16">sick man For 2010 this</tspan><tspan x="111.0" dy="16">is DOPE shiiii Also</tspan><tspan x="111.0" dy="16">crazy soundtrack, daft</tspan><tspan x="111.0" dy="16">punk in the bar…</tspan></text>
    <path d="M 226.00 60.00 C 276.00 60.51, 326.00 60.41, 376.00 60.00 C 379.59 63.08, 382.27 67.06, 386.00 70.00 C 386.80 97.33, 385.62 124.67, 386.00 152.00 C 383.08 155.74, 379.16 158.49, 376.00 162.00 C 326.00 162.15, 276.00 161.94, 226.00 162.00 C 222.91 158.43, 219.85 154.82, 216.00 152.00 C 215.36 124.67, 215.46 97.33, 216.00 70.00 C 218.85 66.18, 222.77 63.44, 226.00 60.00" fill="#e3d3a2" stroke="black" stroke-width="2.0" stroke-linecap="round" stroke-linejoin="round"/>
    <path d="M 259.40 162.00 C 261.27 220.02, 264.36 277.99, 266.40 336.00 C 268.79 278.00, 271.64 220.02, 273.40 162.00" fill="#e3d3a2" stroke="black" stroke-width="2.0" stroke-linecap="round" stroke-linejoin="round"/>
    <line x1="260.40000000000003" y1="162" x2="272.40000000000003" y2="162" stroke="#e3d3a2" stroke-width="2.4"/>
    <text x="301.0" y="78.0" text-anchor="middle" font-family="Comic Neue, Comic Sans MS, cursive" font-size="13" fill="black"><tspan x="301.0" dy="0">Driving off into</tspan><tspan x="301.0" dy="16">sunrise w a pixie girl</tspan><tspan x="301.0" dy="16">he just saved from a</tspan><tspan x="301.0" dy="16">virtual world that his</tspan><tspan x="301.0" dy="16">pops created which…</tspan></text>
  </g>
  <g class="panel">
    <path d="M 410.00 46.00 C 536.67 45.96, 663.33 46.01, 790.00 46.00 C 790.06 159.33, 790.07 272.67, 790.00 386.00 C 663.33 386.73, 536.67 385.44, 410.00 386.00 C 409.41 272.67, 409.67 159.33, 410.00 46.00" fill="none" stroke="black" stroke-width="2.0" stroke-linecap="round" stroke-linejoin="round"/>
    <path d="M 440.00 82.00 C 546.67 81.96, 653.33 81.31, 760.00 82.00 C 760.20 108.67, 760.35 135.33, 760.00 162.00 C 653.33 162.74, 546.67 161.94, 440.00 162.00 C 440.17 135.33, 439.36 108.67, 440.00 82.00" fill="#111" stroke="black" stroke-width="2.0" stroke-linecap="round" stroke-linejoin="round"/>
    <path d="M 444.00 86.00 C 548.00 85.83, 652.00 86.36, 756.00 86.00 C 756.48 110.00, 755.93 134.00, 756.00 158.00 C 652.00 158.64, 548.00 158.75, 444.00 158.00 C 444.43 134.00, 444.61 110.00, 444.00 86.00" fill="none" stroke="black" stroke-width="2.0" stroke-linecap="round" stroke-linejoin="round"/>
    <path d="M 460.00 362.00 C 506.67 362.78, 553.33 362.46, 600.00 362.00 C 598.56 352.01, 597.31 342.00, 596.00 332.00 C 593.24 325.37, 590.20 318.85, 588.00 312.00 C 549.33 312.09, 510.67 311.26, 472.00 312.00 C 469.66 318.80, 466.52 325.27, 464.00 332.00 C 462.68 342.00, 461.07 351.96, 460.00 362.00" fill="#222" stroke="black" stroke-width="2.0" stroke-linecap="round" stroke-linejoin="round"/>
    <path d="M 610.00 362.00 C 656.67 362.02, 703.33 361.22, 750.00 362.00 C 748.64 352.00, 747.32 342.00, 746.00 332.00 C 743.41 325.30, 741.14 318.48, 738.00 312.00 C 699.33 311.31, 660.67 312.57, 622.00 312.00 C 619.81 318.86, 616.96 325.45, 614.00 332.00 C 612.81 342.02, 612.04 352.09, 610.00 362.00" fill="#222" stroke="black" stroke-width="2.0" stroke-linecap="round" stroke-linejoin="round"/>
    <path d="M 543.41 332.00 C 542.80 333.44, 542.92 335.03, 542.45 336.49 C 541.78 337.92, 540.69 339.13, 540.31 340.71 C 538.82 341.36, 537.61 342.44, 536.30 343.35 C 534.70 343.46, 533.12 343.61, 531.60 344.19 C 530.01 344.03, 528.61 343.31, 527.17 342.69 C 525.73 342.05, 524.15 341.71, 522.85 340.75 C 522.20 339.28, 521.44 337.87, 520.36 336.66 C 520.33 335.10, 520.44 333.54, 520.14 332.00 C 520.57 330.47, 520.26 328.90, 520.37 327.35 C 521.31 326.04, 521.89 324.53, 522.80 323.20 C 524.24 322.50, 525.48 321.45, 527.02 320.94 C 528.48 320.28, 530.06 320.03, 531.60 319.65 C 533.19 319.95, 534.82 319.95, 536.36 320.50 C 537.50 321.68, 538.97 322.40, 540.33 323.27 C 540.92 324.79, 542.03 325.98, 542.92 327.31 C 543.28 328.85, 542.95 330.47, 543.41 332.00" fill="none" stroke="black" stroke-width="2.0" stroke-linecap="round"/>
    <path d="M 680.55 332.00 C 680.42 333.58, 680.21 335.15, 679.57 336.63 C 678.79 337.99, 677.65 339.07, 676.69 340.29 C 675.54 341.31, 674.07 341.86, 672.90 342.86 C 671.41 343.15, 669.86 343.11, 668.40 343.58 C 666.82 343.29, 665.22 343.86, 663.63 343.50 C 662.10 342.89, 661.17 341.40, 659.67 340.73 C 659.01 339.20, 657.74 338.12, 656.76 336.82 C 656.43 335.22, 656.04 333.63, 655.90 332.00 C 656.23 330.41, 656.57 328.82, 656.83 327.21 C 657.90 326.02, 658.93 324.78, 660.25 323.85 C 661.65 323.27, 662.88 322.42, 664.03 321.46 C 665.41 320.80, 667.03 321.16, 668.40 320.45 C 669.97 320.29, 671.47 320.87, 673.03 320.82 C 674.41 321.59, 675.38 322.83, 676.51 323.89 C 677.32 325.16, 678.16 326.41, 679.16 327.54 C 679.85 328.96, 679.81 330.60, 680.55 332.00" fill="none" stroke="black" stroke-width="2.0" stroke-linecap="round"/>
    <path d="M 656.40 330.00 C 656.14 340.69, 655.16 351.34, 654.40 362.00" fill="none" stroke="black" stroke-width="2.0" stroke-linecap="round"/>
    <path d="M 658.40 328.00 C 658.29 340.70, 656.89 353.32, 656.40 366.00" fill="none" stroke="black" stroke-width="2.0" stroke-linecap="round"/>
    <path d="M 680.40 330.00 C 681.97 340.61, 682.69 351.27, 682.40 362.00" fill="none" stroke="black" stroke-width="2.0" stroke-linecap="round"/>
    <path d="M 664.40 320.00 C 663.17 319.13, 661.31 319.51, 660.40 318.00" fill="none" stroke="black" stroke-width="1.4" stroke-linecap="round"/>
    <path d="M 672.40 320.00 C 673.72 319.31, 674.88 318.29, 676.40 318.00" fill="none" stroke="black" stroke-width="1.4" stroke-linecap="round"/>
    <path d="M 430.00 60.00 C 480.00 60.03, 530.00 60.31, 580.00 60.00 C 582.90 63.77, 586.37 66.96, 590.00 70.00 C 590.66 81.33, 590.67 92.67, 590.00 104.00 C 586.36 107.03, 583.32 110.66, 580.00 114.00 C 530.00 113.84, 480.00 114.40, 430.00 114.00 C 426.29 111.04, 423.87 106.80, 420.00 104.00 C 420.13 92.67, 419.43 81.33, 420.00 70.00 C 423.14 66.47, 426.57 63.24, 430.00 60.00" fill="#e3d3a2" stroke="black" stroke-width="2.0" stroke-linecap="round" stroke-linejoin="round"/>
    <path d="M 532.60 114.00 C 534.50 188.01, 537.86 261.98, 539.60 336.00 C 541.82 262.00, 544.40 188.00, 546.60 114.00" fill="#e3d3a2" stroke="black" stroke-width="2.0" stroke-linecap="round" stroke-linejoin="round"/>
    <line x1="533.6" y1="114" x2="545.6" y2="114" stroke="#e3d3a2" stroke-width="2.4"/>
    <text x="505.0" y="78.0" text-anchor="middle" font-family="Comic Neue, Comic Sans MS, cursive" font-size="13" fill="black"><tspan x="505.0" dy="0">Sam Flynn you win you</tspan><tspan x="505.0" dy="16">wonn!</tspan></text>
    <path d="M 620.00 60.00 C 670.00 60.25, 720.00 60.25, 770.00 60.00 C 772.79 63.87, 776.56 66.78, 780.00 70.00 C 779.36 97.33, 779.95 124.67, 780.00 152.00 C 776.93 155.60, 773.09 158.42, 770.00 162.00 C 720.00 161.98, 670.00 162.06, 620.00 162.00 C 617.21 158.12, 613.16 155.51, 610.00 152.00 C 610.70 124.67, 609.28 97.33, 610.00 70.00 C 612.96 66.29, 617.04 63.71, 620.00 60.00" fill="#e3d3a2" stroke="black" stroke-width="2.0" stroke-linecap="round" stroke-linejoin="round"/>
    <path d="M 653.40 162.00 C 656.00 219.99, 657.34 278.03, 660.40 336.00 C 663.25 278.02, 665.85 220.03, 667.40 162.00" fill="#e3d3a2" stroke="black" stroke-width="2.0" stroke-linecap="round" stroke-linejoin="round"/>
    <line x1="654.4000000000001" y1="162" x2="666.4000000000001" y2="162" stroke="#e3d3a2" stroke-width="2.4"/>
    <text x="695.0" y="78.0" text-anchor="middle" font-family="Comic Neue, Comic Sans MS, cursive" font-size="13" fill="black"><tspan x="695.0" dy="0">Visually interesting</tspan><tspan x="695.0" dy="16">and banger soundtrack</tspan><tspan x="695.0" dy="16">yet a hard watch🙂↕️ No</tspan><tspan x="695.0" dy="16">character development</tspan><tspan x="695.0" dy="16">whatsoever</tspan></text>
  </g>
  <g class="panel">
    <path d="M 804.00 46.00 C 930.67 45.94, 1057.33 45.67, 1184.00 46.00 C 1183.50 159.33, 1183.47 272.67, 1184.00 386.00 C 1057.33 386.45, 930.67 386.30, 804.00 386.00 C 804.74 272.67, 803.61 159.33, 804.00 46.00" fill="none" stroke="black" stroke-width="2.0" stroke-linecap="round" stroke-linejoin="round"/>
    <path d="M 814.00 362.00 C 934.00 361.43, 1054.00 361.19, 1174.00 362.00" fill="none" stroke="black" stroke-width="1.4" stroke-linecap="round"/>
    <path d="M 968.09 270.00 C 967.70 271.52, 967.17 273.02, 967.15 274.62 C 966.13 275.84, 965.22 277.14, 964.64 278.64 C 963.33 279.55, 962.12 280.60, 960.70 281.35 C 959.15 281.70, 957.57 281.86, 956.00 282.06 C 954.41 281.99, 952.95 281.19, 951.33 281.27 C 950.14 280.27, 949.15 279.02, 947.79 278.21 C 946.92 276.80, 945.46 275.99, 944.36 274.82 C 944.33 273.20, 943.75 271.64, 943.92 270.00 C 944.38 268.52, 944.90 267.05, 945.21 265.53 C 946.25 264.41, 947.00 263.09, 947.81 261.81 C 948.98 260.80, 950.30 259.95, 951.36 258.81 C 952.90 258.33, 954.50 258.09, 956.00 257.48 C 957.55 257.92, 958.94 258.74, 960.39 259.41 C 961.55 260.40, 963.03 260.86, 964.26 261.74 C 965.04 263.03, 965.65 264.41, 966.55 265.63 C 967.22 267.03, 967.86 268.44, 968.09 270.00" fill="none" stroke="black" stroke-width="2.0" stroke-linecap="round"/>
    <path d="M 944.00 268.00 C 942.50 278.61, 942.57 289.33, 942.00 300.00" fill="none" stroke="black" stroke-width="2.0" stroke-linecap="round"/>
    <path d="M 946.00 266.00 C 945.62 278.68, 944.15 291.31, 944.00 304.00" fill="none" stroke="black" stroke-width="2.0" stroke-linecap="round"/>
    <path d="M 968.00 268.00 C 969.62 278.61, 968.58 289.38, 970.00 300.00" fill="none" stroke="black" stroke-width="2.0" stroke-linecap="round"/>
    <path d="M 952.00 258.00 C 950.24 258.18, 949.70 255.93, 948.00 256.00" fill="none" stroke="black" stroke-width="1.4" stroke-linecap="round"/>
    <path d="M 960.00 258.00 C 960.98 256.63, 962.55 256.43, 964.00 256.00" fill="none" stroke="black" stroke-width="1.4" stroke-linecap="round"/>
    <path d="M 956.00 282.00 C 956.70 296.00, 955.40 310.00, 956.00 324.00" fill="none" stroke="black" stroke-width="2.0" stroke-linecap="round"/>
    <path d="M 956.00 292.00 C 961.13 287.80, 964.88 282.22, 970.00 278.00" fill="none" stroke="black" stroke-width="2.0" stroke-linecap="round"/>
    <path d="M 970.00 278.00 C 967.44 276.92, 964.46 277.48, 962.00 276.00" fill="none" stroke="black" stroke-width="2.0" stroke-linecap="round"/>
    <path d="M 956.00 292.00 C 950.37 297.74, 945.73 304.35, 940.00 310.00" fill="none" stroke="black" stroke-width="2.0" stroke-linecap="round"/>
    <path d="M 956.00 324.00 C 952.19 332.75, 947.20 340.97, 944.00 350.00" fill="none" stroke="black" stroke-width="2.0" stroke-linecap="round"/>
    <path d="M 956.00 324.00 C 960.10 332.62, 963.97 341.35, 968.00 350.00" fill="none" stroke="black" stroke-width="2.0" stroke-linecap="round"/>
    <path d="M 1178.00 87.00 C 1172.78 91.38, 1167.20 95.31, 1161.90 99.58 C 1154.06 105.10, 1145.39 109.21, 1137.34 114.36 C 1122.46 114.80, 1107.58 114.87, 1092.70 115.27 C 1077.05 116.65, 1061.47 118.56, 1045.97 121.12 C 1032.91 116.85, 1019.48 113.89, 1006.40 109.67 C 995.10 107.49, 983.81 105.22, 972.70 102.19 C 971.16 97.11, 968.95 92.25, 968.00 87.00 C 968.98 81.76, 971.22 76.90, 972.70 71.81 C 983.93 69.33, 995.19 66.91, 1006.40 64.33 C 1019.78 61.16, 1032.81 56.81, 1045.97 52.88 C 1061.56 54.70, 1077.11 56.84, 1092.70 58.73 C 1107.56 59.78, 1122.46 59.00, 1137.34 59.64 C 1145.69 64.29, 1153.95 69.10, 1161.90 74.42 C 1166.94 79.02, 1172.47 83.02, 1178.00 87.00" fill="#e3d3a2" stroke="black" stroke-width="2.0" stroke-linecap="round" stroke-linejoin="round"/>
    <path d="M 1017.05 178.24 C 1017.18 178.82, 1016.94 179.36, 1016.86 179.92 C 1016.59 180.43, 1016.37 180.97, 1015.92 181.36 C 1015.47 181.72, 1014.86 181.78, 1014.43 182.18 C 1013.89 182.28, 1013.35 182.37, 1012.80 182.36 C 1012.24 182.42, 1011.81 181.92, 1011.25 181.98 C 1010.78 181.72, 1010.44 181.24, 1009.84 181.20 C 1009.28 180.86, 1009.58 180.15, 1009.23 179.72 C 1008.92 179.19, 1009.44 178.74, 1009.38 178.24 C 1009.33 177.65, 1009.38 177.02, 1008.82 176.59 C 1009.45 176.40, 1009.52 175.74, 1009.89 175.33 C 1010.45 175.35, 1010.94 175.16, 1011.42 174.90 C 1011.91 174.80, 1012.40 174.70, 1012.80 174.38 C 1013.42 174.45, 1013.94 174.05, 1014.54 174.04 C 1014.69 174.65, 1014.80 175.28, 1015.30 175.74 C 1015.71 176.02, 1016.19 176.23, 1016.27 176.80 C 1016.50 177.30, 1016.47 177.94, 1017.05 178.24" fill="#e3d3a2" stroke="black" stroke-width="2.0" stroke-linecap="round"/>
    <path d="M 995.29 201.60 C 995.01 202.00, 995.25 202.47, 995.12 202.89 C 994.66 203.17, 994.43 203.55, 994.50 204.10 C 994.02 204.31, 993.54 204.31, 993.05 204.14 C 992.70 204.33, 992.31 204.45, 992.00 204.73 C 991.71 204.26, 991.20 204.62, 990.83 204.42 C 990.30 204.21, 990.71 203.56, 990.30 203.30 C 989.93 203.20, 990.03 202.56, 989.52 202.63 C 989.03 202.46, 988.87 202.07, 988.84 201.60 C 989.12 201.24, 988.72 200.74, 989.07 200.39 C 989.26 200.01, 989.71 199.76, 989.65 199.25 C 990.10 199.19, 990.53 198.93, 991.00 199.18 C 991.14 198.66, 991.48 198.37, 992.00 198.27 C 992.42 198.56, 992.91 198.09, 993.33 198.39 C 993.36 198.91, 993.53 199.37, 993.79 199.81 C 994.23 199.91, 994.66 200.02, 994.99 200.36 C 995.15 200.76, 994.88 201.26, 995.29 201.60" fill="#e3d3a2" stroke="black" stroke-width="2.0" stroke-linecap="round"/>
    <path d="M 978.83 219.12 C 978.84 219.45, 978.75 219.75, 978.68 220.06 C 978.56 220.43, 978.22 220.50, 977.92 220.64 C 977.87 221.00, 977.58 221.16, 977.32 221.34 C 976.94 221.11, 976.62 221.09, 976.40 221.55 C 976.26 221.13, 975.77 221.43, 975.55 221.16 C 975.69 220.79, 975.33 220.56, 975.28 220.24 C 974.97 220.19, 974.65 220.17, 974.39 219.95 C 974.53 219.58, 974.04 219.45, 974.08 219.12 C 974.43 219.01, 974.55 218.70, 974.73 218.43 C 975.12 218.67, 975.05 217.97, 975.39 218.11 C 975.65 217.74, 975.42 217.32, 975.50 216.94 C 975.74 216.64, 976.09 216.75, 976.40 216.68 C 976.74 216.74, 977.01 216.91, 977.19 217.22 C 977.45 217.31, 977.75 217.33, 977.90 217.62 C 978.32 217.72, 978.29 218.03, 978.25 218.35 C 978.35 218.68, 978.59 218.90, 978.83 219.12" fill="#e3d3a2" stroke="black" stroke-width="2.0" stroke-linecap="round"/>
    <text x="1070.0" y="78.0" text-anchor="middle" font-family="Comic Neue, Comic Sans MS, cursive" font-size="13" fill="black"><tspan x="1070.0" dy="0">Sam Flynn you win you</tspan><tspan x="1070.0" dy="16">wonn!</tspan></text>
    
  </g>
</svg>
