<?xml version="1.0" encoding="UTF-8"?>
<svg xmlns="http://www.w3.org/2000/svg" viewBox="0 0 952 398" width="952" height="398" role="img" aria-label="#021 — TRON: Legacy (2010)">
  <rect width="100%" height="100%" fill="white"/>
  <text x="476.0" y="32" text-anchor="middle" font-family="Comic Neue, Comic Sans MS, cursive" font-size="15" font-weight="700" fill="black">#021 — TRON: Legacy (2010) ★★★</text>
    <g class="panel">
    <rect x="14" y="44" width="300" height="340" fill="white" stroke="black" stroke-width="2"/>
    <rect x="29" y="58" width="270" height="102" rx="12" ry="12" fill="white" stroke="black" stroke-width="1.6"/>
    <polygon points="156.0,159 172.0,159 193.8408440930189,240" fill="white" stroke="black" stroke-width="1.6"/>
    <line x1="157.0" y1="160" x2="171.0" y2="160" stroke="white" stroke-width="2.2"/>
    <text x="164.0" y="76" text-anchor="middle" font-family="Comic Neue, Comic Sans MS, cursive" font-size="13" fill="black"><tspan x="164.0" dy="0">The lightyyy bikes are</tspan><tspan x="164.0" dy="16">sick man For 2010 this</tspan><tspan x="164.0" dy="16">is DOPE shiiii Also</tspan><tspan x="164.0" dy="16">crazy soundtrack, daft</tspan><tspan x="164.0" dy="16">punk in the bar moving</tspan></text>
    <circle cx="193.8408440930189" cy="254" r="14" fill="none" stroke="black" stroke-width="2.2"/>
    <line x1="193.8408440930189" y1="268" x2="193.8408440930189" y2="308" stroke="black" stroke-width="2.2"/>
    <line x1="193.8408440930189" y1="274" x2="171.8408440930189" y2="250" stroke="black" stroke-width="2.2"/>
    <line x1="193.8408440930189" y1="274" x2="215.8408440930189" y2="250" stroke="black" stroke-width="2.2"/>
    <line x1="193.8408440930189" y1="308" x2="179.8408440930189" y2="336" stroke="black" stroke-width="2.2"/>
    <line x1="193.8408440930189" y1="308" x2="207.8408440930189" y2="336" stroke="black" stroke-width="2.2"/>
    <line x1="34" y1="350" x2="294" y2="350" stroke="black" stroke-width="1.5"/>
</g>
  <g class="panel">
    <rect x="326" y="44" width="300" height="340" fill="white" stroke="black" stroke-width="2"/>
    <rect x="341" y="58" width="270" height="102" rx="12" ry="12" fill="white" stroke="black" stroke-width="1.6"/>
    <polygon points="468.0,159 484.0,159 452.5461386033289,240" fill="white" stroke="black" stroke-width="1.6"/>
    <line x1="469.0" y1="160" x2="483.0" y2="160" stroke="white" stroke-width="2.2"/>
    <text x="476.0" y="76" text-anchor="middle" font-family="Comic Neue, Comic Sans MS, cursive" font-size="13" fill="black"><tspan x="476.0" dy="0">Driving off into</tspan><tspan x="476.0" dy="16">sunrise w a pixie girl</tspan><tspan x="476.0" dy="16">he just saved from a</tspan><tspan x="476.0" dy="16">virtual world that his</tspan><tspan x="476.0" dy="16">pops created which</tspan></text>
    <circle cx="452.5461386033289" cy="254" r="14" fill="none" stroke="black" stroke-width="2.2"/>
    <line x1="452.5461386033289" y1="268" x2="452.5461386033289" y2="308" stroke="black" stroke-width="2.2"/>
    <line x1="452.5461386033289" y1="280" x2="434.5461386033289" y2="298" stroke="black" stroke-width="2.2"/>
    <line x1="452.5461386033289" y1="280" x2="460.5461386033289" y2="262" stroke="black" stroke-width="2.2"/>
    <line x1="460.5461386033289" y1="262" x2="456.5461386033289" y2="250" stroke="black" stroke-width="2.2"/>
    <line x1="452.5461386033289" y1="308" x2="438.5461386033289" y2="336" stroke="black" stroke-width="2.2"/>
    <line x1="452.5461386033289" y1="308" x2="466.5461386033289" y2="336" stroke="black" stroke-width="2.2"/>
    <line x1="346" y1="350" x2="606" y2="350" stroke="black" stroke-width="1.5"/>
</g>
  <g class="panel">
    <rect x="638" y="44" width="300" height="340" fill="white" stroke="black" stroke-width="2"/>
    <rect x="653" y="58" width="270" height="54" rx="12" ry="12" fill="white" stroke="black" stroke-width="1.6"/>
    <polygon points="780.0,111 796.0,111 797.8542532423495,240" fill="white" stroke="black" stroke-width="1.6"/>
    <line x1="781.0" y1="112" x2="795.0" y2="112" stroke="white" stroke-width="2.2"/>
    <text x="788.0" y="76" text-anchor="middle" font-family="Comic Neue, Comic Sans MS, cursive" font-size="13" fill="black"><tspan x="788.0" dy="0">Sam Flynn you win you</tspan><tspan x="788.0" dy="16">wonn!</tspan></text>
    <circle cx="797.8542532423495" cy="254" r="14" fill="none" stroke="black" stroke-width="2.2"/>
    <line x1="797.8542532423495" y1="268" x2="797.8542532423495" y2="308" stroke="black" stroke-width="2.2"/>
    <line x1="797.8542532423495" y1="280" x2="779.8542532423495" y2="298" stroke="black" stroke-width="2.2"/>
    <line x1="797.8542532423495" y1="280" x2="815.8542532423495" y2="298" stroke="black" stroke-width="2.2"/>
    <line x1="797.8542532423495" y1="308" x2="783.8542532423495" y2="336" stroke="black" stroke-width="2.2"/>
    <line x1="797.8542532423495" y1="308" x2="811.8542532423495" y2="336" stroke="black" stroke-width="2.2"/>
    <line x1="658" y1="350" x2="918" y2="350" stroke="black" stroke-width="1.5"/>
</g>
</svg>
