<?xml version="1.0" encoding="UTF-8"?>
<svg xmlns="http://www.w3.org/2000/svg" viewBox="0 0 640 398" width="640" height="398" role="img" aria-label="#022 — The Perks of Being a Wallflower (2012)">
  <rect width="100%" height="100%" fill="white"/>
  <text x="320.0" y="32" text-anchor="middle" font-family="Comic Neue, Comic Sans MS, cursive" font-size="15" font-weight="700" fill="black">#022 — The Perks of Being a Wallflower (2012) ★★★½</text>
    <g class="panel">
    <rect x="14" y="44" width="300" height="340" fill="white" stroke="black" stroke-width="2"/>
    <rect x="29" y="58" width="270" height="54" rx="12" ry="12" fill="white" stroke="black" stroke-width="1.6"/>
    <polygon points="156.0,111 172.0,111 135.70570603974443,240" fill="white" stroke="black" stroke-width="1.6"/>
    <line x1="157.0" y1="112" x2="171.0" y2="112" stroke="white" stroke-width="2.2"/>
    <text x="164.0" y="76" text-anchor="middle" font-family="Comic Neue, Comic Sans MS, cursive" font-size="13" fill="black"><tspan x="164.0" dy="0">that was wayyyy</tspan><tspan x="164.0" dy="16">intense!</tspan></text>
    <circle cx="135.70570603974443" cy="254" r="14" fill="none" stroke="black" stroke-width="2.2"/>
    <line x1="135.70570603974443" y1="268" x2="135.70570603974443" y2="308" stroke="black" stroke-width="2.2"/>
    <line x1="135.70570603974443" y1="280" x2="117.70570603974443" y2="298" stroke="black" stroke-width="2.2"/>
    <line x1="135.70570603974443" y1="280" x2="153.70570603974443" y2="298" stroke="black" stroke-width="2.2"/>
    <line x1="135.70570603974443" y1="308" x2="121.70570603974443" y2="336" stroke="black" stroke-width="2.2"/>
    <line x1="135.70570603974443" y1="308" x2="149.70570603974443" y2="336" stroke="black" stroke-width="2.2"/>
    <line x1="34" y1="350" x2="294" y2="350" stroke="black" stroke-width="1.5"/>
</g>
  <g class="panel">
    <rect x="326" y="44" width="300" height="340" fill="white" stroke="black" stroke-width="2"/>
    <rect x="341" y="58" width="270" height="102" rx="12" ry="12" fill="white" stroke="black" stroke-width="1.6"/>
    <polygon points="468.0,159 484.0,159 499.9745319848648,240" fill="white" stroke="black" stroke-width="1.6"/>
    <line x1="469.0" y1="160" x2="483.0" y2="160" stroke="white" stroke-width="2.2"/>
    <text x="476.0" y="76" text-anchor="middle" font-family="Comic Neue, Comic Sans MS, cursive" font-size="13" fill="black"><tspan x="476.0" dy="0">It’s rare to find a</tspan><tspan x="476.0" dy="16">film that touches</tspan><tspan x="476.0" dy="16">loneliness without</tspan><tspan x="476.0" dy="16">glamorizing it.</tspan><tspan x="476.0" dy="16">visually stunning and</tspan></text>
    <circle cx="499.9745319848648" cy="254" r="14" fill="none" stroke="black" stroke-width="2.2"/>
    <line x1="499.9745319848648" y1="268" x2="499.9745319848648" y2="308" stroke="black" stroke-width="2.2"/>
    <line x1="499.9745319848648" y1="280" x2="525.9745319848648" y2="276" stroke="black" stroke-width="2.2"/>
    <line x1="499.9745319848648" y1="280" x2="483.9745319848648" y2="298" stroke="black" stroke-width="2.2"/>
    <line x1="499.9745319848648" y1="308" x2="485.9745319848648" y2="336" stroke="black" stroke-width="2.2"/>
    <line x1="499.9745319848648" y1="308" x2="513.9745319848648" y2="336" stroke="black" stroke-width="2.2"/>
    <line x1="346" y1="350" x2="606" y2="350" stroke="black" stroke-width="1.5"/>
</g>
</svg>
