<?xml version="1.0" encoding="UTF-8"?>
<svg xmlns="http://www.w3.org/2000/svg" viewBox="0 0 806 402" width="806" height="402" role="img" aria-label="#022 — The Perks of Being a Wallflower (2012)">
  <defs><filter id="fibers" x="0%" y="0%" width="100%" height="100%"><feTurbulence type="fractalNoise" baseFrequency="0.04 0.7" numOctaves="2" stitchTiles="stitch" seed="1"/><feColorMatrix values="0 0 0 0 0.38  0 0 0 0 0.26  0 0 0 0 0.13  0 0 0 -0.7 0.28"/></filter><filter id="grain" x="0%" y="0%" width="100%" height="100%"><feTurbulence type="fractalNoise" baseFrequency="0.65" numOctaves="3" stitchTiles="stitch" seed="5"/><feColorMatrix values="0 0 0 0 0.42  0 0 0 0 0.30  0 0 0 0 0.16  0 0 0 -1.1 0.5"/></filter></defs>
  <rect width="100%" height="100%" fill="#e3d3a2"/>
  <rect width="100%" height="100%" filter="url(#fibers)" opacity="0.55"/>
  <rect width="100%" height="100%" filter="url(#grain)" opacity="0.85"/>
  <text x="403.0" y="34" text-anchor="middle" font-family="Comic Neue, Comic Sans MS, cursive" font-size="16" font-weight="700" fill="black">#022 — The Perks of Being a Wallflower (2012) ★★★½</text>
  <g class="panel">
    <path d="M 16.00 46.00 C 142.67 45.34, 269.33 45.41, 396.00 46.00 C 395.73 159.33, 395.23 272.67, 396.00 386.00 C 269.33 386.27, 142.67 385.93, 16.00 386.00 C 15.90 272.67, 15.62 159.33, 16.00 46.00" fill="none" stroke="black" stroke-width="2.0" stroke-linecap="round" stroke-linejoin="round"/>
    <path d="M 26.00 356.00 C 146.00 356.43, 266.00 356.19, 386.00 356.00" fill="none" stroke="black" stroke-width="1.4" stroke-linecap="round"/>
    <path d="M 30.00 280.00 C 56.67 280.14, 83.33 279.26, 110.00 280.00 C 110.32 298.67, 110.76 317.33, 110.00 336.00 C 83.33 335.95, 56.67 335.54, 30.00 336.00 C 29.98 317.33, 29.39 298.67, 30.00 280.00" fill="none" stroke="black" stroke-width="2.0" stroke-linecap="round" stroke-linejoin="round"/>
    <path d="M 36.00 286.00 C 58.67 285.65, 81.33 286.69, 104.00 286.00 C 103.30 300.67, 104.00 315.33, 104.00 330.00 C 81.33 329.77, 58.67 330.65, 36.00 330.00 C 36.09 315.33, 36.05 300.67, 36.00 286.00" fill="none" stroke="black" stroke-width="2.0" stroke-linecap="round" stroke-linejoin="round"/>
    <path d="M 56.00 336.00 C 65.33 336.03, 74.67 336.99, 84.00 336.00" fill="none" stroke="black" stroke-width="1.4" stroke-linecap="round"/>
    <path d="M 70.00 336.00 C 69.62 338.67, 69.02 341.33, 70.00 344.00" fill="none" stroke="black" stroke-width="1.4" stroke-linecap="round"/>
    <path d="M 56.00 346.00 C 65.33 346.06, 74.67 346.21, 84.00 346.00" fill="none" stroke="black" stroke-width="1.4" stroke-linecap="round"/>
    <path d="M 42.00 322.00 C 45.36 313.34, 48.34 304.54, 52.00 296.00 C 57.18 305.08, 61.38 314.64, 66.00 324.00 C 71.07 315.55, 75.76 306.90, 80.00 298.00 C 85.04 305.55, 90.30 312.93, 96.00 320.00" fill="none" stroke="black" stroke-width="2.0" stroke-linecap="round" stroke-linejoin="round"/>
    <path d="M 110.00 300.00 C 160.67 299.95, 211.33 300.67, 262.00 300.00 C 261.29 310.00, 262.56 320.00, 262.00 330.00 C 211.33 330.11, 160.67 329.84, 110.00 330.00 C 110.33 320.00, 109.82 310.00, 110.00 300.00" fill="none" stroke="black" stroke-width="2.0" stroke-linecap="round" stroke-linejoin="round"/>
    <path d="M 110.00 330.00 C 160.67 329.58, 211.33 330.01, 262.00 330.00 C 261.48 342.00, 262.07 354.00, 262.00 366.00 C 211.33 366.54, 160.67 366.47, 110.00 366.00 C 109.92 354.00, 110.53 342.00, 110.00 330.00" fill="none" stroke="black" stroke-width="2.0" stroke-linecap="round" stroke-linejoin="round"/>
    <path d="M 102.00 312.00 C 104.67 311.25, 107.33 311.49, 110.00 312.00 C 110.44 330.00, 110.48 348.00, 110.00 366.00 C 107.33 365.43, 104.67 365.39, 102.00 366.00 C 102.08 348.00, 101.73 330.00, 102.00 312.00" fill="none" stroke="black" stroke-width="2.0" stroke-linecap="round" stroke-linejoin="round"/>
    <path d="M 262.00 312.00 C 264.67 312.72, 267.33 311.63, 270.00 312.00 C 270.16 330.00, 269.62 348.00, 270.00 366.00 C 267.33 365.40, 264.67 366.70, 262.00 366.00 C 261.48 348.00, 261.60 330.00, 262.00 312.00" fill="none" stroke="black" stroke-width="2.0" stroke-linecap="round" stroke-linejoin="round"/>
    <path d="M 186.00 330.00 C 186.66 342.00, 185.11 354.00, 186.00 366.00" fill="none" stroke="black" stroke-width="1.4" stroke-linecap="round"/>
    <path d="M 157.97 300.00 C 157.82 301.57, 157.34 303.09, 157.27 304.67 C 156.72 306.21, 155.73 307.51, 154.89 308.89 C 153.48 309.67, 152.07 310.44, 150.56 311.02 C 149.10 311.60, 147.58 311.90, 146.00 311.80 C 144.41 311.43, 142.79 311.94, 141.20 311.60 C 139.88 310.67, 138.54 309.77, 137.54 308.46 C 136.72 307.07, 135.67 305.87, 134.53 304.75 C 134.64 303.17, 134.16 301.59, 134.44 300.00 C 134.11 298.40, 134.76 296.78, 134.37 295.18 C 135.08 293.69, 136.14 292.44, 137.16 291.16 C 138.69 290.64, 140.01 289.72, 141.48 289.09 C 142.91 288.36, 144.39 287.84, 146.00 287.70 C 147.55 288.03, 148.93 288.87, 150.47 289.20 C 151.97 289.70, 153.08 290.84, 154.42 291.58 C 155.74 292.55, 156.67 293.88, 157.62 295.19 C 157.85 296.78, 158.16 298.37, 157.97 300.00" fill="none" stroke="black" stroke-width="2.0" stroke-linecap="round"/>
    <path d="M 134.00 298.00 C 133.08 308.65, 133.32 319.37, 132.00 330.00" fill="none" stroke="black" stroke-width="2.0" stroke-linecap="round"/>
    <path d="M 136.00 296.00 C 134.58 308.63, 135.64 321.38, 134.00 334.00" fill="none" stroke="black" stroke-width="2.0" stroke-linecap="round"/>
    <path d="M 158.00 298.00 C 158.21 308.70, 159.04 319.35, 160.00 330.00" fill="none" stroke="black" stroke-width="2.0" stroke-linecap="round"/>
    <path d="M 142.00 288.00 C 140.49 287.69, 139.05 287.23, 138.00 286.00" fill="none" stroke="black" stroke-width="1.4" stroke-linecap="round"/>
    <path d="M 150.00 288.00 C 151.19 287.05, 153.08 287.49, 154.00 286.00" fill="none" stroke="black" stroke-width="1.4" stroke-linecap="round"/>
    <path d="M 146.00 312.00 C 145.46 321.33, 145.76 330.67, 146.00 340.00" fill="none" stroke="black" stroke-width="2.0" stroke-linecap="round"/>
    <path d="M 146.00 326.00 C 140.87 330.28, 135.13 333.72, 130.00 338.00" fill="none" stroke="black" stroke-width="2.0" stroke-linecap="round"/>
    <path d="M 146.00 326.00 C 151.71 329.50, 157.00 333.56, 162.00 338.00" fill="none" stroke="black" stroke-width="2.0" stroke-linecap="round"/>
    <path d="M 146.00 340.00 C 154.00 339.72, 162.00 339.07, 170.00 340.00" fill="none" stroke="black" stroke-width="2.0" stroke-linecap="round"/>
    <path d="M 170.00 340.00 C 170.80 345.99, 171.67 351.96, 172.00 358.00" fill="none" stroke="black" stroke-width="2.0" stroke-linecap="round"/>
    <path d="M 146.00 340.00 C 143.95 346.27, 141.00 352.15, 138.00 358.00" fill="none" stroke="black" stroke-width="2.0" stroke-linecap="round"/>
    <path d="M 237.48 300.00 C 236.94 301.44, 237.07 302.98, 236.75 304.45 C 236.30 305.99, 235.28 307.26, 234.77 308.77 C 233.25 309.30, 231.91 310.16, 230.55 310.98 C 229.03 311.27, 227.54 311.69, 226.00 311.84 C 224.53 311.35, 222.91 311.57, 221.47 310.94 C 220.11 310.21, 219.11 308.99, 217.80 308.20 C 216.90 306.99, 215.95 305.81, 215.33 304.42 C 214.90 302.90, 214.20 301.48, 213.66 300.00 C 214.15 298.45, 213.98 296.79, 214.54 295.25 C 215.82 294.27, 216.93 293.13, 217.68 291.68 C 218.94 290.77, 219.93 289.51, 221.36 288.81 C 222.87 288.28, 224.44 288.05, 226.00 287.73 C 227.50 288.27, 229.00 288.81, 230.63 288.82 C 231.92 289.70, 232.87 290.99, 234.23 291.77 C 235.29 292.88, 236.08 294.17, 236.71 295.56 C 237.32 296.98, 237.08 298.55, 237.48 300.00" fill="none" stroke="black" stroke-width="2.0" stroke-linecap="round"/>
    <path d="M 226.00 312.00 C 225.89 321.33, 226.59 330.67, 226.00 340.00" fill="none" stroke="black" stroke-width="2.0" stroke-linecap="round"/>
    <path d="M 226.00 326.00 C 220.34 329.56, 214.86 333.37, 210.00 338.00" fill="none" stroke="black" stroke-width="2.0" stroke-linecap="round"/>
    <path d="M 226.00 326.00 C 231.79 329.39, 236.86 333.74, 242.00 338.00" fill="none" stroke="black" stroke-width="2.0" stroke-linecap="round"/>
    <path d="M 226.00 340.00 C 234.00 340.92, 242.00 340.10, 250.00 340.00" fill="none" stroke="black" stroke-width="2.0" stroke-linecap="round"/>
    <path d="M 250.00 340.00 C 250.51 346.02, 251.03 352.03, 252.00 358.00" fill="none" stroke="black" stroke-width="2.0" stroke-linecap="round"/>
    <path d="M 226.00 340.00 C 222.61 345.68, 220.19 351.79, 218.00 358.00" fill="none" stroke="black" stroke-width="2.0" stroke-linecap="round"/>
    <path d="M 36.00 60.00 C 77.33 60.39, 118.67 60.48, 160.00 60.00 C 163.33 63.34, 166.16 67.18, 170.00 70.00 C 169.63 81.33, 170.04 92.67, 170.00 104.00 C 167.20 107.87, 163.01 110.34, 160.00 114.00 C 118.67 113.87, 77.33 114.35, 36.00 114.00 C 32.97 110.36, 28.97 107.70, 26.00 104.00 C 25.96 92.67, 26.03 81.33, 26.00 70.00 C 29.07 66.41, 32.25 62.91, 36.00 60.00" fill="#e3d3a2" stroke="black" stroke-width="2.0" stroke-linecap="round" stroke-linejoin="round"/>
    <path d="M 131.00 114.00 C 133.28 177.34, 136.46 240.64, 138.00 304.00 C 140.00 240.65, 141.88 177.30, 145.00 114.00" fill="#e3d3a2" stroke="black" stroke-width="2.0" stroke-linecap="round" stroke-linejoin="round"/>
    <line x1="132.0" y1="114" x2="144.0" y2="114" stroke="#e3d3a2" stroke-width="2.4"/>
    <text x="98.0" y="78.0" text-anchor="middle" font-family="Comic Neue, Comic Sans MS, cursive" font-size="13" fill="black"><tspan x="98.0" dy="0">that was wayyyy</tspan><tspan x="98.0" dy="16">intense!</tspan></text>
    <path d="M 226.00 60.00 C 276.00 60.69, 326.00 60.68, 376.00 60.00 C 379.06 63.61, 382.49 66.84, 386.00 70.00 C 386.37 97.33, 386.16 124.67, 386.00 152.00 C 382.97 155.63, 379.63 158.97, 376.00 162.00 C 326.00 162.72, 276.00 162.04, 226.00 162.00 C 223.07 158.26, 219.27 155.40, 216.00 152.00 C 215.20 124.67, 216.44 97.33, 216.00 70.00 C 219.20 66.53, 223.21 63.88, 226.00 60.00" fill="#e3d3a2" stroke="black" stroke-width="2.0" stroke-linecap="round" stroke-linejoin="round"/>
    <path d="M 221.00 162.00 C 219.30 209.32, 218.73 256.66, 218.00 304.00 C 223.26 256.62, 230.10 209.43, 235.00 162.00" fill="#e3d3a2" stroke="black" stroke-width="2.0" stroke-linecap="round" stroke-linejoin="round"/>
    <line x1="222" y1="162" x2="234" y2="162" stroke="#e3d3a2" stroke-width="2.4"/>
    <text x="301.0" y="78.0" text-anchor="middle" font-family="Comic Neue, Comic Sans MS, cursive" font-size="13" fill="black"><tspan x="301.0" dy="0">It’s rare to find a</tspan><tspan x="301.0" dy="16">film that touches</tspan><tspan x="301.0" dy="16">loneliness without</tspan><tspan x="301.0" dy="16">glamorizing it.</tspan><tspan x="301.0" dy="16">visually stunning and</tspan></text>
  </g>
  <g class="panel">
    <path d="M 410.00 46.00 C 536.67 45.36, 663.33 45.81, 790.00 46.00 C 790.29 159.33, 789.50 272.67, 790.00 386.00 C 663.33 385.86, 536.67 385.30, 410.00 386.00 C 410.49 272.67, 409.27 159.33, 410.00 46.00" fill="none" stroke="black" stroke-width="2.0" stroke-linecap="round" stroke-linejoin="round"/>
    <path d="M 420.00 362.00 C 540.00 361.06, 660.00 362.64, 780.00 362.00" fill="none" stroke="black" stroke-width="1.4" stroke-linecap="round"/>
    <path d="M 545.60 326.00 C 553.60 326.10, 561.60 326.14, 569.60 326.00 C 568.32 336.63, 567.84 347.31, 567.60 358.00 C 560.93 357.75, 554.27 358.62, 547.60 358.00 C 547.23 347.31, 546.28 336.67, 545.60 326.00" fill="none" stroke="black" stroke-width="2.0" stroke-linecap="round" stroke-linejoin="round"/>
    <path d="M 551.60 328.00 C 551.91 337.33, 551.11 346.67, 551.60 356.00" fill="none" stroke="black" stroke-width="1.4" stroke-linecap="round"/>
    <path d="M 557.60 328.00 C 558.14 337.33, 557.49 346.67, 557.60 356.00" fill="none" stroke="black" stroke-width="1.4" stroke-linecap="round"/>
    <path d="M 563.60 328.00 C 564.17 337.33, 563.26 346.67, 563.60 356.00" fill="none" stroke="black" stroke-width="1.4" stroke-linecap="round"/>
    <path d="M 554.03 324.00 C 553.98 324.58, 554.32 324.96, 554.72 325.29 C 554.34 325.64, 553.86 325.70, 553.38 325.78 C 553.02 326.05, 552.73 326.35, 552.78 326.85 C 552.24 326.83, 551.81 326.99, 551.60 327.54 C 551.13 327.24, 550.90 326.76, 550.65 326.30 C 550.58 325.84, 550.24 325.76, 549.86 325.74 C 549.46 325.59, 548.94 325.69, 548.70 325.20 C 549.05 324.83, 548.84 324.41, 548.81 324.00 C 548.68 323.61, 548.69 323.23, 548.80 322.84 C 549.26 322.83, 549.40 322.30, 549.81 322.21 C 550.16 322.00, 550.27 321.61, 550.48 321.30 C 550.78 321.69, 551.19 321.64, 551.60 321.59 C 551.98 321.28, 552.58 321.35, 552.88 320.90 C 553.09 321.37, 553.44 321.63, 553.97 321.63 C 553.66 322.09, 553.97 322.58, 553.88 323.05 C 554.13 323.34, 553.91 323.70, 554.03 324.00" fill="none" stroke="black" stroke-width="2.0" stroke-linecap="round"/>
    <path d="M 562.59 320.00 C 562.54 320.52, 562.02 320.93, 562.25 321.51 C 561.73 321.87, 561.59 322.40, 561.59 322.99 C 561.11 323.25, 560.67 323.60, 560.08 323.57 C 559.53 323.61, 559.09 323.93, 558.60 324.11 C 558.03 324.11, 557.45 323.85, 556.88 324.15 C 556.48 323.69, 555.86 323.57, 555.40 323.20 C 555.07 322.56, 555.24 321.94, 555.44 321.31 C 554.71 321.15, 554.55 320.38, 554.03 320.00 C 554.57 319.58, 554.72 319.01, 554.63 318.36 C 555.10 318.04, 555.45 317.62, 555.74 317.14 C 556.20 316.89, 556.68 316.69, 557.10 316.38 C 557.62 316.54, 558.09 316.20, 558.60 316.24 C 559.12 316.01, 559.68 316.57, 560.19 316.15 C 560.74 316.30, 561.18 316.68, 561.68 316.92 C 561.46 317.52, 561.99 318.09, 561.76 318.69 C 562.15 319.06, 562.44 319.49, 562.59 320.00" fill="none" stroke="black" stroke-width="2.0" stroke-linecap="round"/>
    <path d="M 568.67 325.00 C 568.85 325.45, 568.86 325.86, 568.41 326.17 C 568.18 326.49, 567.90 326.76, 567.52 326.92 C 567.35 327.29, 567.08 327.52, 566.67 327.57 C 566.47 328.06, 565.82 327.99, 565.60 328.45 C 565.41 327.93, 564.65 328.24, 564.49 327.68 C 564.31 327.23, 563.69 327.53, 563.50 327.10 C 563.20 326.83, 563.11 326.44, 562.92 326.11 C 563.08 325.70, 562.87 325.36, 562.73 325.00 C 562.75 324.55, 562.21 324.21, 562.49 323.71 C 562.92 323.55, 563.37 323.41, 563.46 322.86 C 563.70 322.50, 563.80 322.02, 564.32 321.90 C 564.75 321.84, 565.16 321.70, 565.60 321.68 C 565.95 321.97, 566.42 322.13, 566.59 322.61 C 567.10 322.95, 567.56 322.25, 568.06 322.54 C 568.59 322.75, 568.37 323.39, 568.73 323.70 C 568.87 324.14, 568.85 324.57, 568.67 325.00" fill="none" stroke="black" stroke-width="2.0" stroke-linecap="round"/>
    <path d="M 544.10 270.00 C 543.55 271.50, 543.29 273.10, 542.52 274.52 C 542.08 276.08, 541.20 277.42, 540.40 278.80 C 539.17 279.89, 537.42 279.98, 536.16 281.02 C 534.64 281.29, 533.19 281.93, 531.60 281.81 C 530.17 281.25, 528.61 281.22, 527.16 280.72 C 525.73 280.10, 524.35 279.37, 522.99 278.61 C 522.24 277.20, 521.05 276.09, 520.29 274.68 C 519.96 273.11, 519.76 271.50, 519.13 270.00 C 519.74 268.53, 520.59 267.16, 520.94 265.59 C 521.82 264.33, 522.56 262.99, 523.20 261.60 C 524.38 260.60, 525.74 259.87, 527.12 259.18 C 528.56 258.56, 530.04 258.12, 531.60 257.92 C 533.23 257.76, 534.79 258.25, 536.39 258.45 C 537.60 259.51, 538.76 260.63, 540.20 261.40 C 540.72 262.87, 541.48 264.23, 542.22 265.60 C 542.79 267.09, 543.37 268.58, 544.10 270.00" fill="none" stroke="black" stroke-width="2.0" stroke-linecap="round"/>
    <path d="M 531.60 282.00 C 530.82 296.00, 531.83 310.00, 531.60 324.00" fill="none" stroke="black" stroke-width="2.0" stroke-linecap="round"/>
    <path d="M 531.60 290.00 C 525.60 296.14, 521.34 303.66, 515.60 310.00" fill="none" stroke="black" stroke-width="2.0" stroke-linecap="round"/>
    <path d="M 531.60 290.00 C 537.14 296.50, 542.98 302.76, 547.60 310.00" fill="none" stroke="black" stroke-width="2.0" stroke-linecap="round"/>
    <path d="M 531.60 324.00 C 527.45 332.60, 523.56 341.31, 519.60 350.00" fill="none" stroke="black" stroke-width="2.0" stroke-linecap="round"/>
    <path d="M 531.60 324.00 C 535.51 332.71, 540.28 341.02, 543.60 350.00" fill="none" stroke="black" stroke-width="2.0" stroke-linecap="round"/>
    <path d="M 680.82 270.00 C 680.51 271.58, 680.09 273.14, 679.82 274.73 C 678.85 276.03, 678.26 277.57, 677.19 278.79 C 675.74 279.45, 674.26 280.05, 672.95 280.98 C 671.38 281.08, 669.99 282.01, 668.40 281.98 C 666.82 281.91, 665.43 281.18, 663.98 280.67 C 662.61 279.98, 661.42 278.94, 659.93 278.47 C 659.12 277.14, 658.36 275.78, 657.35 274.58 C 656.81 273.07, 656.28 271.56, 655.93 270.00 C 656.09 268.37, 657.37 267.13, 657.54 265.50 C 657.95 263.93, 658.96 262.63, 659.54 261.14 C 660.76 260.03, 662.25 259.35, 663.64 258.52 C 665.23 258.12, 666.82 258.64, 668.40 258.46 C 669.92 258.63, 671.43 258.93, 672.96 259.00 C 674.11 259.99, 675.08 261.22, 676.49 261.91 C 677.77 262.85, 678.84 263.99, 679.71 265.31 C 679.70 266.97, 680.21 268.49, 680.82 270.00" fill="none" stroke="black" stroke-width="2.0" stroke-linecap="round"/>
    <path d="M 656.40 268.00 C 655.02 278.62, 655.57 289.37, 654.40 300.00" fill="none" stroke="black" stroke-width="2.0" stroke-linecap="round"/>
    <path d="M 658.40 266.00 C 658.62 278.71, 657.65 291.36, 656.40 304.00" fill="none" stroke="black" stroke-width="2.0" stroke-linecap="round"/>
    <path d="M 680.40 268.00 C 680.67 278.69, 681.10 289.37, 682.40 300.00" fill="none" stroke="black" stroke-width="2.0" stroke-linecap="round"/>
    <path d="M 664.40 258.00 C 662.85 257.76, 661.79 256.56, 660.40 256.00" fill="none" stroke="black" stroke-width="1.4" stroke-linecap="round"/>
    <path d="M 672.40 258.00 C 673.52 256.91, 674.69 255.91, 676.40 256.00" fill="none" stroke="black" stroke-width="1.4" stroke-linecap="round"/>
    <path d="M 668.40 282.00 C 669.14 296.00, 668.88 310.00, 668.40 324.00" fill="none" stroke="black" stroke-width="2.0" stroke-linecap="round"/>
    <path d="M 668.40 292.00 C 658.97 291.35, 649.68 289.67, 640.40 288.00" fill="none" stroke="black" stroke-width="2.0" stroke-linecap="round"/>
    <path d="M 668.40 292.00 C 674.35 297.45, 678.91 304.14, 684.40 310.00" fill="none" stroke="black" stroke-width="2.0" stroke-linecap="round"/>
    <path d="M 668.40 324.00 C 664.52 332.72, 660.30 341.29, 656.40 350.00" fill="none" stroke="black" stroke-width="2.0" stroke-linecap="round"/>
    <path d="M 668.40 324.00 C 672.28 332.72, 677.03 341.04, 680.40 350.00" fill="none" stroke="black" stroke-width="2.0" stroke-linecap="round"/>
    <path d="M 430.00 60.00 C 480.00 59.96, 530.00 59.49, 580.00 60.00 C 583.70 62.97, 586.58 66.75, 590.00 70.00 C 589.43 92.00, 589.50 114.00, 590.00 136.00 C 586.65 139.31, 582.77 142.11, 580.00 146.00 C 530.00 145.95, 480.00 146.39, 430.00 146.00 C 426.82 142.52, 423.82 138.85, 420.00 136.00 C 420.34 114.00, 419.77 92.00, 420.00 70.00 C 423.03 66.36, 426.80 63.46, 430.00 60.00" fill="#e3d3a2" stroke="black" stroke-width="2.0" stroke-linecap="round" stroke-linejoin="round"/>
    <path d="M 532.60 146.00 C 534.38 188.70, 537.10 231.34, 539.60 274.00 C 541.50 231.31, 544.99 188.71, 546.60 146.00" fill="#e3d3a2" stroke="black" stroke-width="2.0" stroke-linecap="round" stroke-linejoin="round"/>
    <line x1="533.6" y1="146" x2="545.6" y2="146" stroke="#e3d3a2" stroke-width="2.4"/>
    <text x="505.0" y="78.0" text-anchor="middle" font-family="Comic Neue, Comic Sans MS, cursive" font-size="13" fill="black"><tspan x="505.0" dy="0">It’s rare to find a</tspan><tspan x="505.0" dy="16">film that touches</tspan><tspan x="505.0" dy="16">loneliness without</tspan><tspan x="505.0" dy="16">glamorizing it.…</tspan></text>
  </g>
</svg>
