<?xml version="1.0" encoding="UTF-8"?>
<svg xmlns="http://www.w3.org/2000/svg" viewBox="0 0 412 402" width="412" height="402" role="img" aria-label="#023 — Bāhubali: The Epic (2025)">
  <rect width="100%" height="100%" fill="#f1e7cc"/>
  <text x="206.0" y="34" text-anchor="middle" font-family="Comic Neue, Comic Sans MS, cursive" font-size="16" font-weight="700" fill="black">#023 — Bāhubali: The Epic (2025) ★★★★★</text>
  <g class="panel">
    <path d="M 16.00 46.00 C 142.67 46.68, 269.33 46.64, 396.00 46.00 C 395.47 159.33, 396.18 272.67, 396.00 386.00 C 269.33 385.49, 142.67 385.84, 16.00 386.00 C 16.11 272.67, 15.23 159.33, 16.00 46.00" fill="none" stroke="black" stroke-width="2.0" stroke-linecap="round" stroke-linejoin="round"/>
    <path d="M 26.00 362.00 C 146.00 361.94, 266.00 361.82, 386.00 362.00" fill="none" stroke="black" stroke-width="1.4" stroke-linecap="round"/>
    <path d="M 151.60 326.00 C 159.60 326.19, 167.60 326.25, 175.60 326.00 C 174.16 336.62, 173.94 347.31, 173.60 358.00 C 166.93 358.55, 160.27 358.58, 153.60 358.00 C 152.78 347.34, 152.79 336.63, 151.60 326.00" fill="none" stroke="black" stroke-width="2.0" stroke-linecap="round" stroke-linejoin="round"/>
    <path d="M 157.60 328.00 C 157.25 337.33, 157.74 346.67, 157.60 356.00" fill="none" stroke="black" stroke-width="1.4" stroke-linecap="round"/>
    <path d="M 163.60 328.00 C 164.38 337.33, 163.87 346.67, 163.60 356.00" fill="none" stroke="black" stroke-width="1.4" stroke-linecap="round"/>
    <path d="M 169.60 328.00 C 170.58 337.33, 168.67 346.67, 169.60 356.00" fill="none" stroke="black" stroke-width="1.4" stroke-linecap="round"/>
    <path d="M 160.85 324.00 C 160.87 324.44, 160.33 324.73, 160.54 325.22 C 160.43 325.64, 160.47 326.14, 159.97 326.37 C 159.73 326.81, 159.15 326.70, 158.87 327.07 C 158.54 327.52, 157.96 327.07, 157.60 327.41 C 157.43 326.91, 156.67 326.94, 156.64 326.32 C 156.29 326.05, 155.92 325.96, 155.49 326.11 C 155.22 325.75, 155.51 325.31, 155.32 324.94 C 154.79 324.76, 154.24 324.61, 154.02 324.00 C 154.49 323.68, 154.66 323.26, 154.48 322.71 C 154.85 322.47, 155.06 322.00, 155.57 321.97 C 155.97 321.93, 156.33 321.82, 156.54 321.43 C 156.82 321.04, 157.22 321.16, 157.60 321.18 C 157.97 321.25, 158.11 321.75, 158.55 321.70 C 158.88 321.91, 159.25 321.97, 159.64 321.96 C 159.80 322.39, 160.50 322.22, 160.54 322.78 C 160.96 323.11, 160.67 323.61, 160.85 324.00" fill="none" stroke="black" stroke-width="2.0" stroke-linecap="round"/>
    <path d="M 169.17 320.00 C 168.99 320.55, 168.43 320.97, 168.54 321.63 C 167.89 321.70, 167.94 322.62, 167.27 322.67 C 166.89 323.02, 166.64 323.51, 166.15 323.75 C 165.70 324.13, 165.03 324.05, 164.60 324.49 C 164.06 324.16, 163.43 324.36, 162.87 324.17 C 162.35 323.90, 162.08 323.30, 161.50 323.10 C 161.29 322.54, 160.96 322.07, 160.47 321.71 C 160.69 321.09, 160.45 320.55, 160.21 320.00 C 160.40 319.47, 160.69 318.99, 160.89 318.46 C 161.18 317.95, 161.76 317.89, 162.19 317.59 C 162.70 317.41, 162.62 316.69, 163.17 316.55 C 163.75 316.54, 163.97 315.78, 164.60 315.88 C 165.14 315.90, 165.60 316.41, 166.19 316.16 C 166.30 316.80, 167.19 316.66, 167.31 317.29 C 167.92 317.45, 168.51 317.63, 168.84 318.25 C 168.73 318.87, 168.77 319.47, 169.17 320.00" fill="none" stroke="black" stroke-width="2.0" stroke-linecap="round"/>
    <path d="M 174.66 325.00 C 174.26 325.23, 174.12 325.60, 174.11 326.04 C 173.89 326.36, 173.50 326.61, 173.69 327.09 C 173.34 327.25, 172.90 327.06, 172.58 327.37 C 172.30 327.75, 171.74 327.86, 171.60 328.38 C 171.16 328.29, 170.66 328.29, 170.46 327.76 C 170.46 327.30, 169.82 327.21, 169.87 326.73 C 169.54 326.58, 169.61 325.99, 169.10 326.03 C 168.50 325.95, 168.23 325.54, 168.09 325.00 C 168.14 324.49, 168.66 324.28, 168.85 323.86 C 168.99 323.39, 169.62 323.61, 169.79 323.19 C 170.21 322.89, 170.34 322.46, 170.35 321.97 C 170.79 322.04, 171.18 322.26, 171.60 322.40 C 172.17 322.58, 172.38 321.84, 172.89 321.88 C 172.95 322.36, 173.55 322.58, 173.49 323.11 C 173.53 323.64, 174.25 323.39, 174.35 323.86 C 174.19 324.31, 174.81 324.55, 174.66 325.00" fill="none" stroke="black" stroke-width="2.0" stroke-linecap="round"/>
    <path d="M 149.79 270.00 C 149.67 271.61, 149.70 273.25, 149.24 274.82 C 148.21 276.07, 147.10 277.26, 146.22 278.62 C 144.91 279.49, 143.39 279.94, 142.05 280.73 C 140.67 281.53, 138.97 281.37, 137.60 282.18 C 136.08 281.77, 134.45 281.82, 133.02 281.06 C 131.88 279.91, 130.25 279.56, 128.98 278.62 C 128.07 277.33, 127.57 275.78, 126.44 274.62 C 125.89 273.12, 125.53 271.56, 125.20 270.00 C 125.45 268.39, 126.40 267.07, 127.00 265.61 C 127.83 264.26, 128.02 262.62, 128.89 261.29 C 130.12 260.25, 131.59 259.63, 133.00 258.91 C 134.53 258.71, 136.07 258.72, 137.60 258.52 C 139.12 258.65, 140.64 258.85, 142.16 258.99 C 143.76 259.38, 144.88 260.75, 146.50 261.10 C 147.52 262.39, 148.65 263.60, 149.24 265.18 C 149.06 266.83, 149.64 268.39, 149.79 270.00" fill="none" stroke="black" stroke-width="2.0" stroke-linecap="round"/>
    <path d="M 121.60 260.00 C 132.27 259.22, 142.93 259.67, 153.60 260.00 C 152.82 256.44, 150.20 253.63, 149.60 250.00 C 141.60 250.15, 133.60 250.78, 125.60 250.00 C 124.44 253.40, 123.28 256.81, 121.60 260.00" fill="black" stroke="black" stroke-width="2.0" stroke-linecap="round" stroke-linejoin="round"/>
    <path d="M 119.60 260.00 C 131.60 259.74, 143.60 259.28, 155.60 260.00" fill="none" stroke="black" stroke-width="2.0" stroke-linecap="round"/>
    <path d="M 137.60 282.00 C 138.52 296.00, 138.35 310.00, 137.60 324.00" fill="none" stroke="black" stroke-width="2.0" stroke-linecap="round"/>
    <path d="M 137.60 290.00 C 132.31 296.70, 127.18 303.53, 121.60 310.00" fill="none" stroke="black" stroke-width="2.0" stroke-linecap="round"/>
    <path d="M 137.60 290.00 C 143.67 296.08, 148.81 302.90, 153.60 310.00" fill="none" stroke="black" stroke-width="2.0" stroke-linecap="round"/>
    <path d="M 137.60 324.00 C 134.42 333.04, 128.88 341.00, 125.60 350.00" fill="none" stroke="black" stroke-width="2.0" stroke-linecap="round"/>
    <path d="M 137.60 324.00 C 141.24 332.83, 146.42 340.96, 149.60 350.00" fill="none" stroke="black" stroke-width="2.0" stroke-linecap="round"/>
    <path d="M 286.52 270.00 C 286.37 271.57, 285.87 273.06, 285.30 274.52 C 284.43 275.77, 283.74 277.15, 282.66 278.26 C 281.43 279.16, 280.15 279.98, 278.88 280.82 C 277.50 281.67, 275.88 281.82, 274.40 282.38 C 272.77 282.34, 271.19 282.03, 269.67 281.41 C 268.59 280.26, 267.54 279.07, 266.19 278.21 C 264.92 277.22, 263.83 276.06, 262.87 274.78 C 262.84 273.18, 262.40 271.61, 262.56 270.00 C 263.10 268.51, 263.06 266.93, 263.26 265.39 C 264.43 264.29, 264.70 262.58, 265.90 261.50 C 267.40 260.90, 268.32 259.48, 269.77 258.82 C 271.28 258.29, 272.95 258.32, 274.40 257.55 C 275.96 257.91, 277.35 258.80, 278.97 258.96 C 280.31 259.75, 281.70 260.47, 282.78 261.62 C 284.02 262.66, 284.66 264.24, 285.99 265.20 C 286.55 266.76, 285.99 268.44, 286.52 270.00" fill="none" stroke="black" stroke-width="2.0" stroke-linecap="round"/>
    <path d="M 274.40 282.00 C 273.68 296.00, 275.23 310.00, 274.40 324.00" fill="none" stroke="black" stroke-width="2.0" stroke-linecap="round"/>
    <path d="M 274.40 292.00 C 265.19 289.80, 255.81 288.81, 246.40 288.00" fill="none" stroke="black" stroke-width="2.0" stroke-linecap="round"/>
    <path d="M 274.40 292.00 C 280.02 297.75, 284.51 304.50, 290.40 310.00" fill="none" stroke="black" stroke-width="2.0" stroke-linecap="round"/>
    <path d="M 274.40 324.00 C 271.29 333.08, 266.54 341.40, 262.40 350.00" fill="none" stroke="black" stroke-width="2.0" stroke-linecap="round"/>
    <path d="M 274.40 324.00 C 278.30 332.71, 282.37 341.35, 286.40 350.00" fill="none" stroke="black" stroke-width="2.0" stroke-linecap="round"/>
    <path d="M 36.00 60.00 C 77.33 60.56, 118.67 60.22, 160.00 60.00 C 163.81 62.86, 166.51 66.82, 170.00 70.00 C 170.27 81.33, 170.33 92.67, 170.00 104.00 C 166.32 106.98, 163.32 110.65, 160.00 114.00 C 118.67 114.09, 77.33 113.92, 36.00 114.00 C 32.77 110.56, 29.56 107.10, 26.00 104.00 C 26.45 92.67, 26.25 81.33, 26.00 70.00 C 28.87 66.21, 32.72 63.39, 36.00 60.00" fill="#f1e7cc" stroke="black" stroke-width="2.0" stroke-linecap="round" stroke-linejoin="round"/>
    <path d="M 138.60 114.00 C 141.52 167.31, 143.13 220.67, 145.60 274.00 C 148.57 220.69, 149.96 167.32, 152.60 114.00" fill="#f1e7cc" stroke="black" stroke-width="2.0" stroke-linecap="round" stroke-linejoin="round"/>
    <line x1="139.60000000000002" y1="114" x2="151.60000000000002" y2="114" stroke="#f1e7cc" stroke-width="2.4"/>
    <text x="98.0" y="78.0" text-anchor="middle" font-family="Comic Neue, Comic Sans MS, cursive" font-size="13" fill="black"><tspan x="98.0" dy="0">Long live</tspan><tspan x="98.0" dy="16">mahishmaathiiii</tspan></text>
  </g>
</svg>
