<?xml version="1.0" encoding="UTF-8"?>
<svg xmlns="http://www.w3.org/2000/svg" viewBox="0 0 1200 402" width="1200" height="402" role="img" aria-label="#024 — Grave of the Fireflies (1988)">
  <rect width="100%" height="100%" fill="#f1e7cc"/>
  <text x="600.0" y="34" text-anchor="middle" font-family="Comic Neue, Comic Sans MS, cursive" font-size="16" font-weight="700" fill="black">#024 — Grave of the Fireflies (1988) ★★★★★</text>
  <g class="panel">
    <path d="M 16.00 46.00 C 142.67 45.74, 269.33 45.55, 396.00 46.00 C 396.69 159.33, 395.56 272.67, 396.00 386.00 C 269.33 385.97, 142.67 386.51, 16.00 386.00 C 16.75 272.67, 15.80 159.33, 16.00 46.00" fill="none" stroke="black" stroke-width="2.0" stroke-linecap="round" stroke-linejoin="round"/>
    <path d="M 26.00 362.00 C 146.00 361.75, 266.00 361.42, 386.00 362.00" fill="none" stroke="black" stroke-width="1.4" stroke-linecap="round"/>
    <path d="M 150.14 270.00 C 149.71 271.57, 149.39 273.17, 149.13 274.78 C 148.20 276.08, 147.14 277.29, 146.20 278.60 C 144.83 279.35, 143.44 280.02, 141.98 280.57 C 140.59 281.39, 138.92 281.59, 137.60 282.56 C 136.16 281.85, 134.51 281.65, 133.15 280.73 C 131.78 279.97, 130.24 279.55, 128.91 278.69 C 128.43 277.13, 127.10 276.08, 126.44 274.62 C 126.44 273.00, 126.07 271.47, 125.39 270.00 C 125.88 268.49, 126.29 266.96, 126.45 265.38 C 127.39 264.14, 128.05 262.69, 129.25 261.65 C 130.41 260.63, 131.69 259.80, 133.17 259.31 C 134.65 258.95, 136.21 258.93, 137.60 258.22 C 139.19 258.05, 140.71 258.73, 142.29 258.67 C 143.53 259.71, 145.15 260.14, 146.31 261.29 C 147.01 262.72, 148.21 263.86, 148.79 265.37 C 148.89 267.01, 149.34 268.56, 150.14 270.00" fill="none" stroke="black" stroke-width="2.0" stroke-linecap="round"/>
    <path d="M 123.60 260.00 C 132.93 260.13, 142.27 260.68, 151.60 260.00 C 149.67 257.63, 148.54 254.87, 147.60 252.00 C 140.93 251.39, 134.27 252.75, 127.60 252.00 C 126.69 254.88, 125.07 257.40, 123.60 260.00" fill="black" stroke="black" stroke-width="2.0" stroke-linecap="round" stroke-linejoin="round"/>
    <path d="M 149.04 252.00 C 149.51 252.09, 149.41 252.58, 149.63 252.84 C 149.23 252.55, 148.91 252.69, 148.61 253.01 C 148.63 253.44, 148.37 253.84, 148.54 254.27 C 148.27 254.02, 147.76 254.19, 147.60 253.74 C 147.26 253.67, 146.95 253.71, 146.75 254.04 C 146.49 253.89, 146.25 253.72, 146.22 253.38 C 146.06 252.90, 145.58 253.12, 145.28 252.96 C 145.63 252.69, 146.13 252.56, 146.18 252.00 C 146.13 251.76, 146.13 251.51, 145.95 251.32 C 145.87 251.02, 146.27 250.88, 146.18 250.58 C 146.49 250.39, 146.36 249.94, 146.67 249.75 C 147.08 249.65, 147.20 250.21, 147.60 250.15 C 147.99 250.14, 148.22 249.81, 148.56 249.69 C 148.71 249.98, 149.21 250.08, 149.05 250.55 C 149.39 250.62, 149.61 250.79, 149.62 251.16 C 149.12 251.23, 149.54 251.94, 149.04 252.00" fill="black" stroke="black" stroke-width="2.0" stroke-linecap="round"/>
    <path d="M 137.60 282.00 C 137.34 296.00, 137.06 310.00, 137.60 324.00" fill="none" stroke="black" stroke-width="2.0" stroke-linecap="round"/>
    <path d="M 137.60 290.00 C 129.92 286.63, 123.35 281.23, 115.60 278.00" fill="none" stroke="black" stroke-width="2.0" stroke-linecap="round"/>
    <path d="M 115.60 278.00 C 114.61 284.08, 113.53 290.13, 111.60 296.00" fill="none" stroke="black" stroke-width="2.0" stroke-linecap="round"/>
    <path d="M 137.60 290.00 C 144.65 285.48, 152.69 282.78, 159.60 278.00" fill="none" stroke="black" stroke-width="2.0" stroke-linecap="round"/>
    <path d="M 159.60 278.00 C 161.28 283.92, 163.05 289.83, 163.60 296.00" fill="none" stroke="black" stroke-width="2.0" stroke-linecap="round"/>
    <path d="M 137.60 324.00 C 132.82 332.30, 128.97 341.04, 125.60 350.00" fill="none" stroke="black" stroke-width="2.0" stroke-linecap="round"/>
    <path d="M 137.60 324.00 C 141.23 332.84, 146.06 341.12, 149.60 350.00" fill="none" stroke="black" stroke-width="2.0" stroke-linecap="round"/>
    <path d="M 286.03 270.00 C 285.52 271.45, 285.13 272.92, 285.21 274.48 C 284.22 275.74, 283.89 277.34, 283.10 278.70 C 281.59 279.27, 280.57 280.65, 279.03 281.17 C 277.49 281.58, 275.85 281.52, 274.40 282.27 C 272.77 282.27, 271.31 281.55, 269.77 281.18 C 268.74 280.00, 267.63 278.92, 266.25 278.15 C 265.00 277.16, 263.94 275.98, 262.93 274.75 C 262.97 273.16, 262.49 271.60, 262.76 270.00 C 262.53 268.42, 262.93 266.89, 263.17 265.35 C 263.84 263.89, 265.08 262.77, 265.65 261.25 C 266.81 260.08, 268.26 259.36, 269.65 258.53 C 271.22 258.13, 272.78 257.73, 274.40 257.59 C 276.02 257.71, 277.55 258.16, 278.99 258.92 C 280.31 259.77, 281.83 260.29, 282.96 261.44 C 283.97 262.67, 284.39 264.19, 284.98 265.62 C 285.01 267.15, 285.43 268.60, 286.03 270.00" fill="none" stroke="black" stroke-width="2.0" stroke-linecap="round"/>
    <path d="M 280.67 252.00 C 280.18 252.65, 279.79 253.35, 279.60 254.15 C 279.15 254.73, 278.75 255.33, 278.29 255.89 C 277.61 256.36, 277.48 257.27, 276.77 257.72 C 275.98 257.62, 275.19 257.80, 274.40 257.71 C 273.61 257.36, 272.82 258.07, 272.03 257.71 C 271.26 257.34, 271.21 256.33, 270.47 255.93 C 269.75 255.56, 269.83 254.56, 269.09 254.20 C 268.58 253.52, 268.16 252.79, 267.84 252.00 C 268.40 251.35, 268.69 250.55, 269.01 249.77 C 269.55 249.11, 269.57 248.24, 269.89 247.49 C 270.60 247.03, 271.39 246.68, 271.89 245.95 C 272.73 246.13, 273.61 246.08, 274.40 246.48 C 275.16 246.09, 275.92 246.62, 276.68 246.49 C 277.00 247.29, 277.85 247.47, 278.40 248.00 C 279.16 248.38, 279.95 248.72, 280.40 249.51 C 280.83 250.31, 280.27 251.20, 280.67 252.00" fill="none" stroke="black" stroke-width="2.0" stroke-linecap="round"/>
    <path d="M 263.40 271.00 C 262.62 274.65, 261.55 278.24, 261.40 282.00" fill="none" stroke="black" stroke-width="2.0" stroke-linecap="round"/>
    <path d="M 285.40 271.00 C 286.80 274.53, 287.57 278.18, 287.40 282.00" fill="none" stroke="black" stroke-width="2.0" stroke-linecap="round"/>
    <path d="M 274.40 282.00 C 274.29 296.00, 274.95 310.00, 274.40 324.00" fill="none" stroke="black" stroke-width="2.0" stroke-linecap="round"/>
    <path d="M 274.40 290.00 C 269.50 297.01, 264.17 303.69, 258.40 310.00" fill="none" stroke="black" stroke-width="2.0" stroke-linecap="round"/>
    <path d="M 274.40 290.00 C 279.91 296.52, 285.79 302.75, 290.40 310.00" fill="none" stroke="black" stroke-width="2.0" stroke-linecap="round"/>
    <path d="M 274.40 324.00 C 270.75 332.83, 266.43 341.35, 262.40 350.00" fill="none" stroke="black" stroke-width="2.0" stroke-linecap="round"/>
    <path d="M 274.40 324.00 C 278.88 332.44, 281.89 341.57, 286.40 350.00" fill="none" stroke="black" stroke-width="2.0" stroke-linecap="round"/>
    <path d="M 36.00 60.00 C 86.00 59.96, 136.00 60.25, 186.00 60.00 C 189.46 63.21, 192.14 67.19, 196.00 70.00 C 195.54 92.00, 196.62 114.00, 196.00 136.00 C 192.63 139.29, 189.35 142.68, 186.00 146.00 C 136.00 146.46, 86.00 146.48, 36.00 146.00 C 32.26 143.07, 28.91 139.75, 26.00 136.00 C 25.34 114.00, 25.94 92.00, 26.00 70.00 C 29.67 67.00, 32.39 63.06, 36.00 60.00" fill="#f1e7cc" stroke="black" stroke-width="2.0" stroke-linecap="round" stroke-linejoin="round"/>
    <path d="M 138.60 146.00 C 140.49 188.69, 143.57 231.32, 145.60 274.00 C 148.43 231.36, 150.78 188.69, 152.60 146.00" fill="#f1e7cc" stroke="black" stroke-width="2.0" stroke-linecap="round" stroke-linejoin="round"/>
    <line x1="139.60000000000002" y1="146" x2="151.60000000000002" y2="146" stroke="#f1e7cc" stroke-width="2.4"/>
    <text x="111.0" y="78.0" text-anchor="middle" font-family="Comic Neue, Comic Sans MS, cursive" font-size="13" fill="black"><tspan x="111.0" dy="0">Horrible masterpiece</tspan><tspan x="111.0" dy="16">The intricate details</tspan><tspan x="111.0" dy="16">to masterclass</tspan><tspan x="111.0" dy="16">storytelling.</tspan></text>
    <path d="M 226.00 60.00 C 276.00 60.33, 326.00 59.29, 376.00 60.00 C 379.49 63.18, 383.14 66.19, 386.00 70.00 C 386.39 86.67, 386.51 103.33, 386.00 120.00 C 382.27 122.94, 379.90 127.23, 376.00 130.00 C 326.00 130.36, 276.00 130.28, 226.00 130.00 C 222.29 127.04, 219.79 122.88, 216.00 120.00 C 216.26 103.33, 216.32 86.67, 216.00 70.00 C 219.77 67.10, 222.32 62.99, 226.00 60.00" fill="#f1e7cc" stroke="black" stroke-width="2.0" stroke-linecap="round" stroke-linejoin="round"/>
    <path d="M 259.40 130.00 C 261.28 178.02, 263.40 226.03, 266.40 274.00 C 269.24 226.02, 270.92 177.99, 273.40 130.00" fill="#f1e7cc" stroke="black" stroke-width="2.0" stroke-linecap="round" stroke-linejoin="round"/>
    <line x1="260.40000000000003" y1="130" x2="272.40000000000003" y2="130" stroke="#f1e7cc" stroke-width="2.4"/>
    <text x="301.0" y="78.0" text-anchor="middle" font-family="Comic Neue, Comic Sans MS, cursive" font-size="13" fill="black"><tspan x="301.0" dy="0">Tho opening scene gave</tspan><tspan x="301.0" dy="16">all away i still cried</tspan><tspan x="301.0" dy="16">my eyes out.</tspan></text>
  </g>
  <g class="panel">
    <path d="M 410.00 46.00 C 536.67 45.87, 663.33 45.27, 790.00 46.00 C 789.44 159.33, 790.54 272.67, 790.00 386.00 C 663.33 386.34, 536.67 386.47, 410.00 386.00 C 410.34 272.67, 409.54 159.33, 410.00 46.00" fill="none" stroke="black" stroke-width="2.0" stroke-linecap="round" stroke-linejoin="round"/>
    <path d="M 420.00 362.00 C 540.00 362.72, 660.00 361.88, 780.00 362.00" fill="none" stroke="black" stroke-width="1.4" stroke-linecap="round"/>
    <path d="M 574.29 270.00 C 573.55 271.44, 573.17 272.98, 573.07 274.58 C 572.69 276.20, 571.74 277.52, 570.91 278.91 C 569.43 279.54, 568.12 280.55, 566.48 280.83 C 564.96 281.05, 563.45 281.30, 562.00 281.84 C 560.41 281.95, 558.96 281.15, 557.39 281.14 C 555.83 280.65, 554.44 279.86, 553.19 278.81 C 552.59 277.33, 551.97 275.86, 551.13 274.50 C 550.76 273.00, 550.55 271.46, 550.01 270.00 C 550.24 268.47, 551.00 267.08, 551.28 265.56 C 551.83 264.11, 552.98 263.06, 553.78 261.78 C 554.97 260.83, 556.22 259.96, 557.50 259.13 C 559.01 258.66, 560.59 258.36, 562.00 257.59 C 563.46 258.25, 565.13 258.23, 566.58 258.94 C 568.05 259.54, 569.08 260.80, 570.46 261.54 C 571.69 262.60, 572.68 263.85, 573.56 265.21 C 573.64 266.83, 574.21 268.38, 574.29 270.00" fill="none" stroke="black" stroke-width="2.0" stroke-linecap="round"/>
    <path d="M 568.45 252.00 C 568.51 252.89, 568.09 253.62, 567.69 254.36 C 567.33 255.13, 566.50 255.39, 565.93 255.93 C 565.20 256.37, 564.69 256.99, 564.40 257.79 C 563.59 257.78, 562.81 257.54, 562.00 257.52 C 561.17 257.72, 560.37 258.09, 559.49 258.07 C 558.72 257.60, 558.55 256.66, 557.90 256.10 C 557.39 255.50, 556.85 254.92, 556.29 254.37 C 555.74 253.67, 556.10 252.73, 555.67 252.00 C 555.85 251.21, 556.43 250.54, 556.38 249.67 C 556.46 248.79, 557.38 248.40, 557.61 247.61 C 558.30 247.20, 559.14 247.02, 559.65 246.32 C 560.46 246.05, 561.25 246.04, 562.00 246.50 C 562.71 246.73, 563.45 246.72, 564.19 246.71 C 565.10 246.58, 565.90 246.88, 566.66 247.34 C 566.84 248.17, 567.18 248.94, 567.60 249.68 C 567.75 250.50, 568.08 251.26, 568.45 252.00" fill="none" stroke="black" stroke-width="2.0" stroke-linecap="round"/>
    <path d="M 551.00 271.00 C 550.43 274.68, 549.84 278.36, 549.00 282.00" fill="none" stroke="black" stroke-width="2.0" stroke-linecap="round"/>
    <path d="M 573.00 271.00 C 573.31 274.73, 574.09 278.38, 575.00 282.00" fill="none" stroke="black" stroke-width="2.0" stroke-linecap="round"/>
    <path d="M 562.00 282.00 C 561.40 296.00, 561.57 310.00, 562.00 324.00" fill="none" stroke="black" stroke-width="2.0" stroke-linecap="round"/>
    <path d="M 562.00 292.00 C 567.35 288.01, 570.68 282.01, 576.00 278.00" fill="none" stroke="black" stroke-width="2.0" stroke-linecap="round"/>
    <path d="M 576.00 278.00 C 573.31 277.44, 570.48 277.41, 568.00 276.00" fill="none" stroke="black" stroke-width="2.0" stroke-linecap="round"/>
    <path d="M 562.00 292.00 C 555.95 297.36, 550.77 303.50, 546.00 310.00" fill="none" stroke="black" stroke-width="2.0" stroke-linecap="round"/>
    <path d="M 562.00 324.00 C 557.96 332.65, 554.00 341.33, 550.00 350.00" fill="none" stroke="black" stroke-width="2.0" stroke-linecap="round"/>
    <path d="M 562.00 324.00 C 566.15 332.60, 569.63 341.50, 574.00 350.00" fill="none" stroke="black" stroke-width="2.0" stroke-linecap="round"/>
    <path d="M 784.00 111.00 C 778.54 118.60, 772.94 126.10, 767.90 134.00 C 760.07 142.09, 751.59 149.49, 743.34 157.13 C 728.41 158.62, 713.52 160.37, 698.70 162.67 C 683.17 165.04, 667.62 167.16, 651.97 168.52 C 638.70 163.34, 625.69 157.56, 612.40 152.44 C 601.25 146.98, 590.14 141.43, 578.70 136.60 C 577.46 128.01, 575.55 119.54, 574.00 111.00 C 575.72 102.50, 576.81 93.87, 578.70 85.40 C 590.08 80.44, 601.31 75.14, 612.40 69.56 C 625.45 63.86, 638.51 58.19, 651.97 53.48 C 667.58 55.16, 683.09 57.60, 698.70 59.33 C 713.58 61.15, 728.44 63.16, 743.34 64.87 C 751.62 72.48, 759.70 80.31, 767.90 88.00 C 773.33 95.62, 778.50 103.43, 784.00 111.00" fill="#f1e7cc" stroke="black" stroke-width="2.0" stroke-linecap="round" stroke-linejoin="round"/>
    <path d="M 623.30 205.12 C 622.84 205.52, 622.36 205.90, 622.29 206.57 C 622.04 207.07, 621.75 207.55, 621.83 208.15 C 621.42 208.55, 620.84 208.70, 620.47 209.15 C 619.91 209.42, 619.35 208.91, 618.80 209.16 C 618.25 209.60, 617.65 209.40, 617.06 209.32 C 616.82 208.75, 616.39 208.28, 616.25 207.67 C 616.11 207.21, 615.96 206.75, 615.52 206.48 C 615.00 206.14, 614.64 205.68, 614.39 205.12 C 614.39 204.53, 614.11 203.91, 614.57 203.37 C 615.01 202.97, 615.45 202.57, 615.66 201.98 C 615.98 201.37, 616.81 201.72, 617.16 201.17 C 617.78 201.00, 618.35 201.05, 618.80 201.57 C 619.29 201.36, 619.78 201.11, 620.31 201.47 C 620.94 201.36, 621.34 201.90, 621.88 202.04 C 622.07 202.57, 622.31 203.08, 622.68 203.51 C 623.25 203.91, 622.77 204.71, 623.30 205.12" fill="#f1e7cc" stroke="black" stroke-width="2.0" stroke-linecap="round"/>
    <path d="M 601.17 220.80 C 601.60 221.22, 600.96 221.72, 601.27 222.15 C 600.71 222.22, 600.55 222.71, 600.29 223.09 C 599.87 223.20, 599.43 223.20, 599.00 223.22 C 598.95 223.84, 598.19 223.85, 598.00 224.36 C 597.47 224.56, 597.04 224.39, 596.69 223.97 C 596.10 224.05, 595.81 223.68, 595.57 223.23 C 595.12 222.93, 595.18 222.44, 595.11 222.00 C 594.71 221.70, 594.74 221.18, 594.50 220.80 C 594.75 220.38, 595.13 220.08, 595.49 219.76 C 595.77 219.43, 595.61 218.97, 595.81 218.61 C 596.29 218.38, 596.14 217.70, 596.63 217.48 C 597.11 217.50, 597.63 217.36, 598.00 217.82 C 598.54 217.74, 598.66 218.23, 598.95 218.51 C 599.13 218.92, 599.55 218.82, 599.87 218.93 C 600.30 219.20, 600.79 219.28, 601.25 219.45 C 601.36 219.91, 600.81 220.33, 601.17 220.80" fill="#f1e7cc" stroke="black" stroke-width="2.0" stroke-linecap="round"/>
    <path d="M 584.93 232.56 C 584.83 232.94, 584.27 232.89, 584.20 233.31 C 583.79 233.28, 584.03 233.81, 583.72 233.88 C 583.73 234.32, 583.46 234.36, 583.12 234.29 C 583.06 234.75, 582.48 234.27, 582.40 234.69 C 582.09 234.51, 581.82 235.04, 581.50 234.73 C 581.41 234.42, 580.90 234.40, 580.98 233.98 C 580.57 234.04, 580.22 233.98, 580.03 233.54 C 580.22 233.19, 580.27 232.74, 580.71 232.56 C 580.62 232.32, 580.81 232.02, 580.57 231.80 C 580.92 231.97, 581.17 231.78, 581.40 231.56 C 581.04 231.12, 581.35 230.71, 581.46 230.29 C 581.73 230.59, 581.92 231.00, 582.40 231.04 C 582.57 230.73, 582.80 230.57, 583.16 230.72 C 583.32 231.18, 583.60 231.24, 583.99 230.97 C 583.87 231.30, 584.00 231.66, 583.81 231.97 C 584.14 232.26, 584.46 232.55, 584.93 232.56" fill="#f1e7cc" stroke="black" stroke-width="2.0" stroke-linecap="round"/>
    <text x="676.0" y="78.0" text-anchor="middle" font-family="Comic Neue, Comic Sans MS, cursive" font-size="13" fill="black"><tspan x="676.0" dy="0">The innocence of a child</tspan><tspan x="676.0" dy="16">suffered by casualties</tspan><tspan x="676.0" dy="16">is gut wrenching, It was</tspan><tspan x="676.0" dy="16">never anti war by</tspan><tspan x="676.0" dy="16">plotting but the… Great</tspan></text>
    
  </g>
  <g class="panel">
    <path d="M 804.00 46.00 C 930.67 45.54, 1057.33 46.23, 1184.00 46.00 C 1183.87 159.33, 1183.95 272.67, 1184.00 386.00 C 1057.33 385.90, 930.67 385.74, 804.00 386.00 C 804.63 272.67, 803.65 159.33, 804.00 46.00" fill="none" stroke="black" stroke-width="2.0" stroke-linecap="round" stroke-linejoin="round"/>
    <path d="M 814.00 356.00 C 934.00 356.85, 1054.00 356.16, 1174.00 356.00" fill="none" stroke="black" stroke-width="1.4" stroke-linecap="round"/>
    <path d="M 818.00 280.00 C 844.67 279.69, 871.33 279.74, 898.00 280.00 C 898.43 298.67, 898.28 317.33, 898.00 336.00 C 871.33 336.42, 844.67 336.28, 818.00 336.00 C 818.04 317.33, 818.21 298.67, 818.00 280.00" fill="none" stroke="black" stroke-width="2.0" stroke-linecap="round" stroke-linejoin="round"/>
    <path d="M 824.00 286.00 C 846.67 286.25, 869.33 285.80, 892.00 286.00 C 891.26 300.67, 891.41 315.33, 892.00 330.00 C 869.33 329.24, 846.67 329.82, 824.00 330.00 C 824.31 315.33, 824.50 300.67, 824.00 286.00" fill="none" stroke="black" stroke-width="2.0" stroke-linecap="round" stroke-linejoin="round"/>
    <path d="M 844.00 336.00 C 853.33 336.07, 862.67 336.20, 872.00 336.00" fill="none" stroke="black" stroke-width="1.4" stroke-linecap="round"/>
    <path d="M 858.00 336.00 C 858.77 338.67, 858.00 341.33, 858.00 344.00" fill="none" stroke="black" stroke-width="1.4" stroke-linecap="round"/>
    <path d="M 844.00 346.00 C 853.33 346.61, 862.67 346.19, 872.00 346.00" fill="none" stroke="black" stroke-width="1.4" stroke-linecap="round"/>
    <path d="M 830.00 322.00 C 833.45 313.38, 836.96 304.78, 840.00 296.00 C 844.24 305.55, 850.00 314.33, 854.00 324.00 C 858.82 315.41, 863.13 306.56, 868.00 298.00 C 873.33 305.34, 878.82 312.56, 884.00 320.00" fill="none" stroke="black" stroke-width="2.0" stroke-linecap="round" stroke-linejoin="round"/>
    <path d="M 898.00 300.00 C 948.67 299.22, 999.33 300.20, 1050.00 300.00 C 1049.98 310.00, 1050.38 320.00, 1050.00 330.00 C 999.33 330.20, 948.67 329.37, 898.00 330.00 C 897.27 320.00, 897.23 310.00, 898.00 300.00" fill="none" stroke="black" stroke-width="2.0" stroke-linecap="round" stroke-linejoin="round"/>
    <path d="M 898.00 330.00 C 948.67 329.46, 999.33 330.59, 1050.00 330.00 C 1049.45 342.00, 1050.42 354.00, 1050.00 366.00 C 999.33 365.65, 948.67 366.79, 898.00 366.00 C 897.98 354.00, 898.77 342.00, 898.00 330.00" fill="none" stroke="black" stroke-width="2.0" stroke-linecap="round" stroke-linejoin="round"/>
    <path d="M 890.00 312.00 C 892.67 312.06, 895.33 311.86, 898.00 312.00 C 897.27 330.00, 897.48 348.00, 898.00 366.00 C 895.33 365.47, 892.67 366.75, 890.00 366.00 C 889.97 348.00, 890.21 330.00, 890.00 312.00" fill="none" stroke="black" stroke-width="2.0" stroke-linecap="round" stroke-linejoin="round"/>
    <path d="M 1050.00 312.00 C 1052.67 312.31, 1055.33 312.29, 1058.00 312.00 C 1058.45 330.00, 1058.47 348.00, 1058.00 366.00 C 1055.33 366.39, 1052.67 365.88, 1050.00 366.00 C 1049.48 348.00, 1050.23 330.00, 1050.00 312.00" fill="none" stroke="black" stroke-width="2.0" stroke-linecap="round" stroke-linejoin="round"/>
    <path d="M 974.00 330.00 C 973.25 342.00, 973.60 354.00, 974.00 366.00" fill="none" stroke="black" stroke-width="1.4" stroke-linecap="round"/>
    <path d="M 946.31 300.00 C 946.39 301.65, 946.03 303.21, 945.45 304.74 C 944.50 306.02, 943.33 307.09, 942.22 308.22 C 940.94 309.12, 939.61 309.96, 938.67 311.26 C 937.12 311.65, 935.47 311.51, 934.00 312.22 C 932.43 311.74, 930.80 311.76, 929.19 311.61 C 928.06 310.46, 926.83 309.42, 925.51 308.49 C 925.03 307.01, 923.89 305.87, 923.42 304.38 C 923.10 302.78, 922.50 301.30, 921.49 300.00 C 921.57 298.36, 922.65 296.98, 922.73 295.33 C 923.73 294.13, 924.98 293.16, 925.80 291.80 C 927.17 290.89, 927.91 289.36, 929.18 288.36 C 930.78 288.03, 932.46 288.19, 934.00 287.52 C 935.63 287.64, 937.15 288.30, 938.77 288.49 C 940.04 289.46, 941.31 290.43, 942.53 291.47 C 943.25 292.86, 943.85 294.32, 944.98 295.45 C 945.60 296.92, 946.18 298.39, 946.31 300.00" fill="none" stroke="black" stroke-width="2.0" stroke-linecap="round"/>
    <path d="M 920.00 290.00 C 929.33 289.98, 938.67 289.92, 948.00 290.00 C 946.16 287.59, 945.66 284.50, 944.00 282.00 C 937.33 282.71, 930.67 282.72, 924.00 282.00 C 922.18 284.42, 921.72 287.53, 920.00 290.00" fill="black" stroke="black" stroke-width="2.0" stroke-linecap="round" stroke-linejoin="round"/>
    <path d="M 946.42 282.00 C 946.08 282.20, 945.71 282.34, 945.40 282.58 C 945.65 282.87, 945.11 283.00, 945.27 283.27 C 945.02 283.39, 944.95 283.67, 944.76 283.83 C 944.76 284.35, 944.11 284.07, 944.00 284.46 C 943.78 284.19, 943.31 284.46, 943.14 284.07 C 942.75 284.15, 942.70 283.65, 942.37 283.63 C 942.34 283.20, 942.07 283.01, 941.68 282.96 C 941.81 282.61, 942.24 282.42, 942.26 282.00 C 942.28 281.71, 942.04 281.48, 942.05 281.19 C 942.33 281.13, 942.42 280.72, 942.77 280.77 C 942.69 280.37, 943.35 280.62, 943.26 280.21 C 943.31 279.77, 943.69 279.74, 944.00 279.63 C 944.35 279.88, 944.07 280.48, 944.56 280.65 C 944.83 280.36, 945.16 280.94, 945.42 280.58 C 945.15 280.85, 945.43 281.14, 945.39 281.43 C 945.79 281.51, 946.12 281.73, 946.42 282.00" fill="black" stroke="black" stroke-width="2.0" stroke-linecap="round"/>
    <path d="M 934.00 312.00 C 933.49 321.33, 933.99 330.67, 934.00 340.00" fill="none" stroke="black" stroke-width="2.0" stroke-linecap="round"/>
    <path d="M 934.00 326.00 C 928.26 329.45, 923.66 334.44, 918.00 338.00" fill="none" stroke="black" stroke-width="2.0" stroke-linecap="round"/>
    <path d="M 934.00 326.00 C 938.76 330.77, 944.52 334.19, 950.00 338.00" fill="none" stroke="black" stroke-width="2.0" stroke-linecap="round"/>
    <path d="M 934.00 340.00 C 942.00 339.61, 950.00 340.22, 958.00 340.00" fill="none" stroke="black" stroke-width="2.0" stroke-linecap="round"/>
    <path d="M 958.00 340.00 C 959.22 345.94, 958.55 352.09, 960.00 358.00" fill="none" stroke="black" stroke-width="2.0" stroke-linecap="round"/>
    <path d="M 934.00 340.00 C 931.54 346.09, 929.24 352.25, 926.00 358.00" fill="none" stroke="black" stroke-width="2.0" stroke-linecap="round"/>
    <path d="M 1026.11 300.00 C 1025.57 301.47, 1025.42 303.04, 1024.92 304.52 C 1024.14 305.85, 1022.98 306.90, 1022.29 308.29 C 1021.06 309.20, 1019.68 309.87, 1018.47 310.79 C 1017.04 311.39, 1015.49 311.37, 1014.00 311.64 C 1012.43 311.79, 1010.88 311.72, 1009.38 311.16 C 1008.10 310.13, 1006.42 309.87, 1005.13 308.87 C 1004.17 307.56, 1003.96 305.87, 1002.98 304.56 C 1002.43 303.09, 1002.74 301.47, 1002.16 300.00 C 1002.77 298.56, 1002.81 297.00, 1003.14 295.50 C 1004.10 294.25, 1004.31 292.58, 1005.40 291.40 C 1006.94 290.98, 1008.32 290.26, 1009.53 289.21 C 1010.92 288.35, 1012.65 288.36, 1014.00 287.42 C 1015.53 287.92, 1016.95 288.70, 1018.52 289.09 C 1019.73 290.07, 1021.17 290.69, 1022.46 291.54 C 1023.48 292.73, 1023.96 294.27, 1025.01 295.44 C 1025.03 297.04, 1025.77 298.47, 1026.11 300.00" fill="none" stroke="black" stroke-width="2.0" stroke-linecap="round"/>
    <path d="M 1019.76 282.00 C 1020.21 282.79, 1019.91 283.66, 1020.01 284.49 C 1019.59 285.25, 1018.79 285.62, 1018.22 286.22 C 1017.48 286.59, 1017.04 287.30, 1016.40 287.79 C 1015.59 288.03, 1014.87 288.51, 1014.00 288.56 C 1013.21 288.17, 1012.40 287.89, 1011.49 288.06 C 1011.18 287.24, 1010.48 286.68, 1010.09 285.91 C 1009.35 285.50, 1008.75 284.90, 1008.02 284.48 C 1008.28 283.65, 1007.74 282.83, 1007.98 282.00 C 1008.12 281.23, 1008.65 280.55, 1008.49 279.72 C 1009.18 279.20, 1009.01 278.20, 1009.66 277.66 C 1010.34 277.17, 1011.07 276.89, 1011.92 276.97 C 1012.52 276.42, 1013.22 276.08, 1014.00 275.86 C 1014.64 276.35, 1015.38 276.62, 1016.13 276.85 C 1016.92 276.96, 1017.59 277.27, 1018.04 277.96 C 1018.66 278.44, 1018.96 279.21, 1019.58 279.69 C 1019.34 280.48, 1019.43 281.25, 1019.76 282.00" fill="none" stroke="black" stroke-width="2.0" stroke-linecap="round"/>
    <path d="M 1003.00 301.00 C 1002.48 304.69, 1001.04 308.22, 1001.00 312.00" fill="none" stroke="black" stroke-width="2.0" stroke-linecap="round"/>
    <path d="M 1025.00 301.00 C 1025.53 304.69, 1027.19 308.18, 1027.00 312.00" fill="none" stroke="black" stroke-width="2.0" stroke-linecap="round"/>
    <path d="M 1014.00 312.00 C 1013.84 321.33, 1013.41 330.67, 1014.00 340.00" fill="none" stroke="black" stroke-width="2.0" stroke-linecap="round"/>
    <path d="M 1014.00 326.00 C 1008.18 329.35, 1003.64 334.40, 998.00 338.00" fill="none" stroke="black" stroke-width="2.0" stroke-linecap="round"/>
    <path d="M 1014.00 326.00 C 1019.39 329.92, 1024.53 334.19, 1030.00 338.00" fill="none" stroke="black" stroke-width="2.0" stroke-linecap="round"/>
    <path d="M 1014.00 340.00 C 1022.00 340.99, 1030.00 340.81, 1038.00 340.00" fill="none" stroke="black" stroke-width="2.0" stroke-linecap="round"/>
    <path d="M 1038.00 340.00 C 1039.36 345.92, 1038.90 352.05, 1040.00 358.00" fill="none" stroke="black" stroke-width="2.0" stroke-linecap="round"/>
    <path d="M 1014.00 340.00 C 1011.12 345.91, 1007.97 351.69, 1006.00 358.00" fill="none" stroke="black" stroke-width="2.0" stroke-linecap="round"/>
    <path d="M 824.00 60.00 C 870.67 60.45, 917.33 59.64, 964.00 60.00 C 967.76 62.90, 970.46 66.88, 974.00 70.00 C 974.57 76.00, 973.79 82.00, 974.00 88.00 C 970.30 90.97, 967.61 94.94, 964.00 98.00 C 917.33 98.65, 870.67 97.44, 824.00 98.00 C 820.45 94.89, 816.83 91.84, 814.00 88.00 C 813.92 82.00, 814.01 76.00, 814.00 70.00 C 817.04 66.37, 820.73 63.40, 824.00 60.00" fill="#f1e7cc" stroke="black" stroke-width="2.0" stroke-linecap="round" stroke-linejoin="round"/>
    <path d="M 919.00 98.00 C 921.12 166.67, 923.32 235.34, 926.00 304.00 C 927.92 235.32, 931.19 166.68, 933.00 98.00" fill="#f1e7cc" stroke="black" stroke-width="2.0" stroke-linecap="round" stroke-linejoin="round"/>
    <line x1="920.0" y1="98" x2="932.0" y2="98" stroke="#f1e7cc" stroke-width="2.4"/>
    <text x="894.0" y="78.0" text-anchor="middle" font-family="Comic Neue, Comic Sans MS, cursive" font-size="13" fill="black"><tspan x="894.0" dy="0">Emotional drained</tspan></text>
  </g>
</svg>
