<?xml version="1.0" encoding="UTF-8"?>
<svg xmlns="http://www.w3.org/2000/svg" viewBox="0 0 952 398" width="952" height="398" role="img" aria-label="#024 — Grave of the Fireflies (1988)">
  <rect width="100%" height="100%" fill="white"/>
  <text x="476.0" y="32" text-anchor="middle" font-family="Comic Neue, Comic Sans MS, cursive" font-size="15" font-weight="700" fill="black">#024 — Grave of the Fireflies (1988) ★★★★★</text>
    <g class="panel">
    <rect x="14" y="44" width="300" height="340" fill="white" stroke="black" stroke-width="2"/>
    <rect x="29" y="58" width="270" height="86" rx="12" ry="12" fill="white" stroke="black" stroke-width="1.6"/>
    <polygon points="156.0,143 172.0,143 182.47704172628076,240" fill="white" stroke="black" stroke-width="1.6"/>
    <line x1="157.0" y1="144" x2="171.0" y2="144" stroke="white" stroke-width="2.2"/>
    <text x="164.0" y="76" text-anchor="middle" font-family="Comic Neue, Comic Sans MS, cursive" font-size="13" fill="black"><tspan x="164.0" dy="0">Horrible masterpiece</tspan><tspan x="164.0" dy="16">The intricate details</tspan><tspan x="164.0" dy="16">to masterclass</tspan><tspan x="164.0" dy="16">storytelling.</tspan></text>
    <circle cx="182.47704172628076" cy="254" r="14" fill="none" stroke="black" stroke-width="2.2"/>
    <line x1="182.47704172628076" y1="268" x2="182.47704172628076" y2="308" stroke="black" stroke-width="2.2"/>
    <line x1="182.47704172628076" y1="278" x2="160.47704172628076" y2="264" stroke="black" stroke-width="2.2"/>
    <line x1="160.47704172628076" y1="264" x2="156.47704172628076" y2="282" stroke="black" stroke-width="2.2"/>
    <line x1="182.47704172628076" y1="278" x2="204.47704172628076" y2="264" stroke="black" stroke-width="2.2"/>
    <line x1="204.47704172628076" y1="264" x2="208.47704172628076" y2="282" stroke="black" stroke-width="2.2"/>
    <line x1="182.47704172628076" y1="308" x2="168.47704172628076" y2="336" stroke="black" stroke-width="2.2"/>
    <line x1="182.47704172628076" y1="308" x2="196.47704172628076" y2="336" stroke="black" stroke-width="2.2"/>
    <line x1="34" y1="350" x2="294" y2="350" stroke="black" stroke-width="1.5"/>
</g>
  <g class="panel">
    <rect x="326" y="44" width="300" height="340" fill="white" stroke="black" stroke-width="2"/>
    <rect x="341" y="58" width="270" height="70" rx="12" ry="12" fill="white" stroke="black" stroke-width="1.6"/>
    <polygon points="468.0,127 484.0,127 486.2016357567337,240" fill="white" stroke="black" stroke-width="1.6"/>
    <line x1="469.0" y1="128" x2="483.0" y2="128" stroke="white" stroke-width="2.2"/>
    <text x="476.0" y="76" text-anchor="middle" font-family="Comic Neue, Comic Sans MS, cursive" font-size="13" fill="black"><tspan x="476.0" dy="0">Tho opening scene gave</tspan><tspan x="476.0" dy="16">all away i still cried</tspan><tspan x="476.0" dy="16">my eyes out.</tspan></text>
    <circle cx="486.2016357567337" cy="254" r="14" fill="none" stroke="black" stroke-width="2.2"/>
    <line x1="486.2016357567337" y1="268" x2="486.2016357567337" y2="308" stroke="black" stroke-width="2.2"/>
    <line x1="486.2016357567337" y1="280" x2="468.2016357567337" y2="298" stroke="black" stroke-width="2.2"/>
    <line x1="486.2016357567337" y1="280" x2="504.2016357567337" y2="298" stroke="black" stroke-width="2.2"/>
    <line x1="486.2016357567337" y1="308" x2="472.2016357567337" y2="336" stroke="black" stroke-width="2.2"/>
    <line x1="486.2016357567337" y1="308" x2="500.2016357567337" y2="336" stroke="black" stroke-width="2.2"/>
    <line x1="346" y1="350" x2="606" y2="350" stroke="black" stroke-width="1.5"/>
</g>
  <g class="panel">
    <rect x="638" y="44" width="300" height="340" fill="white" stroke="black" stroke-width="2"/>
    <rect x="653" y="58" width="270" height="102" rx="12" ry="12" fill="white" stroke="black" stroke-width="1.6"/>
    <polygon points="780.0,159 796.0,159 794.082509875174,240" fill="white" stroke="black" stroke-width="1.6"/>
    <line x1="781.0" y1="160" x2="795.0" y2="160" stroke="white" stroke-width="2.2"/>
    <text x="788.0" y="76" text-anchor="middle" font-family="Comic Neue, Comic Sans MS, cursive" font-size="13" fill="black"><tspan x="788.0" dy="0">The innocence of a</tspan><tspan x="788.0" dy="16">child suffered by</tspan><tspan x="788.0" dy="16">casualties is gut</tspan><tspan x="788.0" dy="16">wrenching, It was</tspan><tspan x="788.0" dy="16">never anti war by</tspan></text>
    <circle cx="794.082509875174" cy="254" r="14" fill="none" stroke="black" stroke-width="2.2"/>
    <line x1="794.082509875174" y1="268" x2="794.082509875174" y2="308" stroke="black" stroke-width="2.2"/>
    <line x1="794.082509875174" y1="278" x2="772.082509875174" y2="264" stroke="black" stroke-width="2.2"/>
    <line x1="772.082509875174" y1="264" x2="768.082509875174" y2="282" stroke="black" stroke-width="2.2"/>
    <line x1="794.082509875174" y1="278" x2="816.082509875174" y2="264" stroke="black" stroke-width="2.2"/>
    <line x1="816.082509875174" y1="264" x2="820.082509875174" y2="282" stroke="black" stroke-width="2.2"/>
    <line x1="794.082509875174" y1="308" x2="780.082509875174" y2="336" stroke="black" stroke-width="2.2"/>
    <line x1="794.082509875174" y1="308" x2="808.082509875174" y2="336" stroke="black" stroke-width="2.2"/>
    <line x1="658" y1="350" x2="918" y2="350" stroke="black" stroke-width="1.5"/>
</g>
</svg>
