<?xml version="1.0" encoding="UTF-8"?>
<svg xmlns="http://www.w3.org/2000/svg" viewBox="0 0 412 402" width="412" height="402" role="img" aria-label="#025 — Pretty Woman (1990)">
  <rect width="100%" height="100%" fill="white"/>
  <text x="206.0" y="34" text-anchor="middle" font-family="Comic Neue, Comic Sans MS, cursive" font-size="16" font-weight="700" fill="black">#025 — Pretty Woman (1990) ★★★</text>
  <g class="panel">
    <path d="M 16.00 46.00 C 142.67 46.78, 269.33 45.37, 396.00 46.00 C 396.46 159.33, 395.34 272.67, 396.00 386.00 C 269.33 386.02, 142.67 386.65, 16.00 386.00 C 16.16 272.67, 15.87 159.33, 16.00 46.00" fill="none" stroke="black" stroke-width="2.0" stroke-linecap="round" stroke-linejoin="round"/>
    <path d="M 26.00 362.00 C 146.00 361.54, 266.00 361.18, 386.00 362.00" fill="none" stroke="black" stroke-width="1.4" stroke-linecap="round"/>
    <path d="M 180.30 270.00 C 180.18 271.62, 179.68 273.11, 178.83 274.48 C 178.44 276.06, 177.33 277.32, 176.88 278.88 C 175.41 279.62, 174.33 280.95, 172.81 281.61 C 171.17 281.66, 169.55 281.81, 168.00 282.39 C 166.40 282.14, 165.14 281.02, 163.60 280.63 C 162.30 279.87, 161.06 279.01, 159.80 278.20 C 158.77 277.07, 157.94 275.79, 157.14 274.50 C 156.90 272.89, 156.13 271.47, 155.52 270.00 C 155.87 268.43, 156.21 266.86, 157.11 265.49 C 157.77 264.03, 158.10 262.41, 159.10 261.10 C 160.36 260.04, 161.99 259.57, 163.23 258.49 C 164.82 258.38, 166.40 258.08, 168.00 258.31 C 169.57 258.41, 171.12 258.87, 172.72 258.61 C 174.10 259.42, 175.16 260.71, 176.68 261.32 C 177.55 262.65, 178.67 263.82, 179.21 265.36 C 179.63 266.89, 180.03 268.43, 180.30 270.00" fill="none" stroke="black" stroke-width="2.0" stroke-linecap="round"/>
    <path d="M 152.00 260.00 C 162.67 259.81, 173.33 260.04, 184.00 260.00 C 182.78 256.62, 181.71 253.18, 180.00 250.00 C 172.00 250.64, 164.00 249.87, 156.00 250.00 C 154.04 253.08, 153.72 256.82, 152.00 260.00" fill="black" stroke="black" stroke-width="2.0" stroke-linecap="round" stroke-linejoin="round"/>
    <path d="M 150.00 260.00 C 162.00 260.55, 174.00 260.86, 186.00 260.00" fill="none" stroke="black" stroke-width="2.0" stroke-linecap="round"/>
    <path d="M 168.00 282.00 C 167.58 296.00, 167.17 310.00, 168.00 324.00" fill="none" stroke="black" stroke-width="2.0" stroke-linecap="round"/>
    <path d="M 168.00 292.00 C 173.30 287.96, 177.24 282.57, 182.00 278.00" fill="none" stroke="black" stroke-width="2.0" stroke-linecap="round"/>
    <path d="M 182.00 278.00 C 179.52 276.60, 176.80 276.13, 174.00 276.00" fill="none" stroke="black" stroke-width="2.0" stroke-linecap="round"/>
    <path d="M 168.00 292.00 C 162.12 297.52, 157.42 304.08, 152.00 310.00" fill="none" stroke="black" stroke-width="2.0" stroke-linecap="round"/>
    <path d="M 168.00 324.00 C 163.70 332.53, 159.25 340.99, 156.00 350.00" fill="none" stroke="black" stroke-width="2.0" stroke-linecap="round"/>
    <path d="M 168.00 324.00 C 171.94 332.70, 176.48 341.11, 180.00 350.00" fill="none" stroke="black" stroke-width="2.0" stroke-linecap="round"/>
    <path d="M 390.00 79.00 C 384.62 82.02, 379.28 85.10, 373.90 88.11 C 365.89 92.48, 357.19 95.43, 349.34 100.11 C 334.46 99.99, 319.57 100.38, 304.70 99.47 C 289.18 101.87, 273.64 104.15, 257.97 105.32 C 244.68 102.40, 231.44 99.33, 218.40 95.42 C 207.16 93.87, 195.83 93.05, 184.70 90.71 C 182.98 86.87, 180.95 83.15, 180.00 79.00 C 181.07 74.90, 183.84 71.47, 184.70 67.29 C 195.85 65.15, 207.10 63.69, 218.40 62.58 C 231.42 58.58, 244.81 56.08, 257.97 52.68 C 273.58 54.31, 289.09 56.84, 304.70 58.53 C 319.57 57.66, 334.45 57.51, 349.34 57.89 C 357.67 61.58, 365.62 66.07, 373.90 69.89 C 379.01 73.38, 384.93 75.44, 390.00 79.00" fill="white" stroke="black" stroke-width="2.0" stroke-linecap="round" stroke-linejoin="round"/>
    <path d="M 228.46 169.28 C 228.27 169.71, 228.15 170.16, 227.95 170.58 C 227.60 170.97, 227.72 171.52, 227.46 171.94 C 227.16 172.47, 227.09 173.12, 226.55 173.51 C 225.92 173.71, 225.41 173.18, 224.80 173.24 C 224.26 172.87, 223.71 173.32, 223.17 173.21 C 222.63 173.02, 222.26 172.57, 221.75 172.33 C 221.36 171.84, 221.15 171.31, 221.41 170.69 C 221.48 170.12, 221.39 169.61, 220.86 169.28 C 221.17 168.81, 221.31 168.31, 221.13 167.76 C 221.25 167.16, 221.87 167.07, 222.21 166.69 C 222.73 166.29, 222.94 165.72, 223.07 165.10 C 223.61 164.81, 224.25 164.93, 224.80 164.68 C 225.42 164.87, 225.98 165.14, 226.25 165.79 C 226.61 166.24, 227.29 165.98, 227.66 166.42 C 227.71 166.95, 227.81 167.46, 228.01 167.95 C 227.99 168.45, 228.05 168.93, 228.46 169.28" fill="white" stroke="black" stroke-width="2.0" stroke-linecap="round"/>
    <path d="M 206.80 195.20 C 207.14 195.57, 206.67 196.05, 206.96 196.43 C 206.57 196.61, 206.66 197.28, 206.10 197.30 C 205.74 197.63, 205.42 197.98, 205.37 198.50 C 204.91 198.51, 204.47 198.24, 204.00 198.39 C 203.51 198.44, 203.10 198.34, 202.92 197.82 C 202.70 197.51, 202.34 197.37, 202.10 197.10 C 202.04 196.76, 202.17 196.34, 201.72 196.14 C 201.76 195.70, 201.25 195.58, 201.17 195.20 C 201.41 194.87, 201.21 194.46, 201.39 194.12 C 201.59 193.77, 201.90 193.58, 202.27 193.47 C 202.45 193.03, 202.30 192.48, 202.73 192.13 C 203.06 191.71, 203.59 191.89, 204.00 191.71 C 204.12 192.27, 204.49 192.59, 205.01 192.75 C 205.46 192.88, 205.90 192.93, 206.36 192.84 C 206.70 193.14, 206.68 193.71, 207.17 193.89 C 207.11 194.34, 206.70 194.70, 206.80 195.20" fill="white" stroke="black" stroke-width="2.0" stroke-linecap="round"/>
    <path d="M 190.56 214.64 C 190.79 215.06, 190.55 215.25, 190.20 215.38 C 189.93 215.56, 189.75 215.77, 189.88 216.12 C 189.61 216.16, 189.32 216.14, 189.11 216.35 C 188.94 215.96, 188.68 216.02, 188.40 216.21 C 188.13 216.37, 187.99 216.77, 187.57 216.65 C 187.41 216.41, 187.22 216.18, 187.14 215.90 C 186.90 215.43, 186.40 215.84, 186.10 215.59 C 186.03 215.18, 186.35 214.94, 186.53 214.64 C 186.13 214.40, 186.80 214.07, 186.45 213.83 C 186.90 213.69, 186.41 213.19, 186.77 213.01 C 187.08 213.01, 187.41 213.31, 187.70 212.94 C 187.94 212.58, 188.17 212.74, 188.40 212.96 C 188.52 213.35, 188.91 212.74, 189.03 213.13 C 189.31 213.08, 189.60 212.89, 189.88 213.16 C 189.62 213.44, 189.49 213.74, 189.71 214.10 C 189.84 214.52, 190.32 214.39, 190.56 214.64" fill="white" stroke="black" stroke-width="2.0" stroke-linecap="round"/>
    <text x="282.0" y="78.0" text-anchor="middle" font-family="Comic Neue, Comic Sans MS, cursive" font-size="13" fill="black"><tspan x="282.0" dy="0">niceeeeeeeeeee one</tspan></text>
    
  </g>
</svg>
