<?xml version="1.0" encoding="UTF-8"?>
<svg xmlns="http://www.w3.org/2000/svg" viewBox="0 0 412 402" width="412" height="402" role="img" aria-label="#026 — Home Alone (1990)">
  <defs><filter id="fibers" x="0%" y="0%" width="100%" height="100%"><feTurbulence type="fractalNoise" baseFrequency="0.04 0.7" numOctaves="2" stitchTiles="stitch" seed="2"/><feColorMatrix values="0 0 0 0 0.38  0 0 0 0 0.26  0 0 0 0 0.13  0 0 0 -0.7 0.28"/></filter><filter id="grain" x="0%" y="0%" width="100%" height="100%"><feTurbulence type="fractalNoise" baseFrequency="0.65" numOctaves="3" stitchTiles="stitch" seed="9"/><feColorMatrix values="0 0 0 0 0.42  0 0 0 0 0.30  0 0 0 0 0.16  0 0 0 -1.1 0.5"/></filter></defs>
  <rect width="100%" height="100%" fill="#e3d3a2"/>
  <rect width="100%" height="100%" filter="url(#fibers)" opacity="0.55"/>
  <rect width="100%" height="100%" filter="url(#grain)" opacity="0.85"/>
  <text x="206.0" y="34" text-anchor="middle" font-family="Comic Neue, Comic Sans MS, cursive" font-size="16" font-weight="700" fill="black">#026 — Home Alone (1990) ★★★★</text>
  <g class="panel">
    <path d="M 16.00 46.00 C 142.67 45.69, 269.33 46.24, 396.00 46.00 C 395.71 159.33, 396.14 272.67, 396.00 386.00 C 269.33 386.03, 142.67 386.11, 16.00 386.00 C 15.52 272.67, 16.60 159.33, 16.00 46.00" fill="none" stroke="black" stroke-width="2.0" stroke-linecap="round" stroke-linejoin="round"/>
    <path d="M 26.00 362.00 C 146.00 362.32, 266.00 362.34, 386.00 362.00" fill="none" stroke="black" stroke-width="1.4" stroke-linecap="round"/>
    <path d="M 151.60 326.00 C 159.60 325.76, 167.60 325.27, 175.60 326.00 C 175.19 336.68, 174.49 347.35, 173.60 358.00 C 166.93 357.37, 160.27 358.16, 153.60 358.00 C 153.46 347.30, 152.45 336.66, 151.60 326.00" fill="none" stroke="black" stroke-width="2.0" stroke-linecap="round" stroke-linejoin="round"/>
    <path d="M 157.60 328.00 C 158.06 337.33, 157.19 346.67, 157.60 356.00" fill="none" stroke="black" stroke-width="1.4" stroke-linecap="round"/>
    <path d="M 163.60 328.00 C 163.03 337.33, 164.18 346.67, 163.60 356.00" fill="none" stroke="black" stroke-width="1.4" stroke-linecap="round"/>
    <path d="M 169.60 328.00 C 170.12 337.33, 170.05 346.67, 169.60 356.00" fill="none" stroke="black" stroke-width="1.4" stroke-linecap="round"/>
    <path d="M 161.16 324.00 C 160.67 324.36, 161.11 324.93, 160.84 325.34 C 160.42 325.67, 159.86 325.57, 159.40 325.80 C 159.36 326.24, 159.29 326.66, 158.74 326.75 C 158.40 327.18, 157.94 326.51, 157.60 326.88 C 157.25 326.66, 156.91 326.44, 156.48 326.70 C 155.99 326.84, 155.67 326.53, 155.33 326.27 C 155.39 325.83, 155.66 325.38, 155.28 324.96 C 154.90 324.68, 154.69 324.22, 154.25 324.00 C 154.78 323.87, 154.70 323.16, 155.20 323.01 C 155.18 322.49, 154.96 321.99, 155.06 321.46 C 155.55 321.61, 156.04 321.61, 156.49 321.32 C 156.88 321.40, 157.23 321.20, 157.60 321.12 C 158.12 321.29, 158.55 321.13, 158.93 320.78 C 159.43 320.84, 159.84 321.05, 160.10 321.50 C 159.81 322.03, 160.03 322.45, 160.37 322.85 C 160.34 323.44, 161.11 323.47, 161.16 324.00" fill="none" stroke="black" stroke-width="2.0" stroke-linecap="round"/>
    <path d="M 169.20 320.00 C 168.98 320.57, 168.40 320.90, 168.22 321.50 C 167.80 321.82, 167.56 322.26, 167.32 322.72 C 166.73 322.70, 166.34 323.02, 166.04 323.47 C 165.55 323.51, 165.13 323.97, 164.60 323.68 C 164.18 323.25, 163.63 323.62, 163.17 323.46 C 163.11 322.84, 162.23 323.04, 162.16 322.44 C 161.77 322.02, 161.26 321.80, 160.74 321.60 C 160.88 320.93, 160.46 320.48, 160.11 320.00 C 160.27 319.45, 160.25 318.84, 160.60 318.35 C 160.77 317.78, 161.43 317.53, 161.51 316.91 C 162.11 317.05, 162.67 316.92, 163.22 316.67 C 163.66 316.47, 164.17 316.72, 164.60 316.44 C 165.08 316.38, 165.55 316.42, 166.01 316.61 C 166.38 316.92, 166.66 317.39, 167.24 317.36 C 167.72 317.63, 168.15 317.97, 168.53 318.37 C 169.07 318.79, 168.70 319.57, 169.20 320.00" fill="none" stroke="black" stroke-width="2.0" stroke-linecap="round"/>
    <path d="M 174.98 325.00 C 175.19 325.54, 174.30 325.66, 174.51 326.21 C 174.58 326.76, 174.08 326.90, 173.80 327.20 C 173.23 327.34, 173.24 327.93, 172.97 328.30 C 172.64 327.81, 171.99 328.08, 171.60 327.74 C 171.20 327.93, 170.88 327.72, 170.54 327.56 C 170.31 327.29, 169.92 327.19, 169.74 326.86 C 169.33 326.72, 169.10 326.29, 168.65 326.22 C 168.12 325.98, 168.45 325.29, 168.02 325.00 C 168.20 324.39, 168.72 324.19, 169.25 324.03 C 169.32 323.51, 168.94 323.04, 169.11 322.51 C 169.64 322.69, 169.90 322.00, 170.40 322.11 C 170.78 321.87, 171.17 321.71, 171.60 322.00 C 172.14 321.95, 172.11 322.64, 172.54 322.73 C 172.96 322.54, 173.36 322.54, 173.70 322.90 C 174.00 323.18, 174.11 323.55, 174.14 323.95 C 174.54 324.21, 174.43 324.87, 174.98 325.00" fill="none" stroke="black" stroke-width="2.0" stroke-linecap="round"/>
    <path d="M 149.74 270.00 C 149.60 271.59, 148.40 272.82, 148.25 274.41 C 147.74 275.87, 146.73 277.03, 145.89 278.29 C 144.86 279.50, 143.50 280.32, 142.28 281.31 C 140.72 281.34, 139.13 281.17, 137.60 281.67 C 136.12 281.30, 134.60 281.17, 133.11 280.84 C 131.86 279.88, 130.51 279.09, 129.01 278.59 C 128.09 277.28, 127.25 275.91, 126.13 274.75 C 125.89 273.15, 125.40 271.60, 125.11 270.00 C 125.76 268.52, 125.90 266.89, 126.47 265.39 C 127.05 263.90, 128.47 262.93, 129.00 261.40 C 130.39 260.62, 131.39 259.27, 132.91 258.68 C 134.47 258.37, 136.04 258.55, 137.60 258.54 C 139.20 258.62, 140.79 258.21, 142.39 258.44 C 143.61 259.50, 145.03 260.29, 146.23 261.37 C 146.72 262.87, 147.31 264.32, 148.31 265.56 C 148.54 267.12, 148.89 268.64, 149.74 270.00" fill="none" stroke="black" stroke-width="2.0" stroke-linecap="round"/>
    <path d="M 123.60 260.00 C 132.93 260.68, 142.27 260.23, 151.60 260.00 C 150.76 257.09, 149.35 254.46, 147.60 252.00 C 140.93 251.62, 134.27 251.82, 127.60 252.00 C 126.31 254.69, 125.26 257.50, 123.60 260.00" fill="black" stroke="black" stroke-width="2.0" stroke-linecap="round" stroke-linejoin="round"/>
    <path d="M 149.89 252.00 C 149.72 252.25, 149.49 252.48, 149.60 252.83 C 149.46 253.10, 149.46 253.42, 149.27 253.67 C 148.95 253.42, 148.61 253.46, 148.26 253.60 C 148.03 253.61, 147.74 253.85, 147.60 253.44 C 147.49 253.85, 146.98 253.42, 146.86 253.79 C 146.92 253.43, 146.58 253.38, 146.41 253.19 C 146.03 253.05, 146.54 252.72, 146.27 252.55 C 145.91 252.41, 145.52 252.35, 145.28 252.00 C 145.55 251.82, 145.54 251.39, 145.91 251.30 C 146.13 251.19, 146.37 251.11, 146.58 250.98 C 146.48 250.65, 146.82 250.48, 146.85 250.19 C 147.18 250.33, 147.48 250.39, 147.60 249.94 C 147.81 250.11, 148.05 250.22, 148.31 250.29 C 148.54 250.39, 148.78 250.48, 148.83 250.77 C 149.25 250.75, 148.93 251.26, 149.23 251.33 C 149.37 251.63, 149.69 251.75, 149.89 252.00" fill="black" stroke="black" stroke-width="2.0" stroke-linecap="round"/>
    <path d="M 137.60 282.00 C 137.74 296.00, 137.59 310.00, 137.60 324.00" fill="none" stroke="black" stroke-width="2.0" stroke-linecap="round"/>
    <path d="M 137.60 290.00 C 132.35 296.73, 127.02 303.41, 121.60 310.00" fill="none" stroke="black" stroke-width="2.0" stroke-linecap="round"/>
    <path d="M 137.60 290.00 C 142.59 296.94, 148.79 302.91, 153.60 310.00" fill="none" stroke="black" stroke-width="2.0" stroke-linecap="round"/>
    <path d="M 137.60 324.00 C 133.50 332.62, 129.43 341.25, 125.60 350.00" fill="none" stroke="black" stroke-width="2.0" stroke-linecap="round"/>
    <path d="M 137.60 324.00 C 142.06 332.46, 146.43 340.95, 149.60 350.00" fill="none" stroke="black" stroke-width="2.0" stroke-linecap="round"/>
    <path d="M 286.61 270.00 C 285.91 271.46, 285.91 273.08, 285.56 274.62 C 284.60 275.84, 283.77 277.16, 282.68 278.28 C 281.25 279.07, 280.41 280.50, 279.16 281.49 C 277.54 281.52, 275.97 281.92, 274.40 282.25 C 272.80 282.04, 271.23 281.68, 269.62 281.54 C 268.43 280.48, 267.28 279.37, 266.21 278.19 C 265.36 276.88, 264.31 275.73, 263.22 274.63 C 262.60 273.14, 262.45 271.51, 261.90 270.00 C 262.69 268.60, 263.14 267.06, 263.61 265.53 C 264.27 264.09, 264.81 262.59, 265.61 261.21 C 266.97 260.39, 268.36 259.60, 269.84 258.98 C 271.44 258.77, 272.76 257.63, 274.40 257.52 C 275.98 257.88, 277.16 259.16, 278.77 259.45 C 280.13 260.18, 281.46 260.95, 282.92 261.48 C 283.89 262.72, 284.61 264.08, 285.01 265.60 C 285.53 267.07, 286.21 268.49, 286.61 270.00" fill="none" stroke="black" stroke-width="2.0" stroke-linecap="round"/>
    <path d="M 262.40 268.00 C 261.78 278.67, 260.38 289.29, 260.40 300.00" fill="none" stroke="black" stroke-width="2.0" stroke-linecap="round"/>
    <path d="M 264.40 266.00 C 263.70 278.67, 263.36 291.35, 262.40 304.00" fill="none" stroke="black" stroke-width="2.0" stroke-linecap="round"/>
    <path d="M 286.40 268.00 C 286.14 278.72, 288.42 289.29, 288.40 300.00" fill="none" stroke="black" stroke-width="2.0" stroke-linecap="round"/>
    <path d="M 270.40 258.00 C 269.20 257.06, 267.63 256.86, 266.40 256.00" fill="none" stroke="black" stroke-width="1.4" stroke-linecap="round"/>
    <path d="M 278.40 258.00 C 279.81 257.49, 280.74 256.02, 282.40 256.00" fill="none" stroke="black" stroke-width="1.4" stroke-linecap="round"/>
    <path d="M 274.40 282.00 C 275.09 296.00, 275.32 310.00, 274.40 324.00" fill="none" stroke="black" stroke-width="2.0" stroke-linecap="round"/>
    <path d="M 274.40 292.00 C 264.98 291.26, 255.81 288.77, 246.40 288.00" fill="none" stroke="black" stroke-width="2.0" stroke-linecap="round"/>
    <path d="M 274.40 292.00 C 279.30 298.38, 285.40 303.70, 290.40 310.00" fill="none" stroke="black" stroke-width="2.0" stroke-linecap="round"/>
    <path d="M 274.40 324.00 C 271.23 333.05, 265.82 341.07, 262.40 350.00" fill="none" stroke="black" stroke-width="2.0" stroke-linecap="round"/>
    <path d="M 274.40 324.00 C 278.44 332.65, 283.04 341.04, 286.40 350.00" fill="none" stroke="black" stroke-width="2.0" stroke-linecap="round"/>
    <path d="M 36.00 60.00 C 85.33 60.39, 134.67 60.49, 184.00 60.00 C 187.00 63.66, 190.58 66.76, 194.00 70.00 C 194.49 76.00, 194.02 82.00, 194.00 88.00 C 190.23 90.90, 187.46 94.80, 184.00 98.00 C 134.67 98.12, 85.33 98.26, 36.00 98.00 C 32.79 94.55, 28.92 91.74, 26.00 88.00 C 26.50 82.00, 26.68 76.00, 26.00 70.00 C 29.50 66.84, 33.01 63.68, 36.00 60.00" fill="#e3d3a2" stroke="black" stroke-width="2.0" stroke-linecap="round" stroke-linejoin="round"/>
    <path d="M 138.60 98.00 C 141.70 156.64, 142.77 215.35, 145.60 274.00 C 148.66 215.36, 150.64 156.68, 152.60 98.00" fill="#e3d3a2" stroke="black" stroke-width="2.0" stroke-linecap="round" stroke-linejoin="round"/>
    <line x1="139.60000000000002" y1="98" x2="151.60000000000002" y2="98" stroke="#e3d3a2" stroke-width="2.4"/>
    <text x="110.0" y="78.0" text-anchor="middle" font-family="Comic Neue, Comic Sans MS, cursive" font-size="13" fill="black"><tspan x="110.0" dy="0">I fickin love this</tspan></text>
  </g>
</svg>
