<?xml version="1.0" encoding="UTF-8"?>
<svg xmlns="http://www.w3.org/2000/svg" viewBox="0 0 806 402" width="806" height="402" role="img" aria-label="#028 — Home Alone 2: Lost in New York (1992)">
  <defs><filter id="grain" x="0%" y="0%" width="100%" height="100%"><feTurbulence type="fractalNoise" baseFrequency="0.85" numOctaves="2" stitchTiles="stitch" seed="2"/><feColorMatrix values="0 0 0 0 0.32  0 0 0 0 0.22  0 0 0 0 0.13  0 0 0 -1.4 0.55"/></filter></defs>
  <rect width="100%" height="100%" fill="#f1e7cc"/>
  <rect width="100%" height="100%" filter="url(#grain)" opacity="0.75"/>
  <text x="403.0" y="34" text-anchor="middle" font-family="Comic Neue, Comic Sans MS, cursive" font-size="16" font-weight="700" fill="black">#028 — Home Alone 2: Lost in New York (1992) ★★★★</text>
  <g class="panel">
    <path d="M 16.00 46.00 C 142.67 45.25, 269.33 46.21, 396.00 46.00 C 395.42 159.33, 396.01 272.67, 396.00 386.00 C 269.33 386.03, 142.67 386.57, 16.00 386.00 C 15.91 272.67, 15.54 159.33, 16.00 46.00" fill="none" stroke="black" stroke-width="2.0" stroke-linecap="round" stroke-linejoin="round"/>
    <path d="M 26.00 362.00 C 146.00 361.20, 266.00 362.10, 386.00 362.00" fill="none" stroke="black" stroke-width="1.4" stroke-linecap="round"/>
    <path d="M 151.60 326.00 C 159.60 326.03, 167.60 326.14, 175.60 326.00 C 175.55 336.71, 174.67 347.36, 173.60 358.00 C 166.93 357.83, 160.27 357.67, 153.60 358.00 C 152.60 347.35, 152.47 336.65, 151.60 326.00" fill="none" stroke="black" stroke-width="2.0" stroke-linecap="round" stroke-linejoin="round"/>
    <path d="M 157.60 328.00 C 157.34 337.33, 157.97 346.67, 157.60 356.00" fill="none" stroke="black" stroke-width="1.4" stroke-linecap="round"/>
    <path d="M 163.60 328.00 C 164.59 337.33, 163.87 346.67, 163.60 356.00" fill="none" stroke="black" stroke-width="1.4" stroke-linecap="round"/>
    <path d="M 169.60 328.00 C 169.29 337.33, 168.83 346.67, 169.60 356.00" fill="none" stroke="black" stroke-width="1.4" stroke-linecap="round"/>
    <path d="M 160.17 324.00 C 160.70 324.28, 160.59 324.84, 160.72 325.29 C 160.69 325.79, 160.34 326.10, 160.04 326.44 C 159.55 326.29, 159.24 327.00, 158.72 326.71 C 158.28 326.91, 157.94 327.24, 157.60 327.58 C 157.44 327.04, 156.99 326.74, 156.61 326.38 C 156.19 326.36, 155.98 326.10, 155.88 325.72 C 155.66 325.39, 155.18 325.44, 154.98 325.09 C 154.59 324.82, 154.68 324.26, 154.28 324.00 C 154.32 323.56, 154.70 323.25, 154.75 322.82 C 155.16 322.71, 155.22 322.12, 155.70 322.10 C 155.73 321.63, 156.18 321.42, 156.38 321.05 C 156.78 321.20, 157.19 321.23, 157.60 321.07 C 157.95 321.21, 158.28 321.38, 158.61 321.56 C 158.67 322.03, 159.22 321.89, 159.40 322.20 C 159.87 322.21, 160.31 322.28, 160.49 322.80 C 160.66 323.27, 160.03 323.53, 160.17 324.00" fill="none" stroke="black" stroke-width="2.0" stroke-linecap="round"/>
    <path d="M 168.34 320.00 C 168.11 320.61, 168.92 321.05, 168.64 321.67 C 168.21 322.07, 168.21 322.75, 167.68 323.08 C 167.07 322.88, 166.55 323.25, 165.99 323.36 C 165.52 323.48, 165.15 323.94, 164.60 323.78 C 164.13 323.66, 163.75 323.21, 163.20 323.39 C 162.61 323.18, 162.00 323.19, 161.40 323.20 C 161.46 322.56, 160.83 322.18, 160.77 321.58 C 160.54 321.06, 160.45 320.53, 160.78 320.00 C 160.84 319.50, 161.40 319.21, 161.36 318.66 C 161.29 318.04, 161.75 317.44, 161.41 316.81 C 162.01 316.71, 162.62 316.77, 163.21 316.64 C 163.81 316.58, 164.12 316.04, 164.60 315.78 C 165.20 315.49, 165.68 316.05, 166.25 316.01 C 166.34 316.62, 166.95 316.97, 167.01 317.59 C 167.09 318.07, 167.79 318.14, 167.75 318.70 C 168.12 319.05, 168.50 319.40, 168.34 320.00" fill="none" stroke="black" stroke-width="2.0" stroke-linecap="round"/>
    <path d="M 174.58 325.00 C 174.80 325.43, 174.59 325.96, 174.90 326.37 C 174.36 326.36, 174.00 326.77, 173.53 326.93 C 173.20 327.09, 172.74 327.09, 172.67 327.59 C 172.21 327.47, 171.94 327.82, 171.60 328.01 C 171.15 327.82, 170.76 328.29, 170.31 328.12 C 170.01 327.69, 170.37 327.08, 169.90 326.70 C 169.63 326.25, 169.07 326.46, 168.73 326.19 C 168.70 325.72, 168.83 325.32, 169.18 325.00 C 168.89 324.60, 168.94 324.02, 168.48 323.71 C 168.93 323.59, 169.42 323.55, 169.64 323.04 C 170.12 322.91, 170.32 322.55, 170.40 322.10 C 170.72 321.73, 171.29 322.13, 171.60 321.71 C 172.03 321.76, 172.31 322.20, 172.77 322.17 C 173.03 322.48, 173.22 322.86, 173.68 322.92 C 174.06 323.13, 174.00 323.61, 174.26 323.90 C 174.57 324.21, 174.85 324.52, 174.58 325.00" fill="none" stroke="black" stroke-width="2.0" stroke-linecap="round"/>
    <path d="M 149.88 270.00 C 149.72 271.59, 148.81 272.99, 148.68 274.59 C 147.91 275.94, 146.91 277.12, 145.83 278.23 C 144.87 279.51, 143.33 280.07, 142.23 281.17 C 140.77 281.90, 139.16 282.11, 137.60 282.48 C 136.15 281.80, 134.50 281.68, 133.08 280.90 C 131.62 280.29, 130.25 279.51, 128.89 278.71 C 127.73 277.55, 127.16 275.97, 126.04 274.79 C 125.89 273.19, 125.88 271.59, 125.68 270.00 C 125.81 268.45, 126.11 266.93, 126.62 265.45 C 127.11 263.92, 127.84 262.51, 128.86 261.26 C 130.22 260.43, 131.74 259.93, 133.06 259.04 C 134.60 258.84, 136.05 258.24, 137.60 258.10 C 139.17 258.33, 140.78 258.16, 142.34 258.55 C 143.36 259.77, 144.44 260.93, 145.79 261.81 C 146.54 263.17, 147.87 264.07, 148.60 265.44 C 149.26 266.90, 149.53 268.46, 149.88 270.00" fill="none" stroke="black" stroke-width="2.0" stroke-linecap="round"/>
    <path d="M 137.60 282.00 C 137.70 296.00, 137.43 310.00, 137.60 324.00" fill="none" stroke="black" stroke-width="2.0" stroke-linecap="round"/>
    <path d="M 137.60 290.00 C 132.77 297.07, 126.43 302.93, 121.60 310.00" fill="none" stroke="black" stroke-width="2.0" stroke-linecap="round"/>
    <path d="M 137.60 290.00 C 143.32 296.36, 147.85 303.67, 153.60 310.00" fill="none" stroke="black" stroke-width="2.0" stroke-linecap="round"/>
    <path d="M 137.60 324.00 C 133.37 332.56, 129.16 341.13, 125.60 350.00" fill="none" stroke="black" stroke-width="2.0" stroke-linecap="round"/>
    <path d="M 137.60 324.00 C 142.34 332.33, 146.29 341.01, 149.60 350.00" fill="none" stroke="black" stroke-width="2.0" stroke-linecap="round"/>
    <path d="M 286.58 270.00 C 286.16 271.52, 285.62 273.02, 285.54 274.61 C 284.72 275.97, 283.82 277.26, 283.04 278.64 C 281.65 279.38, 280.45 280.45, 278.99 281.09 C 277.56 281.88, 275.96 282.03, 274.40 282.33 C 272.86 281.83, 271.28 281.46, 269.65 281.48 C 268.24 280.66, 266.75 279.98, 265.55 278.85 C 264.60 277.53, 264.41 275.84, 263.41 274.55 C 262.82 273.09, 262.77 271.52, 262.43 270.00 C 262.60 268.45, 263.09 266.96, 263.35 265.42 C 264.22 264.09, 265.16 262.80, 265.67 261.27 C 267.22 260.70, 268.40 259.57, 269.67 258.58 C 271.25 258.86, 272.82 258.40, 274.40 258.51 C 275.95 258.81, 277.52 258.82, 279.09 258.69 C 280.28 259.74, 281.49 260.77, 282.96 261.44 C 283.56 262.91, 284.45 264.19, 285.39 265.45 C 285.62 267.01, 286.02 268.53, 286.58 270.00" fill="none" stroke="black" stroke-width="2.0" stroke-linecap="round"/>
    <path d="M 280.31 252.00 C 279.75 252.58, 279.59 253.33, 279.44 254.09 C 279.16 254.85, 278.86 255.60, 278.83 256.43 C 278.11 256.78, 277.43 257.22, 276.63 257.39 C 275.80 257.30, 275.15 257.83, 274.40 258.03 C 273.58 257.89, 272.74 258.38, 271.93 257.96 C 271.38 257.25, 270.41 257.21, 269.77 256.63 C 269.04 256.09, 268.60 255.36, 268.38 254.49 C 268.37 253.65, 268.19 252.78, 268.68 252.00 C 268.46 251.19, 269.09 250.57, 269.15 249.83 C 269.88 249.48, 270.05 248.68, 270.53 248.13 C 270.66 247.20, 271.35 246.63, 271.90 245.96 C 272.76 245.92, 273.61 245.99, 274.40 246.38 C 275.18 246.25, 275.95 246.23, 276.73 246.37 C 277.63 246.39, 278.28 247.03, 279.05 247.35 C 278.96 248.23, 279.64 249.00, 279.45 249.91 C 279.59 250.67, 280.17 251.24, 280.31 252.00" fill="none" stroke="black" stroke-width="2.0" stroke-linecap="round"/>
    <path d="M 263.40 271.00 C 262.13 274.56, 262.66 278.44, 261.40 282.00" fill="none" stroke="black" stroke-width="2.0" stroke-linecap="round"/>
    <path d="M 285.40 271.00 C 285.47 274.77, 286.38 278.40, 287.40 282.00" fill="none" stroke="black" stroke-width="2.0" stroke-linecap="round"/>
    <path d="M 274.40 282.00 C 274.43 296.00, 273.42 310.00, 274.40 324.00" fill="none" stroke="black" stroke-width="2.0" stroke-linecap="round"/>
    <path d="M 274.40 292.00 C 265.11 290.40, 255.80 288.85, 246.40 288.00" fill="none" stroke="black" stroke-width="2.0" stroke-linecap="round"/>
    <path d="M 274.40 292.00 C 279.17 298.50, 285.79 303.36, 290.40 310.00" fill="none" stroke="black" stroke-width="2.0" stroke-linecap="round"/>
    <path d="M 274.40 324.00 C 271.28 333.07, 266.21 341.25, 262.40 350.00" fill="none" stroke="black" stroke-width="2.0" stroke-linecap="round"/>
    <path d="M 274.40 324.00 C 277.99 332.86, 281.60 341.70, 286.40 350.00" fill="none" stroke="black" stroke-width="2.0" stroke-linecap="round"/>
    <path d="M 36.00 60.00 C 82.67 59.51, 129.33 59.60, 176.00 60.00 C 178.88 63.79, 182.59 66.74, 186.00 70.00 C 186.14 81.33, 186.16 92.67, 186.00 104.00 C 182.46 107.13, 179.51 110.84, 176.00 114.00 C 129.33 114.71, 82.67 114.20, 36.00 114.00 C 33.06 110.27, 29.61 107.05, 26.00 104.00 C 25.90 92.67, 25.60 81.33, 26.00 70.00 C 29.55 66.88, 32.18 62.85, 36.00 60.00" fill="#f1e7cc" stroke="black" stroke-width="2.0" stroke-linecap="round" stroke-linejoin="round"/>
    <path d="M 138.60 114.00 C 140.42 167.36, 143.63 220.65, 145.60 274.00 C 147.85 220.66, 149.83 167.31, 152.60 114.00" fill="#f1e7cc" stroke="black" stroke-width="2.0" stroke-linecap="round" stroke-linejoin="round"/>
    <line x1="139.60000000000002" y1="114" x2="151.60000000000002" y2="114" stroke="#f1e7cc" stroke-width="2.4"/>
    <text x="106.0" y="78.0" text-anchor="middle" font-family="Comic Neue, Comic Sans MS, cursive" font-size="13" fill="black"><tspan x="106.0" dy="0">I fuckin love Joe</tspan><tspan x="106.0" dy="16">pesci man.</tspan></text>
    <path d="M 226.00 60.00 C 276.00 60.79, 326.00 59.71, 376.00 60.00 C 379.55 63.12, 382.81 66.52, 386.00 70.00 C 386.16 81.33, 386.35 92.67, 386.00 104.00 C 382.36 107.03, 379.86 111.19, 376.00 114.00 C 326.00 113.29, 276.00 113.95, 226.00 114.00 C 223.23 110.11, 219.22 107.44, 216.00 104.00 C 215.92 92.67, 215.23 81.33, 216.00 70.00 C 219.28 66.62, 222.97 63.64, 226.00 60.00" fill="#f1e7cc" stroke="black" stroke-width="2.0" stroke-linecap="round" stroke-linejoin="round"/>
    <path d="M 259.40 114.00 C 262.20 167.31, 264.69 220.64, 266.40 274.00 C 268.71 220.67, 270.73 167.32, 273.40 114.00" fill="#f1e7cc" stroke="black" stroke-width="2.0" stroke-linecap="round" stroke-linejoin="round"/>
    <line x1="260.40000000000003" y1="114" x2="272.40000000000003" y2="114" stroke="#f1e7cc" stroke-width="2.4"/>
    <text x="301.0" y="78.0" text-anchor="middle" font-family="Comic Neue, Comic Sans MS, cursive" font-size="13" fill="black"><tspan x="301.0" dy="0">P.s kick starting dec</tspan><tspan x="301.0" dy="16">with classic.</tspan></text>
  </g>
  <g class="panel">
    <path d="M 410.00 46.00 C 536.67 45.23, 663.33 45.57, 790.00 46.00 C 790.23 159.33, 789.79 272.67, 790.00 386.00 C 663.33 386.23, 536.67 386.19, 410.00 386.00 C 409.53 272.67, 409.41 159.33, 410.00 46.00" fill="none" stroke="black" stroke-width="2.0" stroke-linecap="round" stroke-linejoin="round"/>
    <path d="M 420.00 362.00 C 540.00 362.37, 660.00 362.27, 780.00 362.00" fill="none" stroke="black" stroke-width="1.4" stroke-linecap="round"/>
    <path d="M 543.13 270.00 C 542.66 271.46, 542.60 272.98, 542.42 274.48 C 541.97 276.04, 540.89 277.32, 540.51 278.91 C 539.27 280.01, 537.60 280.41, 536.37 281.52 C 534.75 281.56, 533.22 282.24, 531.60 282.31 C 529.97 282.30, 528.44 281.64, 526.83 281.52 C 525.39 280.75, 524.34 279.51, 523.11 278.49 C 522.22 277.22, 521.48 275.85, 520.67 274.53 C 520.25 273.04, 520.08 271.49, 519.65 270.00 C 520.25 268.58, 520.84 267.17, 521.02 265.62 C 521.80 264.32, 522.37 262.90, 523.27 261.67 C 524.69 260.85, 525.82 259.71, 526.80 258.41 C 528.41 258.62, 529.99 258.01, 531.60 258.18 C 533.15 258.27, 534.62 258.69, 536.08 259.19 C 537.44 259.93, 538.80 260.67, 540.13 261.47 C 541.22 262.63, 542.00 263.98, 542.47 265.50 C 542.87 266.97, 543.26 268.45, 543.13 270.00" fill="none" stroke="black" stroke-width="2.0" stroke-linecap="round"/>
    <path d="M 537.20 252.00 C 536.90 252.79, 536.92 253.57, 537.27 254.35 C 536.72 254.97, 536.68 255.88, 536.07 256.47 C 535.30 256.76, 534.58 257.24, 533.69 257.06 C 532.84 257.07, 532.42 258.00, 531.60 258.09 C 530.94 257.68, 530.18 257.43, 529.53 257.00 C 528.74 256.85, 527.91 256.89, 527.21 256.39 C 527.01 255.55, 525.99 255.27, 525.86 254.38 C 525.87 253.56, 525.60 252.80, 525.50 252.00 C 525.63 251.22, 526.09 250.51, 526.02 249.69 C 526.50 249.01, 526.70 248.21, 527.09 247.49 C 527.95 247.56, 528.63 246.78, 529.51 246.95 C 530.09 246.33, 530.84 246.01, 531.60 245.69 C 532.25 246.18, 532.85 246.77, 533.69 246.95 C 534.56 246.85, 535.23 247.57, 536.09 247.51 C 536.78 248.06, 537.00 248.87, 537.31 249.64 C 537.45 250.43, 537.43 251.22, 537.20 252.00" fill="none" stroke="black" stroke-width="2.0" stroke-linecap="round"/>
    <path d="M 520.60 271.00 C 520.05 274.69, 519.50 278.38, 518.60 282.00" fill="none" stroke="black" stroke-width="2.0" stroke-linecap="round"/>
    <path d="M 542.60 271.00 C 544.23 274.49, 544.20 278.28, 544.60 282.00" fill="none" stroke="black" stroke-width="2.0" stroke-linecap="round"/>
    <path d="M 531.60 282.00 C 531.00 296.00, 531.74 310.00, 531.60 324.00" fill="none" stroke="black" stroke-width="2.0" stroke-linecap="round"/>
    <path d="M 531.60 290.00 C 523.96 286.56, 516.66 282.50, 509.60 278.00" fill="none" stroke="black" stroke-width="2.0" stroke-linecap="round"/>
    <path d="M 509.60 278.00 C 508.50 284.05, 507.67 290.16, 505.60 296.00" fill="none" stroke="black" stroke-width="2.0" stroke-linecap="round"/>
    <path d="M 531.60 290.00 C 539.10 286.30, 545.84 281.23, 553.60 278.00" fill="none" stroke="black" stroke-width="2.0" stroke-linecap="round"/>
    <path d="M 553.60 278.00 C 554.15 284.18, 555.42 290.19, 557.60 296.00" fill="none" stroke="black" stroke-width="2.0" stroke-linecap="round"/>
    <path d="M 531.60 324.00 C 527.73 332.73, 523.33 341.21, 519.60 350.00" fill="none" stroke="black" stroke-width="2.0" stroke-linecap="round"/>
    <path d="M 531.60 324.00 C 535.63 332.65, 540.38 340.97, 543.60 350.00" fill="none" stroke="black" stroke-width="2.0" stroke-linecap="round"/>
    <path d="M 680.44 270.00 C 679.91 271.48, 679.62 273.01, 679.42 274.57 C 678.42 275.74, 677.83 277.22, 676.66 278.26 C 675.51 279.29, 674.30 280.26, 672.99 281.09 C 671.44 281.24, 669.99 281.97, 668.40 281.95 C 666.87 281.66, 665.34 281.39, 663.81 281.08 C 662.50 280.25, 661.51 278.97, 660.03 278.37 C 659.17 277.10, 658.27 275.86, 657.57 274.48 C 657.05 272.99, 656.53 271.49, 655.99 270.00 C 656.26 268.42, 656.63 266.85, 657.10 265.32 C 658.01 264.04, 658.99 262.81, 660.13 261.73 C 661.38 260.86, 662.74 260.15, 663.91 259.17 C 665.38 258.78, 666.93 258.86, 668.40 258.47 C 669.98 258.75, 671.57 258.30, 673.14 258.55 C 674.44 259.48, 675.68 260.48, 676.92 261.48 C 678.03 262.63, 678.57 264.21, 679.76 265.30 C 679.78 266.89, 680.52 268.39, 680.44 270.00" fill="none" stroke="black" stroke-width="2.0" stroke-linecap="round"/>
    <path d="M 668.40 282.00 C 668.48 296.00, 668.32 310.00, 668.40 324.00" fill="none" stroke="black" stroke-width="2.0" stroke-linecap="round"/>
    <path d="M 668.40 292.00 C 658.98 291.29, 649.81 288.80, 640.40 288.00" fill="none" stroke="black" stroke-width="2.0" stroke-linecap="round"/>
    <path d="M 668.40 292.00 C 673.24 298.44, 678.72 304.31, 684.40 310.00" fill="none" stroke="black" stroke-width="2.0" stroke-linecap="round"/>
    <path d="M 668.40 324.00 C 664.20 332.57, 660.44 341.35, 656.40 350.00" fill="none" stroke="black" stroke-width="2.0" stroke-linecap="round"/>
    <path d="M 668.40 324.00 C 672.69 332.53, 676.72 341.18, 680.40 350.00" fill="none" stroke="black" stroke-width="2.0" stroke-linecap="round"/>
    <path d="M 430.00 60.00 C 480.00 60.02, 530.00 60.72, 580.00 60.00 C 582.82 63.85, 586.22 67.12, 590.00 70.00 C 589.55 81.33, 590.77 92.67, 590.00 104.00 C 586.88 107.55, 583.78 111.11, 580.00 114.00 C 530.00 114.03, 480.00 113.58, 430.00 114.00 C 426.78 110.55, 423.40 107.26, 420.00 104.00 C 419.53 92.67, 419.24 81.33, 420.00 70.00 C 423.44 66.77, 427.04 63.71, 430.00 60.00" fill="#f1e7cc" stroke="black" stroke-width="2.0" stroke-linecap="round" stroke-linejoin="round"/>
    <path d="M 532.60 114.00 C 535.30 167.32, 537.08 220.68, 539.60 274.00 C 542.16 220.68, 543.89 167.32, 546.60 114.00" fill="#f1e7cc" stroke="black" stroke-width="2.0" stroke-linecap="round" stroke-linejoin="round"/>
    <line x1="533.6" y1="114" x2="545.6" y2="114" stroke="#f1e7cc" stroke-width="2.4"/>
    <text x="505.0" y="78.0" text-anchor="middle" font-family="Comic Neue, Comic Sans MS, cursive" font-size="13" fill="black"><tspan x="505.0" dy="0">P.s kick starting dec</tspan><tspan x="505.0" dy="16">with classic.</tspan></text>
  </g>
</svg>
