<?xml version="1.0" encoding="UTF-8"?>
<svg xmlns="http://www.w3.org/2000/svg" viewBox="0 0 412 402" width="412" height="402" role="img" aria-label="#029 — Pride &amp; Prejudice (2005)">
  <rect width="100%" height="100%" fill="white"/>
  <text x="206.0" y="34" text-anchor="middle" font-family="Comic Neue, Comic Sans MS, cursive" font-size="16" font-weight="700" fill="black">#029 — Pride &amp; Prejudice (2005) ★★★★½</text>
  <g class="panel">
    <path d="M 16.00 46.00 C 142.67 45.88, 269.33 46.76, 396.00 46.00 C 395.24 159.33, 395.96 272.67, 396.00 386.00 C 269.33 385.51, 142.67 386.36, 16.00 386.00 C 16.25 272.67, 15.82 159.33, 16.00 46.00" fill="none" stroke="black" stroke-width="2.0" stroke-linecap="round" stroke-linejoin="round"/>
    <path d="M 46.00 82.00 C 152.67 82.27, 259.33 81.72, 366.00 82.00 C 365.91 108.67, 365.35 135.33, 366.00 162.00 C 259.33 162.40, 152.67 161.52, 46.00 162.00 C 45.59 135.33, 45.28 108.67, 46.00 82.00" fill="#111" stroke="black" stroke-width="2.0" stroke-linecap="round" stroke-linejoin="round"/>
    <path d="M 50.00 86.00 C 154.00 85.20, 258.00 86.60, 362.00 86.00 C 362.39 110.00, 361.73 134.00, 362.00 158.00 C 258.00 158.55, 154.00 158.02, 50.00 158.00 C 50.08 134.00, 49.53 110.00, 50.00 86.00" fill="none" stroke="black" stroke-width="2.0" stroke-linecap="round" stroke-linejoin="round"/>
    <path d="M 66.00 362.00 C 112.67 362.25, 159.33 362.37, 206.00 362.00 C 205.11 351.94, 203.15 342.02, 202.00 332.00 C 198.72 325.58, 196.08 318.90, 194.00 312.00 C 155.33 312.08, 116.67 311.75, 78.00 312.00 C 74.82 318.46, 73.25 325.57, 70.00 332.00 C 69.36 342.09, 66.87 351.94, 66.00 362.00" fill="#222" stroke="black" stroke-width="2.0" stroke-linecap="round" stroke-linejoin="round"/>
    <path d="M 216.00 362.00 C 262.67 361.97, 309.33 361.66, 356.00 362.00 C 355.40 351.90, 353.24 342.01, 352.00 332.00 C 348.82 325.54, 346.97 318.54, 344.00 312.00 C 305.33 311.52, 266.67 312.74, 228.00 312.00 C 225.48 318.72, 222.50 325.27, 220.00 332.00 C 218.77 342.01, 216.56 351.90, 216.00 362.00" fill="#222" stroke="black" stroke-width="2.0" stroke-linecap="round" stroke-linejoin="round"/>
    <path d="M 149.75 332.00 C 148.98 333.38, 148.92 335.00, 148.31 336.44 C 147.76 337.90, 147.04 339.27, 146.18 340.58 C 144.98 341.67, 143.73 342.68, 142.42 343.63 C 140.81 343.78, 139.19 343.67, 137.60 344.03 C 136.05 343.76, 134.53 343.34, 132.97 343.19 C 131.99 341.93, 130.53 341.27, 129.39 340.21 C 128.69 338.83, 127.82 337.58, 126.68 336.52 C 126.41 334.94, 125.48 333.57, 125.16 332.00 C 125.18 330.35, 125.95 328.88, 126.24 327.30 C 127.01 325.88, 127.75 324.45, 128.86 323.26 C 130.17 322.31, 131.45 321.32, 132.82 320.46 C 134.39 320.01, 136.03 320.59, 137.60 320.16 C 139.19 320.12, 140.72 320.60, 142.30 320.66 C 143.33 321.90, 144.55 322.90, 146.04 323.56 C 147.19 324.69, 147.87 326.24, 149.24 327.18 C 149.59 328.77, 149.34 330.42, 149.75 332.00" fill="none" stroke="black" stroke-width="2.0" stroke-linecap="round"/>
    <path d="M 285.91 332.00 C 285.27 333.40, 285.18 334.91, 285.05 336.41 C 284.21 337.71, 283.46 339.05, 282.89 340.49 C 281.52 341.31, 280.45 342.51, 279.11 343.36 C 277.56 343.83, 275.97 343.52, 274.40 343.58 C 272.83 343.69, 271.31 343.17, 269.74 343.25 C 268.21 342.70, 267.02 341.59, 265.72 340.68 C 264.76 339.41, 264.52 337.75, 263.48 336.52 C 262.74 335.10, 262.20 333.61, 262.02 332.00 C 262.30 330.42, 262.71 328.89, 263.45 327.46 C 264.66 326.48, 265.51 325.21, 266.28 323.88 C 267.70 323.33, 268.95 322.53, 270.03 321.46 C 271.43 320.85, 272.91 320.60, 274.40 320.42 C 275.92 320.75, 277.51 320.37, 279.01 320.87 C 280.26 321.88, 281.90 322.21, 283.12 323.28 C 284.32 324.40, 284.98 325.92, 285.92 327.23 C 285.81 328.82, 285.91 330.41, 285.91 332.00" fill="none" stroke="black" stroke-width="2.0" stroke-linecap="round"/>
    <path d="M 125.60 330.00 C 124.48 340.64, 123.79 351.30, 123.60 362.00" fill="none" stroke="black" stroke-width="2.0" stroke-linecap="round"/>
    <path d="M 127.60 328.00 C 127.87 340.72, 126.09 353.32, 125.60 366.00" fill="none" stroke="black" stroke-width="2.0" stroke-linecap="round"/>
    <path d="M 149.60 330.00 C 150.40 340.66, 151.22 351.32, 151.60 362.00" fill="none" stroke="black" stroke-width="2.0" stroke-linecap="round"/>
    <path d="M 133.60 320.00 C 132.60 318.67, 131.30 317.93, 129.60 318.00" fill="none" stroke="black" stroke-width="1.4" stroke-linecap="round"/>
    <path d="M 141.60 320.00 C 143.15 319.77, 143.98 318.10, 145.60 318.00" fill="none" stroke="black" stroke-width="1.4" stroke-linecap="round"/>
    <path d="M 258.40 322.00 C 269.07 321.51, 279.73 322.61, 290.40 322.00 C 288.81 318.77, 287.40 315.47, 286.40 312.00 C 278.40 311.44, 270.40 311.76, 262.40 312.00 C 260.97 315.29, 259.00 318.37, 258.40 322.00" fill="black" stroke="black" stroke-width="2.0" stroke-linecap="round" stroke-linejoin="round"/>
    <path d="M 256.40 322.00 C 268.40 321.53, 280.40 321.04, 292.40 322.00" fill="none" stroke="black" stroke-width="2.0" stroke-linecap="round"/>
    <path d="M 36.00 60.00 C 86.00 60.64, 136.00 59.46, 186.00 60.00 C 189.09 63.57, 193.06 66.27, 196.00 70.00 C 196.07 81.33, 195.28 92.67, 196.00 104.00 C 192.22 106.89, 189.64 110.97, 186.00 114.00 C 136.00 114.71, 86.00 114.69, 36.00 114.00 C 32.68 110.65, 29.34 107.32, 26.00 104.00 C 25.71 92.67, 26.12 81.33, 26.00 70.00 C 29.21 66.55, 32.75 63.42, 36.00 60.00" fill="white" stroke="black" stroke-width="2.0" stroke-linecap="round" stroke-linejoin="round"/>
    <path d="M 138.60 114.00 C 140.48 188.01, 143.12 262.00, 145.60 336.00 C 148.38 262.01, 149.55 187.98, 152.60 114.00" fill="white" stroke="black" stroke-width="2.0" stroke-linecap="round" stroke-linejoin="round"/>
    <line x1="139.60000000000002" y1="114" x2="151.60000000000002" y2="114" stroke="white" stroke-width="2.4"/>
    <text x="111.0" y="78.0" text-anchor="middle" font-family="Comic Neue, Comic Sans MS, cursive" font-size="13" fill="black"><tspan x="111.0" dy="0">Awfully perfect period</tspan><tspan x="111.0" dy="16">drama ever</tspan></text>
  </g>
</svg>
