<?xml version="1.0" encoding="UTF-8"?>
<svg xmlns="http://www.w3.org/2000/svg" viewBox="0 0 952 398" width="952" height="398" role="img" aria-label="#031 — Avatar: Fire and Ash (2025)">
  <rect width="100%" height="100%" fill="white"/>
  <text x="476.0" y="32" text-anchor="middle" font-family="Comic Neue, Comic Sans MS, cursive" font-size="15" font-weight="700" fill="black">#031 — Avatar: Fire and Ash (2025) ★★★★</text>
    <g class="panel">
    <rect x="14" y="44" width="300" height="340" fill="white" stroke="black" stroke-width="2"/>
    <rect x="29" y="58" width="270" height="86" rx="12" ry="12" fill="white" stroke="black" stroke-width="1.6"/>
    <polygon points="156.0,143 172.0,143 146.63456514445062,240" fill="white" stroke="black" stroke-width="1.6"/>
    <line x1="157.0" y1="144" x2="171.0" y2="144" stroke="white" stroke-width="2.2"/>
    <text x="164.0" y="76" text-anchor="middle" font-family="Comic Neue, Comic Sans MS, cursive" font-size="13" fill="black"><tspan x="164.0" dy="0">Against all popular</tspan><tspan x="164.0" dy="16">opinions I liked itt</tspan><tspan x="164.0" dy="16">Cool viz, and</tspan><tspan x="164.0" dy="16">bromance.</tspan></text>
    <circle cx="146.63456514445062" cy="254" r="14" fill="none" stroke="black" stroke-width="2.2"/>
    <line x1="146.63456514445062" y1="268" x2="146.63456514445062" y2="308" stroke="black" stroke-width="2.2"/>
    <line x1="146.63456514445062" y1="278" x2="124.63456514445062" y2="264" stroke="black" stroke-width="2.2"/>
    <line x1="124.63456514445062" y1="264" x2="120.63456514445062" y2="282" stroke="black" stroke-width="2.2"/>
    <line x1="146.63456514445062" y1="278" x2="168.63456514445062" y2="264" stroke="black" stroke-width="2.2"/>
    <line x1="168.63456514445062" y1="264" x2="172.63456514445062" y2="282" stroke="black" stroke-width="2.2"/>
    <line x1="146.63456514445062" y1="308" x2="132.63456514445062" y2="336" stroke="black" stroke-width="2.2"/>
    <line x1="146.63456514445062" y1="308" x2="160.63456514445062" y2="336" stroke="black" stroke-width="2.2"/>
    <line x1="34" y1="350" x2="294" y2="350" stroke="black" stroke-width="1.5"/>
</g>
  <g class="panel">
    <rect x="326" y="44" width="300" height="340" fill="white" stroke="black" stroke-width="2"/>
    <rect x="341" y="58" width="270" height="86" rx="12" ry="12" fill="white" stroke="black" stroke-width="1.6"/>
    <polygon points="468.0,143 484.0,143 477.22613645983716,240" fill="white" stroke="black" stroke-width="1.6"/>
    <line x1="469.0" y1="144" x2="483.0" y2="144" stroke="white" stroke-width="2.2"/>
    <text x="476.0" y="76" text-anchor="middle" font-family="Comic Neue, Comic Sans MS, cursive" font-size="13" fill="black"><tspan x="476.0" dy="0">I see the slow arc</tspan><tspan x="476.0" dy="16">shift and character</tspan><tspan x="476.0" dy="16">development or</tspan><tspan x="476.0" dy="16">whatsoever.</tspan></text>
    <circle cx="477.22613645983716" cy="264" r="14" fill="none" stroke="black" stroke-width="2.2"/>
    <line x1="477.22613645983716" y1="278" x2="477.22613645983716" y2="312" stroke="black" stroke-width="2.2"/>
    <line x1="477.22613645983716" y1="290" x2="459.22613645983716" y2="304" stroke="black" stroke-width="2.2"/>
    <line x1="477.22613645983716" y1="290" x2="495.22613645983716" y2="304" stroke="black" stroke-width="2.2"/>
    <line x1="477.22613645983716" y1="312" x2="503.22613645983716" y2="312" stroke="black" stroke-width="2.2"/>
    <line x1="503.22613645983716" y1="312" x2="503.22613645983716" y2="338" stroke="black" stroke-width="2.2"/>
    <line x1="477.22613645983716" y1="312" x2="463.22613645983716" y2="336" stroke="black" stroke-width="2.2"/>
    <line x1="346" y1="350" x2="606" y2="350" stroke="black" stroke-width="1.5"/>
</g>
  <g class="panel">
    <rect x="638" y="44" width="300" height="340" fill="white" stroke="black" stroke-width="2"/>
    <rect x="653" y="58" width="270" height="70" rx="12" ry="12" fill="white" stroke="black" stroke-width="1.6"/>
    <polygon points="780.0,127 796.0,127 765.484288866644,240" fill="white" stroke="black" stroke-width="1.6"/>
    <line x1="781.0" y1="128" x2="795.0" y2="128" stroke="white" stroke-width="2.2"/>
    <text x="788.0" y="76" text-anchor="middle" font-family="Comic Neue, Comic Sans MS, cursive" font-size="13" fill="black"><tspan x="788.0" dy="0">And w high hopes I</tspan><tspan x="788.0" dy="16">look fwd P.s Varang is</tspan><tspan x="788.0" dy="16">so smexyyy</tspan></text>
    <circle cx="765.484288866644" cy="254" r="14" fill="none" stroke="black" stroke-width="2.2"/>
    <line x1="765.484288866644" y1="268" x2="765.484288866644" y2="308" stroke="black" stroke-width="2.2"/>
    <line x1="765.484288866644" y1="274" x2="743.484288866644" y2="250" stroke="black" stroke-width="2.2"/>
    <line x1="765.484288866644" y1="274" x2="787.484288866644" y2="250" stroke="black" stroke-width="2.2"/>
    <line x1="765.484288866644" y1="308" x2="751.484288866644" y2="336" stroke="black" stroke-width="2.2"/>
    <line x1="765.484288866644" y1="308" x2="779.484288866644" y2="336" stroke="black" stroke-width="2.2"/>
    <line x1="658" y1="350" x2="918" y2="350" stroke="black" stroke-width="1.5"/>
</g>
</svg>
