<?xml version="1.0" encoding="UTF-8"?>
<svg xmlns="http://www.w3.org/2000/svg" viewBox="0 0 806 402" width="806" height="402" role="img" aria-label="#031 — Avatar: Fire and Ash (2025)">
  <rect width="100%" height="100%" fill="white"/>
  <text x="403.0" y="34" text-anchor="middle" font-family="Comic Neue, Comic Sans MS, cursive" font-size="16" font-weight="700" fill="black">#031 — Avatar: Fire and Ash (2025) ★★★★</text>
  <g class="panel">
    <path d="M 16.00 46.00 C 142.67 45.98, 269.33 45.80, 396.00 46.00 C 396.55 159.33, 396.54 272.67, 396.00 386.00 C 269.33 386.27, 142.67 386.49, 16.00 386.00 C 15.20 272.67, 15.88 159.33, 16.00 46.00" fill="none" stroke="black" stroke-width="2.0" stroke-linecap="round" stroke-linejoin="round"/>
    <path d="M 26.00 362.00 C 146.00 361.21, 266.00 361.74, 386.00 362.00" fill="none" stroke="black" stroke-width="1.4" stroke-linecap="round"/>
    <path d="M 150.09 270.00 C 149.72 271.58, 149.68 273.23, 149.09 274.76 C 147.84 275.79, 147.17 277.31, 146.02 278.42 C 144.56 279.19, 143.69 280.63, 142.40 281.60 C 140.80 281.84, 139.16 281.92, 137.60 282.45 C 135.94 282.52, 134.35 282.13, 132.79 281.61 C 131.58 280.50, 129.92 280.04, 128.80 278.80 C 128.15 277.32, 127.14 276.05, 126.34 274.67 C 126.45 273.05, 126.18 271.49, 125.54 270.00 C 125.74 268.45, 126.19 266.95, 126.60 265.44 C 127.69 264.35, 128.23 262.84, 129.42 261.82 C 130.56 260.81, 131.70 259.80, 133.11 259.15 C 134.62 258.79, 136.08 258.25, 137.60 257.93 C 139.04 258.53, 140.68 258.44, 142.09 259.16 C 143.51 259.91, 144.97 260.58, 146.49 261.11 C 147.35 262.49, 147.95 264.04, 149.10 265.24 C 149.09 266.90, 149.71 268.42, 150.09 270.00" fill="none" stroke="black" stroke-width="2.0" stroke-linecap="round"/>
    <path d="M 121.60 260.00 C 132.27 260.51, 142.93 260.55, 153.60 260.00 C 151.81 256.85, 151.47 253.12, 149.60 250.00 C 141.60 250.51, 133.60 250.47, 125.60 250.00 C 123.89 253.18, 123.47 256.88, 121.60 260.00" fill="black" stroke="black" stroke-width="2.0" stroke-linecap="round" stroke-linejoin="round"/>
    <path d="M 119.60 260.00 C 131.60 260.72, 143.60 259.10, 155.60 260.00" fill="none" stroke="black" stroke-width="2.0" stroke-linecap="round"/>
    <path d="M 137.60 282.00 C 136.64 296.00, 137.17 310.00, 137.60 324.00" fill="none" stroke="black" stroke-width="2.0" stroke-linecap="round"/>
    <path d="M 137.60 290.00 C 132.19 296.61, 126.42 302.92, 121.60 310.00" fill="none" stroke="black" stroke-width="2.0" stroke-linecap="round"/>
    <path d="M 137.60 290.00 C 142.40 297.10, 147.91 303.62, 153.60 310.00" fill="none" stroke="black" stroke-width="2.0" stroke-linecap="round"/>
    <path d="M 137.60 324.00 C 133.08 332.43, 128.75 340.94, 125.60 350.00" fill="none" stroke="black" stroke-width="2.0" stroke-linecap="round"/>
    <path d="M 137.60 324.00 C 141.59 332.67, 145.16 341.54, 149.60 350.00" fill="none" stroke="black" stroke-width="2.0" stroke-linecap="round"/>
    <path d="M 286.06 270.00 C 285.64 271.57, 285.86 273.16, 285.85 274.74 C 284.95 276.06, 283.88 277.23, 282.63 278.23 C 281.31 279.13, 280.22 280.29, 279.15 281.46 C 277.61 282.00, 276.00 281.96, 274.40 282.00 C 272.88 281.67, 271.28 281.70, 269.82 281.05 C 268.74 279.96, 267.31 279.28, 266.25 278.15 C 264.89 277.26, 264.15 275.76, 262.90 274.76 C 262.83 273.12, 262.00 271.64, 261.88 270.00 C 262.57 268.51, 263.00 266.96, 263.08 265.31 C 264.27 264.27, 264.96 262.79, 266.14 261.74 C 267.60 261.12, 268.52 259.79, 269.84 258.98 C 271.41 258.71, 272.99 258.45, 274.40 257.62 C 275.97 258.03, 277.60 258.10, 279.18 258.46 C 280.36 259.58, 281.73 260.44, 283.09 261.31 C 283.88 262.72, 284.69 264.12, 285.88 265.24 C 285.89 266.83, 285.91 268.42, 286.06 270.00" fill="none" stroke="black" stroke-width="2.0" stroke-linecap="round"/>
    <path d="M 280.88 252.00 C 280.59 252.81, 279.97 253.41, 279.54 254.13 C 279.63 255.00, 278.66 255.45, 278.70 256.30 C 278.03 256.72, 277.33 257.04, 276.56 257.20 C 275.76 257.35, 275.23 258.09, 274.40 258.18 C 273.81 257.57, 273.09 257.25, 272.26 257.17 C 271.69 256.73, 271.15 256.24, 270.54 255.86 C 269.90 255.41, 269.12 255.13, 268.81 254.32 C 268.53 253.54, 267.98 252.86, 267.91 252.00 C 268.37 251.28, 268.40 250.41, 268.75 249.66 C 269.45 249.21, 269.80 248.48, 270.18 247.78 C 270.87 247.42, 271.53 247.01, 272.12 246.50 C 272.94 246.74, 273.70 246.63, 274.40 246.11 C 275.16 246.30, 275.98 246.00, 276.71 246.42 C 277.19 247.12, 277.98 247.35, 278.69 247.71 C 279.12 248.38, 278.88 249.29, 279.43 249.91 C 279.67 250.78, 280.07 251.53, 280.88 252.00" fill="none" stroke="black" stroke-width="2.0" stroke-linecap="round"/>
    <path d="M 263.40 271.00 C 262.63 274.65, 261.83 278.29, 261.40 282.00" fill="none" stroke="black" stroke-width="2.0" stroke-linecap="round"/>
    <path d="M 285.40 271.00 C 285.90 274.70, 287.50 278.19, 287.40 282.00" fill="none" stroke="black" stroke-width="2.0" stroke-linecap="round"/>
    <path d="M 274.40 282.00 C 274.42 296.00, 273.85 310.00, 274.40 324.00" fill="none" stroke="black" stroke-width="2.0" stroke-linecap="round"/>
    <path d="M 274.40 292.00 C 265.12 290.26, 255.68 289.72, 246.40 288.00" fill="none" stroke="black" stroke-width="2.0" stroke-linecap="round"/>
    <path d="M 274.40 292.00 C 280.46 297.35, 284.45 304.55, 290.40 310.00" fill="none" stroke="black" stroke-width="2.0" stroke-linecap="round"/>
    <path d="M 274.40 324.00 C 269.74 332.36, 265.60 340.96, 262.40 350.00" fill="none" stroke="black" stroke-width="2.0" stroke-linecap="round"/>
    <path d="M 274.40 324.00 C 278.95 332.41, 282.78 341.16, 286.40 350.00" fill="none" stroke="black" stroke-width="2.0" stroke-linecap="round"/>
    <path d="M 36.00 60.00 C 86.00 59.95, 136.00 59.78, 186.00 60.00 C 189.34 63.32, 192.53 66.80, 196.00 70.00 C 195.23 92.00, 196.47 114.00, 196.00 136.00 C 193.05 139.72, 189.70 143.03, 186.00 146.00 C 136.00 145.68, 86.00 145.62, 36.00 146.00 C 32.87 142.47, 29.20 139.46, 26.00 136.00 C 26.66 114.00, 25.69 92.00, 26.00 70.00 C 29.48 66.81, 32.56 63.23, 36.00 60.00" fill="white" stroke="black" stroke-width="2.0" stroke-linecap="round" stroke-linejoin="round"/>
    <path d="M 138.60 146.00 C 140.36 188.70, 144.06 231.29, 145.60 274.00 C 147.53 231.31, 149.89 188.65, 152.60 146.00" fill="white" stroke="black" stroke-width="2.0" stroke-linecap="round" stroke-linejoin="round"/>
    <line x1="139.60000000000002" y1="146" x2="151.60000000000002" y2="146" stroke="white" stroke-width="2.4"/>
    <text x="111.0" y="78.0" text-anchor="middle" font-family="Comic Neue, Comic Sans MS, cursive" font-size="13" fill="black"><tspan x="111.0" dy="0">Against all popular</tspan><tspan x="111.0" dy="16">opinions I liked itt</tspan><tspan x="111.0" dy="16">Cool viz, and</tspan><tspan x="111.0" dy="16">bromance.</tspan></text>
    <path d="M 226.00 60.00 C 276.00 60.76, 326.00 59.55, 376.00 60.00 C 379.31 63.36, 382.59 66.74, 386.00 70.00 C 385.68 92.00, 385.98 114.00, 386.00 136.00 C 382.77 139.44, 379.27 142.60, 376.00 146.00 C 326.00 146.46, 276.00 145.53, 226.00 146.00 C 223.08 142.26, 219.22 139.44, 216.00 136.00 C 216.60 114.00, 215.32 92.00, 216.00 70.00 C 219.50 66.83, 222.14 62.80, 226.00 60.00" fill="white" stroke="black" stroke-width="2.0" stroke-linecap="round" stroke-linejoin="round"/>
    <path d="M 259.40 146.00 C 261.32 188.69, 264.33 231.32, 266.40 274.00 C 268.97 231.35, 271.50 188.69, 273.40 146.00" fill="white" stroke="black" stroke-width="2.0" stroke-linecap="round" stroke-linejoin="round"/>
    <line x1="260.40000000000003" y1="146" x2="272.40000000000003" y2="146" stroke="white" stroke-width="2.4"/>
    <text x="301.0" y="78.0" text-anchor="middle" font-family="Comic Neue, Comic Sans MS, cursive" font-size="13" fill="black"><tspan x="301.0" dy="0">I see the slow arc</tspan><tspan x="301.0" dy="16">shift and character</tspan><tspan x="301.0" dy="16">development or</tspan><tspan x="301.0" dy="16">whatsoever.</tspan></text>
  </g>
  <g class="panel">
    <path d="M 410.00 46.00 C 536.67 45.64, 663.33 45.43, 790.00 46.00 C 790.00 159.33, 790.77 272.67, 790.00 386.00 C 663.33 385.58, 536.67 385.41, 410.00 386.00 C 409.41 272.67, 409.85 159.33, 410.00 46.00" fill="none" stroke="black" stroke-width="2.0" stroke-linecap="round" stroke-linejoin="round"/>
    <path d="M 420.00 362.00 C 540.00 362.24, 660.00 361.55, 780.00 362.00" fill="none" stroke="black" stroke-width="1.4" stroke-linecap="round"/>
    <path d="M 545.60 326.00 C 553.60 326.51, 561.60 326.56, 569.60 326.00 C 568.47 336.64, 568.66 347.36, 567.60 358.00 C 560.93 357.74, 554.27 357.81, 547.60 358.00 C 546.84 347.34, 547.04 336.62, 545.60 326.00" fill="none" stroke="black" stroke-width="2.0" stroke-linecap="round" stroke-linejoin="round"/>
    <path d="M 551.60 328.00 C 550.86 337.33, 551.47 346.67, 551.60 356.00" fill="none" stroke="black" stroke-width="1.4" stroke-linecap="round"/>
    <path d="M 557.60 328.00 C 557.97 337.33, 557.09 346.67, 557.60 356.00" fill="none" stroke="black" stroke-width="1.4" stroke-linecap="round"/>
    <path d="M 563.60 328.00 C 563.04 337.33, 562.61 346.67, 563.60 356.00" fill="none" stroke="black" stroke-width="1.4" stroke-linecap="round"/>
    <path d="M 554.15 324.00 C 553.80 324.22, 554.12 324.68, 553.83 324.92 C 553.58 325.33, 553.59 325.74, 553.77 326.17 C 553.56 326.65, 553.21 326.82, 552.70 326.66 C 552.48 327.14, 551.97 327.01, 551.60 327.20 C 551.41 326.66, 551.05 326.47, 550.51 326.64 C 550.09 326.53, 549.98 326.14, 549.76 325.84 C 549.36 325.39, 548.80 325.44, 548.28 325.38 C 548.08 324.94, 548.32 324.41, 548.00 324.00 C 548.55 323.77, 548.13 323.02, 548.67 322.79 C 549.08 322.53, 549.32 322.18, 549.27 321.67 C 549.60 321.38, 549.92 321.07, 550.28 320.81 C 550.78 320.61, 551.10 321.29, 551.60 321.09 C 552.04 320.76, 552.40 320.93, 552.73 321.27 C 553.09 321.45, 553.51 321.56, 553.52 322.08 C 553.59 322.45, 553.56 322.88, 554.08 322.97 C 553.75 323.34, 553.95 323.67, 554.15 324.00" fill="none" stroke="black" stroke-width="2.0" stroke-linecap="round"/>
    <path d="M 562.54 320.00 C 562.27 320.57, 562.23 321.13, 562.63 321.67 C 562.37 322.18, 561.65 322.32, 561.58 322.98 C 561.12 323.41, 560.52 323.25, 559.99 323.35 C 559.68 323.88, 559.10 323.95, 558.60 324.15 C 558.33 323.58, 557.57 323.76, 557.24 323.28 C 556.76 322.95, 556.21 322.96, 555.66 322.94 C 555.26 322.56, 554.75 322.25, 554.76 321.59 C 554.83 321.00, 554.31 320.57, 554.32 320.00 C 554.42 319.46, 554.57 318.93, 554.72 318.39 C 555.04 317.90, 555.19 317.33, 555.39 316.79 C 555.76 316.28, 556.58 316.45, 556.86 315.81 C 557.47 315.74, 558.08 315.67, 558.60 316.11 C 559.15 316.02, 559.54 316.44, 560.04 316.52 C 560.10 317.14, 560.62 317.30, 561.06 317.54 C 561.70 317.58, 562.07 318.18, 562.67 318.31 C 562.41 318.86, 562.33 319.42, 562.54 320.00" fill="none" stroke="black" stroke-width="2.0" stroke-linecap="round"/>
    <path d="M 568.69 325.00 C 568.73 325.42, 568.20 325.70, 568.39 326.16 C 568.19 326.50, 568.05 326.92, 567.54 326.94 C 567.04 327.23, 567.06 327.77, 566.94 328.24 C 566.48 328.13, 566.04 328.27, 565.60 328.36 C 565.44 327.86, 565.01 327.66, 564.59 327.44 C 564.52 326.94, 564.08 326.97, 563.74 326.86 C 563.34 326.75, 563.15 326.43, 563.02 326.07 C 562.53 325.88, 562.54 325.40, 562.42 325.00 C 562.26 324.47, 562.48 324.13, 562.95 323.90 C 563.35 323.56, 563.26 323.10, 563.26 322.66 C 563.71 322.73, 564.01 322.09, 564.52 322.38 C 564.88 322.46, 565.24 322.50, 565.60 322.34 C 565.90 321.82, 566.39 321.79, 566.91 321.84 C 567.30 322.07, 567.88 321.96, 568.11 322.49 C 567.92 323.01, 568.61 323.32, 568.41 323.84 C 568.83 324.14, 568.53 324.63, 568.69 325.00" fill="none" stroke="black" stroke-width="2.0" stroke-linecap="round"/>
    <path d="M 543.88 270.00 C 543.03 271.37, 542.54 272.87, 542.40 274.48 C 541.28 275.60, 540.60 276.98, 540.04 278.44 C 538.94 279.58, 537.42 280.14, 536.20 281.10 C 534.61 281.33, 533.24 282.33, 531.60 282.40 C 530.01 282.15, 528.60 281.32, 527.03 281.04 C 525.87 280.00, 524.66 279.06, 523.30 278.30 C 522.65 276.89, 521.34 275.94, 520.71 274.51 C 520.19 273.05, 520.22 271.52, 520.19 270.00 C 520.47 268.45, 520.57 266.89, 520.31 265.32 C 521.08 263.91, 521.64 262.37, 522.79 261.19 C 524.34 260.77, 525.60 259.67, 527.20 259.38 C 528.55 258.46, 529.98 257.72, 531.60 257.40 C 533.08 258.11, 534.73 258.22, 536.24 258.79 C 537.46 259.78, 538.66 260.80, 540.03 261.57 C 541.21 262.65, 541.98 263.99, 542.58 265.45 C 543.08 266.95, 543.16 268.56, 543.88 270.00" fill="none" stroke="black" stroke-width="2.0" stroke-linecap="round"/>
    <path d="M 537.07 252.00 C 537.46 252.75, 537.12 253.52, 537.12 254.29 C 536.47 254.94, 536.57 255.87, 536.25 256.65 C 535.36 256.60, 534.71 257.39, 533.81 257.35 C 533.06 257.26, 532.36 257.72, 531.60 257.59 C 530.79 257.62, 529.97 257.49, 529.19 257.82 C 528.59 257.28, 528.04 256.69, 527.36 256.24 C 526.75 255.67, 525.98 255.26, 525.52 254.52 C 526.07 253.76, 525.52 252.77, 526.05 252.00 C 525.84 251.22, 526.25 250.57, 526.48 249.88 C 526.97 249.35, 527.36 248.75, 527.73 248.13 C 528.24 247.53, 529.03 247.16, 529.25 246.32 C 530.12 246.32, 530.92 246.10, 531.60 245.52 C 532.30 246.01, 533.23 245.89, 533.93 246.37 C 534.56 246.84, 535.26 247.22, 535.84 247.76 C 536.49 248.26, 536.57 249.21, 537.33 249.62 C 537.43 250.44, 536.83 251.17, 537.07 252.00" fill="none" stroke="black" stroke-width="2.0" stroke-linecap="round"/>
    <path d="M 520.60 271.00 C 520.29 274.73, 518.94 278.27, 518.60 282.00" fill="none" stroke="black" stroke-width="2.0" stroke-linecap="round"/>
    <path d="M 542.60 271.00 C 543.37 274.65, 543.13 278.48, 544.60 282.00" fill="none" stroke="black" stroke-width="2.0" stroke-linecap="round"/>
    <path d="M 531.60 282.00 C 532.04 296.00, 531.68 310.00, 531.60 324.00" fill="none" stroke="black" stroke-width="2.0" stroke-linecap="round"/>
    <path d="M 531.60 290.00 C 526.43 296.80, 520.45 302.94, 515.60 310.00" fill="none" stroke="black" stroke-width="2.0" stroke-linecap="round"/>
    <path d="M 531.60 290.00 C 536.28 297.19, 542.98 302.76, 547.60 310.00" fill="none" stroke="black" stroke-width="2.0" stroke-linecap="round"/>
    <path d="M 531.60 324.00 C 527.53 332.63, 523.42 341.25, 519.60 350.00" fill="none" stroke="black" stroke-width="2.0" stroke-linecap="round"/>
    <path d="M 531.60 324.00 C 535.86 332.55, 538.74 341.73, 543.60 350.00" fill="none" stroke="black" stroke-width="2.0" stroke-linecap="round"/>
    <path d="M 680.35 270.00 C 679.75 271.51, 680.24 273.17, 679.73 274.69 C 678.45 275.69, 678.01 277.35, 676.82 278.42 C 675.40 279.19, 674.44 280.52, 673.12 281.41 C 671.61 282.03, 670.03 282.39, 668.40 282.50 C 666.72 282.60, 665.14 282.18, 663.59 281.61 C 662.37 280.49, 660.80 279.89, 659.50 278.90 C 658.86 277.41, 658.10 275.98, 657.13 274.67 C 657.16 273.11, 657.35 271.55, 656.99 270.00 C 656.93 268.41, 656.82 266.82, 656.87 265.22 C 657.85 263.93, 658.79 262.62, 659.65 261.25 C 660.81 260.10, 662.35 259.52, 663.69 258.64 C 665.26 258.55, 666.82 258.23, 668.40 258.35 C 669.89 258.75, 671.43 258.79, 672.93 259.06 C 674.13 260.14, 675.57 260.77, 677.03 261.37 C 677.67 262.85, 678.86 263.97, 679.70 265.32 C 679.80 266.90, 679.97 268.46, 680.35 270.00" fill="none" stroke="black" stroke-width="2.0" stroke-linecap="round"/>
    <path d="M 652.40 260.00 C 663.07 259.66, 673.73 260.43, 684.40 260.00 C 682.63 256.84, 681.62 253.38, 680.40 250.00 C 672.40 250.17, 664.40 250.79, 656.40 250.00 C 655.15 253.37, 653.06 256.40, 652.40 260.00" fill="black" stroke="black" stroke-width="2.0" stroke-linecap="round" stroke-linejoin="round"/>
    <path d="M 650.40 260.00 C 662.40 259.41, 674.40 260.79, 686.40 260.00" fill="none" stroke="black" stroke-width="2.0" stroke-linecap="round"/>
    <path d="M 668.40 282.00 C 668.95 296.00, 667.42 310.00, 668.40 324.00" fill="none" stroke="black" stroke-width="2.0" stroke-linecap="round"/>
    <path d="M 668.40 292.00 C 659.07 290.67, 649.77 289.10, 640.40 288.00" fill="none" stroke="black" stroke-width="2.0" stroke-linecap="round"/>
    <path d="M 668.40 292.00 C 673.55 298.17, 678.65 304.37, 684.40 310.00" fill="none" stroke="black" stroke-width="2.0" stroke-linecap="round"/>
    <path d="M 668.40 324.00 C 663.97 332.47, 660.37 341.32, 656.40 350.00" fill="none" stroke="black" stroke-width="2.0" stroke-linecap="round"/>
    <path d="M 668.40 324.00 C 672.63 332.56, 677.15 340.99, 680.40 350.00" fill="none" stroke="black" stroke-width="2.0" stroke-linecap="round"/>
    <path d="M 430.00 60.00 C 480.00 59.62, 530.00 59.67, 580.00 60.00 C 582.83 63.83, 587.20 66.13, 590.00 70.00 C 590.69 86.67, 590.45 103.33, 590.00 120.00 C 586.51 123.18, 582.90 126.23, 580.00 130.00 C 530.00 129.21, 480.00 130.07, 430.00 130.00 C 426.75 126.59, 423.06 123.61, 420.00 120.00 C 419.20 103.33, 420.68 86.67, 420.00 70.00 C 423.36 66.69, 426.58 63.24, 430.00 60.00" fill="white" stroke="black" stroke-width="2.0" stroke-linecap="round" stroke-linejoin="round"/>
    <path d="M 532.60 130.00 C 534.59 178.02, 537.67 225.98, 539.60 274.00 C 541.57 225.98, 543.82 177.98, 546.60 130.00" fill="white" stroke="black" stroke-width="2.0" stroke-linecap="round" stroke-linejoin="round"/>
    <line x1="533.6" y1="130" x2="545.6" y2="130" stroke="white" stroke-width="2.4"/>
    <text x="505.0" y="78.0" text-anchor="middle" font-family="Comic Neue, Comic Sans MS, cursive" font-size="13" fill="black"><tspan x="505.0" dy="0">And w high hopes I</tspan><tspan x="505.0" dy="16">look fwd P.s Varang is</tspan><tspan x="505.0" dy="16">so smexyyy</tspan></text>
  </g>
</svg>
