<?xml version="1.0" encoding="UTF-8"?>
<svg xmlns="http://www.w3.org/2000/svg" viewBox="0 0 952 398" width="952" height="398" role="img" aria-label="#032 — The Grand Budapest Hotel (2014)">
  <rect width="100%" height="100%" fill="white"/>
  <text x="476.0" y="32" text-anchor="middle" font-family="Comic Neue, Comic Sans MS, cursive" font-size="15" font-weight="700" fill="black">#032 — The Grand Budapest Hotel (2014) ★★★★</text>
    <g class="panel">
    <rect x="14" y="44" width="300" height="340" fill="white" stroke="black" stroke-width="2"/>
    <rect x="29" y="58" width="270" height="70" rx="12" ry="12" fill="white" stroke="black" stroke-width="1.6"/>
    <polygon points="156.0,127 172.0,127 169.676449010441,240" fill="white" stroke="black" stroke-width="1.6"/>
    <line x1="157.0" y1="128" x2="171.0" y2="128" stroke="white" stroke-width="2.2"/>
    <text x="164.0" y="76" text-anchor="middle" font-family="Comic Neue, Comic Sans MS, cursive" font-size="13" fill="black"><tspan x="164.0" dy="0">Boy with apple!</tspan><tspan x="164.0" dy="16">really? The smutty one</tspan><tspan x="164.0" dy="16">is better!</tspan></text>
    <circle cx="169.676449010441" cy="254" r="14" fill="none" stroke="black" stroke-width="2.2"/>
    <line x1="169.676449010441" y1="268" x2="169.676449010441" y2="308" stroke="black" stroke-width="2.2"/>
    <line x1="169.676449010441" y1="280" x2="151.676449010441" y2="298" stroke="black" stroke-width="2.2"/>
    <line x1="169.676449010441" y1="280" x2="187.676449010441" y2="298" stroke="black" stroke-width="2.2"/>
    <line x1="169.676449010441" y1="308" x2="155.676449010441" y2="336" stroke="black" stroke-width="2.2"/>
    <line x1="169.676449010441" y1="308" x2="183.676449010441" y2="336" stroke="black" stroke-width="2.2"/>
    <line x1="34" y1="350" x2="294" y2="350" stroke="black" stroke-width="1.5"/>
</g>
  <g class="panel">
    <rect x="326" y="44" width="300" height="340" fill="white" stroke="black" stroke-width="2"/>
    <rect x="341" y="58" width="270" height="86" rx="12" ry="12" fill="white" stroke="black" stroke-width="1.6"/>
    <polygon points="468.0,143 484.0,143 457.1277628383866,240" fill="white" stroke="black" stroke-width="1.6"/>
    <line x1="469.0" y1="144" x2="483.0" y2="144" stroke="white" stroke-width="2.2"/>
    <text x="476.0" y="76" text-anchor="middle" font-family="Comic Neue, Comic Sans MS, cursive" font-size="13" fill="black"><tspan x="476.0" dy="0">They couldn&#x27;t have</tspan><tspan x="476.0" dy="16">gone more Colorful fr</tspan><tspan x="476.0" dy="16">Also they aren&#x27;t sure</tspan><tspan x="476.0" dy="16">about aspect ratio.</tspan></text>
    <circle cx="457.1277628383866" cy="254" r="14" fill="none" stroke="black" stroke-width="2.2"/>
    <line x1="457.1277628383866" y1="268" x2="457.1277628383866" y2="308" stroke="black" stroke-width="2.2"/>
    <line x1="457.1277628383866" y1="274" x2="435.1277628383866" y2="250" stroke="black" stroke-width="2.2"/>
    <line x1="457.1277628383866" y1="274" x2="479.1277628383866" y2="250" stroke="black" stroke-width="2.2"/>
    <line x1="457.1277628383866" y1="308" x2="443.1277628383866" y2="336" stroke="black" stroke-width="2.2"/>
    <line x1="457.1277628383866" y1="308" x2="471.1277628383866" y2="336" stroke="black" stroke-width="2.2"/>
    <line x1="346" y1="350" x2="606" y2="350" stroke="black" stroke-width="1.5"/>
</g>
  <g class="panel">
    <rect x="638" y="44" width="300" height="340" fill="white" stroke="black" stroke-width="2"/>
    <rect x="653" y="58" width="270" height="102" rx="12" ry="12" fill="white" stroke="black" stroke-width="1.6"/>
    <polygon points="780.0,159 796.0,159 763.811889851324,240" fill="white" stroke="black" stroke-width="1.6"/>
    <line x1="781.0" y1="160" x2="795.0" y2="160" stroke="white" stroke-width="2.2"/>
    <text x="788.0" y="76" text-anchor="middle" font-family="Comic Neue, Comic Sans MS, cursive" font-size="13" fill="black"><tspan x="788.0" dy="0">Goted cast, they</tspan><tspan x="788.0" dy="16">really put owen</tspan><tspan x="788.0" dy="16">willson and never had</tspan><tspan x="788.0" dy="16">him say a single word</tspan><tspan x="788.0" dy="16">wow. jude law is the</tspan></text>
    <circle cx="763.811889851324" cy="254" r="14" fill="none" stroke="black" stroke-width="2.2"/>
    <line x1="763.811889851324" y1="268" x2="763.811889851324" y2="308" stroke="black" stroke-width="2.2"/>
    <line x1="763.811889851324" y1="278" x2="741.811889851324" y2="264" stroke="black" stroke-width="2.2"/>
    <line x1="741.811889851324" y1="264" x2="737.811889851324" y2="282" stroke="black" stroke-width="2.2"/>
    <line x1="763.811889851324" y1="278" x2="785.811889851324" y2="264" stroke="black" stroke-width="2.2"/>
    <line x1="785.811889851324" y1="264" x2="789.811889851324" y2="282" stroke="black" stroke-width="2.2"/>
    <line x1="763.811889851324" y1="308" x2="749.811889851324" y2="336" stroke="black" stroke-width="2.2"/>
    <line x1="763.811889851324" y1="308" x2="777.811889851324" y2="336" stroke="black" stroke-width="2.2"/>
    <line x1="658" y1="350" x2="918" y2="350" stroke="black" stroke-width="1.5"/>
</g>
</svg>
