<?xml version="1.0" encoding="UTF-8"?>
<svg xmlns="http://www.w3.org/2000/svg" viewBox="0 0 1200 402" width="1200" height="402" role="img" aria-label="#032 — The Grand Budapest Hotel (2014)">
  <defs><filter id="grain" x="0%" y="0%" width="100%" height="100%"><feTurbulence type="fractalNoise" baseFrequency="0.85" numOctaves="2" stitchTiles="stitch" seed="6"/><feColorMatrix values="0 0 0 0 0.32  0 0 0 0 0.22  0 0 0 0 0.13  0 0 0 -1.4 0.55"/></filter></defs>
  <rect width="100%" height="100%" fill="#f1e7cc"/>
  <rect width="100%" height="100%" filter="url(#grain)" opacity="0.75"/>
  <text x="600.0" y="34" text-anchor="middle" font-family="Comic Neue, Comic Sans MS, cursive" font-size="16" font-weight="700" fill="black">#032 — The Grand Budapest Hotel (2014) ★★★★</text>
  <g class="panel">
    <path d="M 16.00 46.00 C 142.67 45.85, 269.33 45.76, 396.00 46.00 C 395.84 159.33, 396.14 272.67, 396.00 386.00 C 269.33 386.47, 142.67 386.09, 16.00 386.00 C 16.03 272.67, 16.61 159.33, 16.00 46.00" fill="none" stroke="black" stroke-width="2.0" stroke-linecap="round" stroke-linejoin="round"/>
    <path d="M 26.00 356.00 C 146.00 355.19, 266.00 356.29, 386.00 356.00" fill="none" stroke="black" stroke-width="1.4" stroke-linecap="round"/>
    <path d="M 30.00 280.00 C 56.67 279.63, 83.33 280.50, 110.00 280.00 C 109.68 298.67, 110.13 317.33, 110.00 336.00 C 83.33 336.64, 56.67 336.00, 30.00 336.00 C 30.32 317.33, 29.97 298.67, 30.00 280.00" fill="none" stroke="black" stroke-width="2.0" stroke-linecap="round" stroke-linejoin="round"/>
    <path d="M 36.00 286.00 C 58.67 285.66, 81.33 285.88, 104.00 286.00 C 103.85 300.67, 104.05 315.33, 104.00 330.00 C 81.33 329.70, 58.67 330.40, 36.00 330.00 C 36.51 315.33, 36.33 300.67, 36.00 286.00" fill="none" stroke="black" stroke-width="2.0" stroke-linecap="round" stroke-linejoin="round"/>
    <path d="M 56.00 336.00 C 65.33 335.01, 74.67 336.75, 84.00 336.00" fill="none" stroke="black" stroke-width="1.4" stroke-linecap="round"/>
    <path d="M 70.00 336.00 C 69.30 338.67, 69.45 341.33, 70.00 344.00" fill="none" stroke="black" stroke-width="1.4" stroke-linecap="round"/>
    <path d="M 56.00 346.00 C 65.33 346.96, 74.67 346.98, 84.00 346.00" fill="none" stroke="black" stroke-width="1.4" stroke-linecap="round"/>
    <path d="M 42.00 322.00 C 45.51 313.40, 49.11 304.84, 52.00 296.00 C 56.80 305.27, 61.30 314.68, 66.00 324.00 C 70.05 315.00, 75.76 306.90, 80.00 298.00 C 84.70 305.79, 90.35 312.89, 96.00 320.00" fill="none" stroke="black" stroke-width="2.0" stroke-linecap="round" stroke-linejoin="round"/>
    <path d="M 110.00 300.00 C 160.67 300.19, 211.33 300.01, 262.00 300.00 C 262.77 310.00, 261.98 320.00, 262.00 330.00 C 211.33 329.49, 160.67 330.62, 110.00 330.00 C 109.72 320.00, 109.91 310.00, 110.00 300.00" fill="none" stroke="black" stroke-width="2.0" stroke-linecap="round" stroke-linejoin="round"/>
    <path d="M 110.00 330.00 C 160.67 329.64, 211.33 330.59, 262.00 330.00 C 262.72 342.00, 262.43 354.00, 262.00 366.00 C 211.33 365.61, 160.67 366.42, 110.00 366.00 C 109.32 354.00, 110.79 342.00, 110.00 330.00" fill="none" stroke="black" stroke-width="2.0" stroke-linecap="round" stroke-linejoin="round"/>
    <path d="M 102.00 312.00 C 104.67 311.46, 107.33 312.09, 110.00 312.00 C 110.28 330.00, 110.29 348.00, 110.00 366.00 C 107.33 365.88, 104.67 366.17, 102.00 366.00 C 102.72 348.00, 101.75 330.00, 102.00 312.00" fill="none" stroke="black" stroke-width="2.0" stroke-linecap="round" stroke-linejoin="round"/>
    <path d="M 262.00 312.00 C 264.67 311.75, 267.33 312.60, 270.00 312.00 C 269.67 330.00, 269.82 348.00, 270.00 366.00 C 267.33 365.77, 264.67 366.01, 262.00 366.00 C 262.51 348.00, 262.34 330.00, 262.00 312.00" fill="none" stroke="black" stroke-width="2.0" stroke-linecap="round" stroke-linejoin="round"/>
    <path d="M 186.00 330.00 C 186.36 342.00, 186.21 354.00, 186.00 366.00" fill="none" stroke="black" stroke-width="1.4" stroke-linecap="round"/>
    <path d="M 158.46 300.00 C 158.48 301.66, 157.68 303.16, 157.60 304.80 C 156.79 306.22, 155.42 307.19, 154.62 308.62 C 153.24 309.36, 151.92 310.21, 150.51 310.88 C 149.00 311.35, 147.53 311.96, 146.00 312.36 C 144.42 312.09, 142.93 311.47, 141.36 311.21 C 140.10 310.29, 138.78 309.44, 137.66 308.34 C 137.03 306.95, 136.23 305.66, 135.38 304.40 C 134.80 302.95, 134.35 301.45, 133.77 300.00 C 133.59 298.35, 134.53 296.84, 134.39 295.19 C 135.71 294.25, 136.66 292.92, 137.90 291.90 C 139.23 291.08, 140.03 289.65, 141.38 288.85 C 142.92 288.80, 144.45 288.46, 146.00 288.58 C 147.46 289.01, 149.02 288.76, 150.48 289.19 C 152.02 289.60, 153.27 290.56, 154.55 291.45 C 155.08 292.94, 156.39 293.98, 156.86 295.50 C 157.41 297.00, 158.15 298.42, 158.46 300.00" fill="none" stroke="black" stroke-width="2.0" stroke-linecap="round"/>
    <path d="M 146.00 312.00 C 145.98 321.33, 146.15 330.67, 146.00 340.00" fill="none" stroke="black" stroke-width="2.0" stroke-linecap="round"/>
    <path d="M 146.00 326.00 C 140.31 329.52, 135.20 333.82, 130.00 338.00" fill="none" stroke="black" stroke-width="2.0" stroke-linecap="round"/>
    <path d="M 146.00 326.00 C 151.02 330.42, 156.45 334.29, 162.00 338.00" fill="none" stroke="black" stroke-width="2.0" stroke-linecap="round"/>
    <path d="M 146.00 340.00 C 154.00 339.60, 162.00 339.89, 170.00 340.00" fill="none" stroke="black" stroke-width="2.0" stroke-linecap="round"/>
    <path d="M 170.00 340.00 C 170.39 346.03, 171.13 352.02, 172.00 358.00" fill="none" stroke="black" stroke-width="2.0" stroke-linecap="round"/>
    <path d="M 146.00 340.00 C 143.75 346.18, 139.76 351.60, 138.00 358.00" fill="none" stroke="black" stroke-width="2.0" stroke-linecap="round"/>
    <path d="M 237.97 300.00 C 237.73 301.53, 237.35 303.03, 236.91 304.52 C 236.25 305.94, 235.47 307.30, 234.61 308.61 C 233.31 309.57, 232.20 310.76, 230.81 311.61 C 229.20 311.62, 227.60 311.48, 226.00 311.48 C 224.42 311.27, 222.83 311.61, 221.25 311.46 C 220.17 310.28, 218.96 309.26, 217.63 308.37 C 216.39 307.35, 215.73 305.84, 214.62 304.71 C 214.30 303.15, 214.42 301.57, 214.48 300.00 C 214.50 298.46, 214.60 296.93, 214.98 295.43 C 216.05 294.34, 216.70 292.89, 217.88 291.88 C 219.27 291.10, 220.22 289.83, 221.34 288.74 C 222.83 288.12, 224.49 288.28, 226.00 287.73 C 227.49 288.31, 229.15 288.18, 230.61 288.87 C 232.06 289.52, 233.05 290.82, 234.41 291.59 C 234.88 293.09, 235.82 294.31, 236.74 295.55 C 237.39 296.97, 237.36 298.57, 237.97 300.00" fill="none" stroke="black" stroke-width="2.0" stroke-linecap="round"/>
    <path d="M 212.00 290.00 C 221.33 290.57, 230.67 290.42, 240.00 290.00 C 238.08 287.63, 237.19 284.74, 236.00 282.00 C 229.33 281.52, 222.67 281.92, 216.00 282.00 C 214.66 284.66, 213.90 287.62, 212.00 290.00" fill="black" stroke="black" stroke-width="2.0" stroke-linecap="round" stroke-linejoin="round"/>
    <path d="M 238.24 282.00 C 238.42 282.33, 238.14 282.58, 238.10 282.87 C 237.81 283.28, 237.46 283.33, 237.05 283.05 C 237.25 283.43, 236.95 283.68, 236.82 283.98 C 236.56 284.09, 236.31 284.26, 236.00 284.18 C 235.68 284.13, 235.37 284.11, 235.06 284.26 C 234.66 284.29, 234.63 283.76, 234.27 283.73 C 234.06 283.47, 233.64 283.41, 233.60 282.99 C 233.47 282.63, 233.57 282.30, 233.78 282.00 C 233.63 281.57, 233.95 281.43, 234.24 281.27 C 234.52 281.19, 234.49 280.84, 234.73 280.73 C 234.92 280.57, 235.24 280.54, 235.26 280.20 C 235.51 280.20, 235.77 279.84, 236.00 280.25 C 236.23 280.02, 236.49 279.98, 236.77 280.15 C 236.72 280.47, 236.92 280.67, 237.13 280.87 C 237.52 280.68, 237.60 281.34, 237.98 281.18 C 237.98 281.48, 237.88 281.82, 238.24 282.00" fill="black" stroke="black" stroke-width="2.0" stroke-linecap="round"/>
    <path d="M 226.00 312.00 C 226.56 321.33, 225.38 330.67, 226.00 340.00" fill="none" stroke="black" stroke-width="2.0" stroke-linecap="round"/>
    <path d="M 226.00 326.00 C 220.29 329.50, 215.26 333.90, 210.00 338.00" fill="none" stroke="black" stroke-width="2.0" stroke-linecap="round"/>
    <path d="M 226.00 326.00 C 231.19 330.19, 237.07 333.46, 242.00 338.00" fill="none" stroke="black" stroke-width="2.0" stroke-linecap="round"/>
    <path d="M 226.00 340.00 C 234.00 340.61, 242.00 339.49, 250.00 340.00" fill="none" stroke="black" stroke-width="2.0" stroke-linecap="round"/>
    <path d="M 250.00 340.00 C 251.60 345.90, 251.86 351.94, 252.00 358.00" fill="none" stroke="black" stroke-width="2.0" stroke-linecap="round"/>
    <path d="M 226.00 340.00 C 224.24 346.40, 220.45 351.90, 218.00 358.00" fill="none" stroke="black" stroke-width="2.0" stroke-linecap="round"/>
    <path d="M 36.00 60.00 C 86.00 60.14, 136.00 60.48, 186.00 60.00 C 189.21 63.46, 192.41 66.92, 196.00 70.00 C 195.82 86.67, 196.27 103.33, 196.00 120.00 C 192.46 123.12, 189.15 126.49, 186.00 130.00 C 136.00 129.32, 86.00 130.52, 36.00 130.00 C 32.16 127.18, 28.89 123.78, 26.00 120.00 C 25.22 103.33, 26.44 86.67, 26.00 70.00 C 29.51 66.85, 32.61 63.28, 36.00 60.00" fill="#f1e7cc" stroke="black" stroke-width="2.0" stroke-linecap="round" stroke-linejoin="round"/>
    <path d="M 131.00 130.00 C 132.69 188.03, 135.55 246.00, 138.00 304.00 C 139.73 245.98, 143.09 188.02, 145.00 130.00" fill="#f1e7cc" stroke="black" stroke-width="2.0" stroke-linecap="round" stroke-linejoin="round"/>
    <line x1="132.0" y1="130" x2="144.0" y2="130" stroke="#f1e7cc" stroke-width="2.4"/>
    <text x="111.0" y="78.0" text-anchor="middle" font-family="Comic Neue, Comic Sans MS, cursive" font-size="13" fill="black"><tspan x="111.0" dy="0">Boy with apple!</tspan><tspan x="111.0" dy="16">really? The smutty one</tspan><tspan x="111.0" dy="16">is better!</tspan></text>
    <path d="M 226.00 60.00 C 276.00 59.97, 326.00 60.10, 376.00 60.00 C 379.28 63.38, 382.57 66.77, 386.00 70.00 C 386.17 92.00, 385.43 114.00, 386.00 136.00 C 382.68 139.35, 379.18 142.51, 376.00 146.00 C 326.00 145.60, 276.00 146.57, 226.00 146.00 C 223.03 142.30, 219.54 139.12, 216.00 136.00 C 215.96 114.00, 215.56 92.00, 216.00 70.00 C 219.60 66.93, 222.96 63.63, 226.00 60.00" fill="#f1e7cc" stroke="black" stroke-width="2.0" stroke-linecap="round" stroke-linejoin="round"/>
    <path d="M 221.00 146.00 C 219.49 198.66, 219.34 251.34, 218.00 304.00 C 224.06 251.38, 229.10 198.64, 235.00 146.00" fill="#f1e7cc" stroke="black" stroke-width="2.0" stroke-linecap="round" stroke-linejoin="round"/>
    <line x1="222" y1="146" x2="234" y2="146" stroke="#f1e7cc" stroke-width="2.4"/>
    <text x="301.0" y="78.0" text-anchor="middle" font-family="Comic Neue, Comic Sans MS, cursive" font-size="13" fill="black"><tspan x="301.0" dy="0">They couldn&#x27;t have</tspan><tspan x="301.0" dy="16">gone more Colorful fr</tspan><tspan x="301.0" dy="16">Also they aren&#x27;t sure</tspan><tspan x="301.0" dy="16">about aspect ratio.</tspan></text>
  </g>
  <g class="panel">
    <path d="M 410.00 46.00 C 536.67 45.23, 663.33 45.93, 790.00 46.00 C 789.87 159.33, 789.90 272.67, 790.00 386.00 C 663.33 385.84, 536.67 386.29, 410.00 386.00 C 409.97 272.67, 410.31 159.33, 410.00 46.00" fill="none" stroke="black" stroke-width="2.0" stroke-linecap="round" stroke-linejoin="round"/>
    <path d="M 420.00 362.00 C 540.00 362.81, 660.00 362.45, 780.00 362.00" fill="none" stroke="black" stroke-width="1.4" stroke-linecap="round"/>
    <path d="M 544.08 270.00 C 543.98 271.63, 543.47 273.18, 543.04 274.74 C 541.96 275.93, 541.08 277.27, 540.20 278.60 C 539.13 279.84, 537.41 280.23, 536.37 281.52 C 534.77 281.31, 533.19 281.66, 531.60 281.76 C 530.07 281.52, 528.57 281.07, 527.00 281.11 C 525.62 280.37, 524.30 279.54, 523.28 278.32 C 522.43 277.03, 521.32 275.93, 520.62 274.55 C 520.17 273.05, 519.65 271.57, 519.51 270.00 C 519.83 268.48, 520.51 267.07, 520.96 265.59 C 521.48 264.13, 522.40 262.88, 523.13 261.53 C 524.47 260.72, 525.90 260.04, 526.98 258.86 C 528.60 258.79, 530.16 258.47, 531.60 257.70 C 533.05 258.30, 534.61 258.61, 535.97 259.45 C 537.54 259.75, 538.75 260.85, 540.20 261.40 C 540.79 262.84, 541.87 264.05, 542.19 265.61 C 543.15 266.94, 543.26 268.62, 544.08 270.00" fill="none" stroke="black" stroke-width="2.0" stroke-linecap="round"/>
    <path d="M 517.60 260.00 C 526.93 260.11, 536.27 259.45, 545.60 260.00 C 543.87 257.53, 543.06 254.60, 541.60 252.00 C 534.93 252.55, 528.27 251.52, 521.60 252.00 C 520.97 255.02, 519.51 257.62, 517.60 260.00" fill="black" stroke="black" stroke-width="2.0" stroke-linecap="round" stroke-linejoin="round"/>
    <path d="M 543.12 252.00 C 542.78 252.09, 542.78 252.30, 542.93 252.55 C 542.75 252.90, 543.22 253.15, 543.09 253.49 C 543.20 253.95, 542.88 254.14, 542.58 254.36 C 542.28 254.15, 541.82 254.38, 541.60 253.99 C 541.33 254.36, 541.06 254.38, 540.76 254.02 C 540.40 254.12, 540.10 254.06, 539.90 253.70 C 540.07 253.36, 539.54 253.06, 539.86 252.72 C 539.64 252.32, 539.87 252.14, 540.20 252.00 C 539.87 251.77, 539.54 251.55, 539.45 251.11 C 539.79 251.07, 539.85 250.61, 540.22 250.62 C 540.51 250.49, 540.40 250.04, 540.75 249.95 C 541.20 250.10, 541.30 249.61, 541.60 249.49 C 541.76 249.95, 542.32 249.41, 542.49 249.85 C 542.97 250.05, 542.91 250.42, 542.80 250.80 C 543.07 250.89, 543.16 251.30, 543.53 251.20 C 543.67 251.61, 543.53 251.88, 543.12 252.00" fill="black" stroke="black" stroke-width="2.0" stroke-linecap="round"/>
    <path d="M 531.60 282.00 C 530.97 296.00, 530.80 310.00, 531.60 324.00" fill="none" stroke="black" stroke-width="2.0" stroke-linecap="round"/>
    <path d="M 531.60 290.00 C 523.92 286.64, 516.66 282.49, 509.60 278.00" fill="none" stroke="black" stroke-width="2.0" stroke-linecap="round"/>
    <path d="M 509.60 278.00 C 507.85 283.91, 506.51 289.91, 505.60 296.00" fill="none" stroke="black" stroke-width="2.0" stroke-linecap="round"/>
    <path d="M 531.60 290.00 C 538.73 285.63, 546.17 281.83, 553.60 278.00" fill="none" stroke="black" stroke-width="2.0" stroke-linecap="round"/>
    <path d="M 553.60 278.00 C 554.19 284.16, 556.98 289.84, 557.60 296.00" fill="none" stroke="black" stroke-width="2.0" stroke-linecap="round"/>
    <path d="M 531.60 324.00 C 526.87 332.33, 524.32 341.67, 519.60 350.00" fill="none" stroke="black" stroke-width="2.0" stroke-linecap="round"/>
    <path d="M 531.60 324.00 C 534.93 332.98, 540.15 341.08, 543.60 350.00" fill="none" stroke="black" stroke-width="2.0" stroke-linecap="round"/>
    <path d="M 679.82 270.00 C 680.13 271.57, 679.89 273.14, 679.77 274.71 C 679.12 276.21, 678.24 277.56, 677.25 278.85 C 675.72 279.38, 674.57 280.63, 672.99 281.07 C 671.39 281.18, 669.87 281.60, 668.40 282.22 C 666.88 281.69, 665.33 281.33, 663.71 281.33 C 662.55 280.28, 661.65 278.94, 660.25 278.15 C 659.32 276.93, 658.20 275.86, 657.33 274.59 C 656.70 273.12, 656.41 271.58, 656.29 270.00 C 656.44 268.43, 656.86 266.92, 657.46 265.47 C 658.16 264.06, 658.90 262.66, 659.72 261.32 C 661.20 260.80, 662.50 259.86, 663.99 259.36 C 665.49 259.17, 666.92 258.69, 668.40 258.42 C 669.92 258.61, 671.46 258.58, 672.94 259.03 C 674.13 260.06, 675.73 260.43, 676.85 261.55 C 677.76 262.85, 678.78 264.07, 679.82 265.27 C 679.50 266.85, 679.80 268.42, 679.82 270.00" fill="none" stroke="black" stroke-width="2.0" stroke-linecap="round"/>
    <path d="M 668.40 282.00 C 668.73 296.00, 669.10 310.00, 668.40 324.00" fill="none" stroke="black" stroke-width="2.0" stroke-linecap="round"/>
    <path d="M 668.40 290.00 C 661.04 286.06, 653.93 281.63, 646.40 278.00" fill="none" stroke="black" stroke-width="2.0" stroke-linecap="round"/>
    <path d="M 646.40 278.00 C 644.97 283.98, 643.27 289.90, 642.40 296.00" fill="none" stroke="black" stroke-width="2.0" stroke-linecap="round"/>
    <path d="M 668.40 290.00 C 675.27 285.14, 682.69 281.31, 690.40 278.00" fill="none" stroke="black" stroke-width="2.0" stroke-linecap="round"/>
    <path d="M 690.40 278.00 C 690.78 284.21, 692.90 290.04, 694.40 296.00" fill="none" stroke="black" stroke-width="2.0" stroke-linecap="round"/>
    <path d="M 668.40 324.00 C 664.69 332.80, 660.00 341.15, 656.40 350.00" fill="none" stroke="black" stroke-width="2.0" stroke-linecap="round"/>
    <path d="M 668.40 324.00 C 673.23 332.29, 676.67 341.21, 680.40 350.00" fill="none" stroke="black" stroke-width="2.0" stroke-linecap="round"/>
    <path d="M 430.00 60.00 C 480.00 60.49, 530.00 60.33, 580.00 60.00 C 582.91 63.76, 587.07 66.27, 590.00 70.00 C 590.56 97.33, 590.46 124.67, 590.00 152.00 C 586.91 155.58, 583.87 159.21, 580.00 162.00 C 530.00 162.03, 480.00 162.24, 430.00 162.00 C 426.46 158.87, 423.83 154.83, 420.00 152.00 C 420.14 124.67, 419.47 97.33, 420.00 70.00 C 423.83 67.16, 426.24 62.91, 430.00 60.00" fill="#f1e7cc" stroke="black" stroke-width="2.0" stroke-linecap="round" stroke-linejoin="round"/>
    <path d="M 532.60 162.00 C 535.59 199.29, 536.50 236.71, 539.60 274.00 C 541.15 236.62, 544.48 199.35, 546.60 162.00" fill="#f1e7cc" stroke="black" stroke-width="2.0" stroke-linecap="round" stroke-linejoin="round"/>
    <line x1="533.6" y1="162" x2="545.6" y2="162" stroke="#f1e7cc" stroke-width="2.4"/>
    <text x="505.0" y="78.0" text-anchor="middle" font-family="Comic Neue, Comic Sans MS, cursive" font-size="13" fill="black"><tspan x="505.0" dy="0">Goted cast, they</tspan><tspan x="505.0" dy="16">really put owen</tspan><tspan x="505.0" dy="16">willson and never had</tspan><tspan x="505.0" dy="16">him say a single word</tspan><tspan x="505.0" dy="16">wow. jude law is the</tspan></text>
    <path d="M 680.00 60.00 C 710.00 60.48, 740.00 59.37, 770.00 60.00 C 773.48 63.19, 777.04 66.29, 780.00 70.00 C 780.06 76.00, 779.92 82.00, 780.00 88.00 C 776.70 91.37, 773.46 94.79, 770.00 98.00 C 740.00 97.48, 710.00 98.11, 680.00 98.00 C 676.76 94.57, 673.80 90.86, 670.00 88.00 C 669.90 82.00, 669.37 76.00, 670.00 70.00 C 673.39 66.73, 676.60 63.27, 680.00 60.00" fill="#f1e7cc" stroke="black" stroke-width="2.0" stroke-linecap="round" stroke-linejoin="round"/>
    <path d="M 675.00 98.00 C 670.11 156.66, 665.94 215.39, 660.40 274.00 C 669.41 215.25, 679.30 156.64, 689.00 98.00" fill="#f1e7cc" stroke="black" stroke-width="2.0" stroke-linecap="round" stroke-linejoin="round"/>
    <line x1="676" y1="98" x2="688" y2="98" stroke="#f1e7cc" stroke-width="2.4"/>
    <text x="725.0" y="78.0" text-anchor="middle" font-family="Comic Neue, Comic Sans MS, cursive" font-size="13" fill="black"><tspan x="725.0" dy="0">Yowzaaaa!</tspan></text>
  </g>
  <g class="panel">
    <path d="M 804.00 46.00 C 930.67 45.45, 1057.33 46.75, 1184.00 46.00 C 1183.48 159.33, 1184.71 272.67, 1184.00 386.00 C 1057.33 386.53, 930.67 385.22, 804.00 386.00 C 804.32 272.67, 804.23 159.33, 804.00 46.00" fill="none" stroke="black" stroke-width="2.0" stroke-linecap="round" stroke-linejoin="round"/>
    <path d="M 834.00 82.00 C 940.67 81.84, 1047.33 81.40, 1154.00 82.00 C 1154.27 108.67, 1154.18 135.33, 1154.00 162.00 C 1047.33 161.41, 940.67 161.39, 834.00 162.00 C 833.59 135.33, 833.35 108.67, 834.00 82.00" fill="#111" stroke="black" stroke-width="2.0" stroke-linecap="round" stroke-linejoin="round"/>
    <path d="M 838.00 86.00 C 942.00 86.00, 1046.00 86.59, 1150.00 86.00 C 1150.56 110.00, 1149.30 134.00, 1150.00 158.00 C 1046.00 158.77, 942.00 158.49, 838.00 158.00 C 837.87 134.00, 837.79 110.00, 838.00 86.00" fill="none" stroke="black" stroke-width="2.0" stroke-linecap="round" stroke-linejoin="round"/>
    <path d="M 854.00 362.00 C 900.67 362.29, 947.33 361.21, 994.00 362.00 C 992.54 352.02, 990.89 342.06, 990.00 332.00 C 986.89 325.51, 984.02 318.93, 982.00 312.00 C 943.33 312.34, 904.67 312.22, 866.00 312.00 C 863.04 318.55, 861.10 325.51, 858.00 332.00 C 856.96 342.04, 854.63 351.91, 854.00 362.00" fill="#222" stroke="black" stroke-width="2.0" stroke-linecap="round" stroke-linejoin="round"/>
    <path d="M 1004.00 362.00 C 1050.67 361.26, 1097.33 362.49, 1144.00 362.00 C 1143.39 351.90, 1141.91 341.92, 1140.00 332.00 C 1136.87 325.52, 1135.14 318.48, 1132.00 312.00 C 1093.33 311.83, 1054.67 311.24, 1016.00 312.00 C 1012.63 318.39, 1010.16 325.13, 1008.00 332.00 C 1005.89 341.90, 1005.47 352.02, 1004.00 362.00" fill="#222" stroke="black" stroke-width="2.0" stroke-linecap="round" stroke-linejoin="round"/>
    <path d="M 937.77 332.00 C 937.71 333.60, 937.46 335.17, 936.89 336.68 C 935.87 337.93, 935.33 339.48, 934.37 340.77 C 933.02 341.66, 931.61 342.46, 930.37 343.52 C 928.78 343.74, 927.15 343.68, 925.60 344.19 C 924.06 343.87, 922.48 343.70, 921.01 343.08 C 919.66 342.30, 918.46 341.31, 917.21 340.39 C 916.04 339.32, 915.30 337.92, 914.41 336.63 C 914.31 335.09, 913.77 333.58, 914.01 332.00 C 914.42 330.47, 914.36 328.91, 914.38 327.35 C 915.11 325.94, 916.09 324.73, 917.35 323.75 C 918.63 322.91, 919.70 321.78, 921.06 321.04 C 922.61 321.25, 924.12 321.06, 925.60 320.56 C 927.11 320.68, 928.56 321.31, 930.11 321.10 C 931.50 321.81, 932.89 322.50, 934.09 323.51 C 935.08 324.73, 935.44 326.27, 936.14 327.63 C 936.51 329.16, 936.90 330.67, 937.77 332.00" fill="none" stroke="black" stroke-width="2.0" stroke-linecap="round"/>
    <path d="M 1074.33 332.00 C 1073.97 333.51, 1073.79 335.05, 1073.40 336.56 C 1072.63 337.89, 1071.57 339.03, 1070.71 340.31 C 1069.33 340.96, 1067.98 341.64, 1066.81 342.64 C 1065.42 343.33, 1063.95 343.63, 1062.40 343.59 C 1060.80 343.58, 1059.21 343.66, 1057.61 343.56 C 1056.11 342.87, 1055.17 341.46, 1053.82 340.58 C 1052.72 339.42, 1051.92 338.07, 1051.40 336.56 C 1050.88 335.07, 1050.69 333.49, 1050.19 332.00 C 1050.52 330.46, 1051.43 329.13, 1051.73 327.58 C 1052.30 326.13, 1053.45 324.99, 1053.87 323.47 C 1055.33 322.73, 1056.52 321.66, 1057.63 320.49 C 1059.23 320.84, 1060.80 320.08, 1062.40 320.35 C 1063.96 320.38, 1065.49 320.79, 1067.05 320.76 C 1068.22 321.83, 1069.38 322.91, 1070.87 323.53 C 1071.52 324.92, 1072.49 326.15, 1073.06 327.58 C 1073.56 329.03, 1074.19 330.45, 1074.33 332.00" fill="none" stroke="black" stroke-width="2.0" stroke-linecap="round"/>
    <path d="M 1048.40 322.00 C 1057.73 321.68, 1067.07 321.80, 1076.40 322.00 C 1074.39 319.67, 1074.29 316.39, 1072.40 314.00 C 1065.73 313.44, 1059.07 314.01, 1052.40 314.00 C 1050.84 316.55, 1049.29 319.11, 1048.40 322.00" fill="black" stroke="black" stroke-width="2.0" stroke-linecap="round" stroke-linejoin="round"/>
    <path d="M 1074.09 314.00 C 1073.84 314.28, 1074.09 314.50, 1074.18 314.74 C 1073.74 314.65, 1073.99 315.23, 1073.67 315.27 C 1073.62 315.57, 1073.66 315.93, 1073.24 316.03 C 1072.91 316.05, 1072.58 316.08, 1072.40 315.71 C 1072.15 316.05, 1071.54 315.89, 1071.41 316.40 C 1071.69 315.93, 1071.56 315.56, 1071.14 315.26 C 1071.07 315.01, 1070.94 314.81, 1070.68 314.71 C 1070.64 314.47, 1070.65 314.23, 1070.77 314.00 C 1070.90 313.48, 1070.40 313.37, 1070.18 313.08 C 1070.45 312.89, 1070.36 312.44, 1070.73 312.33 C 1071.12 312.35, 1071.29 312.05, 1071.48 311.79 C 1071.80 311.41, 1072.09 312.14, 1072.40 311.81 C 1072.69 311.56, 1073.01 311.49, 1073.36 311.68 C 1073.84 311.60, 1073.62 312.39, 1074.11 312.29 C 1074.15 312.65, 1074.26 312.96, 1074.66 313.06 C 1074.78 313.56, 1073.99 313.51, 1074.09 314.00" fill="black" stroke="black" stroke-width="2.0" stroke-linecap="round"/>
    <path d="M 824.00 60.00 C 874.00 59.61, 924.00 59.49, 974.00 60.00 C 977.49 63.18, 981.01 66.32, 984.00 70.00 C 984.67 97.33, 984.35 124.67, 984.00 152.00 C 980.77 155.43, 977.51 158.85, 974.00 162.00 C 924.00 162.27, 874.00 161.24, 824.00 162.00 C 820.28 159.05, 816.95 155.72, 814.00 152.00 C 814.07 124.67, 814.12 97.33, 814.00 70.00 C 817.47 66.80, 820.76 63.42, 824.00 60.00" fill="#f1e7cc" stroke="black" stroke-width="2.0" stroke-linecap="round" stroke-linejoin="round"/>
    <path d="M 926.60 162.00 C 928.66 220.01, 931.56 277.99, 933.60 336.00 C 935.32 277.98, 938.11 219.99, 940.60 162.00" fill="#f1e7cc" stroke="black" stroke-width="2.0" stroke-linecap="round" stroke-linejoin="round"/>
    <line x1="927.6" y1="162" x2="939.6" y2="162" stroke="#f1e7cc" stroke-width="2.4"/>
    <text x="899.0" y="78.0" text-anchor="middle" font-family="Comic Neue, Comic Sans MS, cursive" font-size="13" fill="black"><tspan x="899.0" dy="0">Fookin love the way</tspan><tspan x="899.0" dy="16">the contrasts in</tspan><tspan x="899.0" dy="16">colors sets the comic</tspan><tspan x="899.0" dy="16">tone, subtle but in</tspan><tspan x="899.0" dy="16">the face ahhhh.</tspan></text>
    <path d="M 1014.00 60.00 C 1064.00 60.46, 1114.00 60.64, 1164.00 60.00 C 1167.83 62.83, 1170.26 67.07, 1174.00 70.00 C 1173.51 86.67, 1173.81 103.33, 1174.00 120.00 C 1171.05 123.72, 1166.81 126.14, 1164.00 130.00 C 1114.00 130.62, 1064.00 129.27, 1014.00 130.00 C 1010.62 126.72, 1006.96 123.71, 1004.00 120.00 C 1004.18 103.33, 1003.39 86.67, 1004.00 70.00 C 1007.79 67.12, 1011.11 63.78, 1014.00 60.00" fill="#f1e7cc" stroke="black" stroke-width="2.0" stroke-linecap="round" stroke-linejoin="round"/>
    <path d="M 1047.40 130.00 C 1049.55 198.67, 1052.29 267.33, 1054.40 336.00 C 1056.40 267.32, 1059.86 198.69, 1061.40 130.00" fill="#f1e7cc" stroke="black" stroke-width="2.0" stroke-linecap="round" stroke-linejoin="round"/>
    <line x1="1048.4" y1="130" x2="1060.4" y2="130" stroke="#f1e7cc" stroke-width="2.4"/>
    <text x="1089.0" y="78.0" text-anchor="middle" font-family="Comic Neue, Comic Sans MS, cursive" font-size="13" fill="black"><tspan x="1089.0" dy="0">And the final drop off</tspan><tspan x="1089.0" dy="16">to black and white</tspan><tspan x="1089.0" dy="16">speaks for itself.</tspan></text>
  </g>
</svg>
