<?xml version="1.0" encoding="UTF-8"?>
<svg xmlns="http://www.w3.org/2000/svg" viewBox="0 0 328 398" width="328" height="398" role="img" aria-label="#033 — Manchester by the Sea (2016)">
  <rect width="100%" height="100%" fill="white"/>
  <text x="164.0" y="32" text-anchor="middle" font-family="Comic Neue, Comic Sans MS, cursive" font-size="15" font-weight="700" fill="black">#033 — Manchester by the Sea (2016) ★★★★</text>
    <g class="panel">
    <rect x="14" y="44" width="300" height="340" fill="white" stroke="black" stroke-width="2"/>
    <rect x="29" y="58" width="270" height="54" rx="12" ry="12" fill="white" stroke="black" stroke-width="1.6"/>
    <polygon points="156.0,111 172.0,111 164.55753266578577,240" fill="white" stroke="black" stroke-width="1.6"/>
    <line x1="157.0" y1="112" x2="171.0" y2="112" stroke="white" stroke-width="2.2"/>
    <text x="164.0" y="76" text-anchor="middle" font-family="Comic Neue, Comic Sans MS, cursive" font-size="13" fill="black"><tspan x="164.0" dy="0">The monologue THE</tspan><tspan x="164.0" dy="16">MONOLOGUE</tspan></text>
    <circle cx="164.55753266578577" cy="254" r="14" fill="none" stroke="black" stroke-width="2.2"/>
    <line x1="164.55753266578577" y1="268" x2="164.55753266578577" y2="308" stroke="black" stroke-width="2.2"/>
    <line x1="164.55753266578577" y1="278" x2="142.55753266578577" y2="264" stroke="black" stroke-width="2.2"/>
    <line x1="142.55753266578577" y1="264" x2="138.55753266578577" y2="282" stroke="black" stroke-width="2.2"/>
    <line x1="164.55753266578577" y1="278" x2="186.55753266578577" y2="264" stroke="black" stroke-width="2.2"/>
    <line x1="186.55753266578577" y1="264" x2="190.55753266578577" y2="282" stroke="black" stroke-width="2.2"/>
    <line x1="164.55753266578577" y1="308" x2="150.55753266578577" y2="336" stroke="black" stroke-width="2.2"/>
    <line x1="164.55753266578577" y1="308" x2="178.55753266578577" y2="336" stroke="black" stroke-width="2.2"/>
    <line x1="34" y1="350" x2="294" y2="350" stroke="black" stroke-width="1.5"/>
</g>
</svg>
