<?xml version="1.0" encoding="UTF-8"?>
<svg xmlns="http://www.w3.org/2000/svg" viewBox="0 0 412 402" width="412" height="402" role="img" aria-label="#033 — Manchester by the Sea (2016)">
  <rect width="100%" height="100%" fill="white"/>
  <text x="206.0" y="34" text-anchor="middle" font-family="Comic Neue, Comic Sans MS, cursive" font-size="16" font-weight="700" fill="black">#033 — Manchester by the Sea (2016) ★★★★</text>
  <g class="panel">
    <path d="M 16.00 46.00 C 142.67 45.58, 269.33 45.30, 396.00 46.00 C 395.38 159.33, 395.48 272.67, 396.00 386.00 C 269.33 385.62, 142.67 386.22, 16.00 386.00 C 15.71 272.67, 16.09 159.33, 16.00 46.00" fill="none" stroke="black" stroke-width="2.0" stroke-linecap="round" stroke-linejoin="round"/>
    <path d="M 26.00 362.00 C 146.00 361.51, 266.00 362.08, 386.00 362.00" fill="none" stroke="black" stroke-width="1.4" stroke-linecap="round"/>
    <path d="M 149.37 270.00 C 149.27 271.54, 148.43 272.88, 148.20 274.39 C 147.49 275.71, 146.55 276.87, 145.69 278.09 C 144.27 278.78, 143.50 280.25, 142.18 281.06 C 140.67 281.60, 139.16 282.12, 137.60 282.51 C 136.09 281.82, 134.40 281.97, 132.83 281.51 C 131.70 280.31, 130.15 279.71, 128.86 278.74 C 128.21 277.30, 127.35 275.96, 126.84 274.46 C 126.42 272.90, 125.34 271.61, 125.08 270.00 C 125.78 268.56, 125.91 266.90, 126.78 265.52 C 127.63 264.18, 128.42 262.81, 128.87 261.27 C 130.19 260.33, 131.58 259.50, 132.81 258.43 C 134.41 258.28, 136.00 258.43, 137.60 258.47 C 139.15 258.33, 140.61 258.90, 142.12 259.09 C 143.42 259.97, 144.73 260.86, 146.24 261.36 C 146.76 262.84, 147.49 264.22, 148.21 265.61 C 148.59 267.07, 149.32 268.45, 149.37 270.00" fill="none" stroke="black" stroke-width="2.0" stroke-linecap="round"/>
    <path d="M 123.60 260.00 C 132.93 260.73, 142.27 259.49, 151.60 260.00 C 150.87 257.03, 149.15 254.56, 147.60 252.00 C 140.93 251.90, 134.27 251.23, 127.60 252.00 C 125.85 254.46, 125.28 257.51, 123.60 260.00" fill="black" stroke="black" stroke-width="2.0" stroke-linecap="round" stroke-linejoin="round"/>
    <path d="M 149.67 252.00 C 149.76 252.30, 150.07 252.56, 149.80 252.91 C 149.49 253.09, 149.19 253.26, 148.81 253.21 C 148.47 253.50, 148.54 253.90, 148.54 254.27 C 148.16 253.97, 147.89 254.26, 147.60 254.45 C 147.29 254.28, 146.87 254.23, 146.88 253.73 C 146.77 253.47, 146.32 253.69, 146.28 253.32 C 145.90 253.29, 145.61 252.98, 145.22 252.98 C 145.50 252.69, 145.56 252.26, 145.89 252.00 C 145.94 251.48, 145.75 251.13, 145.21 251.01 C 145.69 250.92, 145.67 250.51, 145.76 250.16 C 146.09 250.09, 146.42 250.01, 146.75 249.95 C 147.00 250.22, 147.27 250.38, 147.60 250.07 C 148.01 249.90, 148.02 250.34, 148.23 250.47 C 148.59 250.52, 148.95 250.59, 149.26 250.34 C 149.39 250.65, 149.53 250.97, 149.92 251.04 C 149.79 251.35, 149.43 251.60, 149.67 252.00" fill="black" stroke="black" stroke-width="2.0" stroke-linecap="round"/>
    <path d="M 137.60 282.00 C 137.14 296.00, 137.81 310.00, 137.60 324.00" fill="none" stroke="black" stroke-width="2.0" stroke-linecap="round"/>
    <path d="M 137.60 290.00 C 131.56 296.10, 126.38 302.89, 121.60 310.00" fill="none" stroke="black" stroke-width="2.0" stroke-linecap="round"/>
    <path d="M 137.60 290.00 C 143.04 296.58, 148.45 303.18, 153.60 310.00" fill="none" stroke="black" stroke-width="2.0" stroke-linecap="round"/>
    <path d="M 137.60 324.00 C 133.16 332.46, 130.05 341.54, 125.60 350.00" fill="none" stroke="black" stroke-width="2.0" stroke-linecap="round"/>
    <path d="M 137.60 324.00 C 141.07 332.91, 145.48 341.39, 149.60 350.00" fill="none" stroke="black" stroke-width="2.0" stroke-linecap="round"/>
    <path d="M 286.92 270.00 C 286.03 271.38, 285.62 272.93, 285.30 274.52 C 284.76 276.00, 283.64 277.13, 282.90 278.50 C 281.69 279.53, 280.57 280.67, 279.12 281.40 C 277.55 281.57, 276.00 281.92, 274.40 281.74 C 272.89 281.46, 271.36 281.28, 269.84 281.00 C 268.25 280.60, 267.17 279.26, 265.63 278.77 C 264.91 277.36, 264.06 276.01, 263.62 274.47 C 262.92 273.04, 262.80 271.42, 262.08 270.00 C 262.61 268.46, 262.33 266.78, 262.94 265.25 C 264.16 264.22, 265.28 263.09, 266.12 261.72 C 267.49 261.07, 268.81 260.35, 270.04 259.47 C 271.63 259.23, 272.82 257.99, 274.40 257.73 C 275.94 258.14, 277.44 258.71, 279.05 258.77 C 280.25 259.91, 281.80 260.42, 283.22 261.18 C 283.81 262.66, 284.40 264.13, 285.00 265.61 C 285.95 266.94, 286.19 268.57, 286.92 270.00" fill="none" stroke="black" stroke-width="2.0" stroke-linecap="round"/>
    <path d="M 274.40 282.00 C 274.92 296.00, 273.92 310.00, 274.40 324.00" fill="none" stroke="black" stroke-width="2.0" stroke-linecap="round"/>
    <path d="M 274.40 290.00 C 269.29 296.85, 262.97 302.72, 258.40 310.00" fill="none" stroke="black" stroke-width="2.0" stroke-linecap="round"/>
    <path d="M 274.40 290.00 C 279.24 297.06, 285.00 303.38, 290.40 310.00" fill="none" stroke="black" stroke-width="2.0" stroke-linecap="round"/>
    <path d="M 274.40 324.00 C 270.75 332.83, 266.04 341.17, 262.40 350.00" fill="none" stroke="black" stroke-width="2.0" stroke-linecap="round"/>
    <path d="M 274.40 324.00 C 278.72 332.52, 282.47 341.30, 286.40 350.00" fill="none" stroke="black" stroke-width="2.0" stroke-linecap="round"/>
    <path d="M 36.00 60.00 C 82.67 59.37, 129.33 59.89, 176.00 60.00 C 178.97 63.70, 182.83 66.50, 186.00 70.00 C 186.67 81.33, 186.38 92.67, 186.00 104.00 C 182.68 107.34, 179.73 111.06, 176.00 114.00 C 129.33 113.42, 82.67 114.67, 36.00 114.00 C 32.78 110.55, 28.79 107.88, 26.00 104.00 C 26.50 92.67, 26.04 81.33, 26.00 70.00 C 29.11 66.45, 32.67 63.33, 36.00 60.00" fill="white" stroke="black" stroke-width="2.0" stroke-linecap="round" stroke-linejoin="round"/>
    <path d="M 138.60 114.00 C 141.19 167.32, 143.20 220.67, 145.60 274.00 C 148.10 220.67, 150.80 167.36, 152.60 114.00" fill="white" stroke="black" stroke-width="2.0" stroke-linecap="round" stroke-linejoin="round"/>
    <line x1="139.60000000000002" y1="114" x2="151.60000000000002" y2="114" stroke="white" stroke-width="2.4"/>
    <text x="106.0" y="78.0" text-anchor="middle" font-family="Comic Neue, Comic Sans MS, cursive" font-size="13" fill="black"><tspan x="106.0" dy="0">The monologue THE</tspan><tspan x="106.0" dy="16">MONOLOGUE</tspan></text>
  </g>
</svg>
