<?xml version="1.0" encoding="UTF-8"?>
<svg xmlns="http://www.w3.org/2000/svg" viewBox="0 0 328 398" width="328" height="398" role="img" aria-label="#034 — 12 Angry Men (1957)">
  <rect width="100%" height="100%" fill="white"/>
  <text x="164.0" y="32" text-anchor="middle" font-family="Comic Neue, Comic Sans MS, cursive" font-size="15" font-weight="700" fill="black">#034 — 12 Angry Men (1957) ★★★★★</text>
    <g class="panel">
    <rect x="14" y="44" width="300" height="340" fill="white" stroke="black" stroke-width="2"/>
    <rect x="29" y="58" width="270" height="38" rx="12" ry="12" fill="white" stroke="black" stroke-width="1.6"/>
    <polygon points="156.0,95 172.0,95 171.79447857712483,240" fill="white" stroke="black" stroke-width="1.6"/>
    <line x1="157.0" y1="96" x2="171.0" y2="96" stroke="white" stroke-width="2.2"/>
    <text x="164.0" y="76" text-anchor="middle" font-family="Comic Neue, Comic Sans MS, cursive" font-size="13" fill="black"><tspan x="164.0" dy="0">what. a. masterpeice.</tspan></text>
    <circle cx="171.79447857712483" cy="264" r="14" fill="none" stroke="black" stroke-width="2.2"/>
    <line x1="171.79447857712483" y1="278" x2="171.79447857712483" y2="312" stroke="black" stroke-width="2.2"/>
    <line x1="171.79447857712483" y1="290" x2="153.79447857712483" y2="304" stroke="black" stroke-width="2.2"/>
    <line x1="171.79447857712483" y1="290" x2="189.79447857712483" y2="304" stroke="black" stroke-width="2.2"/>
    <line x1="171.79447857712483" y1="312" x2="197.79447857712483" y2="312" stroke="black" stroke-width="2.2"/>
    <line x1="197.79447857712483" y1="312" x2="197.79447857712483" y2="338" stroke="black" stroke-width="2.2"/>
    <line x1="171.79447857712483" y1="312" x2="157.79447857712483" y2="336" stroke="black" stroke-width="2.2"/>
    <line x1="34" y1="350" x2="294" y2="350" stroke="black" stroke-width="1.5"/>
</g>
</svg>
