<?xml version="1.0" encoding="UTF-8"?>
<svg xmlns="http://www.w3.org/2000/svg" viewBox="0 0 412 402" width="412" height="402" role="img" aria-label="#034 — 12 Angry Men (1957)">
  <defs><filter id="fibers" x="0%" y="0%" width="100%" height="100%"><feTurbulence type="fractalNoise" baseFrequency="0.04 0.7" numOctaves="2" stitchTiles="stitch" seed="4"/><feColorMatrix values="0 0 0 0 0.38  0 0 0 0 0.26  0 0 0 0 0.13  0 0 0 -0.7 0.28"/></filter><filter id="grain" x="0%" y="0%" width="100%" height="100%"><feTurbulence type="fractalNoise" baseFrequency="0.65" numOctaves="3" stitchTiles="stitch" seed="8"/><feColorMatrix values="0 0 0 0 0.42  0 0 0 0 0.30  0 0 0 0 0.16  0 0 0 -1.1 0.5"/></filter></defs>
  <rect width="100%" height="100%" fill="#e3d3a2"/>
  <rect width="100%" height="100%" filter="url(#fibers)" opacity="0.55"/>
  <rect width="100%" height="100%" filter="url(#grain)" opacity="0.85"/>
  <text x="206.0" y="34" text-anchor="middle" font-family="Comic Neue, Comic Sans MS, cursive" font-size="16" font-weight="700" fill="black">#034 — 12 Angry Men (1957) ★★★★★</text>
  <g class="panel">
    <path d="M 16.00 46.00 C 142.67 46.68, 269.33 45.66, 396.00 46.00 C 396.45 159.33, 396.09 272.67, 396.00 386.00 C 269.33 385.54, 142.67 385.61, 16.00 386.00 C 16.24 272.67, 15.88 159.33, 16.00 46.00" fill="none" stroke="black" stroke-width="2.0" stroke-linecap="round" stroke-linejoin="round"/>
    <path d="M 26.00 362.00 C 146.00 361.65, 266.00 362.79, 386.00 362.00" fill="none" stroke="black" stroke-width="1.4" stroke-linecap="round"/>
    <path d="M 151.60 326.00 C 159.60 325.82, 167.60 325.28, 175.60 326.00 C 174.60 336.65, 174.53 347.35, 173.60 358.00 C 166.93 358.79, 160.27 358.20, 153.60 358.00 C 153.00 347.33, 152.48 336.65, 151.60 326.00" fill="none" stroke="black" stroke-width="2.0" stroke-linecap="round" stroke-linejoin="round"/>
    <path d="M 157.60 328.00 C 157.22 337.33, 156.76 346.67, 157.60 356.00" fill="none" stroke="black" stroke-width="1.4" stroke-linecap="round"/>
    <path d="M 163.60 328.00 C 163.15 337.33, 163.64 346.67, 163.60 356.00" fill="none" stroke="black" stroke-width="1.4" stroke-linecap="round"/>
    <path d="M 169.60 328.00 C 170.17 337.33, 170.01 346.67, 169.60 356.00" fill="none" stroke="black" stroke-width="1.4" stroke-linecap="round"/>
    <path d="M 160.79 324.00 C 160.81 324.46, 160.93 324.91, 160.91 325.37 C 160.77 325.87, 160.20 325.96, 159.95 326.35 C 159.56 326.52, 159.24 326.97, 158.72 326.71 C 158.31 326.94, 157.97 326.61, 157.60 326.55 C 157.07 326.58, 156.62 326.76, 156.28 327.19 C 156.05 326.64, 155.33 327.02, 155.06 326.54 C 154.67 326.13, 154.56 325.67, 154.83 325.15 C 154.37 324.90, 154.30 324.46, 154.25 324.00 C 154.70 323.79, 155.21 323.64, 155.35 323.07 C 155.49 322.77, 155.96 322.62, 155.76 322.16 C 155.66 321.62, 156.28 321.47, 156.37 321.03 C 156.79 320.96, 157.20 320.90, 157.60 321.10 C 158.06 321.37, 158.43 320.93, 158.86 320.96 C 159.22 321.26, 159.46 321.63, 159.50 322.10 C 159.99 322.21, 160.47 322.38, 160.91 322.63 C 161.15 323.11, 160.89 323.55, 160.79 324.00" fill="none" stroke="black" stroke-width="2.0" stroke-linecap="round"/>
    <path d="M 168.89 320.00 C 168.66 320.52, 168.01 320.75, 167.97 321.40 C 167.67 321.84, 168.01 322.51, 167.47 322.87 C 166.96 323.02, 166.43 323.06, 165.91 323.17 C 165.74 323.87, 164.96 323.91, 164.60 324.40 C 164.12 324.06, 163.52 323.90, 163.22 323.33 C 162.77 323.09, 162.38 322.69, 161.80 322.80 C 161.29 322.49, 161.24 321.95, 161.11 321.45 C 160.80 320.99, 160.67 320.52, 160.96 320.00 C 160.96 319.50, 161.23 319.02, 161.02 318.52 C 161.14 317.99, 161.66 317.71, 161.79 317.19 C 162.34 317.00, 162.50 316.37, 163.00 316.14 C 163.58 315.84, 164.04 316.49, 164.60 316.35 C 165.10 316.07, 165.63 316.38, 166.14 316.28 C 166.53 316.63, 166.88 317.04, 167.42 317.18 C 167.75 317.58, 167.82 318.17, 168.30 318.47 C 168.61 318.94, 168.84 319.43, 168.89 320.00" fill="none" stroke="black" stroke-width="2.0" stroke-linecap="round"/>
    <path d="M 174.61 325.00 C 174.74 325.46, 174.10 325.63, 174.23 326.09 C 174.15 326.53, 173.98 326.95, 174.00 327.40 C 173.55 327.51, 173.06 327.11, 172.64 327.51 C 172.22 327.24, 171.95 327.70, 171.60 327.74 C 171.22 327.73, 171.05 327.27, 170.64 327.31 C 170.16 327.42, 169.64 327.16, 169.17 327.43 C 168.97 326.93, 169.08 326.45, 169.25 325.97 C 169.33 325.51, 168.98 325.29, 168.74 325.00 C 168.91 324.67, 169.19 324.38, 169.10 323.96 C 169.59 323.99, 169.60 323.48, 169.88 323.28 C 170.04 322.91, 170.46 322.68, 170.45 322.22 C 170.81 322.00, 171.15 321.72, 171.60 321.71 C 172.02 321.89, 172.43 322.11, 172.90 321.85 C 173.10 322.29, 173.74 322.21, 173.89 322.71 C 173.71 323.17, 174.34 323.48, 174.12 323.96 C 174.22 324.33, 174.15 324.79, 174.61 325.00" fill="none" stroke="black" stroke-width="2.0" stroke-linecap="round"/>
    <path d="M 149.01 270.00 C 148.95 271.50, 148.58 272.95, 148.21 274.39 C 147.25 275.63, 146.45 276.94, 146.08 278.48 C 144.98 279.66, 143.60 280.49, 142.37 281.50 C 140.79 281.76, 139.19 281.83, 137.60 281.98 C 136.05 281.58, 134.42 281.84, 132.86 281.44 C 131.47 280.60, 129.99 279.91, 128.71 278.89 C 128.08 277.35, 127.13 276.02, 126.04 274.79 C 125.37 273.26, 125.31 271.61, 125.09 270.00 C 125.76 268.55, 126.32 267.05, 127.03 265.62 C 127.60 264.21, 129.03 263.39, 129.54 261.94 C 130.88 261.16, 131.67 259.73, 133.03 258.97 C 134.60 258.91, 136.09 258.46, 137.60 258.10 C 139.21 257.97, 140.77 258.44, 142.37 258.49 C 143.72 259.37, 145.16 260.12, 146.29 261.31 C 146.83 262.86, 147.80 264.13, 148.90 265.32 C 149.07 266.88, 149.33 268.43, 149.01 270.00" fill="none" stroke="black" stroke-width="2.0" stroke-linecap="round"/>
    <path d="M 123.60 260.00 C 132.93 259.38, 142.27 260.03, 151.60 260.00 C 149.83 257.55, 149.20 254.53, 147.60 252.00 C 140.93 252.47, 134.27 252.52, 127.60 252.00 C 126.32 254.69, 124.58 257.16, 123.60 260.00" fill="black" stroke="black" stroke-width="2.0" stroke-linecap="round" stroke-linejoin="round"/>
    <path d="M 149.42 252.00 C 149.26 252.19, 148.89 252.18, 148.92 252.55 C 148.88 252.75, 148.99 253.00, 148.72 253.12 C 148.67 253.49, 148.47 253.56, 148.17 253.37 C 147.98 253.59, 147.63 253.68, 147.60 254.03 C 147.33 254.29, 146.89 253.93, 146.65 254.30 C 146.46 253.89, 146.75 253.45, 146.55 253.05 C 146.35 252.96, 146.38 252.57, 146.05 252.64 C 146.21 252.27, 145.46 252.41, 145.68 252.00 C 145.94 251.88, 146.02 251.57, 146.27 251.45 C 146.26 251.21, 145.94 250.94, 146.32 250.72 C 146.60 250.90, 146.74 250.39, 147.02 250.59 C 147.21 250.53, 147.45 250.82, 147.60 250.50 C 147.75 250.07, 148.30 250.18, 148.50 249.82 C 148.81 249.92, 149.12 250.01, 149.38 250.22 C 149.13 250.57, 149.18 250.96, 149.18 251.34 C 149.50 251.48, 149.41 251.76, 149.42 252.00" fill="black" stroke="black" stroke-width="2.0" stroke-linecap="round"/>
    <path d="M 137.60 282.00 C 136.95 296.00, 138.59 310.00, 137.60 324.00" fill="none" stroke="black" stroke-width="2.0" stroke-linecap="round"/>
    <path d="M 137.60 290.00 C 132.74 297.05, 127.52 303.80, 121.60 310.00" fill="none" stroke="black" stroke-width="2.0" stroke-linecap="round"/>
    <path d="M 137.60 290.00 C 143.06 296.57, 148.27 303.33, 153.60 310.00" fill="none" stroke="black" stroke-width="2.0" stroke-linecap="round"/>
    <path d="M 137.60 324.00 C 132.83 332.31, 129.92 341.48, 125.60 350.00" fill="none" stroke="black" stroke-width="2.0" stroke-linecap="round"/>
    <path d="M 137.60 324.00 C 141.72 332.61, 146.44 340.94, 149.60 350.00" fill="none" stroke="black" stroke-width="2.0" stroke-linecap="round"/>
    <path d="M 286.74 270.00 C 286.46 271.58, 285.63 272.95, 285.11 274.44 C 284.29 275.82, 283.54 277.23, 283.23 278.83 C 281.69 279.31, 280.31 280.12, 278.87 280.79 C 277.37 281.35, 275.79 281.71, 274.40 282.55 C 272.81 282.23, 271.41 281.40, 269.94 280.78 C 268.61 279.87, 267.08 279.40, 265.62 278.78 C 264.78 277.40, 263.65 276.21, 262.88 274.77 C 262.63 273.17, 262.52 271.55, 262.01 270.00 C 262.17 268.38, 262.91 266.96, 263.48 265.48 C 264.55 264.33, 265.32 262.99, 265.98 261.58 C 267.26 260.71, 268.76 260.18, 269.86 259.04 C 271.40 259.10, 272.92 258.93, 274.40 258.48 C 275.93 258.71, 277.45 258.93, 279.01 258.88 C 280.17 259.91, 281.47 260.76, 282.72 261.68 C 283.67 262.93, 284.58 264.22, 285.72 265.31 C 286.04 266.88, 286.21 268.48, 286.74 270.00" fill="none" stroke="black" stroke-width="2.0" stroke-linecap="round"/>
    <path d="M 262.40 268.00 C 262.31 278.70, 261.61 289.37, 260.40 300.00" fill="none" stroke="black" stroke-width="2.0" stroke-linecap="round"/>
    <path d="M 264.40 266.00 C 264.61 278.71, 263.46 291.35, 262.40 304.00" fill="none" stroke="black" stroke-width="2.0" stroke-linecap="round"/>
    <path d="M 286.40 268.00 C 287.58 278.63, 287.10 289.37, 288.40 300.00" fill="none" stroke="black" stroke-width="2.0" stroke-linecap="round"/>
    <path d="M 270.40 258.00 C 269.46 256.54, 268.07 255.99, 266.40 256.00" fill="none" stroke="black" stroke-width="1.4" stroke-linecap="round"/>
    <path d="M 278.40 258.00 C 280.01 257.90, 281.03 256.60, 282.40 256.00" fill="none" stroke="black" stroke-width="1.4" stroke-linecap="round"/>
    <path d="M 274.40 282.00 C 273.85 296.00, 274.20 310.00, 274.40 324.00" fill="none" stroke="black" stroke-width="2.0" stroke-linecap="round"/>
    <path d="M 274.40 292.00 C 265.13 290.23, 255.78 289.04, 246.40 288.00" fill="none" stroke="black" stroke-width="2.0" stroke-linecap="round"/>
    <path d="M 274.40 292.00 C 279.82 297.92, 284.97 304.09, 290.40 310.00" fill="none" stroke="black" stroke-width="2.0" stroke-linecap="round"/>
    <path d="M 274.40 324.00 C 270.28 332.61, 265.77 341.04, 262.40 350.00" fill="none" stroke="black" stroke-width="2.0" stroke-linecap="round"/>
    <path d="M 274.40 324.00 C 278.89 332.44, 281.76 341.63, 286.40 350.00" fill="none" stroke="black" stroke-width="2.0" stroke-linecap="round"/>
    <path d="M 36.00 60.00 C 86.00 59.28, 136.00 59.66, 186.00 60.00 C 188.81 63.86, 192.16 67.18, 196.00 70.00 C 196.07 76.00, 196.68 82.00, 196.00 88.00 C 192.14 90.80, 189.54 94.87, 186.00 98.00 C 136.00 98.58, 86.00 97.66, 36.00 98.00 C 32.99 94.34, 29.87 90.79, 26.00 88.00 C 26.24 82.00, 25.93 76.00, 26.00 70.00 C 29.09 66.43, 33.05 63.72, 36.00 60.00" fill="#e3d3a2" stroke="black" stroke-width="2.0" stroke-linecap="round" stroke-linejoin="round"/>
    <path d="M 138.60 98.00 C 141.72 156.64, 142.58 215.36, 145.60 274.00 C 148.57 215.36, 150.95 156.69, 152.60 98.00" fill="#e3d3a2" stroke="black" stroke-width="2.0" stroke-linecap="round" stroke-linejoin="round"/>
    <line x1="139.60000000000002" y1="98" x2="151.60000000000002" y2="98" stroke="#e3d3a2" stroke-width="2.4"/>
    <text x="111.0" y="78.0" text-anchor="middle" font-family="Comic Neue, Comic Sans MS, cursive" font-size="13" fill="black"><tspan x="111.0" dy="0">what. a. masterpeice.</tspan></text>
  </g>
</svg>
