<?xml version="1.0" encoding="UTF-8"?>
<svg xmlns="http://www.w3.org/2000/svg" viewBox="0 0 412 402" width="412" height="402" role="img" aria-label="#036 — Coco (2017)">
  <defs><filter id="fibers" x="0%" y="0%" width="100%" height="100%"><feTurbulence type="fractalNoise" baseFrequency="0.04 0.7" numOctaves="2" stitchTiles="stitch" seed="10"/><feColorMatrix values="0 0 0 0 0.38  0 0 0 0 0.26  0 0 0 0 0.13  0 0 0 -0.7 0.28"/></filter><filter id="grain" x="0%" y="0%" width="100%" height="100%"><feTurbulence type="fractalNoise" baseFrequency="0.65" numOctaves="3" stitchTiles="stitch" seed="1"/><feColorMatrix values="0 0 0 0 0.42  0 0 0 0 0.30  0 0 0 0 0.16  0 0 0 -1.1 0.5"/></filter></defs>
  <rect width="100%" height="100%" fill="#e3d3a2"/>
  <rect width="100%" height="100%" filter="url(#fibers)" opacity="0.55"/>
  <rect width="100%" height="100%" filter="url(#grain)" opacity="0.85"/>
  <text x="206.0" y="34" text-anchor="middle" font-family="Comic Neue, Comic Sans MS, cursive" font-size="16" font-weight="700" fill="black">#036 — Coco (2017) ★★★★</text>
  <g class="panel">
    <path d="M 16.00 46.00 C 142.67 46.67, 269.33 46.04, 396.00 46.00 C 395.61 159.33, 395.86 272.67, 396.00 386.00 C 269.33 385.40, 142.67 386.57, 16.00 386.00 C 15.97 272.67, 16.17 159.33, 16.00 46.00" fill="none" stroke="black" stroke-width="2.0" stroke-linecap="round" stroke-linejoin="round"/>
    <path d="M 46.00 82.00 C 152.67 81.87, 259.33 82.16, 366.00 82.00 C 366.04 108.67, 365.44 135.33, 366.00 162.00 C 259.33 161.35, 152.67 161.41, 46.00 162.00 C 45.96 135.33, 45.79 108.67, 46.00 82.00" fill="#111" stroke="black" stroke-width="2.0" stroke-linecap="round" stroke-linejoin="round"/>
    <path d="M 50.00 86.00 C 154.00 85.89, 258.00 85.34, 362.00 86.00 C 361.50 110.00, 362.50 134.00, 362.00 158.00 C 258.00 157.79, 154.00 158.11, 50.00 158.00 C 49.33 134.00, 50.76 110.00, 50.00 86.00" fill="none" stroke="black" stroke-width="2.0" stroke-linecap="round" stroke-linejoin="round"/>
    <path d="M 66.00 362.00 C 112.67 361.65, 159.33 361.37, 206.00 362.00 C 204.69 352.00, 202.59 342.10, 202.00 332.00 C 199.59 325.23, 196.02 318.93, 194.00 312.00 C 155.33 311.84, 116.67 312.01, 78.00 312.00 C 75.21 318.62, 73.18 325.54, 70.00 332.00 C 68.79 342.02, 68.06 352.10, 66.00 362.00" fill="#222" stroke="black" stroke-width="2.0" stroke-linecap="round" stroke-linejoin="round"/>
    <path d="M 216.00 362.00 C 262.67 361.85, 309.33 361.52, 356.00 362.00 C 354.79 351.98, 353.47 341.98, 352.00 332.00 C 349.11 325.42, 346.88 318.58, 344.00 312.00 C 305.33 312.02, 266.67 312.07, 228.00 312.00 C 226.01 318.94, 222.07 325.10, 220.00 332.00 C 218.60 341.99, 217.38 352.01, 216.00 362.00" fill="#222" stroke="black" stroke-width="2.0" stroke-linecap="round" stroke-linejoin="round"/>
    <path d="M 149.54 332.00 C 149.52 333.60, 149.58 335.22, 149.16 336.79 C 148.16 338.04, 146.75 338.91, 145.86 340.26 C 144.71 341.31, 143.40 342.16, 142.23 343.19 C 140.70 343.57, 139.10 343.61, 137.60 344.13 C 136.27 343.25, 134.70 343.05, 133.22 342.57 C 131.70 342.18, 130.33 341.47, 129.10 340.50 C 128.16 339.25, 127.25 338.00, 126.84 336.46 C 126.81 334.94, 126.57 333.46, 126.16 332.00 C 126.37 330.43, 126.07 328.85, 126.19 327.27 C 127.56 326.41, 128.65 325.28, 129.51 323.91 C 130.39 322.57, 131.62 321.60, 132.92 320.70 C 134.50 320.59, 136.01 320.01, 137.60 319.96 C 139.15 320.50, 140.77 320.43, 142.38 320.46 C 143.74 321.34, 144.70 322.65, 145.86 323.74 C 147.24 324.64, 148.12 326.02, 149.22 327.19 C 149.09 328.81, 149.41 330.40, 149.54 332.00" fill="none" stroke="black" stroke-width="2.0" stroke-linecap="round"/>
    <path d="M 286.70 332.00 C 286.04 333.43, 286.01 335.09, 285.10 336.43 C 284.74 338.01, 283.87 339.38, 283.25 340.85 C 281.99 341.88, 280.35 342.34, 279.15 343.46 C 277.65 344.20, 275.96 344.11, 274.40 344.59 C 272.91 343.97, 271.37 343.50, 269.81 343.08 C 268.47 342.24, 267.29 341.13, 265.73 340.67 C 265.05 339.17, 263.54 338.28, 262.86 336.78 C 262.88 335.12, 261.99 333.64, 261.95 332.00 C 262.04 330.37, 262.76 328.90, 263.15 327.34 C 263.75 325.83, 265.25 324.96, 265.85 323.45 C 267.36 322.87, 268.34 321.51, 269.77 320.83 C 271.33 320.77, 272.83 320.22, 274.40 320.31 C 275.95 320.38, 277.47 320.69, 279.01 320.88 C 280.29 321.78, 281.61 322.63, 282.93 323.47 C 283.89 324.71, 284.48 326.16, 285.28 327.49 C 285.65 329.03, 286.52 330.41, 286.70 332.00" fill="none" stroke="black" stroke-width="2.0" stroke-linecap="round"/>
    <path d="M 121.60 322.00 C 132.27 322.64, 142.93 321.71, 153.60 322.00 C 152.35 318.63, 151.25 315.21, 149.60 312.00 C 141.60 312.78, 133.60 312.40, 125.60 312.00 C 123.68 315.10, 123.51 318.90, 121.60 322.00" fill="black" stroke="black" stroke-width="2.0" stroke-linecap="round" stroke-linejoin="round"/>
    <path d="M 119.60 322.00 C 131.60 322.30, 143.60 322.38, 155.60 322.00" fill="none" stroke="black" stroke-width="2.0" stroke-linecap="round"/>
    <path d="M 260.40 322.00 C 269.73 321.67, 279.07 321.22, 288.40 322.00 C 287.65 319.04, 285.77 316.65, 284.40 314.00 C 277.73 313.59, 271.07 313.20, 264.40 314.00 C 263.68 316.97, 261.05 318.99, 260.40 322.00" fill="black" stroke="black" stroke-width="2.0" stroke-linecap="round" stroke-linejoin="round"/>
    <path d="M 285.97 314.00 C 286.34 314.22, 286.21 314.43, 285.95 314.64 C 285.83 314.86, 285.70 315.07, 285.73 315.33 C 285.76 315.74, 285.30 315.62, 285.17 315.87 C 284.80 316.06, 284.79 315.34, 284.40 315.56 C 284.23 315.95, 283.70 315.80, 283.51 316.16 C 283.58 315.72, 283.00 315.79, 282.94 315.46 C 283.23 315.11, 282.79 314.95, 282.73 314.69 C 282.81 314.46, 282.86 314.22, 282.96 314.00 C 282.71 313.83, 282.61 313.61, 282.78 313.33 C 283.19 313.33, 282.88 312.85, 283.16 312.76 C 283.32 312.41, 283.55 312.39, 283.83 312.62 C 283.87 312.18, 284.51 312.05, 284.40 311.53 C 284.89 311.56, 284.57 312.31, 285.10 312.31 C 285.15 312.58, 285.60 312.49, 285.56 312.84 C 285.95 313.00, 286.42 312.67, 286.78 313.01 C 286.65 313.46, 285.99 313.47, 285.97 314.00" fill="black" stroke="black" stroke-width="2.0" stroke-linecap="round"/>
    <path d="M 36.00 60.00 C 86.00 59.58, 136.00 59.52, 186.00 60.00 C 189.89 62.78, 192.60 66.73, 196.00 70.00 C 196.29 86.67, 196.63 103.33, 196.00 120.00 C 192.52 123.18, 188.80 126.14, 186.00 130.00 C 136.00 129.72, 86.00 130.04, 36.00 130.00 C 32.70 126.63, 29.52 123.15, 26.00 120.00 C 26.58 103.33, 25.47 86.67, 26.00 70.00 C 29.24 66.57, 33.22 63.89, 36.00 60.00" fill="#e3d3a2" stroke="black" stroke-width="2.0" stroke-linecap="round" stroke-linejoin="round"/>
    <path d="M 138.60 130.00 C 141.53 198.65, 142.50 267.36, 145.60 336.00 C 147.30 267.31, 149.75 198.65, 152.60 130.00" fill="#e3d3a2" stroke="black" stroke-width="2.0" stroke-linecap="round" stroke-linejoin="round"/>
    <line x1="139.60000000000002" y1="130" x2="151.60000000000002" y2="130" stroke="#e3d3a2" stroke-width="2.4"/>
    <text x="111.0" y="78.0" text-anchor="middle" font-family="Comic Neue, Comic Sans MS, cursive" font-size="13" fill="black"><tspan x="111.0" dy="0">remember me! each time</tspan><tspan x="111.0" dy="16">you hear a sad guitar</tspan><tspan x="111.0" dy="16">re mem ber me</tspan></text>
  </g>
</svg>
