<?xml version="1.0" encoding="UTF-8"?>
<svg xmlns="http://www.w3.org/2000/svg" viewBox="0 0 806 402" width="806" height="402" role="img" aria-label="#037 — Wuthering Heights (2026)">
  <defs><filter id="fibers" x="0%" y="0%" width="100%" height="100%"><feTurbulence type="fractalNoise" baseFrequency="0.04 0.7" numOctaves="2" stitchTiles="stitch" seed="2"/><feColorMatrix values="0 0 0 0 0.38  0 0 0 0 0.26  0 0 0 0 0.13  0 0 0 -0.7 0.28"/></filter><filter id="grain" x="0%" y="0%" width="100%" height="100%"><feTurbulence type="fractalNoise" baseFrequency="0.65" numOctaves="3" stitchTiles="stitch" seed="2"/><feColorMatrix values="0 0 0 0 0.42  0 0 0 0 0.30  0 0 0 0 0.16  0 0 0 -1.1 0.5"/></filter></defs>
  <rect width="100%" height="100%" fill="#e3d3a2"/>
  <rect width="100%" height="100%" filter="url(#fibers)" opacity="0.55"/>
  <rect width="100%" height="100%" filter="url(#grain)" opacity="0.85"/>
  <text x="403.0" y="34" text-anchor="middle" font-family="Comic Neue, Comic Sans MS, cursive" font-size="16" font-weight="700" fill="black">#037 — Wuthering Heights (2026) ★★★</text>
  <g class="panel">
    <path d="M 16.00 46.00 C 142.67 46.48, 269.33 46.29, 396.00 46.00 C 395.32 159.33, 396.39 272.67, 396.00 386.00 C 269.33 385.60, 142.67 386.63, 16.00 386.00 C 15.76 272.67, 15.96 159.33, 16.00 46.00" fill="none" stroke="black" stroke-width="2.0" stroke-linecap="round" stroke-linejoin="round"/>
    <path d="M 26.00 362.00 C 146.00 362.65, 266.00 361.05, 386.00 362.00" fill="none" stroke="black" stroke-width="1.4" stroke-linecap="round"/>
    <path d="M 149.41 270.00 C 149.27 271.53, 148.64 272.95, 148.28 274.43 C 147.73 275.87, 146.47 276.86, 145.87 278.27 C 144.61 279.23, 143.27 280.09, 142.33 281.41 C 140.79 281.92, 139.16 281.85, 137.60 282.25 C 136.18 281.59, 134.80 280.83, 133.24 280.53 C 131.84 279.84, 130.37 279.34, 128.99 278.61 C 127.77 277.53, 126.90 276.19, 126.27 274.69 C 126.57 273.11, 125.91 271.57, 126.09 270.00 C 126.43 268.44, 126.02 266.85, 126.21 265.28 C 127.20 264.04, 128.06 262.69, 129.01 261.41 C 130.40 260.70, 131.88 260.15, 133.11 259.15 C 134.65 258.98, 136.07 258.27, 137.60 258.06 C 139.20 258.24, 140.82 258.02, 142.40 258.40 C 143.63 259.44, 145.05 260.25, 146.17 261.43 C 146.97 262.76, 147.95 264.00, 148.45 265.51 C 149.02 266.95, 149.47 268.42, 149.41 270.00" fill="none" stroke="black" stroke-width="2.0" stroke-linecap="round"/>
    <path d="M 123.60 260.00 C 132.93 259.64, 142.27 259.27, 151.60 260.00 C 150.70 257.11, 149.01 254.63, 147.60 252.00 C 140.93 251.72, 134.27 252.39, 127.60 252.00 C 126.62 254.84, 124.53 257.13, 123.60 260.00" fill="black" stroke="black" stroke-width="2.0" stroke-linecap="round" stroke-linejoin="round"/>
    <path d="M 149.51 252.00 C 149.17 252.03, 149.20 252.43, 148.96 252.56 C 148.85 252.98, 149.09 253.31, 149.25 253.65 C 148.94 253.63, 148.59 253.35, 148.33 253.75 C 148.11 253.40, 147.86 253.42, 147.60 253.70 C 147.21 253.54, 146.96 253.74, 146.76 254.04 C 146.92 253.65, 146.57 253.45, 146.42 253.18 C 146.20 252.71, 145.82 252.80, 145.43 252.90 C 145.71 252.52, 145.19 252.32, 145.22 252.00 C 145.50 251.72, 145.44 251.40, 145.35 251.07 C 145.73 250.65, 146.17 251.00, 146.58 250.98 C 146.69 250.56, 146.81 250.14, 146.65 249.71 C 146.81 250.15, 147.42 249.94, 147.60 250.36 C 147.99 250.56, 148.26 250.44, 148.41 250.04 C 148.62 250.40, 149.08 249.94, 149.29 250.31 C 149.64 250.68, 148.86 250.96, 149.21 251.33 C 149.39 251.52, 149.61 251.69, 149.51 252.00" fill="black" stroke="black" stroke-width="2.0" stroke-linecap="round"/>
    <path d="M 137.60 282.00 C 137.97 296.00, 137.59 310.00, 137.60 324.00" fill="none" stroke="black" stroke-width="2.0" stroke-linecap="round"/>
    <path d="M 137.60 292.00 C 146.88 290.27, 156.18 288.74, 165.60 288.00" fill="none" stroke="black" stroke-width="2.0" stroke-linecap="round"/>
    <path d="M 137.60 292.00 C 132.97 298.63, 126.43 303.55, 121.60 310.00" fill="none" stroke="black" stroke-width="2.0" stroke-linecap="round"/>
    <path d="M 137.60 324.00 C 134.45 333.06, 129.64 341.35, 125.60 350.00" fill="none" stroke="black" stroke-width="2.0" stroke-linecap="round"/>
    <path d="M 137.60 324.00 C 142.15 332.42, 144.74 341.73, 149.60 350.00" fill="none" stroke="black" stroke-width="2.0" stroke-linecap="round"/>
    <path d="M 286.32 270.00 C 286.16 271.54, 285.49 272.97, 285.24 274.49 C 284.46 275.84, 284.03 277.39, 283.00 278.60 C 281.50 279.08, 280.25 280.05, 278.83 280.69 C 277.35 281.22, 275.91 281.85, 274.40 282.29 C 272.82 282.06, 271.29 281.60, 269.73 281.28 C 268.53 280.27, 267.10 279.54, 266.13 278.27 C 265.11 277.12, 264.82 275.52, 263.73 274.42 C 263.34 272.86, 262.39 271.53, 261.92 270.00 C 262.56 268.53, 263.27 267.10, 263.56 265.51 C 264.61 264.37, 264.92 262.75, 266.05 261.65 C 267.40 260.81, 268.26 259.39, 269.70 258.65 C 271.27 258.89, 272.84 258.80, 274.40 258.58 C 275.94 258.53, 277.46 258.76, 278.99 258.92 C 280.22 259.85, 281.43 260.82, 282.70 261.70 C 283.54 263.07, 285.05 263.85, 285.86 265.26 C 285.72 266.87, 285.86 268.45, 286.32 270.00" fill="none" stroke="black" stroke-width="2.0" stroke-linecap="round"/>
    <path d="M 262.40 268.00 C 261.48 278.65, 260.46 289.30, 260.40 300.00" fill="none" stroke="black" stroke-width="2.0" stroke-linecap="round"/>
    <path d="M 264.40 266.00 C 264.40 278.70, 263.82 291.37, 262.40 304.00" fill="none" stroke="black" stroke-width="2.0" stroke-linecap="round"/>
    <path d="M 286.40 268.00 C 288.01 278.61, 288.61 289.28, 288.40 300.00" fill="none" stroke="black" stroke-width="2.0" stroke-linecap="round"/>
    <path d="M 270.40 258.00 C 269.00 257.48, 268.03 256.07, 266.40 256.00" fill="none" stroke="black" stroke-width="1.4" stroke-linecap="round"/>
    <path d="M 278.40 258.00 C 279.75 257.36, 281.28 257.09, 282.40 256.00" fill="none" stroke="black" stroke-width="1.4" stroke-linecap="round"/>
    <path d="M 274.40 282.00 C 274.17 296.00, 273.57 310.00, 274.40 324.00" fill="none" stroke="black" stroke-width="2.0" stroke-linecap="round"/>
    <path d="M 274.40 292.00 C 264.97 291.33, 255.77 289.09, 246.40 288.00" fill="none" stroke="black" stroke-width="2.0" stroke-linecap="round"/>
    <path d="M 274.40 292.00 C 279.33 298.36, 285.75 303.40, 290.40 310.00" fill="none" stroke="black" stroke-width="2.0" stroke-linecap="round"/>
    <path d="M 274.40 324.00 C 270.68 332.80, 266.66 341.45, 262.40 350.00" fill="none" stroke="black" stroke-width="2.0" stroke-linecap="round"/>
    <path d="M 274.40 324.00 C 278.44 332.65, 282.39 341.34, 286.40 350.00" fill="none" stroke="black" stroke-width="2.0" stroke-linecap="round"/>
    <path d="M 36.00 60.00 C 86.00 60.13, 136.00 59.91, 186.00 60.00 C 189.66 63.01, 192.77 66.57, 196.00 70.00 C 196.12 97.33, 196.60 124.67, 196.00 152.00 C 192.92 155.59, 189.18 158.51, 186.00 162.00 C 136.00 162.11, 86.00 161.47, 36.00 162.00 C 32.67 158.66, 29.27 155.40, 26.00 152.00 C 26.57 124.67, 26.21 97.33, 26.00 70.00 C 29.45 66.79, 32.53 63.19, 36.00 60.00" fill="#e3d3a2" stroke="black" stroke-width="2.0" stroke-linecap="round" stroke-linejoin="round"/>
    <path d="M 138.60 162.00 C 140.70 199.35, 143.71 236.64, 145.60 274.00 C 147.78 236.66, 150.53 199.35, 152.60 162.00" fill="#e3d3a2" stroke="black" stroke-width="2.0" stroke-linecap="round" stroke-linejoin="round"/>
    <line x1="139.60000000000002" y1="162" x2="151.60000000000002" y2="162" stroke="#e3d3a2" stroke-width="2.4"/>
    <text x="111.0" y="78.0" text-anchor="middle" font-family="Comic Neue, Comic Sans MS, cursive" font-size="13" fill="black"><tspan x="111.0" dy="0">come undone! tf! edit:</tspan><tspan x="111.0" dy="16">what a f ass movie</tspan><tspan x="111.0" dy="16">come undone? well</tspan><tspan x="111.0" dy="16">duhhh till the</tspan><tspan x="111.0" dy="16">intermission I had</tspan></text>
    <path d="M 226.00 60.00 C 276.00 60.31, 326.00 60.13, 376.00 60.00 C 379.66 63.00, 382.34 66.99, 386.00 70.00 C 385.88 97.33, 385.77 124.67, 386.00 152.00 C 383.21 155.87, 378.97 158.30, 376.00 162.00 C 326.00 162.11, 276.00 162.05, 226.00 162.00 C 222.34 158.99, 218.78 155.89, 216.00 152.00 C 216.35 124.67, 215.76 97.33, 216.00 70.00 C 219.63 66.96, 222.25 62.91, 226.00 60.00" fill="#e3d3a2" stroke="black" stroke-width="2.0" stroke-linecap="round" stroke-linejoin="round"/>
    <path d="M 259.40 162.00 C 262.34 199.30, 264.46 236.64, 266.40 274.00 C 268.17 236.63, 271.80 199.38, 273.40 162.00" fill="#e3d3a2" stroke="black" stroke-width="2.0" stroke-linecap="round" stroke-linejoin="round"/>
    <line x1="260.40000000000003" y1="162" x2="272.40000000000003" y2="162" stroke="#e3d3a2" stroke-width="2.4"/>
    <text x="301.0" y="78.0" text-anchor="middle" font-family="Comic Neue, Comic Sans MS, cursive" font-size="13" fill="black"><tspan x="301.0" dy="0">I mean the story is</tspan><tspan x="301.0" dy="16">undone? was that the</tspan><tspan x="301.0" dy="16">tag? also she drops</tspan><tspan x="301.0" dy="16">whateva our soulz are</tspan><tspan x="301.0" dy="16">made off he&#x27;s and</tspan></text>
  </g>
  <g class="panel">
    <path d="M 410.00 46.00 C 536.67 45.96, 663.33 45.78, 790.00 46.00 C 790.07 159.33, 789.93 272.67, 790.00 386.00 C 663.33 385.83, 536.67 385.89, 410.00 386.00 C 409.42 272.67, 409.24 159.33, 410.00 46.00" fill="none" stroke="black" stroke-width="2.0" stroke-linecap="round" stroke-linejoin="round"/>
    <path d="M 420.00 362.00 C 540.00 362.59, 660.00 362.80, 780.00 362.00" fill="none" stroke="black" stroke-width="1.4" stroke-linecap="round"/>
    <path d="M 545.60 326.00 C 553.60 325.62, 561.60 325.41, 569.60 326.00 C 569.16 336.68, 568.87 347.37, 567.60 358.00 C 560.93 357.27, 554.27 357.52, 547.60 358.00 C 546.30 347.37, 546.01 336.68, 545.60 326.00" fill="none" stroke="black" stroke-width="2.0" stroke-linecap="round" stroke-linejoin="round"/>
    <path d="M 551.60 328.00 C 552.43 337.33, 551.85 346.67, 551.60 356.00" fill="none" stroke="black" stroke-width="1.4" stroke-linecap="round"/>
    <path d="M 557.60 328.00 C 558.30 337.33, 556.68 346.67, 557.60 356.00" fill="none" stroke="black" stroke-width="1.4" stroke-linecap="round"/>
    <path d="M 563.60 328.00 C 564.13 337.33, 563.01 346.67, 563.60 356.00" fill="none" stroke="black" stroke-width="1.4" stroke-linecap="round"/>
    <path d="M 554.66 324.00 C 554.93 324.43, 554.60 324.82, 554.57 325.23 C 554.15 325.54, 554.36 326.11, 554.06 326.46 C 553.61 326.51, 553.14 326.47, 552.72 326.71 C 552.36 326.57, 552.04 326.25, 551.60 326.43 C 551.35 327.03, 550.70 327.00, 550.25 327.27 C 549.70 327.26, 549.36 326.93, 549.12 326.48 C 548.93 325.98, 549.54 325.51, 549.19 325.00 C 548.86 324.74, 549.22 324.26, 548.87 324.00 C 548.93 323.63, 548.78 323.25, 548.90 322.88 C 549.07 322.51, 548.84 321.99, 549.32 321.72 C 549.53 321.30, 550.13 321.34, 550.31 320.88 C 550.83 320.98, 551.26 320.83, 551.60 320.42 C 552.12 320.36, 552.45 320.75, 552.86 320.95 C 552.91 321.43, 553.48 321.75, 553.30 322.30 C 553.57 322.76, 553.98 322.89, 554.48 322.81 C 554.80 323.16, 554.88 323.56, 554.66 324.00" fill="none" stroke="black" stroke-width="2.0" stroke-linecap="round"/>
    <path d="M 563.18 320.00 C 562.78 320.51, 562.78 321.12, 562.75 321.72 C 562.17 321.90, 561.64 322.17, 561.27 322.67 C 560.82 322.85, 560.27 322.75, 559.91 323.16 C 559.37 323.23, 559.19 323.92, 558.60 323.91 C 558.21 323.53, 557.73 323.39, 557.21 323.37 C 556.63 323.35, 556.26 323.06, 556.08 322.52 C 555.52 322.32, 555.84 321.59, 555.37 321.34 C 555.40 320.75, 554.63 320.58, 554.66 320.00 C 554.33 319.46, 554.45 318.86, 554.45 318.28 C 555.14 318.23, 555.54 317.80, 555.83 317.23 C 556.13 316.76, 556.35 316.21, 556.95 316.02 C 557.45 315.70, 558.04 315.63, 558.60 315.50 C 558.87 316.15, 559.71 315.95, 560.06 316.49 C 560.67 316.44, 561.29 316.32, 561.83 316.77 C 561.99 317.35, 562.64 317.66, 562.69 318.30 C 562.54 318.96, 562.70 319.53, 563.18 320.00" fill="none" stroke="black" stroke-width="2.0" stroke-linecap="round"/>
    <path d="M 569.19 325.00 C 568.72 325.23, 568.42 325.61, 568.22 326.09 C 568.32 326.56, 567.71 326.93, 568.04 327.44 C 567.62 327.80, 567.09 327.18, 566.67 327.59 C 566.14 327.65, 566.14 328.38, 565.60 328.44 C 565.28 327.97, 564.70 328.38, 564.33 328.08 C 564.29 327.59, 564.13 327.16, 563.81 326.79 C 563.34 326.68, 563.01 326.11, 562.42 326.32 C 562.36 325.78, 562.55 325.34, 562.97 325.00 C 563.39 324.80, 563.39 324.44, 563.31 324.05 C 563.14 323.63, 563.87 323.44, 563.59 322.99 C 563.92 322.75, 564.36 323.10, 564.68 322.77 C 565.11 322.57, 565.51 322.32, 565.60 321.79 C 566.04 321.71, 566.41 321.97, 566.82 322.06 C 566.88 322.55, 567.20 322.81, 567.62 322.98 C 567.71 323.52, 568.48 323.23, 568.58 323.77 C 568.69 324.22, 569.23 324.47, 569.19 325.00" fill="none" stroke="black" stroke-width="2.0" stroke-linecap="round"/>
    <path d="M 543.04 270.00 C 542.95 271.53, 542.54 273.02, 542.63 274.57 C 541.99 276.05, 541.35 277.52, 540.49 278.89 C 539.27 280.00, 537.58 280.39, 536.38 281.55 C 534.78 281.66, 533.16 281.56, 531.60 282.04 C 530.01 281.90, 528.40 281.89, 526.83 281.53 C 525.48 280.63, 524.40 279.45, 523.38 278.22 C 522.20 277.19, 521.44 275.85, 520.63 274.55 C 520.25 273.04, 520.18 271.45, 519.56 270.00 C 519.74 268.42, 520.04 266.85, 520.18 265.27 C 521.21 264.08, 522.20 262.84, 523.43 261.83 C 524.39 260.55, 525.59 259.56, 526.92 258.69 C 528.47 258.51, 530.05 258.82, 531.60 258.50 C 533.01 259.08, 534.51 259.24, 536.02 259.33 C 537.55 259.76, 539.00 260.40, 540.34 261.26 C 541.19 262.60, 541.45 264.23, 542.44 265.51 C 543.00 266.96, 542.60 268.54, 543.04 270.00" fill="none" stroke="black" stroke-width="2.0" stroke-linecap="round"/>
    <path d="M 519.60 268.00 C 519.43 278.70, 518.80 289.37, 517.60 300.00" fill="none" stroke="black" stroke-width="2.0" stroke-linecap="round"/>
    <path d="M 521.60 266.00 C 521.64 278.70, 521.06 291.38, 519.60 304.00" fill="none" stroke="black" stroke-width="2.0" stroke-linecap="round"/>
    <path d="M 543.60 268.00 C 544.43 278.66, 545.83 289.28, 545.60 300.00" fill="none" stroke="black" stroke-width="2.0" stroke-linecap="round"/>
    <path d="M 527.60 258.00 C 526.04 257.78, 525.10 256.34, 523.60 256.00" fill="none" stroke="black" stroke-width="1.4" stroke-linecap="round"/>
    <path d="M 535.60 258.00 C 537.12 257.72, 538.53 257.20, 539.60 256.00" fill="none" stroke="black" stroke-width="1.4" stroke-linecap="round"/>
    <path d="M 531.60 282.00 C 531.03 296.00, 531.86 310.00, 531.60 324.00" fill="none" stroke="black" stroke-width="2.0" stroke-linecap="round"/>
    <path d="M 531.60 290.00 C 526.79 297.08, 521.64 303.90, 515.60 310.00" fill="none" stroke="black" stroke-width="2.0" stroke-linecap="round"/>
    <path d="M 531.60 290.00 C 536.56 296.97, 542.83 302.88, 547.60 310.00" fill="none" stroke="black" stroke-width="2.0" stroke-linecap="round"/>
    <path d="M 531.60 324.00 C 528.13 332.91, 524.32 341.67, 519.60 350.00" fill="none" stroke="black" stroke-width="2.0" stroke-linecap="round"/>
    <path d="M 531.60 324.00 C 535.57 332.68, 538.72 341.74, 543.60 350.00" fill="none" stroke="black" stroke-width="2.0" stroke-linecap="round"/>
    <path d="M 679.98 270.00 C 679.51 271.44, 679.66 273.00, 679.05 274.41 C 678.60 275.92, 678.00 277.36, 677.02 278.62 C 675.75 279.55, 674.39 280.34, 672.94 280.97 C 671.51 281.66, 669.99 281.96, 668.40 281.95 C 666.84 281.82, 665.55 280.79, 664.01 280.60 C 662.67 279.87, 661.33 279.13, 659.98 278.42 C 659.16 277.09, 658.10 275.93, 657.26 274.61 C 657.27 273.07, 656.79 271.56, 656.96 270.00 C 657.19 268.51, 657.71 267.05, 657.54 265.50 C 658.51 264.30, 659.16 262.89, 660.01 261.61 C 661.15 260.53, 662.61 259.88, 663.77 258.83 C 665.29 258.40, 666.84 258.31, 668.40 258.53 C 669.93 258.82, 671.49 258.70, 673.03 258.82 C 674.21 259.92, 675.57 260.72, 677.04 261.36 C 678.07 262.59, 678.59 264.18, 679.80 265.28 C 679.46 266.87, 680.17 268.42, 679.98 270.00" fill="none" stroke="black" stroke-width="2.0" stroke-linecap="round"/>
    <path d="M 654.40 260.00 C 663.73 260.11, 673.07 259.55, 682.40 260.00 C 680.65 257.54, 679.58 254.75, 678.40 252.00 C 671.73 252.23, 665.07 252.70, 658.40 252.00 C 657.19 254.73, 655.86 257.39, 654.40 260.00" fill="black" stroke="black" stroke-width="2.0" stroke-linecap="round" stroke-linejoin="round"/>
    <path d="M 680.44 252.00 C 680.22 252.22, 680.61 252.58, 680.27 252.78 C 680.23 253.10, 680.48 253.46, 680.14 253.74 C 679.81 253.80, 679.52 253.95, 679.33 254.24 C 679.20 253.77, 678.91 253.49, 678.40 253.45 C 678.09 253.54, 678.05 254.08, 677.59 253.94 C 677.70 253.52, 677.56 253.28, 677.09 253.31 C 677.12 252.89, 676.74 252.92, 676.51 252.78 C 676.62 252.52, 677.05 252.40, 676.85 252.00 C 677.21 251.81, 676.98 251.58, 676.88 251.37 C 676.87 251.02, 677.43 251.38, 677.37 250.97 C 677.72 250.78, 677.56 250.43, 677.63 250.15 C 677.76 249.77, 678.22 250.06, 678.40 249.78 C 678.90 249.75, 678.68 250.37, 679.03 250.48 C 679.28 250.54, 679.32 250.79, 679.45 250.95 C 679.86 251.00, 680.31 250.65, 680.69 251.05 C 680.45 251.33, 680.18 251.59, 680.44 252.00" fill="black" stroke="black" stroke-width="2.0" stroke-linecap="round"/>
    <path d="M 668.40 282.00 C 668.68 296.00, 668.21 310.00, 668.40 324.00" fill="none" stroke="black" stroke-width="2.0" stroke-linecap="round"/>
    <path d="M 668.40 292.00 C 658.99 291.18, 649.63 290.09, 640.40 288.00" fill="none" stroke="black" stroke-width="2.0" stroke-linecap="round"/>
    <path d="M 668.40 292.00 C 673.31 298.37, 678.89 304.15, 684.40 310.00" fill="none" stroke="black" stroke-width="2.0" stroke-linecap="round"/>
    <path d="M 668.40 324.00 C 663.61 332.30, 660.89 341.56, 656.40 350.00" fill="none" stroke="black" stroke-width="2.0" stroke-linecap="round"/>
    <path d="M 668.40 324.00 C 672.04 332.83, 676.74 341.17, 680.40 350.00" fill="none" stroke="black" stroke-width="2.0" stroke-linecap="round"/>
    <path d="M 430.00 60.00 C 480.00 60.08, 530.00 60.41, 580.00 60.00 C 583.28 63.39, 586.81 66.52, 590.00 70.00 C 589.42 92.00, 589.97 114.00, 590.00 136.00 C 586.80 139.47, 583.31 142.64, 580.00 146.00 C 530.00 145.96, 480.00 145.49, 430.00 146.00 C 426.35 142.98, 423.12 139.54, 420.00 136.00 C 419.56 114.00, 419.43 92.00, 420.00 70.00 C 423.32 66.65, 426.23 62.90, 430.00 60.00" fill="#e3d3a2" stroke="black" stroke-width="2.0" stroke-linecap="round" stroke-linejoin="round"/>
    <path d="M 532.60 146.00 C 535.15 188.65, 536.54 231.37, 539.60 274.00 C 541.58 231.31, 544.90 188.70, 546.60 146.00" fill="#e3d3a2" stroke="black" stroke-width="2.0" stroke-linecap="round" stroke-linejoin="round"/>
    <line x1="533.6" y1="146" x2="545.6" y2="146" stroke="#e3d3a2" stroke-width="2.4"/>
    <text x="505.0" y="78.0" text-anchor="middle" font-family="Comic Neue, Comic Sans MS, cursive" font-size="13" fill="black"><tspan x="505.0" dy="0">I mean the story is</tspan><tspan x="505.0" dy="16">undone? was that the</tspan><tspan x="505.0" dy="16">tag? also she drops</tspan><tspan x="505.0" dy="16">whateva our soulz…</tspan></text>
  </g>
</svg>
