<?xml version="1.0" encoding="UTF-8"?>
<svg xmlns="http://www.w3.org/2000/svg" viewBox="0 0 640 398" width="640" height="398" role="img" aria-label="#037 — Wuthering Heights (2026)">
  <rect width="100%" height="100%" fill="white"/>
  <text x="320.0" y="32" text-anchor="middle" font-family="Comic Neue, Comic Sans MS, cursive" font-size="15" font-weight="700" fill="black">#037 — Wuthering Heights (2026) ★★★</text>
    <g class="panel">
    <rect x="14" y="44" width="300" height="340" fill="white" stroke="black" stroke-width="2"/>
    <rect x="29" y="58" width="270" height="102" rx="12" ry="12" fill="white" stroke="black" stroke-width="1.6"/>
    <polygon points="156.0,159 172.0,159 140.99212010509004,240" fill="white" stroke="black" stroke-width="1.6"/>
    <line x1="157.0" y1="160" x2="171.0" y2="160" stroke="white" stroke-width="2.2"/>
    <text x="164.0" y="76" text-anchor="middle" font-family="Comic Neue, Comic Sans MS, cursive" font-size="13" fill="black"><tspan x="164.0" dy="0">come undone! tf! edit:</tspan><tspan x="164.0" dy="16">what a f ass movie</tspan><tspan x="164.0" dy="16">come undone? well</tspan><tspan x="164.0" dy="16">duhhh till the</tspan><tspan x="164.0" dy="16">intermission I had</tspan></text>
    <circle cx="140.99212010509004" cy="254" r="14" fill="none" stroke="black" stroke-width="2.2"/>
    <line x1="140.99212010509004" y1="268" x2="140.99212010509004" y2="308" stroke="black" stroke-width="2.2"/>
    <line x1="140.99212010509004" y1="278" x2="118.99212010509004" y2="264" stroke="black" stroke-width="2.2"/>
    <line x1="118.99212010509004" y1="264" x2="114.99212010509004" y2="282" stroke="black" stroke-width="2.2"/>
    <line x1="140.99212010509004" y1="278" x2="162.99212010509004" y2="264" stroke="black" stroke-width="2.2"/>
    <line x1="162.99212010509004" y1="264" x2="166.99212010509004" y2="282" stroke="black" stroke-width="2.2"/>
    <line x1="140.99212010509004" y1="308" x2="126.99212010509004" y2="336" stroke="black" stroke-width="2.2"/>
    <line x1="140.99212010509004" y1="308" x2="154.99212010509004" y2="336" stroke="black" stroke-width="2.2"/>
    <line x1="34" y1="350" x2="294" y2="350" stroke="black" stroke-width="1.5"/>
</g>
  <g class="panel">
    <rect x="326" y="44" width="300" height="340" fill="white" stroke="black" stroke-width="2"/>
    <rect x="341" y="58" width="270" height="102" rx="12" ry="12" fill="white" stroke="black" stroke-width="1.6"/>
    <polygon points="468.0,159 484.0,159 472.08808565985197,240" fill="white" stroke="black" stroke-width="1.6"/>
    <line x1="469.0" y1="160" x2="483.0" y2="160" stroke="white" stroke-width="2.2"/>
    <text x="476.0" y="76" text-anchor="middle" font-family="Comic Neue, Comic Sans MS, cursive" font-size="13" fill="black"><tspan x="476.0" dy="0">I mean the story is</tspan><tspan x="476.0" dy="16">undone? was that the</tspan><tspan x="476.0" dy="16">tag? also she drops</tspan><tspan x="476.0" dy="16">whateva our soulz are</tspan><tspan x="476.0" dy="16">made off he&#x27;s and mine</tspan></text>
    <circle cx="472.08808565985197" cy="254" r="14" fill="none" stroke="black" stroke-width="2.2"/>
    <line x1="472.08808565985197" y1="268" x2="472.08808565985197" y2="308" stroke="black" stroke-width="2.2"/>
    <line x1="472.08808565985197" y1="280" x2="498.08808565985197" y2="276" stroke="black" stroke-width="2.2"/>
    <line x1="472.08808565985197" y1="280" x2="456.08808565985197" y2="298" stroke="black" stroke-width="2.2"/>
    <line x1="472.08808565985197" y1="308" x2="458.08808565985197" y2="336" stroke="black" stroke-width="2.2"/>
    <line x1="472.08808565985197" y1="308" x2="486.08808565985197" y2="336" stroke="black" stroke-width="2.2"/>
    <line x1="346" y1="350" x2="606" y2="350" stroke="black" stroke-width="1.5"/>
</g>
</svg>
