<?xml version="1.0" encoding="UTF-8"?>
<svg xmlns="http://www.w3.org/2000/svg" viewBox="0 0 328 398" width="328" height="398" role="img" aria-label="#038 — Weapons (2025)">
  <rect width="100%" height="100%" fill="white"/>
  <text x="164.0" y="32" text-anchor="middle" font-family="Comic Neue, Comic Sans MS, cursive" font-size="15" font-weight="700" fill="black">#038 — Weapons (2025) ★★★½</text>
    <g class="panel">
    <rect x="14" y="44" width="300" height="340" fill="white" stroke="black" stroke-width="2"/>
    <rect x="29" y="58" width="270" height="38" rx="12" ry="12" fill="white" stroke="black" stroke-width="1.6"/>
    <polygon points="156.0,95 172.0,95 155.93384437328194,240" fill="white" stroke="black" stroke-width="1.6"/>
    <line x1="157.0" y1="96" x2="171.0" y2="96" stroke="white" stroke-width="2.2"/>
    <text x="164.0" y="76" text-anchor="middle" font-family="Comic Neue, Comic Sans MS, cursive" font-size="13" fill="black"><tspan x="164.0" dy="0">ahhhhhoowhhhh</tspan></text>
    <circle cx="155.93384437328194" cy="254" r="14" fill="none" stroke="black" stroke-width="2.2"/>
    <line x1="155.93384437328194" y1="268" x2="155.93384437328194" y2="308" stroke="black" stroke-width="2.2"/>
    <line x1="155.93384437328194" y1="280" x2="137.93384437328194" y2="298" stroke="black" stroke-width="2.2"/>
    <line x1="155.93384437328194" y1="280" x2="163.93384437328194" y2="262" stroke="black" stroke-width="2.2"/>
    <line x1="163.93384437328194" y1="262" x2="159.93384437328194" y2="250" stroke="black" stroke-width="2.2"/>
    <line x1="155.93384437328194" y1="308" x2="141.93384437328194" y2="336" stroke="black" stroke-width="2.2"/>
    <line x1="155.93384437328194" y1="308" x2="169.93384437328194" y2="336" stroke="black" stroke-width="2.2"/>
    <line x1="34" y1="350" x2="294" y2="350" stroke="black" stroke-width="1.5"/>
</g>
</svg>
