<?xml version="1.0" encoding="UTF-8"?>
<svg xmlns="http://www.w3.org/2000/svg" viewBox="0 0 412 402" width="412" height="402" role="img" aria-label="#039 — Bugonia (2025)">
  <rect width="100%" height="100%" fill="white"/>
  <text x="206.0" y="34" text-anchor="middle" font-family="Comic Neue, Comic Sans MS, cursive" font-size="16" font-weight="700" fill="black">#039 — Bugonia (2025) ★★★★</text>
  <g class="panel">
    <path d="M 16.00 46.00 C 142.67 45.88, 269.33 46.63, 396.00 46.00 C 395.84 159.33, 395.88 272.67, 396.00 386.00 C 269.33 386.00, 142.67 385.57, 16.00 386.00 C 15.20 272.67, 16.66 159.33, 16.00 46.00" fill="none" stroke="black" stroke-width="2.0" stroke-linecap="round" stroke-linejoin="round"/>
    <path d="M 26.00 356.00 C 146.00 355.07, 266.00 356.00, 386.00 356.00" fill="none" stroke="black" stroke-width="1.4" stroke-linecap="round"/>
    <path d="M 30.00 280.00 C 56.67 279.21, 83.33 280.61, 110.00 280.00 C 110.06 298.67, 110.76 317.33, 110.00 336.00 C 83.33 336.11, 56.67 336.56, 30.00 336.00 C 30.08 317.33, 30.66 298.67, 30.00 280.00" fill="none" stroke="black" stroke-width="2.0" stroke-linecap="round" stroke-linejoin="round"/>
    <path d="M 36.00 286.00 C 58.67 285.47, 81.33 286.02, 104.00 286.00 C 104.29 300.67, 103.31 315.33, 104.00 330.00 C 81.33 329.25, 58.67 330.48, 36.00 330.00 C 36.63 315.33, 35.49 300.67, 36.00 286.00" fill="none" stroke="black" stroke-width="2.0" stroke-linecap="round" stroke-linejoin="round"/>
    <path d="M 56.00 336.00 C 65.33 335.52, 74.67 335.65, 84.00 336.00" fill="none" stroke="black" stroke-width="1.4" stroke-linecap="round"/>
    <path d="M 70.00 336.00 C 69.30 338.67, 70.27 341.33, 70.00 344.00" fill="none" stroke="black" stroke-width="1.4" stroke-linecap="round"/>
    <path d="M 56.00 346.00 C 65.33 345.10, 74.67 345.23, 84.00 346.00" fill="none" stroke="black" stroke-width="1.4" stroke-linecap="round"/>
    <path d="M 42.00 322.00 C 45.70 313.47, 48.89 304.75, 52.00 296.00 C 57.18 305.08, 61.71 314.48, 66.00 324.00 C 71.14 315.59, 75.58 306.80, 80.00 298.00 C 85.94 304.89, 90.48 312.80, 96.00 320.00" fill="none" stroke="black" stroke-width="2.0" stroke-linecap="round" stroke-linejoin="round"/>
    <path d="M 110.00 300.00 C 160.67 300.46, 211.33 300.21, 262.00 300.00 C 261.47 310.00, 261.33 320.00, 262.00 330.00 C 211.33 330.56, 160.67 330.30, 110.00 330.00 C 109.97 320.00, 110.53 310.00, 110.00 300.00" fill="none" stroke="black" stroke-width="2.0" stroke-linecap="round" stroke-linejoin="round"/>
    <path d="M 110.00 330.00 C 160.67 329.78, 211.33 330.07, 262.00 330.00 C 261.86 342.00, 261.73 354.00, 262.00 366.00 C 211.33 366.37, 160.67 366.13, 110.00 366.00 C 110.28 354.00, 110.35 342.00, 110.00 330.00" fill="none" stroke="black" stroke-width="2.0" stroke-linecap="round" stroke-linejoin="round"/>
    <path d="M 102.00 312.00 C 104.67 312.23, 107.33 311.40, 110.00 312.00 C 109.33 330.00, 110.00 348.00, 110.00 366.00 C 107.33 366.48, 104.67 365.67, 102.00 366.00 C 101.40 348.00, 102.36 330.00, 102.00 312.00" fill="none" stroke="black" stroke-width="2.0" stroke-linecap="round" stroke-linejoin="round"/>
    <path d="M 262.00 312.00 C 264.67 311.97, 267.33 311.56, 270.00 312.00 C 269.91 330.00, 269.55 348.00, 270.00 366.00 C 267.33 365.52, 264.67 366.53, 262.00 366.00 C 261.79 348.00, 262.22 330.00, 262.00 312.00" fill="none" stroke="black" stroke-width="2.0" stroke-linecap="round" stroke-linejoin="round"/>
    <path d="M 186.00 330.00 C 186.02 342.00, 186.64 354.00, 186.00 366.00" fill="none" stroke="black" stroke-width="1.4" stroke-linecap="round"/>
    <path d="M 158.41 300.00 C 157.75 301.51, 157.70 303.14, 157.40 304.72 C 156.83 306.27, 155.54 307.35, 154.78 308.78 C 153.57 309.87, 152.20 310.73, 150.72 311.38 C 149.16 311.68, 147.54 311.44, 146.00 311.88 C 144.40 311.84, 142.84 311.41, 141.24 311.50 C 140.18 310.29, 138.70 309.57, 137.64 308.36 C 136.97 306.95, 135.99 305.76, 135.05 304.53 C 135.14 302.97, 134.91 301.46, 134.33 300.00 C 134.93 298.58, 134.94 297.04, 135.28 295.56 C 136.22 294.33, 136.88 292.95, 137.58 291.58 C 138.76 290.54, 140.37 290.32, 141.61 289.41 C 143.04 288.76, 144.54 288.28, 146.00 287.72 C 147.58 288.14, 149.20 288.27, 150.82 288.37 C 151.88 289.61, 153.42 290.29, 154.51 291.49 C 155.53 292.69, 156.36 294.01, 157.02 295.43 C 157.16 297.05, 157.82 298.52, 158.41 300.00" fill="none" stroke="black" stroke-width="2.0" stroke-linecap="round"/>
    <path d="M 146.00 312.00 C 146.47 321.33, 145.20 330.67, 146.00 340.00" fill="none" stroke="black" stroke-width="2.0" stroke-linecap="round"/>
    <path d="M 146.00 326.00 C 140.57 329.87, 135.91 334.77, 130.00 338.00" fill="none" stroke="black" stroke-width="2.0" stroke-linecap="round"/>
    <path d="M 146.00 326.00 C 151.91 329.23, 156.47 334.26, 162.00 338.00" fill="none" stroke="black" stroke-width="2.0" stroke-linecap="round"/>
    <path d="M 146.00 340.00 C 154.00 340.33, 162.00 339.42, 170.00 340.00" fill="none" stroke="black" stroke-width="2.0" stroke-linecap="round"/>
    <path d="M 170.00 340.00 C 170.51 346.02, 171.18 352.02, 172.00 358.00" fill="none" stroke="black" stroke-width="2.0" stroke-linecap="round"/>
    <path d="M 146.00 340.00 C 143.86 346.23, 140.06 351.73, 138.00 358.00" fill="none" stroke="black" stroke-width="2.0" stroke-linecap="round"/>
    <path d="M 237.87 300.00 C 237.25 301.45, 237.31 303.04, 236.97 304.54 C 236.34 306.01, 235.27 307.25, 234.79 308.79 C 233.50 309.76, 232.16 310.65, 230.70 311.35 C 229.07 311.48, 227.55 312.01, 226.00 312.48 C 224.55 311.74, 222.85 311.85, 221.40 311.10 C 220.08 310.26, 218.95 309.15, 217.51 308.49 C 216.49 307.29, 216.01 305.80, 215.30 304.43 C 214.88 302.97, 214.49 301.50, 214.24 300.00 C 214.51 298.44, 214.15 296.83, 214.60 295.28 C 215.60 294.01, 216.41 292.62, 217.24 291.24 C 218.54 290.30, 220.16 289.94, 221.41 288.91 C 222.92 288.47, 224.54 288.47, 226.00 287.79 C 227.51 288.29, 229.18 288.08, 230.65 288.76 C 231.87 289.73, 232.83 291.01, 234.21 291.79 C 235.21 293.05, 236.61 293.93, 237.60 295.19 C 237.84 296.79, 238.11 298.38, 237.87 300.00" fill="none" stroke="black" stroke-width="2.0" stroke-linecap="round"/>
    <path d="M 212.00 290.00 C 221.33 289.64, 230.67 289.43, 240.00 290.00 C 238.72 287.30, 237.50 284.58, 236.00 282.00 C 229.33 282.66, 222.67 282.38, 216.00 282.00 C 213.96 284.31, 212.83 287.08, 212.00 290.00" fill="black" stroke="black" stroke-width="2.0" stroke-linecap="round" stroke-linejoin="round"/>
    <path d="M 238.21 282.00 C 237.83 282.06, 237.54 282.20, 237.56 282.65 C 237.72 282.94, 237.69 283.20, 237.41 283.41 C 237.20 283.67, 237.32 284.11, 236.94 284.28 C 236.46 284.19, 236.46 283.56, 236.00 283.44 C 235.84 283.82, 235.55 283.31, 235.37 283.52 C 235.37 283.26, 235.20 283.12, 234.99 283.01 C 234.92 282.69, 234.63 282.73, 234.41 282.66 C 234.64 282.36, 234.18 282.25, 234.22 282.00 C 234.26 281.75, 234.24 281.50, 234.20 281.25 C 234.53 281.29, 234.60 280.95, 234.81 280.81 C 234.76 280.41, 235.17 280.11, 235.04 279.69 C 235.36 279.69, 235.68 279.78, 236.00 279.68 C 236.26 279.82, 236.67 279.61, 236.82 280.01 C 237.24 280.25, 236.75 280.70, 237.04 280.96 C 237.48 280.72, 237.91 280.94, 238.33 281.03 C 238.16 281.34, 238.33 281.69, 238.21 282.00" fill="black" stroke="black" stroke-width="2.0" stroke-linecap="round"/>
    <path d="M 226.00 312.00 C 225.38 321.33, 226.21 330.67, 226.00 340.00" fill="none" stroke="black" stroke-width="2.0" stroke-linecap="round"/>
    <path d="M 226.00 326.00 C 220.94 330.37, 215.86 334.70, 210.00 338.00" fill="none" stroke="black" stroke-width="2.0" stroke-linecap="round"/>
    <path d="M 226.00 326.00 C 230.96 330.50, 236.52 334.20, 242.00 338.00" fill="none" stroke="black" stroke-width="2.0" stroke-linecap="round"/>
    <path d="M 226.00 340.00 C 234.00 339.00, 242.00 340.30, 250.00 340.00" fill="none" stroke="black" stroke-width="2.0" stroke-linecap="round"/>
    <path d="M 250.00 340.00 C 250.16 346.06, 251.50 351.98, 252.00 358.00" fill="none" stroke="black" stroke-width="2.0" stroke-linecap="round"/>
    <path d="M 226.00 340.00 C 222.67 345.71, 221.20 352.24, 218.00 358.00" fill="none" stroke="black" stroke-width="2.0" stroke-linecap="round"/>
    <path d="M 36.00 60.00 C 86.00 59.75, 136.00 60.59, 186.00 60.00 C 189.68 62.98, 192.19 67.15, 196.00 70.00 C 195.74 86.67, 195.51 103.33, 196.00 120.00 C 192.72 123.39, 188.91 126.24, 186.00 130.00 C 136.00 130.15, 86.00 129.27, 36.00 130.00 C 32.11 127.22, 29.66 123.01, 26.00 120.00 C 26.06 103.33, 26.48 86.67, 26.00 70.00 C 29.11 66.44, 32.48 63.14, 36.00 60.00" fill="white" stroke="black" stroke-width="2.0" stroke-linecap="round" stroke-linejoin="round"/>
    <path d="M 131.00 130.00 C 133.72 187.98, 135.78 246.00, 138.00 304.00 C 140.90 246.02, 143.04 188.01, 145.00 130.00" fill="white" stroke="black" stroke-width="2.0" stroke-linecap="round" stroke-linejoin="round"/>
    <line x1="132.0" y1="130" x2="144.0" y2="130" stroke="white" stroke-width="2.4"/>
    <text x="111.0" y="78.0" text-anchor="middle" font-family="Comic Neue, Comic Sans MS, cursive" font-size="13" fill="black"><tspan x="111.0" dy="0">it was great until the</tspan><tspan x="111.0" dy="16">end🙏 weird but</tspan><tspan x="111.0" dy="16">rewarding</tspan></text>
  </g>
</svg>
