<?xml version="1.0" encoding="UTF-8"?>
<svg xmlns="http://www.w3.org/2000/svg" viewBox="0 0 412 402" width="412" height="402" role="img" aria-label="#040 — The Bride! (2026)">
  <defs><filter id="grain" x="0%" y="0%" width="100%" height="100%"><feTurbulence type="fractalNoise" baseFrequency="0.85" numOctaves="2" stitchTiles="stitch" seed="5"/><feColorMatrix values="0 0 0 0 0.32  0 0 0 0 0.22  0 0 0 0 0.13  0 0 0 -1.4 0.55"/></filter></defs>
  <rect width="100%" height="100%" fill="#f1e7cc"/>
  <rect width="100%" height="100%" filter="url(#grain)" opacity="0.75"/>
  <text x="206.0" y="34" text-anchor="middle" font-family="Comic Neue, Comic Sans MS, cursive" font-size="16" font-weight="700" fill="black">#040 — The Bride! (2026) ★★★★</text>
  <g class="panel">
    <path d="M 16.00 46.00 C 142.67 46.30, 269.33 45.39, 396.00 46.00 C 395.87 159.33, 396.74 272.67, 396.00 386.00 C 269.33 385.56, 142.67 386.59, 16.00 386.00 C 15.43 272.67, 15.59 159.33, 16.00 46.00" fill="none" stroke="black" stroke-width="2.0" stroke-linecap="round" stroke-linejoin="round"/>
    <path d="M 46.00 82.00 C 152.67 82.18, 259.33 81.96, 366.00 82.00 C 366.48 108.67, 366.53 135.33, 366.00 162.00 C 259.33 162.54, 152.67 161.62, 46.00 162.00 C 45.56 135.33, 46.27 108.67, 46.00 82.00" fill="#111" stroke="black" stroke-width="2.0" stroke-linecap="round" stroke-linejoin="round"/>
    <path d="M 50.00 86.00 C 154.00 85.80, 258.00 86.47, 362.00 86.00 C 362.64 110.00, 362.00 134.00, 362.00 158.00 C 258.00 158.19, 154.00 157.46, 50.00 158.00 C 49.66 134.00, 50.71 110.00, 50.00 86.00" fill="none" stroke="black" stroke-width="2.0" stroke-linecap="round" stroke-linejoin="round"/>
    <path d="M 66.00 362.00 C 112.67 362.77, 159.33 362.17, 206.00 362.00 C 205.20 351.93, 203.11 342.03, 202.00 332.00 C 198.82 325.54, 196.83 318.60, 194.00 312.00 C 155.33 312.52, 116.67 311.74, 78.00 312.00 C 75.39 318.69, 72.00 325.07, 70.00 332.00 C 68.24 341.94, 67.44 352.01, 66.00 362.00" fill="#222" stroke="black" stroke-width="2.0" stroke-linecap="round" stroke-linejoin="round"/>
    <path d="M 216.00 362.00 C 262.67 361.98, 309.33 362.40, 356.00 362.00 C 355.23 351.93, 353.96 341.92, 352.00 332.00 C 348.80 325.55, 347.30 318.41, 344.00 312.00 C 305.33 312.60, 266.67 312.70, 228.00 312.00 C 224.63 318.39, 222.37 325.21, 220.00 332.00 C 218.92 342.03, 217.13 351.97, 216.00 362.00" fill="#222" stroke="black" stroke-width="2.0" stroke-linecap="round" stroke-linejoin="round"/>
    <path d="M 149.59 332.00 C 148.88 333.41, 148.74 334.97, 148.43 336.48 C 147.63 337.83, 147.27 339.41, 146.22 340.62 C 145.06 341.73, 143.73 342.59, 142.25 343.23 C 140.72 343.62, 139.19 343.92, 137.60 343.90 C 136.03 343.80, 134.49 343.42, 132.91 343.32 C 131.75 342.24, 130.34 341.49, 129.18 340.42 C 128.09 339.25, 126.84 338.23, 126.12 336.76 C 125.75 335.19, 125.73 333.57, 125.39 332.00 C 125.74 330.45, 125.72 328.83, 126.35 327.34 C 127.46 326.12, 127.85 324.49, 128.76 323.16 C 130.14 322.34, 131.66 321.83, 133.09 321.11 C 134.64 321.18, 136.05 320.35, 137.60 320.38 C 139.10 320.65, 140.67 320.48, 142.13 321.06 C 143.64 321.58, 144.60 322.98, 146.12 323.48 C 147.09 324.71, 147.70 326.17, 148.60 327.44 C 148.88 328.97, 149.17 330.50, 149.59 332.00" fill="none" stroke="black" stroke-width="2.0" stroke-linecap="round"/>
    <path d="M 286.76 332.00 C 286.65 333.62, 286.22 335.17, 285.84 336.74 C 284.60 337.79, 283.99 339.33, 282.88 340.48 C 281.64 341.45, 280.41 342.41, 279.03 343.18 C 277.51 343.61, 275.96 343.69, 274.40 343.55 C 272.80 343.20, 271.20 343.96, 269.60 343.58 C 268.54 342.36, 267.12 341.55, 265.97 340.43 C 264.83 339.33, 264.01 338.01, 263.41 336.55 C 263.23 335.03, 262.74 333.55, 262.85 332.00 C 263.12 330.48, 262.84 328.91, 263.33 327.41 C 264.43 326.19, 265.03 324.70, 265.59 323.19 C 267.16 322.79, 268.58 322.06, 269.90 321.15 C 271.48 321.01, 272.85 320.11, 274.40 319.87 C 275.87 320.36, 277.29 321.00, 278.77 321.46 C 280.21 322.16, 281.65 322.88, 283.25 323.15 C 284.16 324.50, 284.45 326.11, 285.11 327.57 C 285.73 329.02, 286.44 330.43, 286.76 332.00" fill="none" stroke="black" stroke-width="2.0" stroke-linecap="round"/>
    <path d="M 144.13 314.00 C 143.91 314.82, 143.87 315.67, 143.56 316.47 C 142.77 316.81, 142.39 317.64, 141.66 318.06 C 140.86 318.28, 140.49 319.03, 139.87 319.47 C 139.11 319.47, 138.36 319.39, 137.60 319.48 C 136.97 319.06, 136.18 319.32, 135.53 319.01 C 134.81 318.78, 134.06 318.66, 133.50 318.10 C 133.12 317.39, 132.53 316.86, 131.92 316.35 C 131.82 315.49, 131.65 314.66, 131.02 314.00 C 131.25 313.18, 131.54 312.37, 131.59 311.51 C 132.35 311.13, 133.12 310.76, 133.56 309.96 C 134.25 309.67, 134.66 308.94, 135.44 308.78 C 136.23 308.81, 136.84 308.20, 137.60 308.12 C 138.44 308.31, 139.25 307.91, 140.08 308.00 C 140.83 308.52, 141.35 309.18, 141.50 310.10 C 141.98 310.83, 143.03 310.78, 143.46 311.57 C 143.85 312.33, 144.06 313.15, 144.13 314.00" fill="none" stroke="black" stroke-width="2.0" stroke-linecap="round"/>
    <path d="M 126.60 333.00 C 125.35 336.56, 125.34 340.35, 124.60 344.00" fill="none" stroke="black" stroke-width="2.0" stroke-linecap="round"/>
    <path d="M 148.60 333.00 C 148.41 336.82, 149.97 340.33, 150.60 344.00" fill="none" stroke="black" stroke-width="2.0" stroke-linecap="round"/>
    <path d="M 258.40 322.00 C 269.07 322.20, 279.73 322.63, 290.40 322.00 C 288.62 318.85, 288.22 315.14, 286.40 312.00 C 278.40 311.31, 270.40 312.56, 262.40 312.00 C 260.94 315.28, 259.91 318.74, 258.40 322.00" fill="black" stroke="black" stroke-width="2.0" stroke-linecap="round" stroke-linejoin="round"/>
    <path d="M 256.40 322.00 C 268.40 321.88, 280.40 321.12, 292.40 322.00" fill="none" stroke="black" stroke-width="2.0" stroke-linecap="round"/>
    <path d="M 36.00 60.00 C 86.00 60.09, 136.00 60.20, 186.00 60.00 C 188.97 63.70, 192.19 67.14, 196.00 70.00 C 195.63 81.33, 195.84 92.67, 196.00 104.00 C 192.33 106.99, 189.16 110.49, 186.00 114.00 C 136.00 114.74, 86.00 114.64, 36.00 114.00 C 32.93 110.40, 29.53 107.14, 26.00 104.00 C 26.10 92.67, 26.70 81.33, 26.00 70.00 C 29.51 66.84, 32.29 62.95, 36.00 60.00" fill="#f1e7cc" stroke="black" stroke-width="2.0" stroke-linecap="round" stroke-linejoin="round"/>
    <path d="M 138.60 114.00 C 141.56 187.98, 142.52 262.02, 145.60 336.00 C 147.36 261.98, 150.16 188.00, 152.60 114.00" fill="#f1e7cc" stroke="black" stroke-width="2.0" stroke-linecap="round" stroke-linejoin="round"/>
    <line x1="139.60000000000002" y1="114" x2="151.60000000000002" y2="114" stroke="#f1e7cc" stroke-width="2.4"/>
    <text x="111.0" y="78.0" text-anchor="middle" font-family="Comic Neue, Comic Sans MS, cursive" font-size="13" fill="black"><tspan x="111.0" dy="0">plotless but ouu good</tspan><tspan x="111.0" dy="16">one I tell yall</tspan></text>
  </g>
</svg>
