<?xml version="1.0" encoding="UTF-8"?>
<svg xmlns="http://www.w3.org/2000/svg" viewBox="0 0 412 402" width="412" height="402" role="img" aria-label="#041 — Dhurandhar (2025)">
  <rect width="100%" height="100%" fill="white"/>
  <text x="206.0" y="34" text-anchor="middle" font-family="Comic Neue, Comic Sans MS, cursive" font-size="16" font-weight="700" fill="black">#041 — Dhurandhar (2025) ★★★★½</text>
  <g class="panel">
    <path d="M 16.00 46.00 C 142.67 46.21, 269.33 45.68, 396.00 46.00 C 395.53 159.33, 395.61 272.67, 396.00 386.00 C 269.33 386.28, 142.67 385.72, 16.00 386.00 C 15.86 272.67, 16.40 159.33, 16.00 46.00" fill="none" stroke="black" stroke-width="2.0" stroke-linecap="round" stroke-linejoin="round"/>
    <path d="M 46.00 82.00 C 152.67 82.20, 259.33 81.32, 366.00 82.00 C 366.06 108.67, 365.48 135.33, 366.00 162.00 C 259.33 162.47, 152.67 161.39, 46.00 162.00 C 46.71 135.33, 45.38 108.67, 46.00 82.00" fill="#111" stroke="black" stroke-width="2.0" stroke-linecap="round" stroke-linejoin="round"/>
    <path d="M 50.00 86.00 C 154.00 86.77, 258.00 85.62, 362.00 86.00 C 361.93 110.00, 362.58 134.00, 362.00 158.00 C 258.00 158.46, 154.00 158.55, 50.00 158.00 C 50.04 134.00, 49.23 110.00, 50.00 86.00" fill="none" stroke="black" stroke-width="2.0" stroke-linecap="round" stroke-linejoin="round"/>
    <path d="M 66.00 362.00 C 112.67 361.57, 159.33 361.84, 206.00 362.00 C 204.78 351.99, 203.82 341.93, 202.00 332.00 C 199.92 325.10, 195.93 318.96, 194.00 312.00 C 155.33 311.95, 116.67 311.70, 78.00 312.00 C 75.17 318.60, 72.99 325.46, 70.00 332.00 C 69.30 342.08, 66.85 351.94, 66.00 362.00" fill="#222" stroke="black" stroke-width="2.0" stroke-linecap="round" stroke-linejoin="round"/>
    <path d="M 216.00 362.00 C 262.67 361.87, 309.33 362.14, 356.00 362.00 C 354.38 352.04, 353.66 341.96, 352.00 332.00 C 348.77 325.56, 347.16 318.47, 344.00 312.00 C 305.33 311.73, 266.67 312.36, 228.00 312.00 C 224.85 318.47, 222.32 325.19, 220.00 332.00 C 218.72 342.01, 216.94 351.95, 216.00 362.00" fill="#222" stroke="black" stroke-width="2.0" stroke-linecap="round" stroke-linejoin="round"/>
    <path d="M 149.31 332.00 C 148.84 333.44, 148.93 335.02, 148.20 336.39 C 147.64 337.81, 146.70 338.99, 145.77 340.17 C 144.42 340.98, 143.36 342.13, 142.25 343.22 C 140.72 343.63, 139.16 343.87, 137.60 344.13 C 136.10 343.67, 134.49 343.67, 133.01 343.07 C 131.98 341.92, 130.57 341.21, 129.53 340.07 C 128.55 338.88, 127.51 337.73, 126.44 336.62 C 125.83 335.13, 125.28 333.63, 125.16 332.00 C 125.88 330.56, 126.39 329.05, 126.65 327.47 C 127.74 326.36, 128.53 325.04, 129.31 323.71 C 130.73 323.07, 131.97 322.16, 133.07 321.07 C 134.56 320.45, 136.09 319.96, 137.60 319.40 C 139.17 319.80, 140.75 320.15, 142.15 321.01 C 143.33 322.13, 144.87 322.60, 146.26 323.34 C 147.39 324.50, 147.87 326.11, 148.96 327.29 C 149.13 328.86, 148.83 330.46, 149.31 332.00" fill="none" stroke="black" stroke-width="2.0" stroke-linecap="round"/>
    <path d="M 286.87 332.00 C 286.22 333.46, 285.80 335.00, 285.19 336.47 C 284.79 338.02, 283.82 339.27, 283.00 340.60 C 281.48 341.14, 280.18 342.02, 278.99 343.09 C 277.47 343.39, 275.90 343.47, 274.40 343.92 C 273.01 343.19, 271.33 343.53, 269.95 342.75 C 268.83 341.70, 267.24 341.36, 266.18 340.22 C 264.96 339.17, 264.06 337.80, 262.78 336.81 C 262.78 335.20, 262.96 333.58, 262.48 332.00 C 262.67 330.45, 262.65 328.86, 263.24 327.38 C 263.78 325.85, 265.16 324.83, 265.69 323.29 C 267.24 322.78, 268.49 321.76, 269.76 320.80 C 271.29 320.45, 272.87 320.70, 274.40 320.36 C 275.95 320.66, 277.54 320.33, 279.09 320.68 C 280.42 321.60, 281.82 322.40, 283.27 323.13 C 284.36 324.36, 284.88 325.93, 285.73 327.31 C 285.95 328.91, 286.83 330.35, 286.87 332.00" fill="none" stroke="black" stroke-width="2.0" stroke-linecap="round"/>
    <path d="M 123.60 322.00 C 132.93 322.16, 142.27 321.72, 151.60 322.00 C 150.01 319.46, 148.93 316.67, 147.60 314.00 C 140.93 314.35, 134.27 314.04, 127.60 314.00 C 126.02 316.55, 125.19 319.46, 123.60 322.00" fill="black" stroke="black" stroke-width="2.0" stroke-linecap="round" stroke-linejoin="round"/>
    <path d="M 149.16 314.00 C 149.53 314.20, 148.96 314.46, 149.21 314.67 C 148.95 314.80, 148.94 315.06, 148.90 315.30 C 148.83 315.58, 148.28 315.41, 148.37 315.85 C 148.34 316.35, 148.01 316.43, 147.60 316.39 C 147.48 316.00, 147.50 315.54, 147.05 315.33 C 146.70 315.51, 146.70 315.17, 146.59 315.01 C 146.50 314.77, 146.03 315.05, 146.07 314.63 C 145.77 314.32, 145.29 314.33, 145.00 314.00 C 145.35 313.80, 145.38 313.44, 145.46 313.11 C 145.46 312.70, 145.74 312.56, 146.08 312.48 C 146.39 312.62, 146.66 312.95, 147.06 312.70 C 147.38 312.53, 147.17 312.00, 147.60 311.90 C 147.90 311.95, 147.87 312.47, 148.28 312.37 C 148.68 312.62, 148.99 312.17, 149.37 312.23 C 148.97 312.54, 149.49 313.06, 149.11 313.38 C 148.79 313.62, 148.97 313.81, 149.16 314.00" fill="black" stroke="black" stroke-width="2.0" stroke-linecap="round"/>
    <path d="M 36.00 60.00 C 86.00 59.72, 136.00 60.51, 186.00 60.00 C 189.71 62.95, 193.07 66.27, 196.00 70.00 C 196.36 76.00, 195.90 82.00, 196.00 88.00 C 192.92 91.59, 189.22 94.55, 186.00 98.00 C 136.00 97.98, 86.00 98.21, 36.00 98.00 C 33.15 94.18, 29.57 91.10, 26.00 88.00 C 26.24 82.00, 25.56 76.00, 26.00 70.00 C 29.19 66.52, 33.18 63.85, 36.00 60.00" fill="white" stroke="black" stroke-width="2.0" stroke-linecap="round" stroke-linejoin="round"/>
    <path d="M 138.60 98.00 C 140.86 177.34, 142.48 256.69, 145.60 336.00 C 147.52 256.65, 150.14 177.33, 152.60 98.00" fill="white" stroke="black" stroke-width="2.0" stroke-linecap="round" stroke-linejoin="round"/>
    <line x1="139.60000000000002" y1="98" x2="151.60000000000002" y2="98" stroke="white" stroke-width="2.4"/>
    <text x="111.0" y="78.0" text-anchor="middle" font-family="Comic Neue, Comic Sans MS, cursive" font-size="13" fill="black"><tspan x="111.0" dy="0">bollyz back bitches</tspan></text>
  </g>
</svg>
