<?xml version="1.0" encoding="UTF-8"?>
<svg xmlns="http://www.w3.org/2000/svg" viewBox="0 0 412 402" width="412" height="402" role="img" aria-label="#042 — Dhurandhar The Revenge (2026)">
  <defs><filter id="fibers" x="0%" y="0%" width="100%" height="100%"><feTurbulence type="fractalNoise" baseFrequency="0.04 0.7" numOctaves="2" stitchTiles="stitch" seed="6"/><feColorMatrix values="0 0 0 0 0.38  0 0 0 0 0.26  0 0 0 0 0.13  0 0 0 -0.7 0.28"/></filter><filter id="grain" x="0%" y="0%" width="100%" height="100%"><feTurbulence type="fractalNoise" baseFrequency="0.65" numOctaves="3" stitchTiles="stitch" seed="7"/><feColorMatrix values="0 0 0 0 0.42  0 0 0 0 0.30  0 0 0 0 0.16  0 0 0 -1.1 0.5"/></filter></defs>
  <rect width="100%" height="100%" fill="#e3d3a2"/>
  <rect width="100%" height="100%" filter="url(#fibers)" opacity="0.55"/>
  <rect width="100%" height="100%" filter="url(#grain)" opacity="0.85"/>
  <text x="206.0" y="34" text-anchor="middle" font-family="Comic Neue, Comic Sans MS, cursive" font-size="16" font-weight="700" fill="black">#042 — Dhurandhar The Revenge (2026) ★★★★★</text>
  <g class="panel">
    <path d="M 16.00 46.00 C 142.67 46.12, 269.33 46.67, 396.00 46.00 C 395.92 159.33, 396.64 272.67, 396.00 386.00 C 269.33 385.93, 142.67 386.24, 16.00 386.00 C 15.58 272.67, 16.46 159.33, 16.00 46.00" fill="none" stroke="black" stroke-width="2.0" stroke-linecap="round" stroke-linejoin="round"/>
    <path d="M 26.00 362.00 C 146.00 362.73, 266.00 362.45, 386.00 362.00" fill="none" stroke="black" stroke-width="1.4" stroke-linecap="round"/>
    <path d="M 179.55 270.00 C 179.62 271.55, 178.60 272.86, 178.63 274.40 C 178.09 275.89, 177.57 277.39, 176.76 278.76 C 175.37 279.54, 173.75 279.74, 172.37 280.55 C 170.84 280.85, 169.53 281.77, 168.00 282.08 C 166.46 281.57, 164.86 281.50, 163.26 281.44 C 161.98 280.48, 160.56 279.71, 159.34 278.66 C 158.48 277.33, 157.94 275.79, 156.77 274.65 C 156.45 273.11, 156.42 271.56, 156.47 270.00 C 156.75 268.45, 156.76 266.89, 156.70 265.32 C 157.61 263.98, 158.52 262.63, 159.11 261.11 C 160.63 260.54, 161.97 259.63, 163.38 258.86 C 164.92 258.45, 166.38 257.72, 168.00 257.63 C 169.49 258.18, 171.05 258.52, 172.57 258.98 C 174.01 259.66, 175.55 260.15, 176.81 261.19 C 177.81 262.46, 178.29 264.06, 179.34 265.30 C 179.56 266.86, 179.80 268.42, 179.55 270.00" fill="none" stroke="black" stroke-width="2.0" stroke-linecap="round"/>
    <path d="M 168.00 282.00 C 167.45 296.00, 167.96 310.00, 168.00 324.00" fill="none" stroke="black" stroke-width="2.0" stroke-linecap="round"/>
    <path d="M 168.00 292.00 C 173.03 287.69, 177.18 282.51, 182.00 278.00" fill="none" stroke="black" stroke-width="2.0" stroke-linecap="round"/>
    <path d="M 182.00 278.00 C 179.49 276.69, 176.53 277.20, 174.00 276.00" fill="none" stroke="black" stroke-width="2.0" stroke-linecap="round"/>
    <path d="M 168.00 292.00 C 163.07 298.36, 156.80 303.53, 152.00 310.00" fill="none" stroke="black" stroke-width="2.0" stroke-linecap="round"/>
    <path d="M 168.00 324.00 C 163.73 332.54, 159.32 341.02, 156.00 350.00" fill="none" stroke="black" stroke-width="2.0" stroke-linecap="round"/>
    <path d="M 168.00 324.00 C 172.58 332.40, 175.57 341.53, 180.00 350.00" fill="none" stroke="black" stroke-width="2.0" stroke-linecap="round"/>
    <path d="M 390.00 95.00 C 385.01 100.73, 379.74 106.18, 373.90 111.05 C 365.92 117.21, 357.93 123.34, 349.34 128.62 C 334.50 130.19, 319.58 130.31, 304.70 131.07 C 289.03 132.32, 273.54 134.96, 257.97 136.92 C 244.92 132.17, 231.76 127.74, 218.40 123.93 C 207.32 119.99, 195.80 117.51, 184.70 113.66 C 182.64 107.56, 180.83 101.40, 180.00 95.00 C 181.49 88.76, 182.95 82.52, 184.70 76.34 C 195.71 72.20, 207.05 69.11, 218.40 66.07 C 231.38 61.09, 244.89 57.74, 257.97 53.08 C 273.52 55.23, 289.21 56.23, 304.70 58.93 C 319.57 59.92, 334.42 61.23, 349.34 61.38 C 357.16 67.74, 366.13 72.51, 373.90 78.95 C 378.73 84.83, 384.23 90.05, 390.00 95.00" fill="#e3d3a2" stroke="black" stroke-width="2.0" stroke-linecap="round" stroke-linejoin="round"/>
    <path d="M 228.23 187.20 C 228.01 187.71, 228.56 188.16, 228.35 188.67 C 228.18 189.16, 228.01 189.65, 227.56 189.96 C 227.21 190.40, 226.94 190.92, 226.49 191.29 C 225.85 191.56, 225.41 190.83, 224.80 190.95 C 224.26 191.15, 223.65 190.98, 223.12 191.24 C 222.89 190.66, 222.36 190.41, 221.85 190.15 C 221.40 189.69, 221.91 189.03, 221.53 188.55 C 221.36 188.05, 221.13 187.58, 220.75 187.20 C 221.06 186.71, 220.82 186.13, 220.98 185.62 C 221.56 185.50, 221.76 184.89, 222.22 184.62 C 222.39 184.08, 223.01 183.89, 223.21 183.37 C 223.76 183.34, 224.24 183.71, 224.80 183.64 C 225.33 183.69, 225.88 183.85, 226.36 183.44 C 226.75 183.79, 227.27 183.98, 227.64 184.36 C 227.80 184.85, 228.26 185.27, 228.02 185.87 C 228.35 186.27, 228.53 186.70, 228.23 187.20" fill="#e3d3a2" stroke="black" stroke-width="2.0" stroke-linecap="round"/>
    <path d="M 206.93 208.00 C 207.23 208.45, 206.81 208.75, 206.71 209.12 C 206.71 209.62, 206.25 209.72, 205.96 209.96 C 205.61 210.14, 205.18 210.24, 205.14 210.74 C 204.73 210.87, 204.42 211.19, 204.00 211.30 C 203.65 211.00, 203.25 210.88, 202.80 210.91 C 202.55 210.41, 201.87 210.88, 201.62 210.38 C 201.69 209.92, 201.69 209.48, 201.38 209.09 C 201.12 208.74, 200.86 208.40, 200.68 208.00 C 200.75 207.54, 201.45 207.46, 201.34 206.90 C 201.18 206.41, 201.34 206.03, 201.74 205.74 C 202.21 205.79, 202.50 205.45, 202.85 205.22 C 203.35 205.35, 203.70 205.09, 204.00 204.74 C 204.51 204.65, 204.63 205.34, 205.12 205.29 C 205.63 205.21, 205.76 205.72, 206.09 205.91 C 206.20 206.29, 206.35 206.64, 206.69 206.89 C 207.12 207.18, 206.46 207.71, 206.93 208.00" fill="#e3d3a2" stroke="black" stroke-width="2.0" stroke-linecap="round"/>
    <path d="M 190.44 223.60 C 190.19 223.77, 189.76 223.70, 189.71 224.14 C 189.75 224.37, 189.87 224.62, 189.57 224.77 C 189.16 224.61, 189.14 224.93, 189.06 225.18 C 188.77 225.40, 188.56 225.30, 188.40 225.01 C 188.14 224.76, 188.01 225.28, 187.77 225.13 C 187.39 224.81, 187.14 225.58, 186.76 225.24 C 186.90 224.92, 187.03 224.60, 186.74 224.29 C 186.59 224.08, 186.47 223.86, 186.64 223.60 C 186.81 223.35, 186.63 223.11, 186.63 222.87 C 186.88 222.79, 187.07 222.55, 187.36 222.56 C 187.02 222.14, 187.16 221.78, 187.51 221.45 C 187.74 221.75, 188.29 221.53, 188.40 222.01 C 188.79 222.07, 188.80 221.40, 189.24 221.57 C 189.29 222.04, 189.88 221.64, 189.97 222.03 C 190.27 222.16, 190.53 222.34, 190.63 222.68 C 190.55 222.98, 190.44 223.28, 190.44 223.60" fill="#e3d3a2" stroke="black" stroke-width="2.0" stroke-linecap="round"/>
    <text x="282.0" y="78.0" text-anchor="middle" font-family="Comic Neue, Comic Sans MS, cursive" font-size="13" fill="black"><tspan x="282.0" dy="0">banger i tell you p.s</tspan><tspan x="282.0" dy="16">tamma tamma looge tamma</tspan><tspan x="282.0" dy="16">tamma looge thamma</tspan></text>
    
  </g>
</svg>
