<?xml version="1.0" encoding="UTF-8"?>
<svg xmlns="http://www.w3.org/2000/svg" viewBox="0 0 806 402" width="806" height="402" role="img" aria-label="#044 — Zootopia (2016)">
  <defs><filter id="fibers" x="0%" y="0%" width="100%" height="100%"><feTurbulence type="fractalNoise" baseFrequency="0.04 0.7" numOctaves="2" stitchTiles="stitch" seed="1"/><feColorMatrix values="0 0 0 0 0.38  0 0 0 0 0.26  0 0 0 0 0.13  0 0 0 -0.7 0.28"/></filter><filter id="grain" x="0%" y="0%" width="100%" height="100%"><feTurbulence type="fractalNoise" baseFrequency="0.65" numOctaves="3" stitchTiles="stitch" seed="9"/><feColorMatrix values="0 0 0 0 0.42  0 0 0 0 0.30  0 0 0 0 0.16  0 0 0 -1.1 0.5"/></filter></defs>
  <rect width="100%" height="100%" fill="#e3d3a2"/>
  <rect width="100%" height="100%" filter="url(#fibers)" opacity="0.55"/>
  <rect width="100%" height="100%" filter="url(#grain)" opacity="0.85"/>
  <text x="403.0" y="34" text-anchor="middle" font-family="Comic Neue, Comic Sans MS, cursive" font-size="16" font-weight="700" fill="black">#044 — Zootopia (2016) ★★★★</text>
  <g class="panel">
    <path d="M 16.00 46.00 C 142.67 45.76, 269.33 46.77, 396.00 46.00 C 396.28 159.33, 396.45 272.67, 396.00 386.00 C 269.33 385.83, 142.67 386.33, 16.00 386.00 C 16.09 272.67, 15.21 159.33, 16.00 46.00" fill="none" stroke="black" stroke-width="2.0" stroke-linecap="round" stroke-linejoin="round"/>
    <path d="M 26.00 356.00 C 146.00 356.19, 266.00 355.21, 386.00 356.00" fill="none" stroke="black" stroke-width="1.4" stroke-linecap="round"/>
    <path d="M 30.00 280.00 C 56.67 279.28, 83.33 280.11, 110.00 280.00 C 109.55 298.67, 110.63 317.33, 110.00 336.00 C 83.33 335.92, 56.67 335.38, 30.00 336.00 C 29.68 317.33, 29.50 298.67, 30.00 280.00" fill="none" stroke="black" stroke-width="2.0" stroke-linecap="round" stroke-linejoin="round"/>
    <path d="M 36.00 286.00 C 58.67 286.32, 81.33 286.21, 104.00 286.00 C 103.73 300.67, 103.54 315.33, 104.00 330.00 C 81.33 330.41, 58.67 329.40, 36.00 330.00 C 36.60 315.33, 35.46 300.67, 36.00 286.00" fill="none" stroke="black" stroke-width="2.0" stroke-linecap="round" stroke-linejoin="round"/>
    <path d="M 56.00 336.00 C 65.33 335.96, 74.67 336.47, 84.00 336.00" fill="none" stroke="black" stroke-width="1.4" stroke-linecap="round"/>
    <path d="M 70.00 336.00 C 69.11 338.67, 70.13 341.33, 70.00 344.00" fill="none" stroke="black" stroke-width="1.4" stroke-linecap="round"/>
    <path d="M 56.00 346.00 C 65.33 345.59, 74.67 346.44, 84.00 346.00" fill="none" stroke="black" stroke-width="1.4" stroke-linecap="round"/>
    <path d="M 42.00 322.00 C 45.80 313.51, 49.06 304.82, 52.00 296.00 C 56.14 305.60, 61.67 314.50, 66.00 324.00 C 71.02 315.52, 74.96 306.46, 80.00 298.00 C 85.23 305.41, 91.00 312.42, 96.00 320.00" fill="none" stroke="black" stroke-width="2.0" stroke-linecap="round" stroke-linejoin="round"/>
    <path d="M 110.00 300.00 C 160.67 299.62, 211.33 300.57, 262.00 300.00 C 262.38 310.00, 262.03 320.00, 262.00 330.00 C 211.33 330.56, 160.67 329.60, 110.00 330.00 C 109.91 320.00, 110.59 310.00, 110.00 300.00" fill="none" stroke="black" stroke-width="2.0" stroke-linecap="round" stroke-linejoin="round"/>
    <path d="M 110.00 330.00 C 160.67 330.51, 211.33 329.98, 262.00 330.00 C 262.37 342.00, 262.37 354.00, 262.00 366.00 C 211.33 366.25, 160.67 366.30, 110.00 366.00 C 109.43 354.00, 110.64 342.00, 110.00 330.00" fill="none" stroke="black" stroke-width="2.0" stroke-linecap="round" stroke-linejoin="round"/>
    <path d="M 102.00 312.00 C 104.67 311.47, 107.33 311.88, 110.00 312.00 C 109.94 330.00, 109.89 348.00, 110.00 366.00 C 107.33 365.29, 104.67 365.46, 102.00 366.00 C 102.09 348.00, 101.50 330.00, 102.00 312.00" fill="none" stroke="black" stroke-width="2.0" stroke-linecap="round" stroke-linejoin="round"/>
    <path d="M 262.00 312.00 C 264.67 311.87, 267.33 311.36, 270.00 312.00 C 270.61 330.00, 270.72 348.00, 270.00 366.00 C 267.33 366.53, 264.67 365.51, 262.00 366.00 C 262.53 348.00, 261.79 330.00, 262.00 312.00" fill="none" stroke="black" stroke-width="2.0" stroke-linecap="round" stroke-linejoin="round"/>
    <path d="M 186.00 330.00 C 186.14 342.00, 185.31 354.00, 186.00 366.00" fill="none" stroke="black" stroke-width="1.4" stroke-linecap="round"/>
    <path d="M 157.76 300.00 C 157.59 301.53, 157.27 303.03, 156.93 304.53 C 156.46 306.07, 155.65 307.44, 154.76 308.76 C 153.43 309.65, 151.90 310.19, 150.62 311.15 C 148.98 311.22, 147.47 311.75, 146.00 312.44 C 144.40 312.13, 142.76 312.07, 141.20 311.60 C 140.14 310.35, 138.66 309.62, 137.49 308.51 C 136.84 307.06, 135.61 305.99, 134.85 304.62 C 134.53 303.08, 134.13 301.56, 133.95 300.00 C 134.25 298.42, 133.99 296.78, 134.43 295.21 C 135.46 293.99, 136.88 293.12, 137.67 291.67 C 138.78 290.51, 139.94 289.41, 141.20 288.42 C 142.81 288.70, 144.40 288.13, 146.00 288.35 C 147.58 288.26, 149.14 288.37, 150.69 288.69 C 151.67 289.96, 153.35 290.39, 154.31 291.69 C 155.53 292.71, 156.14 294.20, 157.13 295.39 C 157.19 296.95, 157.72 298.44, 157.76 300.00" fill="none" stroke="black" stroke-width="2.0" stroke-linecap="round"/>
    <path d="M 146.00 312.00 C 145.76 321.33, 146.05 330.67, 146.00 340.00" fill="none" stroke="black" stroke-width="2.0" stroke-linecap="round"/>
    <path d="M 146.00 326.00 C 140.47 329.73, 135.83 334.66, 130.00 338.00" fill="none" stroke="black" stroke-width="2.0" stroke-linecap="round"/>
    <path d="M 146.00 326.00 C 151.14 330.26, 156.85 333.75, 162.00 338.00" fill="none" stroke="black" stroke-width="2.0" stroke-linecap="round"/>
    <path d="M 146.00 340.00 C 154.00 340.23, 162.00 339.62, 170.00 340.00" fill="none" stroke="black" stroke-width="2.0" stroke-linecap="round"/>
    <path d="M 170.00 340.00 C 170.87 345.98, 171.02 352.03, 172.00 358.00" fill="none" stroke="black" stroke-width="2.0" stroke-linecap="round"/>
    <path d="M 146.00 340.00 C 143.53 346.09, 140.99 352.14, 138.00 358.00" fill="none" stroke="black" stroke-width="2.0" stroke-linecap="round"/>
    <path d="M 238.52 300.00 C 238.38 301.64, 237.58 303.15, 237.64 304.82 C 236.71 306.18, 235.47 307.21, 234.11 308.11 C 232.82 308.95, 231.80 310.11, 230.55 311.00 C 229.01 311.38, 227.52 311.91, 226.00 312.38 C 224.46 311.99, 222.98 311.40, 221.43 311.03 C 220.09 310.17, 218.76 309.30, 217.24 308.76 C 216.27 307.48, 215.61 305.99, 214.65 304.70 C 214.80 303.11, 214.55 301.55, 214.26 300.00 C 214.06 298.39, 214.30 296.80, 214.42 295.20 C 215.30 293.84, 216.05 292.39, 217.31 291.31 C 218.67 290.51, 220.12 289.90, 221.56 289.27 C 223.13 288.97, 224.44 287.95, 226.00 287.61 C 227.49 288.18, 229.03 288.55, 230.55 289.02 C 231.63 290.10, 232.78 291.11, 234.07 291.93 C 235.04 293.10, 235.93 294.35, 236.99 295.45 C 237.51 296.96, 237.91 298.52, 238.52 300.00" fill="none" stroke="black" stroke-width="2.0" stroke-linecap="round"/>
    <path d="M 214.00 298.00 C 214.03 308.71, 212.32 319.31, 212.00 330.00" fill="none" stroke="black" stroke-width="2.0" stroke-linecap="round"/>
    <path d="M 216.00 296.00 C 216.02 308.70, 215.00 321.35, 214.00 334.00" fill="none" stroke="black" stroke-width="2.0" stroke-linecap="round"/>
    <path d="M 238.00 298.00 C 239.18 308.63, 238.36 319.39, 240.00 330.00" fill="none" stroke="black" stroke-width="2.0" stroke-linecap="round"/>
    <path d="M 222.00 288.00 C 221.10 286.48, 219.37 286.59, 218.00 286.00" fill="none" stroke="black" stroke-width="1.4" stroke-linecap="round"/>
    <path d="M 230.00 288.00 C 231.05 286.76, 232.66 286.65, 234.00 286.00" fill="none" stroke="black" stroke-width="1.4" stroke-linecap="round"/>
    <path d="M 226.00 312.00 C 226.47 321.33, 226.80 330.67, 226.00 340.00" fill="none" stroke="black" stroke-width="2.0" stroke-linecap="round"/>
    <path d="M 226.00 326.00 C 221.11 330.59, 215.57 334.32, 210.00 338.00" fill="none" stroke="black" stroke-width="2.0" stroke-linecap="round"/>
    <path d="M 226.00 326.00 C 231.56 329.70, 236.84 333.77, 242.00 338.00" fill="none" stroke="black" stroke-width="2.0" stroke-linecap="round"/>
    <path d="M 226.00 340.00 C 234.00 340.15, 242.00 340.56, 250.00 340.00" fill="none" stroke="black" stroke-width="2.0" stroke-linecap="round"/>
    <path d="M 250.00 340.00 C 250.90 345.97, 250.46 352.10, 252.00 358.00" fill="none" stroke="black" stroke-width="2.0" stroke-linecap="round"/>
    <path d="M 226.00 340.00 C 223.08 345.89, 220.94 352.12, 218.00 358.00" fill="none" stroke="black" stroke-width="2.0" stroke-linecap="round"/>
    <path d="M 36.00 60.00 C 86.00 60.63, 136.00 60.54, 186.00 60.00 C 189.36 63.31, 192.61 66.72, 196.00 70.00 C 196.38 97.33, 195.60 124.67, 196.00 152.00 C 192.56 155.22, 189.71 159.04, 186.00 162.00 C 136.00 161.83, 86.00 161.57, 36.00 162.00 C 32.57 158.76, 29.06 155.60, 26.00 152.00 C 26.21 124.67, 25.60 97.33, 26.00 70.00 C 29.25 66.58, 32.51 63.18, 36.00 60.00" fill="#e3d3a2" stroke="black" stroke-width="2.0" stroke-linecap="round" stroke-linejoin="round"/>
    <path d="M 131.00 162.00 C 132.88 209.36, 135.18 256.69, 138.00 304.00 C 141.01 256.70, 143.24 209.36, 145.00 162.00" fill="#e3d3a2" stroke="black" stroke-width="2.0" stroke-linecap="round" stroke-linejoin="round"/>
    <line x1="132.0" y1="162" x2="144.0" y2="162" stroke="#e3d3a2" stroke-width="2.4"/>
    <text x="111.0" y="78.0" text-anchor="middle" font-family="Comic Neue, Comic Sans MS, cursive" font-size="13" fill="black"><tspan x="111.0" dy="0">damnzaaa another diz</tspan><tspan x="111.0" dy="16">banger its always the</tspan><tspan x="111.0" dy="16">disney movies when</tspan><tspan x="111.0" dy="16">comfort was the need</tspan><tspan x="111.0" dy="16">eh?</tspan></text>
  </g>
  <g class="panel">
    <path d="M 410.00 46.00 C 536.67 45.52, 663.33 45.30, 790.00 46.00 C 790.00 159.33, 789.53 272.67, 790.00 386.00 C 663.33 385.77, 536.67 386.55, 410.00 386.00 C 409.27 272.67, 409.25 159.33, 410.00 46.00" fill="none" stroke="black" stroke-width="2.0" stroke-linecap="round" stroke-linejoin="round"/>
    <path d="M 420.00 362.00 C 540.00 362.98, 660.00 361.39, 780.00 362.00" fill="none" stroke="black" stroke-width="1.4" stroke-linecap="round"/>
    <path d="M 543.31 270.00 C 543.38 271.57, 543.02 273.06, 542.54 274.53 C 541.98 276.03, 541.36 277.50, 540.39 278.79 C 539.15 279.83, 537.79 280.69, 536.26 281.25 C 534.66 281.47, 533.12 281.92, 531.60 282.48 C 530.01 282.22, 528.45 281.85, 527.00 281.11 C 525.58 280.42, 524.30 279.53, 523.18 278.42 C 522.16 277.24, 521.86 275.63, 520.78 274.48 C 520.56 272.99, 520.29 271.50, 520.16 270.00 C 520.78 268.59, 520.30 266.99, 520.94 265.58 C 521.49 264.14, 522.61 263.03, 523.23 261.63 C 524.43 260.65, 526.02 260.41, 527.23 259.45 C 528.69 258.89, 530.14 258.31, 531.60 257.76 C 533.24 257.65, 534.75 258.33, 536.33 258.59 C 537.63 259.51, 538.72 260.65, 539.66 261.94 C 540.39 263.30, 541.36 264.47, 542.53 265.47 C 543.11 266.93, 543.16 268.47, 543.31 270.00" fill="none" stroke="black" stroke-width="2.0" stroke-linecap="round"/>
    <path d="M 519.60 268.00 C 518.49 278.64, 517.99 289.32, 517.60 300.00" fill="none" stroke="black" stroke-width="2.0" stroke-linecap="round"/>
    <path d="M 521.60 266.00 C 521.13 278.68, 520.80 291.36, 519.60 304.00" fill="none" stroke="black" stroke-width="2.0" stroke-linecap="round"/>
    <path d="M 543.60 268.00 C 544.36 278.66, 543.95 289.39, 545.60 300.00" fill="none" stroke="black" stroke-width="2.0" stroke-linecap="round"/>
    <path d="M 527.60 258.00 C 526.14 257.58, 525.17 256.19, 523.60 256.00" fill="none" stroke="black" stroke-width="1.4" stroke-linecap="round"/>
    <path d="M 535.60 258.00 C 537.34 258.14, 538.14 256.41, 539.60 256.00" fill="none" stroke="black" stroke-width="1.4" stroke-linecap="round"/>
    <path d="M 531.60 282.00 C 531.82 296.00, 532.29 310.00, 531.60 324.00" fill="none" stroke="black" stroke-width="2.0" stroke-linecap="round"/>
    <path d="M 531.60 292.00 C 541.05 291.51, 550.18 288.70, 559.60 288.00" fill="none" stroke="black" stroke-width="2.0" stroke-linecap="round"/>
    <path d="M 531.60 292.00 C 526.02 297.78, 520.69 303.78, 515.60 310.00" fill="none" stroke="black" stroke-width="2.0" stroke-linecap="round"/>
    <path d="M 531.60 324.00 C 526.97 332.38, 524.27 341.64, 519.60 350.00" fill="none" stroke="black" stroke-width="2.0" stroke-linecap="round"/>
    <path d="M 531.60 324.00 C 535.74 332.60, 540.37 340.98, 543.60 350.00" fill="none" stroke="black" stroke-width="2.0" stroke-linecap="round"/>
    <path d="M 680.06 270.00 C 679.96 271.60, 680.00 273.21, 680.02 274.81 C 679.06 276.12, 678.22 277.52, 677.18 278.78 C 675.67 279.26, 674.35 280.24, 672.77 280.56 C 671.38 281.27, 669.74 281.28, 668.40 282.13 C 666.82 281.98, 665.33 281.55, 663.95 280.73 C 662.64 279.93, 661.14 279.46, 659.92 278.48 C 659.18 277.14, 658.22 275.90, 657.86 274.36 C 657.46 272.87, 656.85 271.44, 656.28 270.00 C 656.74 268.48, 657.20 266.96, 657.15 265.34 C 657.69 263.80, 658.86 262.64, 659.65 261.25 C 661.16 260.57, 662.18 259.20, 663.58 258.37 C 665.19 258.44, 666.78 258.81, 668.40 258.51 C 669.95 258.35, 671.42 258.86, 672.93 259.07 C 674.42 259.64, 675.65 260.74, 677.21 261.19 C 677.64 262.73, 678.21 264.22, 679.00 265.61 C 679.56 267.02, 679.46 268.59, 680.06 270.00" fill="none" stroke="black" stroke-width="2.0" stroke-linecap="round"/>
    <path d="M 668.40 282.00 C 667.96 296.00, 668.11 310.00, 668.40 324.00" fill="none" stroke="black" stroke-width="2.0" stroke-linecap="round"/>
    <path d="M 668.40 290.00 C 663.04 296.65, 657.85 303.42, 652.40 310.00" fill="none" stroke="black" stroke-width="2.0" stroke-linecap="round"/>
    <path d="M 668.40 290.00 C 673.07 297.19, 678.88 303.48, 684.40 310.00" fill="none" stroke="black" stroke-width="2.0" stroke-linecap="round"/>
    <path d="M 668.40 324.00 C 664.41 332.67, 660.53 341.39, 656.40 350.00" fill="none" stroke="black" stroke-width="2.0" stroke-linecap="round"/>
    <path d="M 668.40 324.00 C 673.24 332.28, 675.57 341.72, 680.40 350.00" fill="none" stroke="black" stroke-width="2.0" stroke-linecap="round"/>
    <path d="M 430.00 60.00 C 480.00 60.10, 530.00 60.47, 580.00 60.00 C 582.95 63.72, 586.31 67.02, 590.00 70.00 C 590.47 86.67, 589.83 103.33, 590.00 120.00 C 586.80 123.47, 582.84 126.17, 580.00 130.00 C 530.00 129.67, 480.00 129.82, 430.00 130.00 C 426.85 126.49, 423.33 123.34, 420.00 120.00 C 419.85 103.33, 420.02 86.67, 420.00 70.00 C 423.01 66.35, 426.93 63.59, 430.00 60.00" fill="#e3d3a2" stroke="black" stroke-width="2.0" stroke-linecap="round" stroke-linejoin="round"/>
    <path d="M 532.60 130.00 C 534.96 178.00, 536.60 226.03, 539.60 274.00 C 541.71 225.99, 544.40 178.01, 546.60 130.00" fill="#e3d3a2" stroke="black" stroke-width="2.0" stroke-linecap="round" stroke-linejoin="round"/>
    <line x1="533.6" y1="130" x2="545.6" y2="130" stroke="#e3d3a2" stroke-width="2.4"/>
    <text x="505.0" y="78.0" text-anchor="middle" font-family="Comic Neue, Comic Sans MS, cursive" font-size="13" fill="black"><tspan x="505.0" dy="0">Godfather cameo was</tspan><tspan x="505.0" dy="16">cherry on top tho chef</tspan><tspan x="505.0" dy="16">kiss</tspan></text>
  </g>
</svg>
