<?xml version="1.0" encoding="UTF-8"?>
<svg xmlns="http://www.w3.org/2000/svg" viewBox="0 0 412 402" width="412" height="402" role="img" aria-label="#045 — The Housemaid (2025)">
  <rect width="100%" height="100%" fill="#f1e7cc"/>
  <text x="206.0" y="34" text-anchor="middle" font-family="Comic Neue, Comic Sans MS, cursive" font-size="16" font-weight="700" fill="black">#045 — The Housemaid (2025) ★★★★½</text>
  <g class="panel">
    <path d="M 16.00 46.00 C 142.67 46.70, 269.33 46.38, 396.00 46.00 C 395.81 159.33, 395.43 272.67, 396.00 386.00 C 269.33 386.43, 142.67 385.80, 16.00 386.00 C 16.77 272.67, 15.35 159.33, 16.00 46.00" fill="none" stroke="black" stroke-width="2.0" stroke-linecap="round" stroke-linejoin="round"/>
    <path d="M 26.00 356.00 C 146.00 355.74, 266.00 356.88, 386.00 356.00" fill="none" stroke="black" stroke-width="1.4" stroke-linecap="round"/>
    <path d="M 30.00 280.00 C 56.67 280.18, 83.33 280.60, 110.00 280.00 C 109.23 298.67, 109.52 317.33, 110.00 336.00 C 83.33 336.52, 56.67 336.54, 30.00 336.00 C 29.27 317.33, 30.16 298.67, 30.00 280.00" fill="none" stroke="black" stroke-width="2.0" stroke-linecap="round" stroke-linejoin="round"/>
    <path d="M 36.00 286.00 C 58.67 285.58, 81.33 285.90, 104.00 286.00 C 103.35 300.67, 104.67 315.33, 104.00 330.00 C 81.33 329.86, 58.67 330.08, 36.00 330.00 C 35.26 315.33, 35.31 300.67, 36.00 286.00" fill="none" stroke="black" stroke-width="2.0" stroke-linecap="round" stroke-linejoin="round"/>
    <path d="M 56.00 336.00 C 65.33 335.55, 74.67 336.68, 84.00 336.00" fill="none" stroke="black" stroke-width="1.4" stroke-linecap="round"/>
    <path d="M 70.00 336.00 C 69.27 338.67, 69.26 341.33, 70.00 344.00" fill="none" stroke="black" stroke-width="1.4" stroke-linecap="round"/>
    <path d="M 56.00 346.00 C 65.33 345.21, 74.67 346.17, 84.00 346.00" fill="none" stroke="black" stroke-width="1.4" stroke-linecap="round"/>
    <path d="M 42.00 322.00 C 45.72 313.48, 48.74 304.69, 52.00 296.00 C 56.73 305.30, 61.04 314.81, 66.00 324.00 C 70.42 315.20, 75.89 306.97, 80.00 298.00 C 85.48 305.23, 90.90 312.49, 96.00 320.00" fill="none" stroke="black" stroke-width="2.0" stroke-linecap="round" stroke-linejoin="round"/>
    <path d="M 110.00 300.00 C 160.67 299.49, 211.33 299.97, 262.00 300.00 C 261.68 310.00, 262.24 320.00, 262.00 330.00 C 211.33 330.01, 160.67 329.81, 110.00 330.00 C 109.95 320.00, 109.32 310.00, 110.00 300.00" fill="none" stroke="black" stroke-width="2.0" stroke-linecap="round" stroke-linejoin="round"/>
    <path d="M 110.00 330.00 C 160.67 330.19, 211.33 329.55, 262.00 330.00 C 262.55 342.00, 261.84 354.00, 262.00 366.00 C 211.33 365.56, 160.67 365.73, 110.00 366.00 C 109.66 354.00, 109.70 342.00, 110.00 330.00" fill="none" stroke="black" stroke-width="2.0" stroke-linecap="round" stroke-linejoin="round"/>
    <path d="M 102.00 312.00 C 104.67 311.45, 107.33 312.56, 110.00 312.00 C 109.23 330.00, 110.20 348.00, 110.00 366.00 C 107.33 366.55, 104.67 365.85, 102.00 366.00 C 101.91 348.00, 101.51 330.00, 102.00 312.00" fill="none" stroke="black" stroke-width="2.0" stroke-linecap="round" stroke-linejoin="round"/>
    <path d="M 262.00 312.00 C 264.67 311.31, 267.33 311.56, 270.00 312.00 C 270.04 330.00, 270.63 348.00, 270.00 366.00 C 267.33 365.77, 264.67 365.27, 262.00 366.00 C 262.61 348.00, 262.69 330.00, 262.00 312.00" fill="none" stroke="black" stroke-width="2.0" stroke-linecap="round" stroke-linejoin="round"/>
    <path d="M 186.00 330.00 C 185.44 342.00, 185.53 354.00, 186.00 366.00" fill="none" stroke="black" stroke-width="1.4" stroke-linecap="round"/>
    <path d="M 158.22 300.00 C 157.59 301.50, 157.79 303.16, 157.32 304.69 C 156.13 305.76, 155.59 307.33, 154.42 308.42 C 153.39 309.67, 152.01 310.52, 150.79 311.55 C 149.21 311.94, 147.61 312.07, 146.00 312.16 C 144.48 311.81, 142.97 311.40, 141.48 310.92 C 140.14 310.16, 139.09 309.01, 137.80 308.20 C 136.70 307.05, 135.78 305.72, 134.46 304.78 C 134.58 303.14, 133.97 301.60, 133.84 300.00 C 133.70 298.36, 134.44 296.85, 134.53 295.25 C 135.76 294.17, 136.32 292.59, 137.43 291.43 C 138.95 291.02, 140.24 290.13, 141.62 289.43 C 142.97 288.52, 144.46 287.93, 146.00 287.46 C 147.61 287.76, 148.93 288.74, 150.40 289.38 C 151.75 290.21, 153.15 290.93, 154.70 291.30 C 155.55 292.64, 156.55 293.89, 157.00 295.45 C 157.04 297.06, 158.17 298.38, 158.22 300.00" fill="none" stroke="black" stroke-width="2.0" stroke-linecap="round"/>
    <path d="M 132.00 290.00 C 141.33 290.10, 150.67 290.48, 160.00 290.00 C 158.21 287.56, 157.10 284.78, 156.00 282.00 C 149.33 281.91, 142.67 282.24, 136.00 282.00 C 135.32 284.99, 133.90 287.62, 132.00 290.00" fill="black" stroke="black" stroke-width="2.0" stroke-linecap="round" stroke-linejoin="round"/>
    <path d="M 158.49 282.00 C 158.29 282.25, 158.19 282.56, 158.07 282.86 C 157.75 282.95, 157.37 282.82, 157.10 283.10 C 157.25 283.47, 156.90 283.70, 156.83 284.01 C 156.53 284.02, 156.18 283.92, 156.00 284.29 C 155.77 284.09, 155.56 283.87, 155.25 283.81 C 154.91 283.68, 154.69 283.50, 154.90 283.10 C 154.73 282.97, 154.67 282.74, 154.49 282.63 C 154.44 282.39, 154.60 282.04, 154.16 282.00 C 153.85 281.77, 153.91 281.37, 153.76 281.07 C 154.15 281.13, 154.50 281.04, 154.82 280.82 C 154.96 280.57, 155.22 280.69, 155.42 280.60 C 155.31 280.05, 155.98 279.89, 156.00 279.41 C 156.06 279.87, 156.37 280.04, 156.78 280.12 C 156.93 280.55, 157.22 280.61, 157.59 280.41 C 157.73 280.67, 157.60 281.00, 157.78 281.26 C 158.21 281.33, 158.12 281.88, 158.49 282.00" fill="black" stroke="black" stroke-width="2.0" stroke-linecap="round"/>
    <path d="M 146.00 312.00 C 145.72 321.33, 146.64 330.67, 146.00 340.00" fill="none" stroke="black" stroke-width="2.0" stroke-linecap="round"/>
    <path d="M 146.00 326.00 C 140.08 329.22, 135.89 334.75, 130.00 338.00" fill="none" stroke="black" stroke-width="2.0" stroke-linecap="round"/>
    <path d="M 146.00 326.00 C 151.87 329.28, 156.40 334.35, 162.00 338.00" fill="none" stroke="black" stroke-width="2.0" stroke-linecap="round"/>
    <path d="M 146.00 340.00 C 154.00 340.62, 162.00 340.04, 170.00 340.00" fill="none" stroke="black" stroke-width="2.0" stroke-linecap="round"/>
    <path d="M 170.00 340.00 C 170.46 346.02, 171.75 351.95, 172.00 358.00" fill="none" stroke="black" stroke-width="2.0" stroke-linecap="round"/>
    <path d="M 146.00 340.00 C 142.92 345.81, 141.46 352.35, 138.00 358.00" fill="none" stroke="black" stroke-width="2.0" stroke-linecap="round"/>
    <path d="M 238.35 300.00 C 238.30 301.63, 237.38 303.05, 237.27 304.67 C 236.20 305.83, 235.45 307.24, 234.47 308.47 C 233.22 309.39, 231.90 310.19, 230.50 310.86 C 228.99 310.98, 227.53 311.50, 226.00 311.48 C 224.62 310.81, 223.02 311.16, 221.63 310.56 C 220.07 310.18, 218.57 309.68, 217.22 308.78 C 216.15 307.55, 215.70 305.92, 214.57 304.74 C 214.34 303.14, 213.69 301.62, 213.58 300.00 C 213.89 298.43, 214.93 297.11, 215.14 295.50 C 215.78 294.04, 216.81 292.77, 217.18 291.18 C 218.57 290.38, 220.10 289.92, 221.61 289.40 C 222.99 288.66, 224.50 288.30, 226.00 287.89 C 227.44 288.46, 228.96 288.82, 230.42 289.34 C 231.91 289.89, 233.44 290.38, 234.84 291.16 C 235.73 292.52, 235.72 294.25, 236.71 295.57 C 237.48 296.96, 237.55 298.62, 238.35 300.00" fill="none" stroke="black" stroke-width="2.0" stroke-linecap="round"/>
    <path d="M 226.00 312.00 C 225.92 321.33, 225.62 330.67, 226.00 340.00" fill="none" stroke="black" stroke-width="2.0" stroke-linecap="round"/>
    <path d="M 226.00 326.00 C 220.60 329.91, 214.92 333.45, 210.00 338.00" fill="none" stroke="black" stroke-width="2.0" stroke-linecap="round"/>
    <path d="M 226.00 326.00 C 231.58 329.66, 236.57 334.13, 242.00 338.00" fill="none" stroke="black" stroke-width="2.0" stroke-linecap="round"/>
    <path d="M 226.00 340.00 C 234.00 339.49, 242.00 340.95, 250.00 340.00" fill="none" stroke="black" stroke-width="2.0" stroke-linecap="round"/>
    <path d="M 250.00 340.00 C 249.83 346.09, 251.24 352.01, 252.00 358.00" fill="none" stroke="black" stroke-width="2.0" stroke-linecap="round"/>
    <path d="M 226.00 340.00 C 223.57 346.11, 221.11 352.20, 218.00 358.00" fill="none" stroke="black" stroke-width="2.0" stroke-linecap="round"/>
    <path d="M 36.00 60.00 C 80.00 60.04, 124.00 59.68, 168.00 60.00 C 171.20 63.46, 174.42 66.91, 178.00 70.00 C 178.67 81.33, 177.55 92.67, 178.00 104.00 C 174.77 107.43, 171.31 110.64, 168.00 114.00 C 124.00 114.09, 80.00 113.62, 36.00 114.00 C 32.23 111.10, 29.31 107.36, 26.00 104.00 C 26.40 92.67, 26.48 81.33, 26.00 70.00 C 29.76 67.09, 32.31 62.97, 36.00 60.00" fill="#f1e7cc" stroke="black" stroke-width="2.0" stroke-linecap="round" stroke-linejoin="round"/>
    <path d="M 131.00 114.00 C 133.12 177.34, 135.13 240.69, 138.00 304.00 C 139.66 240.64, 141.97 177.31, 145.00 114.00" fill="#f1e7cc" stroke="black" stroke-width="2.0" stroke-linecap="round" stroke-linejoin="round"/>
    <line x1="132.0" y1="114" x2="144.0" y2="114" stroke="#f1e7cc" stroke-width="2.4"/>
    <text x="102.0" y="78.0" text-anchor="middle" font-family="Comic Neue, Comic Sans MS, cursive" font-size="13" fill="black"><tspan x="102.0" dy="0">gals gal Sweeney</tspan><tspan x="102.0" dy="16">banger</tspan></text>
  </g>
</svg>
