<?xml version="1.0" encoding="UTF-8"?>
<svg xmlns="http://www.w3.org/2000/svg" viewBox="0 0 806 402" width="806" height="402" role="img" aria-label="#046 — Spirited Away (2001)">
  <defs><filter id="fibers" x="0%" y="0%" width="100%" height="100%"><feTurbulence type="fractalNoise" baseFrequency="0.04 0.7" numOctaves="2" stitchTiles="stitch" seed="7"/><feColorMatrix values="0 0 0 0 0.38  0 0 0 0 0.26  0 0 0 0 0.13  0 0 0 -0.7 0.28"/></filter><filter id="grain" x="0%" y="0%" width="100%" height="100%"><feTurbulence type="fractalNoise" baseFrequency="0.65" numOctaves="3" stitchTiles="stitch" seed="2"/><feColorMatrix values="0 0 0 0 0.42  0 0 0 0 0.30  0 0 0 0 0.16  0 0 0 -1.1 0.5"/></filter></defs>
  <rect width="100%" height="100%" fill="#e3d3a2"/>
  <rect width="100%" height="100%" filter="url(#fibers)" opacity="0.55"/>
  <rect width="100%" height="100%" filter="url(#grain)" opacity="0.85"/>
  <text x="403.0" y="34" text-anchor="middle" font-family="Comic Neue, Comic Sans MS, cursive" font-size="16" font-weight="700" fill="black">#046 — Spirited Away (2001) ★★★★★</text>
  <g class="panel">
    <path d="M 16.00 46.00 C 142.67 45.43, 269.33 45.82, 396.00 46.00 C 395.66 159.33, 395.23 272.67, 396.00 386.00 C 269.33 385.39, 142.67 385.98, 16.00 386.00 C 15.40 272.67, 16.54 159.33, 16.00 46.00" fill="none" stroke="black" stroke-width="2.0" stroke-linecap="round" stroke-linejoin="round"/>
    <path d="M 26.00 362.00 C 146.00 362.23, 266.00 361.11, 386.00 362.00" fill="none" stroke="black" stroke-width="1.4" stroke-linecap="round"/>
    <path d="M 84.40 314.00 C 104.40 314.72, 124.40 313.92, 144.40 314.00 C 144.25 324.67, 144.03 335.33, 144.40 346.00 C 124.40 346.02, 104.40 346.52, 84.40 346.00 C 84.00 335.33, 85.01 324.67, 84.40 314.00" fill="none" stroke="black" stroke-width="2.0" stroke-linecap="round" stroke-linejoin="round"/>
    <path d="M 84.40 302.00 C 104.40 302.59, 124.40 302.28, 144.40 302.00 C 144.69 306.00, 143.65 310.00, 144.40 314.00 C 124.40 313.81, 104.40 314.45, 84.40 314.00 C 84.24 310.00, 85.03 306.00, 84.40 302.00" fill="#e3d3a2" stroke="black" stroke-width="2.0" stroke-linecap="round" stroke-linejoin="round"/>
    <path d="M 88.40 314.00 C 91.85 309.45, 96.15 305.75, 100.40 302.00 C 103.07 301.78, 105.73 302.22, 108.40 302.00 C 104.77 306.37, 99.86 309.46, 96.40 314.00 C 93.73 314.31, 91.07 313.60, 88.40 314.00" fill="black" stroke="black" stroke-width="2.0" stroke-linecap="round" stroke-linejoin="round"/>
    <path d="M 112.40 314.00 C 116.01 309.61, 120.84 306.44, 124.40 302.00 C 127.07 301.85, 129.73 302.41, 132.40 302.00 C 128.55 306.15, 124.42 310.02, 120.40 314.00 C 117.73 313.39, 115.07 314.07, 112.40 314.00" fill="black" stroke="black" stroke-width="2.0" stroke-linecap="round" stroke-linejoin="round"/>
    <path d="M 278.82 270.00 C 278.27 271.49, 278.16 273.06, 277.95 274.62 C 276.96 275.81, 275.73 276.81, 275.06 278.26 C 273.66 279.09, 272.90 280.62, 271.57 281.52 C 269.95 281.47, 268.44 282.28, 266.80 282.09 C 265.42 281.30, 263.83 281.20, 262.35 280.73 C 260.92 280.13, 259.67 279.18, 258.27 278.53 C 257.63 277.10, 256.84 275.77, 255.90 274.52 C 255.29 273.05, 254.72 271.56, 254.40 270.00 C 254.60 268.40, 255.21 266.92, 255.67 265.39 C 256.31 263.93, 257.20 262.63, 258.21 261.41 C 259.35 260.28, 261.01 259.94, 262.18 258.86 C 263.70 258.47, 265.30 258.53, 266.80 258.07 C 268.36 258.35, 269.97 258.22, 271.52 258.61 C 272.73 259.63, 274.04 260.53, 275.26 261.54 C 276.34 262.69, 277.08 264.08, 277.92 265.39 C 278.09 266.96, 278.52 268.46, 278.82 270.00" fill="none" stroke="black" stroke-width="2.0" stroke-linecap="round"/>
    <path d="M 272.35 252.00 C 272.14 252.83, 272.69 253.58, 272.60 254.40 C 271.90 254.99, 272.03 256.00, 271.44 256.64 C 270.74 257.15, 269.92 257.37, 269.08 257.51 C 268.18 257.53, 267.40 257.83, 266.80 258.53 C 266.09 258.07, 265.33 257.69, 264.67 257.15 C 263.90 256.87, 263.09 256.72, 262.31 256.49 C 262.15 255.68, 261.93 254.89, 261.38 254.25 C 261.52 253.47, 261.11 252.76, 261.08 252.00 C 260.83 251.21, 261.16 250.41, 261.05 249.62 C 261.50 248.94, 262.09 248.35, 262.34 247.54 C 262.85 246.82, 263.63 246.52, 264.39 246.18 C 265.26 246.25, 266.09 246.18, 266.80 245.60 C 267.64 245.67, 268.46 245.94, 269.31 245.94 C 270.06 246.36, 270.32 247.31, 271.16 247.64 C 271.76 248.21, 272.18 248.89, 272.27 249.74 C 272.22 250.49, 272.67 251.23, 272.35 252.00" fill="none" stroke="black" stroke-width="2.0" stroke-linecap="round"/>
    <path d="M 255.80 271.00 C 256.02 274.83, 254.39 278.32, 253.80 282.00" fill="none" stroke="black" stroke-width="2.0" stroke-linecap="round"/>
    <path d="M 277.80 271.00 C 278.34 274.69, 279.84 278.21, 279.80 282.00" fill="none" stroke="black" stroke-width="2.0" stroke-linecap="round"/>
    <path d="M 266.80 282.00 C 266.26 296.00, 267.43 310.00, 266.80 324.00" fill="none" stroke="black" stroke-width="2.0" stroke-linecap="round"/>
    <path d="M 266.80 292.00 C 257.59 289.83, 248.26 288.48, 238.80 288.00" fill="none" stroke="black" stroke-width="2.0" stroke-linecap="round"/>
    <path d="M 266.80 292.00 C 271.89 298.21, 276.83 304.57, 282.80 310.00" fill="none" stroke="black" stroke-width="2.0" stroke-linecap="round"/>
    <path d="M 266.80 324.00 C 263.56 333.02, 259.18 341.51, 254.80 350.00" fill="none" stroke="black" stroke-width="2.0" stroke-linecap="round"/>
    <path d="M 266.80 324.00 C 271.11 332.52, 274.84 341.32, 278.80 350.00" fill="none" stroke="black" stroke-width="2.0" stroke-linecap="round"/>
    <path d="M 226.00 60.00 C 276.00 60.51, 326.00 60.24, 376.00 60.00 C 379.86 62.81, 382.26 67.07, 386.00 70.00 C 386.63 81.33, 386.18 92.67, 386.00 104.00 C 382.25 106.91, 379.61 110.94, 376.00 114.00 C 326.00 113.57, 276.00 113.96, 226.00 114.00 C 223.15 110.19, 218.84 107.82, 216.00 104.00 C 216.30 92.67, 215.62 81.33, 216.00 70.00 C 219.01 66.35, 223.06 63.72, 226.00 60.00" fill="#e3d3a2" stroke="black" stroke-width="2.0" stroke-linecap="round" stroke-linejoin="round"/>
    <path d="M 251.80 114.00 C 253.75 167.35, 256.08 220.68, 258.80 274.00 C 261.53 220.68, 262.75 167.30, 265.80 114.00" fill="#e3d3a2" stroke="black" stroke-width="2.0" stroke-linecap="round" stroke-linejoin="round"/>
    <line x1="252.8" y1="114" x2="264.8" y2="114" stroke="#e3d3a2" stroke-width="2.4"/>
    <text x="301.0" y="78.0" text-anchor="middle" font-family="Comic Neue, Comic Sans MS, cursive" font-size="13" fill="black"><tspan x="301.0" dy="0">third movie of the day</tspan><tspan x="301.0" dy="16">btw.</tspan></text>
  </g>
  <g class="panel">
    <path d="M 410.00 46.00 C 536.67 45.59, 663.33 46.01, 790.00 46.00 C 789.31 159.33, 790.04 272.67, 790.00 386.00 C 663.33 386.78, 536.67 386.41, 410.00 386.00 C 410.21 272.67, 410.28 159.33, 410.00 46.00" fill="none" stroke="black" stroke-width="2.0" stroke-linecap="round" stroke-linejoin="round"/>
    <path d="M 420.00 362.00 C 540.00 361.30, 660.00 362.72, 780.00 362.00" fill="none" stroke="black" stroke-width="1.4" stroke-linecap="round"/>
    <path d="M 545.60 326.00 C 553.60 326.45, 561.60 325.56, 569.60 326.00 C 568.50 336.64, 568.33 347.34, 567.60 358.00 C 560.93 358.32, 554.27 357.36, 547.60 358.00 C 547.05 347.33, 546.77 336.64, 545.60 326.00" fill="none" stroke="black" stroke-width="2.0" stroke-linecap="round" stroke-linejoin="round"/>
    <path d="M 551.60 328.00 C 552.29 337.33, 551.18 346.67, 551.60 356.00" fill="none" stroke="black" stroke-width="1.4" stroke-linecap="round"/>
    <path d="M 557.60 328.00 C 556.93 337.33, 558.36 346.67, 557.60 356.00" fill="none" stroke="black" stroke-width="1.4" stroke-linecap="round"/>
    <path d="M 563.60 328.00 C 563.99 337.33, 563.11 346.67, 563.60 356.00" fill="none" stroke="black" stroke-width="1.4" stroke-linecap="round"/>
    <path d="M 554.16 324.00 C 554.44 324.41, 554.79 324.78, 554.79 325.32 C 554.52 325.68, 554.53 326.23, 554.02 326.42 C 553.56 326.04, 553.05 326.15, 552.55 326.28 C 552.18 326.04, 551.93 326.50, 551.60 326.45 C 551.27 326.25, 550.93 326.28, 550.59 326.43 C 550.37 326.11, 549.81 326.40, 549.67 325.93 C 549.52 325.39, 548.78 325.75, 548.61 325.24 C 548.58 324.83, 548.34 324.41, 548.62 324.00 C 548.50 323.57, 548.84 323.05, 548.40 322.67 C 548.87 322.47, 548.96 321.98, 549.20 321.60 C 549.69 321.47, 549.96 321.10, 550.24 320.72 C 550.63 321.08, 551.13 321.05, 551.60 321.13 C 551.99 320.91, 552.39 320.79, 552.81 321.07 C 553.04 321.41, 553.45 321.61, 553.57 322.03 C 553.53 322.41, 553.95 322.67, 553.86 323.06 C 554.31 323.26, 554.15 323.66, 554.16 324.00" fill="none" stroke="black" stroke-width="2.0" stroke-linecap="round"/>
    <path d="M 562.88 320.00 C 562.97 320.59, 562.92 321.14, 562.54 321.63 C 562.32 322.15, 561.83 322.50, 561.63 323.03 C 561.19 323.45, 560.52 323.17, 560.06 323.51 C 559.59 323.85, 559.14 324.20, 558.60 324.41 C 558.12 324.11, 557.48 324.14, 557.08 323.66 C 556.67 323.37, 556.05 323.32, 555.90 322.70 C 555.54 322.33, 555.54 321.67, 554.90 321.53 C 554.78 321.02, 554.48 320.55, 554.52 320.00 C 554.45 319.43, 554.94 319.03, 554.98 318.50 C 555.10 317.90, 555.69 317.80, 556.06 317.46 C 556.61 317.11, 556.36 316.30, 556.92 315.96 C 557.48 315.83, 558.06 316.20, 558.60 315.88 C 559.14 316.17, 559.73 315.59, 560.27 315.96 C 560.86 316.10, 561.42 316.29, 561.82 316.78 C 561.56 317.42, 561.97 317.96, 562.11 318.55 C 562.22 319.11, 562.45 319.61, 562.88 320.00" fill="none" stroke="black" stroke-width="2.0" stroke-linecap="round"/>
    <path d="M 569.11 325.00 C 568.84 325.42, 568.68 325.95, 568.07 326.02 C 567.89 326.32, 567.90 326.75, 567.48 326.88 C 567.23 327.17, 566.77 327.30, 566.75 327.78 C 566.47 328.17, 566.05 328.30, 565.60 328.35 C 565.29 328.03, 564.75 328.09, 564.49 327.69 C 564.01 327.80, 563.54 327.81, 563.14 327.46 C 562.97 327.03, 563.09 326.54, 562.90 326.12 C 562.88 325.73, 562.75 325.37, 562.64 325.00 C 562.64 324.57, 563.29 324.49, 563.20 324.00 C 563.29 323.58, 563.00 323.12, 563.32 322.72 C 563.69 322.47, 563.98 322.13, 564.28 321.81 C 564.79 322.09, 565.21 321.91, 565.60 321.55 C 566.01 321.87, 566.15 322.40, 566.53 322.75 C 566.87 323.15, 567.34 322.57, 567.68 322.92 C 567.81 323.29, 568.31 323.42, 568.32 323.87 C 568.68 324.18, 568.96 324.54, 569.11 325.00" fill="none" stroke="black" stroke-width="2.0" stroke-linecap="round"/>
    <path d="M 543.77 270.00 C 543.49 271.55, 543.07 273.08, 542.78 274.63 C 541.91 275.93, 540.97 277.16, 539.84 278.24 C 538.81 279.42, 537.32 280.00, 536.16 281.01 C 534.60 280.92, 533.17 281.80, 531.60 281.63 C 530.06 281.51, 528.57 281.00, 527.01 281.08 C 525.51 280.49, 524.04 279.84, 522.73 278.87 C 522.10 277.37, 520.88 276.21, 520.31 274.68 C 520.09 273.10, 519.87 271.53, 519.41 270.00 C 519.36 268.37, 519.67 266.81, 520.23 265.29 C 521.41 264.24, 522.42 263.03, 523.41 261.81 C 524.74 261.02, 526.00 260.15, 527.03 258.97 C 528.57 258.82, 530.13 258.84, 531.60 258.27 C 533.18 258.15, 534.72 258.31, 536.19 258.91 C 537.34 259.96, 538.50 260.99, 539.92 261.68 C 540.67 263.04, 541.68 264.22, 542.64 265.43 C 543.17 266.91, 543.08 268.55, 543.77 270.00" fill="none" stroke="black" stroke-width="2.0" stroke-linecap="round"/>
    <path d="M 517.60 260.00 C 526.93 260.18, 536.27 260.07, 545.60 260.00 C 544.57 257.18, 543.00 254.63, 541.60 252.00 C 534.93 251.66, 528.27 252.43, 521.60 252.00 C 520.49 254.78, 519.02 257.38, 517.60 260.00" fill="black" stroke="black" stroke-width="2.0" stroke-linecap="round" stroke-linejoin="round"/>
    <path d="M 544.13 252.00 C 543.89 252.27, 543.67 252.55, 543.88 252.94 C 543.69 253.22, 543.46 253.43, 543.13 253.53 C 543.00 253.82, 542.50 253.75, 542.50 254.17 C 542.20 254.11, 541.90 254.56, 541.60 254.18 C 541.51 253.85, 541.01 253.83, 541.01 253.42 C 540.77 253.39, 540.59 253.29, 540.58 253.02 C 540.31 253.03, 540.01 253.07, 540.04 252.65 C 540.33 252.47, 540.31 252.24, 540.13 252.00 C 539.88 251.82, 539.66 251.63, 539.98 251.33 C 539.95 251.05, 540.51 250.97, 540.21 250.61 C 540.48 250.66, 540.68 250.16, 540.98 250.51 C 540.88 250.00, 541.14 249.74, 541.60 249.62 C 541.81 249.88, 542.23 249.73, 542.41 250.04 C 542.50 250.36, 542.89 250.32, 543.04 250.56 C 543.01 250.84, 543.13 251.10, 543.09 251.38 C 543.42 251.63, 543.86 251.67, 544.13 252.00" fill="black" stroke="black" stroke-width="2.0" stroke-linecap="round"/>
    <path d="M 531.60 282.00 C 532.35 296.00, 532.42 310.00, 531.60 324.00" fill="none" stroke="black" stroke-width="2.0" stroke-linecap="round"/>
    <path d="M 531.60 290.00 C 526.07 296.51, 521.03 303.41, 515.60 310.00" fill="none" stroke="black" stroke-width="2.0" stroke-linecap="round"/>
    <path d="M 531.60 290.00 C 536.64 296.90, 542.96 302.78, 547.60 310.00" fill="none" stroke="black" stroke-width="2.0" stroke-linecap="round"/>
    <path d="M 531.60 324.00 C 527.05 332.41, 523.52 341.29, 519.60 350.00" fill="none" stroke="black" stroke-width="2.0" stroke-linecap="round"/>
    <path d="M 531.60 324.00 C 535.75 332.60, 539.63 341.32, 543.60 350.00" fill="none" stroke="black" stroke-width="2.0" stroke-linecap="round"/>
    <path d="M 680.78 270.00 C 680.68 271.63, 680.10 273.11, 679.37 274.54 C 678.32 275.69, 677.73 277.16, 676.77 278.37 C 675.48 279.26, 674.37 280.40, 673.07 281.27 C 671.57 281.91, 670.01 282.29, 668.40 282.46 C 666.79 282.25, 665.24 281.87, 663.84 281.02 C 662.45 280.23, 660.91 279.76, 659.64 278.76 C 658.68 277.48, 658.37 275.82, 657.31 274.59 C 656.79 273.10, 656.96 271.54, 656.88 270.00 C 656.77 268.44, 657.01 266.89, 657.16 265.35 C 658.22 264.21, 658.96 262.79, 660.26 261.86 C 661.49 260.92, 662.46 259.68, 663.77 258.83 C 665.36 258.76, 666.82 258.06, 668.40 257.93 C 669.94 258.18, 671.52 258.30, 672.94 259.05 C 674.49 259.51, 675.85 260.39, 677.27 261.13 C 678.14 262.49, 678.88 263.93, 679.67 265.33 C 680.26 266.84, 680.77 268.36, 680.78 270.00" fill="none" stroke="black" stroke-width="2.0" stroke-linecap="round"/>
    <path d="M 674.05 252.00 C 674.00 252.87, 674.12 253.71, 674.46 254.51 C 673.77 255.06, 673.46 255.89, 672.99 256.59 C 672.14 256.66, 671.27 256.62, 670.54 257.16 C 669.87 257.55, 669.14 257.77, 668.40 257.99 C 667.60 257.95, 666.77 258.21, 665.99 257.81 C 665.40 257.20, 664.71 256.74, 663.87 256.53 C 663.47 255.80, 663.17 255.01, 662.52 254.44 C 662.74 253.64, 662.82 252.81, 663.00 252.00 C 663.41 251.27, 663.29 250.53, 663.07 249.79 C 663.54 249.11, 663.34 248.17, 663.94 247.54 C 664.78 247.54, 665.39 246.72, 666.27 246.86 C 667.02 246.77, 667.58 246.06, 668.40 246.22 C 669.15 246.37, 669.95 246.13, 670.67 246.53 C 671.13 247.16, 671.85 247.49, 672.44 247.96 C 673.07 248.44, 673.36 249.12, 673.55 249.86 C 674.09 250.49, 673.75 251.32, 674.05 252.00" fill="none" stroke="black" stroke-width="2.0" stroke-linecap="round"/>
    <path d="M 657.40 271.00 C 657.30 274.77, 655.91 278.31, 655.40 282.00" fill="none" stroke="black" stroke-width="2.0" stroke-linecap="round"/>
    <path d="M 679.40 271.00 C 680.08 274.66, 680.97 278.29, 681.40 282.00" fill="none" stroke="black" stroke-width="2.0" stroke-linecap="round"/>
    <path d="M 668.40 282.00 C 669.14 296.00, 667.68 310.00, 668.40 324.00" fill="none" stroke="black" stroke-width="2.0" stroke-linecap="round"/>
    <path d="M 668.40 292.00 C 659.13 290.24, 649.85 288.53, 640.40 288.00" fill="none" stroke="black" stroke-width="2.0" stroke-linecap="round"/>
    <path d="M 668.40 292.00 C 674.19 297.59, 678.43 304.56, 684.40 310.00" fill="none" stroke="black" stroke-width="2.0" stroke-linecap="round"/>
    <path d="M 668.40 324.00 C 665.30 333.08, 660.90 341.57, 656.40 350.00" fill="none" stroke="black" stroke-width="2.0" stroke-linecap="round"/>
    <path d="M 668.40 324.00 C 671.81 332.94, 677.11 341.00, 680.40 350.00" fill="none" stroke="black" stroke-width="2.0" stroke-linecap="round"/>
    <path d="M 430.00 60.00 C 480.00 59.46, 530.00 60.33, 580.00 60.00 C 583.12 63.55, 586.84 66.49, 590.00 70.00 C 589.95 92.00, 590.03 114.00, 590.00 136.00 C 587.04 139.71, 583.57 142.90, 580.00 146.00 C 530.00 146.43, 480.00 145.78, 430.00 146.00 C 426.55 142.78, 423.65 139.02, 420.00 136.00 C 419.26 114.00, 420.66 92.00, 420.00 70.00 C 423.16 66.49, 426.49 63.16, 430.00 60.00" fill="#e3d3a2" stroke="black" stroke-width="2.0" stroke-linecap="round" stroke-linejoin="round"/>
    <path d="M 532.60 146.00 C 535.44 188.64, 536.81 231.36, 539.60 274.00 C 542.62 231.37, 544.01 188.65, 546.60 146.00" fill="#e3d3a2" stroke="black" stroke-width="2.0" stroke-linecap="round" stroke-linejoin="round"/>
    <line x1="533.6" y1="146" x2="545.6" y2="146" stroke="#e3d3a2" stroke-width="2.4"/>
    <text x="505.0" y="78.0" text-anchor="middle" font-family="Comic Neue, Comic Sans MS, cursive" font-size="13" fill="black"><tspan x="505.0" dy="0">I uwu rewatching this.</tspan><tspan x="505.0" dy="16">something about taking</tspan><tspan x="505.0" dy="16">a day off and watching</tspan><tspan x="505.0" dy="16">literally…</tspan></text>
  </g>
</svg>
