<?xml version="1.0" encoding="UTF-8"?>
<svg xmlns="http://www.w3.org/2000/svg" viewBox="0 0 806 402" width="806" height="402" role="img" aria-label="#047 — The Drama (2026)">
  <defs><filter id="fibers" x="0%" y="0%" width="100%" height="100%"><feTurbulence type="fractalNoise" baseFrequency="0.04 0.7" numOctaves="2" stitchTiles="stitch" seed="10"/><feColorMatrix values="0 0 0 0 0.38  0 0 0 0 0.26  0 0 0 0 0.13  0 0 0 -0.7 0.28"/></filter><filter id="grain" x="0%" y="0%" width="100%" height="100%"><feTurbulence type="fractalNoise" baseFrequency="0.65" numOctaves="3" stitchTiles="stitch" seed="3"/><feColorMatrix values="0 0 0 0 0.42  0 0 0 0 0.30  0 0 0 0 0.16  0 0 0 -1.1 0.5"/></filter></defs>
  <rect width="100%" height="100%" fill="#e3d3a2"/>
  <rect width="100%" height="100%" filter="url(#fibers)" opacity="0.55"/>
  <rect width="100%" height="100%" filter="url(#grain)" opacity="0.85"/>
  <text x="403.0" y="34" text-anchor="middle" font-family="Comic Neue, Comic Sans MS, cursive" font-size="16" font-weight="700" fill="black">#047 — The Drama (2026) ★★★★½</text>
  <g class="panel">
    <path d="M 16.00 46.00 C 142.67 45.37, 269.33 46.67, 396.00 46.00 C 396.02 159.33, 395.56 272.67, 396.00 386.00 C 269.33 386.34, 142.67 385.49, 16.00 386.00 C 16.18 272.67, 15.45 159.33, 16.00 46.00" fill="none" stroke="black" stroke-width="2.0" stroke-linecap="round" stroke-linejoin="round"/>
    <path d="M 26.00 356.00 C 146.00 356.24, 266.00 356.62, 386.00 356.00" fill="none" stroke="black" stroke-width="1.4" stroke-linecap="round"/>
    <path d="M 30.00 280.00 C 56.67 280.64, 83.33 280.02, 110.00 280.00 C 110.40 298.67, 109.25 317.33, 110.00 336.00 C 83.33 336.48, 56.67 336.66, 30.00 336.00 C 30.42 317.33, 30.76 298.67, 30.00 280.00" fill="none" stroke="black" stroke-width="2.0" stroke-linecap="round" stroke-linejoin="round"/>
    <path d="M 36.00 286.00 C 58.67 285.92, 81.33 285.46, 104.00 286.00 C 103.37 300.67, 103.46 315.33, 104.00 330.00 C 81.33 329.63, 58.67 329.43, 36.00 330.00 C 35.51 315.33, 35.70 300.67, 36.00 286.00" fill="none" stroke="black" stroke-width="2.0" stroke-linecap="round" stroke-linejoin="round"/>
    <path d="M 56.00 336.00 C 65.33 336.90, 74.67 335.49, 84.00 336.00" fill="none" stroke="black" stroke-width="1.4" stroke-linecap="round"/>
    <path d="M 70.00 336.00 C 69.95 338.67, 69.62 341.33, 70.00 344.00" fill="none" stroke="black" stroke-width="1.4" stroke-linecap="round"/>
    <path d="M 56.00 346.00 C 65.33 346.41, 74.67 346.66, 84.00 346.00" fill="none" stroke="black" stroke-width="1.4" stroke-linecap="round"/>
    <path d="M 42.00 322.00 C 45.96 313.58, 48.06 304.43, 52.00 296.00 C 56.61 305.36, 61.42 314.62, 66.00 324.00 C 70.62 315.31, 75.98 307.01, 80.00 298.00 C 84.99 305.58, 90.88 312.51, 96.00 320.00" fill="none" stroke="black" stroke-width="2.0" stroke-linecap="round" stroke-linejoin="round"/>
    <path d="M 110.00 300.00 C 160.67 299.50, 211.33 300.50, 262.00 300.00 C 261.39 310.00, 262.65 320.00, 262.00 330.00 C 211.33 329.90, 160.67 330.02, 110.00 330.00 C 109.92 320.00, 110.74 310.00, 110.00 300.00" fill="none" stroke="black" stroke-width="2.0" stroke-linecap="round" stroke-linejoin="round"/>
    <path d="M 110.00 330.00 C 160.67 330.54, 211.33 330.58, 262.00 330.00 C 262.42 342.00, 262.13 354.00, 262.00 366.00 C 211.33 366.33, 160.67 366.11, 110.00 366.00 C 110.50 354.00, 110.21 342.00, 110.00 330.00" fill="none" stroke="black" stroke-width="2.0" stroke-linecap="round" stroke-linejoin="round"/>
    <path d="M 102.00 312.00 C 104.67 312.58, 107.33 311.42, 110.00 312.00 C 110.49 330.00, 109.57 348.00, 110.00 366.00 C 107.33 366.67, 104.67 365.88, 102.00 366.00 C 101.90 348.00, 101.65 330.00, 102.00 312.00" fill="none" stroke="black" stroke-width="2.0" stroke-linecap="round" stroke-linejoin="round"/>
    <path d="M 262.00 312.00 C 264.67 311.45, 267.33 312.16, 270.00 312.00 C 269.50 330.00, 270.63 348.00, 270.00 366.00 C 267.33 365.91, 264.67 365.21, 262.00 366.00 C 261.45 348.00, 261.52 330.00, 262.00 312.00" fill="none" stroke="black" stroke-width="2.0" stroke-linecap="round" stroke-linejoin="round"/>
    <path d="M 186.00 330.00 C 185.24 342.00, 185.09 354.00, 186.00 366.00" fill="none" stroke="black" stroke-width="1.4" stroke-linecap="round"/>
    <path d="M 158.48 300.00 C 157.57 301.35, 156.96 302.82, 156.63 304.40 C 156.05 305.88, 155.46 307.36, 154.80 308.80 C 153.29 309.35, 151.97 310.27, 150.55 310.99 C 149.03 311.20, 147.53 311.53, 146.00 311.67 C 144.48 311.46, 142.95 311.37, 141.45 310.97 C 140.23 309.90, 138.51 309.75, 137.26 308.74 C 136.37 307.41, 135.53 306.05, 134.74 304.67 C 134.77 303.08, 134.32 301.55, 134.11 300.00 C 134.53 298.52, 134.88 297.03, 135.19 295.52 C 135.96 294.15, 136.81 292.81, 137.30 291.30 C 138.81 290.70, 140.03 289.65, 141.33 288.72 C 142.86 288.27, 144.46 288.09, 146.00 287.69 C 147.57 288.15, 149.22 288.11, 150.82 288.37 C 152.06 289.42, 153.56 290.14, 154.79 291.21 C 155.87 292.43, 156.43 294.01, 157.53 295.22 C 158.21 296.74, 157.80 298.48, 158.48 300.00" fill="none" stroke="black" stroke-width="2.0" stroke-linecap="round"/>
    <path d="M 132.00 290.00 C 141.33 290.29, 150.67 289.93, 160.00 290.00 C 159.22 287.06, 156.66 285.01, 156.00 282.00 C 149.33 282.72, 142.67 282.37, 136.00 282.00 C 134.30 284.48, 132.81 287.07, 132.00 290.00" fill="black" stroke="black" stroke-width="2.0" stroke-linecap="round" stroke-linejoin="round"/>
    <path d="M 158.21 282.00 C 157.82 282.22, 157.73 282.50, 158.05 282.85 C 157.87 283.07, 157.43 283.02, 157.44 283.44 C 157.30 283.86, 156.83 283.26, 156.70 283.68 C 156.51 283.36, 156.24 283.54, 156.00 283.57 C 155.89 284.05, 155.55 284.10, 155.16 284.04 C 155.18 283.61, 154.52 283.89, 154.55 283.45 C 154.49 282.97, 154.12 282.95, 153.76 282.93 C 153.95 282.54, 154.43 282.41, 154.59 282.00 C 154.06 281.92, 154.22 281.24, 153.78 281.08 C 154.01 280.87, 154.44 280.91, 154.50 280.50 C 154.79 280.68, 155.14 280.32, 155.42 280.60 C 155.34 280.13, 156.11 280.29, 156.00 279.81 C 156.39 279.80, 156.69 279.90, 156.67 280.38 C 156.92 280.52, 157.10 280.69, 156.99 281.01 C 157.46 280.61, 157.92 280.67, 158.39 281.01 C 158.32 281.34, 158.66 281.74, 158.21 282.00" fill="black" stroke="black" stroke-width="2.0" stroke-linecap="round"/>
    <path d="M 146.00 312.00 C 146.49 321.33, 145.11 330.67, 146.00 340.00" fill="none" stroke="black" stroke-width="2.0" stroke-linecap="round"/>
    <path d="M 146.00 326.00 C 140.72 330.07, 134.77 333.25, 130.00 338.00" fill="none" stroke="black" stroke-width="2.0" stroke-linecap="round"/>
    <path d="M 146.00 326.00 C 151.41 329.90, 156.49 334.23, 162.00 338.00" fill="none" stroke="black" stroke-width="2.0" stroke-linecap="round"/>
    <path d="M 146.00 340.00 C 154.00 339.07, 162.00 339.57, 170.00 340.00" fill="none" stroke="black" stroke-width="2.0" stroke-linecap="round"/>
    <path d="M 170.00 340.00 C 170.31 346.04, 170.75 352.06, 172.00 358.00" fill="none" stroke="black" stroke-width="2.0" stroke-linecap="round"/>
    <path d="M 146.00 340.00 C 142.71 345.72, 139.96 351.68, 138.00 358.00" fill="none" stroke="black" stroke-width="2.0" stroke-linecap="round"/>
    <path d="M 237.77 300.00 C 237.57 301.52, 236.81 302.91, 236.79 304.47 C 235.91 305.69, 235.01 306.90, 234.08 308.08 C 233.00 309.19, 231.81 310.16, 230.62 311.14 C 229.16 311.88, 227.48 311.74, 226.00 312.36 C 224.36 312.35, 222.93 311.44, 221.33 311.27 C 219.85 310.62, 219.07 309.06, 217.58 308.42 C 217.06 306.92, 215.78 305.90, 215.07 304.53 C 214.50 303.03, 214.26 301.42, 213.48 300.00 C 213.52 298.35, 214.34 296.89, 214.66 295.30 C 215.57 294.00, 216.85 292.98, 217.47 291.47 C 218.54 290.25, 220.06 289.57, 221.22 288.46 C 222.81 288.22, 224.42 288.09, 226.00 287.74 C 227.60 287.93, 228.92 288.87, 230.40 289.38 C 231.93 289.80, 233.18 290.86, 234.70 291.30 C 235.30 292.78, 236.25 294.06, 237.07 295.42 C 237.24 296.95, 237.43 298.49, 237.77 300.00" fill="none" stroke="black" stroke-width="2.0" stroke-linecap="round"/>
    <path d="M 214.00 298.00 C 213.55 308.68, 212.96 319.35, 212.00 330.00" fill="none" stroke="black" stroke-width="2.0" stroke-linecap="round"/>
    <path d="M 216.00 296.00 C 216.28 308.72, 215.09 321.36, 214.00 334.00" fill="none" stroke="black" stroke-width="2.0" stroke-linecap="round"/>
    <path d="M 238.00 298.00 C 239.43 308.62, 239.74 319.31, 240.00 330.00" fill="none" stroke="black" stroke-width="2.0" stroke-linecap="round"/>
    <path d="M 222.00 288.00 C 220.35 287.97, 219.38 286.57, 218.00 286.00" fill="none" stroke="black" stroke-width="1.4" stroke-linecap="round"/>
    <path d="M 230.00 288.00 C 231.04 286.75, 232.70 286.74, 234.00 286.00" fill="none" stroke="black" stroke-width="1.4" stroke-linecap="round"/>
    <path d="M 226.00 312.00 C 225.55 321.33, 225.40 330.67, 226.00 340.00" fill="none" stroke="black" stroke-width="2.0" stroke-linecap="round"/>
    <path d="M 226.00 326.00 C 221.20 330.71, 215.89 334.75, 210.00 338.00" fill="none" stroke="black" stroke-width="2.0" stroke-linecap="round"/>
    <path d="M 226.00 326.00 C 231.69 329.53, 236.12 334.73, 242.00 338.00" fill="none" stroke="black" stroke-width="2.0" stroke-linecap="round"/>
    <path d="M 226.00 340.00 C 234.00 340.89, 242.00 339.81, 250.00 340.00" fill="none" stroke="black" stroke-width="2.0" stroke-linecap="round"/>
    <path d="M 250.00 340.00 C 250.40 346.03, 251.15 352.02, 252.00 358.00" fill="none" stroke="black" stroke-width="2.0" stroke-linecap="round"/>
    <path d="M 226.00 340.00 C 223.33 346.00, 220.84 352.08, 218.00 358.00" fill="none" stroke="black" stroke-width="2.0" stroke-linecap="round"/>
    <path d="M 36.00 60.00 C 86.00 59.78, 136.00 59.49, 186.00 60.00 C 189.32 63.35, 192.64 66.70, 196.00 70.00 C 196.30 97.33, 196.02 124.67, 196.00 152.00 C 193.08 155.74, 189.65 158.98, 186.00 162.00 C 136.00 162.16, 86.00 161.27, 36.00 162.00 C 32.61 158.73, 29.20 155.47, 26.00 152.00 C 25.72 124.67, 26.37 97.33, 26.00 70.00 C 29.52 66.85, 32.91 63.58, 36.00 60.00" fill="#e3d3a2" stroke="black" stroke-width="2.0" stroke-linecap="round" stroke-linejoin="round"/>
    <path d="M 131.00 162.00 C 132.73 209.36, 136.16 256.64, 138.00 304.00 C 140.55 256.68, 142.09 209.31, 145.00 162.00" fill="#e3d3a2" stroke="black" stroke-width="2.0" stroke-linecap="round" stroke-linejoin="round"/>
    <line x1="132.0" y1="162" x2="144.0" y2="162" stroke="#e3d3a2" stroke-width="2.4"/>
    <text x="111.0" y="78.0" text-anchor="middle" font-family="Comic Neue, Comic Sans MS, cursive" font-size="13" fill="black"><tspan x="111.0" dy="0">This review may</tspan><tspan x="111.0" dy="16">contain spoilers.</tspan><tspan x="111.0" dy="16">classic a24 fookin</tspan><tspan x="111.0" dy="16">love the way they</tspan><tspan x="111.0" dy="16">touched some serious</tspan></text>
    <path d="M 286.00 60.00 C 316.00 59.92, 346.00 60.76, 376.00 60.00 C 379.22 63.44, 382.39 66.94, 386.00 70.00 C 386.79 76.00, 385.67 82.00, 386.00 88.00 C 382.28 90.94, 379.29 94.63, 376.00 98.00 C 346.00 97.78, 316.00 98.53, 286.00 98.00 C 282.94 94.39, 278.93 91.74, 276.00 88.00 C 275.83 82.00, 275.93 76.00, 276.00 70.00 C 278.89 66.22, 283.22 63.89, 286.00 60.00" fill="#e3d3a2" stroke="black" stroke-width="2.0" stroke-linecap="round" stroke-linejoin="round"/>
    <path d="M 281.00 98.00 C 260.70 166.88, 239.17 235.39, 218.00 304.00 C 242.94 235.06, 269.05 166.56, 295.00 98.00" fill="#e3d3a2" stroke="black" stroke-width="2.0" stroke-linecap="round" stroke-linejoin="round"/>
    <line x1="282" y1="98" x2="294" y2="98" stroke="#e3d3a2" stroke-width="2.4"/>
    <text x="331.0" y="78.0" text-anchor="middle" font-family="Comic Neue, Comic Sans MS, cursive" font-size="13" fill="black"><tspan x="331.0" dy="0">ACTING.</tspan></text>
  </g>
  <g class="panel">
    <path d="M 410.00 46.00 C 536.67 45.69, 663.33 46.19, 790.00 46.00 C 790.40 159.33, 789.82 272.67, 790.00 386.00 C 663.33 386.45, 536.67 386.06, 410.00 386.00 C 409.91 272.67, 410.54 159.33, 410.00 46.00" fill="none" stroke="black" stroke-width="2.0" stroke-linecap="round" stroke-linejoin="round"/>
    <path d="M 420.00 362.00 C 540.00 361.44, 660.00 362.03, 780.00 362.00" fill="none" stroke="black" stroke-width="1.4" stroke-linecap="round"/>
    <path d="M 543.77 270.00 C 543.31 271.52, 543.18 273.11, 542.83 274.65 C 542.37 276.24, 541.06 277.34, 540.44 278.84 C 538.99 279.52, 537.74 280.59, 536.13 280.95 C 534.64 281.24, 533.07 280.98, 531.60 281.48 C 530.04 281.72, 528.52 281.47, 527.00 281.10 C 525.64 280.29, 524.16 279.67, 522.87 278.73 C 522.16 277.32, 521.47 275.90, 520.79 274.48 C 520.31 272.98, 519.53 271.58, 519.30 270.00 C 519.51 268.40, 519.55 266.77, 520.02 265.20 C 520.98 263.88, 521.53 262.29, 522.71 261.11 C 524.25 260.58, 525.70 259.90, 527.02 258.94 C 528.47 258.26, 530.04 258.00, 531.60 257.71 C 533.15 258.31, 534.74 258.56, 536.40 258.41 C 537.60 259.48, 538.70 260.66, 540.05 261.55 C 540.58 263.04, 541.67 264.18, 542.49 265.49 C 542.91 267.00, 543.67 268.40, 543.77 270.00" fill="none" stroke="black" stroke-width="2.0" stroke-linecap="round"/>
    <path d="M 519.60 268.00 C 519.67 278.71, 518.09 289.32, 517.60 300.00" fill="none" stroke="black" stroke-width="2.0" stroke-linecap="round"/>
    <path d="M 521.60 266.00 C 520.56 278.65, 521.02 291.37, 519.60 304.00" fill="none" stroke="black" stroke-width="2.0" stroke-linecap="round"/>
    <path d="M 543.60 268.00 C 544.87 278.63, 545.70 289.29, 545.60 300.00" fill="none" stroke="black" stroke-width="2.0" stroke-linecap="round"/>
    <path d="M 527.60 258.00 C 526.35 257.17, 525.04 256.45, 523.60 256.00" fill="none" stroke="black" stroke-width="1.4" stroke-linecap="round"/>
    <path d="M 535.60 258.00 C 536.94 257.35, 538.56 257.26, 539.60 256.00" fill="none" stroke="black" stroke-width="1.4" stroke-linecap="round"/>
    <path d="M 531.60 282.00 C 531.08 296.00, 530.66 310.00, 531.60 324.00" fill="none" stroke="black" stroke-width="2.0" stroke-linecap="round"/>
    <path d="M 531.60 290.00 C 526.42 296.79, 521.34 303.66, 515.60 310.00" fill="none" stroke="black" stroke-width="2.0" stroke-linecap="round"/>
    <path d="M 531.60 290.00 C 537.58 296.15, 541.95 303.59, 547.60 310.00" fill="none" stroke="black" stroke-width="2.0" stroke-linecap="round"/>
    <path d="M 531.60 324.00 C 526.86 332.32, 524.33 341.67, 519.60 350.00" fill="none" stroke="black" stroke-width="2.0" stroke-linecap="round"/>
    <path d="M 531.60 324.00 C 535.04 332.92, 538.87 341.67, 543.60 350.00" fill="none" stroke="black" stroke-width="2.0" stroke-linecap="round"/>
    <path d="M 680.59 270.00 C 680.00 271.47, 679.75 273.02, 679.40 274.56 C 678.85 276.05, 677.61 277.12, 676.95 278.55 C 675.75 279.58, 674.21 280.06, 672.96 281.01 C 671.49 281.57, 669.95 281.80, 668.40 281.97 C 666.78 282.15, 665.21 281.62, 663.60 281.59 C 662.20 280.74, 661.11 279.57, 660.14 278.26 C 659.67 276.78, 658.87 275.50, 657.78 274.40 C 657.06 272.99, 656.43 271.55, 656.10 270.00 C 656.56 268.48, 656.50 266.83, 657.22 265.37 C 657.89 263.91, 659.01 262.72, 659.65 261.25 C 660.86 260.16, 662.37 259.58, 663.77 258.83 C 665.25 258.19, 666.82 257.89, 668.40 257.66 C 670.01 257.81, 671.60 258.03, 673.13 258.58 C 674.21 259.78, 675.45 260.77, 676.90 261.50 C 677.56 262.89, 678.14 264.33, 679.07 265.58 C 679.26 267.16, 679.89 268.59, 680.59 270.00" fill="none" stroke="black" stroke-width="2.0" stroke-linecap="round"/>
    <path d="M 654.40 260.00 C 663.73 259.50, 673.07 259.66, 682.40 260.00 C 681.37 257.18, 680.16 254.45, 678.40 252.00 C 671.73 252.45, 665.07 251.57, 658.40 252.00 C 656.77 254.52, 655.23 257.08, 654.40 260.00" fill="black" stroke="black" stroke-width="2.0" stroke-linecap="round" stroke-linejoin="round"/>
    <path d="M 680.67 252.00 C 680.50 252.32, 680.83 252.63, 680.68 252.94 C 680.21 252.88, 680.03 253.15, 679.95 253.55 C 679.65 253.57, 679.44 253.77, 679.19 253.91 C 679.04 254.26, 678.74 254.33, 678.40 254.30 C 678.01 254.54, 677.85 254.10, 677.56 254.02 C 677.19 254.07, 677.04 253.78, 676.85 253.55 C 676.44 253.47, 676.82 252.89, 676.39 252.83 C 676.56 252.58, 676.83 252.35, 676.60 252.00 C 676.72 251.78, 676.68 251.41, 677.10 251.46 C 676.98 251.18, 677.13 251.05, 677.37 250.97 C 677.07 250.56, 677.12 250.18, 677.50 249.84 C 677.78 249.54, 678.11 249.89, 678.40 249.77 C 678.52 250.12, 679.06 249.78, 679.14 250.21 C 679.44 250.40, 678.97 250.84, 679.40 251.00 C 679.51 251.18, 679.51 251.50, 679.86 251.39 C 680.20 251.50, 680.58 251.56, 680.67 252.00" fill="black" stroke="black" stroke-width="2.0" stroke-linecap="round"/>
    <path d="M 668.40 282.00 C 668.82 296.00, 668.77 310.00, 668.40 324.00" fill="none" stroke="black" stroke-width="2.0" stroke-linecap="round"/>
    <path d="M 668.40 290.00 C 663.74 297.20, 658.05 303.58, 652.40 310.00" fill="none" stroke="black" stroke-width="2.0" stroke-linecap="round"/>
    <path d="M 668.40 290.00 C 673.84 296.58, 679.40 303.06, 684.40 310.00" fill="none" stroke="black" stroke-width="2.0" stroke-linecap="round"/>
    <path d="M 668.40 324.00 C 664.10 332.53, 659.93 341.12, 656.40 350.00" fill="none" stroke="black" stroke-width="2.0" stroke-linecap="round"/>
    <path d="M 668.40 324.00 C 672.20 332.76, 675.95 341.54, 680.40 350.00" fill="none" stroke="black" stroke-width="2.0" stroke-linecap="round"/>
    <path d="M 430.00 60.00 C 480.00 59.35, 530.00 60.67, 580.00 60.00 C 583.70 62.97, 586.43 66.91, 590.00 70.00 C 589.35 97.33, 590.35 124.67, 590.00 152.00 C 586.30 154.96, 583.28 158.61, 580.00 162.00 C 530.00 161.28, 480.00 162.47, 430.00 162.00 C 426.95 158.38, 422.86 155.80, 420.00 152.00 C 420.14 124.67, 419.53 97.33, 420.00 70.00 C 423.89 67.22, 426.19 62.85, 430.00 60.00" fill="#e3d3a2" stroke="black" stroke-width="2.0" stroke-linecap="round" stroke-linejoin="round"/>
    <path d="M 532.60 162.00 C 535.72 199.28, 537.57 236.65, 539.60 274.00 C 542.06 236.67, 545.06 199.38, 546.60 162.00" fill="#e3d3a2" stroke="black" stroke-width="2.0" stroke-linecap="round" stroke-linejoin="round"/>
    <line x1="533.6" y1="162" x2="545.6" y2="162" stroke="#e3d3a2" stroke-width="2.4"/>
    <text x="505.0" y="78.0" text-anchor="middle" font-family="Comic Neue, Comic Sans MS, cursive" font-size="13" fill="black"><tspan x="505.0" dy="0">Rob patt be definitely</tspan><tspan x="505.0" dy="16">competing against</tspan><tspan x="505.0" dy="16">himself at upcoming</tspan><tspan x="505.0" dy="16">award season MOMMY ZEN</tspan><tspan x="505.0" dy="16">RAKSSS ALWAYS</tspan></text>
  </g>
</svg>
