<?xml version="1.0" encoding="UTF-8"?>
<svg xmlns="http://www.w3.org/2000/svg" viewBox="0 0 952 398" width="952" height="398" role="img" aria-label="#047 — The Drama (2026)">
  <rect width="100%" height="100%" fill="white"/>
  <text x="476.0" y="32" text-anchor="middle" font-family="Comic Neue, Comic Sans MS, cursive" font-size="15" font-weight="700" fill="black">#047 — The Drama (2026) ★★★★½</text>
    <g class="panel">
    <rect x="14" y="44" width="300" height="340" fill="white" stroke="black" stroke-width="2"/>
    <rect x="29" y="58" width="270" height="102" rx="12" ry="12" fill="white" stroke="black" stroke-width="1.6"/>
    <polygon points="156.0,159 172.0,159 190.0547899780936,240" fill="white" stroke="black" stroke-width="1.6"/>
    <line x1="157.0" y1="160" x2="171.0" y2="160" stroke="white" stroke-width="2.2"/>
    <text x="164.0" y="76" text-anchor="middle" font-family="Comic Neue, Comic Sans MS, cursive" font-size="13" fill="black"><tspan x="164.0" dy="0">This review may</tspan><tspan x="164.0" dy="16">contain spoilers.</tspan><tspan x="164.0" dy="16">classic a24 fookin</tspan><tspan x="164.0" dy="16">love the way they</tspan><tspan x="164.0" dy="16">touched some serious</tspan></text>
    <circle cx="190.0547899780936" cy="254" r="14" fill="none" stroke="black" stroke-width="2.2"/>
    <line x1="190.0547899780936" y1="268" x2="190.0547899780936" y2="308" stroke="black" stroke-width="2.2"/>
    <line x1="190.0547899780936" y1="280" x2="172.0547899780936" y2="298" stroke="black" stroke-width="2.2"/>
    <line x1="190.0547899780936" y1="280" x2="208.0547899780936" y2="298" stroke="black" stroke-width="2.2"/>
    <line x1="190.0547899780936" y1="308" x2="176.0547899780936" y2="336" stroke="black" stroke-width="2.2"/>
    <line x1="190.0547899780936" y1="308" x2="204.0547899780936" y2="336" stroke="black" stroke-width="2.2"/>
    <line x1="34" y1="350" x2="294" y2="350" stroke="black" stroke-width="1.5"/>
</g>
  <g class="panel">
    <rect x="326" y="44" width="300" height="340" fill="white" stroke="black" stroke-width="2"/>
    <rect x="341" y="58" width="270" height="38" rx="12" ry="12" fill="white" stroke="black" stroke-width="1.6"/>
    <polygon points="468.0,95 484.0,95 490.79748822633667,240" fill="white" stroke="black" stroke-width="1.6"/>
    <line x1="469.0" y1="96" x2="483.0" y2="96" stroke="white" stroke-width="2.2"/>
    <text x="476.0" y="76" text-anchor="middle" font-family="Comic Neue, Comic Sans MS, cursive" font-size="13" fill="black"><tspan x="476.0" dy="0">ACTING.</tspan></text>
    <circle cx="490.79748822633667" cy="254" r="14" fill="none" stroke="black" stroke-width="2.2"/>
    <line x1="490.79748822633667" y1="268" x2="490.79748822633667" y2="308" stroke="black" stroke-width="2.2"/>
    <line x1="490.79748822633667" y1="278" x2="468.79748822633667" y2="264" stroke="black" stroke-width="2.2"/>
    <line x1="468.79748822633667" y1="264" x2="464.79748822633667" y2="282" stroke="black" stroke-width="2.2"/>
    <line x1="490.79748822633667" y1="278" x2="512.7974882263367" y2="264" stroke="black" stroke-width="2.2"/>
    <line x1="512.7974882263367" y1="264" x2="516.7974882263367" y2="282" stroke="black" stroke-width="2.2"/>
    <line x1="490.79748822633667" y1="308" x2="476.79748822633667" y2="336" stroke="black" stroke-width="2.2"/>
    <line x1="490.79748822633667" y1="308" x2="504.79748822633667" y2="336" stroke="black" stroke-width="2.2"/>
    <line x1="346" y1="350" x2="606" y2="350" stroke="black" stroke-width="1.5"/>
</g>
  <g class="panel">
    <rect x="638" y="44" width="300" height="340" fill="white" stroke="black" stroke-width="2"/>
    <rect x="653" y="58" width="270" height="102" rx="12" ry="12" fill="white" stroke="black" stroke-width="1.6"/>
    <polygon points="780.0,159 796.0,159 794.0644985216074,240" fill="white" stroke="black" stroke-width="1.6"/>
    <line x1="781.0" y1="160" x2="795.0" y2="160" stroke="white" stroke-width="2.2"/>
    <text x="788.0" y="76" text-anchor="middle" font-family="Comic Neue, Comic Sans MS, cursive" font-size="13" fill="black"><tspan x="788.0" dy="0">Rob patt be definitely</tspan><tspan x="788.0" dy="16">competing against</tspan><tspan x="788.0" dy="16">himself at upcoming</tspan><tspan x="788.0" dy="16">award season MOMMY ZEN</tspan><tspan x="788.0" dy="16">RAKSSS ALWAYS</tspan></text>
    <circle cx="794.0644985216074" cy="254" r="14" fill="none" stroke="black" stroke-width="2.2"/>
    <line x1="794.0644985216074" y1="268" x2="794.0644985216074" y2="308" stroke="black" stroke-width="2.2"/>
    <line x1="794.0644985216074" y1="278" x2="772.0644985216074" y2="264" stroke="black" stroke-width="2.2"/>
    <line x1="772.0644985216074" y1="264" x2="768.0644985216074" y2="282" stroke="black" stroke-width="2.2"/>
    <line x1="794.0644985216074" y1="278" x2="816.0644985216074" y2="264" stroke="black" stroke-width="2.2"/>
    <line x1="816.0644985216074" y1="264" x2="820.0644985216074" y2="282" stroke="black" stroke-width="2.2"/>
    <line x1="794.0644985216074" y1="308" x2="780.0644985216074" y2="336" stroke="black" stroke-width="2.2"/>
    <line x1="794.0644985216074" y1="308" x2="808.0644985216074" y2="336" stroke="black" stroke-width="2.2"/>
    <line x1="658" y1="350" x2="918" y2="350" stroke="black" stroke-width="1.5"/>
</g>
</svg>
