<?xml version="1.0" encoding="UTF-8"?>
<svg xmlns="http://www.w3.org/2000/svg" viewBox="0 0 412 402" width="412" height="402" role="img" aria-label="#048 — Midnight in Paris (2011)">
  <defs><filter id="grain" x="0%" y="0%" width="100%" height="100%"><feTurbulence type="fractalNoise" baseFrequency="0.85" numOctaves="2" stitchTiles="stitch" seed="4"/><feColorMatrix values="0 0 0 0 0.32  0 0 0 0 0.22  0 0 0 0 0.13  0 0 0 -1.4 0.55"/></filter></defs>
  <rect width="100%" height="100%" fill="#f1e7cc"/>
  <rect width="100%" height="100%" filter="url(#grain)" opacity="0.75"/>
  <text x="206.0" y="34" text-anchor="middle" font-family="Comic Neue, Comic Sans MS, cursive" font-size="16" font-weight="700" fill="black">#048 — Midnight in Paris (2011) ★★★★★</text>
  <g class="panel">
    <path d="M 16.00 46.00 C 142.67 45.38, 269.33 45.91, 396.00 46.00 C 395.97 159.33, 396.13 272.67, 396.00 386.00 C 269.33 386.21, 142.67 385.85, 16.00 386.00 C 15.80 272.67, 15.20 159.33, 16.00 46.00" fill="none" stroke="black" stroke-width="2.0" stroke-linecap="round" stroke-linejoin="round"/>
    <path d="M 26.00 356.00 C 146.00 356.52, 266.00 355.71, 386.00 356.00" fill="none" stroke="black" stroke-width="1.4" stroke-linecap="round"/>
    <path d="M 30.00 280.00 C 56.67 280.73, 83.33 280.69, 110.00 280.00 C 110.47 298.67, 110.14 317.33, 110.00 336.00 C 83.33 336.50, 56.67 336.43, 30.00 336.00 C 29.31 317.33, 30.46 298.67, 30.00 280.00" fill="none" stroke="black" stroke-width="2.0" stroke-linecap="round" stroke-linejoin="round"/>
    <path d="M 36.00 286.00 C 58.67 286.03, 81.33 285.95, 104.00 286.00 C 104.61 300.67, 103.62 315.33, 104.00 330.00 C 81.33 329.81, 58.67 330.16, 36.00 330.00 C 36.64 315.33, 36.31 300.67, 36.00 286.00" fill="none" stroke="black" stroke-width="2.0" stroke-linecap="round" stroke-linejoin="round"/>
    <path d="M 56.00 336.00 C 65.33 336.29, 74.67 336.37, 84.00 336.00" fill="none" stroke="black" stroke-width="1.4" stroke-linecap="round"/>
    <path d="M 70.00 336.00 C 70.05 338.67, 69.13 341.33, 70.00 344.00" fill="none" stroke="black" stroke-width="1.4" stroke-linecap="round"/>
    <path d="M 56.00 346.00 C 65.33 346.93, 74.67 345.43, 84.00 346.00" fill="none" stroke="black" stroke-width="1.4" stroke-linecap="round"/>
    <path d="M 42.00 322.00 C 45.03 313.22, 48.29 304.52, 52.00 296.00 C 56.64 305.35, 60.64 315.01, 66.00 324.00 C 71.12 315.58, 75.09 306.53, 80.00 298.00 C 85.80 305.00, 90.59 312.72, 96.00 320.00" fill="none" stroke="black" stroke-width="2.0" stroke-linecap="round" stroke-linejoin="round"/>
    <path d="M 110.00 300.00 C 160.67 299.46, 211.33 299.93, 262.00 300.00 C 262.63 310.00, 262.12 320.00, 262.00 330.00 C 211.33 329.29, 160.67 330.44, 110.00 330.00 C 109.29 320.00, 110.18 310.00, 110.00 300.00" fill="none" stroke="black" stroke-width="2.0" stroke-linecap="round" stroke-linejoin="round"/>
    <path d="M 110.00 330.00 C 160.67 329.62, 211.33 330.12, 262.00 330.00 C 262.28 342.00, 261.52 354.00, 262.00 366.00 C 211.33 366.55, 160.67 366.72, 110.00 366.00 C 110.17 354.00, 110.51 342.00, 110.00 330.00" fill="none" stroke="black" stroke-width="2.0" stroke-linecap="round" stroke-linejoin="round"/>
    <path d="M 102.00 312.00 C 104.67 312.19, 107.33 312.10, 110.00 312.00 C 110.36 330.00, 110.08 348.00, 110.00 366.00 C 107.33 365.90, 104.67 365.42, 102.00 366.00 C 102.24 348.00, 101.21 330.00, 102.00 312.00" fill="none" stroke="black" stroke-width="2.0" stroke-linecap="round" stroke-linejoin="round"/>
    <path d="M 262.00 312.00 C 264.67 312.64, 267.33 311.88, 270.00 312.00 C 269.34 330.00, 269.93 348.00, 270.00 366.00 C 267.33 365.97, 264.67 366.62, 262.00 366.00 C 261.77 348.00, 261.57 330.00, 262.00 312.00" fill="none" stroke="black" stroke-width="2.0" stroke-linecap="round" stroke-linejoin="round"/>
    <path d="M 186.00 330.00 C 186.06 342.00, 185.44 354.00, 186.00 366.00" fill="none" stroke="black" stroke-width="1.4" stroke-linecap="round"/>
    <path d="M 158.06 300.00 C 157.68 301.55, 157.36 303.11, 157.39 304.72 C 156.56 306.09, 155.71 307.45, 154.70 308.70 C 153.27 309.42, 152.09 310.53, 150.65 311.23 C 149.03 311.44, 147.53 312.08, 146.00 312.60 C 144.40 312.22, 143.05 311.31, 141.61 310.60 C 140.11 310.07, 138.79 309.14, 137.22 308.78 C 136.33 307.45, 136.05 305.82, 135.14 304.50 C 135.08 302.92, 134.41 301.49, 134.01 300.00 C 134.70 298.56, 134.93 297.01, 134.97 295.43 C 135.85 294.16, 136.57 292.78, 137.65 291.65 C 138.85 290.60, 139.77 289.24, 141.23 288.47 C 142.86 288.53, 144.39 287.87, 146.00 287.76 C 147.56 288.02, 148.99 288.70, 150.49 289.16 C 151.78 290.00, 153.23 290.57, 154.38 291.62 C 155.48 292.74, 156.37 294.00, 156.94 295.47 C 157.59 296.91, 158.00 298.41, 158.06 300.00" fill="none" stroke="black" stroke-width="2.0" stroke-linecap="round"/>
    <path d="M 132.00 290.00 C 141.33 289.30, 150.67 290.62, 160.00 290.00 C 159.21 287.06, 157.98 284.34, 156.00 282.00 C 149.33 282.73, 142.67 281.79, 136.00 282.00 C 134.85 284.76, 132.79 287.06, 132.00 290.00" fill="black" stroke="black" stroke-width="2.0" stroke-linecap="round" stroke-linejoin="round"/>
    <path d="M 157.81 282.00 C 158.17 282.20, 158.34 282.48, 158.17 282.90 C 157.85 283.02, 157.52 283.11, 157.18 283.18 C 156.91 283.35, 156.75 283.58, 156.79 283.91 C 156.53 283.99, 156.36 284.42, 156.00 284.13 C 155.53 284.16, 155.46 283.82, 155.39 283.47 C 155.10 283.85, 154.78 283.71, 154.45 283.55 C 154.42 283.21, 153.92 283.23, 153.91 282.87 C 153.93 282.57, 153.71 282.22, 154.09 282.00 C 153.93 281.65, 154.10 281.46, 154.41 281.34 C 154.63 280.98, 154.22 280.68, 154.33 280.33 C 154.60 280.19, 154.98 280.28, 155.14 279.93 C 155.57 280.07, 155.55 279.31, 156.00 279.50 C 156.11 279.91, 156.14 280.36, 156.58 280.61 C 156.85 280.30, 157.15 280.28, 157.48 280.52 C 157.57 280.85, 157.75 281.19, 157.34 281.45 C 157.24 281.85, 157.83 281.66, 157.81 282.00" fill="black" stroke="black" stroke-width="2.0" stroke-linecap="round"/>
    <path d="M 146.00 312.00 C 146.60 321.33, 146.92 330.67, 146.00 340.00" fill="none" stroke="black" stroke-width="2.0" stroke-linecap="round"/>
    <path d="M 146.00 326.00 C 141.01 330.46, 135.21 333.83, 130.00 338.00" fill="none" stroke="black" stroke-width="2.0" stroke-linecap="round"/>
    <path d="M 146.00 326.00 C 151.00 330.44, 156.31 334.48, 162.00 338.00" fill="none" stroke="black" stroke-width="2.0" stroke-linecap="round"/>
    <path d="M 146.00 340.00 C 154.00 340.15, 162.00 339.00, 170.00 340.00" fill="none" stroke="black" stroke-width="2.0" stroke-linecap="round"/>
    <path d="M 170.00 340.00 C 170.68 346.00, 171.51 351.98, 172.00 358.00" fill="none" stroke="black" stroke-width="2.0" stroke-linecap="round"/>
    <path d="M 146.00 340.00 C 143.64 346.14, 139.87 351.65, 138.00 358.00" fill="none" stroke="black" stroke-width="2.0" stroke-linecap="round"/>
    <path d="M 238.31 300.00 C 237.96 301.54, 237.40 303.02, 236.86 304.50 C 236.33 306.01, 235.32 307.29, 234.81 308.81 C 233.42 309.60, 231.99 310.29, 230.50 310.87 C 229.03 311.29, 227.47 311.33, 226.00 311.76 C 224.42 311.75, 222.87 311.43, 221.30 311.35 C 219.81 310.70, 218.64 309.56, 217.28 308.72 C 216.16 307.54, 215.25 306.21, 214.53 304.75 C 214.43 303.11, 213.57 301.64, 213.50 300.00 C 214.02 298.48, 214.57 296.97, 214.84 295.38 C 215.92 294.23, 216.58 292.78, 217.57 291.57 C 218.61 290.34, 220.21 289.88, 221.36 288.81 C 222.87 288.33, 224.48 288.51, 226.00 288.09 C 227.61 287.94, 229.13 288.71, 230.74 288.57 C 232.12 289.41, 233.46 290.34, 234.87 291.13 C 235.77 292.47, 236.09 294.13, 237.17 295.37 C 237.41 296.95, 237.77 298.50, 238.31 300.00" fill="none" stroke="black" stroke-width="2.0" stroke-linecap="round"/>
    <path d="M 210.00 290.00 C 220.67 290.46, 231.33 289.96, 242.00 290.00 C 240.94 286.56, 239.09 283.43, 238.00 280.00 C 230.00 280.31, 222.00 280.79, 214.00 280.00 C 212.16 283.13, 211.05 286.55, 210.00 290.00" fill="black" stroke="black" stroke-width="2.0" stroke-linecap="round" stroke-linejoin="round"/>
    <path d="M 208.00 290.00 C 220.00 289.26, 232.00 290.01, 244.00 290.00" fill="none" stroke="black" stroke-width="2.0" stroke-linecap="round"/>
    <path d="M 226.00 312.00 C 225.97 321.33, 226.69 330.67, 226.00 340.00" fill="none" stroke="black" stroke-width="2.0" stroke-linecap="round"/>
    <path d="M 226.00 326.00 C 220.16 329.33, 215.51 334.23, 210.00 338.00" fill="none" stroke="black" stroke-width="2.0" stroke-linecap="round"/>
    <path d="M 226.00 326.00 C 230.87 330.62, 236.89 333.70, 242.00 338.00" fill="none" stroke="black" stroke-width="2.0" stroke-linecap="round"/>
    <path d="M 226.00 340.00 C 234.00 339.14, 242.00 340.69, 250.00 340.00" fill="none" stroke="black" stroke-width="2.0" stroke-linecap="round"/>
    <path d="M 250.00 340.00 C 250.83 345.98, 250.88 352.05, 252.00 358.00" fill="none" stroke="black" stroke-width="2.0" stroke-linecap="round"/>
    <path d="M 226.00 340.00 C 223.71 346.17, 221.40 352.33, 218.00 358.00" fill="none" stroke="black" stroke-width="2.0" stroke-linecap="round"/>
    <path d="M 36.00 60.00 C 80.00 59.22, 124.00 60.55, 168.00 60.00 C 171.39 63.28, 175.00 66.34, 178.00 70.00 C 177.70 76.00, 178.19 82.00, 178.00 88.00 C 174.40 91.06, 171.43 94.76, 168.00 98.00 C 124.00 98.52, 80.00 98.79, 36.00 98.00 C 33.03 94.30, 29.52 91.14, 26.00 88.00 C 26.61 82.00, 25.89 76.00, 26.00 70.00 C 29.24 66.57, 33.15 63.81, 36.00 60.00" fill="#f1e7cc" stroke="black" stroke-width="2.0" stroke-linecap="round" stroke-linejoin="round"/>
    <path d="M 131.00 98.00 C 133.51 166.66, 134.87 235.36, 138.00 304.00 C 141.10 235.36, 143.22 166.69, 145.00 98.00" fill="#f1e7cc" stroke="black" stroke-width="2.0" stroke-linecap="round" stroke-linejoin="round"/>
    <line x1="132.0" y1="98" x2="144.0" y2="98" stroke="#f1e7cc" stroke-width="2.4"/>
    <text x="102.0" y="78.0" text-anchor="middle" font-family="Comic Neue, Comic Sans MS, cursive" font-size="13" fill="black"><tspan x="102.0" dy="0">I love yearning🤤</tspan></text>
  </g>
</svg>
