<?xml version="1.0" encoding="UTF-8"?>
<svg xmlns="http://www.w3.org/2000/svg" viewBox="0 0 412 402" width="412" height="402" role="img" aria-label="#050 — Tenet (2020)">
  <defs><filter id="fibers" x="0%" y="0%" width="100%" height="100%"><feTurbulence type="fractalNoise" baseFrequency="0.04 0.7" numOctaves="2" stitchTiles="stitch" seed="8"/><feColorMatrix values="0 0 0 0 0.38  0 0 0 0 0.26  0 0 0 0 0.13  0 0 0 -0.7 0.28"/></filter><filter id="grain" x="0%" y="0%" width="100%" height="100%"><feTurbulence type="fractalNoise" baseFrequency="0.65" numOctaves="3" stitchTiles="stitch" seed="6"/><feColorMatrix values="0 0 0 0 0.42  0 0 0 0 0.30  0 0 0 0 0.16  0 0 0 -1.1 0.5"/></filter></defs>
  <rect width="100%" height="100%" fill="#e3d3a2"/>
  <rect width="100%" height="100%" filter="url(#fibers)" opacity="0.55"/>
  <rect width="100%" height="100%" filter="url(#grain)" opacity="0.85"/>
  <text x="206.0" y="34" text-anchor="middle" font-family="Comic Neue, Comic Sans MS, cursive" font-size="16" font-weight="700" fill="black">#050 — Tenet (2020) ★★★★★</text>
  <g class="panel">
    <path d="M 16.00 46.00 C 142.67 46.77, 269.33 45.22, 396.00 46.00 C 395.48 159.33, 395.64 272.67, 396.00 386.00 C 269.33 386.48, 142.67 385.27, 16.00 386.00 C 16.78 272.67, 16.40 159.33, 16.00 46.00" fill="none" stroke="black" stroke-width="2.0" stroke-linecap="round" stroke-linejoin="round"/>
    <path d="M 26.00 356.00 C 146.00 355.89, 266.00 355.58, 386.00 356.00" fill="none" stroke="black" stroke-width="1.4" stroke-linecap="round"/>
    <path d="M 30.00 280.00 C 56.67 279.43, 83.33 279.20, 110.00 280.00 C 109.74 298.67, 110.46 317.33, 110.00 336.00 C 83.33 336.01, 56.67 336.42, 30.00 336.00 C 30.34 317.33, 30.26 298.67, 30.00 280.00" fill="none" stroke="black" stroke-width="2.0" stroke-linecap="round" stroke-linejoin="round"/>
    <path d="M 36.00 286.00 C 58.67 286.59, 81.33 285.93, 104.00 286.00 C 103.98 300.67, 103.21 315.33, 104.00 330.00 C 81.33 330.70, 58.67 330.51, 36.00 330.00 C 35.57 315.33, 35.61 300.67, 36.00 286.00" fill="none" stroke="black" stroke-width="2.0" stroke-linecap="round" stroke-linejoin="round"/>
    <path d="M 56.00 336.00 C 65.33 336.69, 74.67 336.82, 84.00 336.00" fill="none" stroke="black" stroke-width="1.4" stroke-linecap="round"/>
    <path d="M 70.00 336.00 C 70.45 338.67, 70.35 341.33, 70.00 344.00" fill="none" stroke="black" stroke-width="1.4" stroke-linecap="round"/>
    <path d="M 56.00 346.00 C 65.33 346.41, 74.67 346.35, 84.00 346.00" fill="none" stroke="black" stroke-width="1.4" stroke-linecap="round"/>
    <path d="M 42.00 322.00 C 44.96 313.19, 48.58 304.63, 52.00 296.00 C 56.30 305.51, 61.46 314.60, 66.00 324.00 C 70.19 315.08, 74.67 306.31, 80.00 298.00 C 85.00 305.58, 90.67 312.66, 96.00 320.00" fill="none" stroke="black" stroke-width="2.0" stroke-linecap="round" stroke-linejoin="round"/>
    <path d="M 110.00 300.00 C 160.67 299.67, 211.33 299.26, 262.00 300.00 C 261.95 310.00, 262.01 320.00, 262.00 330.00 C 211.33 329.91, 160.67 329.76, 110.00 330.00 C 109.86 320.00, 109.45 310.00, 110.00 300.00" fill="none" stroke="black" stroke-width="2.0" stroke-linecap="round" stroke-linejoin="round"/>
    <path d="M 110.00 330.00 C 160.67 329.96, 211.33 330.39, 262.00 330.00 C 261.36 342.00, 261.65 354.00, 262.00 366.00 C 211.33 365.41, 160.67 366.33, 110.00 366.00 C 110.02 354.00, 110.24 342.00, 110.00 330.00" fill="none" stroke="black" stroke-width="2.0" stroke-linecap="round" stroke-linejoin="round"/>
    <path d="M 102.00 312.00 C 104.67 312.69, 107.33 312.32, 110.00 312.00 C 109.33 330.00, 109.26 348.00, 110.00 366.00 C 107.33 366.48, 104.67 365.87, 102.00 366.00 C 102.24 348.00, 102.06 330.00, 102.00 312.00" fill="none" stroke="black" stroke-width="2.0" stroke-linecap="round" stroke-linejoin="round"/>
    <path d="M 262.00 312.00 C 264.67 312.65, 267.33 312.02, 270.00 312.00 C 269.27 330.00, 269.89 348.00, 270.00 366.00 C 267.33 366.30, 264.67 365.22, 262.00 366.00 C 261.91 348.00, 261.86 330.00, 262.00 312.00" fill="none" stroke="black" stroke-width="2.0" stroke-linecap="round" stroke-linejoin="round"/>
    <path d="M 186.00 330.00 C 185.62 342.00, 186.64 354.00, 186.00 366.00" fill="none" stroke="black" stroke-width="1.4" stroke-linecap="round"/>
    <path d="M 157.60 300.00 C 157.07 301.45, 156.75 302.93, 156.81 304.48 C 156.26 305.94, 154.92 306.90, 154.34 308.34 C 153.01 309.24, 152.09 310.61, 150.77 311.53 C 149.16 311.26, 147.59 311.59, 146.00 311.79 C 144.54 311.35, 142.99 311.28, 141.58 310.68 C 140.28 309.79, 138.95 308.96, 137.38 308.62 C 136.32 307.42, 135.41 306.11, 134.64 304.71 C 134.38 303.15, 134.47 301.56, 134.19 300.00 C 134.21 298.41, 134.10 296.81, 134.51 295.24 C 135.41 293.91, 136.25 292.54, 137.41 291.41 C 138.67 290.43, 140.18 289.79, 141.27 288.57 C 142.85 288.48, 144.45 288.64, 146.00 288.13 C 147.60 288.13, 149.22 287.97, 150.79 288.44 C 151.88 289.62, 153.41 290.30, 154.34 291.66 C 155.43 292.78, 155.90 294.30, 156.87 295.50 C 156.95 297.02, 157.44 298.48, 157.60 300.00" fill="none" stroke="black" stroke-width="2.0" stroke-linecap="round"/>
    <path d="M 132.00 290.00 C 141.33 290.46, 150.67 290.22, 160.00 290.00 C 158.66 287.34, 157.68 284.49, 156.00 282.00 C 149.33 281.47, 142.67 282.00, 136.00 282.00 C 134.08 284.37, 133.74 287.54, 132.00 290.00" fill="black" stroke="black" stroke-width="2.0" stroke-linecap="round" stroke-linejoin="round"/>
    <path d="M 157.45 282.00 C 157.50 282.23, 157.46 282.50, 157.66 282.69 C 157.27 282.63, 157.22 282.90, 157.18 283.18 C 156.74 283.24, 157.06 283.73, 156.78 283.89 C 156.65 283.44, 156.22 283.82, 156.00 283.61 C 155.84 283.99, 155.37 283.67, 155.18 283.98 C 155.31 283.62, 155.16 283.31, 154.99 283.01 C 154.63 283.03, 154.33 282.72, 153.95 282.85 C 154.11 282.52, 153.92 282.27, 153.78 282.00 C 154.06 281.82, 154.32 281.64, 154.16 281.24 C 154.12 280.92, 154.61 280.70, 154.34 280.34 C 154.56 280.10, 154.58 279.66, 155.01 279.62 C 155.30 279.96, 155.71 279.42, 156.00 279.75 C 156.06 280.12, 156.42 280.25, 156.62 280.51 C 156.90 280.36, 157.08 280.67, 157.33 280.67 C 157.66 280.70, 157.71 281.06, 157.97 281.19 C 157.90 281.52, 157.29 281.52, 157.45 282.00" fill="black" stroke="black" stroke-width="2.0" stroke-linecap="round"/>
    <path d="M 146.00 312.00 C 145.04 321.33, 145.55 330.67, 146.00 340.00" fill="none" stroke="black" stroke-width="2.0" stroke-linecap="round"/>
    <path d="M 146.00 326.00 C 140.72 330.07, 135.43 334.13, 130.00 338.00" fill="none" stroke="black" stroke-width="2.0" stroke-linecap="round"/>
    <path d="M 146.00 326.00 C 151.81 329.37, 156.07 334.79, 162.00 338.00" fill="none" stroke="black" stroke-width="2.0" stroke-linecap="round"/>
    <path d="M 146.00 340.00 C 154.00 340.32, 162.00 340.12, 170.00 340.00" fill="none" stroke="black" stroke-width="2.0" stroke-linecap="round"/>
    <path d="M 170.00 340.00 C 170.81 345.98, 170.55 352.09, 172.00 358.00" fill="none" stroke="black" stroke-width="2.0" stroke-linecap="round"/>
    <path d="M 146.00 340.00 C 143.71 346.17, 139.76 351.60, 138.00 358.00" fill="none" stroke="black" stroke-width="2.0" stroke-linecap="round"/>
    <path d="M 238.12 300.00 C 237.90 301.58, 237.44 303.13, 237.44 304.74 C 236.47 306.00, 235.19 306.96, 234.20 308.20 C 232.93 309.16, 231.78 310.24, 230.75 311.46 C 229.16 311.22, 227.58 311.28, 226.00 311.58 C 224.48 311.19, 222.88 311.69, 221.38 311.16 C 220.24 310.01, 218.55 309.72, 217.38 308.62 C 216.39 307.38, 215.59 306.03, 214.91 304.60 C 214.90 303.03, 214.69 301.49, 214.19 300.00 C 213.99 298.40, 214.20 296.84, 214.69 295.31 C 215.77 294.17, 216.75 292.95, 217.66 291.66 C 219.13 291.18, 220.45 290.42, 221.60 289.38 C 223.04 288.84, 224.53 288.48, 226.00 288.06 C 227.61 287.99, 229.15 288.65, 230.77 288.48 C 231.88 289.63, 233.04 290.72, 234.33 291.67 C 235.26 292.89, 236.06 294.19, 236.82 295.52 C 236.99 297.09, 237.56 298.54, 238.12 300.00" fill="none" stroke="black" stroke-width="2.0" stroke-linecap="round"/>
    <path d="M 226.00 312.00 C 226.86 321.33, 225.04 330.67, 226.00 340.00" fill="none" stroke="black" stroke-width="2.0" stroke-linecap="round"/>
    <path d="M 226.00 326.00 C 220.10 329.25, 214.76 333.24, 210.00 338.00" fill="none" stroke="black" stroke-width="2.0" stroke-linecap="round"/>
    <path d="M 226.00 326.00 C 231.44 329.86, 236.47 334.26, 242.00 338.00" fill="none" stroke="black" stroke-width="2.0" stroke-linecap="round"/>
    <path d="M 226.00 340.00 C 234.00 340.77, 242.00 339.59, 250.00 340.00" fill="none" stroke="black" stroke-width="2.0" stroke-linecap="round"/>
    <path d="M 250.00 340.00 C 251.39 345.92, 251.81 351.95, 252.00 358.00" fill="none" stroke="black" stroke-width="2.0" stroke-linecap="round"/>
    <path d="M 226.00 340.00 C 224.10 346.34, 221.43 352.34, 218.00 358.00" fill="none" stroke="black" stroke-width="2.0" stroke-linecap="round"/>
    <path d="M 36.00 60.00 C 86.00 59.94, 136.00 59.80, 186.00 60.00 C 189.89 62.77, 193.18 66.15, 196.00 70.00 C 196.76 86.67, 195.88 103.33, 196.00 120.00 C 192.89 123.55, 189.42 126.75, 186.00 130.00 C 136.00 129.44, 86.00 129.28, 36.00 130.00 C 32.78 126.55, 29.04 123.63, 26.00 120.00 C 25.64 103.33, 25.89 86.67, 26.00 70.00 C 29.41 66.75, 32.89 63.56, 36.00 60.00" fill="#e3d3a2" stroke="black" stroke-width="2.0" stroke-linecap="round" stroke-linejoin="round"/>
    <path d="M 131.00 130.00 C 132.73 188.02, 135.27 246.02, 138.00 304.00 C 140.07 245.99, 141.95 187.97, 145.00 130.00" fill="#e3d3a2" stroke="black" stroke-width="2.0" stroke-linecap="round" stroke-linejoin="round"/>
    <line x1="132.0" y1="130" x2="144.0" y2="130" stroke="#e3d3a2" stroke-width="2.4"/>
    <text x="111.0" y="78.0" text-anchor="middle" font-family="Comic Neue, Comic Sans MS, cursive" font-size="13" fill="black"><tspan x="111.0" dy="0">I&#x27;ll see you at the</tspan><tspan x="111.0" dy="16">beginning ma friend</tspan><tspan x="111.0" dy="16">stap it neil</tspan></text>
  </g>
</svg>
