<?xml version="1.0" encoding="UTF-8"?>
<svg xmlns="http://www.w3.org/2000/svg" viewBox="0 0 806 402" width="806" height="402" role="img" aria-label="#051 — The Devil Wears Prada 2 (2026)">
  <defs><filter id="fibers" x="0%" y="0%" width="100%" height="100%"><feTurbulence type="fractalNoise" baseFrequency="0.04 0.7" numOctaves="2" stitchTiles="stitch" seed="11"/><feColorMatrix values="0 0 0 0 0.38  0 0 0 0 0.26  0 0 0 0 0.13  0 0 0 -0.7 0.28"/></filter><filter id="grain" x="0%" y="0%" width="100%" height="100%"><feTurbulence type="fractalNoise" baseFrequency="0.65" numOctaves="3" stitchTiles="stitch" seed="7"/><feColorMatrix values="0 0 0 0 0.42  0 0 0 0 0.30  0 0 0 0 0.16  0 0 0 -1.1 0.5"/></filter></defs>
  <rect width="100%" height="100%" fill="#e3d3a2"/>
  <rect width="100%" height="100%" filter="url(#fibers)" opacity="0.55"/>
  <rect width="100%" height="100%" filter="url(#grain)" opacity="0.85"/>
  <text x="403.0" y="34" text-anchor="middle" font-family="Comic Neue, Comic Sans MS, cursive" font-size="16" font-weight="700" fill="black">#051 — The Devil Wears Prada 2 (2026) ★★★★</text>
  <g class="panel">
    <path d="M 16.00 46.00 C 142.67 45.23, 269.33 45.39, 396.00 46.00 C 395.96 159.33, 395.85 272.67, 396.00 386.00 C 269.33 385.91, 142.67 386.36, 16.00 386.00 C 16.04 272.67, 16.33 159.33, 16.00 46.00" fill="none" stroke="black" stroke-width="2.0" stroke-linecap="round" stroke-linejoin="round"/>
    <path d="M 26.00 362.00 C 146.00 362.48, 266.00 362.69, 386.00 362.00" fill="none" stroke="black" stroke-width="1.4" stroke-linecap="round"/>
    <path d="M 84.40 314.00 C 104.40 313.65, 124.40 313.29, 144.40 314.00 C 145.01 324.67, 143.90 335.33, 144.40 346.00 C 124.40 345.32, 104.40 345.51, 84.40 346.00 C 84.08 335.33, 84.57 324.67, 84.40 314.00" fill="none" stroke="black" stroke-width="2.0" stroke-linecap="round" stroke-linejoin="round"/>
    <path d="M 84.40 302.00 C 104.40 302.79, 124.40 302.23, 144.40 302.00 C 143.87 306.00, 144.43 310.00, 144.40 314.00 C 124.40 313.28, 104.40 314.66, 84.40 314.00 C 84.92 310.00, 85.02 306.00, 84.40 302.00" fill="#e3d3a2" stroke="black" stroke-width="2.0" stroke-linecap="round" stroke-linejoin="round"/>
    <path d="M 88.40 314.00 C 92.47 310.07, 96.19 305.79, 100.40 302.00 C 103.07 301.48, 105.73 301.46, 108.40 302.00 C 104.25 305.85, 100.63 310.23, 96.40 314.00 C 93.73 313.77, 91.07 313.71, 88.40 314.00" fill="black" stroke="black" stroke-width="2.0" stroke-linecap="round" stroke-linejoin="round"/>
    <path d="M 112.40 314.00 C 116.37 309.97, 120.65 306.25, 124.40 302.00 C 127.07 302.28, 129.73 301.93, 132.40 302.00 C 128.95 306.55, 124.26 309.86, 120.40 314.00 C 117.73 314.23, 115.07 314.23, 112.40 314.00" fill="black" stroke="black" stroke-width="2.0" stroke-linecap="round" stroke-linejoin="round"/>
    <path d="M 278.79 270.00 C 278.49 271.58, 278.13 273.16, 278.37 274.79 C 277.36 276.07, 276.64 277.54, 275.57 278.77 C 274.21 279.61, 272.62 280.08, 271.46 281.24 C 269.89 281.39, 268.31 281.47, 266.80 281.95 C 265.21 281.87, 263.63 281.70, 262.05 281.46 C 260.70 280.57, 259.43 279.57, 258.00 278.80 C 256.95 277.55, 256.49 275.99, 255.72 274.59 C 255.65 272.96, 255.20 271.44, 254.44 270.00 C 254.72 268.43, 255.45 266.98, 255.70 265.40 C 256.49 264.04, 257.36 262.72, 258.15 261.35 C 259.53 260.57, 260.92 259.83, 262.19 258.88 C 263.67 258.25, 265.23 258.16, 266.80 258.12 C 268.39 258.05, 269.84 258.91, 271.43 258.82 C 272.62 259.87, 273.93 260.75, 275.38 261.42 C 276.40 262.66, 277.05 264.18, 278.31 265.23 C 278.56 266.81, 278.32 268.44, 278.79 270.00" fill="none" stroke="black" stroke-width="2.0" stroke-linecap="round"/>
    <path d="M 254.80 268.00 C 254.35 278.68, 253.94 289.36, 252.80 300.00" fill="none" stroke="black" stroke-width="2.0" stroke-linecap="round"/>
    <path d="M 256.80 266.00 C 255.14 278.61, 254.54 291.28, 254.80 304.00" fill="none" stroke="black" stroke-width="2.0" stroke-linecap="round"/>
    <path d="M 278.80 268.00 C 279.10 278.69, 280.47 289.31, 280.80 300.00" fill="none" stroke="black" stroke-width="2.0" stroke-linecap="round"/>
    <path d="M 262.80 258.00 C 261.67 256.93, 259.89 257.15, 258.80 256.00" fill="none" stroke="black" stroke-width="1.4" stroke-linecap="round"/>
    <path d="M 270.80 258.00 C 272.33 257.74, 273.85 257.44, 274.80 256.00" fill="none" stroke="black" stroke-width="1.4" stroke-linecap="round"/>
    <path d="M 266.80 282.00 C 266.56 296.00, 266.39 310.00, 266.80 324.00" fill="none" stroke="black" stroke-width="2.0" stroke-linecap="round"/>
    <path d="M 266.80 292.00 C 257.41 291.04, 248.25 288.52, 238.80 288.00" fill="none" stroke="black" stroke-width="2.0" stroke-linecap="round"/>
    <path d="M 266.80 292.00 C 271.62 298.46, 278.14 303.41, 282.80 310.00" fill="none" stroke="black" stroke-width="2.0" stroke-linecap="round"/>
    <path d="M 266.80 324.00 C 263.32 332.91, 257.90 340.92, 254.80 350.00" fill="none" stroke="black" stroke-width="2.0" stroke-linecap="round"/>
    <path d="M 266.80 324.00 C 271.10 332.53, 274.51 341.47, 278.80 350.00" fill="none" stroke="black" stroke-width="2.0" stroke-linecap="round"/>
    <path d="M 226.00 60.00 C 276.00 60.44, 326.00 60.02, 376.00 60.00 C 379.62 63.05, 382.45 66.89, 386.00 70.00 C 385.66 86.67, 386.60 103.33, 386.00 120.00 C 382.36 123.03, 379.65 126.99, 376.00 130.00 C 326.00 129.68, 276.00 130.45, 226.00 130.00 C 222.23 127.10, 218.86 123.80, 216.00 120.00 C 215.50 103.33, 215.92 86.67, 216.00 70.00 C 219.44 66.77, 222.36 63.02, 226.00 60.00" fill="#e3d3a2" stroke="black" stroke-width="2.0" stroke-linecap="round" stroke-linejoin="round"/>
    <path d="M 251.80 130.00 C 254.79 177.97, 256.33 226.01, 258.80 274.00 C 261.13 226.00, 263.55 178.00, 265.80 130.00" fill="#e3d3a2" stroke="black" stroke-width="2.0" stroke-linecap="round" stroke-linejoin="round"/>
    <line x1="252.8" y1="130" x2="264.8" y2="130" stroke="#e3d3a2" stroke-width="2.4"/>
    <text x="301.0" y="78.0" text-anchor="middle" font-family="Comic Neue, Comic Sans MS, cursive" font-size="13" fill="black"><tspan x="301.0" dy="0">fantastica, that&#x27;s</tspan><tspan x="301.0" dy="16">all. I LOVE TUCCIII</tspan><tspan x="301.0" dy="16">MANN</tspan></text>
  </g>
  <g class="panel">
    <path d="M 410.00 46.00 C 536.67 45.61, 663.33 46.01, 790.00 46.00 C 790.22 159.33, 790.00 272.67, 790.00 386.00 C 663.33 385.82, 536.67 386.52, 410.00 386.00 C 410.39 272.67, 410.53 159.33, 410.00 46.00" fill="none" stroke="black" stroke-width="2.0" stroke-linecap="round" stroke-linejoin="round"/>
    <path d="M 420.00 362.00 C 540.00 361.26, 660.00 361.19, 780.00 362.00" fill="none" stroke="black" stroke-width="1.4" stroke-linecap="round"/>
    <path d="M 574.49 270.00 C 574.15 271.59, 573.62 273.15, 573.57 274.79 C 572.67 276.14, 571.38 277.21, 570.75 278.75 C 569.22 279.32, 568.19 280.70, 566.68 281.29 C 565.10 280.98, 563.56 281.32, 562.00 281.47 C 560.49 281.07, 558.93 281.22, 557.39 281.12 C 556.10 280.17, 554.53 279.71, 553.23 278.77 C 552.45 277.34, 551.59 275.97, 550.49 274.77 C 549.78 273.26, 550.01 271.53, 549.41 270.00 C 550.24 268.59, 550.19 266.86, 551.09 265.48 C 552.14 264.25, 552.57 262.69, 553.28 261.28 C 554.76 260.74, 556.16 260.01, 557.57 259.29 C 558.92 258.41, 560.44 257.94, 562.00 257.60 C 563.43 258.29, 565.06 258.48, 566.37 259.45 C 567.90 259.84, 569.38 260.37, 570.66 261.34 C 571.74 262.55, 571.79 264.30, 572.88 265.49 C 573.58 266.94, 574.15 268.43, 574.49 270.00" fill="none" stroke="black" stroke-width="2.0" stroke-linecap="round"/>
    <path d="M 546.00 260.00 C 556.67 260.56, 567.33 260.07, 578.00 260.00 C 577.05 256.51, 574.62 253.62, 574.00 250.00 C 566.00 249.69, 558.00 250.31, 550.00 250.00 C 548.36 253.21, 547.11 256.58, 546.00 260.00" fill="black" stroke="black" stroke-width="2.0" stroke-linecap="round" stroke-linejoin="round"/>
    <path d="M 544.00 260.00 C 556.00 259.17, 568.00 259.98, 580.00 260.00" fill="none" stroke="black" stroke-width="2.0" stroke-linecap="round"/>
    <path d="M 562.00 282.00 C 562.17 296.00, 561.59 310.00, 562.00 324.00" fill="none" stroke="black" stroke-width="2.0" stroke-linecap="round"/>
    <path d="M 562.00 292.00 C 567.25 287.92, 570.69 282.02, 576.00 278.00" fill="none" stroke="black" stroke-width="2.0" stroke-linecap="round"/>
    <path d="M 576.00 278.00 C 573.30 277.47, 570.44 277.58, 568.00 276.00" fill="none" stroke="black" stroke-width="2.0" stroke-linecap="round"/>
    <path d="M 562.00 292.00 C 555.98 297.39, 551.59 304.22, 546.00 310.00" fill="none" stroke="black" stroke-width="2.0" stroke-linecap="round"/>
    <path d="M 562.00 324.00 C 557.98 332.66, 553.14 340.93, 550.00 350.00" fill="none" stroke="black" stroke-width="2.0" stroke-linecap="round"/>
    <path d="M 562.00 324.00 C 566.40 332.48, 570.91 340.92, 574.00 350.00" fill="none" stroke="black" stroke-width="2.0" stroke-linecap="round"/>
    <path d="M 784.00 87.00 C 778.67 91.25, 773.72 95.97, 767.90 99.58 C 759.69 104.48, 751.22 108.94, 743.34 114.36 C 728.46 114.77, 713.57 114.86, 698.70 115.27 C 683.09 116.95, 667.53 119.07, 651.97 121.12 C 638.66 117.73, 625.62 113.39, 612.40 109.67 C 601.26 106.76, 589.76 105.45, 578.70 102.19 C 576.89 97.20, 574.86 92.28, 574.00 87.00 C 576.26 82.15, 576.73 76.75, 578.70 71.81 C 590.00 69.64, 601.21 66.99, 612.40 64.33 C 625.48 60.14, 638.87 57.01, 651.97 52.88 C 667.45 55.59, 683.18 56.30, 698.70 58.73 C 713.57 59.40, 728.44 60.05, 743.34 59.64 C 751.65 64.35, 759.72 69.47, 767.90 74.42 C 773.54 78.27, 778.81 82.58, 784.00 87.00" fill="#e3d3a2" stroke="black" stroke-width="2.0" stroke-linecap="round" stroke-linejoin="round"/>
    <path d="M 622.72 178.24 C 622.66 178.84, 622.56 179.45, 623.00 179.98 C 622.67 180.55, 622.00 180.61, 621.54 180.98 C 621.46 181.65, 620.98 181.94, 620.42 182.15 C 619.90 181.86, 619.34 182.03, 618.80 182.04 C 618.23 182.12, 617.98 181.50, 617.48 181.43 C 616.89 181.64, 616.43 181.46, 616.05 180.99 C 616.12 180.45, 616.08 179.94, 615.66 179.54 C 615.12 179.27, 615.42 178.55, 614.96 178.24 C 614.83 177.68, 614.69 177.13, 614.71 176.55 C 614.83 175.89, 615.35 175.60, 615.87 175.31 C 616.49 175.10, 616.82 174.60, 617.06 174.04 C 617.74 173.88, 618.22 174.37, 618.80 174.55 C 619.19 174.85, 619.66 174.94, 620.13 175.04 C 620.66 175.10, 621.15 175.36, 621.70 175.34 C 621.92 175.86, 622.62 176.00, 622.70 176.62 C 622.91 177.16, 623.01 177.70, 622.72 178.24" fill="#e3d3a2" stroke="black" stroke-width="2.0" stroke-linecap="round"/>
    <path d="M 600.94 201.60 C 600.98 202.03, 601.12 202.44, 601.07 202.87 C 600.69 203.08, 600.41 203.41, 600.12 203.72 C 599.98 204.19, 599.81 204.63, 599.36 204.89 C 598.92 204.70, 598.39 204.77, 598.00 204.44 C 597.64 204.33, 597.30 204.15, 596.90 204.25 C 596.63 203.78, 596.03 204.28, 595.74 203.86 C 596.03 203.42, 595.75 202.99, 595.69 202.56 C 595.29 202.30, 595.08 201.85, 594.68 201.60 C 594.83 201.20, 595.24 200.89, 595.06 200.38 C 595.30 200.02, 595.57 199.67, 595.61 199.21 C 596.06 199.62, 596.56 199.50, 597.07 199.35 C 597.60 199.39, 597.79 198.99, 598.00 198.63 C 598.36 198.81, 598.81 198.50, 599.15 198.83 C 599.32 199.22, 599.70 199.37, 600.02 199.58 C 600.34 199.81, 600.78 199.94, 600.77 200.45 C 601.03 200.80, 600.86 201.22, 600.94 201.60" fill="#e3d3a2" stroke="black" stroke-width="2.0" stroke-linecap="round"/>
    <path d="M 584.47 219.12 C 584.48 219.40, 584.43 219.66, 584.30 219.91 C 583.99 219.90, 583.74 220.04, 583.50 220.22 C 583.19 220.11, 582.98 220.15, 582.99 220.54 C 582.78 220.80, 582.54 221.04, 582.40 221.34 C 582.10 221.35, 581.83 221.23, 581.55 221.18 C 581.10 221.08, 581.27 220.65, 581.13 220.39 C 581.18 220.14, 580.79 219.98, 580.99 219.70 C 580.78 219.52, 580.39 219.52, 580.38 219.12 C 580.43 218.82, 580.46 218.52, 580.28 218.24 C 580.50 218.05, 580.85 218.00, 580.95 217.67 C 581.23 217.67, 581.51 217.95, 581.81 217.70 C 581.98 217.29, 582.19 217.49, 582.40 217.66 C 582.47 217.12, 583.26 217.45, 583.32 216.90 C 583.56 217.18, 583.84 217.37, 584.23 217.29 C 584.22 217.75, 583.72 218.05, 583.80 218.54 C 583.82 218.96, 584.09 219.11, 584.47 219.12" fill="#e3d3a2" stroke="black" stroke-width="2.0" stroke-linecap="round"/>
    <text x="676.0" y="78.0" text-anchor="middle" font-family="Comic Neue, Comic Sans MS, cursive" font-size="13" fill="black"><tspan x="676.0" dy="0">fantastica, that&#x27;s all.</tspan><tspan x="676.0" dy="16">I LOVE TUCCIII MANN</tspan></text>
    
  </g>
</svg>
