<?xml version="1.0" encoding="UTF-8"?>
<svg xmlns="http://www.w3.org/2000/svg" viewBox="0 0 806 402" width="806" height="402" role="img" aria-label="#052 — Star Wars (1977)">
  <defs><filter id="fibers" x="0%" y="0%" width="100%" height="100%"><feTurbulence type="fractalNoise" baseFrequency="0.04 0.7" numOctaves="2" stitchTiles="stitch" seed="3"/><feColorMatrix values="0 0 0 0 0.38  0 0 0 0 0.26  0 0 0 0 0.13  0 0 0 -0.7 0.28"/></filter><filter id="grain" x="0%" y="0%" width="100%" height="100%"><feTurbulence type="fractalNoise" baseFrequency="0.65" numOctaves="3" stitchTiles="stitch" seed="8"/><feColorMatrix values="0 0 0 0 0.42  0 0 0 0 0.30  0 0 0 0 0.16  0 0 0 -1.1 0.5"/></filter></defs>
  <rect width="100%" height="100%" fill="#e3d3a2"/>
  <rect width="100%" height="100%" filter="url(#fibers)" opacity="0.55"/>
  <rect width="100%" height="100%" filter="url(#grain)" opacity="0.85"/>
  <text x="403.0" y="34" text-anchor="middle" font-family="Comic Neue, Comic Sans MS, cursive" font-size="16" font-weight="700" fill="black">#052 — Star Wars (1977) ★★★★</text>
  <g class="panel">
    <path d="M 16.00 46.00 C 142.67 46.54, 269.33 46.73, 396.00 46.00 C 396.14 159.33, 396.77 272.67, 396.00 386.00 C 269.33 385.71, 142.67 385.73, 16.00 386.00 C 16.52 272.67, 15.88 159.33, 16.00 46.00" fill="none" stroke="black" stroke-width="2.0" stroke-linecap="round" stroke-linejoin="round"/>
    <path d="M 26.00 362.00 C 146.00 361.68, 266.00 361.71, 386.00 362.00" fill="none" stroke="black" stroke-width="1.4" stroke-linecap="round"/>
    <path d="M 149.29 270.00 C 149.03 271.60, 149.47 273.21, 149.23 274.82 C 148.05 275.93, 147.18 277.31, 146.16 278.56 C 144.71 279.13, 143.53 280.23, 142.05 280.74 C 140.57 281.06, 139.08 281.30, 137.60 281.64 C 136.01 281.91, 134.51 281.13, 132.94 281.26 C 131.82 280.15, 130.58 279.19, 129.25 278.35 C 128.36 277.00, 127.24 275.85, 126.02 274.80 C 125.65 273.21, 125.37 271.61, 125.10 270.00 C 125.80 268.57, 126.02 266.92, 126.99 265.61 C 127.72 264.21, 128.21 262.71, 128.90 261.30 C 130.16 260.30, 131.77 259.82, 132.87 258.59 C 134.44 258.21, 135.99 257.74, 137.60 257.59 C 139.09 258.22, 140.68 258.45, 142.24 258.80 C 143.80 259.30, 144.84 260.63, 146.29 261.31 C 147.03 262.72, 148.21 263.85, 148.72 265.39 C 149.21 266.89, 149.44 268.42, 149.29 270.00" fill="none" stroke="black" stroke-width="2.0" stroke-linecap="round"/>
    <path d="M 137.60 282.00 C 138.04 296.00, 138.33 310.00, 137.60 324.00" fill="none" stroke="black" stroke-width="2.0" stroke-linecap="round"/>
    <path d="M 137.60 290.00 C 132.39 296.77, 127.14 303.50, 121.60 310.00" fill="none" stroke="black" stroke-width="2.0" stroke-linecap="round"/>
    <path d="M 137.60 290.00 C 142.28 297.19, 148.18 303.40, 153.60 310.00" fill="none" stroke="black" stroke-width="2.0" stroke-linecap="round"/>
    <path d="M 137.60 324.00 C 134.06 332.88, 130.32 341.67, 125.60 350.00" fill="none" stroke="black" stroke-width="2.0" stroke-linecap="round"/>
    <path d="M 137.60 324.00 C 141.65 332.65, 146.23 341.04, 149.60 350.00" fill="none" stroke="black" stroke-width="2.0" stroke-linecap="round"/>
    <path d="M 286.14 270.00 C 285.67 271.52, 286.16 273.14, 285.65 274.66 C 284.67 275.87, 283.71 277.10, 282.48 278.08 C 281.27 279.03, 280.32 280.27, 278.98 281.06 C 277.37 281.18, 276.00 282.18, 274.40 282.33 C 272.89 281.88, 271.40 281.34, 269.90 280.86 C 268.89 279.68, 267.69 278.76, 266.27 278.13 C 265.13 277.04, 264.01 275.93, 262.97 274.73 C 262.55 273.18, 262.97 271.55, 262.54 270.00 C 263.04 268.47, 262.72 266.85, 263.08 265.31 C 264.01 264.04, 265.40 263.18, 266.19 261.79 C 267.47 260.84, 268.59 259.72, 269.65 258.54 C 271.29 258.56, 272.81 257.94, 274.40 257.72 C 275.99 257.91, 277.32 258.92, 278.89 259.15 C 279.94 260.28, 281.11 261.24, 282.50 261.90 C 283.43 263.07, 284.38 264.23, 285.01 265.61 C 285.12 267.14, 286.05 268.46, 286.14 270.00" fill="none" stroke="black" stroke-width="2.0" stroke-linecap="round"/>
    <path d="M 262.40 268.00 C 261.77 278.67, 261.55 289.36, 260.40 300.00" fill="none" stroke="black" stroke-width="2.0" stroke-linecap="round"/>
    <path d="M 264.40 266.00 C 263.99 278.68, 262.50 291.30, 262.40 304.00" fill="none" stroke="black" stroke-width="2.0" stroke-linecap="round"/>
    <path d="M 286.40 268.00 C 287.37 278.65, 286.80 289.39, 288.40 300.00" fill="none" stroke="black" stroke-width="2.0" stroke-linecap="round"/>
    <path d="M 270.40 258.00 C 269.29 256.88, 267.64 256.85, 266.40 256.00" fill="none" stroke="black" stroke-width="1.4" stroke-linecap="round"/>
    <path d="M 278.40 258.00 C 279.44 256.75, 280.75 256.03, 282.40 256.00" fill="none" stroke="black" stroke-width="1.4" stroke-linecap="round"/>
    <path d="M 274.40 282.00 C 275.22 296.00, 274.75 310.00, 274.40 324.00" fill="none" stroke="black" stroke-width="2.0" stroke-linecap="round"/>
    <path d="M 274.40 292.00 C 264.94 291.53, 255.72 289.43, 246.40 288.00" fill="none" stroke="black" stroke-width="2.0" stroke-linecap="round"/>
    <path d="M 274.40 292.00 C 279.73 298.01, 284.34 304.65, 290.40 310.00" fill="none" stroke="black" stroke-width="2.0" stroke-linecap="round"/>
    <path d="M 274.40 324.00 C 270.57 332.74, 266.72 341.48, 262.40 350.00" fill="none" stroke="black" stroke-width="2.0" stroke-linecap="round"/>
    <path d="M 274.40 324.00 C 279.08 332.35, 281.69 341.66, 286.40 350.00" fill="none" stroke="black" stroke-width="2.0" stroke-linecap="round"/>
    <path d="M 36.00 60.00 C 86.00 60.77, 136.00 60.57, 186.00 60.00 C 189.08 63.58, 192.29 67.04, 196.00 70.00 C 196.19 97.33, 196.13 124.67, 196.00 152.00 C 192.85 155.52, 189.07 158.40, 186.00 162.00 C 136.00 162.25, 86.00 161.28, 36.00 162.00 C 32.23 159.11, 29.15 155.51, 26.00 152.00 C 25.98 124.67, 25.44 97.33, 26.00 70.00 C 28.92 66.25, 32.21 62.88, 36.00 60.00" fill="#e3d3a2" stroke="black" stroke-width="2.0" stroke-linecap="round" stroke-linejoin="round"/>
    <path d="M 138.60 162.00 C 141.53 199.30, 143.81 236.63, 145.60 274.00 C 147.75 236.66, 150.74 199.36, 152.60 162.00" fill="#e3d3a2" stroke="black" stroke-width="2.0" stroke-linecap="round" stroke-linejoin="round"/>
    <line x1="139.60000000000002" y1="162" x2="151.60000000000002" y2="162" stroke="#e3d3a2" stroke-width="2.4"/>
    <text x="111.0" y="78.0" text-anchor="middle" font-family="Comic Neue, Comic Sans MS, cursive" font-size="13" fill="black"><tspan x="111.0" dy="0">if you think abt it</tspan><tspan x="111.0" dy="16">han got everything</tspan><tspan x="111.0" dy="16">chewie, leya and</tspan><tspan x="111.0" dy="16">MILLENNIUM FALCON.</tspan><tspan x="111.0" dy="16">screw being a jedi and</tspan></text>
  </g>
  <g class="panel">
    <path d="M 410.00 46.00 C 536.67 46.02, 663.33 46.06, 790.00 46.00 C 790.38 159.33, 789.25 272.67, 790.00 386.00 C 663.33 386.31, 536.67 385.80, 410.00 386.00 C 410.22 272.67, 410.29 159.33, 410.00 46.00" fill="none" stroke="black" stroke-width="2.0" stroke-linecap="round" stroke-linejoin="round"/>
    <path d="M 420.00 356.00 C 540.00 356.01, 660.00 356.08, 780.00 356.00" fill="none" stroke="black" stroke-width="1.4" stroke-linecap="round"/>
    <path d="M 424.00 280.00 C 450.67 280.03, 477.33 279.50, 504.00 280.00 C 503.98 298.67, 504.63 317.33, 504.00 336.00 C 477.33 335.32, 450.67 335.28, 424.00 336.00 C 423.50 317.33, 423.27 298.67, 424.00 280.00" fill="none" stroke="black" stroke-width="2.0" stroke-linecap="round" stroke-linejoin="round"/>
    <path d="M 430.00 286.00 C 452.67 285.30, 475.33 286.66, 498.00 286.00 C 497.39 300.67, 497.70 315.33, 498.00 330.00 C 475.33 329.62, 452.67 329.81, 430.00 330.00 C 430.11 315.33, 429.54 300.67, 430.00 286.00" fill="none" stroke="black" stroke-width="2.0" stroke-linecap="round" stroke-linejoin="round"/>
    <path d="M 450.00 336.00 C 459.33 335.47, 468.67 335.97, 478.00 336.00" fill="none" stroke="black" stroke-width="1.4" stroke-linecap="round"/>
    <path d="M 464.00 336.00 C 463.52 338.67, 464.54 341.33, 464.00 344.00" fill="none" stroke="black" stroke-width="1.4" stroke-linecap="round"/>
    <path d="M 450.00 346.00 C 459.33 345.57, 468.67 346.73, 478.00 346.00" fill="none" stroke="black" stroke-width="1.4" stroke-linecap="round"/>
    <path d="M 436.00 322.00 C 438.96 313.19, 443.20 304.87, 446.00 296.00 C 450.61 305.36, 454.81 314.93, 460.00 324.00 C 464.38 315.18, 469.42 306.71, 474.00 298.00 C 479.75 305.03, 484.61 312.71, 490.00 320.00" fill="none" stroke="black" stroke-width="2.0" stroke-linecap="round" stroke-linejoin="round"/>
    <path d="M 504.00 300.00 C 554.67 300.24, 605.33 299.97, 656.00 300.00 C 656.18 310.00, 656.76 320.00, 656.00 330.00 C 605.33 330.75, 554.67 329.54, 504.00 330.00 C 503.34 320.00, 503.33 310.00, 504.00 300.00" fill="none" stroke="black" stroke-width="2.0" stroke-linecap="round" stroke-linejoin="round"/>
    <path d="M 504.00 330.00 C 554.67 329.83, 605.33 329.96, 656.00 330.00 C 656.10 342.00, 655.45 354.00, 656.00 366.00 C 605.33 365.35, 554.67 366.75, 504.00 366.00 C 503.32 354.00, 503.95 342.00, 504.00 330.00" fill="none" stroke="black" stroke-width="2.0" stroke-linecap="round" stroke-linejoin="round"/>
    <path d="M 496.00 312.00 C 498.67 312.50, 501.33 311.98, 504.00 312.00 C 503.44 330.00, 503.93 348.00, 504.00 366.00 C 501.33 365.53, 498.67 365.74, 496.00 366.00 C 496.38 348.00, 496.71 330.00, 496.00 312.00" fill="none" stroke="black" stroke-width="2.0" stroke-linecap="round" stroke-linejoin="round"/>
    <path d="M 656.00 312.00 C 658.67 312.65, 661.33 311.69, 664.00 312.00 C 663.82 330.00, 664.39 348.00, 664.00 366.00 C 661.33 366.45, 658.67 366.13, 656.00 366.00 C 655.29 348.00, 655.93 330.00, 656.00 312.00" fill="none" stroke="black" stroke-width="2.0" stroke-linecap="round" stroke-linejoin="round"/>
    <path d="M 580.00 330.00 C 579.63 342.00, 579.83 354.00, 580.00 366.00" fill="none" stroke="black" stroke-width="1.4" stroke-linecap="round"/>
    <path d="M 552.59 300.00 C 551.96 301.48, 551.36 302.97, 550.84 304.49 C 550.37 306.02, 549.70 307.47, 548.81 308.81 C 547.44 309.66, 546.01 310.37, 544.39 310.59 C 542.91 310.91, 541.37 311.02, 540.00 311.75 C 538.48 311.45, 536.94 311.32, 535.41 311.09 C 534.01 310.35, 533.20 308.95, 531.93 308.07 C 530.87 306.99, 530.06 305.70, 529.15 304.49 C 528.70 303.02, 528.77 301.42, 528.10 300.00 C 528.29 298.46, 528.71 296.96, 528.95 295.42 C 529.43 293.87, 530.18 292.45, 531.13 291.13 C 532.71 290.61, 533.69 289.11, 535.27 288.58 C 536.85 288.87, 538.42 288.48, 540.00 288.47 C 541.58 288.70, 543.17 288.40, 544.76 288.51 C 545.68 289.85, 547.20 290.55, 548.23 291.77 C 549.43 292.84, 550.48 294.05, 551.59 295.20 C 551.87 296.81, 552.05 298.44, 552.59 300.00" fill="none" stroke="black" stroke-width="2.0" stroke-linecap="round"/>
    <path d="M 528.00 298.00 C 528.12 308.72, 526.81 319.34, 526.00 330.00" fill="none" stroke="black" stroke-width="2.0" stroke-linecap="round"/>
    <path d="M 530.00 296.00 C 528.83 308.64, 528.09 321.30, 528.00 334.00" fill="none" stroke="black" stroke-width="2.0" stroke-linecap="round"/>
    <path d="M 552.00 298.00 C 551.84 308.72, 553.67 319.31, 554.00 330.00" fill="none" stroke="black" stroke-width="2.0" stroke-linecap="round"/>
    <path d="M 536.00 288.00 C 534.86 286.95, 533.46 286.42, 532.00 286.00" fill="none" stroke="black" stroke-width="1.4" stroke-linecap="round"/>
    <path d="M 544.00 288.00 C 544.94 286.55, 546.69 286.71, 548.00 286.00" fill="none" stroke="black" stroke-width="1.4" stroke-linecap="round"/>
    <path d="M 540.00 312.00 C 540.18 321.33, 539.51 330.67, 540.00 340.00" fill="none" stroke="black" stroke-width="2.0" stroke-linecap="round"/>
    <path d="M 540.00 326.00 C 535.12 330.60, 529.69 334.47, 524.00 338.00" fill="none" stroke="black" stroke-width="2.0" stroke-linecap="round"/>
    <path d="M 540.00 326.00 C 544.90 330.58, 551.19 333.30, 556.00 338.00" fill="none" stroke="black" stroke-width="2.0" stroke-linecap="round"/>
    <path d="M 540.00 340.00 C 548.00 340.57, 556.00 339.45, 564.00 340.00" fill="none" stroke="black" stroke-width="2.0" stroke-linecap="round"/>
    <path d="M 564.00 340.00 C 564.78 345.99, 564.42 352.10, 566.00 358.00" fill="none" stroke="black" stroke-width="2.0" stroke-linecap="round"/>
    <path d="M 540.00 340.00 C 537.59 346.11, 535.46 352.35, 532.00 358.00" fill="none" stroke="black" stroke-width="2.0" stroke-linecap="round"/>
    <path d="M 631.93 300.00 C 631.76 301.54, 631.42 303.04, 630.74 304.45 C 629.59 305.46, 629.26 307.08, 628.08 308.08 C 626.96 309.14, 625.98 310.35, 624.60 311.12 C 623.04 310.86, 621.55 311.52, 620.00 311.49 C 618.48 311.47, 617.02 311.15, 615.60 310.62 C 614.18 309.88, 612.71 309.24, 611.14 308.86 C 610.35 307.46, 610.10 305.83, 609.32 304.42 C 609.25 302.85, 608.27 301.54, 608.09 300.00 C 608.53 298.47, 608.39 296.86, 608.67 295.31 C 609.56 293.99, 610.76 292.98, 611.89 291.89 C 613.21 291.12, 614.05 289.73, 615.48 289.09 C 616.88 288.28, 618.41 287.92, 620.00 287.73 C 621.48 288.36, 623.10 288.40, 624.63 288.82 C 625.97 289.63, 627.35 290.39, 628.38 291.62 C 628.97 293.10, 630.19 294.14, 631.07 295.42 C 631.45 296.93, 631.49 298.50, 631.93 300.00" fill="none" stroke="black" stroke-width="2.0" stroke-linecap="round"/>
    <path d="M 620.00 312.00 C 620.26 321.33, 620.94 330.67, 620.00 340.00" fill="none" stroke="black" stroke-width="2.0" stroke-linecap="round"/>
    <path d="M 620.00 326.00 C 614.42 329.67, 609.69 334.48, 604.00 338.00" fill="none" stroke="black" stroke-width="2.0" stroke-linecap="round"/>
    <path d="M 620.00 326.00 C 625.86 329.30, 630.91 333.68, 636.00 338.00" fill="none" stroke="black" stroke-width="2.0" stroke-linecap="round"/>
    <path d="M 620.00 340.00 C 628.00 339.59, 636.00 340.03, 644.00 340.00" fill="none" stroke="black" stroke-width="2.0" stroke-linecap="round"/>
    <path d="M 644.00 340.00 C 644.34 346.04, 645.01 352.04, 646.00 358.00" fill="none" stroke="black" stroke-width="2.0" stroke-linecap="round"/>
    <path d="M 620.00 340.00 C 617.36 346.01, 614.96 352.13, 612.00 358.00" fill="none" stroke="black" stroke-width="2.0" stroke-linecap="round"/>
    <path d="M 430.00 60.00 C 480.00 60.31, 530.00 59.56, 580.00 60.00 C 583.56 63.11, 586.80 66.53, 590.00 70.00 C 589.81 92.00, 590.46 114.00, 590.00 136.00 C 586.56 139.23, 583.02 142.35, 580.00 146.00 C 530.00 145.39, 480.00 146.18, 430.00 146.00 C 426.15 143.18, 423.07 139.60, 420.00 136.00 C 420.43 114.00, 419.36 92.00, 420.00 70.00 C 422.95 66.28, 426.94 63.61, 430.00 60.00" fill="#e3d3a2" stroke="black" stroke-width="2.0" stroke-linecap="round" stroke-linejoin="round"/>
    <path d="M 525.00 146.00 C 527.87 198.64, 529.79 251.33, 532.00 304.00 C 534.07 251.32, 536.35 198.65, 539.00 146.00" fill="#e3d3a2" stroke="black" stroke-width="2.0" stroke-linecap="round" stroke-linejoin="round"/>
    <line x1="526.0" y1="146" x2="538.0" y2="146" stroke="#e3d3a2" stroke-width="2.4"/>
    <text x="505.0" y="78.0" text-anchor="middle" font-family="Comic Neue, Comic Sans MS, cursive" font-size="13" fill="black"><tspan x="505.0" dy="0">if you think abt it</tspan><tspan x="505.0" dy="16">han got everything</tspan><tspan x="505.0" dy="16">chewie, leya and</tspan><tspan x="505.0" dy="16">MILLENNIUM FALCON.…</tspan></text>
  </g>
</svg>
