<?xml version="1.0" encoding="UTF-8"?>
<svg xmlns="http://www.w3.org/2000/svg" viewBox="0 0 412 402" width="412" height="402" role="img" aria-label="#054 — Star Wars: Episode III – Revenge of the Sith (2005)">
  <defs><filter id="fibers" x="0%" y="0%" width="100%" height="100%"><feTurbulence type="fractalNoise" baseFrequency="0.04 0.7" numOctaves="2" stitchTiles="stitch" seed="9"/><feColorMatrix values="0 0 0 0 0.38  0 0 0 0 0.26  0 0 0 0 0.13  0 0 0 -0.7 0.28"/></filter><filter id="grain" x="0%" y="0%" width="100%" height="100%"><feTurbulence type="fractalNoise" baseFrequency="0.65" numOctaves="3" stitchTiles="stitch" seed="1"/><feColorMatrix values="0 0 0 0 0.42  0 0 0 0 0.30  0 0 0 0 0.16  0 0 0 -1.1 0.5"/></filter></defs>
  <rect width="100%" height="100%" fill="#e3d3a2"/>
  <rect width="100%" height="100%" filter="url(#fibers)" opacity="0.55"/>
  <rect width="100%" height="100%" filter="url(#grain)" opacity="0.85"/>
  <text x="206.0" y="34" text-anchor="middle" font-family="Comic Neue, Comic Sans MS, cursive" font-size="16" font-weight="700" fill="black">#054 — Star Wars: Episode III – Revenge of the Sith (2005) ★★★★★</text>
  <g class="panel">
    <path d="M 16.00 46.00 C 142.67 46.52, 269.33 45.47, 396.00 46.00 C 395.85 159.33, 395.90 272.67, 396.00 386.00 C 269.33 386.08, 142.67 386.23, 16.00 386.00 C 16.19 272.67, 15.49 159.33, 16.00 46.00" fill="none" stroke="black" stroke-width="2.0" stroke-linecap="round" stroke-linejoin="round"/>
    <path d="M 26.00 356.00 C 146.00 355.16, 266.00 355.65, 386.00 356.00" fill="none" stroke="black" stroke-width="1.4" stroke-linecap="round"/>
    <path d="M 30.00 280.00 C 56.67 280.20, 83.33 280.31, 110.00 280.00 C 109.69 298.67, 110.07 317.33, 110.00 336.00 C 83.33 336.37, 56.67 335.56, 30.00 336.00 C 30.40 317.33, 30.49 298.67, 30.00 280.00" fill="none" stroke="black" stroke-width="2.0" stroke-linecap="round" stroke-linejoin="round"/>
    <path d="M 36.00 286.00 C 58.67 286.43, 81.33 286.01, 104.00 286.00 C 103.76 300.67, 104.55 315.33, 104.00 330.00 C 81.33 329.56, 58.67 329.52, 36.00 330.00 C 35.59 315.33, 35.82 300.67, 36.00 286.00" fill="none" stroke="black" stroke-width="2.0" stroke-linecap="round" stroke-linejoin="round"/>
    <path d="M 56.00 336.00 C 65.33 335.02, 74.67 336.56, 84.00 336.00" fill="none" stroke="black" stroke-width="1.4" stroke-linecap="round"/>
    <path d="M 70.00 336.00 C 69.45 338.67, 69.69 341.33, 70.00 344.00" fill="none" stroke="black" stroke-width="1.4" stroke-linecap="round"/>
    <path d="M 56.00 346.00 C 65.33 345.62, 74.67 345.38, 84.00 346.00" fill="none" stroke="black" stroke-width="1.4" stroke-linecap="round"/>
    <path d="M 42.00 322.00 C 44.94 313.18, 49.35 304.93, 52.00 296.00 C 56.00 305.67, 60.72 314.97, 66.00 324.00 C 70.16 315.06, 75.45 306.73, 80.00 298.00 C 85.50 305.22, 90.73 312.62, 96.00 320.00" fill="none" stroke="black" stroke-width="2.0" stroke-linecap="round" stroke-linejoin="round"/>
    <path d="M 110.00 300.00 C 160.67 299.63, 211.33 299.69, 262.00 300.00 C 262.78 310.00, 261.90 320.00, 262.00 330.00 C 211.33 329.88, 160.67 329.25, 110.00 330.00 C 110.26 320.00, 109.86 310.00, 110.00 300.00" fill="none" stroke="black" stroke-width="2.0" stroke-linecap="round" stroke-linejoin="round"/>
    <path d="M 110.00 330.00 C 160.67 329.82, 211.33 330.37, 262.00 330.00 C 262.63 342.00, 262.63 354.00, 262.00 366.00 C 211.33 366.30, 160.67 366.65, 110.00 366.00 C 109.58 354.00, 109.84 342.00, 110.00 330.00" fill="none" stroke="black" stroke-width="2.0" stroke-linecap="round" stroke-linejoin="round"/>
    <path d="M 102.00 312.00 C 104.67 312.36, 107.33 312.20, 110.00 312.00 C 109.43 330.00, 109.59 348.00, 110.00 366.00 C 107.33 366.56, 104.67 365.97, 102.00 366.00 C 101.74 348.00, 102.56 330.00, 102.00 312.00" fill="none" stroke="black" stroke-width="2.0" stroke-linecap="round" stroke-linejoin="round"/>
    <path d="M 262.00 312.00 C 264.67 312.01, 267.33 311.68, 270.00 312.00 C 269.83 330.00, 269.60 348.00, 270.00 366.00 C 267.33 366.77, 264.67 365.69, 262.00 366.00 C 261.88 348.00, 261.22 330.00, 262.00 312.00" fill="none" stroke="black" stroke-width="2.0" stroke-linecap="round" stroke-linejoin="round"/>
    <path d="M 186.00 330.00 C 186.91 342.00, 186.00 354.00, 186.00 366.00" fill="none" stroke="black" stroke-width="1.4" stroke-linecap="round"/>
    <path d="M 157.93 300.00 C 157.77 301.55, 157.42 303.04, 156.80 304.48 C 156.41 306.03, 155.48 307.30, 154.60 308.60 C 153.11 309.09, 151.69 309.73, 150.40 310.62 C 149.00 311.33, 147.40 311.39, 146.00 312.10 C 144.47 311.56, 142.82 311.82, 141.26 311.43 C 140.14 310.32, 138.79 309.46, 137.78 308.22 C 136.84 306.91, 135.40 306.09, 134.47 304.78 C 134.61 303.14, 133.65 301.64, 133.83 300.00 C 133.94 298.41, 134.89 297.05, 135.12 295.49 C 136.07 294.18, 136.69 292.71, 137.17 291.17 C 138.51 290.26, 139.84 289.34, 141.26 288.55 C 142.82 288.21, 144.45 288.33, 146.00 287.86 C 147.52 288.28, 149.06 288.61, 150.61 288.86 C 151.68 290.05, 153.05 290.81, 154.43 291.57 C 155.31 292.87, 156.57 293.89, 157.22 295.35 C 157.51 296.89, 157.52 298.48, 157.93 300.00" fill="none" stroke="black" stroke-width="2.0" stroke-linecap="round"/>
    <path d="M 134.00 298.00 C 132.84 308.64, 132.19 319.30, 132.00 330.00" fill="none" stroke="black" stroke-width="2.0" stroke-linecap="round"/>
    <path d="M 136.00 296.00 C 135.74 308.69, 134.51 321.32, 134.00 334.00" fill="none" stroke="black" stroke-width="2.0" stroke-linecap="round"/>
    <path d="M 158.00 298.00 C 157.80 308.72, 159.24 319.34, 160.00 330.00" fill="none" stroke="black" stroke-width="2.0" stroke-linecap="round"/>
    <path d="M 142.00 288.00 C 140.63 287.40, 139.45 286.44, 138.00 286.00" fill="none" stroke="black" stroke-width="1.4" stroke-linecap="round"/>
    <path d="M 150.00 288.00 C 151.41 287.49, 152.65 286.64, 154.00 286.00" fill="none" stroke="black" stroke-width="1.4" stroke-linecap="round"/>
    <path d="M 146.00 312.00 C 146.40 321.33, 145.82 330.67, 146.00 340.00" fill="none" stroke="black" stroke-width="2.0" stroke-linecap="round"/>
    <path d="M 146.00 326.00 C 140.47 329.73, 135.58 334.32, 130.00 338.00" fill="none" stroke="black" stroke-width="2.0" stroke-linecap="round"/>
    <path d="M 146.00 326.00 C 151.36 329.97, 157.09 333.43, 162.00 338.00" fill="none" stroke="black" stroke-width="2.0" stroke-linecap="round"/>
    <path d="M 146.00 340.00 C 154.00 340.14, 162.00 340.27, 170.00 340.00" fill="none" stroke="black" stroke-width="2.0" stroke-linecap="round"/>
    <path d="M 170.00 340.00 C 170.68 346.00, 170.44 352.10, 172.00 358.00" fill="none" stroke="black" stroke-width="2.0" stroke-linecap="round"/>
    <path d="M 146.00 340.00 C 143.01 345.86, 140.95 352.13, 138.00 358.00" fill="none" stroke="black" stroke-width="2.0" stroke-linecap="round"/>
    <path d="M 238.51 300.00 C 237.99 301.52, 237.30 302.98, 237.11 304.60 C 236.31 305.94, 235.12 306.96, 234.17 308.17 C 233.17 309.43, 232.01 310.52, 230.78 311.55 C 229.13 311.54, 227.58 312.08, 226.00 312.46 C 224.36 312.37, 222.73 312.27, 221.20 311.59 C 219.91 310.62, 218.90 309.32, 217.43 308.57 C 216.46 307.33, 216.22 305.68, 215.18 304.48 C 214.52 303.05, 213.93 301.60, 213.81 300.00 C 213.73 298.36, 214.54 296.83, 214.38 295.19 C 215.31 293.84, 215.88 292.26, 217.12 291.12 C 218.33 289.98, 219.78 289.26, 221.32 288.70 C 222.92 288.45, 224.52 288.16, 226.00 287.46 C 227.64 287.59, 229.17 288.07, 230.62 288.85 C 231.80 289.88, 233.17 290.65, 234.41 291.59 C 235.07 292.97, 235.93 294.24, 236.63 295.60 C 237.20 297.09, 238.23 298.38, 238.51 300.00" fill="none" stroke="black" stroke-width="2.0" stroke-linecap="round"/>
    <path d="M 226.00 312.00 C 225.94 321.33, 226.52 330.67, 226.00 340.00" fill="none" stroke="black" stroke-width="2.0" stroke-linecap="round"/>
    <path d="M 226.00 326.00 C 220.60 329.91, 215.47 334.18, 210.00 338.00" fill="none" stroke="black" stroke-width="2.0" stroke-linecap="round"/>
    <path d="M 226.00 326.00 C 231.33 330.01, 236.09 334.77, 242.00 338.00" fill="none" stroke="black" stroke-width="2.0" stroke-linecap="round"/>
    <path d="M 226.00 340.00 C 234.00 339.42, 242.00 339.23, 250.00 340.00" fill="none" stroke="black" stroke-width="2.0" stroke-linecap="round"/>
    <path d="M 250.00 340.00 C 250.04 346.07, 251.37 352.00, 252.00 358.00" fill="none" stroke="black" stroke-width="2.0" stroke-linecap="round"/>
    <path d="M 226.00 340.00 C 222.53 345.64, 220.95 352.13, 218.00 358.00" fill="none" stroke="black" stroke-width="2.0" stroke-linecap="round"/>
    <path d="M 36.00 60.00 C 86.00 60.56, 136.00 60.49, 186.00 60.00 C 189.12 63.54, 192.35 66.98, 196.00 70.00 C 196.68 81.33, 196.07 92.67, 196.00 104.00 C 192.53 107.20, 189.81 111.14, 186.00 114.00 C 136.00 113.53, 86.00 114.66, 36.00 114.00 C 32.46 110.87, 29.71 106.96, 26.00 104.00 C 25.98 92.67, 25.90 81.33, 26.00 70.00 C 29.38 66.71, 32.31 62.98, 36.00 60.00" fill="#e3d3a2" stroke="black" stroke-width="2.0" stroke-linecap="round" stroke-linejoin="round"/>
    <path d="M 131.00 114.00 C 133.71 177.32, 136.36 240.64, 138.00 304.00 C 140.42 240.67, 142.91 177.34, 145.00 114.00" fill="#e3d3a2" stroke="black" stroke-width="2.0" stroke-linecap="round" stroke-linejoin="round"/>
    <line x1="132.0" y1="114" x2="144.0" y2="114" stroke="#e3d3a2" stroke-width="2.4"/>
    <text x="111.0" y="78.0" text-anchor="middle" font-family="Comic Neue, Comic Sans MS, cursive" font-size="13" fill="black"><tspan x="111.0" dy="0">revange of the 6th it</tspan><tspan x="111.0" dy="16">is yeah f the order!</tspan></text>
  </g>
</svg>
