<?xml version="1.0" encoding="UTF-8"?>
<svg xmlns="http://www.w3.org/2000/svg" viewBox="0 0 412 402" width="412" height="402" role="img" aria-label="#055 — Harry Potter and the Philosopher&#x27;s Stone (2001)">
  <defs><filter id="fibers" x="0%" y="0%" width="100%" height="100%"><feTurbulence type="fractalNoise" baseFrequency="0.04 0.7" numOctaves="2" stitchTiles="stitch" seed="1"/><feColorMatrix values="0 0 0 0 0.38  0 0 0 0 0.26  0 0 0 0 0.13  0 0 0 -0.7 0.28"/></filter><filter id="grain" x="0%" y="0%" width="100%" height="100%"><feTurbulence type="fractalNoise" baseFrequency="0.65" numOctaves="3" stitchTiles="stitch" seed="2"/><feColorMatrix values="0 0 0 0 0.42  0 0 0 0 0.30  0 0 0 0 0.16  0 0 0 -1.1 0.5"/></filter></defs>
  <rect width="100%" height="100%" fill="#e3d3a2"/>
  <rect width="100%" height="100%" filter="url(#fibers)" opacity="0.55"/>
  <rect width="100%" height="100%" filter="url(#grain)" opacity="0.85"/>
  <text x="206.0" y="34" text-anchor="middle" font-family="Comic Neue, Comic Sans MS, cursive" font-size="16" font-weight="700" fill="black">#055 — Harry Potter and the Philosopher&#x27;s Stone (2001) ★★★½</text>
  <g class="panel">
    <path d="M 16.00 46.00 C 142.67 45.92, 269.33 45.77, 396.00 46.00 C 395.75 159.33, 395.77 272.67, 396.00 386.00 C 269.33 385.25, 142.67 386.37, 16.00 386.00 C 15.64 272.67, 16.56 159.33, 16.00 46.00" fill="none" stroke="black" stroke-width="2.0" stroke-linecap="round" stroke-linejoin="round"/>
    <path d="M 26.00 362.00 C 146.00 361.15, 266.00 361.17, 386.00 362.00" fill="none" stroke="black" stroke-width="1.4" stroke-linecap="round"/>
    <path d="M 180.41 270.00 C 180.25 271.63, 179.68 273.10, 178.80 274.47 C 177.77 275.60, 177.37 277.17, 176.22 278.22 C 174.89 279.04, 173.65 279.97, 172.62 281.15 C 171.18 281.95, 169.53 282.01, 168.00 282.50 C 166.51 281.87, 164.93 281.53, 163.35 281.23 C 162.12 280.27, 160.94 279.26, 159.77 278.23 C 158.59 277.19, 158.14 275.59, 156.92 274.59 C 156.47 273.06, 156.28 271.45, 155.55 270.00 C 155.98 268.45, 156.42 266.90, 156.67 265.31 C 157.25 263.78, 158.40 262.63, 159.37 261.37 C 160.89 260.82, 162.12 259.82, 163.39 258.87 C 164.97 258.67, 166.56 258.52, 168.00 257.76 C 169.57 258.18, 171.21 258.09, 172.80 258.42 C 173.91 259.59, 175.31 260.41, 176.47 261.53 C 177.48 262.73, 177.94 264.29, 179.05 265.42 C 179.19 267.04, 179.85 268.51, 180.41 270.00" fill="none" stroke="black" stroke-width="2.0" stroke-linecap="round"/>
    <path d="M 152.00 260.00 C 162.67 260.47, 173.33 260.41, 184.00 260.00 C 182.84 256.60, 181.93 253.09, 180.00 250.00 C 172.00 249.53, 164.00 249.58, 156.00 250.00 C 154.63 253.32, 152.61 256.38, 152.00 260.00" fill="black" stroke="black" stroke-width="2.0" stroke-linecap="round" stroke-linejoin="round"/>
    <path d="M 150.00 260.00 C 162.00 259.65, 174.00 260.75, 186.00 260.00" fill="none" stroke="black" stroke-width="2.0" stroke-linecap="round"/>
    <path d="M 168.00 282.00 C 167.86 296.00, 167.05 310.00, 168.00 324.00" fill="none" stroke="black" stroke-width="2.0" stroke-linecap="round"/>
    <path d="M 168.00 292.00 C 173.27 287.94, 177.32 282.66, 182.00 278.00" fill="none" stroke="black" stroke-width="2.0" stroke-linecap="round"/>
    <path d="M 182.00 278.00 C 179.32 277.40, 176.61 276.89, 174.00 276.00" fill="none" stroke="black" stroke-width="2.0" stroke-linecap="round"/>
    <path d="M 168.00 292.00 C 162.50 297.85, 157.16 303.84, 152.00 310.00" fill="none" stroke="black" stroke-width="2.0" stroke-linecap="round"/>
    <path d="M 168.00 324.00 C 163.12 332.26, 160.19 341.42, 156.00 350.00" fill="none" stroke="black" stroke-width="2.0" stroke-linecap="round"/>
    <path d="M 168.00 324.00 C 172.40 332.48, 175.60 341.52, 180.00 350.00" fill="none" stroke="black" stroke-width="2.0" stroke-linecap="round"/>
    <path d="M 390.00 87.00 C 385.03 91.70, 379.67 95.91, 373.90 99.58 C 365.41 104.01, 357.36 109.16, 349.34 114.36 C 334.46 114.64, 319.57 114.51, 304.70 115.27 C 289.21 117.94, 273.47 118.61, 257.97 121.12 C 244.83 117.13, 231.47 113.90, 218.40 109.67 C 207.02 107.86, 196.05 104.17, 184.70 102.19 C 183.29 97.07, 181.94 91.94, 180.00 87.00 C 181.12 81.80, 183.12 76.87, 184.70 71.81 C 196.04 69.80, 207.19 66.94, 218.40 64.33 C 231.56 60.39, 244.97 57.36, 257.97 52.88 C 273.52 55.03, 289.10 56.92, 304.70 58.73 C 319.59 58.62, 334.46 59.26, 349.34 59.64 C 357.80 64.10, 365.92 69.15, 373.90 74.42 C 379.20 78.70, 384.63 82.81, 390.00 87.00" fill="#e3d3a2" stroke="black" stroke-width="2.0" stroke-linecap="round" stroke-linejoin="round"/>
    <path d="M 229.11 178.24 C 229.21 178.84, 228.90 179.33, 228.68 179.85 C 228.07 179.95, 227.88 180.57, 227.41 180.85 C 227.01 181.11, 226.50 181.18, 226.18 181.57 C 225.81 182.06, 225.28 182.36, 224.80 182.72 C 224.33 182.31, 223.75 182.24, 223.17 182.17 C 222.85 181.71, 222.34 181.47, 221.93 181.11 C 221.85 180.46, 221.20 180.30, 220.85 179.88 C 221.14 179.37, 220.69 178.72, 221.16 178.24 C 220.82 177.73, 220.62 177.20, 220.81 176.59 C 221.43 176.52, 221.95 176.28, 222.24 175.68 C 222.40 175.12, 223.03 174.93, 223.20 174.38 C 223.74 174.41, 224.28 174.44, 224.80 174.27 C 225.34 174.41, 225.89 174.13, 226.43 174.31 C 226.80 174.78, 227.37 174.92, 227.88 175.16 C 227.73 175.81, 228.10 176.27, 228.47 176.72 C 228.68 177.23, 228.89 177.73, 229.11 178.24" fill="#e3d3a2" stroke="black" stroke-width="2.0" stroke-linecap="round"/>
    <path d="M 206.74 201.60 C 206.63 201.94, 206.33 202.25, 206.53 202.65 C 206.13 202.77, 205.89 203.03, 205.86 203.46 C 205.89 203.97, 205.37 204.06, 205.15 204.39 C 204.71 204.19, 204.42 204.72, 204.00 204.64 C 203.53 204.88, 203.26 204.39, 202.87 204.32 C 202.36 204.40, 202.32 203.76, 201.92 203.68 C 201.57 203.37, 201.06 203.31, 200.73 202.95 C 200.46 202.54, 200.54 202.05, 200.46 201.60 C 200.90 201.34, 200.93 200.81, 201.22 200.45 C 201.39 200.03, 201.84 199.99, 202.13 199.73 C 201.96 199.15, 202.70 198.95, 202.68 198.42 C 203.10 198.07, 203.54 197.98, 204.00 198.33 C 204.37 198.54, 204.70 198.80, 205.13 198.88 C 205.54 199.10, 205.95 199.32, 206.45 199.15 C 206.90 199.50, 206.49 200.06, 206.77 200.45 C 206.36 200.82, 206.81 201.22, 206.74 201.60" fill="#e3d3a2" stroke="black" stroke-width="2.0" stroke-linecap="round"/>
    <path d="M 190.07 219.12 C 190.37 219.32, 190.04 219.72, 190.33 219.92 C 189.97 219.79, 189.71 219.96, 189.48 220.20 C 189.46 220.47, 189.23 220.58, 189.07 220.74 C 188.61 220.62, 188.49 220.93, 188.40 221.27 C 188.12 221.26, 187.79 221.48, 187.57 221.13 C 187.86 220.73, 187.78 220.40, 187.39 220.13 C 187.15 219.68, 186.73 220.10, 186.43 219.94 C 186.15 219.73, 186.02 219.43, 185.89 219.12 C 185.92 218.61, 186.22 218.42, 186.69 218.41 C 186.89 218.21, 186.97 217.97, 186.97 217.69 C 187.32 217.91, 187.50 217.63, 187.70 217.44 C 187.93 217.47, 188.14 217.70, 188.40 217.53 C 188.64 217.30, 188.79 217.84, 189.03 217.61 C 189.37 217.52, 189.51 217.68, 189.51 218.01 C 189.67 218.22, 189.98 218.18, 190.13 218.40 C 189.79 218.62, 190.45 218.91, 190.07 219.12" fill="#e3d3a2" stroke="black" stroke-width="2.0" stroke-linecap="round"/>
    <text x="282.0" y="78.0" text-anchor="middle" font-family="Comic Neue, Comic Sans MS, cursive" font-size="13" fill="black"><tspan x="282.0" dy="0">Watched on Thursday May</tspan><tspan x="282.0" dy="16">7, 2026.</tspan></text>
    
  </g>
</svg>
