<?xml version="1.0" encoding="UTF-8"?>
<svg xmlns="http://www.w3.org/2000/svg" viewBox="0 0 806 402" width="806" height="402" role="img" aria-label="#056 — The Martian (2015)">
  <defs><filter id="fibers" x="0%" y="0%" width="100%" height="100%"><feTurbulence type="fractalNoise" baseFrequency="0.04 0.7" numOctaves="2" stitchTiles="stitch" seed="4"/><feColorMatrix values="0 0 0 0 0.38  0 0 0 0 0.26  0 0 0 0 0.13  0 0 0 -0.7 0.28"/></filter><filter id="grain" x="0%" y="0%" width="100%" height="100%"><feTurbulence type="fractalNoise" baseFrequency="0.65" numOctaves="3" stitchTiles="stitch" seed="3"/><feColorMatrix values="0 0 0 0 0.42  0 0 0 0 0.30  0 0 0 0 0.16  0 0 0 -1.1 0.5"/></filter></defs>
  <rect width="100%" height="100%" fill="#e3d3a2"/>
  <rect width="100%" height="100%" filter="url(#fibers)" opacity="0.55"/>
  <rect width="100%" height="100%" filter="url(#grain)" opacity="0.85"/>
  <text x="403.0" y="34" text-anchor="middle" font-family="Comic Neue, Comic Sans MS, cursive" font-size="16" font-weight="700" fill="black">#056 — The Martian (2015) ★★★★½</text>
  <g class="panel">
    <path d="M 16.00 46.00 C 142.67 46.66, 269.33 45.76, 396.00 46.00 C 395.51 159.33, 395.34 272.67, 396.00 386.00 C 269.33 385.39, 142.67 386.12, 16.00 386.00 C 15.62 272.67, 15.64 159.33, 16.00 46.00" fill="none" stroke="black" stroke-width="2.0" stroke-linecap="round" stroke-linejoin="round"/>
    <path d="M 26.00 362.00 C 146.00 362.88, 266.00 361.89, 386.00 362.00" fill="none" stroke="black" stroke-width="1.4" stroke-linecap="round"/>
    <path d="M 149.55 270.00 C 149.22 271.54, 148.81 273.07, 148.85 274.66 C 147.70 275.83, 147.13 277.35, 146.35 278.75 C 144.84 279.39, 143.86 280.82, 142.35 281.47 C 140.77 281.18, 139.18 281.16, 137.60 281.47 C 136.06 281.54, 134.62 280.73, 133.07 280.94 C 131.76 280.14, 130.59 279.16, 129.43 278.17 C 128.68 276.83, 127.86 275.54, 126.70 274.52 C 126.10 273.07, 126.63 271.45, 126.03 270.00 C 126.03 268.40, 125.67 266.80, 126.02 265.20 C 127.15 264.07, 128.09 262.76, 129.30 261.70 C 130.42 260.63, 131.83 260.00, 133.13 259.21 C 134.55 258.55, 136.05 258.15, 137.60 257.93 C 139.17 258.43, 140.83 257.98, 142.41 258.39 C 143.71 259.35, 144.64 260.69, 145.78 261.82 C 146.75 263.11, 148.03 264.08, 149.16 265.21 C 149.25 266.81, 149.62 268.39, 149.55 270.00" fill="none" stroke="black" stroke-width="2.0" stroke-linecap="round"/>
    <path d="M 121.60 260.00 C 132.27 259.30, 142.93 260.11, 153.60 260.00 C 152.90 256.41, 151.01 253.30, 149.60 250.00 C 141.60 250.16, 133.60 250.21, 125.60 250.00 C 123.93 253.20, 122.39 256.45, 121.60 260.00" fill="black" stroke="black" stroke-width="2.0" stroke-linecap="round" stroke-linejoin="round"/>
    <path d="M 119.60 260.00 C 131.60 259.69, 143.60 259.48, 155.60 260.00" fill="none" stroke="black" stroke-width="2.0" stroke-linecap="round"/>
    <path d="M 137.60 282.00 C 136.95 296.00, 137.33 310.00, 137.60 324.00" fill="none" stroke="black" stroke-width="2.0" stroke-linecap="round"/>
    <path d="M 137.60 290.00 C 132.43 296.80, 126.16 302.72, 121.60 310.00" fill="none" stroke="black" stroke-width="2.0" stroke-linecap="round"/>
    <path d="M 137.60 290.00 C 142.48 297.03, 148.60 303.07, 153.60 310.00" fill="none" stroke="black" stroke-width="2.0" stroke-linecap="round"/>
    <path d="M 137.60 324.00 C 134.02 332.86, 129.69 341.37, 125.60 350.00" fill="none" stroke="black" stroke-width="2.0" stroke-linecap="round"/>
    <path d="M 137.60 324.00 C 141.66 332.64, 145.05 341.59, 149.60 350.00" fill="none" stroke="black" stroke-width="2.0" stroke-linecap="round"/>
    <path d="M 285.84 270.00 C 285.55 271.55, 285.63 273.11, 285.66 274.66 C 284.51 275.81, 283.65 277.14, 283.05 278.65 C 281.71 279.50, 280.55 280.62, 279.05 281.22 C 277.58 281.95, 275.95 282.11, 274.40 282.58 C 272.79 282.27, 271.14 282.19, 269.60 281.60 C 268.42 280.50, 267.30 279.35, 265.95 278.45 C 264.83 277.33, 263.96 276.04, 263.38 274.57 C 263.10 273.05, 262.81 271.54, 262.70 270.00 C 262.67 268.43, 263.38 266.92, 263.13 265.33 C 264.16 264.16, 265.39 263.13, 266.07 261.67 C 267.36 260.87, 268.87 260.43, 269.99 259.34 C 271.54 258.94, 272.86 257.97, 274.40 257.54 C 276.05 257.53, 277.58 258.14, 279.16 258.52 C 280.11 259.83, 281.45 260.71, 282.71 261.69 C 283.16 263.19, 284.26 264.30, 285.04 265.59 C 285.57 267.01, 285.72 268.50, 285.84 270.00" fill="none" stroke="black" stroke-width="2.0" stroke-linecap="round"/>
    <path d="M 280.46 252.00 C 280.29 252.80, 280.30 253.61, 280.24 254.42 C 279.51 254.83, 279.24 255.69, 278.55 256.15 C 277.92 256.64, 277.36 257.20, 276.78 257.75 C 275.99 257.62, 275.18 257.63, 274.40 257.44 C 273.53 257.20, 272.82 257.89, 271.98 257.85 C 271.27 257.38, 270.83 256.70, 270.41 255.99 C 270.03 255.30, 269.23 254.99, 268.84 254.30 C 268.55 253.55, 268.45 252.74, 268.12 252.00 C 268.78 251.42, 268.78 250.54, 269.12 249.81 C 269.70 249.30, 270.21 248.74, 270.33 247.93 C 270.96 247.54, 271.81 247.56, 272.28 246.88 C 273.14 246.71, 273.87 246.33, 274.40 245.61 C 275.15 245.95, 275.85 246.46, 276.74 246.35 C 277.32 247.06, 278.17 247.21, 278.99 247.41 C 278.95 248.31, 279.70 248.91, 279.88 249.73 C 280.28 250.43, 280.01 251.31, 280.46 252.00" fill="none" stroke="black" stroke-width="2.0" stroke-linecap="round"/>
    <path d="M 263.40 271.00 C 263.08 274.73, 261.56 278.24, 261.40 282.00" fill="none" stroke="black" stroke-width="2.0" stroke-linecap="round"/>
    <path d="M 285.40 271.00 C 285.17 274.83, 286.38 278.40, 287.40 282.00" fill="none" stroke="black" stroke-width="2.0" stroke-linecap="round"/>
    <path d="M 274.40 282.00 C 273.60 296.00, 273.51 310.00, 274.40 324.00" fill="none" stroke="black" stroke-width="2.0" stroke-linecap="round"/>
    <path d="M 274.40 290.00 C 269.37 296.91, 263.77 303.36, 258.40 310.00" fill="none" stroke="black" stroke-width="2.0" stroke-linecap="round"/>
    <path d="M 274.40 290.00 C 279.74 296.66, 284.87 303.49, 290.40 310.00" fill="none" stroke="black" stroke-width="2.0" stroke-linecap="round"/>
    <path d="M 274.40 324.00 C 270.21 332.58, 265.65 340.99, 262.40 350.00" fill="none" stroke="black" stroke-width="2.0" stroke-linecap="round"/>
    <path d="M 274.40 324.00 C 277.55 333.06, 281.78 341.62, 286.40 350.00" fill="none" stroke="black" stroke-width="2.0" stroke-linecap="round"/>
    <path d="M 36.00 60.00 C 86.00 59.51, 136.00 60.47, 186.00 60.00 C 189.17 63.50, 192.43 66.90, 196.00 70.00 C 196.61 97.33, 195.73 124.67, 196.00 152.00 C 192.42 155.09, 189.03 158.36, 186.00 162.00 C 136.00 161.30, 86.00 161.49, 36.00 162.00 C 32.85 158.48, 29.33 155.33, 26.00 152.00 C 25.47 124.67, 26.38 97.33, 26.00 70.00 C 29.74 67.07, 32.34 63.01, 36.00 60.00" fill="#e3d3a2" stroke="black" stroke-width="2.0" stroke-linecap="round" stroke-linejoin="round"/>
    <path d="M 138.60 162.00 C 140.46 199.36, 143.54 236.65, 145.60 274.00 C 147.47 236.64, 150.92 199.37, 152.60 162.00" fill="#e3d3a2" stroke="black" stroke-width="2.0" stroke-linecap="round" stroke-linejoin="round"/>
    <line x1="139.60000000000002" y1="162" x2="151.60000000000002" y2="162" stroke="#e3d3a2" stroke-width="2.4"/>
    <text x="111.0" y="78.0" text-anchor="middle" font-family="Comic Neue, Comic Sans MS, cursive" font-size="13" fill="black"><tspan x="111.0" dy="0">Matt demon getting</tspan><tspan x="111.0" dy="16">back home is my</tspan><tspan x="111.0" dy="16">favorite genre ig. p.s</tspan><tspan x="111.0" dy="16">Andy weir is a cute</tspan><tspan x="111.0" dy="16">guy</tspan></text>
  </g>
  <g class="panel">
    <path d="M 410.00 46.00 C 536.67 45.46, 663.33 45.71, 790.00 46.00 C 790.28 159.33, 790.30 272.67, 790.00 386.00 C 663.33 386.62, 536.67 385.86, 410.00 386.00 C 409.81 272.67, 410.01 159.33, 410.00 46.00" fill="none" stroke="black" stroke-width="2.0" stroke-linecap="round" stroke-linejoin="round"/>
    <path d="M 420.00 362.00 C 540.00 362.77, 660.00 361.72, 780.00 362.00" fill="none" stroke="black" stroke-width="1.4" stroke-linecap="round"/>
    <path d="M 543.96 270.00 C 543.57 271.56, 543.19 273.13, 543.03 274.73 C 542.06 276.02, 540.98 277.22, 540.31 278.71 C 539.01 279.65, 537.65 280.49, 536.31 281.38 C 534.74 281.42, 533.19 281.95, 531.60 281.67 C 530.00 281.59, 528.40 281.83, 526.81 281.56 C 525.37 280.80, 524.20 279.67, 522.95 278.65 C 522.03 277.35, 521.30 275.97, 521.01 274.39 C 520.42 272.97, 520.11 271.47, 519.69 270.00 C 519.80 268.40, 519.70 266.78, 519.99 265.19 C 521.03 263.94, 521.86 262.54, 522.86 261.26 C 524.10 260.23, 525.58 259.60, 526.95 258.77 C 528.43 258.09, 529.99 257.85, 531.60 257.90 C 533.18 258.04, 534.47 259.11, 536.05 259.25 C 537.32 260.24, 538.82 260.75, 540.30 261.30 C 541.21 262.61, 542.30 263.80, 542.84 265.34 C 543.26 266.88, 543.68 268.42, 543.96 270.00" fill="none" stroke="black" stroke-width="2.0" stroke-linecap="round"/>
    <path d="M 537.80 252.00 C 537.63 252.80, 537.16 253.45, 536.76 254.14 C 536.42 254.78, 536.05 255.41, 535.55 255.95 C 535.07 256.57, 534.40 257.00, 533.94 257.64 C 533.17 257.88, 532.39 257.92, 531.60 257.85 C 530.79 258.09, 530.01 257.85, 529.22 257.74 C 528.47 257.39, 528.20 256.51, 527.45 256.15 C 526.70 255.75, 526.28 255.09, 526.06 254.29 C 525.59 253.59, 525.59 252.80, 525.63 252.00 C 526.05 251.36, 526.20 250.58, 526.59 249.92 C 527.14 249.30, 526.98 248.43, 527.34 247.74 C 528.14 247.61, 528.57 246.75, 529.40 246.70 C 530.09 246.32, 530.83 246.19, 531.60 246.22 C 532.39 246.10, 533.17 246.00, 533.92 246.40 C 534.73 246.63, 535.48 247.01, 536.26 247.34 C 536.62 248.11, 536.97 248.88, 537.49 249.56 C 537.99 250.32, 537.69 251.19, 537.80 252.00" fill="none" stroke="black" stroke-width="2.0" stroke-linecap="round"/>
    <path d="M 520.60 271.00 C 520.64 274.79, 518.39 278.17, 518.60 282.00" fill="none" stroke="black" stroke-width="2.0" stroke-linecap="round"/>
    <path d="M 542.60 271.00 C 542.79 274.75, 544.81 278.17, 544.60 282.00" fill="none" stroke="black" stroke-width="2.0" stroke-linecap="round"/>
    <path d="M 531.60 282.00 C 531.25 296.00, 530.70 310.00, 531.60 324.00" fill="none" stroke="black" stroke-width="2.0" stroke-linecap="round"/>
    <path d="M 531.60 292.00 C 540.86 290.18, 550.26 289.27, 559.60 288.00" fill="none" stroke="black" stroke-width="2.0" stroke-linecap="round"/>
    <path d="M 531.60 292.00 C 525.77 297.56, 520.33 303.46, 515.60 310.00" fill="none" stroke="black" stroke-width="2.0" stroke-linecap="round"/>
    <path d="M 531.60 324.00 C 527.29 332.53, 523.01 341.06, 519.60 350.00" fill="none" stroke="black" stroke-width="2.0" stroke-linecap="round"/>
    <path d="M 531.60 324.00 C 535.02 332.93, 538.73 341.73, 543.60 350.00" fill="none" stroke="black" stroke-width="2.0" stroke-linecap="round"/>
    <path d="M 680.06 270.00 C 679.68 271.57, 679.58 273.15, 679.86 274.75 C 679.05 276.15, 677.80 277.27, 677.23 278.83 C 675.70 279.41, 674.50 280.54, 673.09 281.33 C 671.50 281.63, 669.90 281.94, 668.40 282.59 C 666.97 281.82, 665.41 281.39, 663.85 280.98 C 662.51 280.15, 661.09 279.46, 659.73 278.67 C 659.32 277.12, 658.22 275.92, 657.60 274.47 C 657.26 272.97, 657.23 271.39, 656.47 270.00 C 656.83 268.43, 656.46 266.80, 656.92 265.25 C 657.83 263.90, 658.44 262.37, 659.56 261.16 C 661.12 260.54, 662.21 259.26, 663.59 258.38 C 665.21 258.26, 666.77 257.69, 668.40 257.62 C 669.95 258.07, 671.61 257.97, 673.13 258.59 C 674.40 259.53, 675.57 260.60, 676.80 261.60 C 677.68 262.86, 678.25 264.28, 679.04 265.59 C 679.17 267.11, 679.85 268.50, 680.06 270.00" fill="none" stroke="black" stroke-width="2.0" stroke-linecap="round"/>
    <path d="M 652.40 260.00 C 663.07 259.81, 673.73 259.93, 684.40 260.00 C 682.78 256.78, 681.43 253.45, 680.40 250.00 C 672.40 249.82, 664.40 249.26, 656.40 250.00 C 654.40 253.07, 653.71 256.66, 652.40 260.00" fill="black" stroke="black" stroke-width="2.0" stroke-linecap="round" stroke-linejoin="round"/>
    <path d="M 650.40 260.00 C 662.40 259.15, 674.40 259.01, 686.40 260.00" fill="none" stroke="black" stroke-width="2.0" stroke-linecap="round"/>
    <path d="M 668.40 282.00 C 668.42 296.00, 668.65 310.00, 668.40 324.00" fill="none" stroke="black" stroke-width="2.0" stroke-linecap="round"/>
    <path d="M 668.40 292.00 C 659.01 291.10, 649.67 289.80, 640.40 288.00" fill="none" stroke="black" stroke-width="2.0" stroke-linecap="round"/>
    <path d="M 668.40 292.00 C 673.43 298.27, 679.15 303.93, 684.40 310.00" fill="none" stroke="black" stroke-width="2.0" stroke-linecap="round"/>
    <path d="M 668.40 324.00 C 663.79 332.38, 659.94 341.12, 656.40 350.00" fill="none" stroke="black" stroke-width="2.0" stroke-linecap="round"/>
    <path d="M 668.40 324.00 C 672.83 332.47, 675.99 341.52, 680.40 350.00" fill="none" stroke="black" stroke-width="2.0" stroke-linecap="round"/>
    <path d="M 430.00 60.00 C 480.00 59.62, 530.00 60.40, 580.00 60.00 C 583.16 63.50, 586.49 66.85, 590.00 70.00 C 589.53 92.00, 590.09 114.00, 590.00 136.00 C 587.15 139.81, 583.71 143.04, 580.00 146.00 C 530.00 146.36, 480.00 145.62, 430.00 146.00 C 426.70 142.64, 423.10 139.57, 420.00 136.00 C 420.00 114.00, 420.31 92.00, 420.00 70.00 C 423.07 66.40, 426.25 62.92, 430.00 60.00" fill="#e3d3a2" stroke="black" stroke-width="2.0" stroke-linecap="round" stroke-linejoin="round"/>
    <path d="M 532.60 146.00 C 534.36 188.70, 537.17 231.34, 539.60 274.00 C 541.25 231.30, 543.66 188.63, 546.60 146.00" fill="#e3d3a2" stroke="black" stroke-width="2.0" stroke-linecap="round" stroke-linejoin="round"/>
    <line x1="533.6" y1="146" x2="545.6" y2="146" stroke="#e3d3a2" stroke-width="2.4"/>
    <text x="505.0" y="78.0" text-anchor="middle" font-family="Comic Neue, Comic Sans MS, cursive" font-size="13" fill="black"><tspan x="505.0" dy="0">Matt demon getting</tspan><tspan x="505.0" dy="16">back home is my</tspan><tspan x="505.0" dy="16">favorite genre ig. p.s</tspan><tspan x="505.0" dy="16">Andy weir is a cute…</tspan></text>
  </g>
</svg>
