<?xml version="1.0" encoding="UTF-8"?>
<svg xmlns="http://www.w3.org/2000/svg" viewBox="0 0 412 402" width="412" height="402" role="img" aria-label="#057 — Michael (2026)">
  <defs><filter id="fibers" x="0%" y="0%" width="100%" height="100%"><feTurbulence type="fractalNoise" baseFrequency="0.04 0.7" numOctaves="2" stitchTiles="stitch" seed="7"/><feColorMatrix values="0 0 0 0 0.38  0 0 0 0 0.26  0 0 0 0 0.13  0 0 0 -0.7 0.28"/></filter><filter id="grain" x="0%" y="0%" width="100%" height="100%"><feTurbulence type="fractalNoise" baseFrequency="0.65" numOctaves="3" stitchTiles="stitch" seed="4"/><feColorMatrix values="0 0 0 0 0.42  0 0 0 0 0.30  0 0 0 0 0.16  0 0 0 -1.1 0.5"/></filter></defs>
  <rect width="100%" height="100%" fill="#e3d3a2"/>
  <rect width="100%" height="100%" filter="url(#fibers)" opacity="0.55"/>
  <rect width="100%" height="100%" filter="url(#grain)" opacity="0.85"/>
  <text x="206.0" y="34" text-anchor="middle" font-family="Comic Neue, Comic Sans MS, cursive" font-size="16" font-weight="700" fill="black">#057 — Michael (2026) ★★★★★</text>
  <g class="panel">
    <path d="M 16.00 46.00 C 142.67 45.84, 269.33 45.73, 396.00 46.00 C 396.08 159.33, 395.44 272.67, 396.00 386.00 C 269.33 386.00, 142.67 385.96, 16.00 386.00 C 16.61 272.67, 16.27 159.33, 16.00 46.00" fill="none" stroke="black" stroke-width="2.0" stroke-linecap="round" stroke-linejoin="round"/>
    <path d="M 26.00 362.00 C 146.00 362.41, 266.00 362.83, 386.00 362.00" fill="none" stroke="black" stroke-width="1.4" stroke-linecap="round"/>
    <path d="M 84.40 314.00 C 104.40 313.29, 124.40 313.71, 144.40 314.00 C 143.77 324.67, 144.96 335.33, 144.40 346.00 C 124.40 346.47, 104.40 346.10, 84.40 346.00 C 83.64 335.33, 85.13 324.67, 84.40 314.00" fill="none" stroke="black" stroke-width="2.0" stroke-linecap="round" stroke-linejoin="round"/>
    <path d="M 84.40 302.00 C 104.40 302.75, 124.40 301.83, 144.40 302.00 C 144.82 306.00, 143.87 310.00, 144.40 314.00 C 124.40 313.69, 104.40 314.39, 84.40 314.00 C 84.32 310.00, 84.24 306.00, 84.40 302.00" fill="#e3d3a2" stroke="black" stroke-width="2.0" stroke-linecap="round" stroke-linejoin="round"/>
    <path d="M 88.40 314.00 C 92.81 310.41, 96.91 306.51, 100.40 302.00 C 103.07 301.63, 105.73 302.12, 108.40 302.00 C 104.01 305.61, 100.66 310.26, 96.40 314.00 C 93.73 314.40, 91.07 314.70, 88.40 314.00" fill="black" stroke="black" stroke-width="2.0" stroke-linecap="round" stroke-linejoin="round"/>
    <path d="M 112.40 314.00 C 116.75 310.35, 120.20 305.80, 124.40 302.00 C 127.07 302.09, 129.73 301.27, 132.40 302.00 C 128.96 306.56, 124.09 309.69, 120.40 314.00 C 117.73 314.45, 115.07 313.41, 112.40 314.00" fill="black" stroke="black" stroke-width="2.0" stroke-linecap="round" stroke-linejoin="round"/>
    <path d="M 279.07 270.00 C 278.82 271.57, 278.10 273.04, 278.01 274.64 C 276.87 275.82, 276.13 277.23, 275.53 278.73 C 274.17 279.55, 272.89 280.51, 271.35 280.99 C 269.83 281.22, 268.38 281.91, 266.80 281.82 C 265.34 281.34, 263.81 281.16, 262.32 280.81 C 261.24 279.73, 259.93 278.96, 258.66 278.14 C 257.40 277.19, 256.42 275.99, 255.68 274.61 C 255.59 273.06, 255.17 271.55, 255.17 270.00 C 255.34 268.40, 254.86 266.80, 255.22 265.20 C 256.27 263.99, 256.99 262.50, 258.32 261.52 C 259.81 261.01, 260.95 259.90, 262.33 259.20 C 263.91 259.04, 265.38 258.51, 266.80 257.83 C 268.29 258.38, 269.91 258.34, 271.40 258.89 C 272.70 259.87, 274.27 260.33, 275.65 261.15 C 276.62 262.46, 277.29 263.99, 278.44 265.18 C 278.54 266.80, 278.52 268.44, 279.07 270.00" fill="none" stroke="black" stroke-width="2.0" stroke-linecap="round"/>
    <path d="M 250.80 260.00 C 261.47 259.95, 272.13 260.18, 282.80 260.00 C 282.14 256.40, 280.46 253.20, 278.80 250.00 C 270.80 249.62, 262.80 249.81, 254.80 250.00 C 252.80 253.07, 252.16 256.68, 250.80 260.00" fill="black" stroke="black" stroke-width="2.0" stroke-linecap="round" stroke-linejoin="round"/>
    <path d="M 248.80 260.00 C 260.80 260.17, 272.80 260.54, 284.80 260.00" fill="none" stroke="black" stroke-width="2.0" stroke-linecap="round"/>
    <path d="M 266.80 282.00 C 267.06 296.00, 267.46 310.00, 266.80 324.00" fill="none" stroke="black" stroke-width="2.0" stroke-linecap="round"/>
    <path d="M 266.80 292.00 C 257.52 290.31, 248.13 289.33, 238.80 288.00" fill="none" stroke="black" stroke-width="2.0" stroke-linecap="round"/>
    <path d="M 266.80 292.00 C 272.38 297.78, 276.78 304.61, 282.80 310.00" fill="none" stroke="black" stroke-width="2.0" stroke-linecap="round"/>
    <path d="M 266.80 324.00 C 261.92 332.26, 259.35 341.59, 254.80 350.00" fill="none" stroke="black" stroke-width="2.0" stroke-linecap="round"/>
    <path d="M 266.80 324.00 C 271.30 332.44, 275.06 341.21, 278.80 350.00" fill="none" stroke="black" stroke-width="2.0" stroke-linecap="round"/>
    <path d="M 226.00 60.00 C 276.00 59.52, 326.00 59.75, 376.00 60.00 C 379.60 63.07, 383.12 66.21, 386.00 70.00 C 385.78 81.33, 385.40 92.67, 386.00 104.00 C 382.82 107.49, 379.15 110.49, 376.00 114.00 C 326.00 114.74, 276.00 113.20, 226.00 114.00 C 222.11 111.23, 219.01 107.65, 216.00 104.00 C 216.44 92.67, 216.18 81.33, 216.00 70.00 C 219.88 67.21, 222.65 63.32, 226.00 60.00" fill="#e3d3a2" stroke="black" stroke-width="2.0" stroke-linecap="round" stroke-linejoin="round"/>
    <path d="M 251.80 114.00 C 254.75 167.31, 256.45 220.67, 258.80 274.00 C 261.70 220.69, 263.41 167.33, 265.80 114.00" fill="#e3d3a2" stroke="black" stroke-width="2.0" stroke-linecap="round" stroke-linejoin="round"/>
    <line x1="252.8" y1="114" x2="264.8" y2="114" stroke="#e3d3a2" stroke-width="2.4"/>
    <text x="301.0" y="78.0" text-anchor="middle" font-family="Comic Neue, Comic Sans MS, cursive" font-size="13" fill="black"><tspan x="301.0" dy="0">BANGERRR!!! jaaafarrrr</tspan><tspan x="301.0" dy="16">my G</tspan></text>
  </g>
</svg>
