<?xml version="1.0" encoding="UTF-8"?>
<svg xmlns="http://www.w3.org/2000/svg" viewBox="0 0 412 402" width="412" height="402" role="img" aria-label="#058 — The Karate Kid (2010)">
  <defs><filter id="fibers" x="0%" y="0%" width="100%" height="100%"><feTurbulence type="fractalNoise" baseFrequency="0.04 0.7" numOctaves="2" stitchTiles="stitch" seed="10"/><feColorMatrix values="0 0 0 0 0.38  0 0 0 0 0.26  0 0 0 0 0.13  0 0 0 -0.7 0.28"/></filter><filter id="grain" x="0%" y="0%" width="100%" height="100%"><feTurbulence type="fractalNoise" baseFrequency="0.65" numOctaves="3" stitchTiles="stitch" seed="5"/><feColorMatrix values="0 0 0 0 0.42  0 0 0 0 0.30  0 0 0 0 0.16  0 0 0 -1.1 0.5"/></filter></defs>
  <rect width="100%" height="100%" fill="#e3d3a2"/>
  <rect width="100%" height="100%" filter="url(#fibers)" opacity="0.55"/>
  <rect width="100%" height="100%" filter="url(#grain)" opacity="0.85"/>
  <text x="206.0" y="34" text-anchor="middle" font-family="Comic Neue, Comic Sans MS, cursive" font-size="16" font-weight="700" fill="black">#058 — The Karate Kid (2010) ★★★½</text>
  <g class="panel">
    <path d="M 16.00 46.00 C 142.67 46.55, 269.33 45.56, 396.00 46.00 C 396.25 159.33, 396.61 272.67, 396.00 386.00 C 269.33 385.56, 142.67 385.36, 16.00 386.00 C 15.41 272.67, 16.12 159.33, 16.00 46.00" fill="none" stroke="black" stroke-width="2.0" stroke-linecap="round" stroke-linejoin="round"/>
    <path d="M 46.00 82.00 C 152.67 82.17, 259.33 82.38, 366.00 82.00 C 366.39 108.67, 365.51 135.33, 366.00 162.00 C 259.33 161.57, 152.67 162.50, 46.00 162.00 C 45.27 135.33, 45.66 108.67, 46.00 82.00" fill="#111" stroke="black" stroke-width="2.0" stroke-linecap="round" stroke-linejoin="round"/>
    <path d="M 50.00 86.00 C 154.00 86.14, 258.00 85.45, 362.00 86.00 C 362.44 110.00, 361.77 134.00, 362.00 158.00 C 258.00 158.47, 154.00 158.67, 50.00 158.00 C 50.73 134.00, 49.79 110.00, 50.00 86.00" fill="none" stroke="black" stroke-width="2.0" stroke-linecap="round" stroke-linejoin="round"/>
    <path d="M 66.00 362.00 C 112.67 362.56, 159.33 361.23, 206.00 362.00 C 204.00 352.09, 203.15 342.02, 202.00 332.00 C 198.71 325.58, 197.21 318.45, 194.00 312.00 C 155.33 312.66, 116.67 312.25, 78.00 312.00 C 76.02 318.94, 72.73 325.36, 70.00 332.00 C 68.90 342.03, 66.88 351.94, 66.00 362.00" fill="#222" stroke="black" stroke-width="2.0" stroke-linecap="round" stroke-linejoin="round"/>
    <path d="M 216.00 362.00 C 262.67 361.31, 309.33 361.99, 356.00 362.00 C 355.27 351.92, 353.92 341.92, 352.00 332.00 C 348.65 325.61, 346.53 318.72, 344.00 312.00 C 305.33 312.63, 266.67 312.15, 228.00 312.00 C 225.07 318.56, 223.09 325.50, 220.00 332.00 C 218.45 341.97, 217.61 352.04, 216.00 362.00" fill="#222" stroke="black" stroke-width="2.0" stroke-linecap="round" stroke-linejoin="round"/>
    <path d="M 150.13 332.00 C 149.90 333.61, 149.49 335.17, 148.93 336.69 C 147.62 337.63, 146.98 339.15, 145.84 340.24 C 144.43 340.86, 143.36 341.99, 142.06 342.77 C 140.59 343.13, 139.08 343.26, 137.60 343.60 C 136.05 343.68, 134.67 342.90, 133.17 342.69 C 131.94 341.73, 130.30 341.52, 129.08 340.52 C 127.82 339.48, 126.81 338.23, 126.03 336.79 C 126.06 335.19, 125.70 333.61, 125.82 332.00 C 126.23 330.51, 126.58 329.01, 126.63 327.46 C 127.71 326.31, 128.09 324.71, 129.15 323.55 C 130.57 322.76, 131.84 321.80, 132.84 320.51 C 134.42 320.09, 136.02 320.66, 137.60 320.41 C 139.13 320.49, 140.56 321.15, 142.10 321.14 C 143.41 321.91, 144.35 323.17, 145.69 323.91 C 146.44 325.28, 147.41 326.47, 148.64 327.43 C 149.35 328.88, 149.61 330.48, 150.13 332.00" fill="none" stroke="black" stroke-width="2.0" stroke-linecap="round"/>
    <path d="M 285.98 332.00 C 285.56 333.48, 285.76 335.05, 285.33 336.53 C 284.41 337.75, 283.24 338.79, 282.64 340.24 C 281.70 341.55, 280.38 342.40, 279.06 343.25 C 277.52 343.64, 275.90 343.68, 274.40 344.25 C 272.82 344.06, 271.28 343.71, 269.81 343.09 C 268.69 341.95, 267.33 341.18, 265.93 340.47 C 265.09 339.11, 264.09 337.86, 262.94 336.74 C 262.94 335.15, 262.73 333.57, 262.45 332.00 C 262.66 330.40, 262.42 328.78, 262.79 327.19 C 264.02 326.13, 264.62 324.52, 265.98 323.58 C 267.33 322.87, 268.79 322.33, 269.99 321.35 C 271.41 320.82, 272.93 320.75, 274.40 320.47 C 275.94 320.54, 277.45 320.81, 278.98 320.93 C 280.23 321.84, 281.57 322.62, 282.64 323.76 C 283.57 324.97, 284.36 326.27, 285.24 327.51 C 285.85 328.95, 286.00 330.46, 285.98 332.00" fill="none" stroke="black" stroke-width="2.0" stroke-linecap="round"/>
    <path d="M 143.45 314.00 C 143.18 314.70, 142.82 315.36, 142.72 316.12 C 142.16 316.62, 141.77 317.23, 141.55 317.95 C 140.84 318.42, 140.23 318.97, 140.02 319.85 C 139.21 320.18, 138.40 320.01, 137.60 319.80 C 136.80 319.80, 136.00 320.10, 135.21 319.78 C 134.47 319.38, 134.17 318.56, 133.55 318.05 C 132.82 317.65, 132.16 317.17, 131.73 316.43 C 131.57 315.61, 132.21 314.83, 131.85 314.00 C 132.06 313.19, 131.63 312.40, 131.78 311.59 C 132.52 311.15, 132.95 310.46, 133.32 309.72 C 134.09 309.56, 134.78 309.21, 135.44 308.80 C 136.13 308.48, 136.92 308.56, 137.60 308.23 C 138.34 308.35, 139.12 308.32, 139.70 308.92 C 140.38 309.21, 140.98 309.67, 141.69 309.91 C 142.15 310.61, 143.16 310.72, 143.51 311.55 C 143.27 312.36, 143.38 313.18, 143.45 314.00" fill="none" stroke="black" stroke-width="2.0" stroke-linecap="round"/>
    <path d="M 126.60 333.00 C 125.01 336.50, 125.46 340.37, 124.60 344.00" fill="none" stroke="black" stroke-width="2.0" stroke-linecap="round"/>
    <path d="M 148.60 333.00 C 148.55 336.80, 149.61 340.39, 150.60 344.00" fill="none" stroke="black" stroke-width="2.0" stroke-linecap="round"/>
    <path d="M 262.40 330.00 C 262.11 340.69, 260.54 351.30, 260.40 362.00" fill="none" stroke="black" stroke-width="2.0" stroke-linecap="round"/>
    <path d="M 264.40 328.00 C 264.24 340.69, 262.30 353.29, 262.40 366.00" fill="none" stroke="black" stroke-width="2.0" stroke-linecap="round"/>
    <path d="M 286.40 330.00 C 287.95 340.61, 288.18 351.31, 288.40 362.00" fill="none" stroke="black" stroke-width="2.0" stroke-linecap="round"/>
    <path d="M 270.40 320.00 C 268.97 319.52, 267.29 319.55, 266.40 318.00" fill="none" stroke="black" stroke-width="1.4" stroke-linecap="round"/>
    <path d="M 278.40 320.00 C 280.14 320.14, 281.44 319.41, 282.40 318.00" fill="none" stroke="black" stroke-width="1.4" stroke-linecap="round"/>
    <path d="M 36.00 60.00 C 85.33 59.60, 134.67 60.23, 184.00 60.00 C 187.85 62.82, 190.19 67.15, 194.00 70.00 C 193.24 81.33, 193.96 92.67, 194.00 104.00 C 190.40 107.06, 187.36 110.70, 184.00 114.00 C 134.67 113.28, 85.33 113.54, 36.00 114.00 C 32.58 110.75, 28.88 107.78, 26.00 104.00 C 26.55 92.67, 26.64 81.33, 26.00 70.00 C 29.66 66.99, 32.66 63.32, 36.00 60.00" fill="#e3d3a2" stroke="black" stroke-width="2.0" stroke-linecap="round" stroke-linejoin="round"/>
    <path d="M 138.60 114.00 C 140.32 188.02, 142.81 262.01, 145.60 336.00 C 148.44 262.02, 150.84 188.02, 152.60 114.00" fill="#e3d3a2" stroke="black" stroke-width="2.0" stroke-linecap="round" stroke-linejoin="round"/>
    <line x1="139.60000000000002" y1="114" x2="151.60000000000002" y2="114" stroke="#e3d3a2" stroke-width="2.4"/>
    <text x="110.0" y="78.0" text-anchor="middle" font-family="Comic Neue, Comic Sans MS, cursive" font-size="13" fill="black"><tspan x="110.0" dy="0">nostalgia and chan</tspan><tspan x="110.0" dy="16">goes hard eh</tspan></text>
  </g>
</svg>
