<?xml version="1.0" encoding="UTF-8"?>
<svg xmlns="http://www.w3.org/2000/svg" viewBox="0 0 412 402" width="412" height="402" role="img" aria-label="#059 — Disclosure Day (2026)">
  <defs><filter id="fibers" x="0%" y="0%" width="100%" height="100%"><feTurbulence type="fractalNoise" baseFrequency="0.04 0.7" numOctaves="2" stitchTiles="stitch" seed="2"/><feColorMatrix values="0 0 0 0 0.38  0 0 0 0 0.26  0 0 0 0 0.13  0 0 0 -0.7 0.28"/></filter><filter id="grain" x="0%" y="0%" width="100%" height="100%"><feTurbulence type="fractalNoise" baseFrequency="0.65" numOctaves="3" stitchTiles="stitch" seed="6"/><feColorMatrix values="0 0 0 0 0.42  0 0 0 0 0.30  0 0 0 0 0.16  0 0 0 -1.1 0.5"/></filter></defs>
  <rect width="100%" height="100%" fill="#e3d3a2"/>
  <rect width="100%" height="100%" filter="url(#fibers)" opacity="0.55"/>
  <rect width="100%" height="100%" filter="url(#grain)" opacity="0.85"/>
  <text x="206.0" y="34" text-anchor="middle" font-family="Comic Neue, Comic Sans MS, cursive" font-size="16" font-weight="700" fill="black">#059 — Disclosure Day (2026) ★★★</text>
  <g class="panel">
    <path d="M 16.00 46.00 C 142.67 45.44, 269.33 45.85, 396.00 46.00 C 395.21 159.33, 395.44 272.67, 396.00 386.00 C 269.33 386.14, 142.67 385.37, 16.00 386.00 C 15.61 272.67, 16.68 159.33, 16.00 46.00" fill="none" stroke="black" stroke-width="2.0" stroke-linecap="round" stroke-linejoin="round"/>
    <path d="M 26.00 362.00 C 146.00 361.84, 266.00 361.52, 386.00 362.00" fill="none" stroke="black" stroke-width="1.4" stroke-linecap="round"/>
    <path d="M 149.29 270.00 C 149.46 271.60, 149.37 273.18, 149.08 274.76 C 147.87 275.84, 147.12 277.28, 146.14 278.54 C 144.67 279.09, 143.27 279.78, 142.09 280.84 C 140.65 281.50, 139.08 281.73, 137.60 282.26 C 136.07 281.90, 134.52 281.60, 133.11 280.85 C 131.67 280.18, 130.31 279.35, 128.84 278.76 C 128.24 277.22, 127.11 276.04, 126.16 274.74 C 126.19 273.13, 126.13 271.54, 125.59 270.00 C 126.01 268.52, 126.65 267.12, 127.06 265.64 C 127.88 264.26, 128.32 262.73, 128.83 261.23 C 130.32 260.70, 131.65 259.76, 133.22 259.41 C 134.58 258.59, 136.14 258.25, 137.60 257.66 C 139.07 258.26, 140.53 258.89, 142.13 259.07 C 143.30 260.06, 144.60 260.86, 145.83 261.77 C 147.12 262.74, 148.20 263.93, 149.18 265.20 C 149.31 266.80, 149.60 268.39, 149.29 270.00" fill="none" stroke="black" stroke-width="2.0" stroke-linecap="round"/>
    <path d="M 143.07 252.00 C 143.18 252.75, 142.98 253.43, 142.60 254.07 C 142.65 254.95, 142.21 255.76, 142.24 256.64 C 141.45 257.11, 140.52 256.77, 139.70 257.08 C 138.93 257.47, 138.22 257.96, 137.60 258.57 C 136.91 257.98, 135.96 258.18, 135.20 257.80 C 134.35 257.57, 133.89 256.85, 133.31 256.29 C 132.60 255.82, 132.01 255.23, 131.56 254.50 C 131.33 253.68, 131.12 252.86, 131.30 252.00 C 131.95 251.41, 131.70 250.42, 132.23 249.78 C 132.16 248.88, 132.60 248.16, 133.04 247.44 C 133.57 246.71, 134.25 246.23, 135.15 246.09 C 135.98 246.21, 136.79 246.14, 137.60 245.94 C 138.44 245.64, 139.21 246.20, 140.03 246.14 C 140.88 246.34, 141.68 246.64, 142.25 247.35 C 142.90 248.01, 142.74 248.96, 143.11 249.72 C 143.10 250.48, 143.16 251.24, 143.07 252.00" fill="none" stroke="black" stroke-width="2.0" stroke-linecap="round"/>
    <path d="M 126.60 271.00 C 125.96 274.67, 126.20 278.50, 124.60 282.00" fill="none" stroke="black" stroke-width="2.0" stroke-linecap="round"/>
    <path d="M 148.60 271.00 C 148.57 274.79, 150.01 278.32, 150.60 282.00" fill="none" stroke="black" stroke-width="2.0" stroke-linecap="round"/>
    <path d="M 137.60 282.00 C 137.03 296.00, 137.69 310.00, 137.60 324.00" fill="none" stroke="black" stroke-width="2.0" stroke-linecap="round"/>
    <path d="M 137.60 290.00 C 130.45 285.66, 122.64 282.54, 115.60 278.00" fill="none" stroke="black" stroke-width="2.0" stroke-linecap="round"/>
    <path d="M 115.60 278.00 C 114.63 284.08, 113.36 290.09, 111.60 296.00" fill="none" stroke="black" stroke-width="2.0" stroke-linecap="round"/>
    <path d="M 137.60 290.00 C 144.91 285.95, 152.08 281.66, 159.60 278.00" fill="none" stroke="black" stroke-width="2.0" stroke-linecap="round"/>
    <path d="M 159.60 278.00 C 161.19 283.94, 162.56 289.94, 163.60 296.00" fill="none" stroke="black" stroke-width="2.0" stroke-linecap="round"/>
    <path d="M 137.60 324.00 C 133.30 332.53, 129.58 341.33, 125.60 350.00" fill="none" stroke="black" stroke-width="2.0" stroke-linecap="round"/>
    <path d="M 137.60 324.00 C 142.06 332.45, 144.73 341.74, 149.60 350.00" fill="none" stroke="black" stroke-width="2.0" stroke-linecap="round"/>
    <path d="M 286.02 270.00 C 286.03 271.54, 285.69 273.01, 285.11 274.43 C 284.83 276.05, 283.57 277.24, 283.22 278.82 C 281.71 279.44, 280.58 280.68, 279.11 281.36 C 277.56 281.75, 276.04 282.31, 274.40 282.20 C 272.89 281.78, 271.55 280.92, 270.03 280.54 C 268.70 279.81, 267.32 279.15, 265.99 278.41 C 264.68 277.43, 264.11 275.81, 262.85 274.78 C 262.68 273.18, 262.09 271.64, 262.18 270.00 C 262.69 268.53, 263.37 267.11, 263.84 265.62 C 264.23 264.07, 265.09 262.69, 265.57 261.17 C 266.83 260.14, 268.46 259.78, 269.79 258.87 C 271.30 258.47, 272.89 258.72, 274.40 258.34 C 275.80 258.93, 277.39 258.80, 278.78 259.43 C 280.02 260.38, 281.49 260.90, 282.91 261.49 C 283.57 262.94, 284.72 264.05, 285.59 265.36 C 285.72 266.91, 285.80 268.46, 286.02 270.00" fill="none" stroke="black" stroke-width="2.0" stroke-linecap="round"/>
    <path d="M 262.40 268.00 C 262.46 278.71, 261.10 289.34, 260.40 300.00" fill="none" stroke="black" stroke-width="2.0" stroke-linecap="round"/>
    <path d="M 264.40 266.00 C 263.23 278.64, 263.97 291.38, 262.40 304.00" fill="none" stroke="black" stroke-width="2.0" stroke-linecap="round"/>
    <path d="M 286.40 268.00 C 286.50 278.70, 287.38 289.36, 288.40 300.00" fill="none" stroke="black" stroke-width="2.0" stroke-linecap="round"/>
    <path d="M 270.40 258.00 C 268.68 258.11, 268.04 256.05, 266.40 256.00" fill="none" stroke="black" stroke-width="1.4" stroke-linecap="round"/>
    <path d="M 278.40 258.00 C 279.84 257.54, 280.71 255.95, 282.40 256.00" fill="none" stroke="black" stroke-width="1.4" stroke-linecap="round"/>
    <path d="M 274.40 282.00 C 273.88 296.00, 273.49 310.00, 274.40 324.00" fill="none" stroke="black" stroke-width="2.0" stroke-linecap="round"/>
    <path d="M 274.40 292.00 C 265.18 289.86, 255.80 288.83, 246.40 288.00" fill="none" stroke="black" stroke-width="2.0" stroke-linecap="round"/>
    <path d="M 274.40 292.00 C 278.99 298.66, 284.87 304.18, 290.40 310.00" fill="none" stroke="black" stroke-width="2.0" stroke-linecap="round"/>
    <path d="M 274.40 324.00 C 270.34 332.64, 266.18 341.23, 262.40 350.00" fill="none" stroke="black" stroke-width="2.0" stroke-linecap="round"/>
    <path d="M 274.40 324.00 C 278.33 332.70, 281.50 341.75, 286.40 350.00" fill="none" stroke="black" stroke-width="2.0" stroke-linecap="round"/>
    <path d="M 36.00 60.00 C 86.00 59.38, 136.00 59.46, 186.00 60.00 C 189.16 63.50, 193.07 66.26, 196.00 70.00 C 195.56 81.33, 196.45 92.67, 196.00 104.00 C 192.67 107.34, 189.61 110.95, 186.00 114.00 C 136.00 114.34, 86.00 113.56, 36.00 114.00 C 32.71 110.62, 29.65 107.02, 26.00 104.00 C 25.84 92.67, 26.34 81.33, 26.00 70.00 C 29.75 67.08, 32.79 63.46, 36.00 60.00" fill="#e3d3a2" stroke="black" stroke-width="2.0" stroke-linecap="round" stroke-linejoin="round"/>
    <path d="M 138.60 114.00 C 141.40 167.31, 142.74 220.69, 145.60 274.00 C 147.82 220.66, 150.18 167.33, 152.60 114.00" fill="#e3d3a2" stroke="black" stroke-width="2.0" stroke-linecap="round" stroke-linejoin="round"/>
    <line x1="139.60000000000002" y1="114" x2="151.60000000000002" y2="114" stroke="#e3d3a2" stroke-width="2.4"/>
    <text x="111.0" y="78.0" text-anchor="middle" font-family="Comic Neue, Comic Sans MS, cursive" font-size="13" fill="black"><tspan x="111.0" dy="0">its never abt aliens</tspan><tspan x="111.0" dy="16">is it?</tspan></text>
  </g>
</svg>
