<?xml version="1.0" encoding="UTF-8"?>
<svg xmlns="http://www.w3.org/2000/svg" viewBox="0 0 412 402" width="412" height="402" role="img" aria-label="#060 — Voicemails for Isabelle (2026)">
  <defs><filter id="fibers" x="0%" y="0%" width="100%" height="100%"><feTurbulence type="fractalNoise" baseFrequency="0.04 0.7" numOctaves="2" stitchTiles="stitch" seed="5"/><feColorMatrix values="0 0 0 0 0.38  0 0 0 0 0.26  0 0 0 0 0.13  0 0 0 -0.7 0.28"/></filter><filter id="grain" x="0%" y="0%" width="100%" height="100%"><feTurbulence type="fractalNoise" baseFrequency="0.65" numOctaves="3" stitchTiles="stitch" seed="7"/><feColorMatrix values="0 0 0 0 0.42  0 0 0 0 0.30  0 0 0 0 0.16  0 0 0 -1.1 0.5"/></filter></defs>
  <rect width="100%" height="100%" fill="#e3d3a2"/>
  <rect width="100%" height="100%" filter="url(#fibers)" opacity="0.55"/>
  <rect width="100%" height="100%" filter="url(#grain)" opacity="0.85"/>
  <text x="206.0" y="34" text-anchor="middle" font-family="Comic Neue, Comic Sans MS, cursive" font-size="16" font-weight="700" fill="black">#060 — Voicemails for Isabelle (2026) ★★★</text>
  <g class="panel">
    <path d="M 16.00 46.00 C 142.67 46.63, 269.33 46.30, 396.00 46.00 C 395.27 159.33, 396.77 272.67, 396.00 386.00 C 269.33 386.14, 142.67 385.35, 16.00 386.00 C 16.52 272.67, 15.61 159.33, 16.00 46.00" fill="none" stroke="black" stroke-width="2.0" stroke-linecap="round" stroke-linejoin="round"/>
    <path d="M 26.00 362.00 C 146.00 362.53, 266.00 362.49, 386.00 362.00" fill="none" stroke="black" stroke-width="1.4" stroke-linecap="round"/>
    <path d="M 312.40 108.00 C 314.39 111.65, 315.28 115.75, 317.16 119.45 C 321.28 119.74, 325.39 120.29, 329.52 120.44 C 326.56 123.33, 323.42 126.03, 320.10 128.50 C 320.56 132.64, 322.76 136.37, 322.98 140.56 C 319.39 138.51, 315.58 136.82, 312.40 134.10 C 308.85 136.21, 305.71 139.01, 301.82 140.56 C 302.20 136.40, 303.17 132.39, 304.70 128.50 C 301.53 125.85, 298.56 122.96, 295.28 120.44 C 299.36 119.56, 303.54 120.06, 307.64 119.45 C 309.14 115.60, 311.23 111.99, 312.40 108.00" fill="none" stroke="black" stroke-width="2.0" stroke-linecap="round" stroke-linejoin="round"/>
    <path d="M 99.60 94.00 C 101.16 96.34, 102.03 98.96, 102.77 101.63 C 105.47 102.43, 108.23 102.57, 111.01 102.29 C 109.38 104.63, 106.59 105.60, 104.74 107.67 C 105.06 110.42, 105.42 113.17, 106.65 115.71 C 104.39 114.12, 101.59 113.43, 99.60 111.40 C 96.88 112.24, 94.55 113.70, 92.55 115.71 C 93.70 113.15, 93.76 110.33, 94.46 107.67 C 92.14 106.15, 90.41 103.93, 88.19 102.29 C 90.90 101.66, 93.65 101.49, 96.43 101.63 C 98.04 99.32, 98.36 96.47, 99.60 94.00" fill="none" stroke="black" stroke-width="2.0" stroke-linecap="round" stroke-linejoin="round"/>
    <path d="M 198.48 270.00 C 198.76 271.60, 198.89 273.19, 198.60 274.80 C 197.90 276.31, 196.71 277.42, 195.62 278.62 C 194.22 279.30, 192.75 279.83, 191.38 280.59 C 189.96 281.20, 188.58 281.91, 187.00 282.08 C 185.48 281.52, 183.83 281.83, 182.29 281.36 C 181.23 280.20, 179.81 279.42, 178.86 278.14 C 177.71 277.11, 177.18 275.62, 176.15 274.49 C 175.74 273.02, 175.47 271.54, 175.54 270.00 C 175.81 268.52, 176.07 267.05, 176.28 265.56 C 176.98 264.16, 177.52 262.69, 178.36 261.36 C 179.86 260.89, 181.29 260.27, 182.63 259.44 C 184.09 258.83, 185.52 258.14, 187.00 257.56 C 188.63 257.72, 190.08 258.39, 191.52 259.10 C 192.98 259.75, 194.30 260.71, 195.87 261.13 C 196.49 262.60, 197.54 263.88, 197.88 265.49 C 197.72 267.04, 198.24 268.50, 198.48 270.00" fill="none" stroke="black" stroke-width="2.0" stroke-linecap="round"/>
    <path d="M 173.00 260.00 C 182.33 260.50, 191.67 260.41, 201.00 260.00 C 199.70 257.32, 198.46 254.60, 197.00 252.00 C 190.33 252.27, 183.67 251.61, 177.00 252.00 C 176.21 254.94, 174.67 257.50, 173.00 260.00" fill="black" stroke="black" stroke-width="2.0" stroke-linecap="round" stroke-linejoin="round"/>
    <path d="M 199.21 252.00 C 199.29 252.31, 199.50 252.61, 199.25 252.93 C 199.22 253.29, 199.03 253.55, 198.79 253.79 C 198.60 254.13, 198.32 254.29, 197.92 254.22 C 197.60 254.25, 197.36 254.57, 197.00 254.47 C 196.80 254.16, 196.57 253.91, 196.15 254.05 C 196.01 253.72, 195.75 253.40, 196.00 253.00 C 196.14 252.66, 195.69 252.77, 195.66 252.56 C 195.94 252.32, 195.94 252.13, 195.57 252.00 C 195.25 251.78, 195.15 251.41, 194.91 251.13 C 195.29 251.21, 195.56 251.07, 195.72 250.72 C 195.73 250.39, 195.93 250.19, 196.19 250.04 C 196.47 250.04, 196.79 250.26, 197.00 249.88 C 197.40 250.07, 197.72 249.94, 197.98 249.62 C 197.99 250.01, 198.30 250.33, 198.26 250.74 C 198.63 250.90, 198.15 251.23, 198.39 251.42 C 198.83 251.39, 198.90 251.87, 199.21 252.00" fill="black" stroke="black" stroke-width="2.0" stroke-linecap="round"/>
    <path d="M 187.00 282.00 C 187.38 296.00, 186.61 310.00, 187.00 324.00" fill="none" stroke="black" stroke-width="2.0" stroke-linecap="round"/>
    <path d="M 187.00 288.00 C 180.07 278.35, 172.51 269.20, 165.00 260.00" fill="none" stroke="black" stroke-width="2.0" stroke-linecap="round"/>
    <path d="M 187.00 288.00 C 193.85 278.29, 201.64 269.31, 209.00 260.00" fill="none" stroke="black" stroke-width="2.0" stroke-linecap="round"/>
    <path d="M 187.00 324.00 C 183.77 333.02, 178.28 341.00, 175.00 350.00" fill="none" stroke="black" stroke-width="2.0" stroke-linecap="round"/>
    <path d="M 187.00 324.00 C 191.79 332.30, 194.57 341.53, 199.00 350.00" fill="none" stroke="black" stroke-width="2.0" stroke-linecap="round"/>
    <path d="M 36.00 60.00 C 86.00 60.08, 136.00 59.54, 186.00 60.00 C 189.28 63.39, 192.31 67.02, 196.00 70.00 C 195.52 81.33, 196.32 92.67, 196.00 104.00 C 192.99 107.65, 188.79 110.12, 186.00 114.00 C 136.00 114.71, 86.00 113.73, 36.00 114.00 C 32.15 111.18, 29.54 107.13, 26.00 104.00 C 25.28 92.67, 26.49 81.33, 26.00 70.00 C 29.89 67.23, 32.78 63.44, 36.00 60.00" fill="#e3d3a2" stroke="black" stroke-width="2.0" stroke-linecap="round" stroke-linejoin="round"/>
    <path d="M 177.00 114.00 C 183.40 167.29, 188.90 220.68, 195.00 274.00 C 193.34 220.67, 193.01 167.32, 191.00 114.00" fill="#e3d3a2" stroke="black" stroke-width="2.0" stroke-linecap="round" stroke-linejoin="round"/>
    <line x1="178" y1="114" x2="190" y2="114" stroke="#e3d3a2" stroke-width="2.4"/>
    <text x="111.0" y="78.0" text-anchor="middle" font-family="Comic Neue, Comic Sans MS, cursive" font-size="13" fill="black"><tspan x="111.0" dy="0">LAAARDDDD GIMME A WES</tspan><tspan x="111.0" dy="16">PLS</tspan></text>
  </g>
</svg>
