<?xml version="1.0" encoding="UTF-8"?>
<svg xmlns="http://www.w3.org/2000/svg" viewBox="0 0 412 402" width="412" height="402" role="img" aria-label="#061 — Bridget Jones&#x27;s Diary (2001)">
  <defs><filter id="fibers" x="0%" y="0%" width="100%" height="100%"><feTurbulence type="fractalNoise" baseFrequency="0.04 0.7" numOctaves="2" stitchTiles="stitch" seed="8"/><feColorMatrix values="0 0 0 0 0.38  0 0 0 0 0.26  0 0 0 0 0.13  0 0 0 -0.7 0.28"/></filter><filter id="grain" x="0%" y="0%" width="100%" height="100%"><feTurbulence type="fractalNoise" baseFrequency="0.65" numOctaves="3" stitchTiles="stitch" seed="8"/><feColorMatrix values="0 0 0 0 0.42  0 0 0 0 0.30  0 0 0 0 0.16  0 0 0 -1.1 0.5"/></filter></defs>
  <rect width="100%" height="100%" fill="#e3d3a2"/>
  <rect width="100%" height="100%" filter="url(#fibers)" opacity="0.55"/>
  <rect width="100%" height="100%" filter="url(#grain)" opacity="0.85"/>
  <text x="206.0" y="34" text-anchor="middle" font-family="Comic Neue, Comic Sans MS, cursive" font-size="16" font-weight="700" fill="black">#061 — Bridget Jones&#x27;s Diary (2001) ★★★</text>
  <g class="panel">
    <path d="M 16.00 46.00 C 142.67 46.43, 269.33 46.70, 396.00 46.00 C 396.19 159.33, 395.81 272.67, 396.00 386.00 C 269.33 385.89, 142.67 385.22, 16.00 386.00 C 16.22 272.67, 16.29 159.33, 16.00 46.00" fill="none" stroke="black" stroke-width="2.0" stroke-linecap="round" stroke-linejoin="round"/>
    <path d="M 46.00 82.00 C 152.67 82.30, 259.33 81.51, 366.00 82.00 C 366.64 108.67, 365.55 135.33, 366.00 162.00 C 259.33 162.53, 152.67 162.78, 46.00 162.00 C 45.51 135.33, 45.38 108.67, 46.00 82.00" fill="#111" stroke="black" stroke-width="2.0" stroke-linecap="round" stroke-linejoin="round"/>
    <path d="M 50.00 86.00 C 154.00 85.21, 258.00 85.23, 362.00 86.00 C 362.63 110.00, 361.33 134.00, 362.00 158.00 C 258.00 158.18, 154.00 157.41, 50.00 158.00 C 50.51 134.00, 50.37 110.00, 50.00 86.00" fill="none" stroke="black" stroke-width="2.0" stroke-linecap="round" stroke-linejoin="round"/>
    <path d="M 66.00 362.00 C 112.67 361.40, 159.33 362.17, 206.00 362.00 C 204.12 352.07, 203.25 342.01, 202.00 332.00 C 198.90 325.51, 197.14 318.48, 194.00 312.00 C 155.33 311.70, 116.67 312.66, 78.00 312.00 C 75.81 318.86, 72.53 325.28, 70.00 332.00 C 68.36 341.96, 66.87 351.94, 66.00 362.00" fill="#222" stroke="black" stroke-width="2.0" stroke-linecap="round" stroke-linejoin="round"/>
    <path d="M 216.00 362.00 C 262.67 361.36, 309.33 362.46, 356.00 362.00 C 355.41 351.90, 353.08 342.03, 352.00 332.00 C 349.39 325.31, 347.20 318.45, 344.00 312.00 C 305.33 312.53, 266.67 312.46, 228.00 312.00 C 225.70 318.81, 222.27 325.18, 220.00 332.00 C 219.27 342.08, 218.00 352.09, 216.00 362.00" fill="#222" stroke="black" stroke-width="2.0" stroke-linecap="round" stroke-linejoin="round"/>
    <path d="M 149.38 332.00 C 149.09 333.51, 149.11 335.08, 148.58 336.55 C 147.65 337.83, 147.17 339.37, 146.26 340.66 C 144.97 341.58, 143.39 341.90, 142.04 342.71 C 140.64 343.41, 139.13 343.71, 137.60 343.90 C 136.05 343.79, 134.72 342.78, 133.14 342.77 C 131.64 342.19, 130.15 341.60, 128.70 340.90 C 128.26 339.33, 127.52 337.90, 126.61 336.55 C 126.25 335.05, 126.51 333.46, 125.90 332.00 C 126.21 330.51, 126.59 329.04, 126.83 327.54 C 127.40 326.10, 128.27 324.87, 129.48 323.88 C 130.64 322.93, 131.85 322.07, 133.23 321.46 C 134.80 321.27, 136.12 320.35, 137.60 319.91 C 139.13 320.20, 140.50 321.05, 142.07 321.20 C 143.47 321.85, 144.33 323.26, 145.80 323.80 C 146.39 325.21, 147.17 326.50, 148.27 327.58 C 148.51 329.09, 149.22 330.48, 149.38 332.00" fill="none" stroke="black" stroke-width="2.0" stroke-linecap="round"/>
    <path d="M 286.95 332.00 C 286.85 333.65, 286.01 335.08, 285.57 336.63 C 284.67 337.95, 283.91 339.35, 283.15 340.75 C 281.78 341.57, 280.26 342.01, 278.78 342.57 C 277.27 342.63, 275.80 342.91, 274.40 343.48 C 272.96 342.94, 271.41 343.05, 269.93 342.80 C 268.53 342.11, 267.29 341.12, 265.80 340.60 C 265.04 339.16, 263.86 338.04, 262.87 336.78 C 262.49 335.21, 262.30 333.62, 262.34 332.00 C 262.67 330.45, 262.50 328.82, 263.11 327.32 C 264.00 326.02, 265.14 324.93, 266.02 323.62 C 267.38 322.88, 268.53 321.81, 269.85 321.01 C 271.29 320.33, 272.82 320.05, 274.40 319.96 C 275.88 320.46, 277.35 321.00, 278.94 321.04 C 280.31 321.85, 281.70 322.63, 283.19 323.21 C 283.59 324.76, 284.10 326.27, 285.02 327.60 C 285.79 329.01, 285.94 330.69, 286.95 332.00" fill="none" stroke="black" stroke-width="2.0" stroke-linecap="round"/>
    <path d="M 123.60 322.00 C 132.93 321.49, 142.27 321.52, 151.60 322.00 C 150.06 319.44, 148.35 316.96, 147.60 314.00 C 140.93 314.56, 134.27 313.90, 127.60 314.00 C 125.98 316.52, 124.99 319.36, 123.60 322.00" fill="black" stroke="black" stroke-width="2.0" stroke-linecap="round" stroke-linejoin="round"/>
    <path d="M 149.01 314.00 C 149.49 314.07, 149.20 314.68, 149.58 314.82 C 149.24 314.76, 148.99 314.95, 148.74 315.14 C 148.46 314.95, 148.34 315.24, 148.16 315.34 C 147.92 315.69, 147.45 315.92, 147.60 316.46 C 147.30 316.13, 146.98 316.07, 146.62 316.36 C 146.13 316.45, 146.09 315.98, 145.86 315.74 C 145.38 315.67, 145.48 315.22, 145.33 314.94 C 145.29 314.51, 145.44 314.18, 145.85 314.00 C 146.23 313.90, 146.00 313.58, 146.08 313.37 C 146.01 313.02, 146.26 312.63, 145.93 312.33 C 146.23 312.26, 146.55 312.25, 146.85 312.20 C 147.14 311.84, 147.33 312.45, 147.60 312.27 C 147.97 312.19, 148.42 312.23, 148.54 311.72 C 148.50 312.16, 148.85 312.28, 149.13 312.47 C 149.55 312.66, 149.43 312.98, 149.31 313.29 C 149.18 313.51, 148.84 313.65, 149.01 314.00" fill="black" stroke="black" stroke-width="2.0" stroke-linecap="round"/>
    <path d="M 258.40 322.00 C 269.07 322.51, 279.73 321.61, 290.40 322.00 C 288.79 318.78, 287.23 315.53, 286.40 312.00 C 278.40 311.73, 270.40 311.73, 262.40 312.00 C 261.20 315.39, 259.65 318.63, 258.40 322.00" fill="black" stroke="black" stroke-width="2.0" stroke-linecap="round" stroke-linejoin="round"/>
    <path d="M 256.40 322.00 C 268.40 321.35, 280.40 321.76, 292.40 322.00" fill="none" stroke="black" stroke-width="2.0" stroke-linecap="round"/>
    <path d="M 36.00 60.00 C 77.33 59.86, 118.67 60.52, 160.00 60.00 C 163.58 63.09, 166.21 67.12, 170.00 70.00 C 170.14 76.00, 170.66 82.00, 170.00 88.00 C 166.44 91.10, 163.79 95.12, 160.00 98.00 C 118.67 98.42, 77.33 98.45, 36.00 98.00 C 32.59 94.74, 28.79 91.87, 26.00 88.00 C 26.31 82.00, 25.78 76.00, 26.00 70.00 C 29.13 66.46, 32.47 63.14, 36.00 60.00" fill="#e3d3a2" stroke="black" stroke-width="2.0" stroke-linecap="round" stroke-linejoin="round"/>
    <path d="M 138.60 98.00 C 140.29 177.35, 142.68 256.68, 145.60 336.00 C 147.22 256.65, 150.31 177.33, 152.60 98.00" fill="#e3d3a2" stroke="black" stroke-width="2.0" stroke-linecap="round" stroke-linejoin="round"/>
    <line x1="139.60000000000002" y1="98" x2="151.60000000000002" y2="98" stroke="#e3d3a2" stroke-width="2.4"/>
    <text x="98.0" y="78.0" text-anchor="middle" font-family="Comic Neue, Comic Sans MS, cursive" font-size="13" fill="black"><tspan x="98.0" dy="0">I wuw brits man</tspan></text>
  </g>
</svg>
