<?xml version="1.0" encoding="UTF-8"?>
<svg xmlns="http://www.w3.org/2000/svg" viewBox="0 0 412 402" width="412" height="402" role="img" aria-label="#062 — Big Hero 6 (2014)">
  <defs><filter id="fibers" x="0%" y="0%" width="100%" height="100%"><feTurbulence type="fractalNoise" baseFrequency="0.04 0.7" numOctaves="2" stitchTiles="stitch" seed="11"/><feColorMatrix values="0 0 0 0 0.38  0 0 0 0 0.26  0 0 0 0 0.13  0 0 0 -0.7 0.28"/></filter><filter id="grain" x="0%" y="0%" width="100%" height="100%"><feTurbulence type="fractalNoise" baseFrequency="0.65" numOctaves="3" stitchTiles="stitch" seed="9"/><feColorMatrix values="0 0 0 0 0.42  0 0 0 0 0.30  0 0 0 0 0.16  0 0 0 -1.1 0.5"/></filter></defs>
  <rect width="100%" height="100%" fill="#e3d3a2"/>
  <rect width="100%" height="100%" filter="url(#fibers)" opacity="0.55"/>
  <rect width="100%" height="100%" filter="url(#grain)" opacity="0.85"/>
  <text x="206.0" y="34" text-anchor="middle" font-family="Comic Neue, Comic Sans MS, cursive" font-size="16" font-weight="700" fill="black">#062 — Big Hero 6 (2014) ★★★★</text>
  <g class="panel">
    <path d="M 16.00 46.00 C 142.67 46.27, 269.33 45.77, 396.00 46.00 C 395.37 159.33, 395.81 272.67, 396.00 386.00 C 269.33 385.86, 142.67 386.77, 16.00 386.00 C 16.42 272.67, 16.68 159.33, 16.00 46.00" fill="none" stroke="black" stroke-width="2.0" stroke-linecap="round" stroke-linejoin="round"/>
    <path d="M 26.00 362.00 C 146.00 362.62, 266.00 361.68, 386.00 362.00" fill="none" stroke="black" stroke-width="1.4" stroke-linecap="round"/>
    <path d="M 312.40 108.00 C 314.11 111.77, 314.98 115.88, 317.16 119.45 C 321.22 120.55, 325.44 119.59, 329.52 120.44 C 326.80 123.62, 323.21 125.78, 320.10 128.50 C 320.56 132.64, 321.70 136.62, 322.98 140.56 C 319.34 138.59, 315.56 136.85, 312.40 134.10 C 308.98 136.43, 304.96 137.78, 301.82 140.56 C 302.18 136.40, 303.46 132.46, 304.70 128.50 C 301.50 125.88, 297.99 123.63, 295.28 120.44 C 299.38 119.80, 303.53 119.97, 307.64 119.45 C 309.85 115.89, 310.44 111.66, 312.40 108.00" fill="none" stroke="black" stroke-width="2.0" stroke-linecap="round" stroke-linejoin="round"/>
    <path d="M 99.60 94.00 C 100.39 96.65, 101.02 99.38, 102.77 101.63 C 105.58 101.09, 108.22 102.63, 111.01 102.29 C 108.59 103.70, 106.46 105.45, 104.74 107.67 C 106.08 110.18, 106.26 112.97, 106.65 115.71 C 103.99 114.78, 102.22 112.40, 99.60 111.40 C 97.14 112.66, 94.69 113.94, 92.55 115.71 C 92.44 112.85, 93.41 110.25, 94.46 107.67 C 92.19 106.09, 89.95 104.47, 88.19 102.29 C 90.95 102.27, 93.72 102.31, 96.43 101.63 C 96.80 98.80, 98.79 96.65, 99.60 94.00" fill="none" stroke="black" stroke-width="2.0" stroke-linecap="round" stroke-linejoin="round"/>
    <path d="M 198.42 270.00 C 198.40 271.57, 198.05 273.13, 198.36 274.71 C 197.56 276.09, 196.71 277.46, 195.72 278.72 C 194.40 279.64, 192.87 280.06, 191.39 280.60 C 189.99 281.21, 188.52 281.55, 187.00 281.68 C 185.55 281.16, 184.00 281.17, 182.52 280.82 C 181.19 280.05, 179.80 279.37, 178.58 278.42 C 177.68 277.17, 177.22 275.66, 176.22 274.46 C 175.49 273.05, 175.30 271.44, 174.64 270.00 C 175.23 268.52, 175.33 266.90, 176.03 265.46 C 176.73 264.07, 178.22 263.31, 178.89 261.89 C 179.98 260.81, 181.48 260.21, 182.42 258.94 C 183.86 258.23, 185.52 258.43, 187.00 257.86 C 188.56 258.09, 189.95 258.81, 191.41 259.35 C 192.72 260.20, 194.02 261.04, 195.54 261.46 C 196.40 262.76, 196.83 264.32, 197.94 265.47 C 198.27 266.96, 198.25 268.49, 198.42 270.00" fill="none" stroke="black" stroke-width="2.0" stroke-linecap="round"/>
    <path d="M 175.00 268.00 C 174.70 278.69, 173.58 289.33, 173.00 300.00" fill="none" stroke="black" stroke-width="2.0" stroke-linecap="round"/>
    <path d="M 177.00 266.00 C 176.86 278.69, 176.22 291.36, 175.00 304.00" fill="none" stroke="black" stroke-width="2.0" stroke-linecap="round"/>
    <path d="M 199.00 268.00 C 199.20 278.70, 200.60 289.32, 201.00 300.00" fill="none" stroke="black" stroke-width="2.0" stroke-linecap="round"/>
    <path d="M 183.00 258.00 C 181.94 256.79, 179.98 257.38, 179.00 256.00" fill="none" stroke="black" stroke-width="1.4" stroke-linecap="round"/>
    <path d="M 191.00 258.00 C 192.44 257.55, 193.82 256.98, 195.00 256.00" fill="none" stroke="black" stroke-width="1.4" stroke-linecap="round"/>
    <path d="M 187.00 282.00 C 186.14 296.00, 187.35 310.00, 187.00 324.00" fill="none" stroke="black" stroke-width="2.0" stroke-linecap="round"/>
    <path d="M 187.00 288.00 C 179.02 279.17, 172.11 269.51, 165.00 260.00" fill="none" stroke="black" stroke-width="2.0" stroke-linecap="round"/>
    <path d="M 187.00 288.00 C 194.50 278.79, 201.89 269.51, 209.00 260.00" fill="none" stroke="black" stroke-width="2.0" stroke-linecap="round"/>
    <path d="M 187.00 324.00 C 182.25 332.32, 178.33 341.02, 175.00 350.00" fill="none" stroke="black" stroke-width="2.0" stroke-linecap="round"/>
    <path d="M 187.00 324.00 C 190.85 332.73, 195.41 341.15, 199.00 350.00" fill="none" stroke="black" stroke-width="2.0" stroke-linecap="round"/>
    <path d="M 36.00 60.00 C 86.00 59.40, 136.00 59.46, 186.00 60.00 C 189.27 63.40, 193.07 66.27, 196.00 70.00 C 196.16 92.00, 195.72 114.00, 196.00 136.00 C 193.11 139.78, 189.83 143.16, 186.00 146.00 C 136.00 145.47, 86.00 146.10, 36.00 146.00 C 32.17 143.16, 29.67 139.00, 26.00 136.00 C 25.63 114.00, 25.85 92.00, 26.00 70.00 C 29.44 66.78, 33.14 63.80, 36.00 60.00" fill="#e3d3a2" stroke="black" stroke-width="2.0" stroke-linecap="round" stroke-linejoin="round"/>
    <path d="M 177.00 146.00 C 182.32 188.76, 188.30 231.43, 195.00 274.00 C 193.65 231.33, 192.30 188.67, 191.00 146.00" fill="#e3d3a2" stroke="black" stroke-width="2.0" stroke-linecap="round" stroke-linejoin="round"/>
    <line x1="178" y1="146" x2="190" y2="146" stroke="#e3d3a2" stroke-width="2.4"/>
    <text x="111.0" y="78.0" text-anchor="middle" font-family="Comic Neue, Comic Sans MS, cursive" font-size="13" fill="black"><tspan x="111.0" dy="0">full on wild robot</tspan><tspan x="111.0" dy="16">vibes, its weird how</tspan><tspan x="111.0" dy="16">emotional im attached</tspan><tspan x="111.0" dy="16">to robots😭</tspan></text>
  </g>
</svg>
